<svg width="26" height="20" viewBox="0 0 26 20" fill="none" xmlns="http://www.w3.org/2000/svg">
<path d="M25.221 2.36906C24.5354 3.38888 23.6942 4.25824 22.6975 4.97712C22.7074 5.16992 22.7123 5.38783 22.7123 5.63085C22.7123 6.98116 22.5154 8.3331 22.1217 9.68667C21.728 11.0403 21.1265 12.3359 20.3174 13.5735C19.5083 14.8112 18.5444 15.9076 17.4259 16.8629C16.3074 17.8181 14.9629 18.5798 13.3924 19.1479C11.8219 19.716 10.1387 20 8.34291 20C5.54024 20 2.95927 19.2434 0.599976 17.7301C1.01872 17.7767 1.42033 17.8 1.80481 17.8C4.14621 17.8 6.23746 17.0789 8.07855 15.6365C6.98686 15.6165 6.00916 15.2804 5.14547 14.6283C4.28178 13.9762 3.68741 13.143 3.36235 12.1286C3.68365 12.1898 4.00075 12.2204 4.31367 12.2204C4.7641 12.2204 5.20731 12.1616 5.64331 12.0441C4.47827 11.8108 3.51177 11.2305 2.74381 10.3033C1.97588 9.37614 1.59191 8.30599 1.59191 7.09287V7.03035C2.30702 7.4263 3.06979 7.63691 3.88023 7.66219C3.19007 7.20209 2.64288 6.60209 2.23865 5.86221C1.8344 5.12233 1.63227 4.32166 1.63227 3.46018C1.63227 2.5516 1.85995 1.70555 2.31529 0.922019C3.58225 2.47678 5.11744 3.71939 6.92085 4.64986C8.72429 5.58033 10.659 6.09709 12.7251 6.20013C12.637 5.83289 12.5928 5.44966 12.5927 5.05044C12.5927 3.65649 13.086 2.46626 14.0725 1.47976C15.0591 0.493253 16.2494 0 17.6434 0C19.1028 0 20.3321 0.531406 21.3312 1.59422C22.4728 1.3681 23.5417 0.959106 24.5379 0.36724C24.1541 1.57511 23.4145 2.50689 22.3192 3.1626C23.3259 3.04297 24.2931 2.77846 25.221 2.36906H25.221Z" fill="white"/>
</svg>
