<svg width="26" height="18" viewBox="0 0 26 18" fill="none" xmlns="http://www.w3.org/2000/svg">
<g clip-path="url(#clip0_1363:86233)">
<path d="M25.0344 2.8075C24.8876 2.26486 24.6012 1.77014 24.2037 1.37263C23.8062 0.975112 23.3115 0.688661 22.7688 0.5418C20.7822 0 12.7868 0 12.7868 0C12.7868 0 4.79103 0.0164 2.80443 0.5582C2.26178 0.70507 1.76707 0.991536 1.36957 1.38907C0.972073 1.78661 0.685651 2.28134 0.538828 2.824C-0.0620715 6.3538 -0.295172 11.7324 0.555328 15.121C0.702166 15.6636 0.988595 16.1584 1.38609 16.5559C1.78359 16.9534 2.27829 17.2398 2.82093 17.3867C4.80753 17.9285 12.8031 17.9285 12.8031 17.9285C12.8031 17.9285 20.7986 17.9285 22.7851 17.3867C23.3278 17.2399 23.8225 16.9534 24.22 16.5559C24.6175 16.1584 24.904 15.6637 25.0508 15.121C25.6846 11.5862 25.8799 6.211 25.0344 2.8076V2.8075Z" fill="white"/>
<path d="M10.242 12.8062L16.8749 8.96436L10.2421 5.12256L10.242 12.8062Z" fill="#3CBF80"/>
</g>
<defs>
<clipPath id="clip0_1363:86233">
<rect width="25.6" height="18" fill="white"/>
</clipPath>
</defs>
</svg>
