<svg width="166" height="36" viewBox="0 0 166 36" fill="none" xmlns="http://www.w3.org/2000/svg">
<path fill-rule="evenodd" clip-rule="evenodd" d="M42.9647 11.282V24.1116H47.6179C51.6653 24.1116 53.8129 20.9253 53.7578 17.6545C53.7578 14.3836 51.6102 11.282 47.6179 11.282H42.9647ZM45.6079 21.6302V13.7633H47.5628C49.8481 13.7633 51.0871 15.6243 51.0871 17.6827C51.0871 19.741 49.8756 21.6584 47.5628 21.6584H45.6079V21.6302ZM63.6699 11.282H55.988V24.1398H63.8075V21.6302H58.6863V18.6978H63.3395V16.2728H58.6863V13.6787H63.6699V11.282ZM65.5421 20.3332C65.5421 23.1529 68.1303 24.4217 70.6634 24.4217C73.1414 24.3653 75.702 23.4348 75.702 20.3896C75.702 17.3725 73.4167 16.7804 70.7735 16.5266C69.4519 16.3856 68.3781 16.1318 68.3781 14.9758C68.3781 13.9889 69.4244 13.3967 70.4982 13.3967C71.572 13.3967 72.6182 13.8479 72.7834 14.8912H75.289C75.289 12.0151 72.8385 11 70.4982 11C68.0201 11 65.7349 12.1843 65.7349 15.0322C65.7349 17.6827 68.0201 18.4722 70.3054 18.6978C71.5169 18.7823 73.0588 18.9233 73.0588 20.3896C73.0588 21.743 71.7647 21.9968 70.6634 21.9968C69.4519 21.9968 68.1853 21.4892 68.1303 20.3332H65.5421ZM85.1184 21.9968L86.1096 24.1398H88.8905V23.7732L83.1635 11.1692H81.9245L76.1425 23.7732V24.1398H78.9509L79.9146 21.9968H85.1184ZM82.5303 15.4269L84.2649 19.6564H80.7957L82.5303 15.4269ZM94.0943 11.282V24.1116H98.7475C102.795 24.1116 104.942 20.9253 104.887 17.6545C104.887 14.3836 102.74 11.282 98.7475 11.282H94.0943ZM96.765 21.6302V13.7633H98.7199C101.005 13.7633 102.244 15.6243 102.244 17.6827C102.244 19.741 101.033 21.6584 98.7199 21.6584H96.765V21.6302ZM110.725 21.9404V13.3967H112.349V11.2538H106.402V13.3967H108.026V21.9404H106.264V24.1116H112.514V21.9404H110.725ZM113.836 17.7109C113.836 21.9686 116.92 24.3089 120.224 24.3089C122.619 24.3089 124.877 23.2375 125.813 20.6433C126.226 19.4591 126.253 18.2748 126.198 17.0341H120.334V19.3463H123.748C123.197 21.2637 121.958 21.7994 120.224 21.7994C117.993 21.7994 116.562 20.1358 116.562 17.7109C116.562 15.4269 117.883 13.5941 120.224 13.5941C121.655 13.5941 122.674 14.1017 123.28 15.3423H125.923C125.207 12.3535 122.702 11.1128 120.224 11.1128C116.947 11.1128 113.836 13.4531 113.836 17.7109ZM132.035 21.9404V13.3967H133.66V11.2538H127.713V13.3967H129.337V21.9404H127.575V24.1116H133.825V21.9404H132.035ZM138.285 13.6505V24.1116H140.874V13.6505H144.205V11.2538H134.926V13.6505H138.285ZM152.493 21.9968H147.289L146.325 24.1398H143.517V23.7732L149.299 11.1692H150.538L156.265 23.7732V24.1398H153.484L152.493 21.9968ZM149.905 15.4269L148.17 19.6564H151.639L149.905 15.4269ZM160.312 11.282H157.614V24.1398H165.544V21.6866H160.312V11.282Z" fill="white"/>
<rect width="35.1529" height="36" rx="17.5765" fill="white"/>
<path fill-rule="evenodd" clip-rule="evenodd" d="M11.1046 6.35645L22.1694 13.0396C25.2279 14.8949 25.2279 17.9074 22.1694 19.7627L11.1046 26.4259V6.35645Z" fill="#FFCB05"/>
<path fill-rule="evenodd" clip-rule="evenodd" d="M16.2085 9.42871L24.5266 14.456C28.4422 16.8301 28.4422 20.9397 24.5266 23.2938L16.2085 28.3211V9.42871Z" fill="#00C1F3"/>
<path fill-rule="evenodd" clip-rule="evenodd" d="M16.2085 9.42871L22.1695 13.0197C25.2279 14.875 25.2279 17.8874 22.1695 19.7427L16.2085 23.3337V9.42871Z" fill="#00A651"/>
</svg>
