<svg width="25" height="24" viewBox="0 0 25 24" fill="none" xmlns="http://www.w3.org/2000/svg">
<path fill-rule="evenodd" clip-rule="evenodd" d="M8.06498 1.066C9.23798 1.012 9.61198 1 12.6 1C15.588 1 15.962 1.013 17.134 1.066C18.306 1.119 19.106 1.306 19.806 1.577C20.539 1.854 21.204 2.287 21.754 2.847C22.314 3.396 22.746 4.06 23.022 4.794C23.294 5.494 23.48 6.294 23.534 7.464C23.588 8.639 23.6 9.013 23.6 12C23.6 14.988 23.587 15.362 23.534 16.535C23.481 17.705 23.294 18.505 23.022 19.205C22.746 19.9391 22.3133 20.6042 21.754 21.154C21.204 21.714 20.539 22.146 19.806 22.422C19.106 22.694 18.306 22.88 17.136 22.934C15.962 22.988 15.588 23 12.6 23C9.61198 23 9.23798 22.987 8.06498 22.934C6.89498 22.881 6.09498 22.694 5.39498 22.422C4.6609 22.146 3.9958 21.7133 3.44598 21.154C2.88636 20.6047 2.45329 19.9399 2.17698 19.206C1.90598 18.506 1.71998 17.706 1.66598 16.536C1.61198 15.361 1.59998 14.987 1.59998 12C1.59998 9.012 1.61298 8.638 1.66598 7.466C1.71898 6.294 1.90598 5.494 2.17698 4.794C2.4537 4.06008 2.88709 3.39531 3.44698 2.846C3.99602 2.2865 4.66045 1.85344 5.39398 1.577C6.09398 1.306 6.89398 1.12 8.06398 1.066H8.06498ZM17.045 3.046C15.885 2.993 15.537 2.982 12.6 2.982C9.66298 2.982 9.31498 2.993 8.15498 3.046C7.08198 3.095 6.49998 3.274 6.11198 3.425C5.59898 3.625 5.23198 3.862 4.84698 4.247C4.48202 4.60205 4.20116 5.03428 4.02498 5.512C3.87398 5.9 3.69498 6.482 3.64598 7.555C3.59298 8.715 3.58198 9.063 3.58198 12C3.58198 14.937 3.59298 15.285 3.64598 16.445C3.69498 17.518 3.87398 18.1 4.02498 18.488C4.20098 18.965 4.48198 19.398 4.84698 19.753C5.20198 20.118 5.63498 20.399 6.11198 20.575C6.49998 20.726 7.08198 20.905 8.15498 20.954C9.31498 21.007 9.66198 21.018 12.6 21.018C15.538 21.018 15.885 21.007 17.045 20.954C18.118 20.905 18.7 20.726 19.088 20.575C19.601 20.375 19.968 20.138 20.353 19.753C20.718 19.398 20.999 18.965 21.175 18.488C21.326 18.1 21.505 17.518 21.554 16.445C21.607 15.285 21.618 14.937 21.618 12C21.618 9.063 21.607 8.715 21.554 7.555C21.505 6.482 21.326 5.9 21.175 5.512C20.975 4.999 20.738 4.632 20.353 4.247C19.9979 3.88207 19.5657 3.60121 19.088 3.425C18.7 3.274 18.118 3.095 17.045 3.046ZM11.195 15.391C11.9796 15.7176 12.8534 15.7617 13.6669 15.5157C14.4805 15.2697 15.1834 14.7489 15.6556 14.0422C16.1278 13.3356 16.34 12.4869 16.256 11.6411C16.172 10.7953 15.797 10.005 15.195 9.405C14.8112 9.02148 14.3472 8.72781 13.8363 8.54515C13.3254 8.36248 12.7804 8.29536 12.2405 8.34862C11.7005 8.40187 11.1791 8.57418 10.7138 8.85313C10.2484 9.13208 9.85072 9.51074 9.54928 9.96185C9.24784 10.413 9.05016 10.9253 8.97049 11.462C8.89082 11.9986 8.93113 12.5463 9.08852 13.0655C9.2459 13.5847 9.51646 14.0626 9.8807 14.4647C10.2449 14.8668 10.6938 15.1832 11.195 15.391ZM8.60198 8.002C9.127 7.47697 9.7503 7.0605 10.4363 6.77636C11.1223 6.49222 11.8575 6.34597 12.6 6.34597C13.3425 6.34597 14.0777 6.49222 14.7637 6.77636C15.4497 7.0605 16.073 7.47697 16.598 8.002C17.123 8.52702 17.5395 9.15032 17.8236 9.8363C18.1078 10.5223 18.254 11.2575 18.254 12C18.254 12.7425 18.1078 13.4777 17.8236 14.1637C17.5395 14.8497 17.123 15.473 16.598 15.998C15.5376 17.0583 14.0995 17.654 12.6 17.654C11.1004 17.654 9.66231 17.0583 8.60198 15.998C7.54164 14.9377 6.94595 13.4995 6.94595 12C6.94595 10.5005 7.54164 9.06234 8.60198 8.002ZM19.508 7.188C19.6381 7.06527 19.7422 6.91768 19.8143 6.75397C19.8863 6.59027 19.9248 6.41377 19.9274 6.23493C19.93 6.05609 19.8967 5.87855 19.8295 5.71281C19.7622 5.54707 19.6624 5.39651 19.5359 5.27004C19.4095 5.14357 19.2589 5.04376 19.0932 4.97652C18.9274 4.90928 18.7499 4.87598 18.571 4.87858C18.3922 4.88119 18.2157 4.91965 18.052 4.9917C17.8883 5.06374 17.7407 5.1679 17.618 5.298C17.3793 5.55103 17.2486 5.88712 17.2537 6.23493C17.2587 6.58274 17.3992 6.91488 17.6451 7.16084C17.8911 7.40681 18.2232 7.54723 18.571 7.5523C18.9189 7.55737 19.2549 7.42669 19.508 7.188Z" fill="white"/>
</svg>
