<svg width="207" height="22" viewBox="0 0 207 22" fill="none" xmlns="http://www.w3.org/2000/svg">
<g clip-path="url(#clip0_1363:86542)">
<path fill-rule="evenodd" clip-rule="evenodd" d="M8.93699 8.30563C8.93699 7.97672 8.6629 7.70264 8.33399 7.70264C8.00509 7.70264 7.731 7.97672 7.731 8.30563C7.731 8.63453 8.00509 8.90862 8.33399 8.90862C8.67386 8.89766 8.93699 8.63453 8.93699 8.30563Z" fill="white"/>
<path fill-rule="evenodd" clip-rule="evenodd" d="M4.24462 8.30563C4.24462 7.97672 3.9815 7.70264 3.64163 7.70264C3.30176 7.70264 3.03864 7.97672 3.03864 8.30563C3.03864 8.63453 3.30176 8.90862 3.64163 8.90862C3.9815 8.90862 4.24462 8.63453 4.24462 8.30563Z" fill="white"/>
<path fill-rule="evenodd" clip-rule="evenodd" d="M5.99877 8.89788C6.32767 8.89788 6.60176 8.62379 6.60176 8.29489C6.60176 7.96598 6.33864 7.69189 5.99877 7.69189C5.6589 7.69189 5.39577 7.96598 5.39577 8.29489C5.39577 8.63475 5.6589 8.89788 5.99877 8.89788Z" fill="white"/>
<path fill-rule="evenodd" clip-rule="evenodd" d="M12.0945 7.10002C12.0945 7.42893 11.8204 7.70302 11.4915 7.70302H10.6802C10.3513 7.70302 10.0772 7.9771 10.0772 8.30601C10.0772 8.63491 10.3513 8.909 10.6802 8.909H11.7217C13.4978 8.91996 15.0985 9.66548 16.2496 10.8386C18.0805 8.71166 18.4204 6.33258 17.2144 4.15084C17.1925 4.10699 17.1815 4.08506 17.1706 4.06314C16.14 1.96911 14.1885 1.04817 12.7194 0.642525C12.4672 0.598671 12.2151 0.565781 11.941 0.543854C11.7107 0.53289 11.5024 0.510963 11.3161 0.5H6.77718C6.44827 0.5 6.17419 0.774087 6.17419 1.10299C6.17419 1.4319 6.44827 1.70598 6.77718 1.70598H7.00741H7.05126C7.38017 1.70598 7.65426 1.98007 7.65426 2.30898C7.65426 2.63788 7.39113 2.91197 7.06223 2.91197H3.79511C3.4662 2.91197 3.19212 3.18606 3.19212 3.51496C3.19212 3.84387 3.4662 4.11795 3.79511 4.11795H9.36456C9.69347 4.11795 9.96755 4.39204 9.96755 4.72095C9.96755 5.04985 9.69347 5.32394 9.36456 5.32394H0.593767C0.462205 5.32394 0.341607 5.38972 0.275826 5.51032C0.242935 5.54321 0.221008 5.60899 0.221008 5.67477C0.221008 5.74055 0.231972 5.79537 0.264862 5.86115L1.61337 8.2183C1.65723 8.29504 1.73397 8.32793 1.82168 8.30601C1.90939 8.28408 1.9642 8.20734 1.9642 8.13059V6.49703H11.4915C11.8204 6.49703 12.0945 6.77112 12.0945 7.10002Z" fill="white"/>
<path fill-rule="evenodd" clip-rule="evenodd" d="M12.0616 21.4951C16.1619 20.7715 18.0915 17.7017 17.8722 14.9499C17.6749 12.4612 16.4031 11.299 16.2387 11.1675C15.0875 12.3515 13.4868 13.0971 11.6998 13.0971H5.39578C3.23597 13.0971 1.45989 14.7197 1.21869 16.8137V17.7785C1.45989 19.8725 3.23597 21.4951 5.39578 21.4951H11.7217C11.8314 21.5061 11.952 21.4951 12.0616 21.4951Z" fill="white"/>
<path fill-rule="evenodd" clip-rule="evenodd" d="M13.7061 0.697266C13.7609 0.719193 13.8048 0.74112 13.8596 0.763047C13.8925 0.77401 13.9363 0.795937 13.9692 0.806901C14.0131 0.828828 14.0569 0.850755 14.1117 0.872682C14.1556 0.894609 14.1995 0.905572 14.2323 0.927499C14.2762 0.949426 14.3201 0.971353 14.3639 0.99328C14.4078 1.01521 14.4516 1.03713 14.4955 1.05906C14.5393 1.08099 14.5832 1.10291 14.627 1.12484C14.6709 1.14677 14.7147 1.1687 14.7586 1.20159C14.8025 1.22351 14.8463 1.2564 14.8902 1.27833C14.934 1.31122 14.9779 1.33315 15.0217 1.36604C15.0656 1.38797 15.1094 1.42086 15.1423 1.44278C15.1862 1.47567 15.23 1.4976 15.2739 1.53049C15.3177 1.56338 15.3616 1.58531 15.3945 1.6182C15.4383 1.65109 15.4822 1.68398 15.526 1.71687C15.5699 1.74976 15.6028 1.78265 15.6466 1.81554C15.6905 1.84843 15.7343 1.88132 15.7782 1.92518C15.8221 1.95807 15.8549 1.99096 15.8988 2.02385C15.9427 2.0677 15.9865 2.10059 16.0304 2.14445C16.0633 2.17734 16.1071 2.21023 16.14 2.25408C16.1838 2.29794 16.2277 2.34179 16.2716 2.38564C16.3044 2.41853 16.3373 2.46239 16.3812 2.49528C16.425 2.53913 16.4689 2.59395 16.5018 2.6378C16.5347 2.68166 16.5676 2.71455 16.6005 2.7584C16.6443 2.81322 16.6882 2.85707 16.7211 2.91189C16.754 2.95575 16.7868 2.98864 16.8088 3.03249C16.8526 3.08731 16.8855 3.15309 16.9294 3.20791C16.9623 3.25176 16.9842 3.28465 17.0061 3.3285C17.05 3.39428 17.0938 3.47103 17.1267 3.53681C17.1486 3.5697 17.1706 3.60259 17.1925 3.64645C17.2583 3.75608 17.3131 3.86572 17.3679 3.97535C17.3789 3.98631 17.3898 4.0192 17.4118 4.05209C17.4775 4.16173 17.5324 4.28233 17.5872 4.39196C17.5981 4.41389 17.6091 4.42485 17.6091 4.44678C17.6639 4.55642 17.7078 4.66605 17.7516 4.77569C17.7626 4.79761 17.7626 4.81954 17.7736 4.84147C17.8174 4.9511 17.8613 5.06074 17.8942 5.17037C17.8942 5.18133 17.9051 5.1923 17.9051 5.21423C17.938 5.32386 17.9709 5.44446 18.0038 5.55409V5.56506C18.0367 5.68566 18.0586 5.79529 18.0696 5.91589C18.0696 5.92685 18.0696 5.94878 18.0805 5.95974C18.1025 6.08034 18.1134 6.18998 18.1244 6.29961C18.1244 6.31057 18.1244 6.3325 18.1244 6.34346C18.1354 6.46406 18.1463 6.58466 18.1463 6.70526C18.1463 6.82586 18.1463 6.95742 18.1463 7.07802C18.1463 7.07802 18.1463 7.07802 18.1463 7.08898C18.1354 7.20958 18.1244 7.33018 18.1134 7.45078C18.1134 7.46174 18.1134 7.4727 18.1134 7.48367C18.1025 7.60427 18.0805 7.72486 18.0586 7.84546V7.85643C17.9819 8.22919 17.8722 8.61291 17.7187 8.98567V8.99663C17.5653 9.36939 17.3569 9.74215 17.1267 10.1149C16.8307 10.6083 16.5566 10.9262 16.4579 11.0249C16.4908 11.0578 16.5128 11.0907 16.5347 11.1235C16.5566 11.1455 16.5785 11.1674 16.6114 11.2003C16.6224 11.2113 16.6224 11.2113 16.6334 11.2222C16.6553 11.2441 16.6772 11.2661 16.6991 11.299C16.7101 11.3099 16.7211 11.3319 16.743 11.3428C16.7649 11.3647 16.7868 11.3867 16.8088 11.4196C16.8307 11.4415 16.8526 11.4744 16.8745 11.4963C16.8855 11.5182 16.9074 11.5402 16.9294 11.5621C17.0061 11.6717 17.0938 11.7923 17.1815 11.9239C17.1925 11.9348 17.1925 11.9458 17.2035 11.9568C17.2363 12.0116 17.2692 12.0774 17.3131 12.1432C17.3241 12.1651 17.335 12.187 17.346 12.2089C17.3789 12.2638 17.4118 12.3295 17.4447 12.3843C17.4556 12.4172 17.4666 12.4392 17.4885 12.4721C17.5214 12.5269 17.5433 12.5927 17.5762 12.6584C17.5872 12.6913 17.6091 12.7242 17.6201 12.7571C17.642 12.8229 17.6749 12.8777 17.6968 12.9545C17.7078 12.9873 17.7297 13.0312 17.7407 13.0641C17.7626 13.1299 17.7845 13.1956 17.8064 13.2724C17.8174 13.3162 17.8393 13.3601 17.8503 13.404C17.8722 13.4697 17.8942 13.5465 17.9161 13.6232C17.927 13.6671 17.938 13.7109 17.949 13.7657C17.9709 13.8425 17.9819 13.9192 18.0038 14.0069C18.0148 14.0508 18.0257 14.1056 18.0367 14.1495C18.0476 14.2372 18.0696 14.3359 18.0805 14.4236C18.0915 14.4674 18.0915 14.5113 18.1025 14.5551C18.1244 14.6976 18.1354 14.8402 18.1463 14.9827C18.1573 15.0704 18.1573 15.1581 18.1573 15.2458C18.1573 15.2787 18.1573 15.3006 18.1573 15.3335C18.1573 15.3883 18.1573 15.4541 18.1573 15.5089C18.1573 15.5418 18.1573 15.5747 18.1573 15.6076C18.1573 15.6624 18.1573 15.7173 18.1463 15.7721C18.1463 15.805 18.1463 15.8378 18.1354 15.8707C18.1354 15.9256 18.1244 15.9804 18.1244 16.0462C18.1244 16.079 18.1244 16.101 18.1134 16.1339C18.1025 16.2216 18.0915 16.2983 18.0805 16.386C18.0805 16.408 18.0696 16.4408 18.0696 16.4628C18.0586 16.5176 18.0476 16.5834 18.0367 16.6491C18.0257 16.693 18.0148 16.7259 18.0148 16.7588C18.0038 16.8026 17.9928 16.8575 17.9819 16.9013C17.9709 16.9452 17.9599 16.989 17.949 17.0219C17.938 17.0658 17.927 17.1096 17.9051 17.1535C17.8942 17.1973 17.8722 17.2412 17.8613 17.285C17.8503 17.3289 17.8284 17.3618 17.8174 17.4056C17.8064 17.4495 17.7845 17.4933 17.7626 17.5482C17.7626 17.5591 17.7516 17.581 17.7407 17.592C17.6968 17.7016 17.642 17.8222 17.5981 17.9319C17.5872 17.9538 17.5762 17.9867 17.5652 18.0086C17.5433 18.0634 17.5104 18.1183 17.4885 18.1731C17.4775 18.195 17.4666 18.2279 17.4447 18.2498C17.4118 18.3046 17.3898 18.3595 17.3569 18.4143C17.346 18.4362 17.335 18.4581 17.3241 18.4801C17.2912 18.5349 17.2583 18.5897 17.2144 18.6555C17.2144 18.6664 17.2035 18.6664 17.2035 18.6774C17.028 18.9515 16.8307 19.2146 16.6114 19.4668C16.6114 19.4777 16.6005 19.4777 16.5895 19.4887C16.5347 19.5545 16.4799 19.6093 16.425 19.6641C16.425 19.6641 16.425 19.6641 16.4141 19.6751C15.7453 20.3658 14.8792 20.9578 13.8157 21.3635C18.6068 20.3877 22.2357 16.1448 22.2357 11.0797C22.2247 5.90492 18.541 1.62916 13.7061 0.697266Z" fill="white"/>
<g clip-path="url(#clip1_1363:86542)">
<path d="M43.5854 6.07812H39.7542V7.87972H41.5004V12.5795C41.5004 13.5978 40.8488 14.1462 39.8584 14.1462C38.8681 14.1462 38.1644 13.624 38.1644 12.5795V11.4307H36.2357V12.6318C36.2357 14.7467 37.8516 16 39.8845 16C41.9174 16 43.6115 14.7467 43.6115 12.6318V6.07812H43.5854Z" fill="white"/>
<path d="M49.3712 9.26377L50.7265 12.4753H48.016L49.3712 9.26377ZM51.3781 14.2508L52.1339 15.8696H54.2971V15.5824L49.8404 6H48.8761L44.3932 15.5824V15.8696H46.5565L47.3123 14.2508H51.3781Z" fill="white"/>
<path d="M59.6919 11.8226C60.0047 11.8226 60.2913 11.8487 60.5259 12.0054C60.8126 12.2143 60.969 12.5798 60.969 12.9715C60.9169 13.6242 60.4998 14.042 59.7961 14.042H57.4766V11.7965H59.6919V11.8226ZM59.3792 7.87998C60.1089 7.87998 60.552 8.34996 60.552 9.05494C60.5259 9.70769 60.0828 10.0993 59.3792 10.0993H57.4766V7.87998H59.3792ZM62.5849 9.00272C62.5849 7.17501 61.3078 6.10449 59.5095 6.10449H55.3655V15.8697H59.9004C61.8551 15.8697 63.0019 14.6947 63.0019 12.9715C63.0019 11.9793 62.5067 11.1699 61.6206 10.8043C62.22 10.4127 62.5849 9.70769 62.5849 9.00272Z" fill="white"/>
<path d="M68.3444 9.26377L69.6997 12.4753H67.0152L68.3444 9.26377ZM70.3773 14.2508L71.1332 15.8696H73.2964V15.5824L68.8396 6H67.8753L63.3925 15.5824V15.8696H65.5557L66.3115 14.2508H70.3773Z" fill="white"/>
<path d="M76.4251 10.9089V7.90621H78.5101C79.3962 7.90621 79.9436 8.55896 79.9436 9.39448C79.9696 10.23 79.3962 10.9089 78.5101 10.9089H76.4251ZM80.2302 12.2927C81.351 11.7444 81.9765 10.6478 81.9765 9.4206C81.9765 7.69733 80.7515 6.0785 78.5362 6.0785C77.1548 6.05239 75.7735 6.0785 74.3661 6.0785V15.8698H76.4511V12.6321H78.1973L80.2042 15.8698H82.4456V15.5826L80.2302 12.2927Z" fill="white"/>
</g>
<g clip-path="url(#clip2_1363:86542)">
<path d="M90.5252 13.9943V8.03076H92.0328C93.8005 8.03076 94.7623 9.43701 94.7623 10.9995C94.7623 12.562 93.8265 13.9943 92.0328 13.9943H90.5252ZM88.4456 6.15576V15.8953H92.0588C95.2042 15.8953 96.8678 13.4995 96.8158 10.9995C96.8158 8.52555 95.1522 6.1818 92.0588 6.1818H88.4456V6.15576Z" fill="white"/>
<path d="M101.313 14.2288V7.74447H102.587V6.12988H97.9859V7.74447H99.2336V14.2288H97.8559V15.8695H102.691V14.2288H101.313Z" fill="white"/>
<path d="M103.731 11C103.731 14.2292 106.123 16 108.696 16C110.568 16 112.284 15.1667 113.037 13.2135C113.349 12.3281 113.375 11.4167 113.323 10.4792H108.774V12.224H111.426C111.01 13.6823 110.048 14.099 108.696 14.099C106.955 14.099 105.837 12.849 105.837 11C105.837 9.25521 106.877 7.875 108.696 7.875C109.814 7.875 110.594 8.23958 111.062 9.20313H113.115C112.569 6.9375 110.62 6 108.696 6C106.149 6.02604 103.731 7.77083 103.731 11Z" fill="white"/>
<path d="M117.872 14.2288V7.74447H119.12V6.12988H114.519V7.74447H115.767V14.2288H114.389V15.8695H119.224V14.2288H117.872Z" fill="white"/>
<path d="M122.707 7.9528V15.8695H124.734V7.9528H127.308V6.12988H120.107V7.9528H122.707Z" fill="white"/>
<path d="M131.702 9.30664L133.053 12.5098H130.35L131.702 9.30664ZM133.703 14.2546L134.457 15.8691H136.615V15.5827L132.17 6.02539H131.208L126.737 15.5827V15.8691H128.894L129.648 14.2546H133.703Z" fill="white"/>
<path d="M139.422 6.12988H137.342V15.8695H143.477V14.0205H139.422V6.12988Z" fill="white"/>
</g>
<g clip-path="url(#clip3_1363:86542)">
<path d="M149.477 12.9487C149.477 15.0513 151.473 16 153.367 16C155.261 15.9487 157.206 15.2564 157.206 13C157.206 10.7436 155.466 10.3077 153.444 10.1282C152.446 10.0256 151.601 9.82051 151.601 8.97436C151.601 8.23077 152.42 7.79487 153.239 7.79487C154.058 7.79487 154.877 8.12821 154.98 8.89744H156.899C156.899 6.74359 155.031 6 153.239 6C151.345 6 149.605 6.89744 149.605 9.02564C149.605 11.0256 151.345 11.5897 153.086 11.7436C154.007 11.8205 155.184 11.8974 155.184 13C155.184 14 154.212 14.2051 153.342 14.2051C152.42 14.2051 151.448 13.8462 151.422 12.9487H149.477Z" fill="white"/>
<path d="M164.731 6.17969H158.87V15.7694H164.833V13.9233H160.943V11.7181H164.475V9.92328H160.943V7.97456H164.731V6.17969Z" fill="white"/>
<path d="M168.724 10.923V7.97424H170.771C171.642 7.97424 172.179 8.61526 172.179 9.43577C172.205 10.2563 171.642 10.923 170.771 10.923H168.724ZM172.461 12.2819C173.561 11.7435 174.175 10.6665 174.175 9.46142C174.175 7.76911 172.973 6.17936 170.797 6.17936C169.44 6.15372 168.084 6.17936 166.702 6.17936V15.7948H168.749V12.6153H170.464L172.435 15.7948H174.636V15.5127L172.461 12.2819Z" fill="white"/>
<path d="M179.371 12.3592L178.296 9.25661L177.017 6.17969H174.841V6.48738L178.962 15.872H179.806L183.876 6.48738V6.17969H181.7L180.421 9.28225L179.422 12.3592H179.371Z" fill="white"/>
<path d="M187.996 14.154V7.76943H189.225V6.17969H184.695V7.76943H185.949V14.154H184.592V15.7694H189.353V14.154H187.996Z" fill="white"/>
<path d="M190.377 11C190.377 14.1795 192.757 15.8718 195.265 15.8718C197.262 15.8718 199.309 14.8205 199.719 12.2821H197.748C197.415 13.4359 196.443 14 195.265 14C193.551 14 192.45 12.641 192.45 10.9744C192.45 9.15386 193.576 7.92309 195.291 7.92309C196.443 7.92309 197.313 8.41027 197.722 9.48719H199.719C199.284 7.12822 197.236 6.07694 195.291 6.07694C192.757 6.0513 190.377 7.79489 190.377 11Z" fill="white"/>
<path d="M206.835 6.17969H200.974V15.7694H206.963V13.9233H203.047V11.7181H206.604V9.92328H203.047V7.97456H206.835V6.17969Z" fill="white"/>
</g>
</g>
<defs>
<clipPath id="clip0_1363:86542">
<rect width="206.742" height="21" fill="white" transform="translate(0.221008 0.5)"/>
</clipPath>
<clipPath id="clip1_1363:86542">
<rect width="46.2099" height="10" fill="white" transform="translate(36.2357 6)"/>
</clipPath>
<clipPath id="clip2_1363:86542">
<rect width="55.0313" height="10" fill="white" transform="translate(88.4456 6)"/>
</clipPath>
<clipPath id="clip3_1363:86542">
<rect width="57.4858" height="10" fill="white" transform="translate(149.477 6)"/>
</clipPath>
</defs>
</svg>
