<svg width="170" height="36" viewBox="0 0 170 36" fill="none" xmlns="http://www.w3.org/2000/svg">
<path fill-rule="evenodd" clip-rule="evenodd" d="M44 11.282V24.1116H48.7653C52.9102 24.1116 55.1096 20.9253 55.0532 17.6545C55.0532 14.3836 52.8538 11.282 48.7653 11.282H44ZM46.7069 21.6302V13.7633H48.7089C51.0492 13.7633 52.3181 15.6243 52.3181 17.6827C52.3181 19.741 51.0774 21.6584 48.7089 21.6584H46.7069V21.6302ZM65.2041 11.282H57.3371V24.1398H65.345V21.6302H60.1004V18.6978H64.8657V16.2728H60.1004V13.6787H65.2041V11.282ZM67.1214 20.3332C67.1214 23.1529 69.772 24.4217 72.3661 24.4217C74.9038 24.3653 77.5261 23.4348 77.5261 20.3896C77.5261 17.3725 75.1858 16.7804 72.4789 16.5266C71.1254 16.3856 70.0257 16.1318 70.0257 14.9758C70.0257 13.9889 71.0972 13.3967 72.1969 13.3967C73.2966 13.3967 74.368 13.8479 74.5372 14.8912H77.1031C77.1031 12.0151 74.5936 11 72.1969 11C69.6592 11 67.3188 12.1843 67.3188 15.0322C67.3188 17.6827 69.6592 18.4722 71.9995 18.6978C73.2402 18.7823 74.8192 18.9233 74.8192 20.3896C74.8192 21.743 73.4939 21.9968 72.3661 21.9968C71.1254 21.9968 69.8283 21.4892 69.772 20.3332H67.1214ZM87.1694 21.9968L88.1845 24.1398H91.0324V23.7732L85.1675 11.1692H83.8986L77.9773 23.7732V24.1398H80.8533L81.8402 21.9968H87.1694ZM84.5189 15.4269L86.2953 19.6564H82.7425L84.5189 15.4269ZM96.3616 11.282V24.1116H101.127C105.272 24.1116 107.471 20.9253 107.415 17.6545C107.415 14.3836 105.215 11.282 101.127 11.282H96.3616ZM99.0967 21.6302V13.7633H101.099C103.439 13.7633 104.708 15.6243 104.708 17.6827C104.708 19.741 103.467 21.6584 101.099 21.6584H99.0967V21.6302ZM113.393 21.9404V13.3967H115.056V11.2538H108.966V13.3967H110.629V21.9404H108.825V24.1116H115.225V21.9404H113.393ZM116.579 17.7109C116.579 21.9686 119.737 24.3089 123.12 24.3089C125.574 24.3089 127.886 23.2375 128.844 20.6433C129.267 19.4591 129.296 18.2748 129.239 17.0341H123.233V19.3463H126.73C126.166 21.2637 124.897 21.7994 123.12 21.7994C120.837 21.7994 119.37 20.1358 119.37 17.7109C119.37 15.4269 120.724 13.5941 123.12 13.5941C124.587 13.5941 125.63 14.1017 126.25 15.3423H128.957C128.224 12.3535 125.658 11.1128 123.12 11.1128C119.765 11.1128 116.579 13.4531 116.579 17.7109ZM135.217 21.9404V13.3967H136.881V11.2538H130.79V13.3967H132.454V21.9404H130.649V24.1116H137.05V21.9404H135.217ZM141.618 13.6505V24.1116H144.268V13.6505H147.68V11.2538H138.178V13.6505H141.618ZM156.167 21.9968H150.838L149.851 24.1398H146.975V23.7732L152.896 11.1692H154.165L160.03 23.7732V24.1398H157.182L156.167 21.9968ZM153.517 15.4269L151.74 19.6564H155.293L153.517 15.4269ZM164.175 11.282H161.412V24.1398H169.533V21.6866H164.175V11.282Z" fill="white"/>
<rect width="36" height="36" rx="18" fill="white"/>
<path fill-rule="evenodd" clip-rule="evenodd" d="M11.3722 6.35635L22.7037 13.0395C25.8358 14.8948 25.8358 17.9073 22.7037 19.7626L11.3722 26.4258V6.35635Z" fill="#FFCB05"/>
<path fill-rule="evenodd" clip-rule="evenodd" d="M16.599 9.42861L25.1176 14.4559C29.1275 16.83 29.1275 20.9396 25.1176 23.2937L16.599 28.321V9.42861Z" fill="#00C1F3"/>
<path fill-rule="evenodd" clip-rule="evenodd" d="M16.599 9.42861L22.7037 13.0196C25.8358 14.8749 25.8358 17.8873 22.7037 19.7426L16.599 23.3336V9.42861Z" fill="#00A651"/>
</svg>
