<svg width="24" height="24" viewBox="0 0 24 24" fill="none" xmlns="http://www.w3.org/2000/svg">
<g clip-path="url(#clip0_1363:86230)">
<path d="M23.999 12.073C23.999 5.40405 18.626 -0.00195312 11.999 -0.00195312C5.369 -0.000453125 -0.0039978 5.40405 -0.0039978 12.0745C-0.0039978 18.1 4.385 23.095 10.121 24.001V15.5635H7.076V12.0745H10.124V9.41205C10.124 6.38655 11.9165 4.71555 14.657 4.71555C15.971 4.71555 17.3435 4.95105 17.3435 4.95105V7.92105H15.83C14.3405 7.92105 13.8755 8.85255 13.8755 9.80805V12.073H17.2025L16.6715 15.562H13.874V23.9995C19.61 23.0935 23.999 18.0985 23.999 12.073Z" fill="white"/>
</g>
<defs>
<clipPath id="clip0_1363:86230">
<rect width="24" height="24" fill="white"/>
</clipPath>
</defs>
</svg>
