<svg width="55" height="50" viewBox="0 0 55 50" fill="none" xmlns="http://www.w3.org/2000/svg">
<g clip-path="url(#clip0_5880_293567)">
<g clip-path="url(#clip1_5880_293567)">
<circle cx="31.5" cy="16.0556" r="13.0556" fill="#1FB767"/>
<circle cx="31.5" cy="16.0556" r="13.0556" fill="#1FB767"/>
<path d="M38 18.5C38 20.2239 37.3152 21.8772 36.0962 23.0962C34.8772 24.3152 33.2239 25 31.5 25C29.7761 25 28.1228 24.3152 26.9038 23.0962C25.6848 21.8772 25 20.2239 25 18.5L31.5 18.5H38Z" fill="white"/>
<path d="M10.6111 50.0002C10.6111 41.3477 17.6253 34.3335 26.2777 34.3335H36.7222C45.3747 34.3335 52.3889 41.3477 52.3889 50.0002H10.6111Z" fill="#1FB767"/>
<path fill-rule="evenodd" clip-rule="evenodd" d="M27.5833 34.3335H23.6666L26.2777 50.0002L30.1944 39.5557L27.5833 34.3335Z" fill="white"/>
<path fill-rule="evenodd" clip-rule="evenodd" d="M39.3333 34.3335L36.7222 50.0002L32.8055 39.5557L35.4167 34.3335H39.3333Z" fill="white"/>
<path d="M35.4167 34.3335H27.5833L30.1944 39.5557L26.2778 50.0002H36.7222L32.8055 39.5557L35.4167 34.3335Z" fill="#001B3D"/>
</g>
<path d="M4.74349 9.74391L5.95399 9.35691C7.08912 8.99466 8.30187 9.58078 8.78787 10.726L9.75537 13.0075C10.1761 14.0009 9.94212 15.1698 9.17712 15.8965L7.04524 17.9193C7.17687 19.1298 7.58412 20.3212 8.26587 21.4934C8.91327 22.6276 9.78166 23.6203 10.8196 24.4128L13.3801 23.5578C14.3499 23.2349 15.4074 23.6073 16.0014 24.4814L17.3885 26.5177C18.0804 27.5347 17.9555 28.9364 17.0971 29.7982L16.178 30.7218C15.2622 31.6409 13.9539 31.975 12.7445 31.597C9.88699 30.706 7.26237 28.0612 4.86612 23.6624C2.4665 19.2569 1.61937 15.5174 2.32587 12.4484C2.62287 11.1569 3.54199 10.1275 4.74349 9.74391Z" fill="#001B3D"/>
<rect x="49.0183" y="26" width="5.61847" height="5.61847" rx="1" transform="rotate(32.4944 49.0183 26)" fill="#EF5350"/>
<path d="M0.223742 35.3589L2.82772 34.9625L4.80634 33.2238L5.20279 35.8278L6.94146 37.8064L4.33748 38.2029L2.35886 39.9415L1.96241 37.3375L0.223742 35.3589Z" fill="#FFA600"/>
</g>
<defs>
<clipPath id="clip0_5880_293567">
<rect width="55" height="50" fill="white"/>
</clipPath>
<clipPath id="clip1_5880_293567">
<rect width="47" height="47" fill="white" transform="translate(8 3)"/>
</clipPath>
</defs>
</svg>
