<svg width="55" height="50" viewBox="0 0 55 50" fill="none" xmlns="http://www.w3.org/2000/svg">
<path d="M8.44697 15.4149L6.63321 17.6041L6.6491 20.4469L4.45995 18.6332L1.61709 18.6491L3.43085 16.4599L3.41496 13.6171L5.60411 15.4308L8.44697 15.4149Z" fill="#FF9500"/>
<path d="M6 24.7999V48.2486C6 49.0151 6.77391 49.5392 7.48552 49.2548L16.8333 45V19L7.36229 22.7883C6.96022 22.9491 6.61556 23.2267 6.37274 23.5852C6.12992 23.9438 6.0001 24.3669 6 24.7999ZM19 45L32 49.3333V23.3333L19 19V45ZM43.5145 19.0785L34.1667 23.3333V49.3333L43.6377 45.545C44.0398 45.3843 44.3845 45.1067 44.6274 44.7482C44.8702 44.3896 45 43.9665 45 43.5334V20.0847C45 19.3182 44.2261 18.7942 43.5145 19.0785Z" fill="#001B3D"/>
<rect x="46.0183" y="6" width="5.61847" height="5.61847" rx="1" transform="rotate(32.4944 46.0183 6)" fill="#1E88E5"/>
<line x1="46.3536" y1="14.6464" x2="50.3536" y2="18.6464" stroke="#E3E7ED"/>
<path d="M21.8694 28.7467C13.5449 16.6736 12 15.4354 12 11C12 4.92433 16.9243 0 23 0C29.0757 0 34 4.92433 34 11C34 15.4354 32.4551 16.6711 24.1306 28.7418C24.0041 28.9238 23.8356 29.0727 23.6393 29.1756C23.443 29.2786 23.2248 29.3326 23.0031 29.3331C22.7815 29.3335 22.563 29.2805 22.3662 29.1784C22.1695 29.0763 22.0003 28.9282 21.8731 28.7467L21.8707 28.7418L21.8694 28.7467ZM23 15.5833C24.2156 15.5833 25.3814 15.1004 26.2409 14.2409C27.1004 13.3814 27.5833 12.2156 27.5833 11C27.5833 9.78442 27.1004 8.61864 26.2409 7.75909C25.3814 6.89955 24.2156 6.41667 23 6.41667C21.7844 6.41667 20.6186 6.89955 19.7591 7.75909C18.8996 8.61864 18.4167 9.78442 18.4167 11C18.4167 12.2156 18.8996 13.3814 19.7591 14.2409C20.6186 15.1004 21.7844 15.5833 23 15.5833Z" fill="#EF5350"/>
<g clip-path="url(#clip0_5880_293610)">
<path d="M42.832 33.9836C37.913 26.8526 37 26.1208 37 23.5C37 19.9101 39.9101 17 43.5 17C47.0899 17 50 19.9101 50 23.5C50 26.1208 49.087 26.8526 44.168 33.9836C43.8452 34.4499 43.1548 34.4499 42.832 33.9836Z" fill="#16A75C"/>
<circle cx="43.5" cy="23.5" r="3.25" fill="white"/>
</g>
<defs>
<clipPath id="clip0_5880_293610">
<rect width="13" height="17.3333" fill="white" transform="translate(37 17)"/>
</clipPath>
</defs>
</svg>
