<svg width="55" height="50" viewBox="0 0 55 50" fill="none" xmlns="http://www.w3.org/2000/svg">
<path d="M7 10H39C41.2091 10 43 11.7909 43 14V46C43 48.2091 41.2091 50 39 50H11C8.79086 50 7 48.2091 7 46V10Z" fill="#16A75C"/>
<circle cx="14" cy="21" r="3" fill="white"/>
<rect x="20" y="18" width="9" height="2" rx="1" fill="white"/>
<rect x="20" y="22" width="11" height="2" rx="1" fill="#9BDBB3"/>
<circle cx="14" cy="31" r="2.5" stroke="white"/>
<rect x="20" y="28" width="6" height="2" rx="1" fill="white"/>
<rect x="20" y="32" width="11" height="2" rx="1" fill="#9BDBB3"/>
<path d="M7 41C7 40.4477 7.44772 40 8 40H47C47.5523 40 48 40.4477 48 41V44C48 47.3137 45.3137 50 42 50H13C9.68629 50 7 47.3137 7 44V41Z" fill="#4DC27E"/>
<path d="M7 40H16V45.5C16 47.9853 13.9853 50 11.5 50C9.01472 50 7 47.9853 7 45.5V40Z" fill="#16A75C"/>
<path d="M14.9909 3.9219L12.5968 5.45494L11.7465 8.16769L10.2134 5.77355L7.50067 4.92319L9.8948 3.39016L10.7452 0.677407L12.2782 3.07154L14.9909 3.9219Z" fill="#9B27B0"/>
<rect x="3" y="10" width="4" height="4" fill="#16A75C"/>
<rect x="49.0183" y="27" width="5.61847" height="5.61847" rx="1" transform="rotate(32.4944 49.0183 27)" fill="#FFA600"/>
<path d="M0 13.5C0 11.567 1.567 10 3.5 10C5.433 10 7 11.567 7 13.5V22H1C0.447715 22 0 21.5523 0 21V13.5Z" fill="#069550"/>
<path d="M48.6198 12.4142C49.4008 11.6332 50.6672 11.6332 51.4482 12.4142L52.5238 13.4898C53.3048 14.2708 53.3048 15.5371 52.5238 16.3182L39.5343 29.3077C39.2769 29.5651 38.9541 29.7474 38.6008 29.8348L34.7568 30.7867C34.3913 30.8772 34.0608 30.5466 34.1513 30.1812L35.1031 26.3372C35.1906 25.9839 35.3729 25.6611 35.6303 25.4037L48.6198 12.4142Z" fill="#001B3D"/>
<line x1="46.3536" y1="14.6464" x2="50.3536" y2="18.6464" stroke="#E3E7ED"/>
</svg>
