<svg width="55" height="50" viewBox="0 0 55 50" fill="none" xmlns="http://www.w3.org/2000/svg">
<g clip-path="url(#clip0_5879_293405)">
<line x1="46.3536" y1="14.6464" x2="50.3536" y2="18.6464" stroke="#E3E7ED"/>
<rect x="0.685699" y="7" width="48.6286" height="37" rx="4.22857" fill="#001B3D"/>
<path d="M8.4998 12.7734C8.4952 13.1184 8.38867 13.4545 8.19361 13.7392C7.99854 14.0238 7.72365 14.2445 7.4035 14.3734C7.08336 14.5023 6.73225 14.5336 6.39434 14.4635C6.05643 14.3933 5.7468 14.2249 5.50439 13.9792C5.26198 13.7336 5.09761 13.4217 5.03196 13.0829C4.96631 12.7441 5.0023 12.3935 5.13541 12.0751C5.26852 11.7566 5.4928 11.4847 5.78006 11.2934C6.06731 11.1021 6.40471 11.0001 6.74982 11C6.98206 10.9984 7.21226 11.0434 7.42683 11.1322C7.64141 11.2211 7.836 11.352 7.99913 11.5173C8.16226 11.6826 8.29061 11.8789 8.3766 12.0947C8.46259 12.3104 8.50449 12.5412 8.4998 12.7734Z" fill="#3EB778"/>
<path d="M13.7496 12.7616C13.7473 13.1077 13.6425 13.4454 13.4483 13.7319C13.2541 14.0184 12.9794 14.2409 12.6587 14.3712C12.3381 14.5015 11.9861 14.5338 11.6471 14.4641C11.3081 14.3943 10.9974 14.2256 10.7544 13.9792C10.5113 13.7329 10.3467 13.4199 10.2814 13.08C10.2161 12.7401 10.2531 12.3885 10.3877 12.0696C10.5222 11.7507 10.7483 11.4789 11.0373 11.2885C11.3263 11.0982 11.6653 10.9978 12.0114 11C12.2421 10.9984 12.4707 11.0431 12.6839 11.1313C12.897 11.2196 13.0903 11.3497 13.2523 11.5139C13.4144 11.6781 13.5419 11.8731 13.6273 12.0874C13.7127 12.3017 13.7543 12.531 13.7496 12.7616Z" fill="#F4AE3D"/>
<path d="M19 12.75C18.9503 13.2318 18.7446 13.6764 18.4219 13.999C18.0993 14.3217 17.6822 14.5 17.25 14.5C16.8178 14.5 16.4007 14.3217 16.0781 13.999C15.7554 13.6764 15.5497 13.2318 15.5 12.75C15.5497 12.2682 15.7554 11.8236 16.0781 11.501C16.4007 11.1783 16.8178 11 17.25 11C17.6822 11 18.0993 11.1783 18.4219 11.501C18.7446 11.8236 18.9503 12.2682 19 12.75Z" fill="#DA3845"/>
<rect x="38" y="1.49292" width="4.61891" height="4.61891" rx="1" transform="rotate(-22.5822 38 1.49292)" fill="#EF5350"/>
<rect x="23" y="17" width="32" height="12" rx="4" fill="#1FB767"/>
<circle cx="35" cy="23" r="2" fill="white"/>
<circle cx="41" cy="23" r="2" fill="white"/>
<circle cx="47" cy="23" r="2" fill="white"/>
<path d="M14.1991 40.7962L14.5707 38.2352C14.6198 37.854 14.5363 37.4675 14.3342 37.1405C13.808 36.3241 13.5245 35.3751 13.5166 34.4039C13.6585 32.8497 16.0235 27.7682 16.0235 27.7682C16.203 27.4099 16.4762 27.107 16.8141 26.8916C17.152 26.6762 17.542 26.5565 17.9426 26.5452C19.3661 26.7189 20.7693 27.0312 22.1321 27.4777C22.5068 27.5878 22.9079 27.5668 23.2691 27.4181C23.6303 27.2695 23.93 27.0021 24.1187 26.6601L27.7879 19.6595C27.8972 19.4583 28.0456 19.2809 28.2243 19.1377C28.403 18.9944 28.6084 18.8882 28.8286 18.8253C29.0488 18.7624 29.2793 18.744 29.5067 18.7712C29.7341 18.7985 29.9538 18.8707 30.1529 18.9838C30.4855 19.172 30.7434 19.4685 30.8836 19.824C31.0238 20.1794 31.0378 20.5722 30.9233 20.9367L27.0176 33.3159C26.9351 33.584 26.9209 33.8685 26.9764 34.1435C27.0318 34.4185 27.1552 34.6752 27.3352 34.8904C27.6033 35.1809 27.8064 35.5252 27.9311 35.9004C28.0557 36.2756 28.0991 36.673 28.0582 37.0662C27.896 38.2893 25.6999 39.5799 24.5647 40.1678C24.3494 40.2803 24.1611 40.4383 24.0129 40.6308C23.8648 40.8234 23.7602 41.0458 23.7065 41.2827L23.2943 42.9585C23.2377 43.1769 23.1386 43.382 23.0026 43.562C22.8666 43.742 22.6965 43.8935 22.5019 44.0077C22.3074 44.122 22.0922 44.1967 21.8687 44.2277C21.6453 44.2587 21.4179 44.2453 21.1996 44.1883L15.4559 42.6342C15.0577 42.5349 14.7098 42.2929 14.4781 41.9541C14.2465 41.6153 14.1472 41.2033 14.1991 40.7962Z" fill="#F9AE83"/>
<path d="M27.9839 21.288L29.5651 21.7678C29.5651 21.7678 30.4232 20.3285 29.6732 19.7001C28.9231 19.0717 28.2474 20.5515 27.9839 21.288Z" fill="#E3E3E6"/>
<path d="M28.0582 37.0662C28.1262 36.5327 28.0246 35.9913 27.7676 35.5188C25.8215 38.7893 20.855 39.0596 20.855 39.0596L19.8414 43.2694L19.7062 43.7694L21.1996 44.1613C21.4179 44.2183 21.6453 44.2317 21.8687 44.2007C22.0922 44.1697 22.3074 44.0949 22.5019 43.9807C22.6965 43.8665 22.8666 43.715 23.0026 43.535C23.1386 43.355 23.2377 43.1499 23.2943 42.9315L23.7065 41.2827C23.7637 41.0507 23.8699 40.8336 24.0179 40.6459C24.1659 40.4583 24.3523 40.3045 24.5647 40.1948C25.6999 39.5799 27.896 38.2893 28.0582 37.0662Z" fill="#F58A69"/>
<path d="M14.0301 44.418L22.6659 45.7694C22.8772 45.8041 23.0933 45.7965 23.3016 45.7473C23.51 45.698 23.7066 45.6079 23.88 45.4823C24.0533 45.3566 24.2001 45.1979 24.3119 45.0152C24.4236 44.8325 24.498 44.6296 24.5309 44.418V44.2152C24.5635 44.0057 24.5544 43.7919 24.504 43.5859C24.4537 43.3799 24.3631 43.186 24.2375 43.0152C24.1119 42.8443 23.9537 42.7 23.7721 42.5906C23.5906 42.4811 23.3891 42.4086 23.1794 42.3773L14.5437 41.0258C14.3323 40.9902 14.1159 40.9971 13.9072 41.046C13.6984 41.0949 13.5015 41.1849 13.3279 41.3107C13.1543 41.4365 13.0075 41.5956 12.8961 41.7787C12.7846 41.9618 12.7107 42.1653 12.6787 42.3773L12.6449 42.58C12.6135 42.7919 12.6245 43.0079 12.6773 43.2154C12.7302 43.423 12.8238 43.618 12.9527 43.789C13.0816 43.9601 13.2432 44.1038 13.4282 44.2117C13.6132 44.3197 13.8178 44.3898 14.0301 44.418Z" fill="#F1E8E1"/>
<path d="M18.7805 45.1611L22.6659 45.7693C22.8772 45.804 23.0933 45.7964 23.3017 45.7471C23.51 45.6978 23.7066 45.6078 23.88 45.4821C24.0534 45.3565 24.2002 45.1978 24.3119 45.0151C24.4236 44.8324 24.498 44.6294 24.5309 44.4178V44.2151C24.5635 44.0056 24.5544 43.7917 24.504 43.5858C24.4537 43.3798 24.3631 43.1859 24.2375 43.015C24.1119 42.8442 23.9538 42.6999 23.7722 42.5904C23.5906 42.481 23.3892 42.4085 23.1795 42.3772L19.3008 41.769C19.0891 41.7343 18.8726 41.7418 18.6638 41.791C18.455 41.8402 18.258 41.9302 18.0841 42.0557C17.9101 42.1813 17.7627 42.34 17.6503 42.5227C17.5379 42.7055 17.4627 42.9086 17.429 43.1205L17.3953 43.3232C17.3638 43.535 17.3749 43.751 17.4277 43.9586C17.4805 44.1662 17.5741 44.3611 17.7031 44.5322C17.832 44.7032 17.9936 44.8469 18.1786 44.9549C18.3636 45.0629 18.5682 45.133 18.7805 45.1611Z" fill="#DDD3D2"/>
<path d="M23.3484 57.7367L25.4499 45.1547L11.78 43.0127L9.33386 57.7367H23.3484Z" fill="#393C63"/>
<path d="M23.3484 57.7364L25.4499 45.1544L19.74 44.2557C19.0977 44.1522 18.4406 44.3075 17.9125 44.6874C17.3844 45.0673 17.0283 45.641 16.9222 46.2828L15.0032 57.7702L23.3484 57.7364Z" fill="#2F2D4F"/>
</g>
<defs>
<clipPath id="clip0_5879_293405">
<rect width="55" height="50" fill="white"/>
</clipPath>
</defs>
</svg>
