<svg width="55" height="50" viewBox="0 0 55 50" fill="none" xmlns="http://www.w3.org/2000/svg">
<g clip-path="url(#clip0_5871_293296)">
<path d="M0.561936 2.40041L2.72162 2.28057L4.29997 0.801574L4.4198 2.96126L5.8988 4.5396L3.73912 4.65944L2.16077 6.13844L2.04094 3.97876L0.561936 2.40041Z" fill="#9B27B0"/>
<rect x="50.3426" y="43.4622" width="4.5595" height="4.5595" rx="1" transform="rotate(32.4944 50.3426 43.4622)" fill="#FFA600"/>
<line x1="46.3536" y1="14.6464" x2="50.3536" y2="18.6464" stroke="#E3E7ED"/>
<rect x="26" y="37" width="3" height="13" fill="#069550"/>
<rect x="8" y="10" width="40" height="31" rx="3" fill="#1FB767"/>
<rect x="4" y="6" width="48" height="32" rx="4" fill="#001B3D"/>
<path fill-rule="evenodd" clip-rule="evenodd" d="M36.0135 13.4999C36.0135 12.9775 36.437 12.554 36.9595 12.554H45C45.5224 12.554 45.9459 12.9775 45.9459 13.4999V20.5945C45.9459 21.1169 45.5224 21.5404 45 21.5404C44.4776 21.5404 44.0541 21.1169 44.0541 20.5945V15.5996L33.3295 25.0868C33.0079 25.3712 32.5352 25.4035 32.178 25.1654L24.2495 19.8797L13.9133 28.4184C13.5105 28.7511 12.9142 28.6943 12.5815 28.2915C12.2488 27.8888 12.3056 27.2925 12.7084 26.9598L23.5867 17.9733C23.9086 17.7075 24.3666 17.684 24.7139 17.9155L32.6214 23.1872L42.503 14.4458H36.9595C36.437 14.4458 36.0135 14.0223 36.0135 13.4999Z" fill="white"/>
<path d="M35 51.5C35 49.5109 34.2098 47.6032 32.8033 46.1967C31.3968 44.7902 29.4891 44 27.5 44C25.5109 44 23.6032 44.7902 22.1967 46.1967C20.7902 47.6032 20 49.5109 20 51.5L27.5 51.5H35Z" fill="#1FB767"/>
<circle cx="13.3108" cy="27.6892" r="3.31081" fill="#F44336"/>
<circle cx="32.7027" cy="23.4325" r="3.78378" fill="#1E88E5"/>
</g>
<defs>
<clipPath id="clip0_5871_293296">
<rect width="55" height="50" fill="white"/>
</clipPath>
</defs>
</svg>
