<svg width="955" height="265" viewBox="0 0 955 265" fill="none" xmlns="http://www.w3.org/2000/svg">
<path opacity="0.4" d="M2 193C2 193 741.899 50.4596 955 64.0921V0.740835C955 0.740835 217.66 -11.0874 2 59.7818V193Z" fill="white"/>
<path opacity="0.8" d="M2 96.2465C2 96.2465 251.366 43.7419 417.542 58.6721L2 149V96.2465Z" fill="white"/>
<path d="M252.555 273.605C259.483 267.956 260.762 254.42 255.113 246.853C250.743 240.884 242.323 239.499 236.354 243.869C235.075 244.828 233.903 246 233.05 247.279C235.822 235.662 230.706 221.913 221.646 216.797C212.587 211.681 200.756 215.731 195.427 225.963C187.327 215.411 171.019 217.543 165.051 229.906C157.483 219.248 147.678 209.975 136.38 207.737C123.91 205.392 111.653 212.64 107.603 224.577C98.0107 219.035 85.7536 221.38 78.1863 230.333C74.669 213.706 51.5408 200.276 35.7666 203.474C21.378 206.352 14.4501 217.436 14.4501 228.308C7.84203 223.298 -1.3241 223.938 -7.18613 229.693C-13.2613 235.449 -15.8192 246.107 -13.3678 255.06C-24.1326 253.994 -34.258 266.784 -32.8724 280C22.5504 265.824 79.9982 267.53 136.7 269.342C174.004 270.408 211.201 271.58 252.555 273.605Z" fill="#3EBA82"/>
<path d="M57.2958 216.477C56.976 216.37 56.7629 216.584 56.6563 216.903L49.9416 243.229C47.3836 233.743 44.2927 224.471 40.7755 215.305C40.6689 214.985 40.3492 214.878 40.1361 214.985C39.8163 215.091 39.7097 215.411 39.8163 215.731C45.4651 230.333 49.9416 245.467 53.139 260.815C43.8664 251.969 34.0609 243.336 23.9356 235.342C23.7224 235.129 23.4026 235.235 23.1894 235.449C22.9763 235.662 23.0828 235.981 23.296 236.195C33.7411 244.508 43.973 253.461 53.5654 262.734C53.7786 263.799 53.9917 264.865 54.2049 265.931C54.2049 266.144 54.5246 266.357 54.7378 266.357H54.8445C55.1642 266.251 55.2707 266.038 55.2707 265.718C55.1641 264.972 54.9509 264.119 54.7378 263.373C54.8444 263.373 54.8444 263.267 54.951 263.267C55.1642 263.053 55.1642 262.734 54.951 262.521C54.8444 262.414 54.6312 262.201 54.5247 262.094C53.3523 256.339 51.9666 250.583 50.4745 244.934C50.5811 244.828 50.6877 244.721 50.7943 244.615L57.8287 217.116C57.8287 216.797 57.6155 216.477 57.2958 216.477Z" fill="#00707A"/>
<path d="M104.938 239.286C104.618 239.179 104.405 239.286 104.192 239.499C101.74 244.828 98.9693 249.837 95.7718 254.633C95.5587 250.157 94.9193 245.787 93.8534 241.417C93.7469 241.097 93.5337 240.991 93.214 240.991C92.8942 240.991 92.7876 241.311 92.7876 241.63C93.96 246.32 94.5994 251.116 94.706 256.019C94.706 256.019 94.706 256.019 94.706 256.126C91.8283 260.282 88.6308 264.226 85.1136 267.956C86.4992 256.019 87.0321 243.975 86.7123 231.931C86.7123 231.612 86.4992 231.398 86.1794 231.398C85.8597 231.398 85.6465 231.612 85.6465 231.931C85.9663 244.401 85.4334 256.872 83.9412 269.235L83.8347 269.342C83.6215 269.555 83.6215 269.875 83.8347 270.088C83.9413 270.194 84.0479 270.194 84.1545 270.194C84.2611 270.194 84.4741 270.088 84.5807 270.088C93.1073 261.242 100.142 251.01 105.258 239.925C105.258 239.712 105.151 239.392 104.938 239.286Z" fill="#00707A"/>
<path d="M154.18 235.235C153.86 235.129 153.647 235.342 153.54 235.555C150.023 245.254 145.973 254.74 141.283 264.012L140.004 257.511C140.004 257.511 140.111 257.511 140.111 257.404C140.217 257.191 140.111 256.871 139.897 256.658C139.897 256.658 139.897 256.658 139.791 256.658L133.716 224.79C133.609 224.47 133.396 224.364 133.076 224.364C132.756 224.47 132.65 224.684 132.65 225.003L138.512 256.019C134.036 253.567 129.772 250.476 125.935 247.066C125.722 246.853 125.402 246.853 125.189 247.066C124.976 247.279 124.976 247.599 125.189 247.812C129.346 251.542 133.822 254.846 138.725 257.404L140.963 268.915C140.963 269.128 141.283 269.342 141.496 269.342H141.603C141.922 269.235 142.029 269.022 142.029 268.702L141.496 265.718C146.399 256.125 150.662 246.213 154.393 235.981C154.606 235.662 154.499 235.342 154.18 235.235Z" fill="#00707A"/>
<path d="M204.486 266.037C204.166 266.144 203.953 265.931 203.847 265.718C203.847 265.611 203.847 265.398 203.953 265.291C210.242 256.019 216.317 246.426 221.966 236.621C222.072 236.408 222.392 236.301 222.712 236.408C222.925 236.514 223.032 236.834 222.925 237.154C217.276 246.959 211.201 256.658 204.913 265.931C204.699 265.931 204.593 266.037 204.486 266.037Z" fill="#00707A"/>
<path d="M208.856 226.069C208.536 225.963 208.323 226.176 208.216 226.389C205.232 237.793 201.395 248.985 196.812 259.856C192.762 252.395 189.032 244.615 185.941 236.728C185.834 236.408 185.514 236.301 185.195 236.408C184.875 236.514 184.768 236.834 184.875 237.047C188.179 245.254 191.909 253.354 196.173 261.135C195.427 262.734 194.787 264.439 194.041 266.038C193.934 266.251 194.041 266.571 194.254 266.677C194.361 266.677 194.361 266.677 194.467 266.677C194.681 266.677 194.894 266.571 195 266.464C195.746 264.759 196.492 263.16 197.238 261.455C197.345 261.348 197.345 261.242 197.345 261.135C202.141 249.944 206.085 238.326 209.176 226.602C209.389 226.496 209.176 226.176 208.856 226.069Z" fill="#00707A"/>
<path d="M233.37 264.759C233.263 264.759 233.156 264.759 233.05 264.652C232.837 264.439 232.73 264.119 232.943 263.906C236.887 258.79 240.191 253.141 242.962 247.279C243.069 246.959 243.388 246.853 243.708 247.066C244.028 247.173 244.134 247.492 243.921 247.812C241.15 253.781 237.739 259.323 233.796 264.545C233.689 264.652 233.583 264.759 233.37 264.759Z" fill="#00707A"/>
<path d="M24.1491 265.079C23.7228 264.972 23.403 264.652 23.0833 264.332L18.9266 260.176C19.566 255.593 20.2056 251.01 20.8451 246.32V246.213C20.8451 245.894 20.6319 245.681 20.4187 245.574C20.099 245.574 19.8858 245.787 19.8858 246V246.107C19.2463 250.477 18.7135 254.847 18.074 259.11L2.83266 243.655C2.61949 243.442 2.2998 243.442 2.08663 243.655C1.87347 243.869 1.87347 244.188 2.08663 244.402L22.4438 264.972C22.8702 265.505 23.4031 265.825 24.0426 266.038H24.1491C24.4689 266.038 24.682 265.825 24.7886 265.611C24.682 265.398 24.4689 265.185 24.1491 265.079Z" fill="#00707A"/>
<g clip-path="url(#clip0_6758_36081)">
<path d="M673.425 270.529C673.427 264.395 680.134 259.985 684.888 262.819C684.823 260.231 686.181 257.889 688.506 256.869C690.856 256.152 693.475 257.182 694.611 259.436C694.715 254.515 698.632 248.143 702.919 247.598C707.206 247.054 711.443 252.433 712.877 257.133C716.234 253.89 720.153 250.783 724.607 250.774C729.061 250.764 733.784 255.767 732.537 260.51C735.226 258.391 739.168 258.456 741.912 260.604C744.798 262.985 746.271 266.705 745.762 270.44C721.753 268.681 697.691 269.184 673.425 270.529Z" fill="#FCAF44"/>
<path opacity="0.5" d="M925.119 260.826L907.562 253.621L902.51 253.87L915.429 260.826H925.119Z" fill="#179668"/>
<path opacity="0.5" d="M898.12 254.118L882.468 255.112L883.462 253.787L925.947 251.882L928.431 252.71L898.12 254.118Z" fill="#179668"/>
<path d="M915.429 260.826H925.118L921.474 162.688H918.907L915.429 260.826Z" fill="white"/>
<path d="M918.824 159.872H921.392C922.22 159.872 922.965 160.535 922.965 161.446V162.936C922.965 163.764 922.303 164.51 921.392 164.51H918.824C917.996 164.51 917.251 163.847 917.251 162.936V161.446C917.251 160.617 917.996 159.872 918.824 159.872Z" fill="#C6D9F2"/>
<path d="M920.233 164.51L916.34 260.826H915.181L918.825 164.51H920.233Z" fill="#C6D9F2"/>
<path d="M922.883 158.879L922.386 157.057L924.87 156.394L926.361 153.33L971.993 143.971C972.324 143.889 972.656 143.971 972.904 144.137L973.484 144.468C973.65 144.551 973.732 144.717 973.815 144.882L973.898 145.297L922.883 158.879Z" fill="white"/>
<path d="M917.831 161.528L919.653 162.191L918.824 164.675L920.564 167.657L902.841 210.722C902.758 211.053 902.509 211.301 902.178 211.467L901.598 211.798C901.433 211.881 901.267 211.881 901.102 211.798L900.688 211.633L917.831 161.528Z" fill="white"/>
<path d="M918.245 155.98L916.92 157.388L915.015 155.566L911.62 155.897L879.569 122.107C879.321 121.859 879.238 121.528 879.155 121.196V120.617C879.155 120.451 879.238 120.285 879.321 120.12L879.652 119.789L918.245 155.98Z" fill="white"/>
<path d="M920.15 162.688C922.162 162.688 923.794 161.056 923.794 159.044C923.794 157.031 922.162 155.4 920.15 155.4C918.137 155.4 916.506 157.031 916.506 159.044C916.506 161.056 918.137 162.688 920.15 162.688Z" fill="#EEF8F5"/>
<path d="M785.6 237.268H735.095V266.977H785.6V237.268Z" fill="#D3EBEF"/>
<path d="M784.531 238.1H735.927V266.026H784.531V238.1Z" fill="#40A0BE"/>
<path d="M783.936 239.645H736.64V250.221H783.936V239.645Z" fill="#4AB3CD"/>
<path d="M755.653 260.203V260.084V259.965V259.847C755.653 259.847 755.654 259.728 755.535 259.728V259.609L755.416 259.49L755.297 259.371L755.178 259.252H754.941L754.822 259.134L754.703 259.015C754.703 259.015 754.584 259.015 754.584 258.896H754.465H754.584L754.703 258.777C754.822 258.777 754.822 258.658 754.941 258.539L755.059 258.421V258.302V258.064C755.059 258.064 755.059 258.064 755.059 257.945V257.826C755.059 257.826 755.059 257.826 755.059 257.707V257.589C755.059 257.589 755.059 257.47 754.941 257.47L754.822 257.351C754.822 257.351 754.822 257.232 754.703 257.232C754.346 256.757 753.752 256.4 753.633 256.4C753.99 255.687 754.227 254.974 754.346 254.142C754.346 254.024 754.346 253.905 754.346 253.786C754.346 253.786 754.346 253.786 754.346 253.667C754.346 253.548 754.346 253.429 754.346 253.311C754.227 253.073 754.227 252.835 753.99 252.598C753.871 252.36 753.633 252.241 753.514 252.122C753.039 251.885 752.564 251.766 751.97 251.885C752.207 251.647 752.207 251.171 752.088 250.934C751.851 250.577 751.494 250.459 751.257 250.696C751.257 250.577 751.257 250.34 751.257 250.221C751.257 250.102 751.019 249.983 750.9 250.102C750.9 250.102 750.9 250.102 750.781 250.102C750.9 249.032 750.425 248.082 749.474 247.606C748.523 247.25 747.454 247.369 746.622 247.963C746.503 247.725 746.265 247.488 746.028 247.606C746.147 247.369 746.028 247.131 745.909 247.012C745.909 247.012 745.909 247.012 745.79 247.012C745.552 247.012 745.315 247.012 745.077 247.25C744.958 246.893 744.839 246.418 744.839 246.062C744.839 245.824 744.721 245.705 744.602 245.586C744.483 245.467 744.245 245.467 744.007 245.586L743.77 245.705H743.651L743.532 245.824H743.413L743.295 245.943L743.176 246.062L743.057 246.18L742.938 246.299L742.819 246.418L742.7 246.537L742.582 246.656L742.463 246.775L742.344 246.893L742.225 247.012C741.75 247.606 741.393 248.201 741.274 248.914C741.274 249.032 741.156 249.27 741.156 249.389C741.156 249.508 741.155 249.627 741.037 249.745C740.918 249.864 740.918 249.864 740.799 249.983C740.68 250.102 740.561 250.34 740.68 250.577C740.442 250.815 740.205 251.053 740.205 251.409C740.086 251.171 739.967 250.934 739.729 250.696L739.611 250.577H739.492H739.373C739.254 250.577 739.254 250.577 739.135 250.577H739.016H738.898H738.779H738.66L738.541 250.696L738.303 250.934V251.053L738.066 251.29L737.947 251.528C737.472 252.479 738.185 253.667 738.185 254.855C738.066 254.737 737.947 255.093 737.947 255.212C737.947 255.331 738.185 255.568 738.066 255.806C737.828 255.687 737.59 255.806 737.472 256.044V256.163C737.472 255.925 737.115 255.925 736.996 256.044C736.877 256.281 736.758 256.4 736.877 256.638C736.877 257.113 736.877 257.589 736.996 258.064C736.996 258.183 736.996 258.302 737.115 258.421C737.115 258.539 737.115 258.658 737.234 258.777C737.234 258.896 737.234 259.015 737.353 259.134C737.353 259.252 737.472 259.371 737.472 259.49C737.472 259.49 737.472 259.49 737.472 259.609L737.59 259.847C737.709 259.965 737.709 260.084 737.828 260.084L738.066 260.322C737.828 260.56 737.828 260.797 738.066 261.035C737.947 260.797 737.472 260.916 737.353 261.273C737.353 261.629 737.472 261.867 737.709 262.104C738.779 263.293 740.324 263.649 741.869 263.174C741.75 263.293 741.631 263.412 741.631 263.53C742.225 263.768 742.819 263.768 743.413 263.53C743.651 263.649 744.008 263.649 744.245 263.649C744.721 263.649 745.077 263.649 745.552 263.53C745.79 263.768 745.909 264.006 746.028 264.243C745.909 264.838 745.434 265.313 745.077 265.313H746.978C746.741 264.838 746.503 264.362 746.384 263.768C746.503 263.53 746.503 263.412 746.622 263.174C747.097 263.293 747.573 263.293 748.048 263.293C748.286 263.293 748.642 263.174 748.88 263.174C750.425 263.768 752.207 264.006 753.871 263.768C754.109 263.768 754.227 263.649 754.465 263.53C754.584 263.412 754.703 263.174 754.584 262.936L754.465 262.817L754.346 262.699H754.228L753.277 262.461C753.633 262.342 753.871 262.223 754.228 261.986C754.346 261.867 754.465 261.867 754.584 261.748C754.703 261.629 754.822 261.51 754.941 261.391C755.178 261.154 755.297 261.035 755.416 260.678C755.416 260.56 755.416 260.56 755.416 260.441C756.129 259.965 755.653 260.203 755.653 260.203ZM744.245 263.53L743.77 263.412C744.126 263.293 744.364 263.174 744.721 263.055L744.958 263.174C745.077 263.293 745.315 263.412 745.434 263.412C745.077 263.53 744.721 263.53 744.245 263.53ZM745.315 262.817L745.196 262.699C745.434 262.58 745.79 262.461 746.028 262.342C746.028 262.461 746.028 262.461 746.028 262.58C746.028 262.817 746.147 263.174 746.147 263.412C745.909 263.293 745.552 263.055 745.315 262.817ZM746.384 263.055C746.384 262.817 746.265 262.58 746.265 262.342H746.384L747.097 262.461C746.86 262.699 746.622 262.936 746.384 263.293V263.055ZM748.167 263.055C747.81 263.055 747.335 263.055 746.978 262.936C747.097 262.817 747.216 262.699 747.335 262.58C747.81 262.699 748.286 262.817 748.88 263.055H748.167Z" fill="#178EA6"/>
<path d="M753.158 250.934C753.633 251.647 754.346 249.746 754.346 249.746C754.346 249.746 752.682 250.102 753.158 250.934Z" fill="#178EA6"/>
<path d="M752.92 249.984C753.633 250.221 753.276 248.32 753.276 248.32C753.276 248.32 751.969 249.627 752.92 249.984Z" fill="#178EA6"/>
<path d="M746.978 246.775C747.691 247.131 747.454 245.111 747.454 245.111C747.454 245.111 746.027 246.299 746.978 246.775Z" fill="#178EA6"/>
<path d="M746.265 245.943C746.978 245.705 745.79 244.279 745.79 244.279C745.79 244.279 745.314 246.181 746.265 245.943Z" fill="#178EA6"/>
<path d="M739.254 249.389C739.967 249.152 738.897 247.726 738.897 247.726C738.897 247.726 738.303 249.627 739.254 249.389Z" fill="#178EA6"/>
<path d="M740.798 248.32C740.798 248.32 739.372 249.033 740.085 249.746C740.798 250.459 740.798 248.32 740.798 248.32Z" fill="#178EA6"/>
<path d="M738.422 249.983C738.778 249.152 736.877 249.508 736.877 249.508C736.877 249.508 737.947 251.291 738.422 249.983Z" fill="#178EA6"/>
<path d="M777.519 261.867C777.519 261.748 777.519 261.748 777.519 261.748V261.629V261.51L777.4 261.392L777.281 261.273H777.162H777.281L777.4 261.154L777.638 261.035C777.638 261.035 777.638 260.916 777.757 260.916C777.757 260.916 777.757 260.916 777.757 260.797C777.757 260.797 777.757 260.797 777.757 260.679C777.757 260.679 777.757 260.679 777.757 260.56V260.441V260.322V260.203L777.638 260.084C777.4 259.728 777.044 259.49 776.925 259.49C777.281 259.015 777.4 258.421 777.519 257.827C777.519 257.708 777.519 257.589 777.519 257.589C777.519 257.47 777.519 257.47 777.519 257.351C777.519 257.114 777.4 256.995 777.281 256.876C777.162 256.757 777.044 256.638 776.925 256.519C776.568 256.401 776.212 256.282 775.855 256.401C776.093 256.163 776.093 255.925 775.974 255.687C775.855 255.45 775.618 255.331 775.38 255.45C775.38 255.331 775.38 255.212 775.38 255.093C775.261 254.974 775.142 254.856 775.142 254.974C775.261 254.261 774.905 253.43 774.191 253.192C773.478 252.954 772.766 253.073 772.171 253.43C772.171 253.192 771.934 253.073 771.696 253.192C771.815 253.073 771.696 252.835 771.577 252.835C771.577 252.835 771.577 252.835 771.458 252.835C771.34 252.835 771.102 252.835 770.983 252.954L770.864 252.122C770.864 252.004 770.745 251.885 770.745 251.766C770.626 251.647 770.508 251.647 770.389 251.766C770.27 251.766 770.151 251.885 770.032 251.885L769.913 252.004C769.795 252.004 769.795 252.122 769.676 252.122L769.557 252.241L769.319 252.36L769.2 252.479L769.082 252.598L768.963 252.717L768.844 252.835L768.725 252.954L768.606 253.073C768.606 253.073 768.606 253.073 768.606 253.192V253.311C768.606 253.311 768.606 253.43 768.487 253.43L768.368 253.667L768.25 253.905C768.25 254.024 768.131 254.143 768.131 254.261C768.131 254.38 768.131 254.38 768.012 254.499C767.893 254.499 767.893 254.618 767.774 254.618C767.655 254.737 767.655 254.974 767.774 255.093C767.537 255.212 767.418 255.45 767.418 255.687C767.299 255.45 767.299 255.331 767.18 255.212L767.061 255.093H766.943C766.824 255.093 766.824 255.093 766.705 255.093L766.586 255.212L766.467 255.331L766.348 255.45L766.23 255.687C766.111 255.806 765.992 255.925 765.992 256.044C765.635 256.757 766.111 257.589 765.992 258.421C765.873 258.421 765.754 258.54 765.754 258.658C765.754 258.777 765.873 258.896 765.754 259.015C765.635 258.896 765.398 259.015 765.279 259.134C765.279 259.134 765.279 259.134 765.279 259.253C765.279 259.134 765.041 259.015 764.922 259.134C764.804 259.253 764.803 259.371 764.803 259.609V260.322V260.441C764.803 260.56 764.803 260.56 764.803 260.679C764.803 260.797 764.803 260.797 764.803 260.797C764.803 260.916 764.803 260.916 764.803 261.035V261.154C764.803 261.273 764.804 261.392 764.922 261.51C764.922 261.629 764.922 261.629 765.041 261.748V261.867C765.041 261.986 765.16 261.986 765.16 262.105C765.16 262.105 765.16 262.105 765.16 262.223C765.279 262.342 765.279 262.461 765.398 262.461C765.279 262.58 765.279 262.818 765.398 262.937C765.279 262.699 765.041 262.818 764.922 263.055C764.566 261.986 764.328 261.035 764.09 259.966C764.09 259.847 764.09 259.847 764.09 259.728C763.972 259.253 763.972 258.777 763.853 258.302C763.853 258.302 763.853 258.183 763.853 258.064V257.827C763.853 257.708 763.853 257.589 763.853 257.47C763.853 257.351 763.853 257.232 763.853 257.114C763.853 256.995 763.853 256.876 763.853 256.757V254.737V254.38C763.853 253.43 763.853 252.598 763.853 252.598C763.853 252.598 763.853 251.885 763.853 250.815C764.447 250.459 764.922 249.983 765.398 249.508H765.635C766.111 249.508 766.586 249.033 766.705 248.557C766.824 248.557 766.942 248.557 767.061 248.557C767.061 248.557 767.18 248.557 767.18 248.438L767.299 248.32V248.082C767.299 248.082 767.299 247.963 767.299 247.844C767.656 248.082 768.131 247.963 768.487 247.607C768.844 247.25 768.844 246.775 768.725 246.418C768.963 246.299 769.082 246.299 769.2 246.181C769.319 246.062 769.557 245.943 769.676 245.824L769.913 245.586C770.151 245.349 770.27 245.111 770.389 244.873C770.389 244.755 770.508 244.636 770.626 244.636C770.745 244.636 770.864 244.517 770.983 244.517C771.339 244.517 771.696 244.398 771.934 244.16C772.171 244.042 772.29 243.804 772.409 243.566C772.409 243.447 772.528 243.447 772.528 243.329C772.647 242.616 772.409 241.784 771.815 241.427C772.171 241.189 772.29 240.833 772.29 240.476C772.409 240.001 772.409 239.645 772.409 239.169C772.409 238.932 772.29 238.575 772.171 238.337H755.297C755.178 238.575 755.059 238.813 754.94 239.169C754.94 239.288 754.821 239.407 754.821 239.526V239.645V239.763V239.882V240.001V240.12V240.239V240.358V240.476V240.595L755.059 240.833C755.178 240.952 755.178 241.071 755.297 241.071C755.297 241.189 755.415 241.308 755.415 241.427C755.415 241.546 755.415 241.665 755.534 241.784C755.534 241.903 755.534 241.902 755.653 242.021C755.653 242.14 755.772 242.14 755.772 242.14C755.891 242.14 755.891 242.259 756.01 242.259C755.891 242.378 755.891 242.378 755.891 242.497C755.891 242.497 755.891 242.497 755.891 242.616C755.891 242.616 755.891 242.734 756.01 242.734C755.772 242.734 755.653 243.21 755.772 243.447C755.772 243.685 755.891 243.923 756.01 244.16L756.128 244.279L756.247 244.398C756.366 244.398 756.366 244.517 756.485 244.517H756.604C756.604 244.517 756.723 244.636 756.723 244.755V244.873C756.723 244.992 756.604 245.111 756.604 245.111L756.485 245.23C756.247 245.824 756.247 246.418 756.485 247.012C756.723 247.607 757.317 247.963 757.911 247.963C757.911 248.201 758.267 248.32 758.624 248.201C758.743 248.201 758.862 248.201 758.862 248.082V248.201H758.981H759.099H759.218H759.575H759.812H760.05H760.288L760.525 248.082L760.644 247.963C760.882 247.844 761.12 247.607 761.12 247.369C761.238 247.369 761.357 247.369 761.357 247.369C762.308 248.32 763.021 249.508 763.377 250.696C763.377 251.409 763.496 252.479 763.496 253.548V256.044C763.496 256.163 763.496 256.163 763.496 256.282V256.876C763.496 256.995 763.496 256.995 763.496 257.114V257.232C763.496 257.351 763.496 257.351 763.496 257.47V257.589C763.496 257.589 763.496 257.708 763.496 257.827V257.945V258.064V258.183V258.302V258.421V258.54V258.658V258.777V259.015V259.134V259.253C763.496 259.371 763.615 259.49 763.615 259.728V259.966V260.084V260.322V260.441V260.679V260.797C763.615 260.916 763.615 260.916 763.615 261.035V261.154C763.615 261.273 763.615 261.273 763.615 261.392V261.51C763.615 261.629 763.615 261.629 763.615 261.748V261.867C763.615 261.986 763.615 261.986 763.615 262.105V262.223C763.615 262.342 763.615 262.342 763.615 262.461V262.58C763.615 262.699 763.615 262.699 763.615 262.818V262.937C763.615 263.055 763.615 263.055 763.615 263.174V263.293C763.615 263.412 763.615 263.531 763.496 263.531C762.902 265.076 762.308 264.481 762.308 265.313H767.299L767.061 265.194H766.943L766.705 265.076H766.586L766.348 264.957L765.754 264.719C765.516 264.6 765.398 264.481 765.279 264.244C765.16 264.006 765.16 263.768 765.041 263.531V263.412C765.041 263.293 765.041 263.055 765.041 262.937C765.041 263.055 765.16 263.055 765.16 263.174C765.873 264.006 767.061 264.363 768.131 264.006C768.012 264.006 768.012 264.125 767.893 264.244C768.25 264.363 768.725 264.363 769.2 264.244C769.438 264.244 769.557 264.363 769.795 264.363C770.151 264.363 770.389 264.363 770.745 264.244C770.864 264.363 770.983 264.6 771.102 264.719C770.983 265.076 770.626 265.551 770.389 265.551H771.815C771.696 265.194 771.577 264.838 771.458 264.481C771.458 264.363 771.577 264.244 771.696 264.125C772.052 264.125 772.409 264.125 772.647 264.125C772.884 264.125 773.003 264.125 773.241 264.006C774.31 264.363 775.38 264.6 776.568 264.481H776.806C776.925 264.481 777.162 264.363 777.281 264.244C777.4 264.125 777.4 264.006 777.4 263.768L777.281 263.65C777.281 263.65 777.162 263.531 777.044 263.531L776.331 263.293C776.568 263.174 776.806 263.055 777.044 262.937L777.281 262.699L777.519 262.461C777.638 262.342 777.757 262.105 777.875 261.986V261.867C777.757 261.748 777.638 261.867 777.519 261.867ZM763.021 249.27C762.427 248.676 761.833 248.082 761.12 247.369L761.238 247.25C761.357 247.012 761.595 246.894 761.833 246.894C761.951 247.369 762.308 247.607 762.783 247.607C762.783 247.844 762.783 248.082 762.902 248.32V248.438C763.021 248.795 763.021 249.033 763.021 249.27ZM763.377 248.795L763.734 249.033C763.972 249.151 764.209 249.27 764.447 249.27C764.09 249.508 763.734 249.746 763.377 249.865C763.377 249.508 763.377 249.152 763.377 248.795ZM769.319 264.363H768.963L769.676 264.006L769.913 264.125L770.151 264.363C769.795 264.481 769.557 264.481 769.319 264.363ZM770.032 264.006C770.151 263.887 770.27 263.768 770.508 263.768C770.508 263.768 770.508 263.887 770.508 264.006C770.508 264.125 770.626 264.363 770.626 264.6C770.389 264.244 770.27 264.125 770.032 264.006ZM770.745 264.244V264.125C770.745 263.887 770.745 263.768 770.745 263.531H770.864L771.339 263.65C771.221 263.887 770.983 264.125 770.745 264.244ZM772.053 264.125C771.815 264.125 771.458 264.125 771.221 264.006C771.339 263.887 771.34 263.768 771.458 263.65L772.528 264.006C772.409 264.125 772.29 264.125 772.053 264.125Z" fill="#178EA6"/>
<path d="M785.006 238.219H735.927V238.932H785.006V238.219Z" fill="#178EA6"/>
<path d="M744.839 238.575H744.126V266.739H744.839V238.575Z" fill="#178EA6"/>
<path d="M752.207 238.1H751.494V266.026H752.207V238.1Z" fill="#178EA6"/>
<path opacity="0.33" d="M759.575 238.1H758.387V264.838H759.575V238.1Z" fill="#007C8D"/>
<path d="M752.801 237.625H752.088V266.739H752.801V237.625Z" fill="#D3EBEF"/>
<path d="M752.801 240.477L752.088 240.595V266.739H752.801V240.477Z" fill="#96C0C7"/>
<path d="M770.865 237.625H770.151V266.739H770.865V237.625Z" fill="#D3EBEF"/>
<path d="M735.095 237.268L721.547 221.462H719.289L708 237.268V266.977H735.095V237.268Z" fill="#B3D4DB"/>
<path d="M771.934 221.462H721.429L735.095 237.386H785.6L771.934 221.462Z" fill="#D3EBEF"/>
<path d="M734.144 237.862L721.072 222.889H719.527L708.832 237.862V266.026H734.144V237.862Z" fill="#178EA6"/>
<path d="M734.976 262.105C734.976 261.986 734.976 261.986 734.976 262.105C734.976 261.986 734.976 261.986 734.976 261.867C734.976 261.867 734.976 261.867 734.976 261.748V261.63V261.511L734.857 261.392L734.738 261.273H734.619H734.738L734.857 261.154C734.976 261.154 734.976 261.035 735.095 261.035L735.214 260.916C735.214 260.916 735.214 260.917 735.214 260.798V260.441C735.214 260.441 735.214 260.441 735.214 260.322C735.214 260.322 735.214 260.322 735.214 260.203V260.085C735.214 260.085 735.214 259.966 735.095 259.966L734.976 259.847C734.738 259.609 734.501 259.372 734.263 259.253C734.619 258.777 734.738 258.183 734.857 257.708C734.857 257.589 734.857 257.589 734.857 257.47V257.233C734.857 256.995 734.738 256.876 734.619 256.757C734.501 256.638 734.382 256.52 734.263 256.401C733.906 256.282 733.55 256.163 733.193 256.282C733.431 256.044 733.431 255.807 733.312 255.569C733.193 255.331 732.956 255.212 732.718 255.331C732.718 255.212 732.718 255.094 732.718 254.975C732.718 254.856 732.599 254.856 732.48 254.856C732.599 254.143 732.243 253.43 731.53 253.073C730.817 252.836 730.104 252.954 729.509 253.311C729.509 253.073 729.272 252.954 729.034 253.073C729.153 252.954 729.034 252.717 728.915 252.717C728.915 252.717 728.915 252.717 728.796 252.717C728.678 252.717 728.44 252.717 728.321 252.836C728.321 252.598 728.202 252.241 728.202 252.004C728.202 251.885 728.083 251.766 728.083 251.647C727.965 251.647 727.846 251.647 727.727 251.647C727.608 251.647 727.489 251.766 727.37 251.766L727.252 251.885C727.133 251.885 727.133 252.004 727.014 252.004L726.895 252.123L726.657 252.241L726.539 252.36L726.42 252.479V252.598L726.301 252.717V252.836V252.954L726.182 253.073C726.182 253.073 726.182 253.073 726.182 253.192V253.311C726.182 253.311 726.182 253.43 726.063 253.43C726.063 253.43 726.063 253.549 726.063 253.668C726.063 253.786 725.944 253.786 725.944 253.905C725.944 254.024 725.826 254.143 725.826 254.262C725.826 254.381 725.826 254.38 725.707 254.499C725.707 254.499 725.588 254.618 725.469 254.618C725.35 254.737 725.35 254.856 725.35 255.094C725.113 255.212 724.994 255.45 724.994 255.688C724.875 255.45 724.875 255.331 724.756 255.212L724.637 255.094H724.518C724.4 255.094 724.399 255.094 724.281 255.094L724.162 255.212L724.043 255.331L723.924 255.45L723.805 255.688C723.686 255.807 723.568 255.925 723.568 256.044C723.211 256.757 723.686 257.589 723.568 258.421C723.449 258.302 723.33 258.54 723.33 258.659C723.33 258.777 723.449 258.896 723.33 259.015C723.211 258.896 722.974 259.015 722.855 259.134C722.855 259.134 722.855 259.134 722.855 259.253C722.855 259.134 722.617 259.015 722.498 259.134C722.379 259.253 722.379 259.372 722.379 259.609C722.379 259.847 722.379 260.085 722.379 260.322V260.441C722.379 260.56 722.379 260.56 722.379 260.679V260.798V261.035V261.154C722.379 261.154 722.379 261.392 722.498 261.511C722.617 261.629 722.498 261.511 722.498 261.511C722.498 261.629 722.617 261.63 722.617 261.748V261.867C722.617 261.986 722.736 261.986 722.736 262.105L722.855 262.224C722.974 262.343 722.973 262.343 723.092 262.461C722.973 262.58 722.973 262.818 723.092 262.937C722.973 262.699 722.736 262.937 722.617 263.056C722.26 262.105 722.023 261.035 721.785 259.966C721.785 259.847 721.785 259.847 721.785 259.728C721.666 259.253 721.666 258.777 721.548 258.302C721.548 258.183 721.548 258.183 721.548 258.064V257.946C721.548 257.827 721.548 257.708 721.548 257.589V257.233C721.548 257.114 721.548 256.995 721.548 256.876V255.094V254.737C721.548 253.786 721.548 253.073 721.548 253.073C721.548 253.073 721.548 252.36 721.548 251.41C722.142 251.053 722.617 250.578 723.092 250.102H723.33C723.805 250.102 724.281 249.627 724.399 249.152C724.518 249.152 724.637 249.152 724.756 249.152C724.756 249.152 724.875 249.152 724.875 249.033L724.994 248.914C724.994 248.914 724.994 248.795 725.113 248.795C725.113 248.795 725.113 248.676 725.113 248.558C725.469 248.676 725.944 248.676 726.301 248.32C726.539 247.963 726.657 247.488 726.539 247.132C726.776 247.013 726.895 247.013 727.014 246.894C727.133 246.775 727.37 246.656 727.489 246.537L727.727 246.3C727.965 246.062 728.083 245.824 728.202 245.587C728.202 245.468 728.321 245.349 728.44 245.349C728.559 245.349 728.678 245.349 728.796 245.349C729.153 245.349 729.509 245.23 729.747 244.992C729.985 244.874 730.104 244.636 730.222 244.398C730.222 244.279 730.222 244.279 730.341 244.161C730.46 243.448 730.222 242.735 729.628 242.259C729.985 242.022 730.104 241.665 730.104 241.309C730.222 240.952 730.341 240.477 730.222 240.001C730.222 239.764 730.104 239.407 729.985 239.169C729.866 239.051 729.747 238.932 729.628 238.813C729.509 238.694 729.391 238.694 729.272 238.575L729.153 238.456C729.153 238.338 729.034 238.219 729.034 238.1V237.981L728.915 237.03V236.912C728.915 236.793 728.915 236.674 728.796 236.674C728.796 236.674 728.797 236.555 728.678 236.555H728.559H728.44H727.727C727.727 236.436 727.608 236.317 727.489 236.317H727.37C727.37 236.199 727.37 236.08 727.37 235.842C727.37 235.723 727.37 235.723 727.37 235.604L727.252 235.248C727.252 235.129 727.252 235.129 727.252 235.01V234.416C727.252 234.297 727.133 234.178 727.133 234.06V233.822C727.133 233.822 727.133 233.703 727.014 233.703C727.014 233.703 727.014 233.703 727.014 233.584V233.465V233.347L726.895 233.228L726.776 233.109V232.99C726.657 232.871 726.657 232.752 726.539 232.752C726.42 232.633 726.301 232.515 726.182 232.515C725.469 232.039 724.399 231.92 723.686 232.396C723.568 232.396 723.568 232.515 723.449 232.515H723.33L723.211 232.396H723.092H722.973C723.092 232.158 722.855 231.92 722.617 231.802C722.379 231.683 722.142 231.564 721.904 231.564H721.666C721.547 231.564 721.31 231.683 721.191 231.802V231.92C721.191 232.039 721.072 232.158 720.953 232.277C720.716 232.515 720.24 232.515 720.003 232.752C719.884 232.871 719.765 232.99 719.527 233.109C719.29 233.228 719.171 233.228 718.933 233.228C718.695 233.228 718.577 233.584 718.695 233.703C717.982 233.465 717.15 233.703 716.556 234.178C715.962 234.654 715.606 235.367 715.368 235.961C715.368 236.08 715.249 236.199 715.249 236.317C715.249 236.436 715.249 236.555 715.249 236.674C715.249 236.793 715.368 236.912 715.368 237.03C715.487 237.149 715.487 237.268 715.487 237.387C715.487 237.625 715.368 237.981 715.13 237.981L715.012 237.862L714.893 237.743H714.774C714.655 237.743 714.655 237.743 714.536 237.743C714.417 237.743 714.417 237.743 714.298 237.862L714.061 237.981C713.942 238.1 713.704 238.338 713.585 238.575C713.348 238.813 713.229 239.169 713.11 239.526C713.11 239.645 712.991 239.764 712.991 239.882V240.001V240.12V240.239V240.358V240.477V240.596V240.714V240.833V240.952L713.229 241.19C713.348 241.309 713.348 241.427 713.467 241.427C713.467 241.546 713.585 241.665 713.585 241.784C713.585 241.903 713.585 242.022 713.704 242.14C713.704 242.259 713.704 242.259 713.823 242.378L713.942 242.497C714.061 242.497 714.061 242.616 714.18 242.616C714.061 242.616 714.061 242.735 714.061 242.853C714.061 242.853 714.061 242.853 714.061 242.972C714.061 242.972 714.061 243.091 714.18 243.091C713.942 243.091 713.823 243.566 713.942 243.804C713.942 244.042 714.061 244.279 714.18 244.517L714.298 244.636C714.298 244.636 714.298 244.636 714.417 244.755C714.536 244.755 714.536 244.874 714.655 244.874H714.774C714.774 244.874 714.893 244.992 714.893 245.111V245.23C714.893 245.349 714.774 245.468 714.774 245.468L714.655 245.587C714.417 246.062 714.417 246.775 714.655 247.25C714.893 247.726 715.487 248.082 716.081 248.201C716.2 248.439 716.438 248.558 716.794 248.439L717.032 248.32V248.439H717.15H717.269H717.388H717.745H717.982H718.22H718.458L718.695 248.32L718.814 248.201C719.052 248.082 719.171 247.845 719.29 247.607C719.408 247.607 719.527 247.607 719.646 247.607C720.597 248.558 721.31 249.627 721.666 250.934C721.666 251.647 721.666 252.717 721.785 253.786V256.995C721.785 256.995 721.785 257.114 721.785 257.233V257.351C721.785 257.351 721.785 257.47 721.785 257.589V257.708C721.785 257.708 721.785 257.827 721.785 257.946V258.064V258.183V258.302V258.421V258.54V258.659V258.777V258.896C721.785 258.896 721.785 258.896 721.785 259.015V259.134V259.253V259.372C721.785 259.49 721.904 259.609 721.904 259.847C721.904 259.966 721.904 259.966 721.904 260.085V260.203V260.441V260.56V260.798V260.916V261.154V261.273C721.904 261.273 721.904 261.392 721.904 261.511V261.63C721.904 261.748 721.904 261.748 721.904 261.867V261.986C721.904 262.105 721.904 262.105 721.904 262.224V262.343C721.904 262.461 721.904 262.461 721.904 262.58V262.699C721.904 262.818 721.904 262.818 721.904 262.937V263.056C721.904 263.174 721.904 263.174 721.904 263.293V263.412C721.904 263.412 721.904 263.65 721.785 263.65C721.191 265.076 720.597 264.6 720.597 265.313H725.588L725.35 265.195H725.231L724.994 265.076H724.875L724.637 264.957L724.043 264.719C723.805 264.6 723.686 264.482 723.568 264.244C723.449 264.006 723.449 263.769 723.33 263.531C723.33 263.531 723.33 263.412 723.33 263.293C723.33 263.174 723.33 262.937 723.33 262.818C723.33 262.937 723.449 262.937 723.449 263.056C724.162 263.887 725.35 264.244 726.42 263.887C726.301 263.887 726.301 264.006 726.182 264.125C726.539 264.244 727.014 264.244 727.489 264.125C727.727 264.125 727.846 264.244 728.083 264.244C728.44 264.244 728.678 264.244 729.034 264.125C729.153 264.244 729.272 264.482 729.391 264.6C729.272 264.957 729.034 265.432 728.678 265.432H730.104C729.985 265.076 729.866 264.719 729.747 264.363C729.866 264.244 729.866 264.125 729.985 264.006C730.341 264.006 730.698 264.006 730.935 264.006C731.173 264.006 731.292 264.006 731.53 263.887C732.599 264.244 733.669 264.482 734.857 264.363H735.095C735.214 264.363 735.451 264.244 735.57 264.125C735.689 264.006 735.689 263.887 735.689 263.65L735.57 263.531C735.451 263.531 735.451 263.412 735.332 263.412L734.619 263.174C734.857 263.056 735.095 262.937 735.332 262.818L735.57 262.58L735.927 262.343C736.045 262.224 736.164 262.105 736.283 261.867V261.748L734.976 262.105ZM720.716 250.221C720.716 249.865 720.716 249.508 720.716 249.152L721.072 249.389C721.31 249.508 721.547 249.627 721.785 249.627C721.547 249.746 721.191 249.984 720.716 250.221ZM718.577 247.844C718.814 247.607 719.052 247.369 719.29 247.369C719.408 247.845 719.765 248.082 720.24 248.082C720.24 248.32 720.24 248.558 720.359 248.795H720.478C720.478 249.152 720.478 249.389 720.478 249.627C719.884 249.033 719.29 248.439 718.577 247.844ZM726.776 264.363H726.42C726.657 264.244 726.895 264.125 727.133 264.125L727.37 264.244C727.489 264.363 727.608 264.363 727.608 264.482C727.252 264.482 727.014 264.482 726.776 264.363ZM727.489 263.887L727.965 263.65C727.965 263.65 727.965 263.769 727.965 263.887C727.965 264.125 728.083 264.244 728.083 264.482C727.846 264.244 727.727 264.125 727.489 263.887ZM728.202 264.125C728.202 264.006 728.202 263.769 728.202 263.65H728.321L728.796 263.769C728.559 263.887 728.44 264.125 728.321 264.363L728.202 264.125ZM729.509 264.125C729.272 264.125 728.915 264.125 728.678 264.006C728.797 263.887 728.915 263.769 728.915 263.65L729.985 264.006C729.866 264.125 729.747 264.125 729.509 264.125Z" fill="#007C8D"/>
<path d="M733.55 255.45C733.906 255.925 734.5 254.618 734.5 254.618C734.5 254.618 733.193 254.856 733.55 255.45Z" fill="#007C8D"/>
<path d="M733.431 254.737C733.907 254.974 733.669 253.548 733.669 253.548C733.669 253.548 732.718 254.499 733.431 254.737Z" fill="#007C8D"/>
<path d="M729.271 252.36C729.747 252.598 729.628 251.172 729.628 251.172C729.628 251.172 728.558 252.123 729.271 252.36Z" fill="#007C8D"/>
<path d="M728.796 251.885C729.39 251.766 728.44 250.696 728.44 250.696C728.44 250.696 728.083 252.003 728.796 251.885Z" fill="#007C8D"/>
<path d="M723.687 254.262C724.162 254.143 723.449 253.073 723.449 253.073C723.449 253.073 722.974 254.499 723.687 254.262Z" fill="#007C8D"/>
<path d="M724.162 254.499C724.518 254.856 724.756 253.43 724.756 253.43C724.756 253.43 723.686 254.024 724.162 254.499Z" fill="#007C8D"/>
<path d="M721.903 254.38C721.903 254.38 722.616 255.688 722.973 254.737C723.211 254.143 721.903 254.38 721.903 254.38Z" fill="#007C8D"/>
<path d="M719.527 264.838H719.765C719.884 264.838 720.003 264.719 720.121 264.719C720.24 264.6 720.24 264.481 720.24 264.362C720.24 264.362 720.24 264.362 720.121 264.243H720.003L719.408 264.006C719.646 263.887 719.765 263.887 719.884 263.768L720.121 263.649C720.24 263.649 720.24 263.53 720.359 263.412C720.478 263.293 720.597 263.174 720.597 263.055C720.597 262.936 720.597 262.936 720.597 262.817C720.597 262.817 720.597 262.817 720.597 262.699C720.597 262.699 720.597 262.699 720.597 262.58V262.461V262.342L720.478 262.223L720.359 262.104H720.478L720.597 261.986C720.597 261.986 720.597 261.986 720.716 261.867V261.273V261.154V261.035V260.916L720.597 260.797C720.359 260.56 720.121 260.322 720.003 260.322C720.24 259.965 720.359 259.609 720.478 259.133V258.658C720.478 258.658 720.478 258.539 720.478 258.42C720.478 258.302 720.359 258.183 720.359 258.064C720.24 257.945 720.24 257.826 720.121 257.826C719.884 257.707 719.646 257.707 719.29 257.707C719.408 257.589 719.408 257.351 719.408 257.113C719.29 256.994 719.052 256.876 718.933 256.994C718.933 256.876 718.933 256.757 718.933 256.757C718.933 256.638 718.814 256.638 718.695 256.757C718.814 256.163 718.577 255.568 717.982 255.331C717.507 255.093 716.913 255.212 716.437 255.45C716.437 255.331 716.2 255.212 716.081 255.212C716.081 255.093 716.081 254.974 715.962 254.974C715.843 254.974 715.725 254.974 715.606 255.093C715.606 254.855 715.487 254.618 715.487 254.499C715.487 254.38 715.487 254.261 715.368 254.261C715.249 254.261 715.13 254.261 715.13 254.261L714.893 254.38H714.774L714.536 254.499L714.417 254.618L714.298 254.737L714.18 254.855L714.061 254.974L713.942 255.093V255.212L713.823 255.331L713.704 255.45V255.568C713.704 255.568 713.704 255.687 713.704 255.806L713.585 256.044C713.585 256.163 713.585 256.163 713.467 256.163C713.467 256.163 713.348 256.163 713.348 256.281C713.229 256.4 713.229 256.519 713.348 256.638C713.229 256.757 713.11 256.876 713.11 257.113C713.11 256.994 712.991 256.876 712.872 256.757H712.754H712.635H712.516H712.397L712.278 256.876L712.159 256.994L712.041 257.113L711.922 257.232C711.684 257.826 712.04 258.42 711.922 259.015C711.803 259.015 711.803 259.133 711.803 259.252C711.803 259.371 711.922 259.49 711.803 259.609C711.684 259.49 711.565 259.609 711.446 259.728C711.446 259.728 711.446 259.728 711.446 259.847C711.446 259.728 711.327 259.728 711.209 259.728C711.09 259.847 711.09 259.965 711.09 260.084C711.09 260.322 711.09 260.441 711.09 260.678V260.797C711.09 260.797 711.09 260.916 711.09 261.035V261.154C711.09 261.154 711.09 261.273 711.09 261.391C711.09 261.391 711.09 261.391 711.09 261.51C711.09 261.629 711.09 261.629 711.209 261.748C711.209 261.867 711.209 261.867 711.327 261.986V262.104L711.446 262.223C711.446 262.342 711.565 262.342 711.565 262.461C711.446 262.58 711.446 262.699 711.565 262.817C711.446 262.699 711.209 262.817 711.209 262.936C711.209 263.055 711.209 263.293 711.327 263.412C711.922 264.006 712.754 264.243 713.585 264.006C713.467 264.006 713.467 264.125 713.467 264.243C713.823 264.362 714.18 264.362 714.417 264.243C714.536 264.243 714.655 264.243 714.893 264.362C715.13 264.362 715.368 264.362 715.606 264.243C715.725 264.362 715.843 264.481 715.843 264.6C715.724 264.956 715.487 265.194 715.249 265.194H716.319C716.2 264.956 716.081 264.6 716.081 264.362C716.081 264.243 716.2 264.125 716.319 264.125C716.556 264.125 716.794 264.125 717.15 264.125C717.269 264.125 717.507 264.125 717.626 264.006C718.339 264.362 718.933 264.6 719.527 264.838ZM714.417 264.719H714.18L714.655 264.481L714.774 264.6L715.011 264.719C714.893 264.719 714.655 264.719 714.417 264.719ZM715.011 264.362L715.368 264.125V264.243C715.368 264.362 715.487 264.481 715.487 264.719C715.249 264.6 715.13 264.481 715.011 264.362ZM715.487 264.481C715.487 264.362 715.487 264.243 715.487 264.125H715.606L715.962 264.243C715.843 264.362 715.725 264.481 715.606 264.719C715.606 264.6 715.606 264.481 715.487 264.481ZM716.556 264.481C716.319 264.481 716.081 264.481 715.843 264.481C715.962 264.362 715.962 264.362 716.081 264.243L716.913 264.481C716.794 264.481 716.675 264.481 716.556 264.481Z" fill="#007C8D"/>
<path d="M719.646 257.827C719.884 258.183 720.359 257.232 720.359 257.232C720.359 257.232 719.289 257.351 719.646 257.827Z" fill="#007C8D"/>
<path d="M719.527 257.351C719.884 257.47 719.765 256.4 719.765 256.4C719.765 256.4 718.933 257.113 719.527 257.351Z" fill="#007C8D"/>
<path d="M716.319 255.569C716.675 255.807 716.556 254.618 716.556 254.618C716.556 254.618 715.843 255.331 716.319 255.569Z" fill="#007C8D"/>
<path d="M715.962 255.093C716.437 254.974 715.724 254.143 715.724 254.143C715.724 254.143 715.368 255.212 715.962 255.093Z" fill="#007C8D"/>
<path d="M712.04 256.995C712.397 256.876 711.921 256.044 711.921 256.044C711.921 256.044 711.446 257.113 712.04 256.995Z" fill="#007C8D"/>
<path d="M712.872 256.4C712.872 256.4 712.04 256.757 712.396 257.232C712.753 257.708 712.872 256.4 712.872 256.4Z" fill="#007C8D"/>
<path d="M711.446 257.351C711.684 256.876 710.614 257.114 710.614 257.114C710.614 257.114 711.209 257.945 711.446 257.351Z" fill="#007C8D"/>
<path d="M727.133 235.485C727.371 235.842 727.846 234.891 727.846 234.891C727.846 234.891 726.895 235.01 727.133 235.485Z" fill="#007C8D"/>
<path d="M727.014 234.891C727.371 235.01 727.252 233.94 727.252 233.94C727.252 233.94 726.539 234.772 727.014 234.891Z" fill="#007C8D"/>
<path d="M722.142 232.158C722.498 232.277 722.379 231.326 722.379 231.326C722.379 231.326 721.548 231.92 722.142 232.158Z" fill="#007C8D"/>
<path d="M721.666 231.802C722.023 231.683 721.429 230.97 721.429 230.97C721.429 230.97 721.191 231.92 721.666 231.802Z" fill="#007C8D"/>
<path d="M717.507 232.752C717.863 232.514 717.031 232.039 717.031 232.039C717.031 232.039 717.031 233.109 717.507 232.752Z" fill="#007C8D"/>
<path d="M717.983 232.871C718.339 232.99 718.22 232.039 718.22 232.039C718.22 232.039 717.388 232.633 717.983 232.871Z" fill="#007C8D"/>
<path d="M717.269 233.227C717.269 232.752 716.318 233.227 716.318 233.227C716.318 233.227 717.269 233.822 717.269 233.227Z" fill="#007C8D"/>
<path d="M713.229 237.624C713.585 237.387 712.516 237.03 712.516 237.03C712.516 237.03 712.753 237.981 713.229 237.624Z" fill="#007C8D"/>
<path d="M713.705 237.505C714.18 237.624 713.705 236.555 713.705 236.555C713.705 236.555 713.11 237.505 713.705 237.505Z" fill="#007C8D"/>
<path d="M727.608 238.575H726.895V266.026H727.608V238.575Z" fill="#007C8D"/>
<path d="M716.081 237.981H715.368V266.026H716.081V237.981Z" fill="#007C8D"/>
<path d="M725.232 237.981H724.519V266.026H725.232V237.981Z" fill="#007C8D"/>
<path d="M719.527 222.889L708.832 237.862V266.026H709.902V237.862L720.478 222.889H719.527Z" fill="#007C8D"/>
<path d="M709.188 237.386H733.788L732.837 236.317H709.901L709.188 237.386Z" fill="#007C8D"/>
<path d="M771.34 222.176H723.33L735.689 236.674H783.699L771.34 222.176Z" fill="#2BB3CF"/>
<path d="M735.927 236.198L724.043 222.176H723.33L735.689 236.674H783.699L783.342 236.198H735.927Z" fill="#178EA6"/>
<path d="M771.458 222.176H724.28C724.518 222.413 724.875 222.77 725.112 222.889C729.984 225.979 743.175 229.306 758.981 231.088C765.992 231.92 773.003 232.277 780.014 232.277L771.458 222.176Z" fill="#44C6DE"/>
<path d="M782.986 236.674H783.699L771.34 222.176H770.627L782.986 236.674Z" fill="#178EA6"/>
<path d="M745.552 236.555L757.792 222.176H757.079L744.839 236.555H745.552Z" fill="#178EA6"/>
<path d="M739.254 222.176L731.411 231.326L731.768 231.801L739.967 222.176H739.254Z" fill="#178EA6"/>
<path d="M738.778 222.176L751.018 236.436H751.731L739.61 222.176H738.778Z" fill="#178EA6"/>
<path d="M756.842 222.176L768.963 236.436H769.676L757.555 222.176H756.842Z" fill="#178EA6"/>
<path d="M759.1 236.674H760.288L770.627 222.176H769.438L759.1 236.674Z" fill="#178EA6"/>
<path d="M772.528 235.248C772.528 235.01 772.409 234.653 772.291 234.416C772.172 234.297 772.053 234.178 771.934 234.059C771.815 233.94 771.696 233.94 771.578 233.822C771.578 233.703 771.459 233.584 771.459 233.465V233.346L771.34 232.396V232.277C771.34 232.158 771.34 232.039 771.34 232.039C771.34 232.039 771.34 231.92 771.221 231.92H771.102H770.983H770.27C770.27 231.801 770.27 231.683 770.151 231.683C770.033 231.564 769.914 231.564 769.914 231.683C769.914 231.564 769.914 231.445 769.914 231.207C769.914 231.088 769.914 231.088 769.914 230.97L769.795 230.613C769.795 230.613 769.795 230.494 769.676 230.375V230.257C769.676 230.138 769.557 230.019 769.557 229.9V229.781L769.439 229.662C769.439 229.662 769.439 229.662 769.439 229.543V229.425V229.306L769.32 229.187L769.201 229.068L768.963 228.83L768.607 228.593C767.894 228.117 766.824 227.999 766.111 228.474C765.992 228.474 765.992 228.593 765.873 228.593H765.755L765.636 228.474H765.517H765.398C765.517 228.236 765.279 227.999 765.042 227.88C764.804 227.761 764.566 227.642 764.329 227.642H763.259C763.14 227.642 762.903 227.761 762.784 227.88V227.999C762.784 228.117 762.665 228.236 762.546 228.355C762.308 228.593 761.833 228.593 761.595 228.83C761.358 229.068 761.358 229.187 761.12 229.187C760.882 229.187 760.763 229.306 760.526 229.306C760.288 229.306 760.169 229.662 760.288 229.781C759.575 229.543 758.743 229.781 758.149 230.257C757.555 230.732 757.198 231.445 756.961 232.039C756.961 232.158 756.842 232.277 756.842 232.396C756.842 232.514 756.842 232.633 756.842 232.752C756.842 232.871 756.961 232.99 756.961 233.109C757.08 233.227 757.08 233.346 757.08 233.465C757.08 233.703 756.961 234.059 756.723 234.059L756.604 233.94H756.485H756.367H756.129C756.01 233.94 756.01 233.94 755.891 234.059L755.654 234.178C755.535 234.297 755.297 234.535 755.178 234.772C754.94 235.01 754.822 235.366 754.703 235.723C754.703 235.842 754.584 235.961 754.584 236.079V236.198V236.317V236.436V236.555V236.674V236.792V236.911H771.934V236.792C772.528 236.317 772.528 235.842 772.528 235.248Z" fill="#178EA6"/>
<path d="M770.27 231.207C770.508 231.563 770.983 230.613 770.983 230.613C770.983 230.613 769.914 230.85 770.27 231.207Z" fill="#178EA6"/>
<path d="M770.033 230.732C770.389 230.851 770.27 229.9 770.27 229.9C770.27 229.9 769.557 230.613 770.033 230.732Z" fill="#178EA6"/>
<path d="M765.16 227.88C765.517 227.999 765.398 227.048 765.398 227.048C765.398 227.048 764.685 227.761 765.16 227.88Z" fill="#178EA6"/>
<path d="M764.804 227.523C765.16 227.404 764.566 226.691 764.566 226.691C764.566 226.691 764.209 227.642 764.804 227.523Z" fill="#178EA6"/>
<path d="M760.525 228.593C760.882 228.355 760.05 227.88 760.05 227.88C760.05 227.88 760.05 228.831 760.525 228.593Z" fill="#178EA6"/>
<path d="M761.001 228.593C761.358 228.711 761.239 227.761 761.239 227.761C761.239 227.761 760.526 228.474 761.001 228.593Z" fill="#178EA6"/>
<path d="M760.288 229.068C760.288 228.593 759.337 229.068 759.337 229.068C759.337 229.068 760.288 229.544 760.288 229.068Z" fill="#178EA6"/>
<path d="M756.247 233.465C756.604 233.228 755.534 232.871 755.534 232.871C755.534 232.871 755.891 233.822 756.247 233.465Z" fill="#178EA6"/>
<path d="M756.723 233.346C757.198 233.465 756.723 232.396 756.723 232.396C756.723 232.396 756.129 233.227 756.723 233.346Z" fill="#178EA6"/>
<path d="M734.144 237.981H708.95V238.813H734.144V237.981Z" fill="#007C8D"/>
<path d="M734.5 237.387H708.356V238.219H734.5V237.387Z" fill="#B3D4DB"/>
<path d="M715.486 237.981H714.773V266.502H715.486V237.981Z" fill="#B3D4DB"/>
<path d="M724.637 237.981H723.924V266.502H724.637V237.981Z" fill="#B3D4DB"/>
<path d="M739.848 221.819H739.135L752.326 237.268H753.039L739.848 221.819Z" fill="#D3EBEF"/>
<path d="M757.911 221.819H757.198L770.389 237.268H771.102L757.911 221.819Z" fill="#D3EBEF"/>
<path d="M775.617 259.847C776.093 259.847 776.33 260.203 776.33 260.56V261.867C776.33 262.223 775.974 262.58 775.617 262.58C775.261 262.58 774.904 262.223 774.904 261.867V260.56C774.904 260.203 775.261 259.847 775.617 259.847Z" fill="#30393D"/>
<path opacity="0.56" d="M771.934 237.743C772.766 237.743 773.479 238.337 773.479 239.169V245.705C773.479 246.418 772.885 247.131 772.053 247.131H771.934C771.221 247.131 770.508 246.537 770.508 245.705V239.169C770.508 238.456 771.221 237.743 771.934 237.743Z" fill="#F5EEDB"/>
<path opacity="0.56" d="M771.934 248.557C772.766 248.557 773.479 249.151 773.479 249.983V251.053C773.479 251.766 772.885 252.479 772.053 252.479H771.934C771.221 252.479 770.508 251.885 770.508 251.053V249.983C770.508 249.27 771.221 248.557 771.934 248.557Z" fill="#F5EEDB"/>
<path d="M796.533 264.957H739.848V266.977H796.533V264.957Z" fill="#B3D4DB"/>
<path d="M729.985 233.108L727.014 236.555H727.727L730.341 233.465L729.985 233.108Z" fill="#007C8D"/>
<path d="M724.162 257.827H722.854V258.183H724.162V257.827Z" fill="#B3D4DB"/>
<path d="M724.162 248.795H722.854V249.151H724.162V248.795Z" fill="#B3D4DB"/>
<path d="M723.211 248.201H722.735V258.658H723.211V248.201Z" fill="#B3D4DB"/>
<path d="M802.95 187.238H782.154L765.992 205.776L766.23 206.37H787.145L802.95 187.238Z" fill="#C0B3A4"/>
<path d="M828.856 230.019L784.768 187.356L770.745 204.231V266.858H828.856V230.019Z" fill="#BD2424"/>
<path d="M828.856 244.398L770.745 218.61V266.858H828.856V244.398Z" fill="#CB2828"/>
<path d="M884.352 229.9H828.262V266.739H884.352V229.9Z" fill="#ED4040"/>
<path d="M884.353 229.9H828.144L828.262 237.981H884.353V229.9Z" fill="#CE2B2B"/>
<path d="M854.287 187.238H783.817L828.262 230.494L894.454 230.019L854.287 187.238Z" fill="#DCD8CE"/>
<path d="M847.513 187.238H808.535L833.134 230.494L869.855 230.019L847.513 187.238Z" fill="#EDEBE3"/>
<path d="M828.381 230.019L784.293 187.238H782.985L828.024 230.97H894.335L894.454 230.019H828.381Z" fill="#C0B3A4"/>
<path d="M799.741 228.712H795.582V266.502H799.741V228.712Z" fill="#561A1A"/>
<path d="M795.701 228.831H794.988V266.62H795.701V228.831Z" fill="#782626"/>
<path d="M816.379 228.831H815.903V266.62H816.379V228.831Z" fill="#782626"/>
<path d="M860.348 248.082H847.751V253.192H860.348V248.082Z" fill="#EDEBE3"/>
<path d="M880.432 248.082H867.835V253.192H880.432V248.082Z" fill="#EDEBE3"/>
<path d="M850.247 192.823H797.246L830.758 225.384H880.075L850.247 192.823Z" fill="#41859A"/>
<path d="M850.009 193.536H798.909L831.233 224.909H878.767L850.009 193.536Z" fill="#1F4E59"/>
<path d="M849.652 194.011H799.385L831.233 224.909H877.935L849.652 194.011Z" fill="#41A7C0"/>
<path d="M848.583 194.13H832.659L840.978 224.909H858.447L848.583 194.13Z" fill="#56C0D7"/>
<path d="M830.045 194.13H826.123L831.471 224.909H836.937L830.045 194.13Z" fill="#56C0D7"/>
<path d="M809.843 193.298H809.13L839.314 225.028H840.027L809.843 193.298Z" fill="#41859A"/>
<path d="M819.943 193.298H819.23L849.415 225.028H850.128L819.943 193.298Z" fill="#41859A"/>
<path d="M830.045 193.298H829.332L859.516 225.028H860.229L830.045 193.298Z" fill="#41859A"/>
<path d="M840.146 193.298H839.433L869.617 225.028H870.33L840.146 193.298Z" fill="#41859A"/>
<path d="M859.279 203.043L858.685 202.449H807.585L808.179 203.043H859.279Z" fill="#41859A"/>
<path d="M869.617 213.857L869.023 213.382H818.874L819.468 213.857H869.617Z" fill="#41859A"/>
<path d="M859.634 248.795H848.464V252.479H859.634V248.795Z" fill="#882E2E"/>
<path d="M879.718 248.914H868.666V252.36H879.718V248.914Z" fill="#882E2E"/>
<path d="M817.091 228.474H778.351V229.306H817.091V228.474Z" fill="#561A1A"/>
<path d="M817.329 242.972H816.497V257.945H817.329V242.972Z" fill="#561A1A"/>
<path d="M817.329 260.084H816.497V266.62H817.329V260.084Z" fill="#561A1A"/>
<path d="M817.329 235.723H816.497V241.07H817.329V235.723Z" fill="#561A1A"/>
<path d="M817.329 228.355H816.497V233.703H817.329V228.355Z" fill="#561A1A"/>
<path d="M778.945 242.972H778.113V257.945H778.945V242.972Z" fill="#561A1A"/>
<path d="M778.945 260.084H778.113V266.62H778.945V260.084Z" fill="#561A1A"/>
<path d="M778.945 235.723H778.113V241.07H778.945V235.723Z" fill="#561A1A"/>
<path d="M778.945 228.236H778.113V233.584H778.945V228.236Z" fill="#561A1A"/>
<path d="M777.4 227.88V266.977H818.042V227.88H777.4ZM817.092 266.502H778.351V228.712H817.092V266.502Z" fill="#D6CCBE"/>
<path d="M796.652 212.193H791.542V213.976H796.652V212.193Z" fill="#561A1A"/>
<path d="M786.789 212.193H781.679V213.976H786.789V212.193Z" fill="#561A1A"/>
<path d="M982.579 239.215C981.842 234.758 978.684 231.044 974.474 229.452C970.474 228.178 966.053 229.664 963.421 233.06C960.263 230.089 955.316 230.301 952.368 233.485C951.632 234.44 951 235.395 950.684 236.456C942.053 229.664 928.79 233.591 924.684 244.203C923.737 241.019 921.105 238.579 917.842 238.048C914.684 237.836 911.737 239.746 910.684 242.824C908.053 235.713 900.579 231.256 894.158 232.954C887.737 234.652 883.211 242.399 884.263 249.828C877.737 247.069 870.158 249.934 867.105 256.408C864.474 252.375 859 251.101 855 253.754C854.789 253.861 854.684 253.967 854.474 254.073C850.684 257.044 849 262.563 849 268.081C849 273.6 850.579 278.8 852.158 284C896.789 269.779 938.474 262.563 985 256.514C982.263 251.95 984.79 251.314 982.579 239.215Z" fill="#00707A"/>
<path d="M810.435 270.239C810.283 266.575 812.099 263.064 815.275 261.079C818.452 259.4 822.233 259.705 824.956 261.995C825.41 256.957 828.586 252.53 833.124 250.698C837.814 249.019 842.957 250.393 846.285 254.057C847.949 251.92 850.671 250.851 853.243 251.462C855.966 252.225 857.932 254.515 858.688 257.263C862.47 253.293 868.521 252.225 873.361 254.667C878.353 257.568 881.227 263.217 880.773 269.018C856.571 268.713 832.368 270.239 810.435 270.239Z" fill="#3EBA82"/>
</g>
<defs>
<clipPath id="clip0_6758_36081">
<rect width="280" height="145" fill="white" transform="translate(675 120)"/>
</clipPath>
</defs>
</svg>
