<?xml version="1.0" encoding="utf-8"?>
<!-- Generator: Adobe Illustrator 25.2.1, SVG Export Plug-In . SVG Version: 6.00 Build 0)  -->
<svg version="1.1" id="EmptyState_x5F_Search" xmlns="http://www.w3.org/2000/svg" xmlns:xlink="http://www.w3.org/1999/xlink"
	 x="0px" y="0px" viewBox="0 0 125 160" style="enable-background:new 0 0 125 160;" xml:space="preserve">
<style type="text/css">
	.st0{clip-path:url(#SVGID_2_);}
	.st1{fill:#E5E5E5;}
	.st2{fill:#E2E2E2;}
	.st3{fill:#DBDBDB;}
	.st4{fill:#CECECE;}
	.st5{opacity:0.5;}
	.st6{fill:#CCCCCC;}
	.st7{opacity:0.5;fill:#179668;enable-background:new    ;}
	.st8{fill:#FFFFFF;}
	.st9{fill:#D8D8D8;}
	.st10{fill:#E3E3E3;}
	.st11{fill:none;}
	.st12{fill:#F8F8F8;}
	.st13{fill:#F4F4F4;}
	.st14{fill:#8E8E8E;}
	.st15{fill:#A3A3A3;}
	.st16{fill:#9B9B9B;}
	.st17{fill:#B7B7B7;}
	.st18{fill:#C4C4C4;}
	.st19{fill:#A0A0A0;}
	.st20{fill:#6B6B6B;}
	.st21{fill:#FCEAE8;}
	.st22{fill:#5B5B5B;}
	.st23{fill:#AFAFAF;}
	.st24{fill:#BABABA;}
	.st25{fill:#C6C6C6;}
	.st26{fill:#939393;}
	.st27{fill:#737373;}
	.st28{fill:#8C8C8C;}
	.st29{clip-path:url(#SVGID_4_);}
	.st30{fill:#32E6F9;}
	.st31{opacity:0.12;fill:#FFFFFF;enable-background:new    ;}
	.st32{opacity:0.14;fill:#FFFFFF;enable-background:new    ;}
	.st33{fill:#37D9F4;}
	.st34{opacity:0.9;fill:#34E0F7;enable-background:new    ;}
	.st35{fill:#38C7E8;}
	.st36{fill:#E0C36C;}
	.st37{fill:#DDB46C;}
	.st38{fill:#C6D9F2;}
	.st39{fill:#EEF8F5;}
	.st40{fill:#00707A;}
	.st41{fill:#9C2740;}
	.st42{fill:#94214F;}
	.st43{fill:#D4375C;}
	.st44{fill:#41859A;}
	.st45{fill:#1F4E59;}
	.st46{fill:#41A7C0;}
	.st47{fill:#56C0D7;}
	.st48{fill:#271329;}
	.st49{fill:#179668;}
	.st50{fill:#23B781;}
	.st51{fill:#33CB93;}
	.st52{fill:#0B474F;}
	.st53{fill:#335860;}
	.st54{fill:#517D84;}
	.st55{fill:#27454C;}
	.st56{fill:#38606B;}
	.st57{fill:#F2FAFC;}
	.st58{fill:#66D7F2;}
	.st59{opacity:0.8;fill:#9AE9F7;enable-background:new    ;}
	.st60{fill:#274D59;}
	.st61{fill:#355C6B;}
	.st62{opacity:0.18;fill:#BCE1EA;enable-background:new    ;}
	.st63{fill:#F95353;}
</style>
<g id="Obyek">
	<g id="MaskAbu">
		<defs>
			<circle id="SVGID_1_" cx="62.5" cy="62.2" r="62.2"/>
		</defs>
		<clipPath id="SVGID_2_">
			<use xlink:href="#SVGID_1_"  style="overflow:visible;"/>
		</clipPath>
		<g id="GabungDesa_Abu-2" class="st0">
			<rect x="-20.2" y="-2.2" class="st1" width="173.2" height="129.7"/>
			<path class="st2" d="M-20.2,85.9c0,0,82.8-59.7,172.9-52.1V8.2c0,0-82.8-7.1-172.9,23.9V85.9z"/>
			<path class="st1" d="M-19.8,46.8c0,0,79.6-33.1,138-28.8l-138,44V46.8z"/>
			<path class="st3" d="M153,66.8c-10.2-7.6-17.1-13.4-32.4-16C96.5,46.6,70.7,86.4,55.8,84C32.2,80.2,26,69,10.2,69
				s-30.4,15.2-30.4,15.2v14.4H153V66.8z"/>
			<path class="st4" d="M121.1,50.7c-4.9-0.1-9.6,1.3-13.7,4c-6.5,4.5-1.7,11.9,5.4,11.8s10-1.1,14.2,1.7s-4.1,5.6-8.4,6.3
				s-5.1,9.2,15.4,9.4c17.9,0.2,19,1.8,19,1.8v-19C141.7,57.1,129.8,51.2,121.1,50.7z"/>
			<g id="_3">
				<g class="st5">
					<polygon class="st4" points="11.7,94.6 9.6,93.8 8.9,93.8 10.5,94.6 					"/>
				</g>
				<g class="st5">
					<polygon class="st4" points="8.4,93.8 6.5,94 6.6,93.8 11.8,93.6 12.1,93.7 					"/>
				</g>
				<g id="Tiang">
					<path class="st4" d="M10.5,94.6c0.2,0.1,0.4,0.1,0.6,0.1c0.4,0,0.6-0.1,0.6-0.1l-0.5-11.9h-0.3L10.5,94.6z"/>
					<path class="st4" d="M11,82.4h0.1c0.2,0,0.3,0.1,0.3,0.3l0,0c0,0.2-0.1,0.3-0.3,0.3H11c-0.2,0-0.3-0.1-0.3-0.3l0,0
						C10.7,82.5,10.9,82.4,11,82.4z"/>
					<polygon class="st4" points="11.1,82.9 10.6,94.7 10.5,94.6 10.9,82.9 					"/>
				</g>
				<g id="Turbine">
					<path class="st4" d="M11.4,82.3V82h0.3l0.2-0.4l5.6-0.7c0,0,0.1,0,0.1,0h0.1c0,0,0,0,0,0.1l0,0L11.4,82.3z"/>
					<path class="st4" d="M10.8,82.5l0.2,0.1l-0.1,0.3l0.2,0.4l-2.7,5c0,0,0,0.1-0.1,0.1H8.2H8.1H8.1L10.8,82.5z"/>
					<path class="st4" d="M10.9,81.9L10.7,82l-0.2-0.2h-0.4l-3.5-4.5c0,0,0-0.1,0-0.1v-0.1c0,0,0,0,0-0.1l0,0L10.9,81.9z"/>
					<circle class="st4" cx="11.1" cy="82.3" r="0.4"/>
				</g>
			</g>
			<path class="st6" d="M-20.2,89.7c85.2,5,148.3-0.4,173.2,37.8H-20.2V89.7z"/>
			<path class="st4" d="M-20.2,91.2v-1.5c7.1,2.6,20.5,9,27.8,13.7c11.8,7.6,22.8,12.8,32.9,22.4c-3.9,0.1-7.7,0.7-11.5,1.6
				c-12.8-16.9-30-25.6-49.2-34.7V91.2z"/>
			<path class="st4" d="M-1.6,90.8L-1.6,90.8c7.8,3.2,18,7.5,25.5,12.4C37.3,112,45.5,116,57.2,127c-3.3-1.5-6.9-2.3-10.5-2.6
				C30.5,107.6,12.4,101.2-10,90.2l0,0L-1.6,90.8z"/>
			<path class="st4" d="M-20,97.3l0.1-1c6.6,2.7,12.9,5.9,19,9.7c8.2,5.3,15.9,8.9,23,15.7c-2.7,0.1-5.5,0.5-8.1,1.1
				C5.1,111-6.6,104.9-20.1,98.4L-20,97.3z"/>
			<path class="st4" d="M-20,105l0.1-1c6.6,2.7,13,5.9,19,9.7c8.2,5.4,14.6,7.1,21.7,13.8c-2.7,0.1-7.3-0.6-9.9,0
				c-10.9-10.8-17.5-15-31-21.4L-20,105z"/>
			<g id="_3-2">
				<polygon class="st7" points="116.8,106 105.9,101.6 102.8,101.7 110.8,106 				"/>
				<polygon class="st7" points="100.1,101.9 90.4,102.5 91,101.7 117.3,100.5 118.9,101 				"/>
				<g id="Tiang-2">
					<path class="st8" d="M110.8,106c1,0.3,2.1,0.5,3.2,0.5c2.3,0,2.8-0.5,2.8-0.5l-2.3-60.9h-1.6L110.8,106z"/>
					<path class="st9" d="M113.4,43.4h0.7c0.8,0,1.4,0.6,1.4,1.4v0c0,0.8-0.6,1.4-1.4,1.4h-0.7c-0.8,0-1.4-0.6-1.4-1.4v0
						C111.9,44,112.6,43.4,113.4,43.4z"/>
					<polygon class="st10" points="113.8,46.2 111.4,106.2 110.7,106 112.9,46.2 					"/>
				</g>
				<g id="Turbine-2">
					<circle class="st11" cx="113.7" cy="42.9" r="34.8"/>
					<path class="st8" d="M115.4,42.9l-0.2-1.2l1.6-0.3l1.2-1.8l28.8-3c0.2,0,0.4,0,0.6,0.1l0.3,0.2c0.1,0.1,0.2,0.2,0.2,0.3v0.3
						L115.4,42.9z"/>
					<path class="st8" d="M112.1,44.3l1.1,0.5l-0.7,1.5l0.9,2L99.8,73.6c-0.1,0.2-0.3,0.3-0.4,0.4L99,74.2c-0.1,0-0.2,0-0.3,0
						l-0.2-0.1L112.1,44.3z"/>
					<path class="st8" d="M112.8,40.9l-0.9,0.8l-1.1-1.2h-2.1L91,17.6c-0.1-0.2-0.2-0.4-0.2-0.6v-0.4c0-0.1,0.1-0.2,0.1-0.3l0.2-0.2
						L112.8,40.9z"/>
					<circle class="st12" cx="113.7" cy="42.9" r="2.2"/>
				</g>
			</g>
			<rect x="33.9" y="72.5" class="st13" width="43.8" height="18.3"/>
			<polygon class="st14" points="33.9,72.5 53,90.8 14.8,94.2 14.8,90.8 			"/>
			<polygon class="st13" points="77.7,72.5 96.7,90.8 58.6,90.8 			"/>
			<rect x="48.8" y="90.8" class="st14" width="48" height="19.5"/>
			<polygon class="st15" points="14.8,93.6 14.8,116.4 53,116.4 53,93.9 33.9,75.9 			"/>
			<polygon class="st16" points="71.5,74 47.7,74 62.7,88.6 84.9,88.6 			"/>
			<polygon class="st14" points="71.4,74.3 48.4,74.3 62.9,88.4 84.3,88.4 			"/>
			<polygon class="st17" points="71.3,74.5 48.6,74.5 62.9,88.4 84,88.4 			"/>
			<polygon class="st18" points="70.7,74.6 63.6,74.6 67.3,88.4 75.2,88.4 			"/>
			<polygon class="st18" points="62.4,74.6 60.7,74.6 63,88.4 65.5,88.4 			"/>
			<polygon class="st19" points="53.3,74.2 53,74.2 66.6,88.5 66.9,88.5 			"/>
			<polygon class="st19" points="57.9,74.2 57.6,74.2 71.1,88.5 71.4,88.5 			"/>
			<polygon class="st19" points="62.4,74.2 62.1,74.2 75.7,88.5 76,88.5 			"/>
			<polygon class="st19" points="67,74.2 66.7,74.2 80.2,88.5 80.6,88.5 			"/>
			<polygon class="st19" points="75.6,78.6 75.3,78.4 52.3,78.4 52.6,78.6 			"/>
			<polygon class="st19" points="80.2,83.5 80,83.2 57.4,83.2 57.7,83.5 			"/>
			<rect x="75" y="92.5" class="st20" width="7.8" height="10.3"/>
			<rect x="31.9" y="81" class="st21" width="3.7" height="6.2"/>
			<rect x="32.4" y="81.8" class="st22" width="2.8" height="4.8"/>
			<path class="st23" d="M141.6,99.1c0-1.9-1-3.6-2.6-4.5c-1.6-0.8-3.6-0.5-4.9,0.7c-0.4-2.5-2.1-4.6-4.5-5.5
				c-2.4-0.7-5,0.1-6.6,2.1c-0.9-1.1-2.3-1.5-3.7-1.1c-1.3,0.5-2.3,1.7-2.6,3.1c-2.1-1.9-5.1-2.3-7.6-0.8c-2.5,1.6-3.8,4.5-3.4,7.4
				C118.1,99.6,130.5,99.6,141.6,99.1z"/>
			<path class="st24" d="M-19.9,127.4c0,0,46.1-29.2,172.9-29.2v29.2H-19.9z"/>
			<path class="st25" d="M35.8,108.8c0,0-23.4,4.2-21.8,8.4s28.6-4.4,28.6,1.3s1.7,6.6,13.7,3.8s96.7-5.5,96.7-5.5V98.2
				C153,98.2,76.9,98.6,35.8,108.8z"/>
			<path class="st26" d="M123.8,127.3c1.7-1.7,2-4.3,0.6-6.3c-1.1-1.5-3.1-1.8-4.6-0.7c-0.3,0.2-0.6,0.5-0.8,0.8
				c0.7-2.8-0.6-6.2-2.8-7.4c-2.3-1.2-5.1-0.2-6.3,2.1c0,0,0,0.1-0.1,0.1c-1.5-1.9-4.3-2.2-6.1-0.6c-0.5,0.4-1,1-1.3,1.6
				c-1.8-2.6-4.2-4.8-7-5.4c-3-0.6-6,1.2-7,4.1c-2.4-1.3-5.4-0.7-7.1,1.4c-0.9-4-6.5-7.3-10.3-6.5c-3,0.4-5.2,3-5.2,6
				c-1.6-1.2-3.8-1.1-5.3,0.3c-1.5,1.7-2.1,4-1.5,6.2c-2.6-0.3-4,1.1-3.7,4.3c14.4,0.2,26.4,0,40.1,0
				C105.4,127.4,113.6,127.4,123.8,127.3z"/>
			<path class="st27" d="M113.3,127.3l-0.2-0.3c-1.8-2.7-3.9-5.3-6.1-7.6c-0.1-0.1-0.1-0.2,0-0.3c0.1-0.1,0.2-0.1,0.3,0c0,0,0,0,0,0
				c2.2,2.3,4.1,4.8,5.9,7.4c1.1-3.3,1.9-6.6,2.5-10c0-0.1,0.1-0.2,0.2-0.2c0.1,0,0.2,0.1,0.2,0.2c-0.6,3.5-1.5,7-2.7,10.4
				L113.3,127.3z"/>
			<path class="st27" d="M110.4,123L110.4,123c-0.1,0-0.2-0.1-0.2-0.2c0.2-1.4,0.2-2.9,0.1-4.4c0-0.1,0.1-0.2,0.2-0.2c0,0,0,0,0,0
				c0.1,0,0.2,0.1,0.2,0.2c0.2,1.5,0.2,3-0.1,4.5C110.6,122.9,110.5,123,110.4,123C110.4,123,110.4,123,110.4,123z"/>
			<path class="st27" d="M114.6,122.6c-0.1,0-0.2-0.1-0.2-0.1l-1-3.3c0-0.1,0-0.2,0.1-0.2c0.1,0,0.2,0,0.2,0.1c0,0,0,0,0,0l0.9,3.3
				C114.7,122.4,114.7,122.5,114.6,122.6L114.6,122.6z"/>
			<path class="st28" d="M91.4,126.3c-0.1,0-0.1,0-0.2-0.1c-1.3-2.7-2.4-5.5-3.1-8.4c0-0.1,0-0.2,0.1-0.2c0.1,0,0.2,0,0.2,0.1l0,0
				c0.7,2.9,1.8,5.7,3.1,8.3C91.6,126.1,91.6,126.2,91.4,126.3C91.5,126.3,91.5,126.3,91.4,126.3L91.4,126.3z"/>
			<path class="st27" d="M91.4,126.2L91.4,126.2c-0.2,0-0.2-0.1-0.2-0.2c0,0,0,0,0,0c0.9-1.9,1.8-3.8,2.9-5.7c0-0.1,0.2-0.1,0.3-0.1
				c0,0,0,0,0,0c0.1,0.1,0.1,0.2,0.1,0.3c-1.1,1.8-2,3.7-2.9,5.6C91.5,126.2,91.4,126.2,91.4,126.2z"/>
			<path class="st27" d="M89.9,123C89.8,123,89.8,123,89.9,123c-0.2,0-0.2-0.2-0.2-0.3c0,0,0,0,0,0c0.7-1.6,1.3-3.3,1.7-5
				c0-0.1,0.1-0.2,0.2-0.2c0,0,0,0,0,0c0.1,0,0.2,0.1,0.2,0.2c-0.4,1.7-0.9,3.4-1.7,5.1C90,123,89.9,123,89.9,123z"/>
			<path class="st28" d="M69.7,127c-0.1,0-0.2,0-0.2-0.1c-1.4-2.4-3.1-4.7-5.1-6.7c-0.1-0.1-0.1-0.2,0-0.3c0,0,0,0,0,0
				c0.1-0.1,0.2-0.1,0.3,0c2,2.1,3.7,4.3,5.2,6.8c0.1,0.1,0,0.3-0.1,0.3C69.8,127,69.8,127,69.7,127L69.7,127z"/>
			<path class="st28" d="M69,125.7C69,125.7,68.9,125.7,69,125.7c-0.2-0.1-0.3-0.2-0.2-0.3c1.2-2.6,2.2-5.3,2.7-8.1
				c0-0.1,0.2-0.2,0.3-0.2c0.1,0,0.2,0.2,0.2,0.3c0,0,0,0,0,0c-0.6,2.9-1.5,5.6-2.8,8.2C69.2,125.7,69.1,125.7,69,125.7z"/>
		</g>
	</g>
	<g id="MaskWarna">
		<defs>
			<circle id="SVGID_3_" cx="62.5" cy="62.2" r="45.6"/>
		</defs>
		<clipPath id="SVGID_4_">
			<use xlink:href="#SVGID_3_"  style="overflow:visible;"/>
		</clipPath>
		<g id="GabungDesa-2" class="st29">
			<rect x="-18.8" y="-1.7" class="st30" width="171" height="128.2"/>
			<path class="st31" d="M-18.8,85.5c0,0,81.9-59,171-51.6V8.7c0,0-81.9-7-171,23.6V85.5z"/>
			<path class="st32" d="M-18.6,46.8c0,0,78.9-32.7,136.7-28.4L-18.6,61.9V46.8z"/>
			<path class="st33" d="M152.2,66.6c-10.1-7.6-16.8-13.3-32-15.9C96.4,46.7,71,86,56.2,83.6c-23.2-3.7-29.4-14.9-45-14.9
				s-30,15.1-30,15.1v14.2h171L152.2,66.6z"/>
			<path class="st34" d="M120.7,50.7c-4.8-0.1-9.5,1.2-13.5,3.9c-6.4,4.5-1.7,11.8,5.3,11.7s9.9-1.1,14,1.7c4.1,2.8-4,5.5-8.3,6.3
				s-5,9.1,15.2,9.3c17.7,0.2,18.8,1.8,18.8,1.8V66.6C141.1,57,129.2,51.2,120.7,50.7z"/>
			<g id="_3-3">
				<g class="st5">
					<polygon class="st35" points="12.5,91.9 10.4,91 9.8,91.1 11.3,91.9 					"/>
				</g>
				<g class="st5">
					<polygon class="st35" points="9.2,91.1 7.3,91.2 7.5,91.1 12.6,90.8 12.9,90.9 					"/>
				</g>
				<g id="Tiang-3">
					<path class="st35" d="M11.3,91.9c0.2,0.1,0.4,0.1,0.6,0.1c0.4,0,0.5-0.1,0.5-0.1L12,80.1h-0.3L11.3,91.9z"/>
					<path class="st35" d="M11.8,79.8h0.1c0.2,0,0.3,0.1,0.3,0.3l0,0c0,0.2-0.1,0.3-0.3,0.3h-0.1c-0.2,0-0.3-0.1-0.3-0.3l0,0
						C11.5,79.9,11.6,79.8,11.8,79.8z"/>
					<polygon class="st35" points="11.9,80.3 11.4,91.9 11.3,91.9 11.7,80.3 					"/>
				</g>
				<g id="Turbine-3">
					<path class="st35" d="M12.2,79.7v-0.2h0.3l0.2-0.4l5.6-0.6c0,0,0.1,0,0.1,0h0.1l0,0l0,0L12.2,79.7z"/>
					<path class="st35" d="M11.6,79.9l0.2,0.1l-0.1,0.3l0.2,0.4l-2.6,4.9c0,0-0.1,0.1-0.1,0.1H9h0l0,0L11.6,79.9z"/>
					<path class="st35" d="M11.7,79.3l-0.2,0.2l-0.2-0.2h-0.4l-3.4-4.4c0,0,0-0.1,0-0.1v-0.1c0,0,0,0,0-0.1l0,0L11.7,79.3z"/>
					<circle class="st35" cx="11.9" cy="79.7" r="0.4"/>
				</g>
			</g>
			<path class="st36" d="M-18.8,89.2c84.1,5,146.4-0.4,171,37.3h-171V89.2z"/>
			<path class="st37" d="M-18.8,90.8v-1.5c7,2.6,20.2,8.9,27.4,13.5c11.6,7.6,22.5,12.6,32.5,22.1c-3.8,0.1-7.7,0.7-11.4,1.6
				c-12.5-16.7-29.5-25.3-48.5-34.3V90.8z"/>
			<path class="st37" d="M-0.4,90.4L-0.4,90.4c7.7,3.2,17.8,7.4,25.1,12.2c13.3,8.7,21.4,12.7,32.9,23.6c-3.3-1.4-6.8-2.3-10.4-2.5
				c-15.9-16.6-33.8-23-55.9-33.9l0,0L-0.4,90.4z"/>
			<path class="st37" d="M-18.6,96.8l0.1-1c6.5,2.6,12.8,5.8,18.7,9.6c8.1,5.3,15.8,8.8,22.8,15.5c-2.7,0.1-5.4,0.5-8,1.1
				c-8.8-11.7-20.4-17.7-33.7-24L-18.6,96.8z"/>
			<path class="st37" d="M-18.6,104.3l0.1-1c6.5,2.6,12.8,5.8,18.7,9.6c8.1,5.3,14.4,7,21.5,13.6c-2.7,0.1-7.2-0.6-9.8,0
				c-10.8-10.7-17.3-14.8-30.5-21.1L-18.6,104.3z"/>
			<g id="_3-4">
				<polygon class="st7" points="116.4,105.4 105.7,101 102.6,101.1 110.5,105.4 				"/>
				<polygon class="st7" points="99.8,101.3 90.2,101.9 90.9,101.1 116.9,99.9 118.4,100.4 				"/>
				<g id="Tiang-4">
					<path class="st8" d="M110.5,105.4c1,0.3,2.1,0.5,3.2,0.5c2.3,0,2.8-0.5,2.8-0.5l-2.2-60.2h-1.6L110.5,105.4z"/>
					<path class="st38" d="M113,43.5h0.7c0.8,0,1.4,0.6,1.4,1.4v0c0,0.8-0.6,1.4-1.4,1.4H113c-0.8,0-1.4-0.6-1.4-1.4v0
						C111.6,44.1,112.2,43.5,113,43.5z"/>
					<polygon class="st38" points="113.4,46.3 111.1,105.6 110.3,105.4 112.5,46.3 					"/>
				</g>
				<g id="Turbine-4">
					<circle class="st11" cx="113.3" cy="43" r="34.5"/>
					<path class="st8" d="M115.1,43l-0.2-1.2l1.6-0.2l1.1-1.8l28.4-2.9c0.2,0,0.4,0,0.6,0.1l0.3,0.2c0.1,0.1,0.2,0.2,0.2,0.3v0.3
						L115.1,43z"/>
					<path class="st8" d="M111.8,44.3l1.1,0.5l-0.7,1.5l0.9,1.9L99.6,73.4c-0.1,0.2-0.2,0.3-0.4,0.4l-0.4,0.1c-0.1,0-0.2,0-0.3,0
						l-0.2-0.1L111.8,44.3z"/>
					<path class="st8" d="M112.4,41l-0.9,0.8l-1.1-1.2h-2.1L90.9,17.9c-0.1-0.2-0.2-0.4-0.2-0.6V17c0-0.1,0.1-0.2,0.1-0.3l0.2-0.2
						L112.4,41z"/>
					<circle class="st39" cx="113.3" cy="43" r="2.2"/>
				</g>
			</g>
			<path class="st40" d="M-10.4,120c-0.7-2.2-0.2-4.6,1.3-6.3c1.5-1.5,3.8-1.9,5.8-1c0.8-2.1,3.1-3.1,5.1-2.4c0.5,0.2,1,0.5,1.4,0.8
				c2.1-4.3,7.3-6.1,11.6-4.1c0.7,0.3,1.3,0.8,1.9,1.3c-0.3-1.6,0.3-3.3,1.6-4.3c1.4-0.8,3.2-0.7,4.4,0.4c-0.5-3.8,1.8-7.6,5.1-8.4
				s7.1,1.6,8.5,5.2c2.3-2.8,6.3-3.3,9.2-1.2c0.2-2.5,2.4-4.3,4.8-4.1c0.1,0,0.2,0,0.4,0c2.4,0.4,4.5,2.5,5.8,4.9
				c1.2,2.5,2,5.1,2.4,7.8C35.4,113,17.9,117-4.4,125.5C-4.3,122.8-8.6,125.9-10.4,120z"/>
			<rect x="34.4" y="72.2" class="st21" width="43.3" height="18.1"/>
			<polygon class="st41" points="34.4,72.2 53.3,90.4 15.6,93.7 15.6,90.4 			"/>
			<polygon class="st21" points="77.7,72.2 96.6,90.4 58.9,90.4 			"/>
			<rect x="49.1" y="90.4" class="st42" width="47.5" height="19.2"/>
			<polygon class="st43" points="15.6,93.1 15.6,115.7 53.3,115.7 53.3,93.4 34.4,75.6 			"/>
			<polygon class="st44" points="71.6,73.7 48,73.7 62.9,88.2 84.9,88.2 			"/>
			<polygon class="st45" points="71.5,74 48.8,74 63.1,88 84.3,88 			"/>
			<polygon class="st46" points="71.4,74.3 49,74.3 63.1,88 83.9,88 			"/>
			<polygon class="st47" points="70.8,74.3 63.8,74.3 67.5,88 75.3,88 			"/>
			<polygon class="st47" points="62.6,74.3 60.9,74.3 63.2,88 65.7,88 			"/>
			<polygon class="st44" points="53.6,74 53.3,74 66.7,88.1 67.1,88.1 			"/>
			<polygon class="st44" points="58.1,74 57.8,74 71.2,88.1 71.6,88.1 			"/>
			<polygon class="st44" points="62.6,74 62.3,74 75.7,88.1 76.1,88.1 			"/>
			<polygon class="st44" points="67.1,74 66.8,74 80.2,88.1 80.6,88.1 			"/>
			<polygon class="st44" points="75.6,78.3 75.4,78 52.6,78 52.9,78.3 			"/>
			<polygon class="st44" points="80.2,83.1 80,82.9 57.7,82.9 57.9,83.1 			"/>
			<rect x="75" y="92" class="st48" width="7.8" height="10.2"/>
			<rect x="32.5" y="80.7" class="st21" width="3.7" height="6.2"/>
			<rect x="32.9" y="81.4" class="st48" width="2.8" height="4.7"/>
			<path class="st49" d="M141,98.5c0-1.9-1-3.6-2.6-4.4c-1.6-0.8-3.6-0.5-4.9,0.7c-0.4-2.5-2.1-4.6-4.5-5.4c-2.4-0.7-4.9,0.1-6.5,2
				c-0.9-1.1-2.3-1.5-3.6-1.1c-1.3,0.5-2.3,1.6-2.6,3c-2-1.9-5.1-2.2-7.5-0.8c-2.4,1.6-3.7,4.5-3.3,7.3C117.7,99,130,99.1,141,98.5z
				"/>
			<path class="st50" d="M-18.8,126.6c0,0,45.6-28.9,171-28.9v28.9H-18.8z"/>
			<path class="st51" d="M36.3,108.2c0,0-23.1,4.2-21.6,8.3s28.3-4.4,28.3,1.2s1.7,6.6,13.5,3.7s95.7-5.4,95.7-5.4V97.7
				C152.2,97.7,76.9,98.1,36.3,108.2z"/>
			<path class="st40" d="M123.3,126.5c1.7-1.7,1.9-4.3,0.6-6.2c-1-1.4-3.1-1.8-4.5-0.7c-0.3,0.2-0.6,0.5-0.8,0.8
				c0.7-2.8-0.6-6.1-2.7-7.3c-2.3-1.2-5.1-0.2-6.2,2.1c0,0,0,0.1-0.1,0.1c-1.5-1.8-4.2-2.1-6.1-0.6c-0.5,0.4-1,1-1.2,1.6
				c-1.8-2.6-4.2-4.8-6.9-5.3c-3-0.6-5.9,1.1-6.9,4c-2.4-1.3-5.4-0.7-7.1,1.4c-0.8-4-6.4-7.2-10.2-6.5c-3,0.4-5.1,3-5.1,6
				c-1.6-1.2-3.8-1-5.2,0.3c-1.5,1.6-2.1,3.9-1.5,6.1c-2.6-0.3-3.9,1.1-3.6,4.2c14.3,0.2,26.1,0,39.7,0
				C105.2,126.5,113.2,126.6,123.3,126.5z"/>
			<path class="st52" d="M113,126.4l-0.2-0.3c-1.8-2.7-3.8-5.2-6-7.6c-0.1-0.1-0.1-0.2,0-0.3c0,0,0,0,0,0c0.1-0.1,0.2-0.1,0.3,0
				c0,0,0,0,0,0c2.1,2.3,4.1,4.7,5.8,7.3c1.1-3.2,1.9-6.5,2.5-9.9c0-0.1,0.1-0.2,0.2-0.2c0.1,0,0.2,0.1,0.2,0.2
				c-0.6,3.5-1.5,6.9-2.6,10.3L113,126.4z"/>
			<path class="st52" d="M110,122.2L110,122.2c-0.1,0-0.2-0.1-0.2-0.2c0.2-1.4,0.2-2.9,0.1-4.3c0-0.1,0.1-0.2,0.2-0.2
				c0.1,0,0.2,0.1,0.2,0.2c0.2,1.5,0.2,3,0,4.4C110.2,122.2,110.1,122.3,110,122.2C110,122.2,110,122.2,110,122.2z"/>
			<path class="st52" d="M114.2,121.8c-0.1,0-0.2-0.1-0.2-0.1l-0.9-3.3c0-0.1,0-0.2,0.1-0.2c0.1,0,0.2,0,0.2,0.1l0,0l0.9,3.3
				C114.4,121.6,114.3,121.7,114.2,121.8L114.2,121.8z"/>
			<path class="st52" d="M91.2,125.4c-0.1,0-0.1,0-0.2-0.1c-1.3-2.7-2.3-5.5-3.1-8.3c0-0.1,0-0.2,0.1-0.2c0,0,0,0,0,0
				c0.1,0,0.2,0,0.2,0.1c0,0,0,0,0,0c0.7,2.8,1.7,5.6,3,8.2C91.4,125.2,91.4,125.4,91.2,125.4C91.3,125.4,91.3,125.4,91.2,125.4
				C91.3,125.4,91.3,125.4,91.2,125.4z"/>
			<path class="st52" d="M91.2,125.4L91.2,125.4c-0.2,0-0.2-0.2-0.2-0.3c0,0,0,0,0,0c0.9-1.9,1.8-3.8,2.9-5.6
				c0.1-0.1,0.2-0.1,0.3-0.1s0.1,0.2,0.1,0.3l0,0c-1.1,1.8-2,3.7-2.9,5.6C91.4,125.4,91.3,125.4,91.2,125.4z"/>
			<path class="st52" d="M89.8,122.2C89.7,122.2,89.7,122.2,89.8,122.2c-0.2,0-0.2-0.2-0.2-0.2c0,0,0,0,0,0c0.7-1.6,1.3-3.2,1.6-4.9
				c0-0.1,0.1-0.2,0.2-0.2c0.1,0,0.2,0.1,0.2,0.2c0,0,0,0,0,0c-0.4,1.7-0.9,3.4-1.7,5C89.9,122.1,89.8,122.2,89.8,122.2z"/>
			<path class="st52" d="M69.9,126.2c-0.1,0-0.2,0-0.2-0.1c-1.4-2.4-3.1-4.6-5-6.7c-0.1-0.1-0.1-0.3,0-0.3c0.1-0.1,0.3-0.1,0.3,0
				c2,2,3.7,4.3,5.1,6.8c0.1,0.1,0,0.3-0.1,0.3C70,126.2,69.9,126.2,69.9,126.2z"/>
			<path class="st52" d="M69.2,124.9C69.1,124.9,69.1,124.9,69.2,124.9c-0.2-0.1-0.3-0.2-0.2-0.3c1.2-2.6,2.1-5.3,2.7-8.1
				c0-0.1,0.2-0.2,0.3-0.2c0.1,0,0.2,0.2,0.2,0.3l0,0c-0.6,2.8-1.5,5.6-2.7,8.2C69.3,124.8,69.2,124.9,69.2,124.9z"/>
			<path class="st7" d="M94.6,108.6l13.4,0.5c0.1,0,0.1,0,0.2-0.1l5.6-6.2c0.1-0.1,0.1-0.3,0-0.4c0-0.1-0.1-0.1-0.2-0.1l-13.4-0.5
				c-0.1,0-0.1,0-0.2,0.1l-5.6,6.2c-0.1,0.1-0.1,0.2,0,0.3C94.4,108.6,94.5,108.6,94.6,108.6z"/>
			<path class="st53" d="M104.6,107.4c0,0-0.1,0.1-0.4,0.1l0.3-0.3L104.6,107.4z"/>
			<path class="st54" d="M104.5,100.3l-0.1,6.8c0,0.2-0.2,0.3-0.3,0.3c0,0,0,0,0,0l-4.7-0.5c-0.2,0-0.3-0.2-0.3-0.3c0,0,0,0,0,0
				l1.3-6.7c0-0.2,0.2-0.3,0.3-0.3l3.4,0.4C104.4,100,104.5,100.2,104.5,100.3z"/>
			<path class="st53" d="M104.6,107.4l2.2-1.8c0.1-0.1,0.1-0.3,0-0.4l-0.5-0.6l-1.8,1.4v1.3C104.4,107.4,104.4,107.4,104.6,107.4
				C104.5,107.4,104.5,107.4,104.6,107.4z"/>
			<polygon class="st55" points="106.2,104.5 104.5,104.4 104.4,106 			"/>
			<polygon class="st53" points="104.4,102.7 100,102.3 99.7,103.6 104.5,104.1 			"/>
			<path class="st56" d="M93.4,101.5l0.2,0.1l6.1-6.4c0.1,0,0.1-0.1,0.2-0.1l14.7,0.2c0,0,0.1,0,0.1,0l0.2-0.1v0.8l0,0
				c0,0.1,0,0.1-0.1,0.2l-6.2,6.9c-0.1,0-0.1,0.1-0.2,0.1l-14.7-0.6c-0.1,0-0.3-0.1-0.3-0.3l0,0L93.4,101.5z"/>
			<path class="st57" d="M93.6,101.8l14.7,0.6c0.1,0,0.1,0,0.2-0.1l6.2-6.9c0.1-0.1,0.1-0.3,0-0.4c0-0.1-0.1-0.1-0.2-0.1l-14.7-0.6
				c-0.1,0-0.1,0-0.2,0.1l-6.2,6.9c-0.1,0.1-0.1,0.3,0,0.4C93.5,101.8,93.6,101.8,93.6,101.8z"/>
			<path class="st58" d="M104.4,98l6.7,0.2c0.1,0,0.2,0,0.3-0.1l2.1-2.3c0.1-0.1,0.1-0.2,0-0.3c0,0-0.1-0.1-0.1-0.1l-7.2-0.3
				c-0.1,0-0.2,0-0.3,0.1l-1.6,2.1c-0.1,0.2-0.1,0.4,0.1,0.6C104.2,98,104.3,98,104.4,98z"/>
			<path class="st58" d="M101.6,100.7c-0.1,0.2-0.1,0.4,0.1,0.6c0.1,0.1,0.1,0.1,0.2,0.1l6.4,0.3c0.1,0,0.1,0,0.2-0.1l1.8-2.1
				c0.1-0.2,0.1-0.4,0-0.6c-0.1-0.1-0.2-0.1-0.2-0.1l-6.5-0.2c-0.1,0-0.2,0.1-0.3,0.2L101.6,100.7z"/>
			<path class="st58" d="M98.1,97.8l4.4,0.1c0.1,0,0.2,0,0.3-0.1l1.8-2.1c0.1-0.2,0.1-0.4,0-0.6c-0.1-0.1-0.2-0.1-0.3-0.1l-4.3-0.2
				c-0.1,0-0.1,0-0.2,0.1l-2,2.2c-0.1,0.2-0.1,0.4,0,0.6C97.9,97.8,98,97.8,98.1,97.8z"/>
			<path class="st58" d="M94.9,101.1l5,0.2c0.1,0,0.2,0,0.3-0.1l1.7-2c0.1-0.2,0.1-0.4,0-0.6c-0.1-0.1-0.2-0.1-0.3-0.1l-4.5-0.2
				c-0.1,0-0.2,0-0.3,0.1l-2.1,2.3c-0.1,0.1-0.1,0.2,0,0.3C94.7,101.1,94.8,101.1,94.9,101.1z"/>
			<polygon class="st59" points="109.3,95.3 110.3,98.3 106.9,98.1 106.1,95.2 			"/>
			<polygon class="st59" points="107,98.7 108.1,101.7 104.7,101.5 103.8,98.6 			"/>
			<polygon class="st59" points="99.2,98.4 99.8,101.3 97.9,101.2 97.4,98.3 			"/>
			<polygon class="st59" points="101.8,95 102.4,97.9 100.5,97.9 100,95 			"/>
			<path class="st7" d="M115.9,108.9l13.4,0.5c0.1,0,0.1,0,0.2-0.1l5.6-6.2c0.1-0.1,0.1-0.3,0-0.4c0,0-0.1-0.1-0.2-0.1l-13.4-0.5
				c-0.1,0-0.1,0-0.2,0.1l-5.6,6.2c-0.1,0.1-0.1,0.3,0,0.4C115.8,108.9,115.9,108.9,115.9,108.9z"/>
			<path class="st54" d="M125.8,100.6l-0.1,6.8c0,0.2-0.2,0.3-0.3,0.3c0,0,0,0,0,0l-4.7-0.5c-0.2,0-0.3-0.2-0.3-0.4c0,0,0,0,0,0
				l1.3-6.7c0-0.2,0.2-0.3,0.3-0.3l3.4,0.4C125.7,100.3,125.8,100.5,125.8,100.6z"/>
			<polygon class="st53" points="125.8,102.9 121.3,102.5 121,103.9 125.8,104.4 			"/>
			<path class="st56" d="M114.7,101.7l0.2,0.1l6.1-6.4c0.1,0,0.1-0.1,0.2-0.1l14.7,0.2h0.1l0.2-0.1v0.8l0,0c0,0.1,0,0.1-0.1,0.2
				l-6.2,6.9c-0.1,0-0.1,0.1-0.2,0.1l-14.7-0.6c-0.1,0-0.3-0.1-0.3-0.3l0,0L114.7,101.7z"/>
			<path class="st57" d="M115,102.1l14.7,0.6c0.1,0,0.1,0,0.2-0.1l6.2-6.9c0.1-0.1,0.1-0.3,0-0.4c0-0.1-0.1-0.1-0.2-0.1l-14.7-0.6
				c-0.1,0-0.1,0-0.2,0.1l-6.2,6.9c-0.1,0.1-0.1,0.3,0,0.4C114.9,102,114.9,102.1,115,102.1z"/>
			<path class="st58" d="M122.9,101c-0.1,0.2-0.1,0.4,0.1,0.6c0.1,0,0.1,0.1,0.2,0.1l6.4,0.3c0.1,0,0.1,0,0.1-0.1l1.8-2.1
				c0.1-0.2,0.1-0.4,0-0.6c-0.1-0.1-0.2-0.1-0.2-0.1l-6.5-0.2c-0.1,0-0.2,0.1-0.3,0.2L122.9,101z"/>
			<path class="st58" d="M119.4,98.1l4.4,0.1c0.1,0,0.3,0,0.3-0.1L126,96c0.1-0.2,0.1-0.4,0-0.6c-0.1-0.1-0.2-0.1-0.3-0.1l-4.4-0.2
				c-0.1,0-0.1,0-0.2,0.1l-2,2.2c-0.2,0.2-0.2,0.4,0,0.6C119.3,98,119.3,98.1,119.4,98.1z"/>
			<path class="st58" d="M116.2,101.4l5,0.2c0.1,0,0.2-0.1,0.3-0.2l1.7-2c0.1-0.2,0.1-0.4,0-0.6c-0.1-0.1-0.2-0.1-0.3-0.1l-4.5-0.2
				c-0.1,0-0.2,0-0.3,0.1L116,101c-0.1,0.1-0.1,0.2,0,0.3C116,101.4,116.1,101.4,116.2,101.4z"/>
			<polygon class="st59" points="120.6,98.7 121.2,101.6 119.2,101.5 118.7,98.6 			"/>
			<polygon class="st59" points="123.2,95.3 123.8,98.2 121.8,98.1 121.3,95.2 			"/>
		</g>
	</g>
	<g id="Luv">
		<g id="Gagang">
			
				<rect x="83.3" y="101.7" transform="matrix(0.8855 -0.4647 0.4647 0.8855 -41.7306 53.0148)" class="st60" width="6.8" height="19"/>
			<path class="st61" d="M94.7,113.4l20.1,35.9c1.8,3.5,0.4,7.9-3.1,9.7c-3.4,1.7-7.5,0.6-9.5-2.7c-0.1-0.1-0.1-0.2-0.2-0.4L84,119
				c-1.5-3,1.3-5.1,4.3-6.5S93.1,110.6,94.7,113.4z"/>
			<path class="st60" d="M115.1,149.9c-0.5,1-1.1,1.9-1.8,2.7c-1.8,2.1-4.3,3.6-7,4.4c-1,0.3-2,0.5-3.1,0.6
				c2.7,2.9,7.2,3.2,10.1,0.5C115.7,156.1,116.4,152.8,115.1,149.9L115.1,149.9z"/>
		</g>
		<path id="Kaca" class="st62" d="M106.8,62.5c0.5,23.6-18.3,43.1-41.8,43.5c-23.6,0.5-43.1-18.3-43.5-41.8
			C21,40.6,39.7,21.1,63.3,20.7c0,0,0,0,0,0C86.9,20.2,106.4,38.9,106.8,62.5z"/>
		<g id="EfekKaca">
			<g class="st5">
				<path class="st8" d="M45.5,42.1c0,2.6-2,4.7-4.6,4.8c-2.6,0-4.7-2-4.8-4.6c0-2.6,2-4.7,4.6-4.8C43.4,37.5,45.5,39.6,45.5,42.1
					C45.5,42.1,45.5,42.1,45.5,42.1z"/>
			</g>
			<g class="st5">
				<path class="st8" d="M38,85.8c-0.8,0-1.5-0.4-2-1c-4.7-6.3-6.7-14.3-5.9-23c0.4-3.9,1.4-7.6,2.9-11.2c0.6-1.2,2-1.6,3.2-1
					c1.1,0.6,1.6,1.8,1.1,3c-1.3,3.2-2.1,6.6-2.4,10c-0.7,7.5,0.9,14.1,5,19.5c0.8,1.1,0.6,2.5-0.5,3.3C39,85.7,38.5,85.8,38,85.8z"
					/>
			</g>
		</g>
		<path id="Bingkai" class="st63" d="M97.9,27.7C78.4,8.9,47.3,9.5,28.5,29s-18.2,50.7,1.4,69.5s50.7,18.2,69.5-1.4
			c9-9.4,14-22,13.7-35C112.8,49.1,107.4,36.7,97.9,27.7z M63.8,104.4c-22.7,0-41.1-18.4-41.1-41.1c0-22.7,18.4-41.1,41.1-41.1
			c22.7,0,41.1,18.4,41.1,41.1c0,0,0,0,0,0C104.9,86,86.5,104.4,63.8,104.4z"/>
	</g>
</g>
</svg>
