<?xml version="1.0" encoding="utf-8"?>
<!-- Generator: Adobe Illustrator 25.2.1, SVG Export Plug-In . SVG Version: 6.00 Build 0)  -->
<svg version="1.1" id="Footer" xmlns="http://www.w3.org/2000/svg" xmlns:xlink="http://www.w3.org/1999/xlink" x="0px" y="0px"
	 viewBox="0 0 1601 406" style="enable-background:new 0 0 1601 406;" xml:space="preserve">
<style type="text/css">
	.st0{fill:#32E6F9;}
	.st1{opacity:0.2;fill:#FFFFFF;enable-background:new    ;}
	.st2{opacity:0.14;fill:#FFFFFF;enable-background:new    ;}
	.st3{fill:#0E8E5D;}
	.st4{fill:#23B781;}
	.st5{fill:#179668;}
	.st6{fill:#3EBA82;}
	.st7{fill:#307A55;}
	.st8{fill:#EDA247;}
	.st9{fill:#5E3A4E;}
	.st10{fill:#EDCABB;}
	.st11{fill:#ED6D68;}
	.st12{fill:#FFF5ED;}
	.st13{opacity:0.67;fill:#F5DCCE;enable-background:new    ;}
	.st14{fill:#F2A035;}
	.st15{fill:#F28B88;}
	.st16{fill:#662D37;}
	.st17{fill:#1D223D;}
	.st18{opacity:0.5;fill:#179668;enable-background:new    ;}
	.st19{fill:#335860;}
	.st20{fill:#517D84;}
	.st21{fill:#27454C;}
	.st22{fill:#38606B;}
	.st23{fill:#F2FAFC;}
	.st24{fill:#66D7F2;}
	.st25{opacity:0.8;fill:#9AE9F7;enable-background:new    ;}
	.st26{fill:#FFFFFF;}
	.st27{fill:#C6D9F2;}
	.st28{fill:none;}
	.st29{fill:#EEF8F5;}
	.st30{fill:#00707A;}
	.st31{fill:#0B474F;}
	.st32{fill:#E0C36C;}
	.st33{fill:#DDB46C;}
	.st34{fill:#FCEAE8;}
	.st35{fill:#9C2740;}
	.st36{fill:#94214F;}
	.st37{fill:#D4375C;}
	.st38{fill:#271329;}
	.st39{fill:#FCEEE3;}
	.st40{fill:#B09289;}
	.st41{fill:#705560;}
	.st42{fill:#E6D1C5;}
	.st43{fill:#41859A;}
	.st44{fill:#1F4E59;}
	.st45{fill:#41A7C0;}
	.st46{fill:#56C0D7;}
	.st47{fill:#4EDDA3;}
	.st48{fill:#46C68F;}
	.st49{fill:#3CBF80;}
</style>
<g id="Elemen">
	<g id="Langit">
		<rect id="Langit_1_" class="st0" width="1601" height="405"/>
		<g id="Awan">
			<path class="st1" d="M0,304.8c0,0,1243-142.2,1601-128.6V113c0,0-1238.7-11.8-1601,58.9V304.8z"/>
			<path class="st2" d="M1.4,222.1c0,0,244.9-42.2,408.1-30.2L1.4,264.5V222.1z"/>
		</g>
	</g>
	<g id="Hutan">
		<path class="st3" d="M55.5,270.7c0.2-0.5,0.7-0.5,0.8,0l0.9,3.3l-0.5,0.2c-0.1,0-0.1,0.2,0,0.2h0.6l2.1,8l-1.2,0.5
			c-0.1,0.1-0.1,0.2,0.1,0.2h1.3l1.4,5.2h-9.9l2.4-9.2H54c0.2,0,0.2-0.1,0.1-0.2l-0.7-0.4L55.5,270.7z"/>
		<path class="st4" d="M19.9,258.4c-0.3-1-1.3-0.9-1.5,0l-1.7,5.9l1,0.4c0.2,0.1,0.1,0.3-0.1,0.3h-1.1l-4.1,14.5l2.4,0.9
			c0.3,0.1,0.2,0.4-0.1,0.3h-2.6L9.4,290h19.4l-4.7-16.5h-1.5c-0.3,0-0.3-0.2-0.1-0.3l1.3-0.7L19.9,258.4z"/>
		<path class="st5" d="M2.4,290.9c-0.5-1.6,1.1-3.3,2.5-4c1.8-0.9,4.4-0.1,4.9,1.8c0.3-0.6,1.1-0.9,1.7-0.6c0.3,0.1,0.5,0.4,0.6,0.6
			c0.4-0.3,1-0.2,1.3,0.2c0.1,0.1,0.1,0.3,0.2,0.4c0-0.6,0.5-1,1-1c0.2,0,0.4,0.1,0.6,0.2c-0.8-0.7-0.9-1.9-0.2-2.7
			c0.5-0.6,1.4-0.8,2.2-0.5c0.6-1.8,2.5-2.8,4.3-2.2c0.8,0.3,1.5,0.8,1.9,1.5c-0.5-0.5-0.5-1.4,0-2c0.5-0.5,1.4-0.5,2,0
			c0.1,0.1,0.1,0.1,0.1,0.2c-0.3-1.1,0.4-2.2,1.5-2.4c0.8-0.2,1.7,0.2,2.2,0.9c0.1-1.7,0.3-3.6,1.6-4.8s3.8-1,4.2,0.7
			c0.3-0.7,1-1.2,1.7-1.4c0.8,0,1.6,0.7,1.3,1.5c0.7-0.8,1.9-0.8,2.6-0.1s0.8,1.9,0.1,2.6c0.6-0.3,1.4-0.2,1.9,0.4
			c0.4,0.6,0.4,1.3,0,1.9c0.1-0.5,0.6-0.8,1.1-0.7c0.5,0.1,0.8,0.6,0.7,1.1c0.2-1.2,1.3-2,2.5-1.7c1.1,0.2,1.9,1.2,1.8,2.4
			c0-0.7,0.6-1.3,1.3-1.3c0.6,0,1.2,0.5,1.3,1.1c-0.2-1,0.5-2,1.6-2.2c1-0.2,2,0.5,2.2,1.6c0,0.1,0,0.3,0,0.4c0.5-0.5,1.3-0.5,1.8,0
			c0.1,0.1,0.2,0.3,0.3,0.4c0.1-1.9,1.7-3.3,3.6-3.1c1.7,0.1,3.1,1.5,3.1,3.2c0.7-0.6,1.6-0.5,2.2,0.2c0.2,0.3,0.3,0.6,0.4,0.9
			c0.3-1.1,1.4-1.7,2.4-1.4c1.1,0.3,1.7,1.4,1.4,2.4l0,0c0.6-0.3,1.4-0.1,1.7,0.5c0.1,0.1,0.1,0.2,0.1,0.3c0.4-1.1,2.4-0.7,2.4,0.5
			c0-1,0.9-1.9,2-1.8c0.9,0,1.6,0.7,1.8,1.5c0.1-1.5,1.4-2.7,3-2.7c0.7,0,1.4,0.4,1.9,0.9c-0.3-0.3,0.1-0.8,0.6-1
			c2.1-0.7,4.3,0.2,5.5,2c1.1,1.9,1.3,4.1,0.4,6.1C88.9,293.8,3,292.7,2.4,290.9z"/>
	</g>
	<polygon id="PadangRumput2" class="st6" points="0,285.7 1600.7,329.9 1600,405 0,405 	"/>
	<g id="Sapi1">
		<ellipse class="st7" cx="711.2" cy="348.9" rx="12.3" ry="1.1"/>
		<path class="st8" d="M702.5,338.6c-1.3-1.7-3.6-2.2-5.5-1.3c0.2,0,0.5,0,0.7,0c-0.4,0.2-0.7,0.5-0.9,0.9c0.3-0.2,0.6-0.4,0.9-0.5
			c-0.3,0.2-0.5,0.6-0.6,0.9c0.2-0.3,0.6-0.5,0.9-0.6c0.4-0.1,0.8-0.1,1.1,0c0.5,0,0.9,0.2,1.4,0.4c0.4,0.2,0.7,0.6,0.9,1.1
			c0.1-0.3,0-0.6-0.1-0.9c0.3,0.3,0.6,0.6,0.7,1c0.1-0.3,0-0.7-0.2-0.9c0.3,0.2,0.6,0.4,0.8,0.7
			C702.7,339.1,702.6,338.8,702.5,338.6z"/>
		<path class="st9" d="M715.1,347.9c0,0-1.2,0.9-1.2,1.1c0.7,0.1,1.5,0.2,2.2,0.1c0.1-0.1,0.3-0.6,0.3-0.6L715.1,347.9z"/>
		<path class="st10" d="M715.3,336.4l3.7-3.6c0,0,0.5,2.1-0.5,6.6c-0.8,3.8-2.1,9.1-2.1,9.1l-1.8-0.3L715.3,336.4z"/>
		<path class="st11" d="M712.7,339.9c0,0-0.5,2.2,0.3,3.1s4.2,1,5-0.2c0.7-0.9,0.1-2.8,0.1-2.8L712.7,339.9z"/>
		<path class="st11" d="M714,343.1c0,0.4,0,0.7,0,1.1c0,0.1,0,0.2,0.1,0.3c0.1,0.1,0.3,0,0.3-0.1s0-0.3,0-0.4c0-0.3,0-0.5-0.1-0.8
			L714,343.1L714,343.1z"/>
		<path class="st11" d="M715.1,343.4c0,0.4,0,0.7,0,1.1c0,0.1,0,0.2,0.1,0.3c0.1,0.1,0.2,0,0.3-0.1l0,0c0-0.1,0-0.3,0-0.4
			c0-0.3,0-0.5-0.1-0.8L715.1,343.4C715,343.3,715.1,343.3,715.1,343.4z"/>
		<path class="st11" d="M716.3,343c0,0.4,0,0.7,0,1.1c0,0.1,0,0.2,0.1,0.3c0.1,0.1,0.2,0,0.3,0l0,0c0-0.1,0-0.3,0-0.4
			c0-0.3,0-0.5-0.1-0.8l-0.4-0.1C716.2,342.9,716.3,343,716.3,343z"/>
		<path class="st12" d="M720.3,333.7l0.6-3.3c1.2,0.5,2,1.6,2.2,2.8c0.5,1.7,0,2.5,0.7,5.3c0.3,1.2,0.8,2.3,1.5,3.3
			c0,0-1.6-0.7-2.2-3.5c-0.6-2.9-0.5-4.5-1-5L720.3,333.7z"/>
		<path class="st9" d="M724.9,341.3c0.5-0.1,1,0.1,1.3,0.5c0.1,0.1,0.1,0.2,0.1,0.3c0,0.1-0.1,0.2-0.2,0.2c0.1,0.1,0.1,0.2,0.2,0.2
			c0,0.1,0,0.2,0,0.3c-0.1,0.1-0.3,0.2-0.4,0.1c-0.3-0.1-0.6-0.3-0.8-0.6C724.9,342,724.9,341.7,724.9,341.3z"/>
		<path class="st9" d="M704,347.9c0,0-1.2,0.9-1.2,1.1c0.7,0.1,1.5,0.2,2.2,0.1c0.1-0.1,0.3-0.6,0.3-0.6L704,347.9z"/>
		<polygon class="st10" points="703.1,337.9 703.7,348.1 705.3,348.5 705.8,338 		"/>
		<path class="st12" d="M703.8,339l0.2,0.2c0.7,0.5,1.5,1,2.4,1.4c4.5,2.1,10.6,1.7,13.8,0.1c0.7-0.3,1.3-0.8,1.7-1.5
			c1.2-2.3,1.4-5,0.6-7.4c-0.3-0.8-0.9-1.5-1.7-1.8c-0.5-0.1-0.9-0.2-1.4-0.2h-0.6c-2.1,0.2-4.9,0.9-7,0.9h-0.7h-0.2
			c-2.6-0.3-5.7-1.8-7.9-1.1c-0.3,0.1-0.5,0.2-0.7,0.3c-0.1,0-0.2,0.1-0.2,0.1c-0.9,0.7-1.6,1.6-2,2.7
			C700,332.8,699.7,336,703.8,339z"/>
		<path class="st9" d="M705.8,334c1-0.2,1.6-1.5,1.8-1.8c0.3-0.4,0.8-0.8,1.3-1c0.7-0.3,0.6-0.8,0.6-0.8c-2.2-0.5-4.7-1.4-6.4-0.8
			c-0.3,0.1-0.5,0.2-0.7,0.3l-0.2,0.2c0.9,0.4,1.5,1,1.9,1.9C704.3,332.5,704.3,334.3,705.8,334z"/>
		<path class="st9" d="M709.5,332.7c-0.2-0.1-0.5-0.3-0.7-0.2s-0.3,0.4-0.5,0.6c-0.1,0.1-0.3,0.2-0.4,0.3c-0.2,0.1-0.2,0.3-0.2,0.5
			s0.1,0.3,0.3,0.3c0.1,0,0.3,0.1,0.4,0c0.4,0,0.8-0.2,1.1-0.5C709.8,333.5,709.9,333,709.5,332.7z"/>
		<path class="st9" d="M719.7,332.5l-1.2,1.2c-1.1,1.6-3.2,2-4.9,1.1c-1-0.2-1.9-0.8-2.4-1.7c-0.2-0.8-0.2-1.7,0-2.5h0.7
			c2,0,4.8-0.7,7-0.9c0.1,0.6,0,1.3,0.5,1.6c0.3,0.2,0.7,0.2,0.8,0.5S719.9,332.4,719.7,332.5z"/>
		<path class="st9" d="M722.5,331.7c-0.1,0.2-0.3,0.5-0.5,0.6c-0.1,0.1-0.3,0.3-0.5,0.2s-0.3-0.3-0.4-0.5c-0.3-0.6-1-0.8-1.3-1.3
			c-0.2-0.3-0.3-0.6-0.4-1c0.5,0,1,0,1.4,0.2C721.6,330.2,722.2,330.9,722.5,331.7z"/>
		<path class="st13" d="M703.8,339l0.2,0.2c0.7,0.5,1.5,1,2.4,1.4c4.5,2.1,10.6,1.7,13.8,0.1c0.2-1.3,0.6-2.6,1-3.9
			c-0.9,2.1-2.7,3.7-4.8,4.4c-2.2,0.7-4.5,0.7-6.6,0c-2.1-0.6-4.5-1.7-5.3-3.3c-0.5-1.1,0-2.3,0.2-3.4c0.2-1.2-0.1-2.5-0.9-3.5
			c-0.4-0.4-0.9-0.8-1.4-0.9c-1.1,0.7-1.9,1.7-2.3,2.9C700.1,332.7,699.7,336,703.8,339z"/>
		<path class="st9" d="M718.8,347.9c0,0-1.2,0.9-1.2,1.1c0.7,0.1,1.5,0.2,2.2,0.1c0.1-0.1,0.3-0.6,0.3-0.6L718.8,347.9z"/>
		<path class="st12" d="M718.9,336.5l4-3.7c0,0,0.6,2.2-0.4,6.7c-0.8,3.8-2.3,9-2.3,9l-1.8-0.3L718.9,336.5z"/>
		<path class="st9" d="M707,347.9c0,0-1.2,0.9-1.2,1.1c0.7,0.1,1.5,0.2,2.2,0.1c0.1-0.1,0.3-0.6,0.3-0.6L707,347.9z"/>
		<polygon class="st12" points="706.2,339.5 706.7,348.2 708.4,348.5 708.9,339.5 		"/>
		<path class="st14" d="M703.2,329.8c0.7-0.2,1.3-0.5,1.8-1c0-0.1,0.1-0.1,0.2-0.1c0.1,0,0.2,0.1,0.2,0.2s0,0.2,0,0.3
			c-0.2,0.7-0.6,1.2-1.2,1.6h-0.1H704C703.7,330.5,703.5,330,703.2,329.8z"/>
		<path class="st14" d="M700.3,329.1c-0.5-0.5-0.9-1-1.2-1.7c0-0.1-0.1-0.1-0.1-0.2c-0.1,0-0.2,0-0.3,0.1s-0.1,0.2-0.1,0.3
			c-0.1,0.7,0,1.4,0.4,2c0,0,0,0,0.1,0.1h0.1C699.6,329.4,699.9,329.3,700.3,329.1z"/>
		<path class="st12" d="M704.1,330.8c0.5-0.2,1.1-0.3,1.7-0.1c0.6,0.2,1,0.6,1.3,1.1c-0.5,0.2-1,0.3-1.5,0.3
			C704.9,332.1,704.3,331.5,704.1,330.8z"/>
		<path class="st12" d="M699.3,329.9c-0.4-0.4-0.9-0.7-1.5-0.8c-0.6,0-1.2,0.1-1.6,0.5c0.3,0.4,0.8,0.7,1.2,0.9
			C698.1,330.7,698.8,330.5,699.3,329.9z"/>
		<path class="st12" d="M703.2,336.9c-0.5,0.7-1.1,1.2-1.9,1.5c-1.1,0.3-2.2,0-3-0.8c-0.3-0.5-0.4-1.1-0.4-1.7c0-0.4,0-0.8-0.1-1.2
			c0-1.9,0.2-4.1,0.8-4.9c0.7-1,2.2-1.2,3.5-0.9c1.2,0.2,2.2,0.9,2.7,1.9C705.2,332.3,704.5,335.1,703.2,336.9z"/>
		<path class="st9" d="M701.4,332c-0.2,0.6-0.4,1.2-0.7,1.8c-0.4,0.6-1.1,0.9-1.8,1c-0.3,0-0.7,0-1,0c0-1.9,0.2-4.1,0.8-4.9
			c0.7-1,2.2-1.2,3.5-0.9c0.1,0.2,0.2,0.5,0.2,0.8C702.1,330.5,701.8,331.3,701.4,332z"/>
		<path class="st15" d="M703.2,336.9c-0.5,0.7-1.1,1.2-1.9,1.5c-1.1,0.3-2.2,0-3-0.8c-0.3-0.5-0.4-1.1-0.4-1.7
			c0.3-0.2,0.5-0.3,0.8-0.3c0.6-0.1,1.2-0.1,1.8,0c0.8,0.1,1.6,0.3,2.3,0.8C702.9,336.6,703.1,336.7,703.2,336.9z"/>
		<path class="st16" d="M699.3,337.1c0-0.3-0.2-0.5-0.4-0.5s-0.3,0.3-0.2,0.6s0.2,0.5,0.4,0.5S699.4,337.4,699.3,337.1z"/>
		<path class="st16" d="M701,337c-0.2-0.1-0.4,0-0.5,0.3s-0.2,0.5,0,0.6s0.4,0,0.5-0.3S701.1,337,701,337z"/>
		<ellipse class="st17" cx="699.1" cy="332.7" rx="0.2" ry="0.2"/>
		<ellipse class="st17" cx="702.9" cy="333.3" rx="0.2" ry="0.2"/>
	</g>
	<g id="SolarPanel">
		<g id="_x31_">
			<path class="st18" d="M1106.8,343l15.4,0.6c0.1,0,0.2,0,0.2-0.1l6.5-7.2c0.1-0.1,0.2-0.3,0.1-0.4s-0.1-0.1-0.2-0.1l-15.4-0.6
				c-0.1,0-0.1,0-0.2,0.1l-6.5,7.2c-0.1,0.1-0.2,0.3-0.1,0.4C1106.7,343,1106.8,343,1106.8,343z"/>
			<path class="st19" d="M1118.3,341.6c0,0-0.1,0.1-0.5,0.1l0.4-0.3L1118.3,341.6z"/>
			<path class="st20" d="M1118.3,333.5l-0.1,7.8c0,0.2-0.2,0.4-0.4,0.4l0,0l-5.4-0.6c-0.2,0-0.3-0.2-0.3-0.4l0,0l1.5-7.7
				c0-0.2,0.2-0.3,0.4-0.3l4,0.5C1118.2,333.1,1118.3,333.3,1118.3,333.5z"/>
			<path class="st19" d="M1118.3,341.6l2.5-2.1c0.1-0.1,0.1-0.3,0-0.5l-0.6-0.7l-2.1,1.7v1.5v0.1
				C1118.2,341.6,1118.3,341.6,1118.3,341.6z"/>
			<polygon class="st21" points="1120.2,338.3 1118.2,338.1 1118.2,340 			"/>
			<polygon class="st19" points="1118.2,336.1 1113,335.6 1112.7,337.2 1118.2,337.8 			"/>
			<path class="st22" d="M1105.4,334.8l0.2,0.1l7-7.4c0.1-0.1,0.1-0.1,0.2-0.1l17,0.2h0.1l0.2-0.1l-0.1,0.9l0,0
				c0,0.1-0.1,0.1-0.1,0.2l-7.1,7.9c-0.1,0.1-0.1,0.1-0.2,0.1l-17-0.6c-0.2,0-0.3-0.2-0.3-0.3l0,0L1105.4,334.8z"/>
			<path class="st23" d="M1105.7,335.1l16.9,0.6c0.1,0,0.2,0,0.2-0.1l7.1-7.9c0.1-0.1,0.2-0.3,0.1-0.4s-0.1-0.1-0.2-0.1l-16.9-0.6
				c-0.1,0-0.2,0-0.2,0.1l-7.1,7.9C1105.5,334.7,1105.4,334.9,1105.7,335.1L1105.7,335.1z"/>
			<path class="st24" d="M1118.1,330.8l7.7,0.3c0.1,0,0.3,0,0.3-0.1l2.4-2.7c0.1-0.1,0.1-0.2,0-0.3c0,0-0.1-0.1-0.2-0.1l-8.3-0.3
				c-0.1,0-0.3,0.1-0.4,0.2l-1.9,2.4c-0.2,0.2-0.1,0.5,0.1,0.6C1118,330.8,1118,330.8,1118.1,330.8z"/>
			<path class="st24" d="M1114.9,333.9c-0.2,0.2-0.1,0.5,0.1,0.6c0.1,0.1,0.2,0.1,0.3,0.1l7.3,0.3c0.1,0,0.1,0,0.2-0.1l2.1-2.4
				c0.2-0.2,0.1-0.5-0.1-0.7c-0.1-0.1-0.2-0.1-0.3-0.1l-7.5-0.3c-0.1,0-0.3,0.1-0.4,0.2L1114.9,333.9z"/>
			<path class="st24" d="M1110.9,330.5l5.1,0.2c0.1,0,0.3-0.1,0.4-0.2l2.1-2.4c0.2-0.2,0.1-0.5,0-0.6s-0.2-0.1-0.3-0.1l-5-0.2
				c-0.1,0-0.1,0-0.2,0.1l-2.3,2.5c-0.2,0.2-0.2,0.5,0,0.6C1110.7,330.5,1110.8,330.5,1110.9,330.5z"/>
			<path class="st24" d="M1107.2,334.3l5.8,0.2c0.1,0,0.3-0.1,0.4-0.2l2-2.3c0.2-0.2,0.1-0.5,0-0.6s-0.2-0.1-0.3-0.1l-5.2-0.2
				c-0.1,0-0.3,0-0.4,0.1l-2.5,2.6c-0.1,0.1-0.1,0.2,0,0.3C1107,334.3,1107.1,334.3,1107.2,334.3z"/>
			<polygon class="st25" points="1123.8,327.6 1125,331 1121.1,330.9 1120,327.5 			"/>
			<polygon class="st25" points="1121.2,331.6 1122.4,335 1118.4,334.8 1117.4,331.4 			"/>
			<polygon class="st25" points="1112.2,331.2 1112.9,334.5 1110.6,334.5 1110.1,331.1 			"/>
			<polygon class="st25" points="1115.2,327.3 1115.9,330.7 1113.7,330.6 1113.1,327.2 			"/>
		</g>
		<g id="_x32_">
			<g id="_x31__1_">
				<path class="st18" d="M1078.8,343l15.4,0.6c0.1,0,0.2,0,0.2-0.1l6.5-7.2c0.1-0.1,0.2-0.3,0.1-0.4s-0.1-0.1-0.2-0.1l-15.4-0.6
					c-0.1,0-0.1,0-0.2,0.1l-6.5,7.2c-0.1,0.1-0.2,0.3-0.1,0.4C1078.7,343,1078.8,343,1078.8,343z"/>
				<path class="st19" d="M1090.3,341.6c0,0-0.1,0.1-0.5,0.1l0.4-0.3L1090.3,341.6z"/>
				<path class="st20" d="M1090.3,333.5l-0.1,7.8c0,0.2-0.2,0.4-0.4,0.4l0,0l-5.4-0.6c-0.2,0-0.3-0.2-0.3-0.4l0,0l1.5-7.7
					c0-0.2,0.2-0.3,0.4-0.3l4,0.5C1090.2,333.1,1090.3,333.3,1090.3,333.5z"/>
				<path class="st19" d="M1090.3,341.6l2.5-2.1c0.1-0.1,0.1-0.3,0-0.5l-0.6-0.7l-2.1,1.7v1.5v0.1
					C1090.2,341.6,1090.3,341.6,1090.3,341.6z"/>
				<polygon class="st21" points="1092.2,338.3 1090.2,338.1 1090.2,340 				"/>
				<polygon class="st19" points="1090.2,336.1 1085,335.6 1084.7,337.2 1090.2,337.8 				"/>
				<path class="st22" d="M1077.4,334.8l0.2,0.1l7-7.4c0.1-0.1,0.1-0.1,0.2-0.1l17,0.2h0.1l0.2-0.1l-0.1,0.9l0,0
					c0,0.1-0.1,0.1-0.1,0.2l-7.1,7.9c-0.1,0.1-0.1,0.1-0.2,0.1l-17-0.6c-0.2,0-0.3-0.2-0.3-0.3l0,0L1077.4,334.8z"/>
				<path class="st23" d="M1077.7,335.1l16.9,0.6c0.1,0,0.2,0,0.2-0.1l7.1-7.9c0.1-0.1,0.2-0.3,0.1-0.4s-0.1-0.1-0.2-0.1l-16.9-0.6
					c-0.1,0-0.2,0-0.2,0.1l-7.1,7.9C1077.5,334.7,1077.4,334.9,1077.7,335.1L1077.7,335.1z"/>
				<path class="st24" d="M1090.1,330.8l7.7,0.3c0.1,0,0.3,0,0.3-0.1l2.4-2.7c0.1-0.1,0.1-0.2,0-0.3c0,0-0.1-0.1-0.2-0.1l-8.3-0.3
					c-0.1,0-0.3,0.1-0.4,0.2l-1.9,2.4c-0.2,0.2-0.1,0.5,0.1,0.6C1090,330.8,1090,330.8,1090.1,330.8z"/>
				<path class="st24" d="M1086.9,333.9c-0.2,0.2-0.1,0.5,0.1,0.6c0.1,0.1,0.2,0.1,0.3,0.1l7.3,0.3c0.1,0,0.1,0,0.2-0.1l2.1-2.4
					c0.2-0.2,0.1-0.5-0.1-0.7c-0.1-0.1-0.2-0.1-0.3-0.1l-7.5-0.3c-0.1,0-0.3,0.1-0.4,0.2L1086.9,333.9z"/>
				<path class="st24" d="M1082.9,330.5l5.1,0.2c0.1,0,0.3-0.1,0.4-0.2l2.1-2.4c0.2-0.2,0.1-0.5,0-0.6s-0.2-0.1-0.3-0.1l-5-0.2
					c-0.1,0-0.1,0-0.2,0.1l-2.3,2.5c-0.2,0.2-0.2,0.5,0,0.6C1082.7,330.5,1082.8,330.5,1082.9,330.5z"/>
				<path class="st24" d="M1079.2,334.3l5.8,0.2c0.1,0,0.3-0.1,0.4-0.2l2-2.3c0.2-0.2,0.1-0.5,0-0.6s-0.2-0.1-0.3-0.1l-5.2-0.2
					c-0.1,0-0.3,0-0.4,0.1l-2.5,2.6c-0.1,0.1-0.1,0.2,0,0.3C1079,334.3,1079.1,334.3,1079.2,334.3z"/>
				<polygon class="st25" points="1095.8,327.6 1097,331 1093.1,330.9 1092,327.5 				"/>
				<polygon class="st25" points="1093.2,331.6 1094.4,335 1090.4,334.8 1089.4,331.4 				"/>
				<polygon class="st25" points="1084.2,331.2 1084.9,334.5 1082.6,334.5 1082.1,331.1 				"/>
				<polygon class="st25" points="1087.2,327.3 1087.9,330.7 1085.7,330.6 1085.1,327.2 				"/>
			</g>
		</g>
		<g id="_x33_">
			<path class="st18" d="M1087.2,356.9l15.4,0.6c0.1,0,0.2,0,0.2-0.1l6.5-7.2c0.1-0.1,0.2-0.3,0.1-0.4s-0.1-0.1-0.2-0.1l-15.4-0.6
				c-0.1,0-0.1,0-0.2,0.1l-6.5,7.2c-0.1,0.1-0.2,0.3-0.1,0.4C1087,356.9,1087.1,356.9,1087.2,356.9z"/>
			<path class="st19" d="M1098.7,355.5c0,0-0.1,0.1-0.5,0.1l0.4-0.3L1098.7,355.5z"/>
			<path class="st20" d="M1098.6,347.4l-0.1,7.8c0,0.2-0.2,0.4-0.4,0.4l0,0l-5.4-0.6c-0.2,0-0.3-0.2-0.3-0.4l0,0l1.5-7.7
				c0-0.2,0.2-0.3,0.4-0.3l4,0.5C1098.5,347.1,1098.6,347.2,1098.6,347.4z"/>
			<path class="st19" d="M1098.7,355.5l2.5-2.1c0.1-0.1,0.1-0.3,0-0.5l-0.6-0.7l-2.1,1.7v1.5v0.1
				C1098.6,355.6,1098.6,355.5,1098.7,355.5z"/>
			<polygon class="st21" points="1100.6,352.2 1098.6,352 1098.5,353.9 			"/>
			<polygon class="st19" points="1098.5,350.1 1093.4,349.6 1093.1,351.1 1098.6,351.7 			"/>
			<path class="st22" d="M1085.8,348.7l0.2,0.1l7-7.4c0.1-0.1,0.1-0.1,0.2-0.1l17,0.2h0.1l0.2-0.1l-0.1,0.9l0,0
				c0,0.1-0.1,0.1-0.1,0.2l-7.1,7.9c-0.1,0.1-0.1,0.1-0.2,0.1l-17-0.6c-0.2,0-0.3-0.2-0.3-0.3l0,0L1085.8,348.7z"/>
			<path class="st23" d="M1086.1,349.1l16.9,0.6c0.1,0,0.2,0,0.2-0.1l7.1-7.9c0.1-0.1,0.2-0.3,0.1-0.4s-0.1-0.1-0.2-0.1l-16.9-0.6
				c-0.1,0-0.2,0-0.2,0.1l-7.1,7.9C1085.9,348.7,1085.8,348.9,1086.1,349.1C1085.9,349,1086,349.1,1086.1,349.1z"/>
			<path class="st24" d="M1098.5,344.7l7.7,0.3c0.1,0,0.3,0,0.3-0.1l2.4-2.7c0.1-0.1,0.1-0.2,0-0.3c0,0-0.1-0.1-0.2-0.1l-8.3-0.3
				c-0.1,0-0.3,0.1-0.4,0.2l-1.9,2.4c-0.2,0.2-0.1,0.5,0.1,0.6C1098.3,344.7,1098.4,344.7,1098.5,344.7z"/>
			<path class="st24" d="M1095.2,347.8c-0.2,0.2-0.1,0.5,0.1,0.6c0.1,0.1,0.2,0.1,0.3,0.1l7.3,0.3c0.1,0,0.1,0,0.2-0.1l2.1-2.4
				c0.2-0.2,0.1-0.5-0.1-0.7c-0.1-0.1-0.2-0.1-0.3-0.1l-7.5-0.3c-0.1,0-0.3,0.1-0.4,0.2L1095.2,347.8z"/>
			<path class="st24" d="M1091.3,344.5l5.1,0.2c0.1,0,0.3-0.1,0.4-0.2l2.1-2.4c0.2-0.2,0.1-0.5,0-0.6s-0.2-0.1-0.3-0.1l-5-0.2
				c-0.1,0-0.1,0-0.2,0.1l-2.3,2.5c-0.2,0.2-0.2,0.5,0,0.6C1091,344.4,1091.1,344.5,1091.3,344.5z"/>
			<path class="st24" d="M1087.5,348.2l5.8,0.2c0.1,0,0.3-0.1,0.4-0.2l2-2.3c0.2-0.2,0.1-0.5,0-0.6s-0.2-0.1-0.3-0.1l-5.2-0.2
				c-0.1,0-0.3,0-0.4,0.1l-2.5,2.6c-0.1,0.1-0.1,0.2,0,0.3C1087.4,348.2,1087.5,348.3,1087.5,348.2z"/>
			<polygon class="st25" points="1104.1,341.6 1105.3,345 1101.4,344.8 1100.4,341.4 			"/>
			<polygon class="st25" points="1101.5,345.5 1102.7,348.9 1098.8,348.7 1097.8,345.3 			"/>
			<polygon class="st25" points="1092.5,345.1 1093.2,348.5 1091,348.4 1090.4,345.1 			"/>
			<polygon class="st25" points="1095.6,341.3 1096.2,344.6 1094,344.5 1093.4,341.2 			"/>
		</g>
		<g id="_x34_">
			<path class="st18" d="M1059.2,356.9l15.4,0.6c0.1,0,0.2,0,0.2-0.1l6.5-7.2c0.1-0.1,0.2-0.3,0.1-0.4s-0.1-0.1-0.2-0.1l-15.4-0.6
				c-0.1,0-0.1,0-0.2,0.1l-6.5,7.2c-0.1,0.1-0.2,0.3-0.1,0.4C1059,356.9,1059.1,356.9,1059.2,356.9z"/>
			<path class="st19" d="M1070.7,355.5c0,0-0.1,0.1-0.5,0.1l0.4-0.3L1070.7,355.5z"/>
			<path class="st20" d="M1070.6,347.4l-0.1,7.8c0,0.2-0.2,0.4-0.4,0.4l0,0l-5.4-0.6c-0.2,0-0.3-0.2-0.3-0.4l0,0l1.5-7.7
				c0-0.2,0.2-0.3,0.4-0.3l4,0.5C1070.5,347.1,1070.6,347.2,1070.6,347.4z"/>
			<path class="st19" d="M1070.7,355.5l2.5-2.1c0.1-0.1,0.1-0.3,0-0.5l-0.6-0.7l-2.1,1.7v1.5v0.1
				C1070.6,355.6,1070.6,355.5,1070.7,355.5z"/>
			<polygon class="st21" points="1072.6,352.2 1070.6,352 1070.5,353.9 			"/>
			<polygon class="st19" points="1070.5,350.1 1065.4,349.6 1065.1,351.1 1070.6,351.7 			"/>
			<path class="st22" d="M1057.8,348.7l0.2,0.1l7-7.4c0.1-0.1,0.1-0.1,0.2-0.1l17,0.2h0.1l0.2-0.1l-0.1,0.9l0,0
				c0,0.1-0.1,0.1-0.1,0.2l-7.1,7.9c-0.1,0.1-0.1,0.1-0.2,0.1l-17-0.6c-0.2,0-0.3-0.2-0.3-0.3l0,0L1057.8,348.7z"/>
			<path class="st23" d="M1058.1,349.1l16.9,0.6c0.1,0,0.2,0,0.2-0.1l7.1-7.9c0.1-0.1,0.2-0.3,0.1-0.4s-0.1-0.1-0.2-0.1l-16.9-0.6
				c-0.1,0-0.2,0-0.2,0.1l-7.1,7.9C1057.9,348.7,1057.8,348.9,1058.1,349.1C1057.9,349,1058,349.1,1058.1,349.1z"/>
			<path class="st24" d="M1070.5,344.7l7.7,0.3c0.1,0,0.3,0,0.3-0.1l2.4-2.7c0.1-0.1,0.1-0.2,0-0.3c0,0-0.1-0.1-0.2-0.1l-8.3-0.3
				c-0.1,0-0.3,0.1-0.4,0.2l-1.9,2.4c-0.2,0.2-0.1,0.5,0.1,0.6C1070.3,344.7,1070.4,344.7,1070.5,344.7z"/>
			<path class="st24" d="M1067.2,347.8c-0.2,0.2-0.1,0.5,0.1,0.6c0.1,0.1,0.2,0.1,0.3,0.1l7.3,0.3c0.1,0,0.1,0,0.2-0.1l2.1-2.4
				c0.2-0.2,0.1-0.5-0.1-0.7c-0.1-0.1-0.2-0.1-0.3-0.1l-7.5-0.3c-0.1,0-0.3,0.1-0.4,0.2L1067.2,347.8z"/>
			<path class="st24" d="M1063.3,344.5l5.1,0.2c0.1,0,0.3-0.1,0.4-0.2l2.1-2.4c0.2-0.2,0.1-0.5,0-0.6s-0.2-0.1-0.3-0.1l-5-0.2
				c-0.1,0-0.1,0-0.2,0.1l-2.3,2.5c-0.2,0.2-0.2,0.5,0,0.6C1063,344.4,1063.1,344.5,1063.3,344.5z"/>
			<path class="st24" d="M1059.5,348.2l5.8,0.2c0.1,0,0.3-0.1,0.4-0.2l2-2.3c0.2-0.2,0.1-0.5,0-0.6s-0.2-0.1-0.3-0.1l-5.2-0.2
				c-0.1,0-0.3,0-0.4,0.1l-2.5,2.6c-0.1,0.1-0.1,0.2,0,0.3C1059.4,348.2,1059.5,348.3,1059.5,348.2z"/>
			<polygon class="st25" points="1076.1,341.6 1077.3,345 1073.4,344.8 1072.4,341.4 			"/>
			<polygon class="st25" points="1073.5,345.5 1074.7,348.9 1070.8,348.7 1069.8,345.3 			"/>
			<polygon class="st25" points="1064.5,345.1 1065.2,348.5 1063,348.4 1062.4,345.1 			"/>
			<polygon class="st25" points="1067.6,341.3 1068.2,344.6 1066,344.5 1065.4,341.2 			"/>
		</g>
	</g>
	<g id="Turbine3">
		<polygon class="st18" points="1038.6,338.7 1046.2,335.5 1048.4,335.6 1042.8,338.7 		"/>
		<polygon class="st18" points="1050.4,335.7 1057.2,336.2 1056.8,335.6 1038.2,334.8 1037.1,335.1 		"/>
		<g id="Tiang">
			<polygon class="st26" points="1042.8,338.7 1038.6,338.7 1040.2,295.8 1041.3,295.8 			"/>
			<path class="st27" d="M1041.1,296.6h-0.6c-0.5,0-1-0.4-1-1v-0.1c0-0.5,0.4-1,1-1h0.6c0.5,0,1,0.4,1,1v0.1
				C1042,296.2,1041.6,296.6,1041.1,296.6z"/>
			<polygon class="st27" points="1040.7,296.6 1042.4,338.7 1042.9,338.7 1041.3,296.6 			"/>
		</g>
		<g id="Turbine">
			<ellipse class="st28" cx="1040.8" cy="294.2" rx="24.5" ry="24.5"/>
			<path class="st26" d="M1039.5,294.1l0.2-0.8l-1.1-0.3l-0.7-1.4l-19.9-4.1c-0.1,0-0.3,0-0.4,0.1l-0.2,0.1c-0.1,0-0.1,0.1-0.1,0.2
				v0.2L1039.5,294.1z"/>
			<path class="st26" d="M1041.8,295.3l-0.8,0.3l0.4,1.1l-0.8,1.3l7.8,18.8c0.1,0.1,0.2,0.2,0.3,0.3l0.2,0.1c0.1,0,0.1,0,0.2,0
				l0.2-0.1L1041.8,295.3z"/>
			<path class="st26" d="M1041.6,292.9l0.6,0.6l0.8-0.8l1.5,0.1l14-14.8c0.1-0.1,0.1-0.2,0.2-0.4v-0.3c0-0.1,0-0.1-0.1-0.2l-0.1-0.1
				L1041.6,292.9z"/>
			<circle class="st29" cx="1040.8" cy="294.2" r="1.6"/>
		</g>
	</g>
	<g id="Turbine2">
		<polygon class="st18" points="983.3,361.5 994.5,356.9 997.8,357 989.5,361.5 		"/>
		<polygon class="st18" points="1000.6,357.2 1010.6,357.8 1010,357 982.8,355.7 981.2,356.3 		"/>
		<g id="Tiang-2">
			<polygon class="st26" points="989.5,361.5 983.3,361.5 985.7,298.6 987.3,298.6 			"/>
			<path class="st27" d="M987,299.8h-0.9c-0.8,0-1.4-0.6-1.4-1.4v-0.2c0-0.8,0.6-1.4,1.4-1.4h0.9c0.8,0,1.4,0.6,1.4,1.4v0.2
				C988.4,299.2,987.7,299.8,987,299.8z"/>
			<polygon class="st27" points="986.5,299.8 988.9,361.5 989.7,361.5 987.4,299.8 			"/>
		</g>
		<g id="Turbine-2">
			<circle class="st28" cx="986.5" cy="296.3" r="36"/>
			<path class="st26" d="M986.9,294.6l1.1,0.5l0.7-1.5l2.1-0.7l10.2-28c0.1-0.2,0.1-0.4,0-0.6l-0.1-0.4c0-0.1-0.1-0.2-0.2-0.2
				l-0.3-0.1L986.9,294.6z"/>
			<path class="st26" d="M984.8,297.6l-0.2-1.2l-1.6,0.3l-1.7-1.4l-28.9,7.3c-0.2,0.1-0.4,0.2-0.5,0.4l-0.2,0.3
				c-0.1,0.1-0.1,0.2-0.1,0.3l0.1,0.3L984.8,297.6z"/>
			<path class="st26" d="M988.3,297.8l-1,0.7l1,1.4l-0.5,2.1l18.5,23.4c0.1,0.2,0.3,0.3,0.5,0.3l0.4,0.1c0.1,0,0.2,0,0.3-0.1
				l0.2-0.2L988.3,297.8z"/>
			<circle class="st29" cx="986.5" cy="296.3" r="2.3"/>
		</g>
	</g>
	<g id="Tumbuhan4">
		<path class="st30" d="M749,372.8c-0.9-6.7,2-21.2,9.6-24.9c3.7-1.8,8.1-1.5,12.4,0.3c2.3-4.5,6.6-7.6,11.6-8.2
			c5.1-0.5,10.1,2.1,12.4,6.7c3.1-3.8,9-4,12.9,1.7c2.8-4.4,7.6-7.1,12.8-7.1c5.4,0.3,10.2,3.3,12.8,8c1.8-2.9,4.9-4.7,8.4-4.7
			c3.3,0,6.3,1.9,7.8,4.8c3.2-3.4,6.5-6.8,10.4-9.1s8.5-3.5,12.9-2.3c4.9,1.6,8.5,5.6,9.5,10.6c3.1-1.7,7-0.5,8.7,2.6
			c0.1,0.2,0.2,0.4,0.3,0.7c3.7-9.6,15.7-12.9,23.2-6.5c2.7-5.5,9.8-6.4,14.6-3s7.4,10.1,7.9,16.5s1.3,8.2,0.1,14.4
			C919.1,373.3,794,374,749,372.8z"/>
		<path class="st31" d="M924.4,344.2c-0.3,0-0.5,0.1-0.6,0.4c-0.8,4.6-1.7,9.1-2.9,13.5l-2-7c-0.1-0.3-0.4-0.4-0.6-0.3
			c-0.3,0.1-0.4,0.4-0.3,0.6l2.5,8.4c0,0,0,0,0.1,0.1c-0.9,3.4-1.9,6.7-3,10c-2.1-3.1-4.4-6.1-6.7-9.1c0.6-3.7,0.6-7.5,0.1-11.3l0,0
			c0-0.3-0.3-0.5-0.6-0.4c-0.3,0-0.5,0.3-0.4,0.6c0.4,3.3,0.4,6.7,0,10.1c-2.4-2.9-4.8-5.8-7.4-8.5c0,0,0,0,0-0.1
			c-0.2-0.2-0.5-0.2-0.7,0s-0.2,0.5,0,0.7c5.7,6,10.9,12.5,15.5,19.4l0.5,0.8l0.3-0.9c3-8.6,5.2-17.5,6.7-26.5l0,0
			C924.9,344.5,924.7,344.3,924.4,344.2z"/>
		<path class="st31" d="M878.8,352.3c-0.3-0.1-0.5,0-0.7,0.2c-2.6,4.4-4.9,8.9-7,13.5c-1.1-2.4-2.2-4.8-3.2-7.3
			c1.8-4,3.2-8.2,4.1-12.5l0,0c0.1-0.3-0.1-0.5-0.4-0.6l0,0c-0.3-0.1-0.5,0.1-0.6,0.4c-0.8,3.9-2.1,7.7-3.6,11.4
			c-1.4-3.8-2.7-7.6-3.7-11.5l0,0c-0.1-0.3-0.3-0.4-0.6-0.3l0,0c-0.3,0.1-0.4,0.3-0.4,0.6c1.1,4.3,2.5,8.5,4.1,12.6
			c-0.1,0.2,0,0.5,0.2,0.6c1.1,2.8,2.3,5.5,3.6,8.1c0.1,0.2,0.3,0.3,0.5,0.3c0.1,0,0.2,0,0.2-0.1l0,0c0.1-0.1,0.2-0.2,0.3-0.4
			c2.2-4.9,4.6-9.7,7.3-14.3c0,0,0-0.1,0.1-0.1C879.2,352.7,879.1,352.4,878.8,352.3z"/>
		<path class="st31" d="M778.9,345.9c-0.3,0-0.5,0.1-0.6,0.4c-1.2,5.6-3,11.1-5.4,16.3c-2.5-3.9-5.4-7.5-8.6-10.9
			c-0.2-0.2-0.5-0.2-0.7,0l0,0c-0.2,0.2-0.2,0.5,0,0.7c4.1,4.2,7.6,8.9,10.6,14c0.1,0.1,0.3,0.2,0.4,0.2c0.1,0,0.2,0,0.2-0.1
			c0.2-0.1,0.3-0.4,0.2-0.7c-0.5-0.8-0.9-1.6-1.4-2.3c2.6-5.5,4.5-11.2,5.7-17.1l0,0C779.4,346.2,779.2,345.9,778.9,345.9z"/>
	</g>
	<g id="Jalan">
		<path class="st32" d="M1600,405H0v-75.1c824,50.5,1600,40,1600,40V405z"/>
		<path class="st33" d="M0.2,342.4c0,0,1221.4,46.9,1599.9,32.7l-0.1,16C881.1,381.1,0,365.5,0,365.5C0,354.7,0.2,342.4,0.2,342.4z"
			/>
	</g>
	<g id="Turbine1">
		<polygon class="st18" points="156.5,386.7 135.3,378 129.2,378.3 144.8,386.7 		"/>
		<polygon class="st18" points="123.9,378.6 105,379.8 106.2,378.2 157.5,375.9 160.5,376.9 		"/>
		<g id="Tiang-3">
			<polygon class="st26" points="144.8,386.7 156.5,386.7 152.1,268.2 149,268.2 			"/>
			<path class="st27" d="M148.9,264.8h3.1c1,0,1.9,0.8,1.9,1.9v1.8c0,1-0.8,1.9-1.9,1.9h-3.1c-1,0-1.9-0.8-1.9-1.9v-1.8
				C147,265.7,147.9,264.8,148.9,264.8z"/>
			<polygon class="st27" points="150.6,270.4 145.9,386.7 144.5,386.7 148.9,270.4 			"/>
		</g>
		<g id="Turbine-3">
			<circle class="st28" cx="150.5" cy="263.8" r="67.8"/>
			<path class="st26" d="M153.8,263.6l-0.6-2.2l3-0.8l1.8-3.7l55.1-11.3c0.4-0.1,0.8,0,1.1,0.2l0.7,0.4c0.2,0.1,0.3,0.3,0.4,0.5
				l0.1,0.5L153.8,263.6z"/>
			<path class="st26" d="M147.7,266.8l2.2,0.8l-1,3l2.1,3.6l-21.4,52c-0.1,0.4-0.4,0.7-0.8,0.9l-0.7,0.4c-0.2,0.1-0.4,0.1-0.6,0
				l-0.5-0.2L147.7,266.8z"/>
			<path class="st26" d="M148.2,260.1l-1.6,1.7l-2.3-2.2l-4.1,0.4l-38.7-40.8c-0.3-0.3-0.4-0.7-0.5-1.1v-0.7c0-0.2,0.1-0.4,0.2-0.6
				l0.4-0.4L148.2,260.1z"/>
			<circle class="st29" cx="150.5" cy="263.8" r="4.4"/>
		</g>
	</g>
	<g id="Rumah">
		<g id="Tumbuhan">
			<path class="st30" d="M471.2,394.4c-114.2,0.1-207.7,0.1-327.5-2.2c-5.9,0.3-7.8-4.2-6.7-8c1.3-3.9,5-6.4,9.1-6
				c-2.8-3,0.9-8.9,4.9-7.8c0-3.3,1.4-6.4,3.7-8.7c3.4-3.4,8.4-5.1,13-3.7c1.8-4.5,6.9-6.8,11.4-5.1c0.1,0,0.2,0.1,0.3,0.1
				c2.9-4.7,11-4.7,13.9-0.1c5-3,11.4-2.4,15.7,1.5c2.7-3.7,6.7-6.3,11.2-7.2c3.2-0.7,6.6-0.5,9.7,0.6c-0.6-5.8,1.5-11.5,5.5-15.6
				c0.9-0.9,1.9-1.8,3.1-2.5c6.1-3.8,13.7-4,20-0.5c2.7-4.2,8.2-5.5,12.5-2.9c2.4-2.2,6.1-2.9,10.4-3.5c0.5-6.5,6.2-11.4,12.8-10.9
				c3.5,0.3,6.7,2.1,8.8,5c4.2-3.7,11.9-1.3,13.3,4.1c7.6-4.4,17.2-2.9,23.1,3.5c3.4-2.3,8-2,11,0.8c3.2-4.9,9.3-7.1,14.8-5.1
				c5.3,2,8.7,8.1,9.8,13.8c3.5,0.8,6.3,3.7,8.6,8.6c6.9-4.6,16.2-2.8,20.8,4.1c1.8,2.7,2.7,5.9,2.5,9.2c4.8-1.5,10.5,1.4,13.4,5.6
				c4.2-3.4,10-3.9,14.8-1.3c1.6,0.9,2.9,2.2,3.9,3.6c2,2.8,2.8,6.4,2.2,9.8c3.3-0.9,6.8,1,7.7,4.4c0,0.1,0,0.2,0.1,0.2
				c2.4-4.2,7.7-5.6,11.9-3.2c2.8,1.6,4.5,4.7,4.4,7.9c4.1,0.1,7.3,3.5,7.2,7.6C472.3,392,471.9,393.3,471.2,394.4L471.2,394.4z"/>
			<path class="st5" d="M161.5,381.1c0.7-1.9,0.4-4.1-0.8-5.8c-0.9-1.5-2.8-2-4.4-1.2c-0.6-2.3-2.9-3.5-4.6-2.4
				c0.5-2.3-0.2-4.7-1.9-6.2c-1.6-1.2-3.9-0.9-5.1,0.7c0,0,0,0,0,0.1c-1.3-2.2-3.9-3.3-6.4-2.5c-2.3,0.8-4.1,3.5-4.5,6.5
				c-1.7-1.4-4.4,0-4.8,2.6c-1.3-1.4-3.4-1.6-5-0.6c-1.7,1.3-2.7,3.4-2.5,5.6c-3.1-0.8-6.4,3.2-6,7.3
				C128.5,384.6,141.4,383.6,161.5,381.1z"/>
			<path class="st5" d="M363.5,392.2c0-3.3,1.8-6.4,4.8-8c2.9-1.4,6.4-0.9,8.8,1.3c0.6-4.4,3.7-8.2,7.9-9.7
				c4.3-1.2,8.8,0.2,11.6,3.6c1.6-1.9,4.1-2.7,6.5-2c2.4,0.8,4.1,2.9,4.6,5.4c3.6-3.4,9.1-4,13.4-1.5c4.4,2.8,6.7,8,6,13.1
				C405.1,393.1,383.2,393.1,363.5,392.2z"/>
		</g>
		<g id="Rumah2">
			<rect x="307.3" y="350.8" class="st34" width="51.8" height="19.2"/>
			<polygon class="st35" points="359.1,350.8 336.5,370 381.7,373.5 381.7,370 			"/>
			<polygon class="st34" points="307.3,350.8 284.7,370 329.9,370 			"/>
			<polygon class="st36" points="284.7,394.1 284.7,370 341.5,370 341.8,394.1 			"/>
			<polygon class="st37" points="381.7,372.9 381.7,394.2 336.5,394.2 336.5,373.2 359.1,354.4 			"/>
			<rect x="357" y="360.5" class="st34" width="4.4" height="6.5"/>
			<rect x="357.5" y="361.3" class="st38" width="3.4" height="5"/>
		</g>
		<g id="Tower2">
			<ellipse class="st39" cx="272.6" cy="271.5" rx="12.1" ry="11.5"/>
			<rect x="260.4" y="271.5" class="st40" width="24.2" height="122.7"/>
			<rect x="260.4" y="280" class="st41" width="24.2" height="3"/>
			<rect x="260.4" y="295.3" class="st41" width="24.2" height="3"/>
			<rect x="260.4" y="309.3" class="st41" width="24.2" height="3"/>
			<rect x="260.4" y="325.3" class="st41" width="24.2" height="3"/>
			<rect x="260.4" y="341.2" class="st41" width="24.2" height="3"/>
			<rect x="260.4" y="357.2" class="st41" width="24.2" height="3"/>
			<rect x="260.4" y="371.2" class="st41" width="24.2" height="3"/>
			<path class="st42" d="M258.5,368.1v-97c0-2.1,1.7-3.8,3.8-3.8l0,0l0,0v100.8L258.5,368.1L258.5,368.1z"/>
		</g>
		<g id="Tower1">
			<rect x="301.2" y="370.2" class="st38" width="9.3" height="10.8"/>
			<ellipse class="st39" cx="301.9" cy="264.5" rx="12.1" ry="11.5"/>
			<rect x="289.8" y="264.5" class="st40" width="24.2" height="129.7"/>
			<rect x="289.8" y="273" class="st41" width="24.2" height="3"/>
			<rect x="289.8" y="288.3" class="st41" width="24.2" height="3"/>
			<rect x="289.8" y="302.3" class="st41" width="24.2" height="3"/>
			<rect x="289.8" y="318.3" class="st41" width="24.2" height="3"/>
			<rect x="289.8" y="334.2" class="st41" width="24.2" height="3"/>
			<rect x="289.8" y="350.2" class="st41" width="24.2" height="3"/>
			<rect x="289.8" y="364.2" class="st41" width="24.2" height="3"/>
			<path class="st42" d="M287.9,361.1v-97c0-2.1,1.7-3.8,3.8-3.8l0,0l0,0v100.8L287.9,361.1L287.9,361.1z"/>
		</g>
		<g id="Rumah1">
			<rect x="184.8" y="326.5" class="st34" width="78.4" height="32.9"/>
			<polygon class="st35" points="263.3,326.5 229.1,359.3 297.4,365.4 297.4,359.3 			"/>
			<polygon class="st34" points="184.8,326.5 150.7,359.3 219,359.3 			"/>
			<rect x="150.7" y="359.3" class="st36" width="86" height="34.9"/>
			<polygon class="st37" points="297.4,364.4 297.4,393.7 229.1,393.7 229.1,364.8 263.3,332.6 			"/>
			<polygon class="st43" points="195.9,329.2 238.6,329.2 211.6,355.5 171.8,355.5 			"/>
			<polygon class="st44" points="196.1,329.8 237.3,329.8 211.3,355 172.9,355 			"/>
			<polygon class="st45" points="196.3,330.2 236.9,330.2 211.3,355 173.6,355 			"/>
			<polygon class="st46" points="197.3,330.2 210.1,330.2 203.4,355 189.3,355 			"/>
			<polygon class="st46" points="212.1,330.2 215.3,330.2 211.1,355 206.6,355 			"/>
			<polygon class="st43" points="228.5,329.6 229,329.6 204.7,355.2 204.1,355.2 			"/>
			<polygon class="st43" points="220.3,329.6 220.9,329.6 196.6,355.2 196,355.2 			"/>
			<polygon class="st43" points="212.2,329.6 212.7,329.6 188.4,355.2 187.9,355.2 			"/>
			<polygon class="st43" points="204,329.6 204.6,329.6 180.3,355.2 179.7,355.2 			"/>
			<polygon class="st43" points="188.7,337.5 189.1,337 230.3,337 229.9,337.5 			"/>
			<polygon class="st43" points="180.3,346.2 180.7,345.8 221.2,345.8 220.7,346.2 			"/>
			<rect x="175.7" y="362.4" class="st38" width="14" height="18.5"/>
			<rect x="260.1" y="341.8" class="st34" width="6.7" height="11.2"/>
			<rect x="260.9" y="343.1" class="st38" width="5.1" height="8.5"/>
		</g>
	</g>
	<g id="Tumbuhan2">
		<path class="st30" d="M1385.3,280.8c-0.7-4.2-3.7-7.7-7.7-9.2c-3.8-1.2-8,0.2-10.5,3.4c-3-2.8-7.7-2.6-10.5,0.4
			c-0.7,0.9-1.3,1.8-1.6,2.8c-8.2-6.4-20.8-2.7-24.7,7.3c-0.9-3-3.4-5.3-6.5-5.8c-3-0.2-5.8,1.6-6.8,4.5c-2.5-6.7-9.6-10.9-15.7-9.3
			s-10.4,8.9-9.4,15.9c-6.2-2.6-13.4,0.1-16.3,6.2c-2.5-3.8-7.7-5-11.5-2.5c-0.2,0.1-0.3,0.2-0.5,0.3c-3.6,2.8-5.2,8-5.2,13.2
			s1.5,10.1,3,15c42.4-13.4,82-20.2,126.2-25.9C1385,292.8,1387.4,292.2,1385.3,280.8z"/>
		<path class="st5" d="M1220.9,324.9c-1.5-6.2,4.2-12.3,9.7-10.6c-0.7-2.6,0.1-5.3,2.2-6.9c2.2-1.3,5.1-0.9,6.8,1.1
			c-1.1-5,1.3-12.4,5.5-14s9.8,2.8,12.4,7.2c2.6-4.1,5.8-8.2,10.3-9.3c4.5-1.1,10.5,2.8,10.4,7.9c2.2-2.8,6.2-3.7,9.5-2.2
			c3.5,1.7,5.9,5.1,6.3,9C1269.3,311.2,1245.1,317.6,1220.9,324.9z"/>
	</g>
	<g id="BukitRumput">
		<path class="st47" d="M990.3,404.3c0,0,337.6-140.7,610.7-145.3v145.3H990.3z"/>
		<path class="st48" d="M1601,279.5c-35.9,44.6-53,62.3-58.8,122.2c-15.5-3.8-31.5-5.4-47.4-4.8c17.1-39,30.1-39.7,54-74
			c15-21.5,33.5-41.2,52.3-56.5L1601,279.5L1601,279.5z"/>
		<path class="st48" d="M1556,261.7L1556,261.7c-22.5,11.6-46.9,28.7-69.5,48c-36.5,31.2-68.5,53-99.1,91
			c12.9-0.5,25.8,0.4,38.5,2.7c36.7-65.1,88.1-105,148.5-143.8L1556,261.7z"/>
		<path class="st48" d="M1483.2,272L1483.2,272c-25.6,11.9-61.3,26.2-85.9,44.1c-44.4,32.3-69.5,47.2-107.8,87.6
			c11.5,2.6,23.2-8.5,34.8-9.4c52-68.3,113.1-86.2,186.8-126.6l0,0L1483.2,272z"/>
		<path class="st48" d="M1416.4,284.7L1416.4,284.7c-85.7,33.3-155.7,64.2-228,120c13.2-5.7,24.1,3.4,36.8-3.4
			c4.5-2.4,8.4-0.1,12.2-3.7c60.5-56.6,130-86.7,204.6-118.1l0,0L1416.4,284.7z"/>
		<path class="st48" d="M1338.5,304L1338.5,304c-26.3,11.1-51.9,16-78.1,27.9c-61.6,28.2-119.6,25.9-172.1,70.7
			c23.4-3.1,39,6.3,59.2-6.6c68.5-43.8,140.2-66.7,214.2-98.3l0,0L1338.5,304z"/>
		<path class="st48" d="M1293.4,312.9c-72.8,31.4-185.1,46-252.8,88.4c-3.2,2-6.5,1.1-10.2,2c-2.8,0.6-5.7-0.4-8.6-0.5
			c-8.8-0.3-17.5,0.4-26.3,0.1C1089.1,358.6,1210.1,342.6,1293.4,312.9z"/>
	</g>
	<g id="Tumbuhan1">
		<path class="st30" d="M1550.8,385c6.5-5.3,7.7-18,2.4-25.1c-4.1-5.6-12-6.9-17.6-2.8c-1.2,0.9-2.3,2-3.1,3.2
			c2.6-10.9-2.2-23.8-10.7-28.6s-19.6-1-24.6,8.6c-7.6-9.9-22.9-7.9-28.5,3.7c-7.1-10-16.3-18.7-26.9-20.8
			c-11.7-2.2-23.2,4.6-27,15.8c-9-5.2-20.5-3-27.6,5.4c-3.3-15.6-25-28.2-39.8-25.2c-13.5,2.7-20,13.1-20,23.3
			c-6.2-4.7-14.8-4.1-20.3,1.3c-5.7,5.4-8.1,15.4-5.8,23.8c-10.1-1-19.6,11-18.3,23.4c52-13.3,105.9-11.7,159.1-10
			C1477.1,382,1512,383.1,1550.8,385z"/>
		<path class="st31" d="M1367.6,331.4c-0.3-0.1-0.5,0.1-0.6,0.4l-6.3,24.7c-2.4-8.9-5.3-17.6-8.6-26.2l0,0c-0.1-0.3-0.4-0.4-0.6-0.3
			c-0.3,0.1-0.4,0.4-0.3,0.7c5.3,13.7,9.5,27.9,12.5,42.3c-8.7-8.3-17.9-16.4-27.4-23.9c-0.2-0.2-0.5-0.1-0.7,0.1s-0.1,0.5,0.1,0.7
			c9.8,7.8,19.4,16.2,28.4,24.9c0.2,1,0.4,2,0.6,3c0,0.2,0.3,0.4,0.5,0.4h0.1l0,0c0.3-0.1,0.4-0.3,0.4-0.6c-0.1-0.7-0.3-1.5-0.5-2.2
			c0.1,0,0.1-0.1,0.2-0.1c0.2-0.2,0.2-0.5,0-0.7c-0.1-0.1-0.3-0.3-0.4-0.4c-1.1-5.4-2.4-10.8-3.8-16.1c0.1-0.1,0.2-0.2,0.3-0.3
			l6.6-25.8l0,0C1368.1,331.7,1367.9,331.4,1367.6,331.4z"/>
		<path class="st31" d="M1412.3,352.8c-0.3-0.1-0.5,0-0.7,0.2c-2.3,5-4.9,9.7-7.9,14.2c-0.2-4.2-0.8-8.3-1.8-12.4
			c-0.1-0.3-0.3-0.4-0.6-0.4s-0.4,0.3-0.4,0.6c1.1,4.4,1.7,8.9,1.8,13.5c0,0,0,0,0,0.1c-2.7,3.9-5.7,7.6-9,11.1
			c1.3-11.2,1.8-22.5,1.5-33.8l0,0c0-0.3-0.2-0.5-0.5-0.5s-0.5,0.2-0.5,0.5c0.3,11.7-0.2,23.4-1.6,35l0,0l-0.1,0.1l0,0
			c-0.2,0.2-0.2,0.5,0,0.7c0.1,0.1,0.2,0.1,0.3,0.1c0.1,0,0.3-0.1,0.4-0.1c8-8.3,14.6-17.9,19.4-28.3
			C1412.6,353.2,1412.5,352.9,1412.3,352.8z"/>
		<path class="st31" d="M1458.5,349c-0.3-0.1-0.5,0.1-0.6,0.3c-3.3,9.1-7.1,18-11.5,26.7l-1.2-6.1c0,0,0.1,0,0.1-0.1
			c0.1-0.2,0-0.5-0.2-0.7c0,0,0,0-0.1,0l-5.7-29.9c-0.1-0.3-0.3-0.4-0.6-0.4c-0.3,0.1-0.4,0.3-0.4,0.6l5.5,29.1
			c-4.2-2.3-8.2-5.2-11.8-8.4l0,0c-0.2-0.2-0.5-0.2-0.7,0l0,0c-0.2,0.2-0.2,0.5,0,0.7c3.9,3.5,8.1,6.6,12.7,9l2.1,10.8
			c0,0.2,0.3,0.4,0.5,0.4h0.1l0,0c0.3-0.1,0.4-0.3,0.4-0.6l-0.5-2.8l0,0c4.6-9,8.6-18.3,12.1-27.9l0,0
			C1458.9,349.4,1458.8,349.1,1458.5,349z"/>
		<path class="st31" d="M1505.7,377.9c-0.3,0.1-0.5-0.1-0.6-0.3c0-0.1,0-0.3,0.1-0.4c5.9-8.7,11.6-17.7,16.9-26.9
			c0.1-0.2,0.4-0.3,0.7-0.2c0.2,0.1,0.3,0.4,0.2,0.7c-5.3,9.2-11,18.3-16.9,27C1505.9,377.8,1505.8,377.9,1505.7,377.9z"/>
		<path class="st31" d="M1509.8,340.4L1509.8,340.4c-0.3-0.1-0.5,0.1-0.6,0.3c-2.8,10.7-6.4,21.2-10.7,31.4
			c-3.8-7-7.3-14.3-10.2-21.7c-0.1-0.3-0.4-0.4-0.7-0.3l0,0c-0.3,0.1-0.4,0.4-0.3,0.6c3.1,7.7,6.6,15.3,10.6,22.6
			c-0.7,1.5-1.3,3.1-2,4.6l0,0c-0.1,0.2,0,0.5,0.2,0.6c0.1,0,0.1,0,0.2,0c0.2,0,0.4-0.1,0.5-0.2c0.7-1.6,1.4-3.1,2.1-4.7
			c0.1-0.1,0.1-0.2,0.1-0.3c4.5-10.5,8.2-21.4,11.1-32.4C1510.3,340.8,1510.1,340.5,1509.8,340.4z"/>
		<path class="st31" d="M1532.8,376.7c-0.1,0-0.2,0-0.3-0.1c-0.2-0.2-0.3-0.5-0.1-0.7c3.7-4.8,6.8-10.1,9.4-15.6
			c0.1-0.3,0.4-0.4,0.7-0.2c0.3,0.1,0.4,0.4,0.2,0.7c-2.6,5.6-5.8,10.8-9.5,15.7C1533.1,376.6,1533,376.7,1532.8,376.7z"/>
		<path class="st31" d="M1336.5,377c-0.4-0.1-0.7-0.4-1-0.7l-3.9-3.9c0.6-4.3,1.2-8.6,1.8-13v-0.1c0-0.3-0.2-0.5-0.4-0.6l0,0
			c-0.3,0-0.5,0.2-0.5,0.4v0.1c-0.6,4.1-1.1,8.2-1.7,12.2l-14.3-14.5l0,0c-0.2-0.2-0.5-0.2-0.7,0l0,0c-0.2,0.2-0.2,0.5,0,0.7
			l19.1,19.3c0.4,0.5,0.9,0.8,1.5,1h0.1l0,0c0.3,0,0.5-0.2,0.6-0.4C1337,377.3,1336.8,377.1,1336.5,377z"/>
	</g>
	<path id="PadangRumput1" class="st49" d="M1601,406H0v-36.1c837.3,63.1,1601-10,1601-10V406z"/>
</g>
</svg>
