<?xml version="1.0" encoding="utf-8"?>
<!-- Generator: Adobe Illustrator 25.2.1, SVG Export Plug-In . SVG Version: 6.00 Build 0)  -->
<svg version="1.1" id="GabungMitra" xmlns="http://www.w3.org/2000/svg" xmlns:xlink="http://www.w3.org/1999/xlink" x="0px"
	 y="0px" viewBox="0 0 240 180" style="enable-background:new 0 0 240 180;" xml:space="preserve">
<style type="text/css">
	.st0{fill:#CBCBCB;}
	.st1{fill:#CECECE;}
	.st2{fill:#D2D2D2;}
	.st3{fill:#C0C0C0;}
	.st4{fill:#C2C2C2;}
	.st5{fill:#D5D5D5;}
	.st6{fill:#848484;}
	.st7{fill:#AAAAAA;}
	.st8{fill:#B7B7B7;}
	.st9{fill:#A1A1A1;}
	.st10{fill:#FFFFFF;}
	.st11{fill:#E0E0E0;}
	.st12{fill:none;}
	.st13{fill:#EEF8F5;}
	.st14{fill:#A4A4A4;}
	.st15{fill:#8E8E8E;}
	.st16{fill:#ADADAD;}
	.st17{fill:#404040;}
	.st18{fill:#FEFFFF;}
	.st19{fill:#636363;}
	.st20{fill:#8F8F8F;}
	.st21{fill:#808080;}
	.st22{fill:#737373;}
	.st23{fill:#D0D0D0;}
	.st24{fill:#BCBCBC;}
	.st25{fill:#F5F5F5;}
	.st26{fill:#EDEDED;}
	.st27{fill:#D3D3D3;}
	.st28{fill:#666666;}
	.st29{fill:#D9D9D9;}
	.st30{fill:#989898;}
	.st31{fill:#C3C3C3;}
	.st32{fill:#5C5C5C;}
	.st33{fill:#686868;}
	.st34{opacity:0.37;fill:#606060;enable-background:new    ;}
</style>
<g id="Elemen">
	<rect id="Langit" class="st0" width="240" height="180"/>
	<g id="Awan">
		<path id="Awan_x5F_Besar" class="st1" d="M0,122.4c0,0,115-82.8,240-72.4V14.5c0,0-114.9-9.9-240,33.2V122.4z"/>
		<path id="Awan_x5F_Kecil" class="st2" d="M0.6,68c0,0,110.5-45.9,191.6-39.9L0.6,89.2V68z"/>
	</g>
	<g id="Bukit">
		<path id="Bukit_x5F_Base" class="st3" d="M240,97.7c-14.1-10.6-23.6-18.7-44.8-22.3c-33.4-5.7-69,49.5-89.7,46.2
			c-32.6-5.2-41.2-20.9-63.1-20.9s-42,21.2-42,21.2v20H240V97.7z"/>
		<path id="Bukit_x5F_Shad" class="st4" d="M195.5,75.4c-6.8-0.2-13.4,1.7-19,5.5c-9,6.3-2.3,16.6,7.5,16.4s13.9-1.5,19.8,2.4
			s-5.7,7.7-11.6,8.8s-7.1,12.7,21.5,13c24.9,0.2,26.5,2.6,26.5,2.6V97.7C224.3,84.2,207.6,76.1,195.5,75.4z"/>
	</g>
	<g id="BukitOrange">
		<path id="BukitOrange_x5F_Base" class="st5" d="M0,127.6c117.8,7,205.1-0.6,239.5,50.4L0.2,179.9L0,127.6z"/>
		<path id="BukitOrange_x5F_Grid3_1_" class="st1" d="M0.5,129.8v-2.1c9.8,3.7,28.2,12.4,38.3,19c16.2,10.6,31.4,17.7,45.5,31.1
			c-5.4,0.2-10.7,0.9-15.9,2.2c-17.5-23.4-41.3-35.5-67.8-48.2L0.5,129.8L0.5,129.8z"/>
		<path id="BukitOrange_x5F_Grid2" class="st1" d="M0.1,140.3l0.1-1.4c6.9,2.6,17.1,8.8,24.2,13.4c11.4,7.4,22,12.4,31.8,21.7
			c-3.8,0.1-7.5,0.7-11.2,1.5c-12.2-16.3-26.5-24.7-45-33.6L0.1,140.3z"/>
		<path id="BukitOrange_x5F_Grid1" class="st1" d="M0.1,152.3v-1.6c6.9,2.6,13.4,6.6,20.5,11.2c11.4,7.4,15.9,8,25.7,17.4
			c-3.8,0.1-10.1-0.9-13.7,0c-15-15-13.9-16.2-32.5-25.1C0.1,154.2,0.1,152.3,0.1,152.3z"/>
	</g>
	<path id="Tumbuhan" class="st6" d="M236,140.1c0-2.2-1.2-4.2-3.2-5.3c-1.9-0.9-4.2-0.6-5.8,0.9c-0.4-3-2.4-5.5-5.3-6.5
		c-2.8-0.8-5.9,0.2-7.8,2.4c-1-1.3-2.7-1.8-4.3-1.3c-1.6,0.6-2.7,2-3,3.6c-2.4-2.3-6-2.7-8.9-1c-1,0.7-1.9,1.5-2.6,2.5
		c-1.6-0.4-3.2,0.6-3.6,2.1c-1.6-1.8-4.4-2-6.3-0.5c-0.4-2.6-2.6-4.7-4.9-4.6c-2.3,0.1-4.3,2.2-4.5,4.8c-0.7-0.9-1.8-1.2-2.8-0.9
		c-1,0.5-1.7,1.5-1.7,2.7c-0.3-0.4-0.7-0.8-1.1-1.1c-2.6-2-6.2-1.5-8.2,1.1c-0.2-0.3-0.5-0.6-0.8-0.8c-1.3-0.8-2.9-0.3-3.7,0.9
		c-1.2-0.9-2.8-0.9-4-0.1c-1.3,0.9-1.9,2.4-1.8,4c0.4,4.2,3.6,2.7,3.3,4.3c15.9-2.5,28-2.7,44.1-2.3c0.1-1.2,0-2.5-0.2-3.7
		C211.9,140.7,224.5,140.7,236,140.1z"/>
	<g id="BukitHijau">
		<path id="BukitHijau_x5F_Base" class="st7" d="M0.2,180c0,0,63.9-38.5,239.6-38.5V180H0.2z"/>
		<path id="BukitHijau_x5F_Shad" class="st8" d="M77.6,154.2c0,0-32.4,5.8-30.2,11.7s39.7-6.1,39.7,1.8s2.4,9.2,19,5.2
			s134-7.6,134-7.6v-25.8C240,139.5,134.5,140.1,77.6,154.2z"/>
	</g>
	<g id="Turbine_1_">
		<polygon id="Turbine_x5F_Shad" class="st9" points="215.8,149.4 214.4,148.9 189.6,150 189,150.8 198.1,150.2 201.4,150 
			200.7,150.1 208.2,154.1 213.9,154.1 203.7,149.9 		"/>
		<g id="Tiang">
			<path class="st10" d="M208.2,154.1c1,0.3,2,0.5,3,0.5c2.2,0,2.6-0.5,2.6-0.5l-2.1-57.5h-1.5L208.2,154.1z"/>
			<path class="st11" d="M210.7,95h0.6c0.8,0,1.4,0.6,1.4,1.4l0,0c0,0.7-0.6,1.4-1.4,1.4h-0.6c-0.8,0-1.4-0.6-1.4-1.4l0,0
				C209.3,95.6,209.9,95,210.7,95z"/>
			<polygon class="st11" points="211,97.7 208.8,154.3 208.1,154.1 210.2,97.7 			"/>
		</g>
		<g id="Turbine">
			<ellipse class="st12" cx="211" cy="94.5" rx="32.8" ry="32.9"/>
			<path class="st10" d="M212.4,93.2l-1-0.5l0.6-1.4l-0.8-1.8l12.9-24.1c0.1-0.2,0.2-0.3,0.4-0.4l0.3-0.1c0.1,0,0.2,0,0.3,0l0.2,0.1
				L212.4,93.2z"/>
			<path class="st10" d="M211.9,96.4l0.9-0.7l1,1.2h2l16.6,21.6c0.1,0.2,0.2,0.3,0.2,0.5v0.4c0,0.1-0.1,0.2-0.1,0.3l-0.2,0.2
				L211.9,96.4z"/>
			<ellipse class="st13" cx="211" cy="94.5" rx="2.1" ry="2.1"/>
		</g>
	</g>
	<g id="Beton">
		<g id="Beton3">
			<path id="Beton3_x5F_Base" class="st14" d="M183.8,146.4c0,0.6-0.2,1.1-0.6,1.5c-0.4,0.5-1.1,0.8-1.8,0.8h-12.9v-4.6h12.9
				C182.8,144.1,183.8,145.1,183.8,146.4z"/>
			<path id="Beton3_x5F_Shad" class="st15" d="M183.2,147.9c-0.4,0.5-1.1,0.8-1.8,0.8h-12.9v-0.8H183.2z"/>
			<path id="Beton3_x5F_LingLuar" class="st16" d="M168.6,148.7c-1.3,0-2.3-1-2.3-2.3s1-2.3,2.3-2.3s2.3,1,2.3,2.3l0,0
				C170.9,147.7,169.8,148.7,168.6,148.7z"/>
			<circle id="Beton3_x5F_LingDalam" class="st17" cx="168.6" cy="146.4" r="1.8"/>
			<path id="Beton3_x5F_Putih" class="st18" d="M173.8,145.2h-2.4c-0.2,0-0.4-0.2-0.4-0.4l0,0c0-0.2,0.2-0.4,0.4-0.4l0,0h2.4
				c0.2,0,0.4,0.2,0.4,0.4l0,0C174.1,145,174,145.2,173.8,145.2L173.8,145.2z"/>
		</g>
		<g id="Beton2">
			<path id="Beton2_x5F_Base" class="st14" d="M186.4,141.8c0,1.3-1,2.3-2.3,2.3h-12.9v-4.6h12.9
				C185.3,139.5,186.4,140.5,186.4,141.8z"/>
			<path id="Beton2_x5F_Shad" class="st15" d="M185.8,143.3c-0.4,0.5-1.1,0.8-1.8,0.8h-12.9v-0.8H185.8z"/>
			<path id="Beton2_x5F_LingLuar" class="st16" d="M171.1,144.1c-1.3,0-2.3-1-2.3-2.3s1-2.3,2.3-2.3s2.3,1,2.3,2.3l0,0
				C173.4,143,172.4,144.1,171.1,144.1L171.1,144.1z"/>
			<path id="Beton2_x5F_LingDalam" class="st17" d="M173,141.8c0,1-0.8,1.8-1.8,1.8s-1.8-0.8-1.8-1.8s0.8-1.8,1.8-1.8l0,0
				C172.2,140,173,140.8,173,141.8z"/>
			<path id="Beton2_x5F_Putih" class="st18" d="M176.3,140.6h-2.4c-0.2,0-0.4-0.2-0.4-0.4s0.2-0.4,0.4-0.4l0,0h2.4
				c0.2,0,0.4,0.2,0.4,0.4S176.5,140.5,176.3,140.6L176.3,140.6z"/>
		</g>
		<g id="Beton1">
			<path id="Beton1_x5F_Base" class="st14" d="M188.4,146.4c0,0.6-0.2,1.1-0.6,1.5c-0.4,0.5-1.1,0.8-1.8,0.8h-12.9v-4.6H186
				C187.4,144.1,188.4,145.1,188.4,146.4z"/>
			<path id="Beton1_x5F_Shad" class="st15" d="M187.9,147.9c-0.4,0.5-1.1,0.8-1.8,0.8h-12.9v-0.8H187.9z"/>
			<path id="Beton1_x5F_LingLuar" class="st16" d="M173.2,148.7c-1.3,0-2.3-1-2.3-2.3s1-2.3,2.3-2.3s2.3,1,2.3,2.3l0,0
				C175.5,147.7,174.5,148.7,173.2,148.7z"/>
			<circle id="Beton1_x5F_LingDalam" class="st17" cx="173.2" cy="146.4" r="1.8"/>
			<path id="Beton1_x5F_Putih" class="st18" d="M178.4,145.2H176c-0.2,0-0.4-0.2-0.4-0.4s0.2-0.4,0.4-0.4h2.4c0.2,0,0.4,0.2,0.4,0.4
				C178.8,145,178.6,145.2,178.4,145.2z"/>
		</g>
	</g>
	<g id="Buldozer">
		<g id="KabelDerek_1_">
			<path id="KabelDerek_x5F_Base" class="st19" d="M123.7,128.4h-5.2l0,0v-0.2c0-1.3,1-2.3,2.3-2.3l0,0h0.7c1.3,0,2.3,1,2.3,2.3
				L123.7,128.4L123.7,128.4L123.7,128.4z"/>
			<path id="KabelDerek" class="st19" d="M184.8,86.5v-1.6c0-1,0-2.6,0-4.5c0-3.9,0-9.5,0-16.4l0,0l0,0l-7.1-0.8l0,0l0,0L159,84.1
				l-27.1,30.5l-8.2,9.2l-2.2,2.5l-0.6,0.7l-0.2,0.2l0.2-0.2c0.1-0.1,0.3-0.4,0.6-0.6l2.2-2.5c2-2.2,4.8-5.3,8.2-9.2L159,84.3
				l18.6-20.9h-0.1l7.2,0.7l0,0c0,6.9,0,12.5,0,16.4c0,2,0,3.5,0,4.5v1.2C184.8,86.4,184.8,86.5,184.8,86.5z"/>
		</g>
		<g id="UjungDerek">
			<g id="DerekAtas">
				<path id="Derek_x5F_PengaitAtas" class="st19" d="M186.8,82.1h-1.3v-1.6c0-0.2-0.2-0.4-0.4-0.4h-0.4c-0.2,0-0.4,0.2-0.4,0.4v1.6
					H183c-0.2,0-0.4,0.2-0.4,0.4c0,0.2,0.2,0.4,0.4,0.4h3.8c0.2,0,0.4-0.2,0.4-0.4C187.2,82.3,187,82.1,186.8,82.1z"/>
				<path id="Derek_x5F_PengaitBawah" class="st19" d="M185.7,91.9c0.1-0.2,0.3-0.4,0.3-0.6c0-0.1-0.1-0.4-0.2-0.4
					c-0.1,0-0.1,0.1-0.1,0.2c-0.1,0.3-0.4,0.5-0.6,0.5l-0.3-0.1c-0.3-0.2-0.4-0.5-0.3-0.8c0.1-0.2,0.3-0.4,0.6-0.5
					c0.1,0,0.1,0,0.1-0.1V90c0-0.2,0-0.4,0-0.6l-0.5-0.2v0.5c0.1,0.1-1.1,0.6-0.9,1.7c0,0.1,0.1,0.2,0.1,0.3l-14.1,15l0.2,0.2l14-15
					c0.1,0.1,0.2,0.2,0.4,0.3c0.1,0.1,0.3,0.1,0.5,0.1C185.2,92.3,185.5,92.2,185.7,91.9c1.9,1.8,15.2,14,16,14.9l0.2-0.2
					C200.8,105.7,187.5,93.5,185.7,91.9z"/>
				<g id="Derek_x5F_Pengait">
					<path id="Pengait_x5F_Base" class="st11" d="M184.1,89.4l-2.4-5.8c-0.2-0.4,0-0.9,0.4-1c0.1,0,0.2-0.1,0.3-0.1h4.8
						c0.4,0,0.8,0.4,0.8,0.8c0,0.1,0,0.2-0.1,0.3l-2.4,5.8c-0.2,0.4-0.6,0.6-1,0.4C184.3,89.8,184.2,89.6,184.1,89.4z"/>
					<path id="Pengait_x5F_Warna_x5F_1" class="st20" d="M183.6,87.2l1.8,1.8l-0.1,0.1c0,0.1-0.2,0.2-0.3,0.3l-0.9-0.9L183.6,87.2z"
						/>
					<polygon id="Pengait_x5F_Warna_x5F_2" class="st20" points="183,85.9 182.5,84.6 185.8,87.9 185.6,88.5 					"/>
					<path id="Pengait_x5F_Warna_x5F_3" class="st20" d="M182,83.4c0-0.1,0-0.2,0.1-0.2c0.1-0.1,0.2-0.2,0.3-0.2l3.9,3.9l-0.2,0.6
						L182,83.4z"/>
					<polygon id="Pengait_x5F_Warna_x5F_4" class="st20" points="183.1,82.9 183.9,82.9 186.7,85.8 186.5,86.3 					"/>
					<polygon id="Pengait_x5F_Warna_x5F_5" class="st20" points="184.7,82.9 185.4,82.9 187.2,84.7 186.9,85.2 					"/>
					<path id="Pengait_x5F_Warna_x5F_6" class="st20" d="M187,82.9l0.6,0.6c0,0,0,0,0,0.1l-0.2,0.5l-1.2-1.2H187z"/>
				</g>
			</g>
			<path id="UjungDerek_x5F_BilahTurbine" class="st10" d="M169.6,107.4v-1.2h1.6l1.4-1.6l29.2,1.8c0.2,0,0.4,0.1,0.6,0.2l0.3,0.3
				c0.1,0.1,0.1,0.2,0.1,0.3v0.3L169.6,107.4z"/>
		</g>
		<g id="TiangDerek">
			<path id="TiangDerek_x5F_Derek" class="st19" d="M186,64.3c-0.1-0.8-0.9-1.4-1.7-1.3c-0.4,0.1-0.8,0.3-1.1,0.7l-4,1l-2.3-1.1
				l-0.1,0.3l-4.5,8.4l-2.2-0.2c-0.1-0.3-0.4-0.6-0.7-0.7l0,0c-0.8-0.3-1.6,0-2,0.8c-0.3,0.8,0,1.7,0.8,2c0.1,0.1,0.3,0.1,0.5,0.1
				l1.3,2.4l-18.7,34.9l-6.7,22.3h0.2h0.2h0.2l1.6-5.3l3.7-1.4l1.4,3.6l-2.4,3.8h0.2h0.3h0.2l11.4-18.3L180,67.8l3.5-2
				c0.3,0.2,0.7,0.4,1.1,0.3C185.5,65.9,186.1,65.2,186,64.3z M176.8,65.1l0.2,3.3l-3.4,2.8L176.8,65.1z M176.7,74.2l-3.1,2.1
				l-0.5-3.7L176.7,74.2z M172.7,72.9l0.5,3.7l-3.9,2.6L172.7,72.9z M168.4,80.8l1,4.1l-4.4,2.4L168.4,80.8z M170.3,91l-4.2,1.8
				l-1.5-4.4L170.3,91z M164.3,88.6l1.5,4.3l-4.9,2.1L164.3,88.6z M167.1,99.3l-4.7,1.7l-2-4.7L167.1,99.3z M160.1,96.5l1.9,4.6
				l-5.4,1.9L160.1,96.5z M163.9,107.6l-5.2,1.4l-2.4-4.9L163.9,107.6z M155.9,104.3l2.4,4.8l-5.8,1.6L155.9,104.3z M160.2,116.7
				l-5.6,1.5l-2.7-5.2L160.2,116.7z M151.5,113l2.7,5.2l-4.6,1.2L151.5,113z M147,128.1l1.7-5.6l1.7,4.4L147,128.1z M152.1,130.3
				l-1.3-3.3l4.3-1.6L152.1,130.3z M155.6,124.9l-4.9,1.8l-1.9-4.8l0.1-0.2l6.8,3.1L155.6,124.9z M149.7,119.8l4.7-1.2l2.2,4.4
				L149.7,119.8z M156.9,122.7l-2.2-4.2l5.8-1.5L156.9,122.7z M152.8,111.1l5.7-1.6l2.7,5.5L152.8,111.1z M161.6,114.8l-2.7-5.4
				l5.3-1.5L161.6,114.8z M157,103.2l5.1-1.8l2.1,5.1L157,103.2z M164.7,106.5l-2.2-5.2l4.8-1.7L164.7,106.5z M161.2,95.3l4.7-2
				l1.7,4.9L161.2,95.3z M167.9,98l-1.6-4.9l4.2-1.8L167.9,98z M165.5,87.5l4-2.2l1.1,4.5L165.5,87.5z M171,89.8l-1.1-4.7l3.6-2
				L171,89.8z M169.8,84.7l-1-4.3l4.8,2.2L169.8,84.7z M169.5,79.5l3.7-2.5l0.6,4.5L169.5,79.5z M174.2,81.2l-0.6-4.5l3.1-2.1
				L174.2,81.2z M173.7,71.7l3.2-2.7l0.1,4.3L173.7,71.7z M177.2,64.5l2.8,1.3l-2.7,2.3L177.2,64.5z M177.3,68.6l2.5-2.1l-2.4,6.3
				L177.3,68.6z"/>
			<path id="TiangDerek_x5F_Kepala" class="st20" d="M174,68.8l2-4.4c0.6-1.4,2.2-2,3.6-1.3l0,0l0,0c1.4,0.6,2,2.3,1.4,3.6l0,0
				l-2.1,4.4c0,0.1-0.1,0.1-0.2,0.1L174,69C173.9,68.9,173.9,68.8,174,68.8z"/>
		</g>
		<g id="BadanBuldozer">
			<path id="BadanBuldoz_x5F_Badan" class="st20" d="M155.3,136.2c0-0.1,0-0.1-0.1-0.2l-0.5-1.4c0-0.1-0.1-0.2-0.2-0.2l-5.6-1.1
				l0.1-0.5c0.1-0.6,0.1-1.2-0.1-1.8l-2.2-6.9l-0.1-0.3c-0.1-0.4-0.5-0.6-0.8-0.6h-10.3c-0.5,0-0.9,0.4-0.9,0.9v3.6h-21.4
				c-0.6,0.1-1.2,0.5-1.4,1.1c-0.6,1.5-0.7,6.7-0.7,10.1h38.6l-0.3-1.1l-0.3-0.3h6C155.3,137.5,155.4,136.7,155.3,136.2z"/>
			<path id="BadanBuldoz_x5F_Base" class="st21" d="M129,141.5l16.4,0.2c0.1,0,0.3-0.3,0.3-0.4v-1.8c0-0.1-0.1-0.2-0.2-0.2l0,0H129
				c-0.1,0-0.2,0.1-0.2,0.2l0,0v1.8C128.8,141.4,128.9,141.5,129,141.5L129,141.5z"/>
			<path id="BadanBuldoz_x5F_KacaSamping" class="st22" d="M149,131.8c0-0.3-0.1-0.5-0.1-0.8l-2-6.3h-1.1c-0.3,0-0.5,0.1-0.7,0.3
				c-0.2,0.2-0.2,0.5-0.2,0.7l1.1,5.3c0.1,0.4,0.5,0.7,0.9,0.7h2.1V131.8z"/>
			<path id="BadanBuldoz_x5F_KacaDepan" class="st22" d="M138.4,125.5l0.6,5.2v0.2c0.2,1.1,1.2,1.8,2.2,1.8h2.6
				c0.4,0,0.8-0.4,0.8-0.8c0-0.1,0-0.1,0-0.2l-1.2-6.2c-0.1-0.4-0.4-0.7-0.9-0.7H139c-0.2,0-0.4,0.1-0.5,0.2
				S138.4,125.3,138.4,125.5z"/>
			<path id="BadanBuldoz_x5F_Separator" class="st19" d="M111,139.9h38.5c0.3,0,0.3-1.1,0-1.1H111
				C110.7,138.8,110.7,139.9,111,139.9z"/>
			<path id="BadanBuldo_x5F_Motif" class="st19" d="M148.9,132.5c-0.1,0.7-0.3,1.3-0.5,2c-0.2,0.8-0.4,1.5-0.5,2
				c-0.1,0.2-0.1,0.5-0.1,0.6v0.1h-2.3c0-0.4,0.1-1.3,0.1-2.3s0-1.9,0-2.3c0-0.2,0-0.3,0-0.4c-0.1-0.2-0.3-0.8-0.4-1.2
				c-0.2-0.8-0.5-2-0.8-3.2s-0.5-2.4-0.7-3.2l-0.2-1c0-0.1,0-0.2,0-0.4c0,0.1,0,0.2,0,0.4c0,0.2,0.1,0.6,0.2,1
				c0.1,0.8,0.4,2,0.6,3.2c0.3,1.2,0.6,2.4,0.8,3.2c0.1,0.4,0.2,0.7,0.3,1c0,0.1,0.1,0.4,0.1,0.6c0,0.4,0,1.3,0,2.3s0,1.9,0,2.3H145
				l-8,0.1c-0.4,0-0.8,0-1.1-0.1c-0.4-0.1-0.7-0.3-0.8-0.6s-0.2-0.7-0.2-1s0-0.7,0-1c-0.1-1.3-0.1-2.5-0.2-3.5l-0.1-2.4V128v-0.2
				l0,0c0,0,0,0,0,0.1v0.2c0,0.2,0,0.4,0,0.7c0,0.6,0,1.4,0.1,2.4s0.1,2.2,0.1,3.5c0,0.3,0,0.7,0,1s0.1,0.7,0.2,1
				c0.2,0.3,0.5,0.6,0.9,0.7c0.4,0.1,0.8,0.1,1.2,0.1l8-0.1h0.5c0,0.1,0,0.2,0,0.2s0-0.1,0-0.2h2.3l0,0c0,0,0,0,0,0.1v-0.1l0,0l0,0
				c0.1-0.2,0.2-0.5,0.2-0.7c0.1-0.5,0.3-1.2,0.5-2C148.8,133.9,148.9,133.2,148.9,132.5c0.1-0.2,0.1-0.4,0.1-0.6c0-0.1,0-0.1,0-0.2
				C149,131.7,149,132,148.9,132.5z"/>
			<path id="BadanBuldoz_x5F_GagangPintu" class="st19" d="M140.7,133.7c0.2,0,0.3,0,0.5-0.1c-1-0.2-1.9-0.2-2.9,0
				c0.1,0,0.3,0,0.4,0c-0.1,0-0.2,0.1-0.2,0.2c0,0.1,0,0.1,0,0.2c0,0.1,0,0.1,0,0.2c0,0,0,0,0.1,0.1c0-0.1,0-0.2,0-0.3
				c0.1-0.1,0.2-0.2,0.3-0.2L140.7,133.7c0.1,0.1,0.2,0.2,0.3,0.4c0,0.2-0.1,0.3-0.2,0.4l0,0c0.2-0.1,0.4-0.4,0.3-0.6
				C140.9,133.8,140.8,133.8,140.7,133.7z"/>
			<path id="BadanBuldoz_x5F_Cerobong" class="st19" d="M132.8,127.8h0.9v-5.1c0-0.2,0-0.5-0.1-0.7l-0.4-1.3c0,0,0,0-0.1,0l-0.5,0.9
				l0.1,0.4c0.1,0.2,0.1,0.4,0.1,0.7V127.8z"/>
		</g>
		<g id="BanBuldozer">
			<path id="BanBuldoz_x5F_Base" class="st19" d="M153.5,150c2.2-0.2,3.9-2,3.9-4.2s-1.8-3.9-4-3.9l-34-1.5
				c-2.5-0.2-4.6,1.7-4.8,4.1c0,0.5,0,0.9,0.1,1.4c0.9,4.1,4.3,4.1,5.7,4S153.5,150,153.5,150z"/>
			<ellipse id="BanBuldoz_x5F_Kanan" class="st21" cx="153.5" cy="145.8" rx="3.2" ry="3.2"/>
			<ellipse id="BanBuldoz_x5F_Kiri" class="st21" cx="119.6" cy="145.2" rx="4.1" ry="4.1"/>
		</g>
	</g>
	<polygon id="RumputBuldozer" class="st8" points="169.1,147.6 168.5,149.3 167.9,146.2 167.6,149.3 167.4,147.4 166.2,149.3 
		166.8,145.6 165.1,149.4 165.2,148 164.2,149.4 164.1,147.2 163.4,149.4 163,147.6 162.3,149.5 161.9,146 161.1,149.4 160.8,147.5 
		159.9,149.3 160.3,145 158.6,149.2 158.4,146.8 157.7,148.9 157,144.4 156.5,148.7 155.8,146.7 155.5,149.8 155.1,147.8 
		154.5,149.5 153.9,146.4 153.6,149.5 153.3,147.5 152.2,149.4 152.8,145.8 151.1,149.6 151.1,148.1 150.2,149.6 150,147.4 
		149.3,149.5 149,147.7 148.3,149.7 147.9,146.2 147.1,149.6 146.8,147.7 145.9,149.4 146.3,145.1 144.6,149.4 144.4,146.9 
		143.6,149.1 143,144.6 142.5,148.8 141.8,146.9 141.5,150 141,148 140.5,149.6 139.9,146.5 139.5,149.6 139.3,147.7 138.2,149.6 
		138.7,146 137.1,149.8 137.1,148.3 136.2,149.8 136,147.6 135.3,149.7 134.9,147.9 134.2,149.9 133.8,146.3 133.1,149.7 
		132.7,147.9 131.9,149.6 132.3,145.3 130.6,149.5 130.4,147.1 129.6,149.2 129,144.8 128.5,149 127.8,147 127.5,149.8 127.1,148.1 
		126.6,149.8 126,146.7 125.6,149.8 125.4,147.9 124.3,149.8 124.8,146.1 123.2,149.9 123.2,148.4 122.3,149.9 122.1,147.7 
		121.4,149.9 121,148.1 120.3,150 119.9,146.5 119.1,149.9 118.8,148 118,149.8 118.4,145.5 116.7,149.7 116.5,147.2 115.7,149.4 
		115.1,144.9 114.6,149.1 113.9,147.2 113.6,149.9 113.2,148.3 112.7,149.9 112.1,146.8 111.7,150 111.5,148 110.4,149.9 
		110.9,146.3 109.2,150.1 109.3,148.6 108.4,150.1 108.2,147.9 107.5,150 107.1,148.2 106.4,150.2 106,146.6 105.2,150 104.9,148.2 
		104.1,149.9 104.5,145.6 102.8,149.9 102.6,147.4 101.8,149.6 101.2,145.1 100.7,149.3 100,147.4 99.7,150.1 99.3,148.4 
		98.8,150.1 98.3,147.7 98.3,150.9 99.6,150.9 99.9,150.9 113.5,150.7 113.8,150.7 127.4,150.6 127.7,150.6 141.5,150.4 
		141.6,150.4 155.5,150.3 155.6,150.3 169.7,150.1 	"/>
	<g id="Mandor">
		<g id="Telapak">
			<path id="Telapak_x5F_Base" class="st23" d="M125.4,135.1c1.6-3.1,2.9-6.3,4-9.5c0.8-2.5,1.5-5.1,2.1-7.7
				c0.2-1.1,0.1-2.2-0.2-3.2c-0.9-2.7-1.9-5.3-2.8-8l-4.4,1.2c0.3,1.6,0.6,3.3,0.9,4.9l-15.6,17.9L125.4,135.1z"/>
			<polygon id="Telapak_x5F_Shadow" class="st24" points="125.4,112 125.6,114.5 122.6,120 121.7,118.4 			"/>
		</g>
		<g id="Kertas">
			<path id="Kertas_x5F_Kanan" class="st25" d="M120.4,120.5l16.1-27.7l-42.6-5.6l-36.3-10l-26.1,53.6l37.2,16.8L100,144
				C106.9,136.3,113.7,128.4,120.4,120.5z"/>
			<polygon id="Kertas_x5F_Base" class="st26" points="93.9,87.3 68.8,147.7 31.5,130.9 57.6,77.3 			"/>
			<g id="Sketsa">
				<path class="st27" d="M100.5,91.2l2.2,0.6h0.1c0.1,0,0.2-0.1,0.3-0.2c0-0.2,0-0.3-0.2-0.4l-2.2-0.6c-0.2,0-0.3,0-0.3,0.2
					C100.2,91,100.3,91.1,100.5,91.2z"/>
				<path class="st27" d="M104.9,92.3l4.5,1.2h0.1c0.1,0,0.2-0.1,0.3-0.2c0-0.2,0-0.3-0.2-0.3l-4.5-1.2c-0.1,0-0.3,0.1-0.3,0.2
					C104.7,92.1,104.7,92.3,104.9,92.3z"/>
				<path class="st27" d="M116.2,94.7l-4.5-1.2l0,0c-0.1,0-0.3,0.1-0.3,0.2c0,0.2,0.1,0.3,0.2,0.4l4.5,1.2h0.1
					c0.1,0,0.2-0.1,0.2-0.2l0,0C116.4,94.9,116.3,94.7,116.2,94.7z"/>
				<path class="st27" d="M120.6,95.9l-2.2-0.6l0,0c-0.1,0-0.3,0.1-0.3,0.2s0.1,0.3,0.2,0.3l1.8,0.5l-0.8,1.7
					c-0.1,0.1,0,0.3,0.1,0.4h0.1c0.1,0,0.2-0.1,0.3-0.1l1-2c0-0.1,0-0.2,0-0.2C120.7,96,120.7,95.9,120.6,95.9z"/>
				<path class="st27" d="M115.6,105.5l-1.9,3.8l0,0c-0.1,0.1,0,0.3,0.1,0.4h0.1l0,0c0.1,0,0.2-0.1,0.2-0.1l1.9-3.8l0,0
					c0.1-0.1,0-0.3-0.1-0.4C115.8,105.4,115.6,105.4,115.6,105.5z"/>
				<path class="st27" d="M110,116.8l-1.9,3.8l0,0c-0.1,0.1,0,0.3,0.1,0.4h0.1c0.1,0,0.2,0,0.3-0.1l1.8-3.8c0.1-0.1,0-0.3-0.1-0.4
					C110.3,116.6,110.1,116.6,110,116.8z"/>
				<path class="st27" d="M118.3,99.9l-1.8,3.8l0,0c-0.1,0.1,0,0.3,0.1,0.4h0.1c0.1,0,0.2-0.1,0.3-0.1l1.8-3.7
					c0.1-0.1,0-0.3-0.1-0.4C118.6,99.7,118.4,99.8,118.3,99.9z"/>
				<path class="st27" d="M112.8,111.2L111,115l0,0c-0.1,0.1,0,0.3,0.1,0.4h0.1c0.1,0,0.2,0,0.2-0.1l1.8-3.8c0.1-0.1,0-0.3-0.1-0.4
					S112.9,111,112.8,111.2z"/>
				<path class="st27" d="M107.2,122.4l-1,2c-0.1,0.1,0,0.3,0.1,0.4h0.1c0.1,0,0.2,0,0.2-0.1l1-2l0,0c0.1-0.1,0-0.3-0.1-0.4
					C107.5,122.2,107.3,122.3,107.2,122.4z"/>
				<path class="st27" d="M95,105L95,105L95,105C94.9,105,94.9,105.1,95,105l0.7,0.3l0,0h0.1c0,0,0-0.1-0.1-0.1L95,105z"/>
				<path class="st27" d="M98.3,105.8C98.3,105.8,98.2,105.9,98.3,105.8c-0.1,0.1-0.1,0.2,0,0.2l1.4,0.4c0,0,0.1,0,0.1-0.1
					c0,0,0-0.1-0.1-0.1L98.3,105.8C98.4,105.8,98.4,105.8,98.3,105.8z"/>
				<path class="st27" d="M97.7,105.8C97.7,105.8,97.8,105.9,97.7,105.8C97.8,105.8,97.9,105.7,97.7,105.8L97.7,105.8
					c0.1-0.1,0.1-0.2,0-0.2l-1.4-0.4l0,0c0,0-0.1,0-0.1,0.1l0,0c0,0,0,0.1,0.1,0.1L97.7,105.8L97.7,105.8z"/>
				<path class="st27" d="M100.7,107.3L100.7,107.3C100.7,107.4,100.8,107.4,100.7,107.3c0.1,0.1,0.2,0.1,0.2,0l0.3-0.6
					c0,0,0,0,0-0.1c-0.1,0-0.1,0-0.1,0l-0.7-0.2l0,0c0,0-0.1,0-0.1,0.1l0,0c0,0,0,0.1,0.1,0.1l0.6,0.1L100.7,107.3
					C100.8,107.3,100.8,107.3,100.7,107.3z"/>
				<path class="st27" d="M98.2,112.4L98.2,112.4l0.1,0.2l0.1-0.1l0.6-1.2v-0.1h-0.1L98.2,112.4z"/>
				<path class="st27" d="M99.1,110.7L99.1,110.7L99.1,110.7l0.7-1.1l0,0v-0.1h-0.1L99.1,110.7z"/>
				<path class="st27" d="M100.6,107.9L100.6,107.9L100.6,107.9l-0.7,1v0.1c0,0,0.1,0,0.1-0.1L100.6,107.9z"/>
				<path class="st27" d="M97.5,114.2l0.6-1.1V113H98L97.5,114.2L97.5,114.2C97.4,114.3,97.4,114.3,97.5,114.2
					C97.5,114.3,97.5,114.3,97.5,114.2z"/>
				<path class="st27" d="M96.8,115.5L96.8,115.5l0.4-0.6v-0.1h-0.1L96.8,115.5C96.7,115.4,96.7,115.4,96.8,115.5z"/>
				<path class="st27" d="M79.2,119l-0.2,0.2c0.4,0.6,0.8,1.2,1.3,1.7l0.2-0.2C80.1,120.2,79.6,119.6,79.2,119z"/>
				<path class="st27" d="M77.6,115l-0.3,0.1c0.1,0.7,0.4,1.4,0.6,2.1l0.3-0.1C78,116.4,77.8,115.8,77.6,115z"/>
				<path class="st27" d="M102.8,117.2L102.8,117.2c0.5-0.7,0.9-1.4,1.2-2.1l-0.3-0.1c-0.3,0.7-0.8,1.4-1.2,2.1L102.8,117.2z"/>
				<path class="st27" d="M102.3,100.2c-0.5-0.5-1-1-1.6-1.4l-0.2,0.2c0.6,0.4,1.1,0.9,1.6,1.3L102.3,100.2z"/>
				<path class="st27" d="M105.3,105.9L105,106c0.1,0.7,0.2,1.5,0.2,2.2h0.3C105.5,107.4,105.4,106.7,105.3,105.9z"/>
				<path class="st27" d="M105.1,110.6c-0.1,0.8-0.3,1.5-0.5,2.3h0.3v-0.1c0.2-0.7,0.4-1.5,0.5-2.2v-0.1L105.1,110.6L105.1,110.6z"
					/>
				<path class="st27" d="M104.6,103.8c-0.3-0.7-0.6-1.3-1-1.9l-0.2,0.2c0.4,0.6,0.7,1.2,1,1.9L104.6,103.8z"/>
				<path class="st27" d="M81.6,102.1l-0.2-0.2c-0.6,0.6-1.1,1.3-1.5,1.9l0.2,0.1C80.5,103.3,81,102.7,81.6,102.1z"/>
				<path class="st27" d="M83.4,100.4c0.6-0.5,1.3-1,1.9-1.4l-0.1-0.2c-0.7,0.4-1.4,0.9-2,1.4L83.4,100.4L83.4,100.4z"/>
				<path class="st27" d="M89.7,97.2v-0.3c-0.8,0.2-1.6,0.4-2.3,0.8l0.1,0.3C88.2,97.6,89,97.4,89.7,97.2z"/>
				<path class="st27" d="M78.9,106.1l-0.2-0.1c-0.4,0.7-0.6,1.5-0.9,2.3H78C78.2,107.5,78.5,106.8,78.9,106.1z"/>
				<path class="st27" d="M94.3,96.8l0.1-0.3c-0.8-0.1-1.5-0.1-2.3,0v0.2C92.8,96.7,93.6,96.8,94.3,96.8z"/>
				<path class="st27" d="M101.2,119.2L101,119c-0.2,0.2-0.5,0.5-0.7,0.7l-8.2-9.1l0,0c0.2-0.6,0.1-1.2-0.4-1.6l0.4-0.8l1.3-0.4
					l3.9-10.5c0.5,0.2,0.9,0.3,1.3,0.5l0.2-0.3c-0.5-0.2-1-0.4-1.4-0.5l2.2-5.9c0-0.1,0-0.3,0-0.5l-0.1-0.2c0-0.1-0.1-0.2-0.2-0.2
					H99l-8.2,18.4c-0.6-0.1-1.2,0.3-1.5,0.9l0,0l-1,0.1l-1-0.9l-9.9,2c0-0.1,0-0.1,0-0.2h-0.3c0,0.1,0,0.2,0,0.2l-7.3,1.5
					c-0.2,0-0.3,0.1-0.4,0.2l-0.2,0.2c-0.1,0.1-0.1,0.2-0.1,0.3v0.3l7.8-1.1c0,0.2,0,0.5,0,0.7h0.3c0-0.2,0-0.5,0-0.7l11.7-1.6
					c-0.1,0.2-0.2,0.5-0.1,0.8c0,0.1,0.1,0.2,0.1,0.3l-6.3,10.9c-0.2-0.1-0.5-0.3-0.7-0.5l-0.2,0.2c0.2,0.2,0.5,0.3,0.7,0.5
					l-11.8,20.6v0.1v0.1c0,0,0.2,0.5,1.5,1.1c0.6,0.3,1.3,0.5,1.9,0.7h0.1l16-33.1l0,0c0.4,0,0.8-0.2,1-0.6c0-0.1,0.1-0.2,0.1-0.3
					l0,0L92,112l-0.1,1.3l7.4,7.3c0,0-0.1,0-0.1,0.1l0.2,0.2l0,0l0.1-0.1l5.1,5c0.1,0.1,0.3,0.2,0.4,0.2h0.2c0.1,0,0.2-0.1,0.2-0.2
					l0.2-0.2l-5.2-5.7C100.7,119.7,101,119.4,101.2,119.2z M99.1,90.5C99.2,90.5,99.2,90.6,99.1,90.5l0.1,0.3c0,0.1,0,0.2,0,0.3
					l-2.2,6c-0.1,0-0.3-0.1-0.4-0.1l-0.1,0.3c0.1,0,0.3,0.1,0.4,0.1l-3.8,10.3l-1.2,0.4l-0.3,0.8c-0.1,0-0.1-0.1-0.2-0.1
					s-0.1,0-0.2-0.1L99.1,90.5z M90.7,108.9L90.7,108.9C90.8,108.8,90.8,108.8,90.7,108.9l0.9,0.3l0,0c0.4,0.4,0.5,0.9,0.3,1.4
					c0,0.1-0.1,0.1-0.1,0.2l-0.4,0.3c0-0.3-0.2-0.6-0.6-0.8l-0.4-0.2c-0.2-0.1-0.5-0.2-0.8-0.1l0,0c-0.1,0-0.1,0.1-0.2,0.1V110
					C89.5,109.4,90.1,108.9,90.7,108.9z M90.1,112C90,112,90,112,90.1,112l-0.5-0.2v0.1c-0.1,0-0.1-0.1-0.2-0.1l0.2-0.4l0.7,0.3
					L90.1,112z M90.2,111.2c-0.3-0.1-0.5-0.4-0.7-0.7l0,0c0.1,0,0.1-0.1,0.2-0.1c0.2-0.1,0.4-0.1,0.6,0l0.4,0.2l0,0
					c0.3,0.1,0.4,0.4,0.4,0.7C90.8,111.4,90.5,111.4,90.2,111.2z M69.5,113C69.5,112.9,69.5,112.9,69.5,113l0.1-0.3
					c0.1-0.1,0.1-0.1,0.2-0.2l7.3-1.5c0,0.3-0.1,0.5-0.1,0.8L69.5,113z M77.5,111l9.8-2l1,0.8l0.9-0.1l0.1,0.5l-11.8,1.6
					C77.4,111.6,77.4,111.3,77.5,111z M89.3,110.8C89.3,110.7,89.4,110.7,89.3,110.8c0.1,0,0.1,0.1,0.2,0.2l-0.2,0.4
					C89.2,111.2,89.2,111,89.3,110.8z M74.2,145.1c-0.6-0.1-1.2-0.3-1.8-0.6c-0.5-0.2-0.9-0.5-1.3-1L83,123c0.3,0.2,0.6,0.3,0.9,0.5
					l0.1-0.3c-0.3-0.1-0.6-0.3-0.9-0.5l6.2-10.9c0.1,0,0.1,0.1,0.2,0.1l0.4,0.2c0,0,0.1,0,0.2,0L74.2,145.1z M90.6,112
					C90.5,112,90.5,112,90.6,112l0.1-0.4l0,0c0,0,0,0,0.1,0s0.2-0.1,0.3-0.1v0.1C90.9,111.8,90.8,111.9,90.6,112z M92.2,113.2
					l0.2-1.3l-0.6-0.7l0.3-0.3l8.1,9c-0.2,0.2-0.4,0.4-0.6,0.5L92.2,113.2z M105.3,125.7H105c-0.1,0-0.2,0-0.2-0.1l-5.1-5
					c0.2-0.2,0.4-0.3,0.6-0.5L105.3,125.7L105.3,125.7z"/>
				<path class="st27" d="M95.1,123.2l0.1,0.3l0,0c0.8-0.3,1.5-0.7,2.2-1.1l-0.1-0.2C96.6,122.5,95.8,122.9,95.1,123.2z"/>
				<path class="st27" d="M86,124.2c0.7,0.2,1.5,0.3,2.2,0.4l0.1-0.3c-0.7-0.1-1.5-0.2-2.2-0.4L86,124.2z"/>
				<path class="st27" d="M90.5,124.5c0.8-0.1,1.5-0.2,2.3-0.4v-0.3c-0.8,0.2-1.5,0.3-2.3,0.4V124.5z"/>
			</g>
		</g>
		<g id="Leher">
			<path id="Leher_x5F_Base" class="st23" d="M37,85.3c-2.4,5.7-4.8,11.4-7.2,17.1l24.2,2.4V91.3L37,85.3z"/>
			<path id="Leher_x5F_Shad" class="st24" d="M54.1,98.6c-1.2-0.8-2.5-1.7-3.8-2.7c-1.5-1.2-2.8-2.3-4-3.4c-0.4,5.3,1.4,10,4.8,11.7
				c0.9,0.5,2,0.7,3,0.7C54.1,102.8,54.1,100.7,54.1,98.6z"/>
		</g>
		<g id="Kepala">
			<g id="Wajah">
				<path id="Wajah_x5F_Base" class="st23" d="M72.6,85.9c-0.6-2.1-1.4-4.1-1.8-6.3l0,0.1c0-0.4,0-0.7,0-1.1
					c0.1-3,0.2-12.2-5.3-17.4c-3.9-3.7-9.6-4.5-14.8-3.1c-1.4,0.3-7.3,1.8-10.6,7.3c-5.8,9.5,2.2,22.1,2.9,23.2
					c4.6,6.9,14.4,14.6,21.2,10.8c3.9-2.2,5.4-7.2,6.1-12.2c0.5,0,1-0.1,1.5-0.1h0.1C72.4,87,72.7,86.4,72.6,85.9z"/>
				<path id="Wajah_x5F_Mata" class="st28" d="M69.7,79c0,1.2-0.2,2.1-0.6,2.1s-0.6-0.9-0.7-2.1s0.2-2.1,0.6-2.1S69.7,77.8,69.7,79z
					"/>
				<path id="Wajah_x5F_Mulut" class="st28" d="M67.9,92.4c-1.4-0.5-2.5-1.6-3.2-2.9c-0.1-0.2,0-0.6,0.2-0.7s0.6-0.1,0.7,0.2
					c0.1,0.3,0.3,0.6,0.5,0.8l0.1,0.1l0,0l0.1,0.2c0.1,0.1,0.2,0.2,0.3,0.4l0.2,0.2l0.1,0.1H67l0,0l0.1,0.1l0.2,0.1l0.4,0.2l0.2,0.1
					l0,0H68c0.3,0.1,0.4,0.4,0.4,0.6c-0.1,0.3-0.4,0.4-0.6,0.4L67.9,92.4z"/>
			</g>
			<path id="Rambut" class="st28" d="M61,73.4c0-0.4,0-0.6,0-0.6l-31.4-2.2C27.3,80.4,28,88.8,32,91.2c0.9,0.5,1.8,0.8,2.8,1
				c3.5,0.8,7.1,0.5,10.3-1c5.1-2.6,8.3-9.3,7.3-16.7c0.1,2.7,1.6,5.1,4,6.4c1.3,0.7,2.2,0,2.9-1.1c0.7,0.2,1.4-0.1,1.7-0.7
				c0.8-1.8,1.6-3.6,2.4-5.3L61,73.4z"/>
			<g id="HelmAtas">
				<path id="Helm_x5F_Base" class="st29" d="M28.6,72.2l32.2,2.3l11.1,0.8c0.2-1.3,2-12.2-5.6-20.2c-3.1-3.2-7.1-5.4-11.4-6.3
					c-3.3-0.6-6.7-0.5-10,0.3c-3.1,0.8-6,2.2-8.5,4.3C27.8,60.5,28.5,71.2,28.6,72.2z"/>
				<path id="Helm_x5F_Shad" class="st4" d="M28.6,72.2l32.2,2.3c0.4-2.9,1-12.3-5.7-19.4c-2.8-2.9-6.4-5-10.3-6.1
					c-3.1,0.8-6,2.2-8.5,4.3C27.8,60.5,28.5,71.2,28.6,72.2z"/>
				<path id="Helm_x5F_PoniDepan" class="st16" d="M60.2,72.4c0,0,17,1.2,17,2.5S59,74.3,59,74.3L60.2,72.4z"/>
				<path id="Helm_x5F_PoniBelakang" class="st16" d="M44,73.1c0,0-17-0.3-17.1-1.5S45,71.1,45,71.1L44,73.1z"/>
				<polygon id="Helm_x5F_Atas" class="st15" points="53.1,48.4 56.3,47.8 59.5,48.4 59.8,50.3 53.5,50.5 				"/>
				<path id="Helm_x5F_Tali" class="st30" d="M60.9,97.1c-2.6-4.4-0.3-18.6,0.9-23.7c0.1-0.6-0.3-1.3-0.9-1.4
					c-0.6-0.1-1.3,0.3-1.4,0.9c-0.4,1.9-3.7,17.5-1.1,24.3l0.4,3c1.3,0.7,2.8,0.7,4.2,0.2c0.7-0.3,1.4-0.8,1.9-1.4L60.9,97.1z"/>
			</g>
			<g id="telinga">
				<path id="Telinga_x5F_Base" class="st23" d="M50.4,77.1c0.8,3.2,3.2,5.8,5.3,5.6s3.3-2.9,2.5-6.2s-3.2-5.8-5.3-5.6
					S49.7,73.8,50.4,77.1z"/>
				<path id="Telinga_x5F_Line" class="st31" d="M53.8,74.8c0.2,0.2,0.4,0.5,0.6,0.7c0.1,0.1,0.2,0.3,0.2,0.4
					c0.1,0.1,0.1,0.3,0.1,0.4v-0.2l0,0l0.2-0.1h-0.1l0.2-0.1c-0.6,0.1-1.8-0.2-2,0.7c0,0.4,0.1,0.8,0.2,1.1c0.1,0.4,0.3,0.8,0.4,1.2
					s0.9,0.3,0.8-0.2s-0.4-1.2-0.6-1.8c0-0.1,0-0.1,0-0.2c0,0,0-0.1,0,0s0,0,0.1,0h0.2H55c0.3,0,0.6-0.2,0.6-0.5s-0.1-0.5-0.3-0.8
					c-0.2-0.5-0.6-0.9-1-1.3C54,74,53.5,74.5,53.8,74.8L53.8,74.8z"/>
			</g>
		</g>
		<g id="Badan">
			<path id="LeherBaju_x5F_Shad" class="st32" d="M27.8,101.4l24,3.4l5,0.7c-0.7-1.6-1.3-3.2-1.9-4.8c-6.1-3.5-13.1-5.3-20.1-5.5
				c-1.2,0-2.3,0-3.4,0.1l-1.1,1.8C29.5,98.6,28.7,100,27.8,101.4z"/>
			<path id="LeherBaju_x5F_Base" class="st33" d="M27.8,101.4l24,3.4l0.7-1.5c-0.6-0.7-1.2-1.4-1.9-1.9c-1-0.8-2.2-1.4-3.4-1.9
				c-2.3-0.9-8.5-2-16.9-2.2l0,0C29.5,98.6,28.7,100,27.8,101.4z"/>
			<path id="Badan_x5F_Base" class="st14" d="M8.8,151.4c0,2.1,0.1,4.3,0.1,6.6c0,1.2,0,2.4,0.1,3.7c0.1,2,0.1,4.1,0.1,6.3v0.1
				c0.1,4.1,0.2,7.5,0.3,10.1c0,0.8,0.1,1.5,0.1,2.1h71.2c-0.1-0.7-0.1-1.4-0.2-2.1c-0.3-3.6-0.7-7-1-10.2c-0.2-2.2-0.4-4.3-0.6-6.3
				c-0.4-3.8-0.7-7.2-1-10.2c-0.1-0.8-0.1-1.5-0.2-2.2c-2.4-23.9-3.2-28.9-7.4-34.3c-3.7-4.5-8.5-8-13.9-10.2c-2.4-1-5-1.8-7.5-2.4
				c-0.8-0.2-1.5-0.3-2.2-0.5s-1.3-0.2-1.8-0.3c-1.2-0.2-2.2-0.3-2.9-0.4c-4-0.6-8.1-0.9-12.1-0.9l0,0c-1.2,0-2.4,0.2-3.6,0.3
				c-0.6,0.1-1.3,0.2-1.9,0.4l-0.5,0.1l0,0c-2.4,0.6-4.7,1.7-6.7,3.2C9.6,110.1,8.5,124.5,8.8,151.4z"/>
			<path id="Badan_x5F_Strip1" class="st10" d="M78,151.4H45l0,0c-1-33.2,6-42.8,9.1-45.4c0.6-0.5,1.3-0.9,2-1.2
				c-3.6-1.5-7.4-2.6-11.3-3.2c-3,3.7-5.3,8.6-7,14.6c-2.4,9-3.4,20.9-3.1,35.2h-17c-4.1-36.8,2.3-47,5.4-49.7
				c0.2-0.2,0.5-0.4,0.7-0.6c-2.4,0.6-4.7,1.7-6.7,3.2c-7.4,5.7-8.6,20.1-8.3,47c0,2.1,0.1,4.3,0.1,6.6c0,1.2,0,2.4,0.1,3.7h70
				C78.6,157.8,78.3,154.4,78,151.4z"/>
			<path id="Badan_x5F_Strip2" class="st10" d="M9.1,169.4L9.1,169.4c0.1,2.9,0.2,5.3,0.3,7.2h71.1c-0.3-2.5-0.7-4.9-1-7.2H9.1z"/>
			<path id="Badan_x5F_Shad" class="st34" d="M29.8,100.2c4.8,0.2,20.5,1.6,22.7,11.1c2.6,11.3,10.1,69,10.1,69h18.1
				c-0.1-0.7-0.1-1.4-0.2-2.1c-0.3-3.6-0.7-7-1-10.2c-0.2-2.2-0.4-4.3-0.6-6.3c-0.4-3.8-0.7-7.2-1-10.2c-0.1-0.8-0.1-1.5-0.2-2.2
				c-2.4-23.9-3.2-28.9-7.4-34.3c-3.7-4.5-8.5-8-13.9-10.2c-2.4-1-5-1.8-7.5-2.4c-0.8-0.2-1.5-0.3-2.2-0.5s-1.3-0.2-1.8-0.3
				c-1.2-0.2-2.2-0.3-2.9-0.4C37.9,100.5,33.8,100.2,29.8,100.2z"/>
			<path class="st18" d="M27.6,106c1.9-0.1,3.9,0,5.8,0.5c0.4,0.1,0.9-0.2,1-0.6l0,0c0.1-0.4-0.1-0.9-0.6-1c0,0,0,0-0.1,0
				c-2-0.4-4.1-0.6-6.2-0.5c-0.5,0-0.8,0.4-0.8,0.8l0,0l0,0C26.7,105.7,27.1,106,27.6,106z"/>
		</g>
		<g id="Lengan">
			<path id="Lengan_x5F_Base" class="st23" d="M111.3,131.1l14.1,4c-6.6,14-15,24.9-23.4,31.6c-3.6-5.5-7.2-11.1-10.4-16.9
				L111.3,131.1z"/>
			<polygon id="Lengan_x5F_Shad" class="st24" points="115.2,126.8 115.2,129.1 100.3,146.5 98,143.7 			"/>
			<path id="LenganBaju_x5F_ShadBawah" class="st32" d="M51.3,119.1c0.9,8.2,1.8,16.3,2.7,24.5c0.2,1.4,1.4,2.5,2.9,2.5h10.3L63,120
				L51.3,119.1z"/>
			<path id="LenganBaju_x5F_Base" class="st33" d="M110.7,159.9l-10.3-13.4l-2-2.6c-0.4-0.5-1-0.5-1.5-0.2c0,0-0.1,0-0.1,0.1l-8.6,8
				l-0.1,0.1l0,0c-1-2.1-1.9-4.1-2.8-6c-3.7-7.9-6.3-13.7-7.9-17.1c-6-13.2-8.4-18.5-13.6-19.7c-3.8-0.7-7.7,0.6-10.3,3.5
				c-5.4,6.3,0.1,18.7,5.9,31.4c2.5,5.6,4.7,10.3,6.7,14.3c4.6,9.1,8.3,14.1,13.7,15.7c5.7,1.7,12.7-0.3,19.9-5.4l0.1-0.1
				c0.1,0.2,0.3,0.3,0.4,0.5c0.4,0.5,1,0.6,1.5,0.2c0,0,0,0,0.1-0.1l8.8-7.8C111,160.9,111.1,160.3,110.7,159.9z"/>
			<path id="LenganBaju_x5F_ShadAtas" class="st32" d="M98.9,169.1l1.7-1.3L91.5,156c0.8-0.8,1.5-1.6,2.3-2.4
				c3.5-3.7,6.6-7.1,6.6-7.1l-2-2.6c-0.4-0.5-1-0.5-1.5-0.2c0,0-0.1,0-0.1,0.1l-8.6,8l-0.1,0.1c-1-2.1-1.9-4.1-2.8-6.1
				c-3.7-7.9-6.3-13.7-7.9-17.1c-6-13.2-8.4-18.5-13.6-19.7c-3.8-0.6-7.7,0.7-10.3,3.5c0,0,5.2-3.5,8.2,1
				c2.5,3.8,16.5,36.5,21.3,46.3l-3.3,3.9l1.6,1.4l2.1-2.4l-1.2,6.3l2.1,0.4l1.4-7.6c1-0.9,2.6-2.5,4.3-4.2L98.9,169.1z"/>
		</g>
		<path id="Mandor_x5F_IbuJari" class="st23" d="M123.8,122.6l-3.3-6.8c0.4-1.4,1.1-5-0.5-7.8c-0.4-0.6-0.6-0.8-0.8-0.8
			c-1.2,0-2.2,4.4-3,8.4c-0.3,3.8-0.6,7.5-0.9,11.3L123.8,122.6z"/>
	</g>
</g>
</svg>
