<?xml version="1.0" encoding="utf-8"?>
<!-- Generator: Adobe Illustrator 25.2.1, SVG Export Plug-In . SVG Version: 6.00 Build 0)  -->
<svg version="1.1" id="GabungDesa" xmlns="http://www.w3.org/2000/svg" xmlns:xlink="http://www.w3.org/1999/xlink" x="0px" y="0px"
	 viewBox="0 0 240 180" style="enable-background:new 0 0 240 180;" xml:space="preserve">
<style type="text/css">
	.st0{fill:#CFCFCF;}
	.st1{fill:#D2D2D2;}
	.st2{fill:#D5D5D5;}
	.st3{fill:#C5C5C5;}
	.st4{fill:#C7C7C7;}
	.st5{opacity:0.5;}
	.st6{fill:#38C7E8;}
	.st7{fill:#BFBFBF;}
	.st8{fill:#848484;}
	.st9{fill:#CECECE;}
	.st10{opacity:0.5;fill:#179668;enable-background:new    ;}
	.st11{fill:#FFFFFF;}
	.st12{fill:#D8D8D8;}
	.st13{fill:#E3E3E3;}
	.st14{fill:none;}
	.st15{fill:#F8F8F8;}
	.st16{fill:#F4F4F4;}
	.st17{fill:#808080;}
	.st18{fill:#979797;}
	.st19{fill:#939393;}
	.st20{fill:#828282;}
	.st21{fill:#AEAEAE;}
	.st22{fill:#9D9D9D;}
	.st23{fill:#606060;}
	.st24{fill:#FCEAE8;}
	.st25{fill:#271329;}
	.st26{fill:#AAAAAA;}
	.st27{fill:#B7B7B7;}
	.st28{fill:#737373;}
</style>
<g id="Elemen">
	<rect id="Langit" x="-0.2" class="st0" width="240.4" height="180"/>
	<g id="Awan">
		<path id="Awan_x5F_Besar" class="st1" d="M-0.2,122.4c0,0,115.2-82.8,240.4-72.4V14.5c0,0-115.1-9.9-240.4,33.2
			C-0.2,47.7-0.2,122.4-0.2,122.4z"/>
		<path id="Awan_x5F_Kecil" class="st2" d="M0.4,68c0,0,110.5-45.9,191.6-39.9L0.4,89.2V68z"/>
	</g>
	<g id="Bukit">
		<path id="Bukit_x5F_Base" class="st3" d="M240.2,95.8c-14.2-10.6-23.7-18.7-45-22.3c-33.5-5.7-69.3,49.5-90,46.2
			c-32.8-5.2-41.3-20.9-63.3-20.9s-42.1,21.3-42.1,21.3v20h240.4V95.8z"/>
		<path id="Bukit_x5F_Shadow" class="st4" d="M195.9,73.6c-6.8-0.2-13.4,1.7-19,5.5c-9,6.3-2.3,16.6,7.4,16.4s13.9-1.5,19.7,2.4
			s-5.7,7.7-11.6,8.8s-7.1,12.7,21.4,13c24.8,0.2,26.4,2.6,26.4,2.6V95.8C224.6,82.4,208,74.2,195.9,73.6z"/>
	</g>
	<g id="Turbine2">
		<g class="st5">
			<polygon class="st6" points="44,134.5 41.1,133.3 40.2,133.3 42.4,134.5 			"/>
		</g>
		<g class="st5">
			<polygon class="st6" points="39.5,133.4 36.9,133.6 37,133.3 44.2,133 44.6,133.1 			"/>
		</g>
		<g id="Tiang">
			<path class="st7" d="M42.4,134.5c0.3,0.1,0.6,0.1,0.9,0.1c0.6,0,0.8-0.1,0.8-0.1l-0.6-16.6h-0.4L42.4,134.5z"/>
			<path class="st7" d="M43.1,117.5h0.2c0.2,0,0.4,0.2,0.4,0.4l0,0c0,0.2-0.2,0.4-0.4,0.4h-0.2c-0.2,0-0.4-0.2-0.4-0.4l0,0
				C42.7,117.6,42.9,117.5,43.1,117.5z"/>
			<polygon class="st7" points="43.2,118.2 42.6,134.6 42.4,134.5 43,118.2 			"/>
		</g>
		<g id="Turbine">
			<path class="st7" d="M43.7,117.3V117l0.4-0.1l0.3-0.5l7.8-0.8c0,0,0.1,0,0.2,0l0.1,0.1c0,0,0,0,0,0.1v0.1L43.7,117.3z"/>
			<path class="st7" d="M42.8,117.7l0.3,0.1l-0.2,0.4l0.2,0.5l-3.7,6.9c0,0.1-0.1,0.1-0.1,0.1h-0.1h-0.1H39L42.8,117.7z"/>
			<path class="st7" d="M42.9,116.8l-0.2,0.2l-0.3-0.3h-0.6l-4.8-6.2c0,0,0-0.1,0-0.2v-0.1c0,0,0,0,0-0.1l0,0L42.9,116.8z"/>
			<circle class="st7" cx="43.2" cy="117.3" r="0.6"/>
		</g>
	</g>
	<path id="Tumbuhan4" class="st8" d="M41,133c-13.4,0.8-26.9-0.6-40.2-2.7c-0.4,0-0.8-0.3-0.8-0.7c0-0.1,0-0.2,0-0.3
		c0.2-0.5,0.7-0.7,1.2-0.7c-0.2-0.3-0.1-0.7,0.2-0.9c0.1-0.1,0.3-0.1,0.4-0.1c0-0.4,0.2-0.8,0.5-1c0.4-0.4,1.1-0.5,1.6-0.4
		c0.3-0.5,0.9-0.8,1.4-0.5l0,0c0.4-0.5,1.1-0.5,1.5-0.1c0.1,0.1,0.1,0.1,0.2,0.2c0.6-0.3,1.4-0.2,1.9,0.3c0.4-0.4,0.9-0.7,1.4-0.8
		c0.4-0.1,0.8,0,1.2,0.2c0-0.7,0.3-1.4,0.8-1.9c0.1-0.1,0.2-0.2,0.4-0.3c0.8-0.4,1.7-0.4,2.5,0.1c0.4-0.5,1.1-0.6,1.6-0.3
		c0.4-0.2,0.8-0.4,1.3-0.4c0.1-0.8,0.9-1.4,1.7-1.2c0.4,0.1,0.8,0.3,1,0.7c0.5-0.3,1.1-0.2,1.5,0.3c0.1,0.1,0.1,0.2,0.1,0.3
		c1-0.5,2.1-0.2,2.8,0.6c0.4-0.3,1-0.2,1.4,0.2c0.4-0.6,1.2-0.8,1.9-0.5c0.6,0.4,1,1,1.1,1.8c0.5,0.2,0.9,0.6,1,1.1
		c0.6-0.3,1.3-0.3,1.9,0.1c0.6,0.4,0.9,1.1,0.8,1.7c0.6-0.1,1.3,0.2,1.6,0.8c0.5-0.4,1.3-0.4,1.8-0.1c0.5,0.4,0.8,1.1,0.7,1.7
		c0.4-0.1,0.8,0.2,0.9,0.6l0,0c0.3-0.5,0.9-0.7,1.4-0.5c0.4,0.2,0.7,0.7,0.6,1.2c0.3,0,0.6,0.2,0.8,0.5
		C41.2,132.4,41.1,132.7,41,133z"/>
	<g id="BukitOrange">
		<path class="st2" d="M-0.2,127.6c118.2,7,205.9-0.6,240.4,52.4H-0.2V127.6z"/>
		<path class="st9" d="M-0.2,129.8v-2.1c9.9,3.7,28.4,12.4,38.5,19c16.4,10.6,31.6,17.7,45.7,31.1c-5.4,0.2-10.8,0.9-16,2.2
			c-17.6-23.4-41.6-35.5-68.2-48.2C-0.2,131.8-0.2,129.8-0.2,129.8z"/>
		<path class="st9" d="M25.6,129.2L25.6,129.2c10.8,4.5,25,10.4,35.4,17.2c18.7,12.2,30.1,17.9,46.2,33.1c-4.6-2-9.6-3.2-14.6-3.6
			C70.2,152.5,45,143.6,14,128.3l0,0L25.6,129.2z"/>
		<path class="st9" d="M0,138.2l0.1-1.4c9.2,3.7,18,8.2,26.3,13.4c11.4,7.4,22.1,12.4,32,21.7c-3.8,0.1-7.5,0.7-11.2,1.5
			C34.9,157,18.5,148.5-0.1,139.6L0,138.2z"/>
		<path class="st9" d="M0,148.8l0.1-1.4c9.2,3.7,18,8.2,26.3,13.4c11.4,7.4,20.3,9.8,30.2,19.2c-3.8,0.1-10.1-0.9-13.8,0
			c-15-15-24.2-20.7-42.8-29.6V148.8z"/>
	</g>
	<g id="Turbine1">
		<polygon class="st10" points="190,150.3 174.9,144.1 170.5,144.3 181.6,150.3 		"/>
		<polygon class="st10" points="166.7,144.5 153.2,145.4 154.1,144.2 190.7,142.6 192.8,143.3 		"/>
		<g id="Tiang-2">
			<path class="st11" d="M181.6,150.3c1.4,0.4,2.9,0.7,4.5,0.7c3.2,0,3.9-0.7,3.9-0.7l-3.2-84.5h-2.2L181.6,150.3z"/>
			<path class="st12" d="M185,63.3h1.4c1,0,1.8,0.8,1.8,1.7v0.5c0,1-0.8,1.8-1.8,1.8H185c-1,0-1.8-0.8-1.8-1.8V65
				C183.2,64.1,184,63.3,185,63.3z"/>
			<polygon class="st13" points="185.8,67.3 182.5,150.6 181.4,150.3 184.5,67.3 			"/>
		</g>
		<g id="Turbine-2">
			<circle class="st14" cx="185.7" cy="62.7" r="48.4"/>
			<path class="st11" d="M188.1,62.7l-0.3-1.7l2.2-0.4l1.6-2.5l39.9-4.1c0.3,0,0.6,0,0.8,0.2l0.4,0.3c0.1,0.1,0.2,0.2,0.2,0.4
				l0.1,0.4L188.1,62.7z"/>
			<path class="st11" d="M183.5,64.6l1.5,0.7l-0.9,2l1.2,2.8l-19,35.4c-0.1,0.2-0.4,0.4-0.6,0.6l-0.5,0.2c-0.1,0.1-0.3,0.1-0.4,0
				l-0.4-0.2L183.5,64.6z"/>
			<path class="st11" d="M184.3,59.8l-1.2,1.1l-1.5-1.7h-3l-24.5-31.8c-0.2-0.2-0.3-0.5-0.2-0.8v-0.5c0-0.1,0.1-0.3,0.2-0.4l0.3-0.2
				L184.3,59.8z"/>
			<circle class="st15" cx="185.7" cy="62.7" r="3.1"/>
		</g>
	</g>
	<path id="Tumbuhan2" class="st8" d="M11.9,170.8c-1-3.1-0.2-6.4,1.9-8.8c2.1-2.2,5.4-2.7,8.1-1.4c1-2.9,4.1-4.4,7-3.5
		c0.8,0.3,1.5,0.7,2.1,1.3c3.2-7.2,12.9-9.2,19-3.9c-0.5-2.3,0.4-4.7,2.3-6.1c1.9-1.2,4.4-1,6.1,0.5c-0.7-5.3,2.5-10.6,7.1-11.7
		s10,2.2,11.9,7.3c3.2-3.9,8.9-4.7,13-1.7c0.3-3.5,3.3-6,6.8-5.8c0.1,0,0.3,0,0.4,0c3.4,0.6,6.3,3.5,8.1,6.9s2.6,7.2,3.3,11
		c-33,6.2-57.5,11.8-88.8,23.6C20.5,174.8,14.5,179.1,11.9,170.8z"/>
	<g id="Rumah">
		<rect x="88.9" y="103.7" class="st16" width="60.8" height="25.5"/>
		<polygon class="st16" points="149.7,103.7 176.1,129.2 123.2,129.2 		"/>
		<polygon class="st17" points="115.4,129.2 88.9,103.7 62.4,129.2 62.4,133.9 109.5,129.7 109.5,156.2 176.1,156.2 176.1,129.2 		
			"/>
		<polygon class="st18" points="62.4,133.1 62.4,164.8 115.4,164.8 115.4,133.4 88.9,108.5 		"/>
		<polygon class="st19" points="141.1,105.9 108,105.9 128.9,126.2 159.7,126.2 		"/>
		<polygon class="st20" points="140.9,106.3 109,106.3 129.2,125.9 158.9,125.9 		"/>
		<polygon class="st21" points="140.7,106.6 109.3,106.6 129.2,125.9 158.4,125.9 		"/>
		<polygon class="st7" points="140,106.7 130.1,106.7 135.3,125.9 146.2,125.9 		"/>
		<polygon class="st7" points="128.5,106.7 126,106.7 129.4,125.9 132.8,125.9 		"/>
		<polygon class="st22" points="115.9,106.2 115.4,106.2 134.2,126 134.7,126 		"/>
		<polygon class="st22" points="122.2,106.2 121.7,106.2 140.6,126 141,126 		"/>
		<polygon class="st22" points="128.5,106.2 128,106.2 146.9,126 147.3,126 		"/>
		<polygon class="st22" points="134.8,106.2 134.4,106.2 153.2,126 153.6,126 		"/>
		<polygon class="st22" points="146.7,112.3 146.4,111.9 114.4,111.9 114.8,112.3 		"/>
		<polygon class="st22" points="153.2,119 152.8,118.7 121.5,118.7 121.9,119 		"/>
		<rect x="145.9" y="131.6" class="st23" width="10.9" height="14.3"/>
		<rect x="86.1" y="115.6" class="st24" width="5.2" height="8.7"/>
		<rect x="86.8" y="116.6" class="st25" width="4" height="6.6"/>
	</g>
	<path id="Tumbuhan2_1_" class="st8" d="M221.5,140.6c0-2.6-1.4-5-3.7-6.2c-2.3-1.1-5-0.7-6.9,1c-0.5-3.5-2.9-6.4-6.2-7.6
		c-3.3-0.9-6.9,0.2-9.1,2.9c-1.2-1.5-3.2-2.1-5.1-1.6c-1.9,0.7-3.2,2.3-3.6,4.2c-2.9-2.7-7.1-3.2-10.5-1.2
		c-3.4,2.2-5.2,6.3-4.7,10.3C188.8,141.4,206,141.4,221.5,140.6z"/>
	<g id="BukitRumput">
		<path class="st26" d="M0.2,180c0,0,64-40.5,240-40.5V180H0.2z"/>
		<path class="st27" d="M77.5,154.2c0,0-32.5,5.8-30.3,11.7s39.7-6.1,39.7,1.8s2.4,9.2,19,5.2s134.3-7.6,134.3-7.6v-25.8
			C240.2,139.5,134.5,140.1,77.5,154.2z"/>
	</g>
	<g id="Tumbuhan1">
		<path id="Tumbuhan1_x5F_Base" class="st8" d="M199.7,180.1c2.3-1.9,2.7-6.4,0.8-8.9c-1.5-2-4.3-2.5-6.3-1
			c-0.4,0.3-0.8,0.7-1.1,1.2c0.9-3.9-0.8-8.5-3.9-10.3s-7-0.4-8.8,3.1c-2-2.6-5.8-3.1-8.4-1c-0.8,0.6-1.4,1.4-1.8,2.4
			c-2.5-3.6-5.8-6.7-9.7-7.5c-4.2-0.8-8.3,1.6-9.7,5.7c-3.3-1.9-7.5-1-9.9,1.9c-1.2-5.6-9-10.1-14.3-9.1c-4.1,0.6-7.2,4.2-7.2,8.4
			c-2.2-1.7-5.3-1.5-7.3,0.5c-2.1,2.3-2.9,5.5-2.1,8.5c-3.6-0.4-5.4,1.7-5,6.2C125.3,180.2,185.8,180,199.7,180.1z"/>
		<path id="Tumbuhan1_x5F_ranting1" class="st28" d="M188.8,164.5C188.7,164.5,188.7,164.5,188.8,164.5c-0.2,0-0.3,0.1-0.3,0.2
			c-0.4,2.5-1,5-1.6,7.4l-1.1-3.8l0,0c0-0.1-0.2-0.2-0.3-0.2s-0.2,0.2-0.2,0.3l1.3,4.6c0,0,0,0,0,0.1c-0.5,1.8-1,3.6-1.6,5.4
			c-1.1-1.7-2.4-3.3-3.6-4.9c0.3-2.1,0.3-4.1,0.1-6.2c0-0.1-0.1-0.2-0.3-0.2s-0.3,0.1-0.3,0.3c0.2,1.8,0.2,3.7,0,5.5
			c-1.3-1.6-2.7-3.2-4.1-4.7l0,0c-0.1-0.1-0.3-0.1-0.4,0c-0.1,0.1-0.1,0.3,0,0.4c3.1,3.3,5.9,6.8,8.5,10.6l0.3,0.5l0.2-0.5
			c1.6-4.7,2.9-9.5,3.7-14.5C189,164.7,188.9,164.5,188.8,164.5z"/>
		<path id="Tumbuhan1_x5F_ranting2" class="st28" d="M158.8,170L158.8,170c-0.1-0.1-0.3,0-0.3,0.1c-1.4,2.4-2.7,4.9-3.8,7.4
			c-0.6-1.2-1.1-2.5-1.6-3.8l0,0c1-2.2,1.8-4.6,2.3-7l0,0c0-0.1-0.1-0.3-0.2-0.3l0,0c-0.1,0-0.3,0.1-0.3,0.2
			c-0.5,2.2-1.2,4.4-2.1,6.5c-0.8-2.1-1.5-4.3-2.1-6.5c0-0.1-0.2-0.2-0.3-0.2s-0.2,0.2-0.2,0.3c1,4,2.5,7.9,4.3,11.7
			c0,0.1,0.1,0.2,0.2,0.2h0.1c0.1,0,0.1-0.1,0.1-0.2c1.2-2.7,2.5-5.3,4-7.8l0,0C159,170.2,158.9,170.1,158.8,170z"/>
		<path id="Tumbuhan1_x5F_ranting3" class="st28" d="M123.9,177.5c1.7-3.6,3-7.5,3.8-11.4c0-0.2-0.1-0.4-0.3-0.4s-0.4,0.1-0.4,0.3
			c-0.8,3.8-2,7.4-3.6,10.9c-1.7-2.6-3.6-5-5.8-7.2l0,0c-0.1-0.1-0.3-0.1-0.5,0l0,0c-0.1,0.1-0.1,0.3,0,0.5c2.7,2.8,5.1,5.9,7.1,9.3
			c0.1,0.1,0.2,0.2,0.3,0.2c0.1,0,0.1,0,0.2,0c0.2-0.1,0.2-0.3,0.1-0.5C124.6,178.5,124.3,178,123.9,177.5z"/>
	</g>
</g>
</svg>
