<svg id="Layer_1" data-name="Layer 1" xmlns="http://www.w3.org/2000/svg" viewBox="0 0 1440 57"><path d="M178.5,35.45C113.5,35.45,23,20.6,0,0V57H1440V4.79c0,3.35-29.6,17.65-89,26.34-101.5,14.85-146,15-287.5,12.46-101-1.79-441-38.8-585.5-28.74S260.05,35.45,178.5,35.45Z" style="fill:#73e7bd"/><path d="M177.5,48.08C112.5,48.08,50,41.14,0,0V57H1440V5c0,3.47-45.5,25.77-96.5,34.69-99,17.33-143.66,16.51-278.44,14l-8.56-.16c-101-1.85-444-48.08-588.5-37.67S259.05,48.08,177.5,48.08Z" style="fill:#fff"/></svg>