<?xml version="1.0" encoding="utf-8"?>
<!-- Generator: Adobe Illustrator 25.2.1, SVG Export Plug-In . SVG Version: 6.00 Build 0)  -->
<svg version="1.1" id="HeroBanner" xmlns="http://www.w3.org/2000/svg" xmlns:xlink="http://www.w3.org/1999/xlink" x="0px" y="0px"
	 viewBox="0 0 1600 600" style="enable-background:new 0 0 1600 600;" xml:space="preserve">
<style type="text/css">
	.st0{fill:#32E6F9;}
	.st1{opacity:0.12;fill:#FFFFFF;enable-background:new    ;}
	.st2{opacity:0.14;fill:#FFFFFF;enable-background:new    ;}
	.st3{opacity:0.2;fill:#FFFFFF;enable-background:new    ;}
	.st4{fill:#23B781;}
	.st5{fill:#33CB93;}
	.st6{fill:#13774E;}
	.st7{fill:#179668;}
	.st8{fill:#0E8E5D;}
	.st9{fill:#4EDDA3;}
	.st10{fill:#3EBA82;}
	.st11{opacity:0.5;fill:#179668;enable-background:new    ;}
	.st12{fill:#FFFFFF;}
	.st13{fill:#C6D9F2;}
	.st14{fill:none;}
	.st15{fill:#EEF8F5;}
	.st16{fill:#335860;}
	.st17{fill:#517D84;}
	.st18{fill:#27454C;}
	.st19{fill:#38606B;}
	.st20{fill:#F2FAFC;}
	.st21{fill:#66D7F2;}
	.st22{opacity:0.8;fill:#9AE9F7;enable-background:new    ;}
	.st23{fill:#D3EBEF;}
	.st24{fill:#40A0BE;}
	.st25{fill:#4AB3CD;}
	.st26{fill:#178EA6;}
	.st27{opacity:0.33;fill:#007C8D;enable-background:new    ;}
	.st28{fill:#96C0C7;}
	.st29{fill:#B3D4DB;}
	.st30{fill:#007C8D;}
	.st31{fill:#2BB3CF;}
	.st32{fill:#44C6DE;}
	.st33{fill:#30393D;}
	.st34{opacity:0.56;fill:#F5EEDB;enable-background:new    ;}
	.st35{fill:#C0B3A4;}
	.st36{fill:#BD2424;}
	.st37{fill:#CB2828;}
	.st38{fill:#FCAF44;}
	.st39{fill:#ED4040;}
	.st40{fill:#CE2B2B;}
	.st41{fill:#DCD8CE;}
	.st42{fill:#EDEBE3;}
	.st43{display:none;fill:#882E2E;}
	.st44{fill:#561A1A;}
	.st45{fill:#782626;}
	.st46{fill:#41859A;}
	.st47{fill:#1F4E59;}
	.st48{fill:#41A7C0;}
	.st49{fill:#56C0D7;}
	.st50{fill:#882E2E;}
	.st51{fill:#D6CCBE;}
	.st52{fill:#3ECC8E;}
	.st53{fill:#40B588;}
	.st54{fill:#00707A;}
	.st55{fill-rule:evenodd;clip-rule:evenodd;fill:#E23B5B;}
	.st56{fill:#FF4964;}
	.st57{fill:#F9AE83;}
	.st58{fill:#E7F1F2;}
	.st59{fill:#0A96AD;}
	.st60{fill:#0B7189;}
	.st61{fill:#C2C6C6;}
	.st62{fill:#0E9EA5;}
	.st63{opacity:0.3;fill-rule:evenodd;clip-rule:evenodd;fill:#2B4060;enable-background:new    ;}
	.st64{fill-rule:evenodd;clip-rule:evenodd;fill:#FF4964;}
	.st65{fill:#E23B5B;}
	.st66{fill-rule:evenodd;clip-rule:evenodd;fill:#F58A69;}
	.st67{fill-rule:evenodd;clip-rule:evenodd;fill:#F9AE83;}
	.st68{fill:#A0A0A0;}
	.st69{fill:#CDCDD3;}
	.st70{fill:#D1D1D1;}
	.st71{fill:#D8D8D8;}
	.st72{fill:#E2E2E2;}
	.st73{fill:#9E7B57;}
	.st74{fill:#1D394F;}
	.st75{fill:#F58A69;}
	.st76{fill:#C97355;}
	.st77{fill:#F9D07D;}
	.st78{fill:#D8AA73;}
	.st79{fill:#4D6007;}
	.st80{fill:#FF9D39;}
	.st81{fill:#342B2F;}
	.st82{fill:#2D2A2F;}
	.st83{fill:#5B5486;}
	.st84{fill:#A0642F;}
	.st85{fill:#E28734;}
	.st86{fill:#544549;}
	.st87{fill:#FFBC4F;}
	.st88{fill:#403336;}
	.st89{fill:#DD3342;}
	.st90{fill:#FF535C;}
	.st91{fill:#EAE5E1;}
	.st92{fill:#D8D5D2;}
	.st93{fill:#F79237;}
	.st94{fill:#2F3435;}
	.st95{fill:#4F4C43;}
	.st96{fill:#73716B;}
	.st97{fill:#A4B1B2;}
	.st98{fill:#A7A765;}
	.st99{fill:#C6C67D;}
	.st100{fill:#B7B771;}
	.st101{fill:#E86B7B;}
	.st102{fill:#C05666;}
	.st103{fill:#7CBBC3;}
	.st104{fill:#D88336;}
	.st105{opacity:0.45;fill:#5AE5BA;enable-background:new    ;}
	.st106{fill:none;stroke:#FF9D39;stroke-miterlimit:10;}
	.st107{fill:#5B5A75;}
	.st108{fill:#46435D;}
	.st109{fill:#403D54;}
	.st110{fill:#E4DBE2;}
	.st111{fill:#84829B;}
	.st112{fill:#BDAEB7;}
	.st113{fill:#828199;}
	.st114{fill:#9F9FB8;}
	.st115{fill:#5D9EA9;}
	.st116{fill:#FF8197;}
	.st117{fill:#ACD9E2;}
	.st118{fill:#CCBFC8;}
</style>
<g id="Element">
	<rect id="Langit" class="st0" width="1600" height="599.8"/>
	<g id="Awan">
		<path class="st1" d="M0.4,276.1c0,0,1241.9-172.2,1599.6-158.6V84.2c0,0-1502.9,19.6-1599.6,58.9V276.1z"/>
		<path class="st2" d="M0.4,174.8c0,0,244.7-42.2,407.9-30.2L0.4,217.2V174.8z"/>
		<path class="st3" d="M0.4,541.1c0,0,1241.9-142.2,1599.6-128.6v-63.2c0,0-1237.6-11.8-1599.6,58.9V541.1z"/>
	</g>
	<g id="Bukit1">
		<path class="st4" d="M1427.5,463.5v-55.8c0,0-96.5-91.3-170.8-121.6s-185,91.3-201.9,88.7s-52.1-56.1-110.7-52.6
			S665,475.7,665,475.7L1427.5,463.5"/>
		<path class="st5" d="M1227.7,281.3c-11.4,1.6-43.4,8.9-32.5,30.6s61.1,10.2,72,24.3s-84.9,16.6-73.7,42.1s145.7,74.6,145.7,74.6
			h88.4v-45.2C1427.6,407.6,1283.9,273.4,1227.7,281.3z"/>
		<path class="st5" d="M952.6,322c-11,0.5-33.8,12.2-16,22.4c17.5,10-31.2,17.5-30.4,31.8s85.1-4.4,72.7,21.8
			c-10.9,23,90.7-13.9,65.8,18.2c-15.8,20.5,66.6-5.9,57.1-7.9l-55.8-41.4C1046,366.9,989.5,320.4,952.6,322z"/>
	</g>
	<g id="Bukit2">
		<path class="st4" d="M1301.2,461.9c0,0,128.7-132.4,195.8-126.4s103,63.1,103,63.1v59.6L1301.2,461.9"/>
		<path class="st5" d="M1497,335.5c0,0-67.4,17.3-46.4,35.4s88.1,6.4,91.2,27.6s-28.7,16.3-18.5,28.4s76.7,18.6,76.7,18.6v-47
			C1600,398.6,1570,346.9,1497,335.5z"/>
	</g>
	<g id="Hutan4">
		<path class="st6" d="M775.8,447c0.2-0.6,0.8-0.5,0.9,0l0.8,3.8l-0.6,0.2c-0.1,0-0.1,0.2,0,0.2h0.7l2,9.3l-1.4,0.5
			c-0.2,0.1-0.1,0.2,0.1,0.2l1.5,0.1l1.3,6.1l-11.3-0.5l3.2-10.4l0.9,0c0.2,0,0.2-0.1,0.1-0.2l-0.7-0.5L775.8,447z"/>
		<path class="st6" d="M763.5,449.6c0.2-0.5,0.6-0.4,0.7,0l0.6,2.9l-0.5,0.2c-0.1,0-0.1,0.2,0,0.2h0.5l1.5,7.2l-1.1,0.4
			c-0.1,0.1-0.1,0.2,0,0.2h1.2l1,4.7l-8.7-0.4l2.5-8h0.7c0.1,0,0.1-0.1,0.1-0.2l-0.6-0.3L763.5,449.6z"/>
		<path class="st7" d="M762.2,486.4c-8,2.4-16.3,4.1-24.6,5c-3.9,0.3-7.8,0.4-11.7,0.2c-3.6-0.3-7.1-0.9-10.5-1.9
			c-3.7-1-8-0.7-11.8-1.2c-7.9-0.9-15.5-3.1-22.7-6.4c-2-1-4.7-2.4-5.6-4.5c-0.8-1.9,1-4.3,2.7-5.2c2.2-1.2,5.5-0.5,6.4,1.8
			c0.3-0.8,1.3-1.2,2.1-0.9c0.3,0.1,0.6,0.4,0.8,0.7c0.5-0.4,1.3-0.3,1.7,0.2c0.1,0.1,0.2,0.3,0.2,0.5c0-0.7,0.7-1.3,1.4-1.3
			c0.2,0,0.4,0.1,0.6,0.2c-1.1-0.8-1.3-2.3-0.6-3.4c0.6-0.9,1.8-1.2,2.8-0.8c0.5-2.3,2.9-3.8,5.2-3.2c1,0.2,1.9,0.9,2.5,1.7
			c-0.7-0.7-0.6-1.8,0.1-2.5s1.8-0.6,2.5,0.1c-0.5-1.3,0.1-2.7,1.4-3.3c1.1-0.4,2.4,0,3.1,1c0-2.2,0.1-4.6,1.5-6.2s4.7-1.6,5.4,0.5
			c0.3-0.9,1.1-1.7,2.1-1.9c1-0.1,2,0.8,1.8,1.7c0.9-1,2.4-1,3.3-0.1c0.8,0.8,1,2,0.4,3c0.9-0.6,2-0.3,2.6,0.6
			c0.4,0.7,0.4,1.5-0.1,2.2c0.1-0.6,0.7-1.1,1.4-1c0.6,0.1,1.1,0.7,1,1.3c0.2-1.5,1.6-2.5,3.1-2.3c1.3,0.2,2.3,1.4,2.3,2.7
			c0-0.8,0.6-1.6,1.4-1.7c0.8-0.1,1.6,0.4,1.9,1.2c-0.3-1.3,0.6-2.6,1.9-2.9c1.3-0.3,2.6,0.6,2.9,1.9c0,0.1,0,0.2,0,0.3
			c0.6-0.7,1.6-0.8,2.3-0.2c0.2,0.1,0.3,0.3,0.4,0.5c-0.1-2.4,1.8-4.3,4.1-4.4c2.2-0.1,4.2,1.6,4.4,3.9c0.8-0.7,2.1-0.7,2.8,0.1
			c0.3,0.3,0.4,0.6,0.5,1c0-1.4,1.2-2.5,2.6-2.5c1.4,0,2.5,1.2,2.5,2.6c0,0.3-0.1,0.5-0.1,0.8c0.7-0.5,1.7-0.2,2.2,0.5
			c0.1,0.1,0.1,0.3,0.2,0.4c0.4-1.4,3-1.1,3,0.3c-0.1-1.3,1-2.5,2.3-2.5c1.1-0.1,2.1,0.7,2.4,1.8c0-2,1.5-3.6,3.5-3.6
			c0.9,0,1.8,0.3,2.5,1c-0.5-0.4,0.1-1.1,0.6-1.3c2.6-1,5.5-0.2,7.2,2c1.6,2.2,2,5.1,1.1,7.7c-0.9,2.6-2.4,4.8-4.4,6.6
			C776,481.9,769,484.4,762.2,486.4z"/>
	</g>
	<g id="Hutan3">
		<path class="st4" d="M549.5,435.2c-0.3-1.4-1.6-1.4-1.9-0.1l-2.5,8l1.3,0.6c0.3,0.1,0.2,0.4-0.1,0.4l-1.4-0.1l-6.2,19.6l2.9,1.3
			c0.3,0.2,0.2,0.5-0.2,0.4l-3.2-0.2l-4,12.8l24.4,1.2l-4.7-23L552,456c-0.4,0-0.4-0.3-0.1-0.4l1.7-0.8L549.5,435.2z"/>
		<path class="st4" d="M534.8,449.4c-0.3-1.4-1.6-1.3-1.9-0.1l-2.5,8l1.3,0.6c0.3,0.1,0.2,0.4-0.2,0.4l-1.4-0.1l-6.2,19.5l2.9,1.3
			c0.3,0.2,0.2,0.5-0.2,0.4l-3.2-0.2l-4,12.8l24.4,1.2l-4.7-23l-1.8-0.1c-0.4,0-0.4-0.3-0.1-0.4l1.7-0.8L534.8,449.4z"/>
		<path class="st7" d="M616.3,502.8c-11.2,2-22.6,2.9-34,2.7c-5.3-0.2-10.6-0.7-15.8-1.6c-5-0.8-9.2-2.5-13.9-4.3
			c-4.8-1.9-10.7-2.2-15.8-3.5c-10.4-2.7-20.6-6.5-29.6-12.4c-2.5-1.6-6-4-6.8-7.1c-0.8-2.7,2.1-5.6,4.5-6.6
			c3.2-1.3,7.5,0.2,8.3,3.5c0.6-1.6,3.5-1.4,3.9,0.3c0.8-0.5,1.7-0.2,2.2,0.5c0.1,0.2,0.2,0.4,0.2,0.7c0.2-1,1.1-1.6,2.1-1.5
			c0.3,0,0.6,0.2,0.8,0.4c-1.3-1.2-1.4-3.3-0.2-4.6c1-1.1,2.6-1.4,3.9-0.7c1.1-3,4.5-4.6,7.5-3.5c1.4,0.5,2.5,1.5,3.2,2.8
			c-0.8-1-0.7-2.5,0.3-3.3c1-0.8,2.5-0.7,3.3,0.3c0.1,0.1,0.1,0.1,0.2,0.2c-0.5-1.8,0.7-3.7,2.5-4.1c1.6-0.4,3.2,0.4,3.9,1.8
			c0.3-3,0.8-6.2,3.1-8.2s6.7-1.4,7.2,1.5c0.6-1.2,1.8-2.1,3.1-2.2c1.3,0,2.6,1.4,2.1,2.6c1.3-1.2,3.3-1.2,4.5,0.1
			c1.2,1.2,1.2,3.1,0,4.4c1.3-0.7,2.8-0.2,3.5,1.1c0.5,1,0.3,2.2-0.5,3c0.2-0.9,1.1-1.4,2-1.2c0.9,0.2,1.4,1.1,1.2,2
			c0.5-2,2.5-3.2,4.5-2.7c1.9,0.5,3.1,2.3,2.8,4.2c0.1-1.3,1.2-2.2,2.4-2.1c1.1,0.1,1.9,0.9,2.1,1.9c-0.2-1.8,1.1-3.4,2.9-3.6
			s3.4,1.1,3.6,2.9c0,0.2,0,0.4,0,0.6c0.9-0.9,2.3-0.8,3.2,0.1c0.2,0.2,0.4,0.5,0.5,0.8c0.2-3.2,2.9-5.6,6.1-5.4s5.6,2.9,5.4,6.1
			c1.5-1.5,4.5,0,4.3,2.1c0.3-1.9,2.1-3.2,4-2.9c1.9,0.3,3.2,2.1,2.9,4c0,0.3-0.1,0.6-0.3,0.8c1.1-0.5,2.3,0,2.8,1
			c0.1,0.2,0.1,0.4,0.2,0.6c0.8-1.8,4.2-1,4.1,1c0.2-1.8,1.8-3.1,3.6-3c1.5,0.1,2.7,1.2,2.9,2.7c0.3-2.7,2.6-4.6,5.3-4.3
			c1.3,0.1,2.5,0.8,3.3,1.8c-0.5-0.6,0.3-1.5,1-1.7c3.5-1.1,7.5,0.8,9.3,3.9c1.7,3.3,1.8,7.2,0.3,10.5c-1.6,3.3-4,6.1-7,8.2
			C635.7,499.1,625.8,501.2,616.3,502.8z"/>
		<path class="st8" d="M484.8,448.4c0.4-1.1,1.4-1,1.6,0.1l1.5,7l-1.1,0.4c-0.2,0.1-0.2,0.3,0.1,0.4h1.2l3.5,17.2l-2.6,0.9
			c-0.3,0.1-0.2,0.4,0.1,0.4l2.7,0.1l2.3,11.1l-20.8-1l6-19l1.6,0.1c0.3,0,0.3-0.2,0.1-0.3l-1.4-0.9L484.8,448.4z"/>
	</g>
	<path id="TanahHijau2" class="st9" d="M1600,454.7c0,0-424.4-5.2-513.4-3.8C415.1,461.5,61.3,599.8,61.3,599.8H1600V454.7z"/>
	<g id="Hutan1">
		<path class="st8" d="M179.9,434.8c-0.2-0.8-1-0.8-1.2,0l-1.3,5.1l0.8,0.3c0.2,0.1,0.1,0.3-0.1,0.3h-0.9L174,453l1.9,0.7
			c0.2,0.1,0.2,0.3-0.1,0.3h-2l-2.1,8.2h15.4l-3.7-14.3h-1.2c-0.2,0-0.2-0.2-0.1-0.3l1-0.6L179.9,434.8z"/>
		<path class="st4" d="M161.1,411.3c-0.5-1.8-2.1-1.7-2.5,0l-2.8,10.8l1.8,0.7c0.4,0.1,0.3,0.6-0.2,0.6h-1.9l-6.8,26.3l3.9,1.6
			c0.4,0.2,0.4,0.6-0.2,0.6h-4.3l-4.4,17.1H176l-7.8-30.1h-2.4c-0.5,0-0.5-0.4-0.2-0.6l2.2-1.2L161.1,411.3z"/>
		<path class="st8" d="M128.4,427.4c0.3-1.1,1.4-1.1,1.6,0l1.8,6.9l-1.1,0.4c-0.2,0.1-0.2,0.4,0.1,0.4h1.2l4.4,16.9l-2.5,1
			c-0.3,0.2-0.2,0.4,0.1,0.4h2.7l2.9,11h-20.8l5-19.3h1.6c0.3,0,0.3-0.2,0.1-0.4l-1.4-0.8L128.4,427.4z"/>
		<path class="st4" d="M100.1,422.2c0.5-1.5,2-1.4,2.4,0l2.6,9.2l-1.6,0.6c-0.3,0.1-0.2,0.5,0.2,0.5h1.8l6.3,22.5l-3.7,1.3
			c-0.4,0.2-0.3,0.5,0.2,0.5h4l4.2,14.7H86.2l7.3-25.7h2.3c0.4,0,0.5-0.3,0.2-0.5l-2-1L100.1,422.2z"/>
		<path class="st7" d="M172.3,485.1c10,2.3,20.3,3.5,30.6,3.9c4.8,0,9.6-0.2,14.4-0.8c4.3-0.6,8.6-1.8,12.7-3.3
			c4.4-1.5,9.8-1.5,14.4-2.5c9.5-2,18.8-5,27.2-10c2.4-1.4,5.5-3.3,6.5-6.1c0.8-2.4-1.7-5.2-3.8-6.2c-2.8-1.3-6.8-0.2-7.7,2.8
			c-0.5-1-1.7-1.3-2.7-0.8c-0.4,0.2-0.7,0.5-0.9,0.9c-0.7-0.4-1.6-0.3-2,0.4c-0.1,0.2-0.2,0.4-0.2,0.6c-0.1-0.9-0.9-1.5-1.8-1.4
			c-0.3,0-0.5,0.1-0.7,0.3c1.2-1.1,1.3-3,0.2-4.2c-0.9-0.9-2.2-1.3-3.4-0.8c-0.9-2.8-3.8-4.4-6.6-3.5c-1.3,0.4-2.3,1.2-3,2.4
			c0.8-0.9,0.8-2.2-0.1-3c-0.9-0.8-2.2-0.8-3,0.1c-0.1,0.1-0.1,0.1-0.2,0.2c0.5-1.6-0.4-3.4-2.1-3.8c-1.4-0.4-2.9,0.2-3.6,1.5
			c-0.2-2.7-0.5-5.6-2.4-7.5s-5.9-1.6-6.5,1c-0.5-1.1-1.5-1.9-2.7-2.1c-1.2-0.1-2.4,1.1-2,2.3c-1.2-1.1-3-1-4.1,0.1
			c-1,1-1.1,2.6-0.2,3.7c-1.1-0.6-2.5-0.2-3.1,1c-0.4,0.8-0.3,1.9,0.3,2.6c-0.2-0.8-1-1.3-1.8-1.1c-0.7,0.2-1.2,0.9-1.1,1.7
			c-0.3-1.8-2.1-3-3.9-2.7c-1.7,0.3-2.9,1.9-2.7,3.7c-0.1-1.1-1-2-2.2-1.9c-0.9,0-1.7,0.7-1.9,1.6c0.3-1.6-0.7-3.2-2.3-3.5
			c-1.6-0.3-3.2,0.7-3.5,2.3c-0.1,0.3-0.1,0.6-0.1,0.8c-0.7-0.8-2-0.9-2.8-0.1c-0.2,0.2-0.4,0.5-0.5,0.7c0-2.9-2.4-5.2-5.3-5.2
			c-2.9,0-5.2,2.4-5.2,5.3c-1.3-1.4-4.1-0.2-4,1.7c-0.2-1.7-1.7-3-3.5-2.8c-1.7,0.2-3,1.7-2.8,3.5c0,0.3,0.1,0.6,0.2,0.8
			c-0.9-0.5-2.1-0.1-2.6,0.8c-0.1,0.2-0.1,0.3-0.2,0.5c-0.6-1.7-3.8-1.1-3.7,0.7c-0.1-1.6-1.4-2.9-3.1-2.8c-1.3,0.1-2.5,1-2.8,2.3
			c-0.1-2.4-2.2-4.3-4.6-4.1c-1.2,0.1-2.2,0.6-3,1.4c0.5-0.5-0.2-1.3-0.9-1.6c-3.1-1.2-6.8,0.4-8.6,3.2c-1.7,2.9-2,6.4-0.7,9.5
			c1.3,3.1,3.4,5.7,6,7.7C155,480.9,163.8,483.3,172.3,485.1z"/>
	</g>
	<g id="Hutan2">
		<path class="st4" d="M387.9,436.3c-0.4-1.3-1.6-1.3-1.9,0l-2.1,8.1l1.3,0.5c0.3,0.1,0.2,0.4-0.1,0.4h-1.4l-5.1,19.8l3,1.2
			c0.3,0.2,0.3,0.5-0.2,0.4h-3.2l-3.4,12.9h24.5l-5.9-22.7h-1.8c-0.4,0-0.4-0.3-0.1-0.4l1.6-0.9L387.9,436.3z"/>
		<path class="st7" d="M421.6,496.2c-11.3,1.7-22.7,2.3-34.1,1.8c-5.3-0.3-10.6-1-15.8-2.1c-4.9-0.9-9.1-2.7-13.7-4.7
			c-4.8-2-10.7-2.5-15.7-3.9c-10.3-3-20.4-7.1-29.3-13.2c-2.5-1.7-5.9-4.1-6.6-7.2c-0.7-2.8,2.2-5.5,4.7-6.5
			c3.2-1.2,7.5,0.4,8.2,3.7c0.7-1.6,3.6-1.3,3.9,0.4c0.8-0.4,1.7-0.2,2.2,0.6c0.1,0.2,0.2,0.4,0.2,0.7c0.2-1,1.1-1.6,2.1-1.4
			c0.3,0.1,0.6,0.2,0.8,0.4c-1.3-1.3-1.3-3.3-0.1-4.6c1-1.1,2.6-1.3,3.9-0.6c1.2-3,4.6-4.5,7.6-3.3c1.4,0.5,2.5,1.5,3.1,2.8
			c-0.8-1-0.6-2.5,0.4-3.3s2.5-0.6,3.3,0.4c0.1,0.1,0.1,0.1,0.2,0.2c-0.4-1.8,0.8-3.7,2.6-4.1c1.6-0.3,3.2,0.5,3.8,1.9
			c0.4-2.9,1-6.1,3.3-8.1s6.7-1.3,7.1,1.7c0.6-1.2,1.8-2,3.1-2.1c1.3,0,2.6,1.5,2.1,2.7c1.3-1.1,3.3-1,4.5,0.3
			c1.1,1.2,1,3.1-0.1,4.3c1.3-0.6,2.8,0,3.4,1.3c0.5,1,0.2,2.2-0.5,2.9c0.2-0.9,1.1-1.4,2-1.1s1.4,1.1,1.1,2l0,0
			c0.5-2,2.6-3.2,4.6-2.6c1.9,0.5,3,2.4,2.7,4.3c0.2-1.2,1.3-2.1,2.6-2c1,0.1,1.8,0.9,2,2c-0.2-1.8,1.1-3.4,3-3.6s3.4,1.1,3.6,3
			c0,0.2,0,0.5,0,0.7c0.9-0.8,2.3-0.8,3.2,0.1c0.2,0.2,0.4,0.5,0.5,0.8c0.3-3.2,3.1-5.5,6.3-5.3c3.2,0.3,5.5,3.1,5.3,6.3
			c1.5-1.4,4.5,0.1,4.2,2.2c0.4-1.9,2.2-3.1,4.1-2.8c1.9,0.4,3.1,2.2,2.8,4.1c-0.1,0.3-0.2,0.6-0.3,0.9c1.1-0.5,2.3,0,2.8,1.1
			c0.1,0.2,0.2,0.4,0.2,0.6c0.8-1.8,4.3-0.9,4,1.1c0.2-1.8,1.8-3.1,3.6-2.9c1.5,0.1,2.7,1.3,2.9,2.8c0.3-2.7,2.7-4.6,5.3-4.3
			c1.3,0.1,2.5,0.8,3.3,1.9c-0.5-0.6,0.3-1.4,1.1-1.7c3.5-1,7.5,1,9.2,4.2c1.6,3.3,1.6,7.2,0,10.5c-1.7,3.3-4.2,6-7.2,8
			C441.1,493,431.2,494.9,421.6,496.2z"/>
		<path class="st8" d="M402,444.9c0.3-1.1,1.4-1.1,1.6,0l1.8,6.9l-1.1,0.4c-0.2,0.1-0.2,0.3,0.1,0.3h1.2l4.4,16.9l-2.5,1
			c-0.3,0.2-0.2,0.4,0.1,0.4h2.8l2.9,11h-20.9l5-19.3h1.6c0.3,0,0.3-0.2,0.1-0.4l-1.4-0.8L402,444.9z"/>
	</g>
	<path id="TanahHijau3" class="st10" d="M-0.4,600V459.9c0,0,1144.4,7.3,1428.7,140.1H-0.4z"/>
	<g id="WindTurbine">
		<g id="_x31_">
			<polygon class="st11" points="367.1,548.6 344,539.2 337.4,539.5 354.4,548.6 			"/>
			<polygon class="st11" points="331.5,539.8 310.9,541.1 312.2,539.3 368.2,536.8 371.5,537.9 			"/>
			<g id="Tiang">
				<polygon class="st12" points="354.4,548.6 367.1,548.6 362.3,419.3 358.9,419.3 				"/>
				<path class="st13" d="M358.5,415.5h4c1,0,1.8,0.8,1.8,1.8v2.6c0,1-0.8,1.8-1.8,1.8h-4c-1,0-1.8-0.8-1.8-1.8v-2.6
					C356.8,416.3,357.5,415.5,358.5,415.5z"/>
				<polygon class="st13" points="360.7,421.6 355.6,548.6 354,548.6 358.8,421.6 				"/>
			</g>
			<g id="Turbine">
				<circle class="st14" cx="360.5" cy="414.5" r="74"/>
				<path class="st12" d="M359.7,410.9l-2.3,1l-1.3-3.2l-4.4-1.3l-20.9-57.8c-0.2-0.4-0.2-0.9,0-1.3l0.3-0.8
					c0.1-0.2,0.2-0.4,0.5-0.5l0.5-0.2L359.7,410.9z"/>
				<path class="st12" d="M364.1,417l0.5-2.5l3.4,0.6l3.6-2.8l59.5,15.1c0.4,0.1,0.8,0.4,1,0.7l0.5,0.7c0.1,0.2,0.2,0.4,0.1,0.6
					l-0.1,0.6L364.1,417z"/>
				<path class="st12" d="M356.8,417.5l2.1,1.5l-2,2.8l1.1,4.4l-38,48.2c-0.3,0.3-0.6,0.6-1.1,0.7l-0.8,0.2c-0.2,0-0.5,0-0.6-0.1
					l-0.5-0.3L356.8,417.5z"/>
				<circle class="st15" cx="360.5" cy="414.5" r="4.8"/>
			</g>
		</g>
		<g id="_x32_">
			<polygon class="st11" points="272.5,508.9 257.4,502.8 253.1,502.9 264.1,508.9 			"/>
			<polygon class="st11" points="249.2,503.2 235.8,504 236.7,502.9 273.2,501.2 275.3,501.9 			"/>
			<g id="Tiang-2">
				<polygon class="st12" points="264.1,508.9 272.5,508.9 269.3,424.5 267.1,424.5 				"/>
				<path class="st13" d="M267.5,422.1h1.4c1,0,1.8,0.8,1.8,1.8v0.5c0,1-0.8,1.8-1.8,1.8h-1.4c-1,0-1.8-0.8-1.8-1.8v-0.5
					C265.7,422.9,266.5,422.1,267.5,422.1z"/>
				<polygon class="st13" points="268.3,426.1 264.9,508.9 264,508.9 267,426.1 				"/>
			</g>
			<g id="Turbine-2">
				<circle class="st14" cx="268.2" cy="421.4" r="48.3"/>
				<path class="st12" d="M267.6,419.1l-1.5,0.7l-0.9-2.1l-2.8-0.9l-13.6-37.7c-0.1-0.3-0.1-0.6,0-0.8l0.2-0.5
					c0-0.1,0.2-0.3,0.3-0.3l0.4-0.2L267.6,419.1z"/>
				<path class="st12" d="M270.5,423.1l0.3-1.6l2.2,0.4l2.3-1.8l38.8,9.8c0.3,0.1,0.5,0.2,0.7,0.5l0.3,0.4c0.1,0.1,0.1,0.3,0.1,0.4
					l-0.1,0.4L270.5,423.1z"/>
				<path class="st12" d="M265.8,423.4l1.4,1l-1.3,1.8l0.7,2.9l-24.8,31.4c-0.2,0.2-0.4,0.4-0.7,0.4l-0.5,0.1c-0.1,0-0.3,0-0.4-0.1
					l-0.3-0.2L265.8,423.4z"/>
				<circle class="st15" cx="268.2" cy="421.4" r="3.1"/>
			</g>
		</g>
	</g>
	<g id="SolarPanel">
		<path class="st11" d="M497,499l-27.8,1.1c-0.1,0-0.3,0-0.4-0.1l-11.7-13c-0.2-0.2-0.2-0.5,0-0.8c0.1-0.1,0.2-0.2,0.4-0.2l27.8-1
			c0.1,0,0.3,0,0.4,0.1l11.6,13c0.2,0.2,0.2,0.5,0,0.7C497.2,498.9,497.1,498.9,497,499z"/>
		<path class="st16" d="M476.3,496.3c0,0,0.2,0.2,0.9,0.2l-0.6-0.6L476.3,496.3z"/>
		<path class="st17" d="M476.4,481.7l0.2,14.1c0,0.4,0.3,0.7,0.7,0.7c0,0,0,0,0.1,0l9.7-1.1c0.4,0,0.6-0.4,0.6-0.7c0,0,0,0,0-0.1
			l-2.8-13.9c-0.1-0.3-0.4-0.6-0.7-0.5L477,481C476.6,481.1,476.4,481.4,476.4,481.7z"/>
		<path class="st16" d="M476.3,496.3l-4.5-3.8c-0.3-0.2-0.3-0.6-0.1-0.9l1-1.2l3.7,3l0,2.8C476.6,496.3,476.5,496.4,476.3,496.3
			C476.4,496.4,476.4,496.4,476.3,496.3z"/>
		<polygon class="st18" points="472.8,490.5 476.5,490.1 476.6,493.5 		"/>
		<polygon class="st16" points="476.6,486.6 485.8,485.7 486.4,488.5 476.5,489.6 		"/>
		<path class="st19" d="M499.6,484.1l-0.4,0.2l-12.6-13.4c-0.1-0.1-0.3-0.1-0.4-0.1l-30.6,0.4c-0.1,0-0.2,0-0.2,0.1l-0.4-0.2
			l0.1,1.6l0,0c0,0.1,0.1,0.3,0.2,0.3l12.8,14.3c0.1,0.1,0.3,0.1,0.4,0.1l30.5-1.2c0.3,0,0.6-0.3,0.6-0.6l0,0L499.6,484.1z"/>
		<path class="st20" d="M499,484.8l-30.5,1.2c-0.1,0-0.3,0-0.4-0.1l-12.8-14.3c-0.2-0.2-0.2-0.6,0-0.8c0.1-0.1,0.2-0.2,0.3-0.2
			l30.5-1.2c0.2,0,0.3,0,0.4,0.1l12.8,14.3c0.2,0.2,0.2,0.6,0,0.8C499.3,484.7,499.1,484.7,499,484.8z"/>
		<path class="st21" d="M476.6,477l-13.9,0.5c-0.2,0-0.5-0.1-0.6-0.3l-4.3-4.9c-0.2-0.2-0.1-0.5,0-0.6c0.1-0.1,0.2-0.1,0.2-0.1
			l15-0.6c0.3,0,0.5,0.1,0.7,0.3l3.4,4.3c0.3,0.4,0.2,0.9-0.1,1.2C477,476.9,476.8,477,476.6,477z"/>
		<path class="st21" d="M482.5,482.6c0.3,0.4,0.2,0.9-0.2,1.2c-0.1,0.1-0.3,0.2-0.4,0.2l-13.3,0.5c-0.1,0-0.2-0.1-0.3-0.1l-3.8-4.3
			c-0.3-0.3-0.3-0.9,0.1-1.2c0.1-0.1,0.3-0.2,0.5-0.2l13.5-0.5c0.3,0,0.5,0.1,0.6,0.3L482.5,482.6z"/>
		<path class="st21" d="M489.7,476.5l-9.1,0.3c-0.3,0-0.5-0.1-0.7-0.3l-3.7-4.3c-0.3-0.3-0.3-0.9,0.1-1.2c0.1-0.1,0.3-0.2,0.5-0.2
			l9-0.3c0.1,0,0.3,0.1,0.4,0.2l4.1,4.5c0.3,0.3,0.3,0.9,0,1.2C490.1,476.4,489.9,476.5,489.7,476.5z"/>
		<path class="st21" d="M496.4,483.3l-10.4,0.4c-0.3,0-0.5-0.1-0.7-0.3l-3.6-4.2c-0.3-0.3-0.3-0.9,0.1-1.2c0.1-0.1,0.3-0.2,0.5-0.2
			l9.3-0.3c0.2,0,0.5,0.1,0.7,0.3l4.4,4.8c0.1,0.2,0.1,0.5-0.1,0.6C496.6,483.3,496.5,483.3,496.4,483.3z"/>
		<polygon class="st22" points="466.5,471.3 464.3,477.4 471.4,477.1 473.2,471 		"/>
		<polygon class="st22" points="471.2,478.3 469,484.5 476.1,484.2 478,478.1 		"/>
		<polygon class="st22" points="487.4,477.7 486.1,483.7 490.2,483.6 491.2,477.5 		"/>
		<polygon class="st22" points="481.9,470.7 480.7,476.7 484.7,476.6 485.8,470.6 		"/>
		<path class="st11" d="M521.9,522.6l-27.8,1.1c-0.1,0-0.3,0-0.4-0.1l-11.7-13c-0.2-0.2-0.2-0.5,0-0.8c0.1-0.1,0.2-0.2,0.4-0.2
			l27.8-1c0.1,0,0.3,0,0.4,0.1l11.6,13c0.2,0.2,0.3,0.5,0.1,0.7C522.2,522.5,522.1,522.6,521.9,522.6z"/>
		<path class="st16" d="M501.2,520c0,0,0.2,0.2,0.9,0.2l-0.6-0.6L501.2,520z"/>
		<path class="st17" d="M501.3,505.4l0.2,14.1c0,0.4,0.3,0.7,0.7,0.7c0,0,0,0,0.1,0l9.7-1.1c0.4,0,0.6-0.4,0.6-0.7c0,0,0,0,0-0.1
			l-2.8-13.9c-0.1-0.3-0.4-0.6-0.7-0.5l-7.1,0.8C501.5,504.8,501.3,505.1,501.3,505.4z"/>
		<path class="st16" d="M501.2,520l-4.5-3.8c-0.3-0.2-0.3-0.6-0.1-0.9l1-1.2l3.7,3v2.8C501.4,520,501.4,520,501.2,520
			C501.3,520,501.2,520,501.2,520z"/>
		<polygon class="st18" points="497.7,514.1 501.4,513.8 501.4,517.1 		"/>
		<polygon class="st16" points="501.4,510.2 510.7,509.3 511.3,512.1 501.4,513.2 		"/>
		<path class="st19" d="M524.4,507.7l-0.4,0.2l-12.6-13.4c-0.1-0.1-0.3-0.1-0.4-0.1l-30.6,0.4c-0.1,0-0.2,0-0.2,0.1l-0.4-0.2
			l0.1,1.6l0,0c0,0.1,0.1,0.3,0.2,0.3l12.8,14.3c0.1,0.1,0.3,0.1,0.4,0.1l30.6-1.2c0.3,0,0.5-0.3,0.5-0.6l0,0L524.4,507.7z"/>
		<path class="st20" d="M523.9,508.4l-30.6,1.2c-0.1,0-0.3,0-0.4-0.1l-12.8-14.3c-0.2-0.2-0.2-0.6,0-0.8c0.1-0.1,0.2-0.2,0.3-0.2
			l30.6-1.2c0.1,0,0.3,0,0.4,0.1l12.8,14.3c0.2,0.2,0.2,0.6,0,0.8C524.2,508.3,524,508.4,523.9,508.4z"/>
		<path class="st21" d="M501.5,500.6l-13.9,0.5c-0.2,0-0.5-0.1-0.6-0.3l-4.3-4.9c-0.2-0.2-0.1-0.5,0-0.6c0.1-0.1,0.2-0.1,0.2-0.1
			l15-0.6c0.3,0,0.5,0.1,0.7,0.3l3.4,4.3c0.3,0.4,0.2,0.9-0.1,1.2C501.9,500.5,501.7,500.6,501.5,500.6z"/>
		<path class="st21" d="M507.4,506.2c0.3,0.4,0.2,0.9-0.1,1.2c-0.1,0.1-0.3,0.2-0.5,0.2l-13.3,0.6c-0.1,0-0.2-0.1-0.3-0.1l-3.8-4.3
			c-0.3-0.3-0.3-0.9,0.1-1.2c0.1-0.1,0.3-0.2,0.5-0.2l13.5-0.5c0.3,0,0.5,0.1,0.6,0.3L507.4,506.2z"/>
		<path class="st21" d="M514.6,500.1l-9.1,0.3c-0.3,0-0.5-0.1-0.7-0.3l-3.7-4.3c-0.3-0.3-0.3-0.9,0.1-1.2c0.1-0.1,0.3-0.2,0.5-0.2
			l9-0.3c0.1,0,0.3,0.1,0.4,0.2l4.1,4.5c0.3,0.3,0.3,0.9,0,1.2C515,500.1,514.8,500.1,514.6,500.1z"/>
		<path class="st21" d="M521.3,506.9l-10.4,0.4c-0.3,0-0.5-0.1-0.7-0.3l-3.6-4.2c-0.3-0.3-0.3-0.9,0.1-1.2c0.1-0.1,0.3-0.2,0.5-0.2
			l9.3-0.3c0.2,0,0.5,0.1,0.7,0.3l4.4,4.8c0.2,0.2,0.1,0.4,0,0.6C521.5,506.9,521.4,506.9,521.3,506.9z"/>
		<polygon class="st22" points="491.4,494.9 489.2,501 496.3,500.8 498.1,494.6 		"/>
		<polygon class="st22" points="496.1,502 493.9,508.1 501,507.9 502.9,501.7 		"/>
		<polygon class="st22" points="512.2,501.3 511,507.4 515,507.2 516.1,501.2 		"/>
		<polygon class="st22" points="506.8,494.3 505.6,500.4 509.6,500.2 510.6,494.2 		"/>
		<path class="st11" d="M448.3,499l-27.8,1.1c-0.1,0-0.3,0-0.4-0.1l-11.7-13c-0.2-0.2-0.2-0.5,0-0.8c0.1-0.1,0.2-0.2,0.4-0.2l27.8-1
			c0.1,0,0.3,0,0.4,0.1l11.6,13c0.2,0.2,0.2,0.5,0,0.7C448.5,498.9,448.4,498.9,448.3,499z"/>
		<path class="st16" d="M427.6,496.3c0,0,0.2,0.2,0.9,0.2l-0.6-0.6L427.6,496.3z"/>
		<path class="st17" d="M427.7,481.7l0.2,14.1c0,0.4,0.3,0.7,0.7,0.7c0,0,0,0,0.1,0l9.7-1.1c0.4,0,0.6-0.4,0.6-0.7c0,0,0,0,0-0.1
			l-2.8-13.9c-0.1-0.3-0.4-0.6-0.7-0.5l-7.1,0.8C427.9,481.1,427.7,481.4,427.7,481.7z"/>
		<path class="st16" d="M427.6,496.3l-4.5-3.8c-0.3-0.2-0.3-0.6-0.1-0.9l1-1.2l3.7,3l0,2.8c0,0.1-0.1,0.2-0.1,0.2
			C427.7,496.4,427.6,496.4,427.6,496.3z"/>
		<polygon class="st18" points="424.1,490.5 427.8,490.1 427.8,493.5 		"/>
		<polygon class="st16" points="427.8,486.6 437.1,485.7 437.6,488.5 427.8,489.6 		"/>
		<path class="st19" d="M450.8,484.1l-0.4,0.2l-12.6-13.4c-0.1-0.1-0.3-0.1-0.4-0.1l-30.6,0.4c-0.1,0-0.2,0-0.2,0.1l-0.4-0.2
			l0.1,1.6l0,0c0,0.1,0.1,0.3,0.2,0.3l12.8,14.3c0.1,0.1,0.3,0.1,0.4,0.1l30.6-1.2c0.3,0,0.5-0.3,0.5-0.6l0,0L450.8,484.1z"/>
		<path class="st20" d="M450.2,484.8l-30.5,1.2c-0.1,0-0.3,0-0.4-0.1l-12.8-14.3c-0.2-0.2-0.2-0.6,0-0.8c0.1-0.1,0.2-0.2,0.3-0.2
			l30.5-1.2c0.2,0,0.3,0,0.4,0.1l12.8,14.3c0.2,0.2,0.2,0.6,0,0.8C450.5,484.7,450.4,484.7,450.2,484.8z"/>
		<path class="st21" d="M427.9,477l-13.9,0.5c-0.2,0-0.5-0.1-0.6-0.3l-4.3-4.9c-0.2-0.2-0.1-0.5,0-0.6c0.1-0.1,0.2-0.1,0.2-0.1
			l15-0.6c0.3,0,0.5,0.1,0.7,0.3l3.4,4.3c0.3,0.3,0.3,0.9-0.1,1.2C428.2,476.9,428.1,477,427.9,477z"/>
		<path class="st21" d="M433.8,482.6c0.3,0.4,0.2,0.9-0.2,1.2c-0.1,0.1-0.3,0.2-0.4,0.2l-13.3,0.5c-0.1,0-0.2-0.1-0.3-0.1l-3.8-4.3
			c-0.3-0.3-0.3-0.9,0.1-1.2c0.1-0.1,0.3-0.2,0.5-0.2l13.5-0.5c0.3,0,0.5,0.1,0.6,0.3L433.8,482.6z"/>
		<path class="st21" d="M441,476.5l-9.1,0.3c-0.3,0-0.5-0.1-0.7-0.3l-3.7-4.3c-0.3-0.3-0.3-0.9,0.1-1.2c0.1-0.1,0.3-0.2,0.5-0.2
			l9-0.3c0.1,0,0.3,0.1,0.4,0.2l4.1,4.5c0.3,0.3,0.3,0.9,0,1.2C441.4,476.4,441.2,476.5,441,476.5z"/>
		<path class="st21" d="M447.7,483.3l-10.4,0.4c-0.3,0-0.5-0.1-0.7-0.3l-3.6-4.2c-0.3-0.3-0.3-0.9,0.1-1.2c0.1-0.1,0.3-0.2,0.5-0.2
			l9.3-0.3c0.2,0,0.5,0.1,0.7,0.3l4.4,4.8c0.1,0.2,0.1,0.5-0.1,0.6C447.9,483.3,447.8,483.3,447.7,483.3z"/>
		<polygon class="st22" points="417.7,471.3 415.5,477.4 422.6,477.1 424.5,471 		"/>
		<polygon class="st22" points="422.5,478.3 420.3,484.5 427.4,484.2 429.2,478.1 		"/>
		<polygon class="st22" points="438.6,477.7 437.4,483.7 441.4,483.6 442.4,477.5 		"/>
		<polygon class="st22" points="433.2,470.7 432,476.7 436,476.6 437,470.6 		"/>
		<path class="st11" d="M474.7,522.6l-27.7,1.1c-0.1,0-0.3,0-0.4-0.1l-11.6-13c-0.2-0.2-0.3-0.5-0.1-0.7c0.1-0.1,0.2-0.2,0.4-0.2
			l27.7-1c0.1,0,0.3,0,0.4,0.1l11.7,13c0.2,0.2,0.2,0.6,0,0.8C475,522.5,474.8,522.6,474.7,522.6z"/>
		<path class="st16" d="M454,520c0,0,0.2,0.2,0.9,0.2l-0.6-0.6L454,520z"/>
		<path class="st17" d="M454.1,505.4l0.2,14.1c0,0.4,0.3,0.7,0.7,0.7c0,0,0,0,0.1,0l9.7-1.1c0.4,0,0.6-0.4,0.6-0.7c0,0,0,0,0,0
			l-2.8-13.9c-0.1-0.3-0.4-0.6-0.7-0.5l-7.1,0.8C454.4,504.8,454.1,505.1,454.1,505.4z"/>
		<path class="st16" d="M454,520l-4.5-3.8c-0.3-0.2-0.3-0.6-0.1-0.9l1-1.2l3.7,3v2.8C454.3,520,454.2,520,454,520
			C454.1,520,454.1,520,454,520z"/>
		<polygon class="st18" points="450.6,514.1 454.2,513.8 454.3,517.1 		"/>
		<polygon class="st16" points="454.3,510.2 463.5,509.3 464.1,512.1 454.2,513.2 		"/>
		<path class="st19" d="M477.3,507.7l-0.4,0.2l-12.6-13.4c-0.1-0.1-0.3-0.2-0.4-0.1l-30.6,0.4c-0.1,0-0.2,0-0.2,0.1l-0.4-0.2
			l0.1,1.6l0,0c0,0.1,0.1,0.3,0.2,0.3l12.8,14.3c0.1,0.1,0.3,0.2,0.4,0.1l30.5-1.2c0.3,0,0.5-0.3,0.5-0.6l0,0L477.3,507.7z"/>
		<path class="st20" d="M476.7,508.4l-30.5,1.2c-0.1,0-0.3,0-0.4-0.1l-12.8-14.3c-0.2-0.2-0.2-0.6,0-0.8c0.1-0.1,0.2-0.2,0.3-0.2
			l30.5-1.2c0.1,0,0.3,0,0.4,0.1l12.8,14.3c0.2,0.2,0.2,0.6,0,0.8C477,508.3,476.8,508.4,476.7,508.4z"/>
		<path class="st21" d="M454.4,500.6l-13.9,0.5c-0.2,0-0.5-0.1-0.6-0.3l-4.3-4.9c-0.2-0.2-0.1-0.5,0-0.6c0.1-0.1,0.2-0.1,0.2-0.1
			l15-0.6c0.3,0,0.5,0.1,0.6,0.3l3.4,4.3c0.3,0.4,0.2,0.9-0.2,1.2C454.7,500.5,454.5,500.6,454.4,500.6z"/>
		<path class="st21" d="M460.2,506.2c0.3,0.4,0.2,0.9-0.1,1.2c-0.1,0.1-0.3,0.2-0.5,0.2l-13.3,0.6c-0.1,0-0.2-0.1-0.3-0.1l-3.8-4.3
			c-0.3-0.3-0.3-0.9,0.1-1.2c0.1-0.1,0.3-0.2,0.5-0.2l13.5-0.5c0.3,0,0.5,0.1,0.7,0.3L460.2,506.2z"/>
		<path class="st21" d="M467.4,500.1l-9.1,0.3c-0.3,0-0.5-0.1-0.7-0.3l-3.7-4.3c-0.3-0.3-0.3-0.9,0.1-1.2c0.1-0.1,0.3-0.2,0.5-0.2
			l9-0.3c0.1,0,0.3,0.1,0.3,0.2l4.2,4.5c0.3,0.3,0.3,0.9,0,1.2C467.8,500.1,467.6,500.1,467.4,500.1z"/>
		<path class="st21" d="M474.2,506.9l-10.4,0.4c-0.3,0-0.5-0.1-0.7-0.3l-3.6-4.2c-0.3-0.3-0.3-0.9,0.1-1.2c0.1-0.1,0.3-0.2,0.5-0.2
			l9.3-0.3c0.2,0,0.5,0.1,0.7,0.3l4.4,4.8c0.2,0.2,0.1,0.4,0,0.6C474.4,506.9,474.3,506.9,474.2,506.9z"/>
		<polygon class="st22" points="444.2,494.9 442,501 449.1,500.8 451,494.6 		"/>
		<polygon class="st22" points="448.9,502 446.8,508.1 453.8,507.9 455.7,501.7 		"/>
		<polygon class="st22" points="465.1,501.3 463.9,507.4 467.9,507.2 468.9,501.2 		"/>
		<polygon class="st22" points="459.6,494.3 458.4,500.4 462.4,500.2 463.5,494.2 		"/>
	</g>
	<g id="Rumah">
		<path class="st7" d="M1246,509.2c-0.1-2,0.9-3.9,2.6-5c1.7-0.9,3.8-0.7,5.4,0.5c0.2-2.7,2-5.1,4.5-6.2c2.5-0.9,5.4-0.2,7.2,1.8
			c0.9-1.2,2.4-1.8,3.8-1.4c1.5,0.4,2.7,1.6,3,3.1c2.1-2.2,5.4-2.8,8.1-1.4c2.7,1.6,4.3,4.6,4.1,7.8
			C1271.3,508.4,1258,509.2,1246,509.2z"/>
		<rect x="1294.2" y="484.9" class="st23" width="42.5" height="25"/>
		<rect x="1294.9" y="485.6" class="st24" width="40.9" height="23.5"/>
		<rect x="1295.5" y="486.9" class="st25" width="39.8" height="8.9"/>
		<path class="st26" d="M1311.5,504.2c0,0,0-0.1,0-0.1V504v-0.1c0,0,0-0.1-0.1-0.1v-0.1l-0.1-0.1l-0.1-0.1l-0.1-0.1l-0.2,0l-0.1-0.1
			l-0.1-0.1c0,0-0.1,0-0.1-0.1l-0.1,0l0,0h0.1l0.1-0.1c0.1,0,0.1-0.1,0.2-0.2c0,0,0.1-0.1,0.1-0.1c0,0,0,0,0,0v-0.1v-0.2
			c0,0,0,0,0-0.1c0,0,0-0.1,0-0.1c0,0,0,0,0-0.1v-0.1V502c0,0,0-0.1-0.1-0.1l0,0l-0.1-0.1l0,0c0,0,0-0.1-0.1-0.1l0,0
			c-0.3-0.4-0.8-0.7-0.9-0.7c0.3-0.6,0.5-1.2,0.6-1.9c0-0.1,0-0.2,0-0.3c0,0,0,0,0-0.1c0-0.1,0-0.2,0-0.3l0,0
			c-0.1-0.2-0.1-0.4-0.3-0.6l0,0c-0.1-0.2-0.3-0.3-0.4-0.4c-0.4-0.2-0.8-0.3-1.3-0.2c0.2-0.2,0.2-0.6,0.1-0.8
			c-0.2-0.3-0.5-0.4-0.7-0.2c0-0.1,0-0.3,0-0.4c0-0.1-0.2-0.2-0.3-0.1c0,0,0,0-0.1,0c0.1-0.9-0.3-1.7-1.1-2.1
			c-0.8-0.3-1.7-0.2-2.4,0.3c-0.1-0.2-0.3-0.4-0.5-0.3c0,0,0,0,0,0c0.1-0.2,0-0.4-0.1-0.5c0,0,0,0-0.1,0c-0.2,0-0.4,0-0.6,0.2
			c-0.1-0.3-0.2-0.7-0.2-1c0-0.2-0.1-0.3-0.2-0.4c-0.1-0.1-0.3-0.1-0.5,0l-0.2,0.1h-0.1l-0.1,0.1l-0.1,0l-0.1,0.1l-0.1,0.1l-0.1,0.1
			l-0.1,0.1l-0.1,0.1l-0.1,0.1l-0.1,0.1l-0.1,0.1l0,0v0l-0.1,0.1l-0.1,0.1l0,0l0,0l0,0c-0.4,0.5-0.7,1-0.8,1.6l0,0
			c0,0.1-0.1,0.3-0.1,0.4c0,0.1,0,0.2-0.1,0.3c-0.1,0.1-0.1,0.1-0.2,0.2c-0.1,0.1-0.2,0.3-0.1,0.5c-0.2,0.2-0.4,0.4-0.4,0.7
			c-0.1-0.2-0.2-0.4-0.4-0.6l0,0l-0.1-0.1h-0.1l0,0h-0.1c-0.1,0-0.1,0-0.2,0l0,0h-0.1l0,0h-0.1l0,0h-0.1l0,0h-0.1l0,0l0,0l0,0l0,0
			l-0.1,0.1l-0.2,0.2v0.1l-0.2,0.2l0,0l-0.1,0.2c-0.4,0.8,0.2,1.8,0.2,2.8c-0.1-0.1-0.2,0.2-0.2,0.3s0.2,0.3,0.1,0.5
			c-0.2-0.1-0.4,0-0.5,0.2c0,0,0,0.1,0,0.1c0-0.2-0.3-0.2-0.4-0.1c-0.1,0.2-0.2,0.3-0.1,0.5c0,0.4,0,0.8,0.1,1.2l0,0
			c0,0.1,0,0.2,0.1,0.3l0,0c0,0.1,0,0.2,0.1,0.3l0,0c0,0.1,0,0.2,0.1,0.3l0,0c0,0.1,0.1,0.2,0.1,0.3c0,0,0,0,0,0.1l0.1,0.2l0,0
			c0.1,0.1,0.1,0.2,0.2,0.2v0l0.2,0.2c-0.2,0.2-0.2,0.4,0,0.6c0,0,0,0,0,0c-0.1-0.2-0.5-0.1-0.6,0.2c0,0.3,0.1,0.5,0.3,0.7
			c0.9,1,2.2,1.3,3.5,0.9c-0.1,0.1-0.2,0.2-0.2,0.3c0.5,0.2,1,0.2,1.5,0c0.2,0.1,0.5,0.1,0.7,0.1c0.4,0,0.7,0,1.1-0.1
			c0.2,0.2,0.3,0.4,0.4,0.6c-0.1,0.5-0.5,0.9-0.8,0.9h1.6c-0.2-0.4-0.4-0.8-0.5-1.3c0.1-0.2,0.1-0.3,0.2-0.5
			c0.4,0.1,0.8,0.1,1.2,0.1c0.2,0,0.5-0.1,0.7-0.1c1.3,0.5,2.8,0.7,4.2,0.5c0.2,0,0.3-0.1,0.5-0.2c0.1-0.1,0.2-0.3,0.1-0.5l-0.1-0.1
			l0,0l-0.1-0.1l0,0l-0.1,0l-0.8-0.2c0.3-0.1,0.5-0.2,0.8-0.4l0,0c0.1-0.1,0.2-0.1,0.3-0.2l0,0c0.1-0.1,0.2-0.2,0.3-0.3
			c0.2-0.2,0.3-0.3,0.4-0.6c0-0.1,0-0.1,0-0.2C1311.9,504,1311.5,504.2,1311.5,504.2z M1301.9,507l-0.4-0.1c0.3-0.1,0.5-0.2,0.8-0.3
			l0.2,0.1c0.1,0.1,0.3,0.2,0.4,0.2C1302.6,507,1302.3,507,1301.9,507L1301.9,507z M1302.8,506.4l-0.1-0.1c0.2-0.1,0.5-0.2,0.7-0.3
			c0,0.1,0,0.1,0,0.2c0,0.2,0.1,0.5,0.1,0.7C1303.3,506.8,1303,506.6,1302.8,506.4L1302.8,506.4z M1303.7,506.6
			c0-0.2-0.1-0.4-0.1-0.6h0.1l0.6,0.1c-0.2,0.2-0.4,0.4-0.6,0.7L1303.7,506.6z M1305.2,506.6c-0.3,0-0.7,0-1-0.1l0,0
			c0.1-0.1,0.2-0.2,0.3-0.3c0.4,0.1,0.8,0.2,1.3,0.4L1305.2,506.6z"/>
		<path class="st26" d="M1309.4,496.4c0.4,0.6,1-1,1-1S1309,495.7,1309.4,496.4z"/>
		<path class="st26" d="M1309.2,495.6c0.6,0.2,0.3-1.4,0.3-1.4S1308.4,495.3,1309.2,495.6z"/>
		<path class="st26" d="M1304.2,492.9c0.6,0.3,0.4-1.4,0.4-1.4S1303.4,492.5,1304.2,492.9z"/>
		<path class="st26" d="M1303.6,492.2c0.6-0.2-0.4-1.4-0.4-1.4S1302.8,492.4,1303.6,492.2z"/>
		<path class="st26" d="M1297.7,495.1c0.6-0.2-0.3-1.4-0.3-1.4S1296.9,495.3,1297.7,495.1z"/>
		<path class="st26" d="M1299,494.2c0,0-1.2,0.6-0.6,1.2S1299,494.2,1299,494.2z"/>
		<path class="st26" d="M1297,495.6c0.3-0.7-1.3-0.4-1.3-0.4S1296.6,496.7,1297,495.6z"/>
		<path class="st26" d="M1329.9,505.6C1329.9,505.6,1329.9,505.6,1329.9,505.6c0-0.1,0-0.1,0-0.1v0v-0.1v0v-0.1v0l-0.1-0.1l0,0
			l-0.1-0.1h-0.1l0,0l0,0h0.1l0.1-0.1l0.2-0.1c0,0,0-0.1,0.1-0.1l0,0c0,0,0,0,0-0.1l0,0c0,0,0,0,0-0.1c0,0,0,0,0,0c0,0,0,0,0-0.1
			l0,0c0,0,0-0.1,0-0.1s0,0,0,0v-0.1l0,0v-0.1l0,0l-0.1-0.1l0,0c-0.2-0.3-0.5-0.5-0.6-0.5c0.3-0.4,0.4-0.9,0.5-1.4
			c0-0.1,0-0.2,0-0.2l0,0c0-0.1,0-0.1,0-0.2l0,0c0-0.2-0.1-0.3-0.2-0.4l0,0c-0.1-0.1-0.2-0.2-0.3-0.3c-0.3-0.1-0.6-0.2-0.9-0.1
			c0.2-0.2,0.2-0.4,0.1-0.6c-0.1-0.2-0.3-0.3-0.5-0.2c0-0.1,0-0.2,0-0.3c-0.1-0.1-0.2-0.2-0.2-0.1c0.1-0.6-0.2-1.3-0.8-1.5
			c-0.6-0.2-1.2-0.1-1.7,0.2c0-0.2-0.2-0.3-0.4-0.2c0,0,0,0,0,0c0.1-0.1,0-0.3-0.1-0.3c0,0,0,0-0.1,0c-0.1,0-0.3,0-0.4,0.1l-0.1-0.7
			c0-0.1-0.1-0.2-0.1-0.3c-0.1-0.1-0.2-0.1-0.3,0c-0.1,0-0.2,0.1-0.3,0.1l-0.1,0.1c-0.1,0-0.1,0.1-0.2,0.1l-0.1,0.1l-0.2,0.1l0,0
			l0,0l0,0l-0.1,0.1l-0.1,0.1l-0.1,0.1l-0.1,0.1l0,0v0l-0.1,0.1l-0.1,0.1c0,0,0,0,0,0.1v0.1l0,0c0,0,0,0.1-0.1,0.1l0,0l0,0l-0.1,0.2
			l-0.1,0.2l0,0l0,0c0,0.1-0.1,0.2-0.1,0.3c0,0.1,0,0.1-0.1,0.2c-0.1,0-0.1,0.1-0.2,0.1c-0.1,0.1-0.1,0.3,0,0.4
			c-0.2,0.1-0.3,0.3-0.3,0.5c-0.1-0.2-0.1-0.3-0.2-0.4l0,0l-0.1-0.1l0,0c0,0-0.1,0-0.1,0c-0.1,0-0.1,0-0.2,0l0,0l-0.1,0.1l0,0
			l-0.1,0.1l0,0l-0.1,0.1l-0.1,0.2l0,0c-0.1,0.1-0.2,0.2-0.2,0.3c-0.3,0.6,0.1,1.3,0,2c-0.1,0-0.2,0.1-0.2,0.2s0.1,0.2,0,0.3
			c-0.1-0.1-0.3,0-0.4,0.1c0,0,0,0,0,0.1c0-0.1-0.2-0.2-0.3-0.1c-0.1,0.1-0.1,0.2-0.1,0.4v0.6l0,0c0,0,0,0.1,0,0.1
			c0,0.1,0,0.1,0,0.2s0,0.1,0,0.1c0,0.1,0,0.1,0,0.2c0,0,0,0.1,0,0.1c0,0.1,0,0.2,0.1,0.3v0c0,0.1,0,0.1,0.1,0.2c0,0,0,0.1,0,0.1
			c0,0.1,0.1,0.1,0.1,0.2c0,0,0,0,0,0.1c0.1,0.1,0.1,0.2,0.2,0.2c-0.1,0.1-0.1,0.3,0,0.4c0,0,0,0,0,0c-0.1-0.2-0.3-0.1-0.4,0.1
			c-0.3-0.9-0.5-1.7-0.7-2.6c0-0.1,0-0.1,0-0.2c-0.1-0.4-0.1-0.8-0.2-1.2c0,0,0-0.1,0-0.2v-0.2c0-0.1,0-0.2,0-0.3l0,0
			c0-0.1,0-0.2,0-0.3l0,0c0-0.1,0-0.2,0-0.3v-1.7l0,0v-0.3l0,0c0-0.8,0-1.5,0-1.5s0-0.6,0-1.5c0.5-0.3,0.9-0.7,1.3-1.1h0.2
			c0.4,0,0.8-0.4,0.9-0.8c0.1,0,0.2,0,0.3,0l0,0c0,0,0.1,0,0.1-0.1l0,0c0,0,0.1-0.1,0.1-0.1l0,0V494l0,0c0,0,0-0.1,0-0.2
			c0.3,0.2,0.7,0.1,1-0.2c0.3-0.3,0.3-0.7,0.2-1c0.2-0.1,0.3-0.1,0.4-0.2c0.1-0.1,0.3-0.2,0.4-0.3l0.2-0.2c0.2-0.2,0.3-0.4,0.4-0.6
			c0-0.1,0.1-0.2,0.2-0.2c0.1,0,0.2-0.1,0.3-0.1c0.3,0,0.6-0.1,0.8-0.3c0.2-0.1,0.3-0.3,0.4-0.5c0-0.1,0.1-0.1,0.1-0.2
			c0.1-0.6-0.1-1.3-0.6-1.6c0.3-0.2,0.4-0.5,0.4-0.8c0.1-0.4,0.1-0.7,0.1-1.1c0-0.2-0.1-0.5-0.2-0.7l0,0h-14.2
			c-0.1,0.2-0.2,0.4-0.3,0.7c0,0.1-0.1,0.2-0.1,0.3c0,0,0,0.1,0,0.1l0,0c0,0,0,0.1,0,0.1l0,0v0.1l0,0v0.1l0,0c0,0,0,0.1,0,0.1l0,0
			l0,0c0,0,0,0.1,0,0.1l0,0l0,0v0.1v0.1v0.1l0.2,0.2c0.1,0.1,0.1,0.2,0.2,0.2c0,0.1,0.1,0.2,0.1,0.3c0,0.1,0,0.2,0.1,0.3
			c0,0.1,0,0.1,0.1,0.2l0,0c0,0.1,0.1,0.1,0.1,0.1l0,0c0.1,0,0.1,0.1,0.2,0.1c-0.1,0.1-0.1,0.1-0.1,0.2l0,0l0,0c0,0,0,0,0,0.1
			c0,0,0,0.1,0.1,0.1c-0.2,0-0.3,0.4-0.2,0.6c0,0.2,0.1,0.4,0.2,0.6l0,0l0,0l0.1,0.1l0,0l0.1,0.1l0,0c0.1,0,0.1,0.1,0.2,0.1h0.1
			c0,0,0.1,0.1,0.1,0.2c0,0,0,0.1,0,0.1l0,0c0,0.1-0.1,0.2-0.1,0.2l0,0l-0.1,0.1c-0.2,0.5-0.2,1,0,1.5c0.2,0.5,0.7,0.8,1.2,0.8
			c0,0.2,0.3,0.3,0.6,0.2c0.1,0,0.2,0,0.2-0.1c0,0,0,0.1,0,0.1l0,0l0.1,0l0,0h0.1l0,0h0.1h0.3h0.2h0.2l0,0h0.2l0,0l0.2-0.1l0,0
			l0.1-0.1l0,0c0.2-0.1,0.4-0.3,0.4-0.5c0.1,0,0.2,0,0.2,0c0.8,0.8,1.4,1.8,1.7,2.8c0,0.6,0.1,1.5,0.1,2.4v2.1c0,0.1,0,0.1,0,0.2
			v0.5c0,0.1,0,0.1,0,0.2v0.1c0,0.1,0,0.1,0,0.2v0.1c0,0,0,0.1,0,0.2c0,0,0,0.1,0,0.1c0,0,0,0.1,0,0.1v0.1c0,0,0,0.1,0,0.1v0.1
			c0,0,0,0.1,0,0.1c0,0,0,0.1,0,0.1c0,0,0,0.1,0,0.1l0,0v0.2v0.1v0v0.1v0c0,0.1,0.1,0.2,0.1,0.4l0,0v0.2v0.1v0.2c0,0,0,0.1,0,0.1
			v0.2c0,0,0,0.1,0,0.1c0,0.1,0,0.1,0,0.2c0,0,0,0.1,0,0.1c0,0.1,0,0.1,0,0.2c0,0,0,0.1,0,0.1c0,0.1,0,0.1,0,0.2v0.1
			c0,0.1,0,0.1,0,0.2v0.1c0,0.1,0,0.1,0,0.2c0,0,0,0.1,0,0.1c0,0.1,0,0.1,0,0.2c0,0,0,0.1,0,0.1c0,0.1,0,0.1,0,0.2c0,0,0,0.1,0,0.1
			c0,0.1,0,0.2-0.1,0.2c-0.5,1.3-1,0.8-1,1.5h4.2l-0.2-0.1h-0.1l-0.2-0.1l-0.1,0l-0.2-0.1l-0.5-0.2c-0.2-0.1-0.3-0.2-0.4-0.4
			c-0.1-0.2-0.1-0.4-0.2-0.6c0,0,0-0.1,0-0.1c0-0.1,0-0.3,0-0.4l0,0c0,0.1,0.1,0.1,0.1,0.2c0.6,0.7,1.6,1,2.5,0.7
			c-0.1,0-0.1,0.1-0.2,0.2c0.3,0.1,0.7,0.1,1.1,0c0.2,0,0.3,0.1,0.5,0.1c0.3,0,0.5,0,0.8-0.1c0.1,0.1,0.2,0.3,0.3,0.4
			c-0.1,0.3-0.4,0.7-0.6,0.7h1.2c-0.1-0.3-0.2-0.6-0.3-0.9c0-0.1,0.1-0.2,0.2-0.3c0.3,0,0.6,0,0.8,0c0.2,0,0.3,0,0.5-0.1
			c0.9,0.3,1.8,0.5,2.8,0.4h0.2c0.1,0,0.3-0.1,0.4-0.2c0.1-0.1,0.1-0.2,0.1-0.4l-0.1-0.1l0,0c0,0-0.1-0.1-0.2-0.1l-0.6-0.2
			c0.2-0.1,0.4-0.2,0.6-0.3l0,0l0.2-0.2l0,0l0.2-0.2c0.1-0.1,0.2-0.3,0.3-0.4c0,0,0-0.1,0-0.1v0
			C1330.1,505.5,1330,505.6,1329.9,505.6z M1317.7,495c-0.5-0.5-1-1-1.6-1.6l0.1-0.1c0.1-0.2,0.3-0.3,0.5-0.3
			c0.1,0.4,0.4,0.6,0.8,0.6c0,0.2,0,0.4,0.1,0.6v0.1C1317.7,494.6,1317.7,494.8,1317.7,495z M1318,494.6l0.3,0.2
			c0.2,0.1,0.4,0.2,0.6,0.2c-0.3,0.2-0.6,0.4-0.9,0.5C1318,495.2,1318,494.9,1318,494.6L1318,494.6z M1323,507.7h-0.3l0.6-0.3
			l0.2,0.1l0.2,0.2C1323.4,507.8,1323.2,507.8,1323,507.7L1323,507.7z M1323.6,507.4L1323.6,507.4c0.1-0.1,0.2-0.2,0.4-0.2
			c0,0,0,0.1,0,0.2s0.1,0.3,0.1,0.5C1323.9,507.6,1323.8,507.5,1323.6,507.4L1323.6,507.4z M1324.2,507.6v-0.1c0-0.2,0-0.3,0-0.5
			h0.1l0.4,0.1C1324.6,507.3,1324.4,507.5,1324.2,507.6L1324.2,507.6z M1325.3,507.5c-0.2,0-0.5,0-0.7-0.1l0,0
			c0.1-0.1,0.1-0.2,0.2-0.3l0.9,0.3C1325.6,507.5,1325.5,507.5,1325.3,507.5L1325.3,507.5z"/>
		<rect x="1294.9" y="485.7" class="st26" width="41.3" height="0.6"/>
		<rect x="1294.9" y="508.6" class="st26" width="41.3" height="0.6"/>
		<rect x="1301.8" y="486" class="st26" width="0.6" height="23.7"/>
		<rect x="1308" y="485.6" class="st26" width="0.6" height="23.5"/>
		<rect x="1313.8" y="485.6" class="st27" width="1" height="22.5"/>
		<rect x="1308.5" y="485.2" class="st23" width="0.6" height="24.5"/>
		<polygon class="st28" points="1309.1,487.6 1308.5,487.7 1308.5,509.7 1309.1,509.7 		"/>
		<rect x="1323.7" y="485.2" class="st23" width="0.6" height="24.5"/>
		<polygon class="st29" points="1294.2,484.9 1282.8,471.6 1280.9,471.6 1271.4,484.9 1271.4,509.9 1294.2,509.9 		"/>
		<polygon class="st23" points="1325.2,471.6 1282.7,471.6 1294.2,485 1336.7,485 		"/>
		<polygon class="st26" points="1293.4,485.4 1282.4,472.8 1281.1,472.8 1272.1,485.4 1272.1,509.1 1293.4,509.1 		"/>
		<path class="st30" d="M1294.1,505.8C1294.1,505.7,1294.1,505.7,1294.1,505.8c0-0.1,0-0.1,0-0.2c0,0,0,0,0-0.1c0,0,0,0,0,0v-0.1
			l0,0c0,0,0-0.1,0-0.1v0l-0.1-0.1l0,0l-0.1-0.1l0,0l-0.1,0l0,0h0.1l0.1-0.1c0.1,0,0.1-0.1,0.2-0.1c0,0,0.1-0.1,0.1-0.1l0,0
			c0,0,0,0,0-0.1l0,0v-0.3c0,0,0,0,0-0.1l0,0c0,0,0,0,0-0.1l0,0v-0.1l0,0c0,0,0-0.1-0.1-0.1l0,0l-0.1-0.1l0,0
			c-0.2-0.2-0.4-0.4-0.6-0.5c0.3-0.4,0.4-0.9,0.5-1.3c0-0.1,0-0.1,0-0.2v0v-0.2l0,0c0-0.2-0.1-0.3-0.2-0.4l0,0
			c-0.1-0.1-0.2-0.2-0.3-0.3c-0.3-0.1-0.6-0.2-0.9-0.1c0.2-0.2,0.2-0.4,0.1-0.6c-0.1-0.2-0.3-0.3-0.5-0.2c0-0.1,0-0.2,0-0.3
			c0-0.1-0.1-0.1-0.2-0.1c0,0,0,0,0,0c0.1-0.6-0.2-1.2-0.8-1.5c-0.6-0.2-1.2-0.1-1.7,0.2c0-0.2-0.2-0.3-0.4-0.2c0,0,0,0,0,0
			c0.1-0.1,0-0.3-0.1-0.3c0,0,0,0-0.1,0c-0.1,0-0.3,0-0.4,0.1c0-0.2-0.1-0.5-0.1-0.7c0-0.1-0.1-0.2-0.1-0.3c-0.1,0-0.2,0-0.3,0
			c-0.1,0-0.2,0.1-0.3,0.1l-0.1,0.1c-0.1,0-0.1,0.1-0.2,0.1l-0.1,0.1l-0.2,0.1l0,0l0,0l0,0l-0.1,0.1l-0.1,0.1v0.1l-0.1,0.1l0,0v0.1
			c0,0,0,0.1,0,0.1l-0.1,0.1c0,0,0,0,0,0.1v0.1l0,0c0,0,0,0.1-0.1,0.1l0,0l0,0c0,0,0,0.1,0,0.2c0,0.1-0.1,0.1-0.1,0.2l0,0l0,0
			c0,0.1-0.1,0.2-0.1,0.3c0,0.1,0,0.1-0.1,0.2c0,0-0.1,0.1-0.2,0.1c-0.1,0.1-0.1,0.2-0.1,0.4c-0.2,0.1-0.3,0.3-0.3,0.5
			c-0.1-0.2-0.1-0.3-0.2-0.4l0,0l-0.1-0.1l0,0h-0.1c-0.1,0-0.1,0-0.2,0l0,0l-0.1,0.1l0,0l-0.1,0.1l0,0l-0.1,0.1l-0.1,0.2l0,0
			c-0.1,0.1-0.2,0.2-0.2,0.3c-0.3,0.6,0.1,1.3,0,2c-0.1-0.1-0.2,0.1-0.2,0.2s0.1,0.2,0,0.3c-0.1-0.1-0.3,0-0.4,0.1c0,0,0,0,0,0.1
			c0-0.1-0.2-0.2-0.3-0.1c-0.1,0.1-0.1,0.2-0.1,0.4c0,0.2,0,0.4,0,0.6l0,0v0.1c0,0.1,0,0.1,0,0.2c0,0,0,0.1,0,0.1v0.2
			c0,0,0,0.1,0,0.1s0,0.2,0.1,0.3s0,0,0,0c0,0.1,0.1,0.1,0.1,0.2v0.1c0,0.1,0.1,0.1,0.1,0.2l0.1,0.1c0.1,0.1,0.1,0.1,0.2,0.2
			c-0.1,0.1-0.1,0.3,0,0.4c0,0,0,0,0,0c-0.1-0.2-0.3,0-0.4,0.1c-0.3-0.8-0.5-1.7-0.7-2.6c0-0.1,0-0.1,0-0.2
			c-0.1-0.4-0.1-0.8-0.2-1.2c0-0.1,0-0.1,0-0.2c0,0,0-0.1,0-0.1c0-0.1,0-0.2,0-0.3l0,0v-0.3c0-0.1,0-0.2,0-0.3v-1.5l0,0v-0.3l0,0
			c0-0.8,0-1.4,0-1.4s0-0.6,0-1.4c0.5-0.3,0.9-0.7,1.3-1.1h0.2c0.4,0,0.8-0.4,0.9-0.8c0.1,0,0.2,0,0.3,0l0,0c0,0,0.1,0,0.1-0.1l0,0
			c0,0,0.1-0.1,0.1-0.1l0,0c0,0,0-0.1,0.1-0.1l0,0c0,0,0-0.1,0-0.2c0.3,0.1,0.7,0.1,1-0.2c0.2-0.3,0.3-0.7,0.2-1
			c0.2-0.1,0.3-0.1,0.4-0.2c0.1-0.1,0.3-0.2,0.4-0.3l0.2-0.2c0.2-0.2,0.3-0.4,0.4-0.6c0-0.1,0.1-0.2,0.2-0.2c0.1,0,0.2,0,0.3,0
			c0.3,0,0.6-0.1,0.8-0.3c0.2-0.1,0.3-0.3,0.4-0.5c0-0.1,0-0.1,0.1-0.2c0.1-0.6-0.1-1.2-0.6-1.6c0.3-0.2,0.4-0.5,0.4-0.8
			c0.1-0.3,0.2-0.7,0.1-1.1c0-0.2-0.1-0.5-0.2-0.7c-0.1-0.1-0.2-0.2-0.3-0.3c-0.1-0.1-0.2-0.1-0.3-0.2l0,0l-0.1-0.1c0,0,0,0,0,0
			c0-0.1-0.1-0.2-0.1-0.3c0,0,0-0.1,0-0.1l-0.1-0.8c0,0,0-0.1,0-0.1c0-0.1,0-0.2-0.1-0.2c0,0,0-0.1-0.1-0.1l0,0l0,0l0,0l0,0l0,0
			h-0.1l0,0h-0.1h-0.6c0-0.1-0.1-0.2-0.2-0.2c0,0-0.1,0-0.1,0c0-0.1,0-0.2,0-0.4l0,0c0-0.1,0-0.1,0-0.2l-0.1-0.3c0-0.1,0-0.1,0-0.2
			l0,0v-0.5l0,0l0,0c0-0.1-0.1-0.2-0.1-0.3V482c0,0,0-0.1-0.1-0.1l0,0v0c0,0,0,0,0-0.1v-0.1v-0.1l-0.1-0.1l-0.1-0.1v0v-0.1
			c-0.1-0.1-0.1-0.2-0.2-0.2c-0.1-0.1-0.2-0.2-0.3-0.2l0,0c-0.6-0.4-1.5-0.5-2.1-0.1c-0.1,0-0.1,0.1-0.2,0.1c0,0-0.1,0-0.1,0
			l-0.1-0.1l-0.1,0c0,0-0.1,0-0.1,0l0,0c0.1-0.2-0.1-0.4-0.3-0.5c-0.2-0.1-0.4-0.2-0.6-0.2h-0.2c-0.1,0-0.3,0.1-0.4,0.2
			c0,0,0,0.1,0,0.1c0,0.1-0.1,0.2-0.2,0.3c-0.2,0.2-0.6,0.2-0.8,0.4c-0.1,0.1-0.2,0.2-0.4,0.3c-0.2,0.1-0.3,0.1-0.5,0.1
			s-0.3,0.3-0.2,0.4c-0.6-0.2-1.3,0-1.8,0.4c-0.5,0.4-0.8,1-1,1.5c0,0.1-0.1,0.2-0.1,0.3c0,0.1,0,0.2,0,0.3c0,0.1,0.1,0.2,0.1,0.3
			c0.1,0.1,0.1,0.2,0.1,0.3c0,0.2-0.1,0.5-0.3,0.5c0,0-0.1-0.1-0.1-0.1l-0.1-0.1h-0.1c-0.1,0-0.1,0-0.2,0c-0.1,0-0.1,0-0.2,0.1
			l-0.2,0.1c-0.1,0.1-0.3,0.3-0.4,0.5c-0.2,0.2-0.3,0.5-0.4,0.8c0,0.1-0.1,0.2-0.1,0.3v0.1l0,0c0,0,0,0.1,0,0.1l0,0v0.1l0,0v0.1
			c0,0,0,0.1,0,0.1l0,0l0,0c0,0,0,0.1,0,0.1l0,0l0,0v0.1v0.1v0.1l0.2,0.2c0.1,0.1,0.1,0.2,0.2,0.2c0,0.1,0.1,0.2,0.1,0.3
			c0,0.1,0,0.2,0.1,0.3c0,0.1,0,0.1,0.1,0.2l0,0c0,0,0.1,0.1,0.1,0.1l0,0c0.1,0,0.1,0.1,0.2,0.1c-0.1,0-0.1,0.1-0.1,0.2l0,0l0,0
			c0,0,0,0,0,0.1c0,0,0,0.1,0.1,0.1c-0.2,0-0.3,0.4-0.2,0.6c0,0.2,0.1,0.4,0.2,0.6l0,0l0,0l0.1,0.1l0,0c0,0,0,0,0.1,0.1l0,0
			c0.1,0,0.1,0.1,0.2,0.1h0.1c0,0,0.1,0.1,0.1,0.2c0,0,0,0.1,0,0.1l0,0c0,0.1-0.1,0.2-0.1,0.2l0,0l-0.1,0.1c-0.2,0.4-0.2,1,0,1.4
			c0.2,0.4,0.7,0.7,1.2,0.8c0.1,0.2,0.3,0.3,0.6,0.2l0.2-0.1c0,0,0,0.1,0,0.1l0,0h0.1l0,0h0.1l0,0h0.1h0.3h0.2l0.2,0l0,0h0.2l0,0
			l0.2-0.1l0,0l0.1-0.1l0,0c0.2-0.1,0.3-0.3,0.4-0.5c0.1,0,0.2,0,0.3,0c0.8,0.8,1.4,1.7,1.7,2.8c0,0.6,0,1.5,0.1,2.4v2.7
			c0,0,0,0.1,0,0.2v0.1c0,0,0,0.1,0,0.2v0.1c0,0,0,0.1,0,0.2c0,0,0,0.1,0,0.1c0,0,0,0.1,0,0.1v0.1c0,0,0,0.1,0,0.1c0,0,0,0.1,0,0.1
			c0,0,0,0.1,0,0.1c0,0,0,0.1,0,0.1c0,0,0,0.1,0,0.1c0,0,0,0,0,0.1v0.1v0.1l0,0v0.1l0,0c0,0.1,0.1,0.2,0.1,0.4l0,0
			c0,0.1,0,0.1,0,0.2v0.1v0.2c0,0,0,0.1,0,0.1v0.2c0,0,0,0.1,0,0.1v0.2c0,0,0,0.1,0,0.1s0,0.1,0,0.2c0,0,0,0.1,0,0.1
			c0,0.1,0,0.1,0,0.2v0.1c0,0.1,0,0.1,0,0.2v0.1c0,0.1,0,0.1,0,0.2c0,0,0,0.1,0,0.1c0,0.1,0,0.1,0,0.2c0,0,0,0.1,0,0.1
			c0,0.1,0,0.1,0,0.2c0,0,0,0.1,0,0.1s0,0.2-0.1,0.2c-0.5,1.2-1,0.8-1,1.4h4.2l-0.2-0.1h-0.1l-0.2-0.1h-0.1l-0.2-0.1l-0.5-0.2
			c-0.2-0.1-0.3-0.2-0.4-0.4c-0.1-0.2-0.1-0.4-0.2-0.6c0,0,0-0.1,0-0.2c0-0.1,0-0.3,0-0.4l0,0c0,0.1,0.1,0.1,0.1,0.2
			c0.6,0.7,1.6,1,2.5,0.7c-0.1,0-0.1,0.1-0.2,0.2c0.3,0.1,0.7,0.1,1.1,0c0.2,0,0.3,0.1,0.5,0.1c0.3,0,0.5,0,0.8-0.1
			c0.1,0.1,0.2,0.3,0.3,0.4c-0.1,0.3-0.3,0.7-0.6,0.7h1.2c-0.1-0.3-0.2-0.6-0.3-0.9c0.1-0.1,0.1-0.2,0.2-0.3c0.3,0,0.6,0,0.8,0
			c0.2,0,0.3,0,0.5-0.1c0.9,0.3,1.8,0.5,2.8,0.4l0,0h0.2c0.1,0,0.3-0.1,0.4-0.2c0.1-0.1,0.1-0.2,0.1-0.4l-0.1-0.1l0,0
			c-0.1,0-0.1-0.1-0.2-0.1l-0.6-0.2c0.2-0.1,0.4-0.2,0.6-0.3l0,0l0.2-0.2l0,0l0.3-0.2c0.1-0.1,0.2-0.2,0.3-0.4c0,0,0-0.1,0-0.1
			L1294.1,505.8z M1282.1,495.8c0-0.3,0-0.6,0-0.9l0.3,0.2c0.2,0.1,0.4,0.2,0.6,0.2C1282.8,495.4,1282.5,495.6,1282.1,495.8
			L1282.1,495.8z M1280.3,493.8L1280.3,493.8c0.2-0.2,0.4-0.4,0.6-0.4c0.1,0.4,0.4,0.6,0.8,0.6c0,0.2,0,0.4,0.1,0.6h0.1
			c0,0.3,0,0.5,0,0.7C1281.4,494.8,1280.9,494.3,1280.3,493.8L1280.3,493.8z M1287.2,507.7h-0.3c0.2-0.1,0.4-0.2,0.6-0.2l0.2,0.1
			c0.1,0.1,0.2,0.1,0.2,0.2C1287.6,507.8,1287.4,507.8,1287.2,507.7L1287.2,507.7z M1287.8,507.3L1287.8,507.3l0.4-0.2
			c0,0,0,0.1,0,0.2c0,0.2,0.1,0.3,0.1,0.5C1288.1,507.6,1288,507.5,1287.8,507.3L1287.8,507.3z M1288.4,507.5c0-0.1,0-0.3,0-0.4h0.1
			l0.4,0.1c-0.2,0.1-0.3,0.3-0.4,0.5L1288.4,507.5z M1289.5,507.5c-0.2,0-0.5,0-0.7-0.1l0,0c0.1-0.1,0.2-0.2,0.2-0.3l0.9,0.3
			C1289.8,507.5,1289.7,507.5,1289.5,507.5L1289.5,507.5z"/>
		<path class="st30" d="M1292.9,500.2c0.3,0.4,0.8-0.7,0.8-0.7S1292.6,499.7,1292.9,500.2z"/>
		<path class="st30" d="M1292.8,499.6c0.4,0.2,0.2-1,0.2-1S1292.2,499.4,1292.8,499.6z"/>
		<path class="st30" d="M1289.3,497.6c0.4,0.2,0.3-1,0.3-1S1288.7,497.4,1289.3,497.6z"/>
		<path class="st30" d="M1288.9,497.2c0.5-0.1-0.3-1-0.3-1S1288.3,497.3,1288.9,497.2z"/>
		<path class="st30" d="M1284.6,499.2c0.4-0.1-0.2-1-0.2-1S1284,499.4,1284.6,499.2z"/>
		<path class="st30" d="M1285,499.4c0.3,0.3,0.5-0.9,0.5-0.9S1284.6,499,1285,499.4z"/>
		<path class="st30" d="M1283.1,499.3c0,0,0.6,1.1,0.9,0.3C1284.2,499.1,1283.1,499.3,1283.1,499.3z"/>
		<path class="st30" d="M1281.1,508.1L1281.1,508.1h0.2c0.1,0,0.2-0.1,0.3-0.1c0.1-0.1,0.1-0.2,0.1-0.3c0,0,0,0-0.1-0.1l0,0l0,0
			h-0.1l-0.5-0.2c0.2-0.1,0.3-0.1,0.4-0.2l0,0l0.2-0.1l0,0c0.1,0,0.1-0.1,0.2-0.2c0.1-0.1,0.2-0.2,0.2-0.3c0-0.1,0-0.1,0-0.2
			c0,0,0,0,0-0.1l0,0c0,0,0,0,0-0.1l0,0v-0.1l0,0v-0.1l0,0l-0.1-0.1l0,0l-0.1-0.1l0,0l0,0l0,0l0,0h0.1c0,0,0.1-0.1,0.1-0.1
			c0,0,0,0,0.1-0.1l0,0l0,0l0,0v-0.5l0,0l0,0v-0.1l0,0v-0.1l0,0v-0.1l0,0l-0.1-0.1l0,0c-0.2-0.2-0.4-0.4-0.5-0.4
			c0.2-0.3,0.3-0.6,0.4-1v-0.4c0,0,0-0.1,0-0.2l0,0c0-0.1-0.1-0.2-0.1-0.3l0,0c-0.1-0.1-0.1-0.2-0.2-0.2c-0.2-0.1-0.4-0.1-0.7-0.1
			c0.1-0.1,0.1-0.3,0.1-0.5c-0.1-0.1-0.3-0.2-0.4-0.1c0-0.1,0-0.2,0-0.2c0-0.1-0.1-0.1-0.2,0c0.1-0.5-0.1-1-0.6-1.2
			c-0.4-0.2-0.9-0.1-1.3,0.1c0-0.1-0.2-0.2-0.3-0.2c0-0.1,0-0.2-0.1-0.2c0,0,0,0,0,0c-0.1,0-0.2,0-0.3,0.1c0-0.2-0.1-0.4-0.1-0.5
			c0-0.1,0-0.2-0.1-0.2c-0.1,0-0.2,0-0.2,0l-0.2,0.1h-0.1l-0.2,0.1l-0.1,0.1l-0.1,0.1l0,0l0,0l0,0l-0.1,0.1l-0.1,0.1l0,0l-0.1,0.1
			l0,0l0,0v0.1l-0.1,0.1l0,0l0,0l0,0l-0.1,0.1l0,0l0,0c0,0,0,0.1,0,0.1c0,0,0,0.1,0,0.2l0,0l0,0l-0.1,0.2c0,0.1,0,0.1-0.1,0.1
			c0,0-0.1,0-0.1,0.1c-0.1,0.1-0.1,0.2,0,0.3c-0.1,0.1-0.2,0.2-0.2,0.4c0-0.1-0.1-0.2-0.2-0.3l0,0h-0.1l0,0h-0.1h-0.1l0,0l0,0h-0.1
			l0,0l-0.1,0.1l-0.1,0.1l0,0c0,0-0.1,0.1-0.1,0.1l0,0l-0.1,0.1c-0.2,0.5,0.1,1,0,1.5c-0.1,0-0.1,0.1-0.1,0.2s0.1,0.2,0,0.3
			c-0.1-0.1-0.2,0-0.3,0.1c0,0,0,0,0,0.1c0-0.1-0.1-0.1-0.2-0.1c-0.1,0.1-0.1,0.2-0.1,0.3c0,0.2,0,0.3,0,0.5l0,0v0.1
			c0,0,0,0.1,0,0.2c0,0,0,0.1,0,0.1c0,0,0,0.1,0,0.2c0,0,0,0,0,0.1c0,0.1,0,0.1,0.1,0.2l0,0c0,0.1,0,0.1,0.1,0.2v0.1l0.1,0.1l0,0
			c0,0.1,0.1,0.1,0.1,0.2c-0.1,0.1-0.1,0.2,0,0.3c0,0,0,0,0,0c-0.1-0.1-0.3,0-0.3,0.1c0,0.1,0,0.3,0.1,0.4c0.5,0.5,1.2,0.7,1.9,0.5
			c-0.1,0-0.1,0.1-0.1,0.2c0.3,0.1,0.6,0.1,0.8,0c0.1,0,0.2,0,0.4,0.1c0.2,0,0.4,0,0.6-0.1c0.1,0.1,0.2,0.2,0.2,0.3
			c-0.1,0.3-0.3,0.5-0.5,0.5h0.9c-0.1-0.2-0.2-0.5-0.2-0.7c0-0.1,0.1-0.2,0.2-0.2c0.2,0,0.4,0,0.7,0c0.1,0,0.3,0,0.4-0.1
			C1280.1,507.7,1280.6,507.9,1281.1,508.1z M1276.8,508h-0.2l0.4-0.2l0.1,0.1l0.2,0.1C1277.2,508,1277,508,1276.8,508z
			 M1277.3,507.7L1277.3,507.7l0.3-0.2c0,0,0,0.1,0,0.1c0,0.1,0.1,0.2,0.1,0.4C1277.5,507.9,1277.4,507.8,1277.3,507.7L1277.3,507.7
			z M1277.7,507.8c0-0.1,0-0.2,0-0.3h0.1l0.3,0.1c-0.1,0.1-0.2,0.2-0.3,0.4C1277.8,507.9,1277.8,507.8,1277.7,507.8L1277.7,507.8z
			 M1278.6,507.8c-0.2,0-0.4,0-0.6,0l0,0c0.1-0.1,0.1-0.1,0.2-0.2l0.7,0.2C1278.8,507.8,1278.7,507.8,1278.6,507.8L1278.6,507.8z"/>
		<path class="st30" d="M1281.2,502.2c0.2,0.3,0.6-0.5,0.6-0.5S1280.9,501.8,1281.2,502.2z"/>
		<path class="st30" d="M1281.1,501.8c0.3,0.1,0.2-0.8,0.2-0.8S1280.6,501.6,1281.1,501.8z"/>
		<path class="st30" d="M1278.4,500.3c0.3,0.2,0.2-0.8,0.2-0.8S1278,500.1,1278.4,500.3z"/>
		<path class="st30" d="M1278.1,499.9c0.4-0.1-0.2-0.8-0.2-0.8S1277.6,500,1278.1,499.9z"/>
		<path class="st30" d="M1274.8,501.5c0.3-0.1-0.1-0.8-0.1-0.8S1274.3,501.6,1274.8,501.5z"/>
		<path class="st30" d="M1275.5,501c0,0-0.7,0.3-0.4,0.7S1275.5,501,1275.5,501z"/>
		<path class="st30" d="M1274.3,501.8c0.2-0.4-0.7-0.2-0.7-0.2S1274.1,502.3,1274.3,501.8z"/>
		<path class="st30" d="M1287.5,483.4c0.2,0.3,0.6-0.5,0.6-0.5S1287.3,483,1287.5,483.4z"/>
		<path class="st30" d="M1287.4,482.9c0.3,0.1,0.2-0.8,0.2-0.8S1287,482.8,1287.4,482.9z"/>
		<path class="st30" d="M1283.3,480.6c0.3,0.1,0.2-0.7,0.2-0.7S1282.8,480.4,1283.3,480.6z"/>
		<path class="st30" d="M1282.9,480.3c0.3-0.1-0.2-0.7-0.2-0.7S1282.5,480.4,1282.9,480.3z"/>
		<path class="st30" d="M1279.4,481.1c0.3-0.2-0.4-0.6-0.4-0.6S1279,481.4,1279.4,481.1z"/>
		<path class="st30" d="M1279.8,481.2c0.3,0.1,0.2-0.7,0.2-0.7S1279.3,481,1279.8,481.2z"/>
		<path class="st30" d="M1279.2,481.5c0-0.4-0.8,0-0.8,0S1279.2,482,1279.2,481.5z"/>
		<path class="st30" d="M1275.8,485.2c0.3-0.2-0.6-0.5-0.6-0.5S1275.4,485.5,1275.8,485.2z"/>
		<path class="st30" d="M1276.2,485.1c0.4,0.1,0-0.8,0-0.8S1275.7,485.1,1276.2,485.1z"/>
		<rect x="1287.3" y="486" class="st30" width="0.6" height="23.1"/>
		<rect x="1277.6" y="485.5" class="st30" width="0.6" height="23.6"/>
		<rect x="1285.3" y="485.5" class="st30" width="0.6" height="23.6"/>
		<polygon class="st30" points="1281.1,472.8 1272.1,485.4 1272.1,509.1 1273,509.1 1273,485.4 1281.9,472.8 		"/>
		<polygon class="st30" points="1272.4,485 1293.1,485 1292.3,484.1 1273,484.1 		"/>
		<polygon class="st31" points="1324.7,472.2 1284.3,472.2 1294.7,484.4 1335.1,484.4 		"/>
		<polygon class="st26" points="1294.9,484 1284.9,472.2 1284.3,472.2 1294.7,484.4 1335.1,484.4 1334.8,484 		"/>
		<path class="st32" d="M1324.8,472.2h-39.7c0.2,0.2,0.5,0.5,0.7,0.6c4.1,2.6,15.2,5.4,28.5,6.9c5.9,0.7,11.8,1,17.7,1L1324.8,472.2
			z"/>
		<polygon class="st26" points="1334.5,484.4 1335.1,484.4 1324.7,472.2 1324.1,472.2 		"/>
		<polygon class="st26" points="1303,484.3 1313.3,472.2 1312.7,472.2 1302.4,484.3 		"/>
		<polygon class="st26" points="1297.7,472.2 1291.1,479.9 1291.4,480.3 1298.3,472.2 		"/>
		<polygon class="st26" points="1297.3,472.2 1307.6,484.2 1308.2,484.2 1298,472.2 		"/>
		<polygon class="st26" points="1312.5,472.2 1322.7,484.2 1323.3,484.2 1313.1,472.2 		"/>
		<polygon class="st26" points="1314.4,484.4 1315.4,484.4 1324.1,472.2 1323.1,472.2 		"/>
		<path class="st26" d="M1325.7,483.2c0-0.2-0.1-0.5-0.2-0.7c-0.1-0.1-0.2-0.2-0.3-0.3c-0.1-0.1-0.2-0.1-0.3-0.2l0,0V482v0
			c0-0.1-0.1-0.2-0.1-0.3c0,0,0-0.1,0-0.1l-0.1-0.8c0,0,0-0.1,0-0.1c0-0.1,0-0.2,0-0.2c0,0,0-0.1-0.1-0.1l0,0l0,0l0,0l0,0l0,0h-0.1
			l0,0h-0.1h-0.6c0-0.1,0-0.2-0.1-0.2c-0.1-0.1-0.2-0.1-0.2,0c0-0.1,0-0.2,0-0.4l0,0c0-0.1,0-0.1,0-0.2l-0.1-0.3c0,0,0-0.1-0.1-0.2
			l0,0v-0.1l0,0l0,0c0-0.1-0.1-0.2-0.1-0.3c0,0,0-0.1,0-0.1l-0.1-0.1l0,0l0,0c0,0,0,0,0-0.1v-0.1v-0.1l-0.1-0.1l-0.1-0.1v0l0,0
			l-0.2-0.2l-0.3-0.2l0,0c-0.6-0.4-1.5-0.5-2.1-0.1c-0.1,0-0.1,0.1-0.2,0.1h-0.1l-0.1-0.1h-0.1c0,0-0.1,0-0.1,0l0,0
			c0.1-0.2-0.1-0.4-0.3-0.5c-0.2-0.1-0.4-0.2-0.6-0.2h-0.9c-0.1,0-0.3,0.1-0.4,0.2c0,0,0,0.1,0,0.1c0,0.1-0.1,0.2-0.2,0.3
			c-0.2,0.2-0.6,0.2-0.8,0.4s-0.2,0.3-0.4,0.3s-0.3,0.1-0.5,0.1s-0.3,0.3-0.2,0.4c-0.6-0.2-1.3,0-1.8,0.4c-0.5,0.4-0.8,1-1,1.5
			c0,0.1-0.1,0.2-0.1,0.3c0,0.1,0,0.2,0,0.3c0,0.1,0.1,0.2,0.1,0.3c0.1,0.1,0.1,0.2,0.1,0.3c0,0.2-0.1,0.5-0.3,0.5
			c0,0-0.1-0.1-0.1-0.1l-0.1,0h-0.1h-0.2c-0.1,0-0.1,0-0.2,0.1l-0.2,0.1c-0.1,0.1-0.3,0.3-0.4,0.5c-0.2,0.2-0.3,0.5-0.4,0.8
			c0,0.1-0.1,0.2-0.1,0.3v0.1l0,0c0,0,0,0.1,0,0.1l0,0v0.1l0,0v0.1c0,0,0,0.1,0,0.1l0,0l0,0c0,0,0,0.1,0,0.1l0,0l0,0v0.1l0,0h14.6
			v-0.1C1325.7,484.1,1325.7,483.7,1325.7,483.2z"/>
		<path class="st26" d="M1323.8,479.8c0.2,0.3,0.6-0.5,0.6-0.5S1323.5,479.5,1323.8,479.8z"/>
		<path class="st26" d="M1323.6,479.4c0.3,0.1,0.2-0.7,0.2-0.7S1323.2,479.3,1323.6,479.4z"/>
		<path class="st26" d="M1319.5,477c0.3,0.1,0.2-0.7,0.2-0.7S1319.1,476.9,1319.5,477z"/>
		<path class="st26" d="M1319.2,476.7c0.3-0.1-0.2-0.7-0.2-0.7S1318.7,476.8,1319.2,476.7z"/>
		<path class="st26" d="M1315.6,477.6c0.3-0.2-0.4-0.6-0.4-0.6S1315.2,477.8,1315.6,477.6z"/>
		<path class="st26" d="M1316,477.6c0.3,0.1,0.2-0.7,0.2-0.7S1315.6,477.5,1316,477.6z"/>
		<path class="st26" d="M1315.4,478c0-0.4-0.8,0-0.8,0S1315.4,478.4,1315.4,478z"/>
		<path class="st26" d="M1312,481.7c0.3-0.2-0.6-0.5-0.6-0.5S1311.7,482,1312,481.7z"/>
		<path class="st26" d="M1312.4,481.6c0.4,0.1,0-0.8,0-0.8S1311.9,481.5,1312.4,481.6z"/>
		<rect x="1272.2" y="485.5" class="st30" width="21.2" height="0.7"/>
		<rect x="1272.2" y="508.4" class="st30" width="21.2" height="0.7"/>
		<rect x="1271.7" y="485" class="st29" width="22" height="0.7"/>
		<rect x="1277.1" y="485.5" class="st29" width="0.6" height="24"/>
		<rect x="1284.8" y="485.5" class="st29" width="0.6" height="24"/>
		<polygon class="st23" points="1298.2,471.9 1297.6,471.9 1308.7,484.9 1309.3,484.9 		"/>
		<polygon class="st23" points="1313.4,471.9 1312.8,471.9 1323.9,484.9 1324.5,484.9 		"/>
		<path class="st33" d="M1328.3,503.9L1328.3,503.9c0.4,0,0.6,0.3,0.6,0.6v1.1c0,0.3-0.3,0.6-0.6,0.6h0c-0.3,0-0.6-0.3-0.6-0.6v-1.1
			C1327.7,504.2,1328,503.9,1328.3,503.9z"/>
		<path class="st34" d="M1325.2,485.3L1325.2,485.3c0.7,0,1.3,0.5,1.3,1.2v5.5c0,0.6-0.5,1.2-1.2,1.2h-0.1c-0.6,0-1.2-0.5-1.2-1.2
			v-5.5C1324,485.9,1324.6,485.3,1325.2,485.3z"/>
		<path class="st34" d="M1325.2,494.4L1325.2,494.4c0.7,0,1.3,0.5,1.3,1.2v0.9c0,0.6-0.5,1.2-1.2,1.2h-0.1c-0.6,0-1.2-0.5-1.2-1.2
			v-0.9C1324,495,1324.6,494.4,1325.2,494.4z"/>
		<rect x="1298.2" y="508.2" class="st29" width="47.7" height="1.7"/>
		<polygon class="st30" points="1289.9,481.4 1287.4,484.3 1288,484.3 1290.2,481.7 		"/>
		<rect x="1283.9" y="502.2" class="st29" width="1.1" height="0.3"/>
		<rect x="1283.9" y="494.6" class="st29" width="1.1" height="0.3"/>
		<rect x="1283.8" y="494.1" class="st29" width="0.4" height="8.8"/>
		<polygon class="st35" points="1351.3,442.8 1333.8,442.8 1320.2,458.4 1320.4,458.9 1338,458.9 		"/>
		<polygon class="st36" points="1373.1,478.8 1336,442.9 1324.2,457.1 1324.2,509.8 1373.1,509.8 		"/>
		<polygon class="st37" points="1373.1,490.9 1324.2,469.2 1324.2,509.8 1373.1,509.8 		"/>
		<path class="st38" d="M1465,509.7h-56.9c0,0,19.1-21.3,42.5-20.6s57.3,20.4,57.3,20.4L1465,509.7z"/>
		<rect x="1372.6" y="478.7" class="st39" width="47.2" height="31"/>
		<polygon class="st40" points="1419.8,478.7 1372.5,478.7 1372.6,485.5 1419.8,485.5 		"/>
		<polygon class="st41" points="1394.5,442.8 1335.2,442.8 1372.6,479.2 1428.3,478.8 		"/>
		<polygon class="st42" points="1388.8,442.8 1356,442.8 1376.7,479.2 1407.6,478.8 		"/>
		<polygon class="st35" points="1372.7,478.8 1335.6,442.8 1334.5,442.8 1372.4,479.6 1428.2,479.6 1428.3,478.8 		"/>
		<rect x="1330.6" y="477.7" class="st43" width="32.6" height="31.8"/>
		<rect x="1345.1" y="477.7" class="st44" width="3.5" height="31.8"/>
		<rect x="1344.6" y="477.8" class="st45" width="0.6" height="31.8"/>
		<rect x="1362.2" y="477.8" class="st45" width="0.4" height="31.8"/>
		<rect x="1389" y="494" class="st42" width="10.6" height="4.3"/>
		<rect x="1405.9" y="494" class="st42" width="10.6" height="4.3"/>
		<polygon class="st46" points="1391.1,447.5 1346.5,447.5 1374.7,474.9 1416.2,474.9 		"/>
		<polygon class="st47" points="1390.9,448.1 1347.9,448.1 1375.1,474.5 1415.1,474.5 		"/>
		<polygon class="st48" points="1390.6,448.5 1348.3,448.5 1375.1,474.5 1414.4,474.5 		"/>
		<polygon class="st49" points="1389.7,448.6 1376.3,448.6 1383.3,474.5 1398,474.5 		"/>
		<polygon class="st49" points="1374.1,448.6 1370.8,448.6 1375.3,474.5 1379.9,474.5 		"/>
		<polygon class="st46" points="1357.1,447.9 1356.5,447.9 1381.9,474.6 1382.5,474.6 		"/>
		<polygon class="st46" points="1365.6,447.9 1365,447.9 1390.4,474.6 1391,474.6 		"/>
		<polygon class="st46" points="1374.1,447.9 1373.5,447.9 1398.9,474.6 1399.5,474.6 		"/>
		<polygon class="st46" points="1382.6,447.9 1382,447.9 1407.4,474.6 1408,474.6 		"/>
		<polygon class="st46" points="1398.7,456.1 1398.2,455.6 1355.2,455.6 1355.7,456.1 		"/>
		<polygon class="st46" points="1407.4,465.2 1406.9,464.8 1364.7,464.8 1365.2,465.2 		"/>
		<rect x="1389.6" y="494.6" class="st50" width="9.4" height="3.1"/>
		<rect x="1406.6" y="494.7" class="st50" width="9.3" height="2.9"/>
		<rect x="1330.6" y="477.5" class="st44" width="32.6" height="0.7"/>
		<rect x="1362.7" y="489.7" class="st44" width="0.7" height="12.6"/>
		<rect x="1362.7" y="504.1" class="st44" width="0.7" height="5.5"/>
		<rect x="1362.7" y="483.6" class="st44" width="0.7" height="4.5"/>
		<rect x="1362.7" y="477.4" class="st44" width="0.7" height="4.5"/>
		<rect x="1330.4" y="489.7" class="st44" width="0.7" height="12.6"/>
		<rect x="1330.4" y="504.1" class="st44" width="0.7" height="5.5"/>
		<rect x="1330.4" y="483.6" class="st44" width="0.7" height="4.5"/>
		<rect x="1330.4" y="477.3" class="st44" width="0.7" height="4.5"/>
		<path class="st51" d="M1329.8,477v32.9h34.2V477H1329.8z M1363.2,509.5h-32.6v-31.8h32.6V509.5z"/>
		<rect x="1341.7" y="463.8" class="st44" width="4.3" height="1.5"/>
		<rect x="1333.4" y="463.8" class="st44" width="4.3" height="1.5"/>
		<path class="st4" d="M1344.7,510.8c-0.1-2.4,1.1-4.7,3.2-6c2.1-1.1,4.6-0.9,6.4,0.6c0.3-3.3,2.4-6.2,5.4-7.4
			c3.1-1.1,6.5-0.2,8.7,2.2c1.1-1.4,2.9-2.1,4.6-1.7c1.8,0.5,3.1,2,3.6,3.8c2.5-2.6,6.5-3.3,9.7-1.7c3.3,1.9,5.2,5.6,4.9,9.4
			C1375.2,509.8,1359.2,510.8,1344.7,510.8z"/>
	</g>
	<path id="TanahHijau1" class="st52" d="M1599.3,599v-86.5c0,0-998.6-31.9-1600,86.5H1599.3z"/>
	<g id="Jalur">
		<polygon class="st53" points="1127.9,557.9 1066.7,563 805.2,571.3 249.4,600 220.9,600 769.1,558.1 1088.6,545.1 		"/>
	</g>
	<g id="rumputKiri">
		<path class="st54" d="M303.4,599.4c0,0.3,0,0.5,0,0.8H193.6l-0.3,0.8H0V441.3c16.3-9.3,37-4,46.9,12c13.7-5.7,29.5-0.5,37.1,12.3
			c16.5-15.4,42.3-14.6,57.8,1.9c11.6,12.4,14.3,30.8,6.8,46.1c12.9,3,22.2,14.1,23,27.3c10.7,1.1,20.3,7.2,26,16.3
			c13.7-5.7,29.5-0.5,37.1,12.3c16.5-15.4,42.3-14.6,57.8,1.9C299.5,579,303.4,589,303.4,599.4L303.4,599.4z"/>
		<path class="st5" d="M220.9,599.8H0.4V499.2c-0.3-15.1,11.7-27.6,26.8-27.9c15.1-0.3,27.6,11.7,27.9,26.8c0,0.3,0,0.7,0,1
			c0,1.7-0.2,3.4-0.5,5c2.3,1.9,4.2,4.2,5.7,6.8c13-12.1,33.2-11.3,45.3,1.6c4.6,4.9,7.5,11.1,8.3,17.8c14.9,2.5,25,16.6,22.5,31.5
			c-0.3,1.6-0.7,3.1-1.2,4.6c2.7,1.9,5,4.4,6.6,7.4c13.4-11.5,33.6-10.1,45.1,3.3c1.8,2.1,3.4,4.5,4.6,7
			C203.8,582.3,215.7,588.7,220.9,599.8z"/>
	</g>
	<g id="rumputKanan">
		<path class="st54" d="M1600,600h-341.2c3.1-10.2,12.5-17.1,23.1-17.2c3.7,0,7.3,0.9,10.6,2.5c4.6-19,20.6-33.2,40.1-35.4
			c2.2-0.3,4.3-0.5,6.5-0.5c10.2,0,20.1,3.8,27.7,10.6c8.8-24.5,31.9-40.9,57.9-41c4.8,0,9.6,0.6,14.3,1.7c-0.2-1-0.2-2-0.2-3
			c-0.1-11,8.8-20,19.8-20.1c0,0,0,0,0,0c3.7,0,7.4,1.1,10.5,3.1c7.9-23.4,29.7-40.2,55.4-40.2c23.6,0,42.2,13.2,51.5,33.6
			c2-12.1,12.4-19.9,24.1-20.6V600z"/>
		<path class="st5" d="M1600,600h-201c2.2-6.9,8.5-11.6,15.8-11.6c2.5,0,5,0.6,7.2,1.7c3.2-13,14-22.6,27.3-24.1
			c8.4-1.3,17,1.2,23.3,6.8c5.9-16.7,21.7-27.9,39.4-28c3.3,0,6.5,0.4,9.7,1.2c-0.1-0.7-0.2-1.4-0.2-2.1c-0.1-7.5,6-13.6,13.5-13.7
			c0,0,0,0,0,0c2.5,0,5,0.7,7.1,2.1c5.4-16.3,20.6-27.3,37.7-27.4c7.1-0.1,14,1.9,20.1,5.5L1600,600z"/>
	</g>
	<g id="Orang">
		<g id="Badan">
			<path class="st55" d="M717.4,507.8c-0.6-1.1-12-72.1-30.5-78.6c-18.1-6.3-1,90.2-1,90.2s5.8,4.9,18.4,0.2
				S717.4,507.8,717.4,507.8z"/>
			<path class="st56" d="M604.2,440.2c0,0,24-18,51.7-18c22.3,0,31.4,8.4,31.4,8.4l15,106.8l-88.1,1.4L604.2,440.2z"/>
			<path class="st57" d="M636.5,424.9c0.5,1.9,1.2,3.7,2,5.4c1.8,4,12.5,19.4,28,17.2c15.1-2.1,8.8-16.1,7.5-18.9
				c-1.1-2.2-4-5.9-6.2-5.9c-4.4,0-21.5-1-28.2,1.1C638.2,424.3,636.5,424.9,636.5,424.9z"/>
			
				<ellipse transform="matrix(0.9807 -0.1956 0.1956 0.9807 -80.3072 134.6321)" class="st58" cx="641.5" cy="473.9" rx="3.1" ry="3.2"/>
			<path class="st59" d="M630.4,427.6c-0.7-2.3-12,3.7-12,3.7s17.3,41.1,14.8,54.7c-2,10.7-22.5,16.8-24.3,0.6
				c-0.8-6.5,5.1,113.2,5.1,113.2h91.8c0,0-4.8-145.4-18.6-170.9c-0.9-1.7-8.9-3.8-8.5-2.9c4.4,10.2,12.8,29.9,7.8,43.4
				c-2.5,7-22.2,15-36.4,1.1C644.4,464.9,633.5,437.4,630.4,427.6z"/>
			<path class="st60" d="M633.9,477.1c1.3,1.6,2.9,2.9,4.7,4c1.6,0.9,3.6,1.2,5.4,0.6c0.9-0.3,1.7-0.7,2.3-1.3
				c0.7-0.7,1.2-1.5,1.5-2.3c0.7-1.9,1.1-4,1.2-6.1c0.7,2.1,0.8,4.4,0.3,6.6c-0.3,1.2-0.9,2.2-1.7,3.1c-0.9,0.9-1.9,1.5-3.1,1.9
				c-1.2,0.3-2.4,0.4-3.6,0.2c-1.2-0.2-2.3-0.7-3.2-1.4C636,481.1,634.6,479.2,633.9,477.1z"/>
			<path class="st61" d="M642,477.1c-1.8,0.2-3.4-1.1-3.6-2.9c-0.2-1.6,0.9-3.1,2.5-3.5c0.3-0.1,0.7-0.1,1,0h-0.2
				c-1.7,0.4-2.8,2.1-2.4,3.8C639.6,475.9,640.7,476.9,642,477.1z"/>
			<path class="st58" d="M642.1,477.1H642c-1.3-0.2-2.4-1.3-2.6-2.6c-0.4-1.7,0.7-3.4,2.4-3.8h0.2c1.3,0.2,2.4,1.3,2.6,2.6
				C644.9,475,643.8,476.7,642.1,477.1C642.1,477.1,642.1,477.1,642.1,477.1z"/>
			<path class="st60" d="M688.9,467.1c0.3,0.9,0.8,1.7,1.4,2.5c0.6,0.6,1.5,1,2.3,1c0.9,0.1,1.7-0.2,2.3-0.8
				c0.6-0.8,0.9-1.7,0.9-2.6c0.4,1,0.3,2.1-0.3,3.1c-0.3,0.5-0.8,0.9-1.3,1.1c-0.5,0.2-1.1,0.3-1.6,0.2c-1.1,0-2.2-0.5-2.9-1.5
				C689.2,469.2,688.9,468.1,688.9,467.1z"/>
			<path class="st61" d="M692.8,467.7c-1.1,0.2-2.2-0.6-2.3-1.8c-0.3-1.2,0.3-2.4,1.4-2.8c0.2-0.1,0.4-0.1,0.7,0h-0.1
				c-1.1,0.4-1.7,1.6-1.4,2.8C691.1,466.8,691.9,467.5,692.8,467.7z"/>
			<path class="st58" d="M692.9,467.6L692.9,467.6c-1-0.2-1.7-0.9-1.9-1.8c-0.3-1.2,0.3-2.4,1.4-2.8h0.1c0.9,0.2,1.6,0.9,1.8,1.8
				C694.6,466,694,467.2,692.9,467.6z"/>
			<path class="st60" d="M644.6,502.9c0,0,36.9,5.8,50.9-7.5l3.3,47.5c0,0-3.7,12.3-21.3,14.4s-29.3-11.5-29.3-11.5L644.6,502.9z"/>
			<path class="st62" d="M648.6,508.7l-0.2-2.6l0.6,0.1c0,0,0.7,0.1,2,0.3l-0.1,1l-1.4-0.2l0.1,1.4L648.6,508.7z"/>
			<path class="st62" d="M664.4,508.3c-0.7,0-1.4,0-2.1,0v-1c0.7,0,1.5,0,2.2,0h1.6v1C665.5,508.3,665,508.3,664.4,508.3z
				 M669.9,508.1v-1c1.3-0.1,2.5-0.2,3.8-0.3l0.1,1C672.5,508,671.2,508.1,669.9,508.1z M658.5,508.1c-1.4-0.1-2.7-0.2-3.8-0.3
				l0.1-1c1.1,0.1,2.4,0.2,3.8,0.3L658.5,508.1z M677.5,507.3l-0.2-1c1.3-0.2,2.5-0.5,3.7-0.8l0.2,1
				C680.1,506.8,678.8,507.1,677.5,507.3L677.5,507.3z M685,505.4l-0.3-0.9c1.2-0.4,2.3-0.9,3.4-1.5l0.5,0.9
				C687.4,504.5,686.2,505,685,505.4z"/>
			<path class="st62" d="M692.7,502.2l-0.1-1c-0.3,0.2-0.5,0.4-0.8,0.6l-0.6-0.8c0.5-0.4,1-0.8,1.5-1.2l0.8-0.7l0.2,3.1L692.7,502.2
				z"/>
			<path class="st62" d="M675,554.5v-1c0.8,0,1.6-0.1,2.4-0.2c0.5-0.1,1.1-0.1,1.6-0.2l0.2,1c-0.5,0.1-1.1,0.2-1.6,0.2
				C676.7,554.4,675.8,554.5,675,554.5z M670.9,554.3c-1.4-0.2-2.7-0.4-4.1-0.8l0.3-1c1.3,0.4,2.6,0.6,3.9,0.8L670.9,554.3z
				 M683.1,553.1l-0.3-1c1.3-0.4,2.5-0.9,3.7-1.5l0.5,0.9C685.7,552.1,684.5,552.7,683.1,553.1z M662.9,552.1
				c-1.3-0.6-2.5-1.2-3.7-1.9l0.5-0.9c1.2,0.7,2.3,1.3,3.6,1.8L662.9,552.1z M690.5,549.3l-0.6-0.8c1-0.8,2-1.7,2.8-2.8l0.8,0.7
				C692.6,547.5,691.6,548.5,690.5,549.3L690.5,549.3z M655.8,547.9c-1.1-0.8-2.1-1.7-3.1-2.7l0.7-0.7c0.9,0.9,1.9,1.8,3,2.6
				L655.8,547.9z M695.8,542.9l-0.9-0.4c0.2-0.4,0.4-0.8,0.5-1.2l-0.2-2.5l1-0.1l0.2,2.7v0.1C696.3,542,696,542.4,695.8,542.9
				L695.8,542.9z M651.4,541.2l-0.3-4l1-0.1l0.3,4.1L651.4,541.2z M695,534.7l-0.3-4.1l1-0.1l0.3,4.1L695,534.7z M650.7,533.1
				l-0.3-4.1l1-0.1l0.3,4L650.7,533.1z M694.4,526.6l-0.3-4.1l1-0.1l0.3,4.1L694.4,526.6z M650,525l-0.3-4l1-0.1l0.3,4.1L650,525z
				 M693.8,518.5l-0.3-4.1l1-0.1l0.3,4.1L693.8,518.5z M649.3,516.9l-0.3-4.1l1-0.1l0.3,4.1L649.3,516.9z M693.3,510.3l-0.3-4.1
				l1-0.1l0.3,4.1L693.3,510.3z"/>
			<path class="st63" d="M610,529.2c-6.7,16.7,5,21.4,18.2,21s72.7-14,72.7-14l1.8-11.4C678.2,524.3,618.4,508.3,610,529.2z"/>
		</g>
		<g id="Lengan_Baju">
			<path class="st64" d="M622,522c0,0,2.1-89.9-17.5-82c-22,8.8-18.9,89.3-18.9,89.3s5.8,5.8,20.3,2.8S622,522,622,522z"/>
			<path class="st55" d="M624.8,524c-41.1-44.7-70.3,47-10.8,22L624.8,524z"/>
			<path class="st65" d="M608.1,439.7c1.2,0.4,2.4,1.1,3.3,2c0.5,0.4,1,0.9,1.4,1.4c0.4,0.5,0.9,1,1.2,1.5c0.8,1.1,1.5,2.2,2.1,3.3
				c0.6,1.1,1.1,2.4,1.7,3.6c1.8,4.9,3.1,9.9,3.8,15.1c0.7,5.1,1,10.3,1,15.5c0,2.6,0,5.2-0.2,7.7s-0.4,5.2-0.6,7.7
				c-0.2-2.6-0.3-5.2-0.3-7.7l0-1.9l-0.1-1.9l-0.2-3.8c-0.1-2.6-0.4-5.1-0.6-7.6l-0.2-1.9c-0.1-0.6-0.2-1.3-0.2-1.9l-0.5-3.8
				c-0.7-5-1.8-10-3.3-14.8c-0.5-1.2-0.9-2.4-1.4-3.5c-0.5-1.2-1.1-2.3-1.7-3.4c-0.3-0.6-0.6-1.1-1-1.6c-0.4-0.5-0.7-1-1.2-1.5
				l-0.6-0.7l-0.7-0.6C609.2,440.3,608.7,440,608.1,439.7z"/>
		</g>
		<g id="Lengan_Kanan">
			<path class="st66" d="M680.5,518.6l-0.3-1.7c13.2-12.1,12.3-5.8,21-12.9c4.7-3.8,3.8,5.2-0.2,8.4
				C695.5,514.2,680.5,518.6,680.5,518.6z"/>
			<path class="st67" d="M592.6,524.5c-13.3,16.9,4.2,21.6,15.9,20.9s71.6-12.6,71.6-12.6l-1.4-15.3
				C657,517.5,606,507.5,592.6,524.5z"/>
			<path class="st66" d="M592.6,524.5c-13.3,16.9,4.2,21.6,15.9,20.9c0.8,0,1.8-0.1,3-0.3c-5.9-0.8-11.7-2.9-13.9-7.6
				c-3.2-7.1,2-15.2,6-19.9C598.9,519.1,595.1,521.3,592.6,524.5z"/>
			<path class="st67" d="M675.5,519.9l3.4-2.7l22.2-5.5c0,0,0.3,12.9-3.9,21.3c0,0-10.5,2.3-17-0.3L675.5,519.9z"/>
		</g>
		<g id="Tangan_Kiri">
			<path class="st68" d="M780.5,477.1c0.3,0.6,0.3,1.3,0.1,1.9l-16.4,48.5c-0.3,0.9-1,1.5-1.9,1.7l-76.8,14l-0.3,0l0.6,0.8l-1.8-1.1
				h-0.1l-0.2-0.1l0,0c-1-0.6-1.4-1.9-1-3l18.1-49.2c0.3-0.8,1-1.4,1.9-1.6l75.2-13.4c0.8,0,1.6,0.3,2.3,0.8l1.9,1.1L780.5,477.1z"
				/>
			<path class="st69" d="M705,491.1l75.2-13.4c1.4-0.2,2.7,0.7,2.9,2c0.1,0.4,0,0.8-0.1,1.3l-16.4,48.5c-0.3,0.9-1,1.5-1.9,1.7
				l-76.8,14c-1.4,0.3-2.7-0.7-2.9-2c-0.1-0.4,0-0.9,0.1-1.3l18.1-49.2C703.4,491.9,704.1,491.3,705,491.1z"/>
			<path class="st70" d="M783,480.5l-0.3,0.8L697,543l-9.2,1.7c-1.4,0.2-2.7-0.7-2.9-2c-0.1-0.4,0-0.9,0.1-1.3l18.1-49.2
				c0.3-0.8,1-1.5,1.9-1.6l75.2-13.4c1.4-0.3,2.7,0.6,3,2C783.2,479.6,783.1,480,783,480.5z"/>
			<path class="st71" d="M783,480.5l-0.3,0.8L697,543l-9.2,1.7c-1.4,0.2-2.7-0.7-2.9-2c-0.1-0.4,0-0.9,0.1-1.3l18.1-49.2
				c0.3-0.8,1-1.5,1.9-1.6l75.2-13.4c1.4-0.3,2.7,0.6,3,2C783.2,479.6,783.1,480,783,480.5z"/>
			<path class="st72" d="M744.4,516c-1.9,3-5.4,4.1-7.9,2.6s-3.2-4.7-1.4-7.6s5.7-4.7,8.2-3.2S746.3,513,744.4,516z"/>
			<path class="st57" d="M761.9,526.6c0,0,1.3,2.1,3.1,2.1c1.7-0.2,3.4-0.5,5.1-1c0.7-0.8,1.1-1.9,1-2.9c-0.2-0.9-0.4-1.7-0.8-2.5
				c0.7,0.7,1.9,0.7,2.5,0c0.1-0.1,0.2-0.3,0.3-0.4c1-1.6,1.7-3.4,2.1-5.3c1-0.5,1.9-1.3,2.6-2.3c0.4-1,0.7-2,0.8-3
				c0.9-0.9,1.3-2.3,0.8-3.6c-0.5-1.3-1.5-2.4-2.9-2.8c0,0-7.3-3.5-7.9-2.7s-2.1,2,0.6,3.6l4.3,2.6l-0.8,1.9c0,0-7-3.1-8-2.7
				s-2.7,0.8-1.7,2.2s7.7,4.8,7.7,4.8l-0.2,2.5c0,0-7.6-3.3-8.6-2.4s-1.9,1.5-0.5,2.8s7,4,7,4l-1.7,2.2
				C766.9,523.5,762,523.6,761.9,526.6z"/>
		</g>
		<g id="Kepala">
			
				<ellipse id="Topi_Belakang" transform="matrix(0.9733 -0.2295 0.2295 0.9733 -68.7343 162.6906)" class="st73" cx="664.9" cy="376.8" rx="74.2" ry="26.9"/>
			<path id="Rambut_Samping" class="st74" d="M673.1,334.6c7.8-2.5,20.3,1.1,22.7,19.6c1.8,13.8-0.4,30.2-8.1,32.8
				S671,376.2,666.8,363S665.3,337.1,673.1,334.6z"/>
			<g id="Leher">
				<path id="Leher_1_" class="st57" d="M650.1,391.1l7.6-0.2c5.1-0.1,9.3,3.9,9.4,9l0.6,25c0.1,5.1-3.9,9.3-9,9.4l-7.6,0.2
					c-5.1,0.1-9.3-3.9-9.4-9l-0.6-25C641.1,395.4,645.1,391.2,650.1,391.1z"/>
				<path id="Shad_1_" class="st75" d="M667.5,419.9c0,0-15-3.4-20.4-8.5c0,0,12.5,22.4,20,14.8
					C668.2,425.2,667.5,419.9,667.5,419.9z"/>
			</g>
			<path id="Base_1_" class="st57" d="M673.4,419.8L673.4,419.8c-13.2,1.2-30.8-5.7-36.2-25.4l-6.9-24.7
				c-1.6-17.7,5.4-36.4,28.5-38.5l0,0c17.4-1.5,32.9,11.6,34.5,29.4l1.1,24.8C694,404.9,687.2,418.6,673.4,419.8z"/>
			<path id="Rambut_Base" class="st74" d="M641.4,379.5c0.4-1.7,3,8,3.6,5.7c0.9-3.8,3.4-5.4,2.6-11.7c-0.2-1.5-0.2-6.5,0.3-7.2
				c7.6-9.6,37.8-14.6,45.4-4.7c0,0,0.8-34.8-32.8-31.7c-35.8,3.3-30.9,31.5-30.2,39.7c1,11.2,5.3,33,11.2,34.5
				C641.4,404.2,637.9,394.8,641.4,379.5z"/>
			<g id="Telinga">
				
					<ellipse id="Base" transform="matrix(0.9818 -0.1898 0.1898 0.9818 -61.3991 127.6132)" class="st57" cx="635.6" cy="384.4" rx="7.7" ry="10.4"/>
				<path id="Line" class="st76" d="M641.4,388.6c0-0.7,0-1.4-0.2-2.1s-0.3-1.4-0.5-2.1c-0.5-1.4-1.2-2.7-2.2-3.8
					c-1-1.1-2.3-1.9-3.8-2.3c-1.4-0.4-2.9-0.3-4.2,0.4c2.6-0.1,5.1,1,6.9,2.9c0.4,0.5,0.8,0.9,1.1,1.4c-0.3-0.2-0.5-0.3-0.8-0.5
					c-0.8-0.4-1.8-0.4-2.7-0.2c-0.8,0.2-1.6,0.8-2,1.5c1.3-0.5,2.7-0.4,4,0.1c0.6,0.3,1.2,0.6,1.8,1c0.3,0.2,0.6,0.5,0.9,0.7
					c0.1,0.1,0.2,0.2,0.4,0.3c0.1,0.2,0.2,0.5,0.3,0.7C640.8,387.4,641,388,641.4,388.6z"/>
			</g>
			<path id="Poni" class="st74" d="M694,360.1c-1.2-1.2-11.3-6.5-14.8-5.1c0.6-1.1,0.9-1.9,0.9-1.9s-14.7-2.6-13.9,3.7
				c0.6,4.5-1.7,8.2-3.1,10.1c-0.1,0.1-0.2,0.3-0.1,0.5c0.1,0.3,0.4,0.5,0.7,0.5c7.1-1.4,11.8-6.9,14.2-10.8c0,0.2,0,0.4,0.1,0.6
				c1,6-2.1,11.2-3.8,13.4c-0.1,0.1-0.1,0.3-0.1,0.5c0.1,0.3,0.4,0.5,0.7,0.4c12.9-2.8,18.3-8,19.7-11.1
				C694.6,360.5,694.2,360.3,694,360.1z"/>
			<path id="Hidung" class="st76" d="M676.8,382.9c1.1,1.3,2.1,2.7,3,4.2c0.9,1.5,1.6,3.1,2.1,4.8c0.1,0.5,0.1,1,0.1,1.5
				c0,0.3-0.1,0.6-0.2,0.9c-0.1,0.3-0.3,0.6-0.6,0.8c-0.4,0.3-0.9,0.4-1.4,0.6c-0.4,0.1-0.9,0.2-1.3,0.2c-1.7,0.2-3.5,0-5.2-0.5
				c1.7-0.1,3.3-0.3,5-0.6c0.4-0.1,0.8-0.2,1.1-0.3c0.3-0.1,0.7-0.3,0.9-0.5c0.1-0.2,0.2-0.4,0.2-0.6c0-0.4-0.1-0.7-0.2-1.1
				c-0.4-1.6-1-3.1-1.7-4.6C678.1,386.1,677.4,384.5,676.8,382.9z"/>
			<g id="Topi_Depan">
				<path class="st77" d="M594.4,385.1L594.4,385.1c0,0,8.5-20.5,69-33.4c0,0,55.3-14.8,72.5,5.1l0,0c-1.7-3.1-11.7-9-15-10.3
					l-63.4-24.8c-1.5-0.6-3.1-0.3-4.3,0.7l-44.2,45.4C606,370.3,594.3,381.3,594.4,385.1z"/>
				<path class="st78" d="M737.2,364.2c-3.4-14.5-38.5-18.6-78.4-9.2c-35.8,8.5-63.3,25-66,38.7c-3.4-14.5,26.1-33.8,66-43.2
					s75-5.3,78.4,9.2C737.5,361.2,737.5,362.7,737.2,364.2z"/>
			</g>
			<g id="Mulut">
				<path id="Mulut_1_" class="st76" d="M682.6,403.9c-1.4,1.1-3,1.8-4.8,2.1c-1.7,0.3-3.5,0.4-5.3,0.1c-1.7-0.2-3.4-0.7-5.1-1.4
					c-0.8-0.3-1.6-0.7-2.4-1.1s-1.5-0.9-2.2-1.4c0.8,0.2,1.7,0.5,2.5,0.8l2.4,0.7c0.8,0.2,1.6,0.5,2.4,0.6l1.2,0.3l1.2,0.2
					c1.6,0.2,3.3,0.3,4.9,0.2C679.4,404.7,681.1,404.4,682.6,403.9z"/>
				<path id="Shad" class="st76" d="M679,408.8c-0.3,0.6-0.8,1-1.4,1.3c-0.6,0.3-1.2,0.4-1.9,0.4c-0.6,0-1.3-0.1-1.8-0.3
					c-0.6-0.2-1.1-0.6-1.6-1c0.6-0.1,1.2-0.1,1.8-0.1c0.6,0,1.1,0,1.6,0h1.6C677.9,409,678.4,408.9,679,408.8z"/>
			</g>
			<g id="Mata_Kanan">
				<path class="st74" d="M652.2,376.6c1.4-0.5,2.9-1,4.3-1.4c1.5-0.4,3-0.6,4.5-0.8c1.5-0.3,3.1-0.2,4.7,0.1c1.6,0.3,3,1.3,4,2.6
					l-0.1,0.1c-1.3-0.5-2.7-0.9-4.2-1c-1.4-0.2-2.8-0.4-4.3-0.4c-1.5,0-2.9,0.1-4.4,0.2c-1.5,0.1-3,0.4-4.4,0.7L652.2,376.6z"/>
				
					<ellipse transform="matrix(0.9997 -2.355977e-02 2.355977e-02 0.9997 -8.8715 15.8049)" class="st74" cx="666.3" cy="384.4" rx="1.7" ry="3.2"/>
			</g>
			<g id="Mata_Kiri">
				<path class="st74" d="M692.3,374.8c-0.9,0-1.8,0-2.8,0.1c-0.9,0.1-1.8,0.3-2.6,0.5c-0.8,0.3-1.5,0.7-2.2,1.1
					c-0.8,0.4-1.5,0.9-2.2,1.4l-0.2-0.1c0.1-1.1,0.6-2.1,1.4-2.8c0.9-0.6,1.9-1,2.9-1c1-0.1,1.9-0.1,2.9,0c0.9,0.1,1.9,0.3,2.8,0.6
					L692.3,374.8z"/>
				
					<ellipse transform="matrix(0.9997 -2.355977e-02 2.355977e-02 0.9997 -8.8547 16.2793)" class="st74" cx="686.5" cy="383.9" rx="1.7" ry="3.2"/>
			</g>
		</g>
	</g>
	<g id="Load">
		<path class="st79" d="M971.3,438.1l18-17.6c1-1,2.5-0.1,2.6,1.5l0.1,16L971.3,438.1z"/>
		<path class="st80" d="M1021.5,550.4c0,2.2-1.4,4-3.2,4l-26.6,0.2c-1.8,0-3.3-1.8-3.3-4l-0.2-27.7c0-2.2,1.4-4,3.2-4l26.6-0.2
			c1.8,0,3.3,1.8,3.3,4L1021.5,550.4z"/>
		<path class="st81" d="M1032.3,542.7c0.1,12.4,6.5,22.4,14.3,22.3s14.1-10.1,14-22.5s-6.5-22.4-14.3-22.3
			S1032.2,530.3,1032.3,542.7z"/>
		<path class="st82" d="M1046.5,565c7.8,0,14.1-10.1,14-22.5s-6.5-22.4-14.3-22.3l10.7-0.1c7.8,0,14.2,10,14.3,22.3
			s-6.2,22.5-14,22.5L1046.5,565z"/>
		<path class="st79" d="M949.5,550.9c0,2.2-1.4,4-3.2,4l-26.6,0.2c-1.8,0-3.3-1.8-3.3-4l-0.2-27.7c0-2.2,1.4-4,3.2-4l26.6-0.2
			c1.8,0,3.3,1.8,3.3,4L949.5,550.9z"/>
		<polygon class="st83" points="1083,509.1 921,510.1 923.6,545.4 1087,544.3 		"/>
		<path class="st80" d="M992.5,512.4l-2.1-92.4l-78.2,0.6v18.5l-10.1-0.5c-1.6,0.2-2.7,1.6-2.6,3.2v0.4c0,1.6,0.6,3.2,1.8,4.4
			c1.1,1.1,1.6,2.7,1.4,4.3l-4.3,33.8c-0.1,0.8,2.5,1.5,2.4,4.7c0,0,0.5,50.1,1,47.2c2.4-11.9,41-21.5,52.2-21.6
			c12.9-0.1,23.1,11.7,24.7,26.2c0.2,2.2,1.7,3.9,3.5,3.9l104.3-0.6c1.8,0,3.2-1.8,3.2-4l-0.2-28.6L992.5,512.4z"/>
		<path class="st84" d="M1103.7,508c0,2.2-1.4,4-3.2,4l-95.1,0.6c-2.2,0-4-1.8-4-4l-0.5-81.3c0-2.2,1.4-4,3.2-4l95.8-0.6
			c1.8,0,3.3,1.8,3.3,4L1103.7,508z"/>
		<path class="st81" d="M931.4,543.3c0.1,12.4,6.5,22.4,14.3,22.3s14.1-10.1,14-22.5s-6.5-22.4-14.3-22.3S931.3,531,931.4,543.3z"/>
		<path class="st82" d="M945.7,565.7c7.8,0,14.1-10.1,14-22.5s-6.5-22.4-14.3-22.3l10.7-0.1c7.8,0,14.2,10,14.3,22.3
			s-6.2,22.5-14,22.5L945.7,565.7z"/>
		<polygon class="st85" points="1004.9,512.9 842.9,513.9 845.4,545.9 1008.9,544.9 		"/>
		<path class="st86" d="M1104.2,508c0,2.2-1.4,4-3.2,4l-99.1,0.7l-0.7-113.4c0-2.2,1.4-4,3.2-4l95.8-0.6c1.8,0,3.3,1.8,3.3,4
			L1104.2,508z"/>
		<path class="st87" d="M914.4,512.9l-0.5-74.9l-61.8,0.9c-1.6,0.2-2.7,1.6-2.5,3.2c0,5.4,3.7,4.6,3.2,9.1l-4.4,34.6
			c-0.1,0.8,2.7,0.7,2.6,3.8l0.2,57c0-3.3,0.3-6.5,0.8-9.7c2.4-11.9,13-21.3,24.2-21.4c12.9-0.1,23.1,11.7,24.7,26.2
			c0.2,2.2,1.7,3.9,3.5,3.9l40.5-0.3c1.8,0,3.2-1.8,3.4-4c1.5-14.9,11.8-26.4,24.4-26.5s23.1,11.4,24.7,26.2
			c0.2,2.2,1.7,3.9,3.5,3.9l7.8-0.1c1.8,0,3.2-1.8,3.2-4l-0.2-28.6L914.4,512.9z"/>
		<path class="st88" d="M897,499.6h-5.4c-3.5,0-3.6-6.5,0-6.5h5.4C900.5,493.1,900.6,499.6,897,499.6z"/>
		<path class="st89" d="M1011.6,524h5.1c4.3,0,4.4,8.7,0,8.8h-5.1L1011.6,524z"/>
		<path class="st90" d="M1016.8,532.7c4.4,0,4.3-8.8,0-8.8l11.4-0.1c1.8,0,3.3,1.8,3.3,4v0.8c0,2.2-1.4,4-3.2,4L1016.8,532.7z"/>
		<path class="st89" d="M1077.8,523.5h5.1c4.3,0,4.4,8.7,0,8.8h-5.1L1077.8,523.5z"/>
		<path class="st90" d="M1083,532.3c4.4,0,4.3-8.8-0.1-8.8l11.5-0.1c4.3,0,4.4,8.7,0.1,8.8L1083,532.3z"/>
		<path class="st87" d="M893.2,438.6l18-17.7c1-1,2.5-0.1,2.6,1.5l0.1,16L893.2,438.6z"/>
		<path class="st91" d="M840.8,545l7.7,6.2c1.2,0.9,2.7-0.1,2.7-1.8l-0.4-59.8c0-2.2,0.3-4-3.3-4h-3.9c-1.8,0-3.2,1.8-3.2,4
			L840.8,545z"/>
		<path class="st80" d="M906.7,486.8L906.7,486.8c0.4,0,0.7,0.3,0.7,0.7l0.3,42.4c0,0.4-0.3,0.7-0.7,0.7h0c-0.4,0-0.7-0.3-0.7-0.7
			l-0.3-42.4C906.1,487.1,906.4,486.8,906.7,486.8z"/>
		<path class="st92" d="M849.7,486.8l0.3,50h-2.7l-0.3-51.2h1.5C849.2,485.7,849.7,486.2,849.7,486.8z"/>
		<path class="st93" d="M917.6,488.7l0.4,56.7h-6.2l-0.4-56.7c0-1.7,1.4-3,3.1-2.9c0,0,0,0,0,0l0,0
			C916.2,485.7,917.6,487,917.6,488.7C917.6,488.7,917.6,488.7,917.6,488.7z"/>
		<path class="st94" d="M872.1,566.2c7.8-0.1,14.1-10.1,14-22.5s-6.5-22.4-14.3-22.3l10.7-0.1c7.8,0,14.2,10,14.3,22.3
			s-6.2,22.5-14,22.5L872.1,566.2z"/>
		<path class="st95" d="M862.4,543.8c0.1,8.4,4.4,15.2,9.7,15.1s9.5-6.9,9.5-15.3s-4.4-15.2-9.7-15.1S862.3,535.4,862.4,543.8z"/>
		<path class="st96" d="M871.9,558.9c-5.3,0-9.6-6.8-9.7-15.1s4.2-15.2,9.5-15.3h6.6c-5.3,0-9.5,6.9-9.5,15.3s4.4,15.2,9.7,15.1
			H871.9z"/>
		<path class="st97" d="M867.5,543.8c0,3.9,2,7.1,4.5,7s4.4-3.2,4.4-7.1s-2-7.1-4.5-7S867.4,539.9,867.5,543.8z"/>
		<path class="st96" d="M871.9,536.7c2.5,0,4.5,3.1,4.5,7s-2,7.1-4.4,7.1h2c2.5,0,4.4-3.2,4.4-7.1s-2-7.1-4.5-7H871.9z"/>
		<path class="st82" d="M857.8,543.8c0.1,12.4,6.5,22.4,14.3,22.3s14.1-10.1,14-22.5s-6.5-22.4-14.3-22.3S857.7,531.4,857.8,543.8z
			 M862.4,543.8c0-8.4,4.2-15.2,9.5-15.3s9.6,6.7,9.7,15.1s-4.2,15.2-9.5,15.3S862.4,552.2,862.4,543.8L862.4,543.8z"/>
		<path class="st94" d="M967.3,565.5c7.8,0,14.1-10.1,14-22.5s-6.5-22.4-14.3-22.3l10.7-0.1c7.8,0,14.2,10,14.3,22.3
			s-6.2,22.5-14,22.5L967.3,565.5z"/>
		<path class="st95" d="M957.6,543.2c0.1,8.4,4.4,15.2,9.7,15.1s9.5-6.9,9.5-15.3s-4.4-15.2-9.7-15.1S957.6,534.8,957.6,543.2z"/>
		<path class="st96" d="M967.1,558.3c-5.3,0-9.6-6.7-9.7-15.1s4.2-15.2,9.5-15.3h6.6c-5.3,0-9.5,6.9-9.5,15.3s4.4,15.2,9.7,15.1
			H967.1z"/>
		<path class="st97" d="M962.7,543.1c0,3.9,2,7.1,4.5,7s4.4-3.2,4.4-7.1s-2-7.1-4.5-7S962.7,539.2,962.7,543.1z"/>
		<path class="st96" d="M967.1,536c2.5,0,4.5,3.1,4.5,7s-2,7.1-4.4,7.1h2c2.5,0,4.4-3.2,4.4-7.1s-2-7.1-4.5-7H967.1z"/>
		<path class="st82" d="M953,543.2c0.1,12.4,6.5,22.4,14.3,22.3s14.1-10.1,14-22.5s-6.5-22.4-14.3-22.3S953,530.8,953,543.2z
			 M957.6,543.2c0-8.4,4.2-15.2,9.5-15.3s9.6,6.7,9.7,15.1s-4.2,15.2-9.5,15.3S957.7,551.6,957.6,543.2L957.6,543.2z"/>
		<path class="st81" d="M836.3,540.8c0-2.2,1.4-4,3.2-4l12.7-0.1c1.8,0,3.2,1.8,3.2,4l0,6.8c0,2.2-1.4,4-3.2,4l-12.7,0.1
			c-1.8,0-3.2-1.8-3.2-4L836.3,540.8z"/>
		<path class="st88" d="M831.4,540.9c0-2.2,1.4-4,3.2-4l12.7-0.1c1.8,0,3.2,1.8,3.2,4v6.8c0,2.2-1.4,4-3.2,4l-12.7,0.1
			c-1.8,0-3.2-1.8-3.2-4L831.4,540.9z"/>
		<path class="st88" d="M1080.4,508.1c0,2.2-1.1,4-2.5,4l-76,0.5l-0.7-113.4c0-2.2,1.1-4,2.5-4l73.6-0.5c1.4,0,2.5,1.8,2.5,4
			L1080.4,508.1z"/>
		<path class="st98" d="M1049.2,477.2c0.5-0.8,0.7-1.7,0.5-2.7l-0.4,0.1c0.1,0.8,0,1.6-0.4,2.3L1049.2,477.2z"/>
		<path class="st99" d="M1053.5,481.4c-0.4,2.6-2,4.4-5.4,4.1c-2.6-0.2-4.5-2.4-4.3-4.9c0-0.1,0-0.2,0-0.3c0.2-2.7,3-4.5,5.4-3.3
			c2-0.4,3.9,0.9,4.3,2.9C1053.6,480.3,1053.6,480.9,1053.5,481.4z"/>
		<path class="st100" d="M1050.8,477c1,0.8,1.5,2.2,1.2,3.4c-0.4,2.3-1.8,4-4.8,3.7c-1.3-0.1-2.4-0.7-3.1-1.8c0.5,1.8,2.1,3.1,4,3.2
			c3.3,0.4,4.9-1.5,5.4-4.1C1053.9,479.5,1052.7,477.5,1050.8,477z"/>
		<path class="st98" d="M1029.2,476.9c0,0-0.1-2.2,1.4-3l0.4,0.4c-0.7,0.7-1.2,1.6-1.3,2.7L1029.2,476.9z"/>
		<path class="st101" d="M1034.8,482.2c-0.6,3.2-2.5,5.5-6.7,5c-4.3-0.5-5.5-4-5.3-6.5c0.2-3.3,3.8-5.6,6.6-4.1
			C1033.3,476.1,1035.4,479.1,1034.8,482.2z"/>
		<path class="st102" d="M1031.5,476.7c1.3,1,1.9,2.7,1.5,4.2c-0.5,2.8-2.3,4.9-6,4.5c-1.6-0.1-3-0.9-3.9-2.2c0.6,2.3,2.6,3.9,5,4
			c4.1,0.4,6.1-1.9,6.7-5C1035.4,479.8,1034,477.3,1031.5,476.7C1031.5,476.7,1031.5,476.7,1031.5,476.7z"/>
		<path class="st98" d="M1055.5,479.4c0-1.1,0.5-2.1,1.3-2.8l0.3,0.3c-0.7,0.6-1.1,1.5-1.2,2.5H1055.5z"/>
		<path class="st101" d="M1060.7,484.3c-0.5,2.9-2.3,5-6.1,4.6c-2.9-0.2-5.1-2.7-4.9-5.6c0-0.1,0-0.3,0-0.4c0.2-3.1,3.5-5.2,6.1-3.8
			C1059.3,478.7,1061.2,481.5,1060.7,484.3z"/>
		<path class="st102" d="M1057.7,479.2c1.2,0.9,1.7,2.4,1.4,3.9c-0.5,2.6-2.1,4.5-5.5,4.2c-1.5-0.1-2.8-0.9-3.6-2.1
			c0.6,2.1,2.4,3.6,4.6,3.7c3.8,0.4,5.6-1.7,6.1-4.6C1061.3,482,1059.9,479.8,1057.7,479.2z"/>
		<path class="st100" d="M1045,473.4c0.3,2.5-1.4,4.7-3.8,5.1c-0.1,0-0.2,0-0.3,0C1040.9,478.5,1039.5,474.2,1045,473.4z"/>
		<path class="st98" d="M1040.9,478.5c0.3-1.1,0.2-2.3-0.4-3.3l-0.4,0.2c0.4,0.9,0.6,1.9,0.3,2.9L1040.9,478.5z"/>
		<path class="st99" d="M1045.9,483.7c-0.6,3.2-2.6,5.5-6.7,5.1c-4.3-0.5-5.5-4-5.3-6.5c0.3-3.3,3.8-5.7,6.7-4.1
			C1044.4,477.6,1046.5,480.6,1045.9,483.7z"/>
		<path class="st100" d="M1042.6,478.2c1.3,1,1.9,2.7,1.5,4.3c-0.5,2.8-2.3,4.9-6,4.5c-1.6-0.1-3-0.9-3.9-2.3c0.6,2.3,2.6,3.9,5,4
			c4.1,0.4,6.1-1.9,6.7-5.1C1046.5,481.2,1045,478.8,1042.6,478.2z"/>
		<path class="st103" d="M1022.5,484.4h39.1c0.5,0,0.9,0.5,0.9,1.1l0,0v27l0,0h-41l0,0v-27C1021.5,484.9,1021.9,484.4,1022.5,484.4
			C1022.5,484.4,1022.5,484.4,1022.5,484.4z"/>
		<path class="st87" d="M947.4,551c0,2.2-1.4,4-3.2,4l-26.6,0.2c-1.8,0-3.3-1.8-3.3-4l-0.2-27.7c0-2.2,1.4-4,3.2-4l26.6-0.2
			c1.8,0,3.3,1.8,3.3,4L947.4,551z"/>
		<path class="st92" d="M1025.5,508.5c0,2.2-1.4,4-3.2,4l-95.1,0.6c-2.2,0-4-1.8-4-3.9l-0.7-109.4c0-2.2,1.4-4,3.2-4l95.8-0.6
			c1.8,0,3.3,1.8,3.3,4L1025.5,508.5z"/>
		<path class="st80" d="M938.7,551l-0.2-27.7c0-2.2-1.5-4-3.3-4l10.2-0.1c1.8,0,3.3,1.8,3.3,4l0.2,27.7c0,2.2-1.4,4-3.2,4l-10.2,0.1
			C937.3,555,938.7,553.2,938.7,551z"/>
		<path class="st29" d="M1029.3,540.6c0-2.2-1.5-4-3.2-4l-18.3,0.1c-1.8,0-3.2,1.8-3.2,4v6.8c0,2.2,1.5,4,3.2,4l18.3-0.1
			c1.8,0,3.2-1.8,3.2-4L1029.3,540.6z"/>
		<path class="st23" d="M1101.7,540.1c0-2.2-1.4-4-3.2-4l-78.6,0.5c-1.8,0-3.2,1.8-3.2,4v6.8c0,2.2,1.5,4,3.2,4l78.6-0.5
			c1.8,0,3.2-1.8,3.2-4L1101.7,540.1z"/>
		<path class="st80" d="M1047.1,539.4c0-0.4,0.3-0.8,0.8-0.8c0,0,0,0,0,0c22.9-0.2,23.4-0.7,23.4,0.6l0.1,8.9c0,0.4-0.4,0.8-0.8,0.8
			c-22.9,0.2-23.4,0.7-23.4-0.7L1047.1,539.4z"/>
		<path class="st104" d="M1069.3,539.3l0.1,8.9c0,0.4-0.3,0.8-0.8,0.8c0,0,0,0,0,0h2c0.4,0,0.8-0.4,0.8-0.8
			c-0.1-10.9,0.8-9.7-2.8-9.7C1069,538.5,1069.3,538.8,1069.3,539.3z"/>
		<path class="st82" d="M863.1,483.7h3.6c1.3-9.3,15.4-9.4,16.9-0.1h3.6C885,470,865,470.1,863.1,483.7z"/>
		<path class="st86" d="M906.9,479.4l-0.1-14.2l-8.2,0.1c-2.1,0.2-3.7,1.9-3.7,4l0.1,14.1l9-0.1C905.8,482.9,907,481.3,906.9,479.4z
			"/>
		<path class="st88" d="M884.1,469.4l0.1,14.1l10.8-0.1l-0.1-14.2c0-2.1,1.6-3.8,3.7-4l-10.5,0.1
			C885.9,465.3,884.1,467.1,884.1,469.4C884.1,469.4,884.1,469.4,884.1,469.4z"/>
		<path class="st105" d="M906.7,454.5c0-2.2-1.5-4-3.3-4l-38.7,0.1c-1.8,0-3.3,1.8-3.5,4l-1.3,25.1c-0.1,2.1,1.3,4,3,3.9l40.6-0.3
			c1.8,0,3.2-1.8,3.2-4L906.7,454.5z"/>
		<path class="st80" d="M862.2,479.8l1.3-25.1c0.1-2.2,1.6-3.9,3.4-4h-2.3c-1.8,0-3.3,1.7-3.5,4l-1.3,25.1c-0.1,2.2,1.3,4,3,4h2.4
			C863.5,483.7,862.1,481.9,862.2,479.8z"/>
		<path class="st91" d="M1004.2,508.6c0,2.2-1.1,4-2.5,4l-75.3,0.5c-1.7,0-3.2-1.8-3.2-4l-0.7-109.4c0-2.2,1.1-4,2.5-4l75.9-0.5
			c1.4,0,2.6,1.8,2.6,4L1004.2,508.6z"/>
		<path class="st106" d="M922.5,525h7.4c2.3,0,4.2,1.9,4.2,4.2v17c0,2.3-1.9,4.2-4.2,4.2h-7.4c-2.3,0-4.2-1.9-4.2-4.2v-17
			C918.4,526.9,920.2,525,922.5,525z"/>
		<rect x="1130.8" y="509.5" class="st107" width="2.3" height="19.4"/>
		<path class="st108" d="M1131.8,523.1h0.5c1.1,0,2.1,0.9,2.1,2.1v5.2l0,0h-4.6l0,0v-5.2C1129.7,524,1130.6,523.1,1131.8,523.1
			C1131.8,523.1,1131.8,523.1,1131.8,523.1z"/>
		<path class="st109" d="M1132.8,523.1h-1.2c0.8,0,1.5,0.7,1.5,1.5v5.7h1.2v-5.7C1134.3,523.8,1133.6,523.1,1132.8,523.1z"/>
		<path class="st110" d="M1136.7,533.6c-0.1,2.6-1.5,4.7-4.8,4.8c-3.4,0-4.7-2.7-4.8-4.8c0-2.6,2.1-4.8,4.8-4.8
			S1136.7,531,1136.7,533.6z"/>
		<path class="st111" d="M1134.2,533.6c0.1,1.2-0.8,2.2-2,2.3c-0.1,0-0.2,0-0.3,0c-1.3,0-2.3-1-2.3-2.3c0-1.3,1-2.3,2.3-2.3
			C1133.2,531.3,1134.2,532.4,1134.2,533.6z"/>
		<rect x="1130.8" y="509.5" class="st109" width="2.3" height="4.1"/>
		<rect x="1175.2" y="509.5" class="st107" width="2.3" height="19.4"/>
		<path class="st108" d="M1176.2,523.1h0.5c1.1,0,2.1,0.9,2.1,2.1v5.2l0,0h-4.6l0,0v-5.2C1174.1,524,1175,523.1,1176.2,523.1
			C1176.2,523.1,1176.2,523.1,1176.2,523.1z"/>
		<path class="st109" d="M1177.2,523.1h-1.2c0.8,0,1.5,0.7,1.5,1.5v5.7h1.2v-5.7C1178.7,523.8,1178.1,523.1,1177.2,523.1z"/>
		<path class="st112" d="M1181.1,533.6c-0.1,2.6-1.5,4.7-4.8,4.8s-4.7-2.7-4.8-4.8c0-2.6,2.1-4.8,4.8-4.8S1181.1,531,1181.1,533.6z"
			/>
		<path class="st111" d="M1178.7,533.6c0.1,1.2-0.8,2.2-2,2.3c-0.1,0-0.2,0-0.3,0c-1.3,0-2.3-1-2.3-2.3c0-1.3,1-2.3,2.3-2.3
			C1177.6,531.3,1178.7,532.4,1178.7,533.6z"/>
		<rect x="1175.2" y="509.5" class="st109" width="2.3" height="4.1"/>
		<rect x="1122.5" y="507" class="st107" width="63.8" height="3.5"/>
		<path class="st109" d="M1135.1,508.8c0,0.4-0.3,0.7-0.6,0.7c0,0-0.1,0-0.1,0c-0.4,0-0.7-0.3-0.8-0.7c0-0.4,0.3-0.7,0.7-0.7
			S1135.1,508.4,1135.1,508.8C1135.1,508.8,1135.1,508.8,1135.1,508.8z"/>
		<path class="st109" d="M1155.1,508.8c0,0.4-0.3,0.7-0.7,0.7c0,0-0.1,0-0.1,0c-0.4,0-0.7-0.3-0.7-0.7s0.3-0.7,0.7-0.7
			S1155.1,508.4,1155.1,508.8L1155.1,508.8z"/>
		<path class="st109" d="M1175.1,508.8c0,0.4-0.3,0.7-0.7,0.7c0,0-0.1,0-0.1,0c-0.4,0-0.7-0.3-0.7-0.7s0.3-0.7,0.7-0.7
			S1175.1,508.4,1175.1,508.8L1175.1,508.8z"/>
		<rect x="1122.5" y="509.4" class="st113" width="63.8" height="1.2"/>
		<rect x="1122.5" y="509.4" class="st114" width="4.8" height="1.2"/>
		<polygon class="st107" points="1186.3,509.3 1131.2,509.3 1132.2,510.5 1186.3,510.5 		"/>
		<path class="st115" d="M1132.1,480.8h47.9c0.6,0,1.1,0.5,1.1,1.1l0,0v27.4l0,0H1131l0,0v-27.4
			C1131,481.3,1131.5,480.8,1132.1,480.8z"/>
		<path class="st98" d="M1186.6,473.4c0.5-0.8,0.7-1.8,0.5-2.7l-0.4,0.1c0.1,0.8-0.1,1.6-0.4,2.3L1186.6,473.4z"/>
		<path class="st99" d="M1190.9,477.7c-0.4,2.6-2.1,4.5-5.5,4.1c-2.6-0.2-4.5-2.4-4.4-5c0-0.1,0-0.2,0-0.3c0.2-2.7,3.1-4.6,5.4-3.3
			c2-0.4,4,0.9,4.4,2.9C1191,476.6,1191,477.1,1190.9,477.7z"/>
		<path class="st100" d="M1188.2,473.2c1,0.8,1.5,2.2,1.3,3.5c-0.4,2.3-1.9,4-4.9,3.7c-1.3-0.1-2.5-0.8-3.2-1.8
			c0.5,1.9,2.2,3.2,4.1,3.3c3.4,0.4,5-1.5,5.5-4.1C1191.4,475.7,1190.1,473.7,1188.2,473.2z"/>
		<path class="st98" d="M1169.3,472.1c0,0-0.1-2.2,1.4-3.1l0.4,0.4c-0.8,0.7-1.2,1.7-1.3,2.7L1169.3,472.1z"/>
		<path class="st101" d="M1175,477.5c-0.6,3.2-2.6,5.6-6.8,5.1c-4.4-0.5-5.5-4.1-5.3-6.6c0.3-3.4,3.8-5.7,6.7-4.1
			C1173.5,471.3,1175.6,474.4,1175,477.5z"/>
		<path class="st102" d="M1171.6,471.9c1.3,1,1.9,2.7,1.6,4.3c-0.5,2.9-2.3,5-6.1,4.6c-1.6-0.1-3.1-0.9-3.9-2.3
			c0.6,2.3,2.7,3.9,5.1,4c4.2,0.5,6.2-1.9,6.8-5.1C1175.6,475,1174.1,472.5,1171.6,471.9z"/>
		<path class="st98" d="M1139.5,474.8c0,0-0.6-2.1,0.7-3.4l0.5,0.3c-0.6,0.9-0.8,1.9-0.7,2.9L1139.5,474.8z"/>
		<path class="st99" d="M1145,480.1c-0.6,3.2-2.6,5.6-6.8,5.2c-4.4-0.5-5.6-4.1-5.4-6.7c0.3-3.4,3.9-5.8,6.8-4.2
			C1143.4,473.9,1145.5,477,1145,480.1z"/>
		<path class="st100" d="M1141.5,474.5c1.3,1,1.9,2.7,1.6,4.3c-0.5,2.9-2.3,5-6.1,4.6c-1.6-0.1-3.1-0.9-4-2.3c0.6,2.3,2.7,4,5.1,4.1
			c4.2,0.5,6.3-1.9,6.8-5.2C1145.5,477.7,1144,475.2,1141.5,474.5z"/>
		<path class="st98" d="M1193,475.7c0-1.1,0.5-2.2,1.3-2.8l0.3,0.3c-0.7,0.6-1.1,1.5-1.2,2.5L1193,475.7z"/>
		<path class="st101" d="M1198.3,480.6c-0.5,3-2.4,5.1-6.2,4.7c-4-0.4-5.1-3.7-4.9-6.1c0.2-3.1,3.5-5.3,6.2-3.8
			C1196.9,474.9,1198.8,477.8,1198.3,480.6z"/>
		<path class="st102" d="M1195.2,475.5c1.2,0.9,1.8,2.5,1.4,4c-0.5,2.7-2.1,4.6-5.6,4.2c-1.5-0.1-2.8-0.9-3.6-2.1
			c0.6,2.1,2.5,3.6,4.7,3.7c3.8,0.4,5.7-1.8,6.2-4.7C1198.8,478.4,1197.5,476.1,1195.2,475.5
			C1195.2,475.5,1195.2,475.5,1195.2,475.5z"/>
		<path class="st98" d="M1141.4,480.4c0-1.1,0.5-2.2,1.3-2.8l0.3,0.3c-0.7,0.7-1.1,1.6-1.1,2.5H1141.4z"/>
		<path class="st101" d="M1146.7,485.3c-0.5,3-2.4,5.1-6.2,4.7c-4-0.4-5.1-3.7-4.9-6.1c0.2-3.1,3.5-5.2,6.2-3.8
			C1145.3,479.7,1147.2,482.5,1146.7,485.3z"/>
		<path class="st102" d="M1143.6,480.2c1.2,0.9,1.8,2.5,1.4,4c-0.5,2.7-2.1,4.6-5.6,4.2c-1.5-0.1-2.8-0.9-3.6-2.1
			c0.6,2.1,2.5,3.6,4.7,3.7c3.8,0.4,5.7-1.8,6.2-4.7C1147.3,483.1,1145.9,480.8,1143.6,480.2
			C1143.6,480.2,1143.6,480.2,1143.6,480.2z"/>
		<path class="st116" d="M1141.2,481.7c0.6,1.1,0.7,2-0.8,3.3c-1,0.8-2.5,0.7-3.4-0.2c-0.8-0.9-0.3-2.3,0.8-3.3
			S1140.7,480.7,1141.2,481.7z"/>
		<path class="st98" d="M1150.3,472.8c0,0-0.2-2.4,1.5-3.5l0.4,0.4c-0.8,0.8-1.3,1.9-1.4,3L1150.3,472.8z"/>
		<path class="st101" d="M1156.7,478.6c-0.6,3.6-2.9,6.2-7.6,5.7c-4.9-0.5-6.2-4.5-6-7.4c0.3-3.8,4.3-6.4,7.5-4.6
			C1155,471.7,1157.3,475.1,1156.7,478.6z"/>
		<path class="st102" d="M1152.9,472.4c1.4,1.1,2.1,3,1.7,4.8c-0.6,3.2-2.6,5.6-6.8,5.1c-1.8-0.1-3.4-1-4.4-2.5
			c0.7,2.6,3,4.4,5.7,4.5c4.7,0.5,6.9-2.1,7.6-5.7C1157.2,475.8,1155.8,473,1152.9,472.4z"/>
		<path class="st100" d="M1146.5,467.5c2.5,0.3,4.4,2.5,4.1,5c0,0.1,0,0.2,0,0.3C1150.6,472.8,1146,473.1,1146.5,467.5z"/>
		<path class="st100" d="M1182.2,469.6c0.4,2.5-1.4,4.8-3.9,5.1c-0.1,0-0.2,0-0.3,0C1178.1,474.8,1176.7,470.4,1182.2,469.6z"/>
		<path class="st98" d="M1178.1,474.8c0,0,0.6-2.1-0.4-3.4l-0.4,0.2c0.4,0.9,0.6,2,0.4,3L1178.1,474.8z"/>
		<path class="st99" d="M1183.2,480c-0.6,3.2-2.6,5.6-6.8,5.1c-4.4-0.5-5.6-4.1-5.4-6.6c0.3-3.4,3.8-5.7,6.8-4.2
			C1181.7,473.8,1183.8,476.9,1183.2,480z"/>
		<path class="st100" d="M1179.8,474.4c1.3,1,1.9,2.7,1.6,4.3c-0.5,2.9-2.3,5-6.1,4.6c-1.6-0.1-3.1-0.9-4-2.3c0.6,2.3,2.7,4,5.1,4.1
			c4.2,0.5,6.2-1.9,6.8-5.1C1183.8,477.5,1182.3,475,1179.8,474.4z"/>
		<path class="st98" d="M1160.6,474.9c0.5-0.8,0.7-1.8,0.5-2.7l-0.4,0.1c0.1,0.8-0.1,1.6-0.4,2.3L1160.6,474.9z"/>
		<path class="st99" d="M1164.9,479.2c-0.4,2.6-2.1,4.5-5.5,4.1c-2.6-0.2-4.5-2.5-4.3-5c0-0.1,0-0.2,0-0.3c0.2-2.7,3.1-4.6,5.4-3.3
			c2-0.4,4,0.9,4.4,2.9C1165,478.1,1165,478.7,1164.9,479.2z"/>
		<path class="st100" d="M1162.1,474.7c1,0.8,1.5,2.2,1.3,3.5c-0.4,2.3-1.9,4-4.9,3.7c-1.3-0.1-2.5-0.8-3.2-1.8
			c0.5,1.9,2.2,3.2,4.1,3.3c3.4,0.4,5-1.5,5.5-4.1C1165.3,477.2,1164.1,475.2,1162.1,474.7z"/>
		<path class="st103" d="M1150.6,480.8h47.9c0.6,0,1.1,0.5,1.1,1.1l0,0v27.4l0,0h-50.2l0,0v-27.4
			C1149.4,481.3,1150,480.8,1150.6,480.8C1150.6,480.8,1150.6,480.8,1150.6,480.8z"/>
		<path class="st117" d="M1131,481.6v27.8h18.9v-27.8c0-0.5-0.4-0.8-0.8-0.8h-17.2C1131.4,480.8,1131,481.1,1131,481.6
			C1131,481.6,1131,481.6,1131,481.6z M1142.8,485.9h-5.6c-0.9,0-1.5-0.7-1.5-1.5c0-0.9,0.7-1.5,1.5-1.5h5.6c0.9,0,1.5,0.7,1.5,1.5
			C1144.3,485.2,1143.6,485.9,1142.8,485.9L1142.8,485.9z"/>
		<path class="st109" d="M1142.9,551.5c0-4.3-2.3-7.9-5.6-9l1.5-0.3c-0.6,0-2.6,0-3.5,0c-4.3,0-7.6,4.2-7.6,9.3s2.8,9.3,7.6,9.3h0.3
			c0.8,0,2.6,0,3.1,0l-1.3-0.3C1140.9,559.5,1142.9,555.8,1142.9,551.5z"/>
		<path class="st108" d="M1146.3,551.5c0,5.2-2.8,9.3-7.6,9.3s-7.6-4.2-7.6-9.3s3.3-9.3,7.6-9.3S1146.3,546.4,1146.3,551.5z"/>
		<path class="st109" d="M1143.3,551.7c0,2.7-1.8,4.8-4.1,4.8s-4.1-2.2-4.1-4.8s1.8-4.8,4.1-4.8S1143.3,549.1,1143.3,551.7z"/>
		<path class="st112" d="M1142.1,551.5c0,2.3-1.4,4.2-3.2,4.2s-3.2-1.9-3.2-4.2s1.4-4.2,3.2-4.2S1142.1,549.2,1142.1,551.5z"/>
		<path class="st113" d="M1135.8,546.4c-1.1,1-1.9,1.8-2.4,1.4s-0.1-1.6,0.9-2.7s2.2-1.8,2.8-1.2S1136.8,545.4,1135.8,546.4z"/>
		<path class="st113" d="M1133.5,549.9c-0.1,0.7-0.5,1.2-0.9,1.1s-0.5-0.7-0.4-1.3s0.5-1.2,0.9-1.1S1133.7,549.3,1133.5,549.9z"/>
		<path class="st109" d="M1180.8,551.5c0-4.3-2.3-7.9-5.6-9l1.5-0.3c-0.6,0-2.6,0-3.5,0c-4.3,0-7.6,4.2-7.6,9.3s2.8,9.3,7.6,9.3h0.4
			c0.8,0,2.6,0,3.1,0l-1.3-0.3C1178.8,559.5,1180.8,555.8,1180.8,551.5z"/>
		<path class="st108" d="M1184.3,551.5c0,5.2-2.8,9.3-7.6,9.3s-7.6-4.2-7.6-9.3s3.3-9.3,7.6-9.3S1184.3,546.4,1184.3,551.5z"/>
		<ellipse class="st109" cx="1177.2" cy="551.7" rx="4.1" ry="4.8"/>
		<path class="st112" d="M1180.1,551.5c0,2.3-1.4,4.2-3.2,4.2s-3.2-1.9-3.2-4.2s1.4-4.2,3.2-4.2S1180.1,549.2,1180.1,551.5z"/>
		<path class="st113" d="M1173.7,546.4c-1.1,1-1.9,1.8-2.4,1.4s-0.1-1.6,0.9-2.7s2.2-1.8,2.8-1.2S1174.8,545.4,1173.7,546.4z"/>
		<path class="st113" d="M1171.5,549.9c-0.1,0.7-0.5,1.2-0.9,1.1s-0.5-0.7-0.4-1.3s0.5-1.2,0.9-1.1S1171.6,549.3,1171.5,549.9z"/>
		<rect x="1152.4" y="509.5" class="st113" width="2.3" height="19.4"/>
		<path class="st107" d="M1153.4,523.1h0.5c1.1,0,2.1,0.9,2.1,2.1v5.2l0,0h-4.6l0,0v-5.2C1151.3,524,1152.3,523.1,1153.4,523.1
			C1153.4,523.1,1153.4,523.1,1153.4,523.1z"/>
		<path class="st109" d="M1154.4,523.1h-1.2c0.8,0,1.5,0.7,1.5,1.5v5.7h1.3v-5.7C1156,523.8,1155.3,523.1,1154.4,523.1
			C1154.5,523.1,1154.5,523.1,1154.4,523.1z"/>
		<path class="st118" d="M1158.3,533.6c-0.1,2.6-1.5,4.7-4.8,4.8s-4.7-2.7-4.8-4.8c0-2.6,2.1-4.8,4.8-4.8S1158.3,531,1158.3,533.6z"
			/>
		<path class="st111" d="M1155.9,533.6c0.1,1.2-0.8,2.2-2,2.3c-0.1,0-0.2,0-0.3,0c-1.3,0-2.3-1-2.3-2.3c0-1.3,1-2.3,2.3-2.3
			C1154.8,531.3,1155.9,532.3,1155.9,533.6C1155.9,533.6,1155.9,533.6,1155.9,533.6z"/>
		<rect x="1152.4" y="509.5" class="st107" width="2.3" height="4.1"/>
		<rect x="1196.9" y="509.5" class="st113" width="2.3" height="19.4"/>
		<path class="st107" d="M1197.8,523.1h0.5c1.1,0,2.1,0.9,2.1,2.1v5.2l0,0h-4.6l0,0v-5.2C1195.8,524,1196.7,523.1,1197.8,523.1
			C1197.8,523.1,1197.8,523.1,1197.8,523.1z"/>
		<path class="st109" d="M1198.9,523.1h-1.2c0.8,0,1.5,0.7,1.5,1.5c0,0,0,0,0,0v5.7h1.2v-5.7
			C1200.4,523.8,1199.7,523.1,1198.9,523.1z"/>
		<path class="st118" d="M1202.8,533.6c-0.1,2.6-1.5,4.7-4.8,4.8c-3.4,0-4.7-2.7-4.8-4.8c0.1-2.6,2.4-4.7,5-4.5
			C1200.7,529.2,1202.7,531.2,1202.8,533.6z"/>
		<path class="st111" d="M1200.3,533.6c0.1,1.2-0.8,2.2-2,2.3c-0.1,0-0.2,0-0.3,0c-1.2,0-2.2-0.9-2.3-2.1c0-0.1,0-0.1,0-0.2
			c0.1-1.3,1.2-2.2,2.4-2.1C1199.3,531.6,1200.2,532.5,1200.3,533.6L1200.3,533.6z"/>
		<rect x="1196.9" y="509.5" class="st107" width="2.3" height="4.1"/>
		<rect x="1139.3" y="509.4" class="st114" width="5.4" height="1.2"/>
		<rect x="1144.2" y="507" class="st107" width="63.8" height="3.5"/>
		<path class="st109" d="M1156.8,508.8c0,0.4-0.3,0.7-0.7,0.7c0,0-0.1,0-0.1,0c-0.4,0-0.7-0.3-0.7-0.7s0.3-0.7,0.7-0.7
			S1156.8,508.4,1156.8,508.8L1156.8,508.8z"/>
		<path class="st109" d="M1176.8,508.8c0,0.4-0.3,0.7-0.7,0.7c0,0-0.1,0-0.1,0c-0.4,0-0.7-0.4-0.6-0.8c0-0.3,0.3-0.6,0.6-0.6
			C1176.4,508,1176.8,508.4,1176.8,508.8C1176.8,508.8,1176.8,508.8,1176.8,508.8z"/>
		<path class="st109" d="M1196.8,508.8c0,0.4-0.3,0.7-0.7,0.7c0,0-0.1,0-0.1,0c-0.4,0-0.7-0.4-0.6-0.8c0-0.3,0.3-0.6,0.6-0.6
			C1196.4,508,1196.8,508.4,1196.8,508.8C1196.8,508.8,1196.8,508.8,1196.8,508.8z"/>
		<path class="st110" d="M1128.1,533.5h52.6c3.1,0,5.6,2.5,5.6,5.6v0v13l0,0h-63.8l0,0v-13C1122.5,536,1125,533.5,1128.1,533.5z"/>
		<path class="st118" d="M1149.7,533.5h52.6c3.1,0,5.6,2.5,5.6,5.6v0v13l0,0h-63.8l0,0v-13C1144.2,536,1146.6,533.5,1149.7,533.5z"
			/>
		<path class="st108" d="M1164.5,551.5c0-4.3-2.3-7.9-5.6-9l1.5-0.3c-0.6,0-2.6,0-3.5,0c-4.3,0-7.6,4.2-7.6,9.3s2.8,9.3,7.6,9.3h0.4
			c0.8,0,2.6,0,3.1,0l-1.3-0.3C1162.5,559.5,1164.5,555.8,1164.5,551.5z"/>
		<path class="st107" d="M1168,551.5c0,5.2-2.8,9.3-7.6,9.3s-7.6-4.2-7.6-9.3s3.3-9.3,7.6-9.3S1168,546.4,1168,551.5z"/>
		<ellipse class="st109" cx="1160.9" cy="551.7" rx="4.1" ry="4.8"/>
		<path class="st110" d="M1163.8,551.5c0,2.3-1.4,4.2-3.2,4.2s-3.2-1.9-3.2-4.2s1.4-4.2,3.2-4.2S1163.8,549.2,1163.8,551.5z"/>
		<path class="st112" d="M1162.2,547.9c0.4,0.7,0.7,1.6,0.7,2.5c0,2.2-1.3,3.9-3,3.9c-1-0.1-2-0.7-2.4-1.6c0.2,1.6,1.5,2.8,3.1,3
			c1.8,0,3.2-1.9,3.2-4.2C1163.8,550.1,1163.2,548.8,1162.2,547.9z"/>
		<path class="st109" d="M1160,557L1160,557c-0.7-0.1-1.3-0.4-1.8-0.8c-0.1-0.1-0.1-0.2,0-0.2c0,0,0,0,0,0c0.1-0.1,0.2-0.1,0.2,0
			c0.4,0.4,1,0.7,1.6,0.8c0.1,0,0.1,0.1,0.1,0.2C1160.2,557,1160.1,557,1160,557z"/>
		<path class="st109" d="M1166.2,556.8L1166.2,556.8c-0.2,0-0.2-0.1-0.1-0.2c0.3-0.5,0.5-1,0.7-1.6c0-0.1,0.1-0.1,0.2-0.1
			c0,0,0,0,0,0c0.1,0,0.1,0.1,0.1,0.2c0,0,0,0,0,0c-0.2,0.6-0.4,1.1-0.7,1.6C1166.3,556.7,1166.3,556.8,1166.2,556.8z"/>
		<path class="st109" d="M1161.1,560.4c-0.1,0-0.1-0.1-0.2-0.1c0-0.1,0.1-0.2,0.1-0.2c1.7-0.3,3.3-1.2,4.4-2.6
			c0.1-0.1,0.1-0.1,0.2,0c0.1,0.1,0.1,0.2,0,0.2C1164.5,559.1,1162.9,560.1,1161.1,560.4L1161.1,560.4z"/>
		<path class="st108" d="M1202.5,551.5c0-4.3-2.3-7.9-5.6-9l1.5-0.3c-0.6,0-2.6,0-3.5,0c-4.3,0-7.6,4.2-7.6,9.3s2.8,9.3,7.6,9.3h0.4
			c0.8,0,2.6,0,3.1,0l-1.3-0.3C1200.5,559.5,1202.5,555.8,1202.5,551.5z"/>
		<path class="st107" d="M1205.9,551.5c0,5.2-2.8,9.3-7.6,9.3s-7.6-4.2-7.6-9.3s3.3-9.3,7.6-9.3S1205.9,546.4,1205.9,551.5z"/>
		<path class="st109" d="M1202.9,551.7c0,2.7-1.8,4.8-4.1,4.8s-4.1-2.2-4.1-4.8s1.8-4.8,4.1-4.8S1202.9,549.1,1202.9,551.7z"/>
		<path class="st110" d="M1201.7,551.5c0,2.3-1.4,4.2-3.2,4.2s-3.2-1.9-3.2-4.2s1.4-4.2,3.2-4.2S1201.7,549.2,1201.7,551.5z"/>
		<path class="st112" d="M1200.2,547.9c0.4,0.7,0.7,1.6,0.7,2.5c0,2.2-1.3,3.9-3,3.9c-1-0.1-2-0.7-2.4-1.6c0.2,1.6,1.5,2.8,3.1,3
			c1.8,0,3.2-1.9,3.2-4.2C1201.7,550.1,1201.2,548.8,1200.2,547.9z"/>
		<path class="st109" d="M1198,557L1198,557c-0.7-0.1-1.3-0.4-1.8-0.8c-0.1-0.1-0.1-0.2,0-0.2c0,0,0,0,0,0c0.1-0.1,0.2-0.1,0.2,0
			c0.4,0.4,1,0.7,1.6,0.8c0.1,0,0.1,0.1,0.1,0.2C1198.2,557,1198.1,557,1198,557z"/>
		<path class="st109" d="M1204.2,556.8L1204.2,556.8c-0.2,0-0.2-0.1-0.1-0.2c0.3-0.5,0.5-1,0.7-1.6c0-0.1,0.1-0.1,0.2-0.1
			c0,0,0,0,0,0c0.1,0,0.1,0.1,0.1,0.2c0,0,0,0,0,0c-0.2,0.6-0.4,1.1-0.7,1.6C1204.3,556.7,1204.2,556.8,1204.2,556.8z"/>
		<path class="st109" d="M1199,560.4c-0.1,0-0.1-0.1-0.2-0.1c0-0.1,0.1-0.2,0.1-0.2c1.7-0.3,3.3-1.2,4.4-2.6c0.1-0.1,0.2-0.1,0.2,0
			c0.1,0.1,0.1,0.2,0,0.2C1202.4,559.1,1200.8,560.1,1199,560.4z"/>
		<ellipse class="st53" cx="1232.7" cy="563.3" rx="46" ry="2.4"/>
		<polygon class="st52" points="1161.4,556.6 1159.1,563 1156.5,551.3 1155.1,563.1 1154,555.7 1149.3,562.9 1151.5,549.2 
			1144.5,563.6 1144.7,558.1 1140.7,563.7 1139.8,555.4 1136.9,563.5 1135.2,556.7 1132.3,564.1 1130.4,550.8 1127.2,563.7 
			1125.8,556.7 1122.1,563.3 1123.7,547.1 1116.6,563.1 1115.6,553.8 1112.3,562.1 1109.5,545.2 1107.5,561.1 1104.4,553.8 
			1103.3,565.5 1101.1,558 1098.7,564.3 1096.2,552.6 1094.7,564.4 1093.7,557 1089,564.3 1091.2,550.5 1084.1,564.9 1084.3,559.4 
			1080.3,565 1079.5,556.8 1076.6,564.8 1074.9,558 1071.9,565.5 1070.1,552.1 1066.8,565 1065.4,558 1061.7,564.6 1063.3,548.4 
			1056.2,564.4 1055.2,555.1 1052,563.4 1049.1,546.5 1047.1,562.5 1044.1,555.1 1042.9,566.8 1040.7,559.3 1038.4,565.7 
			1035.8,553.9 1034.4,565.8 1033.3,558.4 1028.6,565.6 1030.8,551.8 1023.7,566.3 1023.9,560.8 1020,566.3 1019.1,558.1 
			1016.2,566.1 1014.5,559.3 1011.6,566.8 1009.7,553.4 1006.5,566.4 1005,559.3 1001.4,565.9 1003,549.7 995.8,565.8 994.8,556.5 
			991.6,564.8 988.8,547.8 986.7,563.8 983.7,556.5 982.7,566.8 980.9,560.6 978.5,567 976,555.2 974.5,567.1 973.5,559.7 
			968.8,566.9 971,553.2 963.9,567.6 964.1,562.1 960.2,567.7 959.3,559.4 956.4,567.5 954.7,560.6 951.7,568.1 949.9,554.8 
			946.6,567.7 945.2,560.6 941.5,567.2 943.1,551 936,567.1 935,557.8 931.8,566.1 928.9,549.1 926.9,565.1 923.9,557.8 
			922.8,568.1 921,561.9 918.7,568.3 916.1,556.6 914.7,568.4 913.7,561 909,568.2 911.2,554.5 904.1,568.9 904.3,563.4 900.3,569 
			899.5,560.7 896.5,568.8 894.8,562 891.9,569.4 890.1,556.1 886.8,569 885.4,562 881.7,568.6 883.3,552.3 876.2,568.4 
			875.2,559.1 872,567.4 869.1,550.5 867.1,566.4 864,559.1 863,569.4 861.2,563.2 858.9,569.6 856.9,560.4 857,572.7 862.7,572.5 
			863.9,572.5 922.5,571.2 923.7,571.2 982.4,569.9 983.6,569.9 1042.7,568.6 1043.4,568.6 1103.1,567.3 1103.8,567.2 1164.1,565.9 
					"/>
		<path class="st102" d="M1230.3,531.6h39.3c1,0,1.9,0.8,1.9,1.9l0,0v27.2c0,1-0.8,1.9-1.9,1.9l0,0h-35.8c-2,0-3.6-1.6-3.6-3.6v0
			L1230.3,531.6L1230.3,531.6z"/>
		<path class="st101" d="M1213.1,531.6h21.6l0,0v31l0,0h-21.6c-0.7,0-1.2-0.6-1.2-1.2v-28.5C1211.8,532.2,1212.4,531.6,1213.1,531.6
			z"/>
		<rect x="1221.6" y="533.4" class="st110" width="11.3" height="7.3"/>
		<path class="st118" d="M1230.1,535.7h-6.3c-0.2,0-0.3-0.1-0.4-0.2s0.1-0.3,0.2-0.4c0,0,0.1,0,0.1,0h6.3c0.2,0,0.3,0.1,0.4,0.2
			s-0.1,0.3-0.2,0.4C1230.1,535.7,1230.1,535.7,1230.1,535.7z"/>
		<path class="st118" d="M1225.8,537h-2c-0.2,0-0.3-0.1-0.3-0.3c0,0,0,0,0,0c0-0.2,0.1-0.3,0.3-0.3l0,0h2c0.2,0,0.3,0.1,0.3,0.3
			c0,0,0,0,0,0C1226.1,536.9,1226,537,1225.8,537C1225.9,537.1,1225.8,537.1,1225.8,537z"/>
		<path class="st118" d="M1229.8,537h-2.7c-0.2,0-0.3-0.2-0.2-0.4c0-0.1,0.1-0.2,0.2-0.2h2.7c0.2,0,0.3,0.2,0.2,0.4
			C1230,536.9,1229.9,537,1229.8,537z"/>
		<path class="st118" d="M1232.2,540h-9.8c0,0-0.1,0-0.1-0.1c0,0,0,0,0,0v-5.7c0-0.1,0-0.1,0.1-0.1h9.8c0.1,0,0.1,0,0.1,0.1v5.7
			C1232.3,540,1232.3,540,1232.2,540C1232.2,540,1232.2,540,1232.2,540z"/>
	</g>
</g>
</svg>
