<svg id="Layer_1" data-name="Layer 1" xmlns="http://www.w3.org/2000/svg" xmlns:xlink="http://www.w3.org/1999/xlink" viewBox="0 0 956 395"><defs><clipPath id="clip-path"><path d="M880,45h0a59,59,0,0,1,59,59h0a59,59,0,0,1-59,59h0a59,59,0,0,1-59-59h0A59,59,0,0,1,880,45Z" style="fill:none"/></clipPath><clipPath id="clip-path-2"><path d="M477,173h0a59,59,0,0,1,59,59h0a59,59,0,0,1-59,59h0a59,59,0,0,1-59-59h0A59,59,0,0,1,477,173Z" style="fill:none"/></clipPath><clipPath id="clip-path-3"><path d="M76,19h0a59,59,0,0,1,59,59h0a59,59,0,0,1-59,59h0A59,59,0,0,1,17,78h0A59,59,0,0,1,76,19Z" style="fill:none"/></clipPath></defs><path d="M84,174.53a1,1,0,1,0,0-2Zm6-1.82a1,1,0,0,0-1,1,1,1,0,0,0,1,1Zm7.76,2.47a1,1,0,1,0,.16-2Zm6.11-1.45a1,1,0,0,0-.21,2Zm7.59,3a1,1,0,1,0,.28-2Zm6.18-1a1,1,0,0,0-.34,2Zm7.39,3.46a1,1,0,0,0,.41-2Zm6.23-.63a1,1,0,0,0-.48,1.94Zm7.14,4a1,1,0,1,0,.55-1.92Zm6.25-.21a1,1,0,0,0-.61,1.91Zm6.87,4.43a1,1,0,0,0,1.28-.6,1,1,0,0,0-.61-1.28Zm6.24.2a1,1,0,1,0-.73,1.86Zm6.57,4.86a1,1,0,1,0,.8-1.83Zm6.23.59a1,1,0,0,0-.84,1.82Zm6.27,5.25a1,1,0,0,0,1.34-.45,1,1,0,0,0-.45-1.34Zm6.19.94a1,1,0,0,0-.94,1.77Zm6,5.56a1,1,0,0,0,1.37-.38,1,1,0,0,0-.38-1.36Zm6.14,1.25a1,1,0,1,0-1,1.72Zm5.72,5.82a1,1,0,0,0,1.38-.32,1,1,0,0,0-.32-1.37Zm6.09,1.5a1,1,0,1,0-1.09,1.68Zm5.5,6a1,1,0,0,0,1.39-.28,1,1,0,0,0-.27-1.38Zm6,1.68a1,1,0,0,0-1.13,1.65Zm5.34,6.18a1,1,0,1,0,1.16-1.63Zm6,1.83a1,1,0,0,0-1.4.23,1,1,0,0,0,.23,1.39Zm5.22,6.28a1,1,0,0,0,1.39-.22,1,1,0,0,0-.21-1.4Zm6,1.91a1,1,0,0,0-1.4.21,1,1,0,0,0,.21,1.4Zm5.15,6.33a1,1,0,0,0,1.2-1.61Zm6,1.95a1,1,0,0,0-1.2,1.6Zm5.15,6.33a1,1,0,1,0,1.19-1.6Zm6,1.93a1,1,0,0,0-1.18,1.61Zm5.2,6.31a1,1,0,1,0,1.18-1.61Zm6,1.87a1,1,0,1,0-1.17,1.62Zm5.29,6.24a1,1,0,0,0,1.15-1.64Zm6,1.75a1,1,0,0,0-1.14,1.65Zm5.41,6.13a1,1,0,0,0,1.12-1.66Zm6.05,1.61a1,1,0,1,0-1.1,1.67Zm5.57,6a1,1,0,0,0,1.07-1.69Zm6.1,1.43a1,1,0,1,0-1,1.71Zm5.77,5.78a1,1,0,1,0,1-1.73Zm6.15,1.21a1,1,0,0,0-1.37.38,1,1,0,0,0,.39,1.36Zm6,5.55a1,1,0,0,0,1.35-.42,1,1,0,0,0-.41-1.35Zm6.19,1a1,1,0,0,0-.9,1.78Zm6.22,5.28a1,1,0,1,0,.86-1.8Zm6.23.69a1,1,0,0,0-1.32.5,1,1,0,0,0,.5,1.32Zm6.45,5a1,1,0,0,0,1.31-.54,1,1,0,0,0-.54-1.3Zm6.26.39a1,1,0,0,0-1.3.57,1,1,0,0,0,.57,1.29Zm6.68,4.68a1,1,0,1,0,.68-1.88ZM371,314a1,1,0,0,0-1.27.63,1,1,0,0,0,.63,1.27Zm6.9,4.34a1,1,0,0,0,.59-1.91Zm6.26-.22a1,1,0,0,0-1.23.68,1,1,0,0,0,.69,1.24Zm7.12,4a1,1,0,1,0,.5-1.94Zm6.23-.54a1,1,0,0,0-.45,1.95Zm7.34,3.65a1,1,0,1,0,.4-2Zm6.17-.84a1,1,0,0,0-1.17.8,1,1,0,0,0,.81,1.16Zm7.54,3.3a1,1,0,0,0,1.14-.83,1,1,0,0,0-.83-1.14Zm6.09-1.13a1,1,0,1,0-.27,2Zm7.65,2.95a1,1,0,1,0,.22-2Zm6.08-1.39a1,1,0,0,0-.18,2Zm7.72,2.61a1,1,0,1,0,.13-2Zm6.12-1.64a1,1,0,1,0-.09,2Zm7.73,2.29a1,1,0,0,0,1-1,1,1,0,0,0-1-1Zm6-1.88a1,1,0,0,0,0,2Zm8.12,2a1,1,0,1,0,0-2Zm6-2.12a1,1,0,0,0-1,1,1,1,0,0,0,1,1Zm8,1.7a1,1,0,0,0,.95-1.05,1,1,0,0,0-1.05-.95Zm5.94-2.35a1,1,0,1,0,.14,2Zm8.08,1.37a1,1,0,0,0-.19-2Zm5.85-2.6a1,1,0,0,0,.22,2Zm8.14,1a1,1,0,1,0-.27-2Zm5.72-2.84a1,1,0,1,0,.31,2Zm8.19.65a1,1,0,0,0-.35-2Zm5.57-3.1a1,1,0,0,0,.4,2Zm8.22.27a1,1,0,0,0-.44-2Zm5.42-3.35a1,1,0,1,0,.49,1.94Zm8.22-.11a1,1,0,1,0-.53-1.92Zm5.26-3.6a1,1,0,1,0,.58,1.91Zm8.22-.49a1,1,0,0,0,.64-1.26,1,1,0,0,0-1.26-.64Zm5.08-3.82a1,1,0,1,0,.66,1.88Zm8.21-.85a1,1,0,1,0-.71-1.87Zm4.9-4a1,1,0,0,0,.73,1.86Zm8.17-1.18a1,1,0,0,0-.78-1.84Zm4.73-4.22a1,1,0,0,0,.8,1.83Zm8.13-1.48a1,1,0,0,0,.49-1.33,1,1,0,0,0-1.33-.48Zm4.58-4.37a1,1,0,1,0,.86,1.8Zm8.09-1.73a1,1,0,0,0,.45-1.34,1,1,0,0,0-1.34-.45Zm4.46-4.49a1,1,0,0,0-.44,1.34,1,1,0,0,0,1.35.44Zm8-1.93a1,1,0,0,0,.42-1.35,1,1,0,0,0-1.35-.42Zm4.37-4.59a1,1,0,0,0-.41,1.36,1,1,0,0,0,1.35.4Zm8-2.06a1,1,0,1,0-1-1.75Zm4.31-4.65a1,1,0,0,0,1,1.76Zm8-2.13a1,1,0,0,0,.39-1.37,1,1,0,0,0-1.36-.38Zm4.28-4.68a1,1,0,0,0,1,1.75Zm8-2.16a1,1,0,1,0-1-1.74Zm4.28-4.66a1,1,0,0,0,1,1.75Zm8-2.12a1,1,0,1,0-1-1.75Zm4.33-4.63a1,1,0,1,0,1,1.75Zm8-2a1,1,0,1,0-.94-1.77Zm4.41-4.57a1,1,0,0,0,.92,1.78Zm8-1.86a1,1,0,0,0,.44-1.35,1,1,0,0,0-1.34-.44Zm4.5-4.47a1,1,0,1,0,.88,1.8Zm8.09-1.67a1,1,0,0,0-.85-1.81Zm4.61-4.34a1,1,0,0,0,.83,1.82Zm8.16-1.43a1,1,0,0,0-.79-1.84Zm4.73-4.19a1,1,0,1,0,.77,1.85Zm8.21-1.16a1,1,0,1,0-.73-1.86Zm4.87-4a1,1,0,0,0,.7,1.88Zm8.24-.85a1,1,0,1,0-.66-1.89Zm5-3.82a1,1,0,1,0,.62,1.9Zm8.27-.54a1,1,0,0,0,.66-1.24,1,1,0,0,0-1.25-.67Zm5.17-3.61a1,1,0,1,0,.55,1.92Zm8.29-.2a1,1,0,0,0-.51-1.94Zm5.3-3.41a1,1,0,0,0,.48,1.95Zm8.31.14a1,1,0,0,0-.43-2Zm5.43-3.19a1,1,0,1,0,.39,2Zm8.31.46a1,1,0,0,0,.81-1.16,1,1,0,0,0-1.16-.81Zm5.53-3a1,1,0,1,0,.32,2Zm8.28.78a1,1,0,1,0-.27-2Zm5.66-2.75a1,1,0,1,0,.24,2Zm8.21,1.09a1,1,0,0,0,.89-1.09,1,1,0,0,0-1.1-.9Zm5.8-2.55a1,1,0,0,0,.17,2Zm8.11,1.39a1,1,0,1,0-.13-2Zm6-2.35a1,1,0,0,0,.1,2Zm8,1.67a1,1,0,1,0-.06-2Zm6-2.16a1,1,0,1,0,0,2ZM80,174.5c1.35,0,2.68,0,4,0l0-2c-1.33,0-2.68,0-4,0Zm9.93.21q4,.16,7.84.47l.16-2c-2.61-.2-5.25-.37-7.92-.48Zm13.74,1c2.64.28,5.23.61,7.8,1l.28-2q-3.89-.56-7.87-1Zm13.64,1.9q3.91.67,7.73,1.49l.41-2q-3.84-.83-7.8-1.5Zm13.48,2.8c2.58.63,5.11,1.3,7.62,2l.55-1.92q-3.79-1.08-7.69-2Zm13.26,3.71q3.8,1.2,7.48,2.52l.67-1.88q-3.72-1.34-7.54-2.55Zm13,4.58q3.71,1.46,7.3,3l.8-1.83q-3.64-1.57-7.37-3Zm12.69,5.41q3.59,1.66,7.11,3.43l.89-1.79q-3.54-1.78-7.16-3.46Zm12.36,6.14c2.32,1.23,4.63,2.5,6.91,3.79l1-1.74c-2.3-1.3-4.62-2.58-7-3.82Zm12,6.76c2.27,1.34,4.51,2.71,6.74,4.1l1.06-1.69c-2.24-1.41-4.5-2.78-6.78-4.13Zm11.74,7.28q3.31,2.13,6.59,4.35l1.12-1.66c-2.2-1.48-4.4-2.94-6.62-4.37ZM217.35,222c2.16,1.49,4.32,3,6.47,4.53l1.16-1.63c-2.16-1.53-4.32-3-6.5-4.55Zm11.3,8q3.19,2.31,6.39,4.66l1.18-1.62c-2.13-1.56-4.27-3.12-6.4-4.66Zm11.17,8.18,6.34,4.72,1.2-1.61L241,236.53Zm11.1,8.27,6.35,4.73,1.19-1.6-6.34-4.73ZM262,254.68q3.16,2.35,6.38,4.7l1.18-1.61c-2.14-1.56-4.26-3.13-6.38-4.7Zm11.18,8.19c2.14,1.55,4.29,3.08,6.46,4.62l1.15-1.64c-2.16-1.52-4.31-3.06-6.44-4.6Zm11.32,8c2.16,1.5,4.35,3,6.55,4.48l1.12-1.66q-3.29-2.22-6.53-4.47Zm11.5,7.76c2.2,1.45,4.43,2.88,6.67,4.3l1.07-1.69c-2.23-1.41-4.45-2.84-6.64-4.28Zm11.73,7.44q3.36,2.06,6.81,4.07l1-1.73q-3.43-2-6.78-4.05Zm12,7q3.44,1.93,7,3.81l.94-1.77c-2.34-1.24-4.64-2.5-6.92-3.78ZM332,299.66c2.34,1.19,4.72,2.36,7.12,3.5l.86-1.8q-3.59-1.71-7.08-3.48Zm12.53,6q3.59,1.62,7.27,3.17l.77-1.84q-3.65-1.54-7.22-3.15Zm12.8,5.42q3.65,1.46,7.41,2.82l.68-1.88q-3.74-1.36-7.36-2.8Zm13,4.8c2.48.84,5,1.66,7.54,2.44l.59-1.91c-2.53-.78-5-1.59-7.49-2.43ZM383.63,320q3.78,1.08,7.66,2.07l.5-1.94c-2.57-.65-5.11-1.34-7.62-2.05Zm13.44,3.48c2.56.6,5.16,1.16,7.79,1.7l.4-2c-2.62-.53-5.19-1.1-7.74-1.69Zm13.6,2.82q3.9.72,7.9,1.34l.31-2q-4-.63-7.85-1.33Zm13.72,2.19c2.61.35,5.25.68,7.92,1l.22-2q-4-.45-7.87-1Zm13.82,1.57c2.6.24,5.24.44,7.9.62l.13-2q-4-.27-7.85-.62Zm13.93,1q3.87.19,7.82.3l.06-2c-2.63-.07-5.22-.17-7.79-.29Zm13.81.42,4.05,0v-2l-4,0Zm4.05,0,4.09,0,0-2-4.07,0Zm10.14-.14q4-.11,8-.3l-.1-2q-3.91.19-7.93.3Zm14.06-.66c2.68-.17,5.32-.38,7.94-.62l-.19-2q-3.88.35-7.89.62Zm14-1.23q4-.44,7.92-1l-.27-2q-3.89.53-7.87,1Zm13.95-1.84q4-.61,7.88-1.32l-.35-2c-2.58.47-5.2.91-7.84,1.32ZM536,325.17c2.64-.53,5.25-1.1,7.82-1.69l-.44-2q-3.84.89-7.78,1.68Zm13.73-3.1c2.61-.66,5.18-1.34,7.73-2.05l-.53-1.92q-3.81,1-7.69,2Zm13.57-3.74c2.58-.77,5.12-1.57,7.64-2.4l-.62-1.9c-2.5.83-5,1.62-7.6,2.39ZM576.69,314c2.54-.88,5.06-1.8,7.55-2.73l-.71-1.87c-2.47.93-5,1.83-7.5,2.72Zm13.18-4.91c2.51-1,5-2,7.44-3l-.78-1.84c-2.44,1-4.9,2-7.39,3Zm13-5.43c2.47-1.08,4.91-2.19,7.33-3.31l-.84-1.81q-3.62,1.67-7.29,3.29Zm12.77-5.88q3.64-1.74,7.23-3.53l-.89-1.79c-2.39,1.19-4.79,2.37-7.2,3.52Zm12.6-6.24c2.39-1.23,4.76-2.46,7.13-3.71l-.93-1.77q-3.54,1.88-7.11,3.7ZM640.65,285c2.36-1.26,4.71-2.54,7.06-3.82l-1-1.75q-3.51,1.92-7,3.81ZM653,278.28l7-3.89-1-1.75-7,3.88Zm12.27-6.82,7-3.91-1-1.74-7,3.9Zm12.25-6.82c2.34-1.3,4.67-2.59,7-3.87l-1-1.75q-3.52,1.92-7,3.87Zm12.31-6.75q3.51-1.89,7-3.77l-.94-1.77c-2.37,1.26-4.72,2.52-7.07,3.79Zm12.38-6.56q3.54-1.85,7.12-3.64l-.9-1.79c-2.4,1.21-4.78,2.42-7.14,3.65ZM714.7,245c2.38-1.17,4.79-2.33,7.21-3.47l-.85-1.81c-2.43,1.15-4.85,2.31-7.24,3.48Zm12.65-6c2.42-1.1,4.86-2.19,7.33-3.25l-.79-1.84q-3.72,1.6-7.37,3.27Zm12.83-5.59q3.68-1.53,7.44-3l-.73-1.86q-3.78,1.49-7.48,3Zm13-5.14q3.73-1.4,7.54-2.73l-.66-1.89c-2.55.89-5.08,1.81-7.58,2.74Zm13.19-4.65q3.78-1.26,7.65-2.44l-.59-1.91c-2.59.8-5.15,1.61-7.68,2.45Zm13.37-4.13q3.82-1.1,7.74-2.12l-.51-1.94q-3.94,1-7.78,2.14Zm13.52-3.58q3.87-.94,7.83-1.81l-.43-2c-2.66.59-5.28,1.19-7.88,1.82Zm13.65-3q3.92-.78,7.92-1.5l-.35-2q-4,.72-8,1.51Zm13.77-2.49q3.93-.63,8-1.19l-.27-2c-2.71.37-5.37.77-8,1.2Zm13.86-2c2.62-.32,5.28-.61,8-.89l-.21-2q-4,.42-8,.9ZM848.49,207q3.93-.34,7.94-.61l-.13-2q-4,.27-8,.6Zm14-1q3.9-.21,7.89-.33l-.06-2q-4,.14-7.93.33Zm13.92-.49q2,0,4.08-.06l0-2c-1.37,0-2.74,0-4.09.06Z" style="fill:#1fb767"/><path d="M477,317h0a15,15,0,0,1,15,15h0a15,15,0,0,1-15,15h0a15,15,0,0,1-15-15h0A15,15,0,0,1,477,317Z" style="fill:#fff"/><path d="M477,320h0a12,12,0,0,1,12,12h0a12,12,0,0,1-12,12h0a12,12,0,0,1-12-12h0A12,12,0,0,1,477,320Z" style="fill:#16a75c"/><path d="M479.81,335.89a.6.6,0,0,1,.44.16.53.53,0,0,1,.17.41v1h-6.95v-.57a1,1,0,0,1,.31-.72l3.07-3.08q.39-.39.69-.75a5.87,5.87,0,0,0,.51-.7,3.65,3.65,0,0,0,.31-.71,2.74,2.74,0,0,0,.11-.76,1.75,1.75,0,0,0-.11-.64,1.27,1.27,0,0,0-.3-.47,1.08,1.08,0,0,0-.46-.28,1.89,1.89,0,0,0-.6-.1,1.81,1.81,0,0,0-.58.09,1.58,1.58,0,0,0-.46.25,1.46,1.46,0,0,0-.34.36,1.92,1.92,0,0,0-.21.46.74.74,0,0,1-.31.43.83.83,0,0,1-.54.05l-.91-.16a3.77,3.77,0,0,1,.4-1.28,3,3,0,0,1,.75-.91,3.27,3.27,0,0,1,1-.56,4.26,4.26,0,0,1,1.26-.18,3.78,3.78,0,0,1,1.28.21,2.57,2.57,0,0,1,1,.58,2.61,2.61,0,0,1,.65.91,3,3,0,0,1,.23,1.18,3.19,3.19,0,0,1-.17,1,4.23,4.23,0,0,1-.44.91,5.57,5.57,0,0,1-.65.84c-.24.27-.5.54-.77.82l-2.29,2.33a5.18,5.18,0,0,1,.66-.14,3.42,3.42,0,0,1,.62-.06Z" style="fill:#fff"/><path d="M477,317h0a15,15,0,0,1,15,15h0a15,15,0,0,1-15,15h0a15,15,0,0,1-15-15h0A15,15,0,0,1,477,317Z" style="fill:none;stroke:#16a75c;stroke-width:2px"/><path d="M880,189h0a15,15,0,0,1,15,15h0a15,15,0,0,1-15,15h0a15,15,0,0,1-15-15h0A15,15,0,0,1,880,189Z" style="fill:#fff"/><path d="M880,192h0a12,12,0,0,1,12,12h0a12,12,0,0,1-12,12h0a12,12,0,0,1-12-12h0A12,12,0,0,1,880,192Z" style="fill:#16a75c"/><path d="M876.7,202.2a3.65,3.65,0,0,1,.4-1.27,3,3,0,0,1,1.79-1.47,4,4,0,0,1,1.26-.19,3.62,3.62,0,0,1,1.26.2,2.74,2.74,0,0,1,1,.55,2.48,2.48,0,0,1,.83,1.86,3.13,3.13,0,0,1-.11.85,2.12,2.12,0,0,1-.31.64,2,2,0,0,1-.51.46,3.06,3.06,0,0,1-.68.32A2.6,2.6,0,0,1,883,205a2.35,2.35,0,0,1,.45,1.48,3,3,0,0,1-.28,1.33,2.84,2.84,0,0,1-.76,1,3.34,3.34,0,0,1-1.1.6,4.44,4.44,0,0,1-1.32.2,4.72,4.72,0,0,1-1.33-.17,2.92,2.92,0,0,1-1-.52,3,3,0,0,1-.71-.84,5.31,5.31,0,0,1-.51-1.15l.76-.31a.87.87,0,0,1,.56-.07.55.55,0,0,1,.39.28,4.67,4.67,0,0,0,.27.49,1.86,1.86,0,0,0,.37.42,1.84,1.84,0,0,0,.49.3,1.71,1.71,0,0,0,.67.12,2,2,0,0,0,.77-.14,1.63,1.63,0,0,0,.55-.38,1.59,1.59,0,0,0,.33-.51,1.49,1.49,0,0,0,.11-.58,2.18,2.18,0,0,0-.08-.65.92.92,0,0,0-.32-.52,1.76,1.76,0,0,0-.7-.33,5.74,5.74,0,0,0-1.23-.11V203.7a4.42,4.42,0,0,0,1.06-.11,1.84,1.84,0,0,0,.66-.31,1,1,0,0,0,.35-.49,1.7,1.7,0,0,0,.1-.61,1.41,1.41,0,0,0-.4-1.09,1.52,1.52,0,0,0-1.06-.37,1.7,1.7,0,0,0-.57.09,1.63,1.63,0,0,0-.47.25,1.46,1.46,0,0,0-.34.36,1.92,1.92,0,0,0-.21.46.71.71,0,0,1-.32.43.82.82,0,0,1-.54.05Z" style="fill:#fff"/><path d="M880,189h0a15,15,0,0,1,15,15h0a15,15,0,0,1-15,15h0a15,15,0,0,1-15-15h0A15,15,0,0,1,880,189Z" style="fill:none;stroke:#16a75c;stroke-width:2px"/><path d="M76,159h0a15,15,0,0,1,15,15h0a15,15,0,0,1-15,15h0a15,15,0,0,1-15-15h0A15,15,0,0,1,76,159Z" style="fill:#fff"/><path d="M76,162h0a12,12,0,0,1,12,12h0a12,12,0,0,1-12,12h0a12,12,0,0,1-12-12h0A12,12,0,0,1,76,162Z" style="fill:#16a75c"/><path d="M79.18,178.21v1.29h-5.6v-1.29h2.06V172.3c0-.23,0-.47,0-.72L74.2,172.8a.6.6,0,0,1-.25.13h-.23a.84.84,0,0,1-.19-.07.51.51,0,0,1-.13-.12l-.54-.75,3.08-2.63h1.42v8.85Z" style="fill:#fff"/><path d="M76,159h0a15,15,0,0,1,15,15h0a15,15,0,0,1-15,15h0a15,15,0,0,1-15-15h0A15,15,0,0,1,76,159Z" style="fill:none;stroke:#16a75c;stroke-width:2px"/><path d="M435.14,376.51,430.47,388h-1.53l-4.67-11.49h1.36a.61.61,0,0,1,.36.11.86.86,0,0,1,.21.29l3.11,7.81q.1.28.21.63c.08.23.14.47.2.72q.07-.37.18-.72a4.65,4.65,0,0,1,.21-.63l3.09-7.81a.69.69,0,0,1,.2-.28.59.59,0,0,1,.37-.12Z" style="fill:#022b55"/><path d="M440.42,383a2.57,2.57,0,0,0-.14-.85,1.82,1.82,0,0,0-.38-.68,1.59,1.59,0,0,0-.63-.45,2,2,0,0,0-.85-.16,2.1,2.1,0,0,0-1.55.57,2.73,2.73,0,0,0-.71,1.57Zm1.28,3.81a3.05,3.05,0,0,1-.66.58,4.6,4.6,0,0,1-.8.4,4.93,4.93,0,0,1-.88.22,5.34,5.34,0,0,1-.89.07,4.2,4.2,0,0,1-1.56-.28,3.61,3.61,0,0,1-1.24-.83,3.91,3.91,0,0,1-.81-1.36,5.65,5.65,0,0,1-.29-1.87,4.76,4.76,0,0,1,.26-1.58,4,4,0,0,1,.75-1.28,3.58,3.58,0,0,1,1.21-.85,3.94,3.94,0,0,1,1.6-.32,3.75,3.75,0,0,1,1.37.25,3,3,0,0,1,1.09.71,3.29,3.29,0,0,1,.71,1.14,4.16,4.16,0,0,1,.27,1.55.91.91,0,0,1-.09.49.32.32,0,0,1-.29.12h-5.33a4.68,4.68,0,0,0,.21,1.27,2.6,2.6,0,0,0,.5.9,2,2,0,0,0,.78.53,2.66,2.66,0,0,0,1,.18,3,3,0,0,0,.9-.12,3.66,3.66,0,0,0,.65-.26,3.59,3.59,0,0,0,.46-.26.67.67,0,0,1,.34-.12.36.36,0,0,1,.3.14Z" style="fill:#022b55"/><path d="M445,381.43a3.78,3.78,0,0,1,.95-1.25,2,2,0,0,1,1.33-.46,1.93,1.93,0,0,1,.49.06,1.33,1.33,0,0,1,.42.18l-.11,1.18a.24.24,0,0,1-.26.21,1.85,1.85,0,0,1-.34,0,2.44,2.44,0,0,0-.48-.05,1.69,1.69,0,0,0-.66.12,1.5,1.5,0,0,0-.52.32,2,2,0,0,0-.4.52,4.44,4.44,0,0,0-.33.69V388H443.5v-8.13h.9a.43.43,0,0,1,.34.1.53.53,0,0,1,.14.32Z" style="fill:#022b55"/><path d="M451,379.87V388h-1.56v-8.13Zm.3-2.51a1.06,1.06,0,0,1-.09.42,1.31,1.31,0,0,1-.24.34,1,1,0,0,1-.34.23,1.2,1.2,0,0,1-.42.08,1.15,1.15,0,0,1-.41-.08,1.08,1.08,0,0,1-.57-.57,1,1,0,0,1-.08-.42,1,1,0,0,1,.08-.42,1.13,1.13,0,0,1,.23-.34,1.08,1.08,0,0,1,.34-.23,1,1,0,0,1,.41-.09,1,1,0,0,1,.42.09.89.89,0,0,1,.34.23,1.16,1.16,0,0,1,.24.34A1,1,0,0,1,451.29,377.36Z" style="fill:#022b55"/><path d="M453.79,388v-6.85l-.85-.1a.83.83,0,0,1-.3-.13.32.32,0,0,1-.12-.27V380h1.27v-.74A3.71,3.71,0,0,1,454,378a2.55,2.55,0,0,1,.57-.92,2.52,2.52,0,0,1,.89-.57,3.2,3.2,0,0,1,1.19-.2,3,3,0,0,1,1,.16l0,.78a.22.22,0,0,1-.22.23,1,1,0,0,1-.22,0h-.28a2.71,2.71,0,0,0-.66.08,1.22,1.22,0,0,0-.5.3,1.29,1.29,0,0,0-.32.55,2.9,2.9,0,0,0-.11.84V380h2.28v1.14h-2.23V388Z" style="fill:#022b55"/><path d="M460.52,379.87V388H459v-8.13Zm.3-2.51a1.06,1.06,0,0,1-.09.42,1.31,1.31,0,0,1-.24.34,1,1,0,0,1-.34.23,1.16,1.16,0,0,1-.42.08,1.06,1.06,0,0,1-.4-.08,1.18,1.18,0,0,1-.35-.23,1.56,1.56,0,0,1-.23-.34,1.25,1.25,0,0,1-.08-.42,1.16,1.16,0,0,1,.08-.42,1.36,1.36,0,0,1,.23-.34,1,1,0,0,1,.35-.23.9.9,0,0,1,.4-.09,1,1,0,0,1,.42.09.89.89,0,0,1,.34.23,1.16,1.16,0,0,1,.24.34A1,1,0,0,1,460.82,377.36Z" style="fill:#022b55"/><path d="M464.34,376.19v6.91h.37a.74.74,0,0,0,.28-.05.64.64,0,0,0,.23-.19l2.43-2.68a.89.89,0,0,1,.25-.23.72.72,0,0,1,.35-.08h1.42L466.8,383a2.08,2.08,0,0,1-.5.45,1.55,1.55,0,0,1,.27.24,2.37,2.37,0,0,1,.23.3l3.06,4h-1.41a.84.84,0,0,1-.33-.06.7.7,0,0,1-.25-.24l-2.51-3.26a.57.57,0,0,0-.24-.23.84.84,0,0,0-.36-.06h-.42V388h-1.56V376.19Z" style="fill:#022b55"/><path d="M475.39,384.39a11.21,11.21,0,0,0-1.62.15,4.54,4.54,0,0,0-1.08.31,1.47,1.47,0,0,0-.6.45,1,1,0,0,0-.18.58,1.44,1.44,0,0,0,.09.53,1.22,1.22,0,0,0,.27.36,1.42,1.42,0,0,0,.41.2,2.1,2.1,0,0,0,.51.06,2.64,2.64,0,0,0,.65-.07,2.56,2.56,0,0,0,.57-.2,2.7,2.7,0,0,0,.5-.33,4.79,4.79,0,0,0,.48-.44ZM470.81,381a4.58,4.58,0,0,1,1.47-1,4.78,4.78,0,0,1,1.75-.32,3.19,3.19,0,0,1,1.24.23,2.5,2.5,0,0,1,1.45,1.61,3.87,3.87,0,0,1,.19,1.26V388h-.69a.66.66,0,0,1-.35-.07.55.55,0,0,1-.2-.29l-.16-.71c-.21.19-.42.36-.62.51a5.14,5.14,0,0,1-.64.38,3.83,3.83,0,0,1-.7.23,4.28,4.28,0,0,1-.84.08,3.26,3.26,0,0,1-.9-.13,2.09,2.09,0,0,1-.73-.41,1.89,1.89,0,0,1-.49-.68,2.33,2.33,0,0,1-.18-1,1.71,1.71,0,0,1,.26-.92,2.32,2.32,0,0,1,.84-.8,5.78,5.78,0,0,1,1.54-.58,12.14,12.14,0,0,1,2.34-.25v-.59a2,2,0,0,0-.4-1.38,1.44,1.44,0,0,0-1.15-.46,2.64,2.64,0,0,0-.86.13,3.36,3.36,0,0,0-.6.29l-.44.28a.63.63,0,0,1-.39.13.47.47,0,0,1-.28-.09.91.91,0,0,1-.18-.21Z" style="fill:#022b55"/><path d="M483.79,381.27a.39.39,0,0,1-.13.15.36.36,0,0,1-.19,0,.67.67,0,0,1-.28-.08l-.38-.2a3.25,3.25,0,0,0-.51-.19,2.45,2.45,0,0,0-.71-.09,2,2,0,0,0-.61.09,1.58,1.58,0,0,0-.47.23,1.12,1.12,0,0,0-.29.36.89.89,0,0,0-.11.43.71.71,0,0,0,.18.5,1.75,1.75,0,0,0,.47.35,6.27,6.27,0,0,0,.67.26l.76.24a7.05,7.05,0,0,1,.76.3,2.42,2.42,0,0,1,.66.4,1.81,1.81,0,0,1,.66,1.43,2.59,2.59,0,0,1-.21,1.05,2.36,2.36,0,0,1-.6.84,2.81,2.81,0,0,1-1,.55,4.25,4.25,0,0,1-4.08-.79l.37-.6a.38.38,0,0,1,.16-.17.47.47,0,0,1,.26-.07.53.53,0,0,1,.31.12l.38.24a2.57,2.57,0,0,0,1.35.35,2,2,0,0,0,.69-.1,1.52,1.52,0,0,0,.49-.27,1.09,1.09,0,0,0,.39-.87.77.77,0,0,0-.18-.53,1.61,1.61,0,0,0-.47-.37,3.74,3.74,0,0,0-.67-.26l-.77-.24c-.26-.09-.51-.19-.76-.3a2.77,2.77,0,0,1-.68-.42,1.89,1.89,0,0,1-.64-1.52,2.18,2.18,0,0,1,.19-.91,2.3,2.3,0,0,1,.57-.76,2.73,2.73,0,0,1,.92-.52,3.68,3.68,0,0,1,1.25-.2A4,4,0,0,1,483,380a3.28,3.28,0,0,1,1.12.7Z" style="fill:#022b55"/><path d="M487.59,379.87V388H486v-8.13Zm.29-2.51a1.25,1.25,0,0,1-.08.42,1.15,1.15,0,0,1-.25.34.93.93,0,0,1-.34.23,1.15,1.15,0,0,1-.41.08,1.11,1.11,0,0,1-.41-.08,1.18,1.18,0,0,1-.35-.23,1.56,1.56,0,0,1-.23-.34,1.25,1.25,0,0,1-.08-.42,1.16,1.16,0,0,1,.08-.42,1.36,1.36,0,0,1,.23-.34,1,1,0,0,1,.35-.23,1,1,0,0,1,.41-.09,1,1,0,0,1,.41.09.82.82,0,0,1,.34.23,1,1,0,0,1,.25.34A1.16,1.16,0,0,1,487.88,377.36Z" style="fill:#022b55"/><path d="M501.34,386.62V388h-7.12V376.51h7.12v1.39h-5.41v3.64h4.36v1.33h-4.36v3.75Z" style="fill:#022b55"/><path d="M502.92,388v-8.13h.94a.39.39,0,0,1,.41.31l.11.78a4,4,0,0,1,1-.87,2.4,2.4,0,0,1,1.29-.35,1.88,1.88,0,0,1,1.31.45,2.56,2.56,0,0,1,.74,1.2,2.71,2.71,0,0,1,.45-.74,2.52,2.52,0,0,1,.63-.51,2.45,2.45,0,0,1,.73-.3,3.49,3.49,0,0,1,.79-.1,3,3,0,0,1,1.15.21,2.17,2.17,0,0,1,.86.59,2.55,2.55,0,0,1,.54,1,4.41,4.41,0,0,1,.18,1.31V388h-1.56v-5.18a2.09,2.09,0,0,0-.4-1.37,1.44,1.44,0,0,0-1.16-.47,1.77,1.77,0,0,0-.64.12,1.44,1.44,0,0,0-.53.35,1.73,1.73,0,0,0-.36.57,2.2,2.2,0,0,0-.13.8V388h-1.57v-5.18a2.16,2.16,0,0,0-.37-1.39,1.36,1.36,0,0,0-1.11-.45,1.71,1.71,0,0,0-.93.27,2.83,2.83,0,0,0-.8.72v6Z" style="fill:#022b55"/><path d="M520.51,384.39a11.2,11.2,0,0,0-1.61.15,4.28,4.28,0,0,0-1.08.31,1.47,1.47,0,0,0-.6.45,1,1,0,0,0-.19.58,1.25,1.25,0,0,0,.1.53,1.22,1.22,0,0,0,.27.36,1.31,1.31,0,0,0,.41.2,2,2,0,0,0,.5.06A2.73,2.73,0,0,0,519,387a2.48,2.48,0,0,0,.56-.2,2.78,2.78,0,0,0,.51-.33,3.84,3.84,0,0,0,.47-.44ZM515.93,381a4.47,4.47,0,0,1,3.23-1.29,3.17,3.17,0,0,1,1.23.23,2.44,2.44,0,0,1,.9.63,2.79,2.79,0,0,1,.56,1,4.16,4.16,0,0,1,.19,1.26V388h-.7a.68.68,0,0,1-.35-.07.54.54,0,0,1-.19-.29l-.17-.71c-.21.19-.41.36-.61.51a6,6,0,0,1-.64.38,3.93,3.93,0,0,1-.71.23,4.25,4.25,0,0,1-.83.08,3.39,3.39,0,0,1-.91-.13,2,2,0,0,1-.72-.41,1.91,1.91,0,0,1-.5-.68,2.33,2.33,0,0,1-.18-1,1.81,1.81,0,0,1,.26-.92,2.44,2.44,0,0,1,.85-.8,5.7,5.7,0,0,1,1.53-.58,12.32,12.32,0,0,1,2.34-.25v-.59a2.07,2.07,0,0,0-.39-1.38A1.45,1.45,0,0,0,519,381a2.75,2.75,0,0,0-.87.13,3.36,3.36,0,0,0-.6.29l-.44.28a.62.62,0,0,1-.38.13.45.45,0,0,1-.28-.09.6.6,0,0,1-.18-.21Z" style="fill:#022b55"/><path d="M525.76,379.87V388H524.2v-8.13Zm.29-2.51a1,1,0,0,1-.08.42,1.31,1.31,0,0,1-.24.34,1.07,1.07,0,0,1-.35.23,1.15,1.15,0,0,1-.41.08,1.11,1.11,0,0,1-.41-.08,1.13,1.13,0,0,1-.34-.23,1.31,1.31,0,0,1-.24-.34,1.25,1.25,0,0,1-.08-.42,1,1,0,0,1,.32-.76,1,1,0,0,1,.34-.23,1,1,0,0,1,.41-.09,1,1,0,0,1,.41.09.93.93,0,0,1,.35.23,1.16,1.16,0,0,1,.24.34A1,1,0,0,1,526.05,377.36Z" style="fill:#022b55"/><path d="M529.62,376.19V388h-1.57V376.19Z" style="fill:#022b55"/><path d="M609.42,88.51V100h-1.49V91.82c0-.12,0-.25,0-.39l0-.42-3.82,7a.66.66,0,0,1-.62.4h-.24a.63.63,0,0,1-.61-.4l-3.89-7a8.39,8.39,0,0,1,0,.84V100h-1.49V88.51h1.26a1,1,0,0,1,.35,0,.54.54,0,0,1,.24.24L603,95.68c.07.14.14.29.2.44s.13.31.19.46a8,8,0,0,1,.39-.91l3.77-6.87a.47.47,0,0,1,.22-.24,1.13,1.13,0,0,1,.35,0Z" style="fill:#022b55"/><path d="M617.07,95a2.57,2.57,0,0,0-.13-.85,1.89,1.89,0,0,0-.39-.68,1.63,1.63,0,0,0-.62-.45,2.37,2.37,0,0,0-2.4.41,2.73,2.73,0,0,0-.71,1.57Zm1.29,3.81a3.05,3.05,0,0,1-.66.58,4.6,4.6,0,0,1-.8.4,5.41,5.41,0,0,1-1.77.29,4.2,4.2,0,0,1-1.56-.28,3.51,3.51,0,0,1-1.24-.83,3.92,3.92,0,0,1-.82-1.36,5.66,5.66,0,0,1-.28-1.87,4.52,4.52,0,0,1,.26-1.58,4,4,0,0,1,.75-1.28,3.4,3.4,0,0,1,1.21-.85,3.91,3.91,0,0,1,1.6-.32,3.79,3.79,0,0,1,1.37.25,3.07,3.07,0,0,1,1.09.71,3.29,3.29,0,0,1,.71,1.14,4.38,4.38,0,0,1,.26,1.55,1,1,0,0,1-.08.49.32.32,0,0,1-.29.12h-5.33a4,4,0,0,0,.21,1.27,2.6,2.6,0,0,0,.5.9,2,2,0,0,0,.78.53,2.62,2.62,0,0,0,1,.18,3,3,0,0,0,.89-.12,4.33,4.33,0,0,0,.66-.26,4.45,4.45,0,0,0,.46-.26.67.67,0,0,1,.34-.12.34.34,0,0,1,.29.14Z" style="fill:#022b55"/><path d="M621.76,88.19V100h-1.57V88.19Z" style="fill:#022b55"/><path d="M629.37,95a2.33,2.33,0,0,0-.14-.85,1.74,1.74,0,0,0-.38-.68,1.63,1.63,0,0,0-.62-.45,2.37,2.37,0,0,0-2.4.41,2.74,2.74,0,0,0-.72,1.57Zm1.29,3.81a3.11,3.11,0,0,1-.67.58,4.5,4.5,0,0,1-.79.4,5.41,5.41,0,0,1-1.77.29,4.2,4.2,0,0,1-1.56-.28,3.51,3.51,0,0,1-1.24-.83,3.92,3.92,0,0,1-.82-1.36,5.65,5.65,0,0,1-.29-1.87,4.52,4.52,0,0,1,.27-1.58,3.64,3.64,0,0,1,.75-1.28,3.4,3.4,0,0,1,1.21-.85,3.91,3.91,0,0,1,1.6-.32,3.83,3.83,0,0,1,1.37.25,3,3,0,0,1,1.08.71,3.31,3.31,0,0,1,.72,1.14,4.38,4.38,0,0,1,.26,1.55,1.08,1.08,0,0,1-.08.49.33.33,0,0,1-.3.12h-5.32a4.28,4.28,0,0,0,.2,1.27,2.62,2.62,0,0,0,.51.9,1.94,1.94,0,0,0,.77.53,2.7,2.7,0,0,0,1,.18,3,3,0,0,0,.9-.12,4.17,4.17,0,0,0,.65-.26,3.8,3.8,0,0,0,.47-.26.67.67,0,0,1,.33-.12.36.36,0,0,1,.3.14Z" style="fill:#022b55"/><path d="M633.92,93a4.38,4.38,0,0,1,.55-.51,2.86,2.86,0,0,1,.61-.39,2.8,2.8,0,0,1,.7-.26,3.37,3.37,0,0,1,.8-.1,2.87,2.87,0,0,1,1.17.23,2.37,2.37,0,0,1,.86.63,2.74,2.74,0,0,1,.52,1,4.5,4.5,0,0,1,.17,1.25V100h-1.57V94.82a2.09,2.09,0,0,0-.39-1.35,1.52,1.52,0,0,0-1.23-.49,2.38,2.38,0,0,0-1.13.29,3.62,3.62,0,0,0-1,.77v6h-1.56V91.87h.93a.39.39,0,0,1,.41.31Z" style="fill:#022b55"/><path d="M644.27,95.94a2,2,0,0,0,.72-.11,1.38,1.38,0,0,0,.53-.31,1.3,1.3,0,0,0,.32-.5,1.81,1.81,0,0,0,.11-.63,1.48,1.48,0,0,0-.43-1.12,1.7,1.7,0,0,0-1.25-.42,1.74,1.74,0,0,0-1.26.42,1.51,1.51,0,0,0-.42,1.12,1.81,1.81,0,0,0,.1.63,1.34,1.34,0,0,0,.32.49,1.47,1.47,0,0,0,.53.32A2,2,0,0,0,644.27,95.94Zm2.48,4.48a.61.61,0,0,0-.16-.45.92.92,0,0,0-.44-.27,2.62,2.62,0,0,0-.64-.15l-.77-.07-.83,0c-.28,0-.55,0-.81-.08a2.45,2.45,0,0,0-.69.5,1.05,1.05,0,0,0-.14,1.18,1.08,1.08,0,0,0,.41.38,2.13,2.13,0,0,0,.7.26,4.78,4.78,0,0,0,1,.1,4.34,4.34,0,0,0,1-.11,2.38,2.38,0,0,0,.74-.28,1.22,1.22,0,0,0,.45-.42A1,1,0,0,0,646.75,100.42Zm1.59-8.24v.58q0,.28-.36.36l-.88.13a2.21,2.21,0,0,1,.18.53,2.62,2.62,0,0,1,.06.57,2.39,2.39,0,0,1-.87,1.91,2.75,2.75,0,0,1-1,.53,4.06,4.06,0,0,1-1.23.19,4.3,4.3,0,0,1-1-.12,1.17,1.17,0,0,0-.37.32.56.56,0,0,0-.12.33.45.45,0,0,0,.24.42,1.82,1.82,0,0,0,.61.2,7.31,7.31,0,0,0,.88.07l1,.06a8.27,8.27,0,0,1,1,.12,2.88,2.88,0,0,1,.87.3,1.57,1.57,0,0,1,.61.56,1.59,1.59,0,0,1,.24.92,2.21,2.21,0,0,1-.26,1,2.6,2.6,0,0,1-.75.88,3.83,3.83,0,0,1-1.21.62,5.37,5.37,0,0,1-1.62.23,6.56,6.56,0,0,1-1.57-.17,3.74,3.74,0,0,1-1.12-.48,2,2,0,0,1-.66-.68,1.74,1.74,0,0,1-.22-.82,1.45,1.45,0,0,1,.37-1,2.49,2.49,0,0,1,1-.65,1.36,1.36,0,0,1-.56-.43,1.2,1.2,0,0,1-.21-.74,1,1,0,0,1,.07-.36,1.3,1.3,0,0,1,.19-.37,2.17,2.17,0,0,1,.32-.36,3.08,3.08,0,0,1,.46-.31,2.57,2.57,0,0,1-.94-.88,2.47,2.47,0,0,1-.35-1.31,2.38,2.38,0,0,1,.24-1.08,2.31,2.31,0,0,1,.64-.82,2.8,2.8,0,0,1,1-.53,4.17,4.17,0,0,1,1.26-.18,3.49,3.49,0,0,1,1.81.44Z" style="fill:#022b55"/><path d="M651.33,88.19V95.1h.37a.78.78,0,0,0,.28,0,.74.74,0,0,0,.23-.19l2.43-2.68a.76.76,0,0,1,.25-.23.68.68,0,0,1,.34-.08h1.43L653.78,95a1.86,1.86,0,0,1-.49.45,1.2,1.2,0,0,1,.26.24,2.37,2.37,0,0,1,.23.3l3.06,4h-1.4a.9.9,0,0,1-.34-.06.61.61,0,0,1-.24-.24l-2.52-3.26a.57.57,0,0,0-.24-.23.84.84,0,0,0-.36-.06h-.41V100h-1.56V88.19Z" style="fill:#022b55"/><path d="M662.37,96.39a11.5,11.5,0,0,0-1.62.15,4.54,4.54,0,0,0-1.08.31,1.63,1.63,0,0,0-.6.45,1,1,0,0,0-.18.58,1.25,1.25,0,0,0,.1.53,1.22,1.22,0,0,0,.27.36,1.12,1.12,0,0,0,.41.2,2,2,0,0,0,.5.06,2.73,2.73,0,0,0,.66-.07,2.48,2.48,0,0,0,.56-.2,2.78,2.78,0,0,0,.51-.33,3.84,3.84,0,0,0,.47-.44ZM657.79,93A4.47,4.47,0,0,1,661,91.72a3.17,3.17,0,0,1,1.23.23,2.44,2.44,0,0,1,.9.63,2.79,2.79,0,0,1,.56,1,4.16,4.16,0,0,1,.19,1.26V100h-.7a.68.68,0,0,1-.35-.07.59.59,0,0,1-.19-.29l-.17-.71a7,7,0,0,1-.62.51,4.5,4.5,0,0,1-.64.38,3.59,3.59,0,0,1-.7.23,4.25,4.25,0,0,1-.83.08,3.39,3.39,0,0,1-.91-.13,2,2,0,0,1-.72-.41,1.91,1.91,0,0,1-.5-.68,2.33,2.33,0,0,1-.18-1,1.81,1.81,0,0,1,.26-.92,2.36,2.36,0,0,1,.85-.8,5.7,5.7,0,0,1,1.53-.58,11.56,11.56,0,0,1,2.34-.25v-.59a2.07,2.07,0,0,0-.39-1.38,1.45,1.45,0,0,0-1.15-.46,2.7,2.7,0,0,0-.87.13,3.36,3.36,0,0,0-.6.29l-.44.28a.62.62,0,0,1-.38.13.45.45,0,0,1-.28-.09.76.76,0,0,1-.19-.21Z" style="fill:#022b55"/><path d="M667.55,98a2.11,2.11,0,0,0,.82.7,2.32,2.32,0,0,0,1,.2,2,2,0,0,0,1.66-.76,3.71,3.71,0,0,0,.59-2.26,5.5,5.5,0,0,0-.14-1.32,2.33,2.33,0,0,0-.38-.9,1.52,1.52,0,0,0-.62-.51,2,2,0,0,0-.83-.17,2.25,2.25,0,0,0-1.18.31,3.36,3.36,0,0,0-.92.86Zm-.08-4.91a4.69,4.69,0,0,1,.54-.55,3.76,3.76,0,0,1,.63-.44,3.62,3.62,0,0,1,.71-.28,3.12,3.12,0,0,1,.82-.1,2.87,2.87,0,0,1,1.26.27,2.74,2.74,0,0,1,1,.8A3.88,3.88,0,0,1,673,94.1a6.37,6.37,0,0,1,.22,1.78,5.69,5.69,0,0,1-.24,1.68,4.17,4.17,0,0,1-.7,1.34,3.4,3.4,0,0,1-1.1.89,3.31,3.31,0,0,1-1.47.32,2.76,2.76,0,0,1-2.17-.91v3.53H666V91.87h.93a.39.39,0,0,1,.41.31Z" style="fill:#022b55"/><path d="M676.62,91.87V100h-1.56V91.87Zm.29-2.51a1,1,0,0,1-.08.42,1.31,1.31,0,0,1-.24.34,1.07,1.07,0,0,1-.35.23,1,1,0,0,1-.41.08.94.94,0,0,1-.41-.08,1.13,1.13,0,0,1-.34-.23,1.31,1.31,0,0,1-.24-.34,1.25,1.25,0,0,1-.08-.42,1,1,0,0,1,.32-.76,1,1,0,0,1,.34-.23,1,1,0,0,1,.41-.09,1,1,0,0,1,.41.09.93.93,0,0,1,.35.23,1.16,1.16,0,0,1,.24.34A1,1,0,0,1,676.91,89.36Z" style="fill:#022b55"/><path d="M685,100h-1.72V88.51H685Z" style="fill:#022b55"/><path d="M688.81,93a5.2,5.2,0,0,1,.55-.51,2.86,2.86,0,0,1,.61-.39,2.8,2.8,0,0,1,.7-.26,3.37,3.37,0,0,1,.8-.1,2.84,2.84,0,0,1,1.17.23,2.37,2.37,0,0,1,.86.63,2.74,2.74,0,0,1,.52,1,4.15,4.15,0,0,1,.17,1.25V100h-1.56V94.82a2.09,2.09,0,0,0-.4-1.35A1.52,1.52,0,0,0,691,93a2.38,2.38,0,0,0-1.13.29,3.78,3.78,0,0,0-1,.77v6h-1.56V91.87h.93a.39.39,0,0,1,.41.31Z" style="fill:#022b55"/><path d="M696.71,100V93.15l-.85-.1a.83.83,0,0,1-.3-.13.31.31,0,0,1-.11-.27V92h1.26v-.74a3.71,3.71,0,0,1,.2-1.24,2.47,2.47,0,0,1,.57-.92,2.52,2.52,0,0,1,.89-.57,3.23,3.23,0,0,1,1.19-.2,2.93,2.93,0,0,1,1,.16l0,.78a.21.21,0,0,1-.06.16.35.35,0,0,1-.15.07l-.23,0h-.28a2.57,2.57,0,0,0-.65.08,1.19,1.19,0,0,0-.51.3,1.4,1.4,0,0,0-.32.55,2.9,2.9,0,0,0-.11.84V92h2.28v1.14h-2.23V100Z" style="fill:#022b55"/><path d="M705,91.74a4.21,4.21,0,0,1,1.62.3,3.29,3.29,0,0,1,1.23.84,3.61,3.61,0,0,1,.78,1.32,5.68,5.68,0,0,1,0,3.46,3.61,3.61,0,0,1-.78,1.32,3.29,3.29,0,0,1-1.23.84,4.7,4.7,0,0,1-3.25,0,3.41,3.41,0,0,1-1.24-.84,3.78,3.78,0,0,1-.79-1.32,5.68,5.68,0,0,1,0-3.46,3.78,3.78,0,0,1,.79-1.32A3.41,3.41,0,0,1,703.4,92,4.23,4.23,0,0,1,705,91.74Zm0,7.16a2,2,0,0,0,1.72-.78,4.47,4.47,0,0,0,0-4.37A2,2,0,0,0,705,93a2,2,0,0,0-1.75.78,4.54,4.54,0,0,0,0,4.37A2,2,0,0,0,705,98.9Z" style="fill:#022b55"/><path d="M712.15,93.43a3.64,3.64,0,0,1,.94-1.25,2,2,0,0,1,1.33-.46,1.93,1.93,0,0,1,.49.06,1.33,1.33,0,0,1,.42.18l-.1,1.18a.26.26,0,0,1-.27.21,1.77,1.77,0,0,1-.33,0,2.44,2.44,0,0,0-.48,0,1.74,1.74,0,0,0-.67.12,1.5,1.5,0,0,0-.52.32,2,2,0,0,0-.4.52,7.52,7.52,0,0,0-.33.69V100h-1.56V91.87h.9a.43.43,0,0,1,.34.1.53.53,0,0,1,.14.32Z" style="fill:#022b55"/><path d="M716.53,100V91.87h.94a.39.39,0,0,1,.41.31L718,93a4,4,0,0,1,1-.87,2.4,2.4,0,0,1,1.29-.35,1.88,1.88,0,0,1,1.31.45,2.61,2.61,0,0,1,.74,1.2,2.48,2.48,0,0,1,.45-.74,2.52,2.52,0,0,1,.63-.51,2.45,2.45,0,0,1,.73-.3,3.49,3.49,0,0,1,.79-.1,3,3,0,0,1,1.15.21,2.28,2.28,0,0,1,.86.59,2.62,2.62,0,0,1,.54,1,4.41,4.41,0,0,1,.18,1.31V100h-1.56V94.82a2.09,2.09,0,0,0-.4-1.37,1.45,1.45,0,0,0-1.16-.47,1.77,1.77,0,0,0-.64.12,1.44,1.44,0,0,0-.53.35A1.64,1.64,0,0,0,723,94a2.2,2.2,0,0,0-.13.8V100H721.3V94.82a2.14,2.14,0,0,0-.37-1.39,1.38,1.38,0,0,0-1.11-.45,1.71,1.71,0,0,0-.93.27,2.83,2.83,0,0,0-.8.72v6Z" style="fill:#022b55"/><path d="M734.12,96.39a11.5,11.5,0,0,0-1.62.15,4.54,4.54,0,0,0-1.08.31,1.63,1.63,0,0,0-.6.45,1,1,0,0,0-.18.58,1.25,1.25,0,0,0,.1.53,1.22,1.22,0,0,0,.27.36,1.12,1.12,0,0,0,.41.2,2,2,0,0,0,.5.06,2.73,2.73,0,0,0,.66-.07,2.48,2.48,0,0,0,.56-.2,2.78,2.78,0,0,0,.51-.33,3.84,3.84,0,0,0,.47-.44ZM729.54,93a4.47,4.47,0,0,1,3.23-1.29A3.17,3.17,0,0,1,734,92a2.44,2.44,0,0,1,.9.63,2.79,2.79,0,0,1,.56,1,4.16,4.16,0,0,1,.19,1.26V100H735a.68.68,0,0,1-.35-.07.59.59,0,0,1-.19-.29l-.17-.71a7,7,0,0,1-.62.51,4.5,4.5,0,0,1-.64.38,3.59,3.59,0,0,1-.7.23,4.25,4.25,0,0,1-.83.08,3.39,3.39,0,0,1-.91-.13,2,2,0,0,1-.72-.41,1.91,1.91,0,0,1-.5-.68,2.33,2.33,0,0,1-.18-1,1.81,1.81,0,0,1,.26-.92,2.36,2.36,0,0,1,.85-.8,5.7,5.7,0,0,1,1.53-.58,11.56,11.56,0,0,1,2.34-.25v-.59a2.07,2.07,0,0,0-.39-1.38,1.45,1.45,0,0,0-1.15-.46,2.7,2.7,0,0,0-.87.13,3.36,3.36,0,0,0-.6.29l-.44.28a.62.62,0,0,1-.38.13.45.45,0,0,1-.28-.09.76.76,0,0,1-.19-.21Z" style="fill:#022b55"/><path d="M742.53,93.27a.41.41,0,0,1-.14.15.34.34,0,0,1-.18,0,.71.71,0,0,1-.29-.08l-.38-.2A3.25,3.25,0,0,0,741,93a2.38,2.38,0,0,0-.7-.09,2,2,0,0,0-.62.09,1.53,1.53,0,0,0-.46.23,1,1,0,0,0-.3.36.88.88,0,0,0-.1.43.71.71,0,0,0,.18.5,1.44,1.44,0,0,0,.47.35,5.35,5.35,0,0,0,.66.26l.76.24a7.05,7.05,0,0,1,.76.3,2.42,2.42,0,0,1,.66.4,1.84,1.84,0,0,1,.48.59,1.8,1.8,0,0,1,.18.84,2.59,2.59,0,0,1-.21,1.05,2.24,2.24,0,0,1-.6.84,2.93,2.93,0,0,1-1,.55,4.24,4.24,0,0,1-1.34.2,4.11,4.11,0,0,1-1.55-.28,4,4,0,0,1-1.19-.71l.37-.6a.42.42,0,0,1,.15-.17.5.5,0,0,1,.26-.07.51.51,0,0,1,.31.12l.39.24a2.73,2.73,0,0,0,.54.24,2.57,2.57,0,0,0,.8.11,2.11,2.11,0,0,0,.7-.1,1.64,1.64,0,0,0,.49-.27,1.18,1.18,0,0,0,.39-.87.78.78,0,0,0-.19-.53,1.49,1.49,0,0,0-.47-.37,3.36,3.36,0,0,0-.66-.26l-.77-.24c-.26-.09-.52-.19-.77-.3a2.71,2.71,0,0,1-.67-.42,1.93,1.93,0,0,1-.65-1.52,2.18,2.18,0,0,1,.19-.91,2.61,2.61,0,0,1,.57-.76,3,3,0,0,1,.92-.52,3.78,3.78,0,0,1,1.26-.2,3.9,3.9,0,0,1,1.45.26,3.44,3.44,0,0,1,1.12.7Z" style="fill:#022b55"/><path d="M746.32,91.87V100h-1.56V91.87Zm.3-2.51a1.06,1.06,0,0,1-.09.42,1.31,1.31,0,0,1-.24.34,1.13,1.13,0,0,1-.34.23,1,1,0,0,1-.42.08,1,1,0,0,1-.41-.08,1.13,1.13,0,0,1-.34-.23,1.08,1.08,0,0,1-.23-.34,1,1,0,0,1-.08-.42,1.08,1.08,0,0,1,1.06-1.08,1.06,1.06,0,0,1,.42.09,1,1,0,0,1,.34.23,1.16,1.16,0,0,1,.24.34A1,1,0,0,1,746.62,89.36Z" style="fill:#022b55"/><path d="M758.52,95.72l-1.7-4.46a7.83,7.83,0,0,1-.37-1.15c-.06.23-.12.44-.19.64a4.15,4.15,0,0,1-.17.53l-1.7,4.44Zm3.37,4.28h-1.31a.58.58,0,0,1-.58-.4l-1-2.66h-5.06l-1,2.66a.64.64,0,0,1-.2.28.61.61,0,0,1-.37.12H751l4.57-11.49h1.72Z" style="fill:#022b55"/><path d="M764.53,88.19V95.1h.37a.78.78,0,0,0,.28,0,.74.74,0,0,0,.23-.19l2.43-2.68a.76.76,0,0,1,.25-.23.71.71,0,0,1,.34-.08h1.43L767,95a1.89,1.89,0,0,1-.5.45,1.55,1.55,0,0,1,.27.24c.08.09.15.19.23.3l3,4h-1.4a.84.84,0,0,1-.33-.06.63.63,0,0,1-.25-.24l-2.51-3.26a.57.57,0,0,0-.24-.23.84.84,0,0,0-.36-.06h-.42V100H763V88.19Z" style="fill:#022b55"/><path d="M778,91.87V100H777a.41.41,0,0,1-.42-.31l-.11-.82a4.38,4.38,0,0,1-.55.51,3.12,3.12,0,0,1-.62.4,3.35,3.35,0,0,1-.69.25,3.18,3.18,0,0,1-2-.13,2.4,2.4,0,0,1-.85-.62,2.78,2.78,0,0,1-.52-1,4.39,4.39,0,0,1-.17-1.25V91.87h1.56v5.18a2.08,2.08,0,0,0,.41,1.36,1.48,1.48,0,0,0,1.22.48,2.41,2.41,0,0,0,1.12-.28,4,4,0,0,0,1-.79V91.87Z" style="fill:#022b55"/><path d="M781.61,93a4.38,4.38,0,0,1,.55-.51,2.63,2.63,0,0,1,.61-.39,2.88,2.88,0,0,1,.69-.26,3.44,3.44,0,0,1,.8-.1,2.89,2.89,0,0,1,1.18.23,2.25,2.25,0,0,1,.85.63,2.75,2.75,0,0,1,.53,1,4.5,4.5,0,0,1,.17,1.25V100h-1.57V94.82a2,2,0,0,0-.4-1.35A1.49,1.49,0,0,0,783.8,93a2.35,2.35,0,0,0-1.13.29,3.66,3.66,0,0,0-1,.77v6h-1.56V91.87h.94a.39.39,0,0,1,.41.31Z" style="fill:#022b55"/><path d="M684.73,119.84a2.21,2.21,0,0,0-.83-.7,2.32,2.32,0,0,0-1-.2,2,2,0,0,0-1.66.77,3.66,3.66,0,0,0-.58,2.25,6.36,6.36,0,0,0,.12,1.33,2.52,2.52,0,0,0,.39.89,1.63,1.63,0,0,0,.62.52,2.19,2.19,0,0,0,.83.16,2.23,2.23,0,0,0,1.18-.31,3.67,3.67,0,0,0,.93-.85Zm1.56-5.65V126h-.94a.38.38,0,0,1-.41-.31l-.13-.94a4.31,4.31,0,0,1-1.19,1,3,3,0,0,1-1.52.37,2.91,2.91,0,0,1-1.26-.27,2.79,2.79,0,0,1-1-.79,3.89,3.89,0,0,1-.62-1.31,6.79,6.79,0,0,1-.21-1.78,5.69,5.69,0,0,1,.24-1.68,4,4,0,0,1,.69-1.34,3.29,3.29,0,0,1,1.11-.89,3.17,3.17,0,0,1,1.46-.33,2.77,2.77,0,0,1,2.18.92v-4.45Z" style="fill:#022b55"/><path d="M692.84,122.39a11.35,11.35,0,0,0-1.62.15,4.54,4.54,0,0,0-1.08.31,1.63,1.63,0,0,0-.6.45,1,1,0,0,0-.18.58,1.25,1.25,0,0,0,.1.53,1,1,0,0,0,.27.36,1,1,0,0,0,.41.2,2,2,0,0,0,.5.06,2.59,2.59,0,0,0,.65-.07,2.39,2.39,0,0,0,.57-.2,2.78,2.78,0,0,0,.51-.33,4.73,4.73,0,0,0,.47-.44ZM688.26,119a4.43,4.43,0,0,1,3.23-1.29,3.17,3.17,0,0,1,1.23.23,2.44,2.44,0,0,1,.9.63,2.62,2.62,0,0,1,.55,1,3.87,3.87,0,0,1,.2,1.26V126h-.7a.68.68,0,0,1-.35-.07.49.49,0,0,1-.19-.29l-.17-.71a7,7,0,0,1-.62.51,4.5,4.5,0,0,1-.64.38,3.19,3.19,0,0,1-.7.23,4.25,4.25,0,0,1-.83.08,3.39,3.39,0,0,1-.91-.13,2.19,2.19,0,0,1-.73-.41,2,2,0,0,1-.49-.68,2.33,2.33,0,0,1-.18-1,1.81,1.81,0,0,1,.26-.92,2.28,2.28,0,0,1,.85-.8,5.26,5.26,0,0,1,1.53-.58,11.56,11.56,0,0,1,2.34-.25v-.59a2.07,2.07,0,0,0-.39-1.38,1.46,1.46,0,0,0-1.16-.46,2.68,2.68,0,0,0-.86.13,3.36,3.36,0,0,0-.6.29l-.44.28a.7.7,0,0,1-.38.13.45.45,0,0,1-.28-.09.76.76,0,0,1-.19-.21Z" style="fill:#022b55"/><path d="M697.92,119a4.38,4.38,0,0,1,.55-.51,2.86,2.86,0,0,1,.61-.39,2.8,2.8,0,0,1,.7-.26,3.37,3.37,0,0,1,.8-.1,2.87,2.87,0,0,1,1.17.23,2.37,2.37,0,0,1,.86.63,2.74,2.74,0,0,1,.52,1,4.44,4.44,0,0,1,.17,1.25V126h-1.57v-5.18a2.09,2.09,0,0,0-.39-1.35,1.52,1.52,0,0,0-1.23-.49,2.38,2.38,0,0,0-1.13.29,3.62,3.62,0,0,0-1,.77v6h-1.56v-8.13h.93a.39.39,0,0,1,.41.31Z" style="fill:#022b55"/><path d="M713.26,120.42a3.5,3.5,0,0,0,1.13-.16,2.33,2.33,0,0,0,.83-.48,1.94,1.94,0,0,0,.5-.73,2.67,2.67,0,0,0,.17-1,2.12,2.12,0,0,0-.66-1.65,2.81,2.81,0,0,0-2-.6h-1.78v4.57Zm0-5.91a6.39,6.39,0,0,1,1.91.26,3.61,3.61,0,0,1,1.36.73,2.76,2.76,0,0,1,.79,1.12,4.14,4.14,0,0,1,.26,1.48,3.75,3.75,0,0,1-.28,1.48,3.07,3.07,0,0,1-.82,1.16,3.73,3.73,0,0,1-1.36.76,5.88,5.88,0,0,1-1.86.27h-1.78V126h-1.7V114.51Z" style="fill:#022b55"/><path d="M720.47,119.43a3.78,3.78,0,0,1,.95-1.25,2,2,0,0,1,1.33-.46,1.93,1.93,0,0,1,.49.06,1.33,1.33,0,0,1,.42.18l-.11,1.18a.24.24,0,0,1-.26.21,1.85,1.85,0,0,1-.34,0,2.36,2.36,0,0,0-.48,0,1.69,1.69,0,0,0-.66.12,1.36,1.36,0,0,0-.52.32,2,2,0,0,0-.4.52,4.44,4.44,0,0,0-.33.69V126H719v-8.13h.9a.43.43,0,0,1,.34.1.53.53,0,0,1,.14.32Z" style="fill:#022b55"/><path d="M728,117.74a4.21,4.21,0,0,1,1.62.3,3.29,3.29,0,0,1,1.23.84,3.61,3.61,0,0,1,.78,1.32,5.68,5.68,0,0,1,0,3.46,3.61,3.61,0,0,1-.78,1.32,3.29,3.29,0,0,1-1.23.84,4.7,4.7,0,0,1-3.25,0,3.41,3.41,0,0,1-1.24-.84,3.78,3.78,0,0,1-.79-1.32,5.68,5.68,0,0,1,0-3.46,3.78,3.78,0,0,1,.79-1.32,3.41,3.41,0,0,1,1.24-.84A4.23,4.23,0,0,1,728,117.74Zm0,7.16a2,2,0,0,0,1.72-.78,4.47,4.47,0,0,0,0-4.37A2,2,0,0,0,728,119a2,2,0,0,0-1.75.78,4.54,4.54,0,0,0,0,4.37A2,2,0,0,0,728,124.9Z" style="fill:#022b55"/><path d="M734,126v-6.85l-.85-.1a.83.83,0,0,1-.3-.13.35.35,0,0,1-.11-.27V118H734v-.74a3.71,3.71,0,0,1,.2-1.24,2.7,2.7,0,0,1,.57-.92,2.47,2.47,0,0,1,.9-.57,3.14,3.14,0,0,1,1.18-.2,3,3,0,0,1,1,.16l0,.78a.21.21,0,0,1-.06.16.35.35,0,0,1-.15.07l-.23,0h-.27a2.71,2.71,0,0,0-.66.08,1.19,1.19,0,0,0-.51.3,1.39,1.39,0,0,0-.31.55,2.57,2.57,0,0,0-.12.84V118h2.28v1.14h-2.23V126Z" style="fill:#022b55"/><path d="M740.76,117.87V126H739.2v-8.13Zm.29-2.51a1,1,0,0,1-.08.42,1.31,1.31,0,0,1-.24.34,1.07,1.07,0,0,1-.35.23,1.15,1.15,0,0,1-.41.08,1.11,1.11,0,0,1-.41-.08,1.13,1.13,0,0,1-.34-.23,1.31,1.31,0,0,1-.24-.34,1.25,1.25,0,0,1-.08-.42,1,1,0,0,1,.32-.76,1,1,0,0,1,.34-.23,1,1,0,0,1,.41-.09,1,1,0,0,1,.41.09.93.93,0,0,1,.35.23,1.16,1.16,0,0,1,.24.34A1,1,0,0,1,741.05,115.36Z" style="fill:#022b55"/><path d="M744.62,114.19V126h-1.57V114.19Z" style="fill:#022b55"/><path d="M763.29,114.51V126H761.8v-8.18c0-.12,0-.25,0-.39l0-.42L758,124a.64.64,0,0,1-.61.4h-.25a.62.62,0,0,1-.6-.4l-3.9-7c0,.3.05.58.05.84V126h-1.5V114.51h1.27a1,1,0,0,1,.34,0,.46.46,0,0,1,.24.24l3.84,6.88a4.49,4.49,0,0,1,.21.44l.18.46c.12-.31.25-.62.39-.91l3.77-6.87a.49.49,0,0,1,.23-.24,1,1,0,0,1,.35,0Z" style="fill:#022b55"/><path d="M767.32,117.87V126h-1.56v-8.13Zm.3-2.51a1.06,1.06,0,0,1-.09.42,1.31,1.31,0,0,1-.24.34,1.13,1.13,0,0,1-.34.23,1.25,1.25,0,0,1-.42.08,1.15,1.15,0,0,1-.41-.08,1.13,1.13,0,0,1-.34-.23,1.08,1.08,0,0,1-.23-.34,1,1,0,0,1-.08-.42,1.08,1.08,0,0,1,1.06-1.08,1.06,1.06,0,0,1,.42.09,1,1,0,0,1,.34.23,1.16,1.16,0,0,1,.24.34A1,1,0,0,1,767.62,115.36Z" style="fill:#022b55"/><path d="M772.12,126.13a2.07,2.07,0,0,1-1.52-.55,2.21,2.21,0,0,1-.52-1.58v-4.86h-1a.3.3,0,0,1-.32-.34v-.63l1.32-.19.35-2.42a.53.53,0,0,1,.12-.21.41.41,0,0,1,.24-.08h.8V118h2.3v1.14h-2.3v4.76a1,1,0,0,0,.23.72.85.85,0,0,0,.61.23,1,1,0,0,0,.36-.06l.28-.12.19-.13a.3.3,0,0,1,.14-.05c.06,0,.1,0,.12,0a.36.36,0,0,1,.1.11l.46.75a2.61,2.61,0,0,1-.91.55A3.39,3.39,0,0,1,772.12,126.13Z" style="fill:#022b55"/><path d="M776.85,119.43a3.64,3.64,0,0,1,.94-1.25,2,2,0,0,1,1.33-.46,2,2,0,0,1,.5.06,1.19,1.19,0,0,1,.41.18l-.1,1.18a.26.26,0,0,1-.27.21,1.77,1.77,0,0,1-.33,0,2.44,2.44,0,0,0-.48,0,1.78,1.78,0,0,0-.67.12,1.36,1.36,0,0,0-.52.32,2,2,0,0,0-.39.52,4.44,4.44,0,0,0-.33.69V126h-1.56v-8.13h.89a.46.46,0,0,1,.35.1.53.53,0,0,1,.13.32Z" style="fill:#022b55"/><path d="M785.48,122.39a11.35,11.35,0,0,0-1.62.15,4.54,4.54,0,0,0-1.08.31,1.63,1.63,0,0,0-.6.45,1,1,0,0,0-.18.58,1.25,1.25,0,0,0,.1.53,1.07,1.07,0,0,0,.27.36,1,1,0,0,0,.41.2,2,2,0,0,0,.5.06,2.73,2.73,0,0,0,.66-.07,2.48,2.48,0,0,0,.56-.2,2.78,2.78,0,0,0,.51-.33,3.84,3.84,0,0,0,.47-.44ZM780.9,119a4.47,4.47,0,0,1,3.23-1.29,3.17,3.17,0,0,1,1.23.23,2.44,2.44,0,0,1,.9.63,2.79,2.79,0,0,1,.56,1,4.16,4.16,0,0,1,.19,1.26V126h-.7a.68.68,0,0,1-.35-.07.54.54,0,0,1-.19-.29l-.17-.71a7,7,0,0,1-.62.51,4.5,4.5,0,0,1-.64.38,3.19,3.19,0,0,1-.7.23,4.25,4.25,0,0,1-.83.08,3.39,3.39,0,0,1-.91-.13,2,2,0,0,1-.72-.41,1.91,1.91,0,0,1-.5-.68,2.33,2.33,0,0,1-.18-1,1.81,1.81,0,0,1,.26-.92,2.36,2.36,0,0,1,.85-.8,5.26,5.26,0,0,1,1.53-.58,11.56,11.56,0,0,1,2.34-.25v-.59a2.07,2.07,0,0,0-.39-1.38,1.45,1.45,0,0,0-1.15-.46,2.7,2.7,0,0,0-.87.13,3.36,3.36,0,0,0-.6.29l-.44.28a.7.7,0,0,1-.38.13.45.45,0,0,1-.28-.09.76.76,0,0,1-.19-.21Z" style="fill:#022b55"/><path d="M177.5,57.51V69H176V60.82c0-.12,0-.25,0-.39l0-.42-3.83,7a.64.64,0,0,1-.61.4h-.24a.63.63,0,0,1-.61-.4l-3.9-7a6.28,6.28,0,0,1,0,.84V69h-1.49V57.51h1.26a1,1,0,0,1,.34.05.46.46,0,0,1,.24.24l3.84,6.88a3.55,3.55,0,0,1,.21.44c.07.15.13.31.19.46a8,8,0,0,1,.39-.91l3.77-6.87a.47.47,0,0,1,.22-.24,1,1,0,0,1,.35-.05Z" style="fill:#022b55"/><path d="M185.15,64a2.57,2.57,0,0,0-.13-.85,1.89,1.89,0,0,0-.39-.68,1.63,1.63,0,0,0-.62-.45,2.37,2.37,0,0,0-2.4.41A2.73,2.73,0,0,0,180.9,64Zm1.29,3.81a3.05,3.05,0,0,1-.66.58,5,5,0,0,1-.8.4,5.41,5.41,0,0,1-1.77.29,4.2,4.2,0,0,1-1.56-.28,3.51,3.51,0,0,1-1.24-.83,3.92,3.92,0,0,1-.82-1.36,5.65,5.65,0,0,1-.29-1.87,4.52,4.52,0,0,1,.27-1.58,3.64,3.64,0,0,1,.75-1.28,3.4,3.4,0,0,1,1.21-.85,3.91,3.91,0,0,1,1.6-.32,3.83,3.83,0,0,1,1.37.25,3,3,0,0,1,1.08.71,3.31,3.31,0,0,1,.72,1.14,4.38,4.38,0,0,1,.26,1.55,1.08,1.08,0,0,1-.08.49.33.33,0,0,1-.3.12h-5.32a4.28,4.28,0,0,0,.2,1.27,2.62,2.62,0,0,0,.51.9,1.94,1.94,0,0,0,.77.53,2.7,2.7,0,0,0,1,.18,3,3,0,0,0,.9-.12,4.78,4.78,0,0,0,.66-.26,4.45,4.45,0,0,0,.46-.26.67.67,0,0,1,.34-.12.36.36,0,0,1,.29.14Z" style="fill:#022b55"/><path d="M189.7,62a5.2,5.2,0,0,1,.55-.51,3.13,3.13,0,0,1,.61-.39,2.8,2.8,0,0,1,.7-.26,3.37,3.37,0,0,1,.8-.1,2.84,2.84,0,0,1,1.17.23,2.37,2.37,0,0,1,.86.63,2.74,2.74,0,0,1,.52,1,4.15,4.15,0,0,1,.18,1.25V69h-1.57V63.82a2.09,2.09,0,0,0-.4-1.35,1.52,1.52,0,0,0-1.23-.49,2.38,2.38,0,0,0-1.13.29,3.78,3.78,0,0,0-1,.77v6h-1.56V60.87h.93a.39.39,0,0,1,.41.31Z" style="fill:#022b55"/><path d="M200.05,64.94a2,2,0,0,0,.72-.11,1.38,1.38,0,0,0,.53-.31,1.2,1.2,0,0,0,.32-.5,1.61,1.61,0,0,0,.11-.63,1.48,1.48,0,0,0-.43-1.12,1.7,1.7,0,0,0-1.25-.42,1.74,1.74,0,0,0-1.26.42,1.51,1.51,0,0,0-.42,1.12,1.81,1.81,0,0,0,.1.63,1.34,1.34,0,0,0,.32.49,1.47,1.47,0,0,0,.53.32A2,2,0,0,0,200.05,64.94Zm2.48,4.48a.61.61,0,0,0-.16-.45.92.92,0,0,0-.44-.27,2.62,2.62,0,0,0-.64-.15l-.77-.07-.83,0c-.28,0-.55,0-.81-.08a2.45,2.45,0,0,0-.69.5,1.05,1.05,0,0,0-.14,1.18,1.08,1.08,0,0,0,.41.38,2.13,2.13,0,0,0,.7.26,4.85,4.85,0,0,0,1,.1,4.34,4.34,0,0,0,1-.11,2.29,2.29,0,0,0,.74-.28,1.31,1.31,0,0,0,.45-.42A1,1,0,0,0,202.53,69.42Zm1.59-8.24v.58q0,.29-.36.36l-.87.13a2.74,2.74,0,0,1,.17.53,2.62,2.62,0,0,1,.07.57,2.45,2.45,0,0,1-.24,1.09,2.31,2.31,0,0,1-.64.82,2.75,2.75,0,0,1-1,.53,4.06,4.06,0,0,1-1.23.19,4.3,4.3,0,0,1-1-.12,1,1,0,0,0-.36.32.56.56,0,0,0-.12.33.44.44,0,0,0,.23.42,1.82,1.82,0,0,0,.61.2,7.31,7.31,0,0,0,.88.07l1,.06a8.27,8.27,0,0,1,1,.12,2.79,2.79,0,0,1,.87.3,1.57,1.57,0,0,1,.61.56,1.59,1.59,0,0,1,.24.92,2.09,2.09,0,0,1-.26,1,2.6,2.6,0,0,1-.75.88,3.83,3.83,0,0,1-1.21.62,5.37,5.37,0,0,1-1.62.23,6.62,6.62,0,0,1-1.57-.17,3.68,3.68,0,0,1-1.11-.48,2,2,0,0,1-.67-.68,1.75,1.75,0,0,1-.21-.82,1.46,1.46,0,0,1,.36-1,2.49,2.49,0,0,1,1-.65,1.36,1.36,0,0,1-.56-.43,1.2,1.2,0,0,1-.21-.74,1,1,0,0,1,.07-.36,1.3,1.3,0,0,1,.19-.37,1.86,1.86,0,0,1,.33-.36,2.55,2.55,0,0,1,.45-.31,2.57,2.57,0,0,1-.94-.88,2.47,2.47,0,0,1-.35-1.31,2.38,2.38,0,0,1,.24-1.08,2.31,2.31,0,0,1,.64-.82,2.8,2.8,0,0,1,1-.53,4.17,4.17,0,0,1,1.26-.18,3.49,3.49,0,0,1,1.81.44Z" style="fill:#022b55"/><path d="M207.18,60.87V69h-1.56V60.87Zm.3-2.51a1.06,1.06,0,0,1-.09.42,1.31,1.31,0,0,1-.24.34,1.07,1.07,0,0,1-.35.23,1,1,0,0,1-.41.08.94.94,0,0,1-.41-.08,1.13,1.13,0,0,1-.34-.23,1.31,1.31,0,0,1-.24-.34,1.25,1.25,0,0,1-.08-.42,1,1,0,0,1,.32-.76,1,1,0,0,1,.34-.23,1,1,0,0,1,.41-.09,1,1,0,0,1,.41.09.93.93,0,0,1,.35.23,1.16,1.16,0,0,1,.24.34A1,1,0,0,1,207.48,58.36Z" style="fill:#022b55"/><path d="M214.23,62.27a.5.5,0,0,1-.13.15.36.36,0,0,1-.19,0,.75.75,0,0,1-.29-.08,3.91,3.91,0,0,0-.37-.2,4.23,4.23,0,0,0-.51-.19,2.5,2.5,0,0,0-.71-.09,2,2,0,0,0-.61.09,1.47,1.47,0,0,0-.47.23,1,1,0,0,0-.29.36.89.89,0,0,0-.11.43.71.71,0,0,0,.18.5,1.56,1.56,0,0,0,.47.35,7,7,0,0,0,.66.26c.25.07.51.15.76.24a6.32,6.32,0,0,1,.76.3,2.48,2.48,0,0,1,.67.4,2,2,0,0,1,.47.59,1.8,1.8,0,0,1,.18.84,2.77,2.77,0,0,1-.2,1.05,2.49,2.49,0,0,1-.6.84,3.09,3.09,0,0,1-1,.55,4.2,4.2,0,0,1-1.34.2,4.36,4.36,0,0,1-1.55-.28,4.17,4.17,0,0,1-1.19-.71l.37-.6a.38.38,0,0,1,.16-.17.46.46,0,0,1,.25-.07.53.53,0,0,1,.32.12l.38.24a2.73,2.73,0,0,0,.54.24,2.62,2.62,0,0,0,.8.11,2.11,2.11,0,0,0,.7-.1,1.52,1.52,0,0,0,.49-.27,1.18,1.18,0,0,0,.39-.87.77.77,0,0,0-.18-.53,1.53,1.53,0,0,0-.48-.37,3.36,3.36,0,0,0-.66-.26l-.77-.24c-.26-.09-.52-.19-.77-.3a2.71,2.71,0,0,1-.67-.42,1.93,1.93,0,0,1-.65-1.52,2.19,2.19,0,0,1,.2-.91,2.42,2.42,0,0,1,.56-.76,3,3,0,0,1,.92-.52,3.78,3.78,0,0,1,1.26-.2,4,4,0,0,1,1.46.26,3.55,3.55,0,0,1,1.12.7Z" style="fill:#022b55"/><path d="M218,60.87V69h-1.56V60.87Zm.3-2.51a1.06,1.06,0,0,1-.09.42,1.31,1.31,0,0,1-.24.34,1,1,0,0,1-.34.23,1,1,0,0,1-.42.08,1,1,0,0,1-.41-.08,1.08,1.08,0,0,1-.57-.57,1.25,1.25,0,0,1-.08-.42,1.16,1.16,0,0,1,.08-.42,1.13,1.13,0,0,1,.23-.34,1.08,1.08,0,0,1,.34-.23,1,1,0,0,1,.41-.09,1,1,0,0,1,.42.09.89.89,0,0,1,.34.23,1.16,1.16,0,0,1,.24.34A1,1,0,0,1,218.32,58.36Z" style="fill:#022b55"/><path d="M226.36,58.9v3.84H231v1.39h-4.61V69h-1.71V57.51h7.12V58.9Z" style="fill:#022b55"/><path d="M236.14,60.74a4.13,4.13,0,0,1,1.61.3,3.25,3.25,0,0,1,1.24.84,3.61,3.61,0,0,1,.78,1.32,5.68,5.68,0,0,1,0,3.46A3.61,3.61,0,0,1,239,68a3.25,3.25,0,0,1-1.24.84,4.13,4.13,0,0,1-1.61.29,4.23,4.23,0,0,1-1.63-.29,3.41,3.41,0,0,1-1.24-.84,3.78,3.78,0,0,1-.79-1.32,5.68,5.68,0,0,1,0-3.46,3.78,3.78,0,0,1,.79-1.32,3.41,3.41,0,0,1,1.24-.84A4.23,4.23,0,0,1,236.14,60.74Zm0,7.16a2,2,0,0,0,1.72-.78,4.47,4.47,0,0,0,0-4.37,2,2,0,0,0-1.72-.78,2,2,0,0,0-1.75.78,4.54,4.54,0,0,0,0,4.37A2,2,0,0,0,236.14,67.9Z" style="fill:#022b55"/><path d="M243.26,62.43a3.64,3.64,0,0,1,.94-1.25,2,2,0,0,1,1.33-.46,1.93,1.93,0,0,1,.49.06,1.33,1.33,0,0,1,.42.18l-.1,1.18a.26.26,0,0,1-.27.21,1.68,1.68,0,0,1-.33,0,2.44,2.44,0,0,0-.48-.05,1.74,1.74,0,0,0-.67.12,1.5,1.5,0,0,0-.52.32,2,2,0,0,0-.4.52,5.58,5.58,0,0,0-.33.69V69h-1.56V60.87h.9a.43.43,0,0,1,.34.1.53.53,0,0,1,.14.32Z" style="fill:#022b55"/><path d="M247.64,69V60.87h.94a.39.39,0,0,1,.41.31l.11.78a4,4,0,0,1,1-.87,2.4,2.4,0,0,1,1.29-.35,1.9,1.9,0,0,1,1.31.45,2.61,2.61,0,0,1,.74,1.2,2.48,2.48,0,0,1,.45-.74,2.52,2.52,0,0,1,.63-.51,2.45,2.45,0,0,1,.73-.3,3.49,3.49,0,0,1,.79-.1,3,3,0,0,1,1.15.21,2.28,2.28,0,0,1,.86.59,2.62,2.62,0,0,1,.54,1,4.41,4.41,0,0,1,.18,1.31V69H257.2V63.82a2.09,2.09,0,0,0-.4-1.37,1.45,1.45,0,0,0-1.16-.47,1.77,1.77,0,0,0-.64.12,1.44,1.44,0,0,0-.53.35,1.64,1.64,0,0,0-.36.57,2.2,2.2,0,0,0-.13.8V69h-1.57V63.82a2.14,2.14,0,0,0-.37-1.39,1.38,1.38,0,0,0-1.11-.45,1.77,1.77,0,0,0-.94.27,2.94,2.94,0,0,0-.79.72v6Z" style="fill:#022b55"/><path d="M267.62,60.87V69h-.93a.39.39,0,0,1-.42-.31l-.11-.82a5.2,5.2,0,0,1-.55.51,3.44,3.44,0,0,1-.62.4,3.23,3.23,0,0,1-.7.25,2.85,2.85,0,0,1-.79.1,2.89,2.89,0,0,1-1.18-.23,2.31,2.31,0,0,1-.85-.62,2.78,2.78,0,0,1-.52-1,4.06,4.06,0,0,1-.18-1.25V60.87h1.57v5.18a2.14,2.14,0,0,0,.4,1.36,1.52,1.52,0,0,0,1.23.48,2.41,2.41,0,0,0,1.12-.28,3.92,3.92,0,0,0,1-.79V60.87Z" style="fill:#022b55"/><path d="M271.4,57.19V69h-1.57V57.19Z" style="fill:#022b55"/><path d="M275.26,60.87V69H273.7V60.87Zm.29-2.51a1,1,0,0,1-.08.42,1.31,1.31,0,0,1-.24.34,1.07,1.07,0,0,1-.35.23,1,1,0,0,1-.41.08.94.94,0,0,1-.41-.08,1.32,1.32,0,0,1-.35-.23,1.56,1.56,0,0,1-.23-.34,1.25,1.25,0,0,1-.08-.42,1.16,1.16,0,0,1,.08-.42,1.36,1.36,0,0,1,.23-.34,1.12,1.12,0,0,1,.35-.23,1,1,0,0,1,.41-.09,1,1,0,0,1,.41.09.93.93,0,0,1,.35.23,1.16,1.16,0,0,1,.24.34A1,1,0,0,1,275.55,58.36Z" style="fill:#022b55"/><path d="M279,62.43a3.77,3.77,0,0,1,.94-1.25,2,2,0,0,1,1.33-.46,2,2,0,0,1,.5.06,1.19,1.19,0,0,1,.41.18l-.1,1.18a.25.25,0,0,1-.26.21,1.77,1.77,0,0,1-.34,0,2.44,2.44,0,0,0-.48-.05,1.69,1.69,0,0,0-.66.12,1.33,1.33,0,0,0-.52.32,1.79,1.79,0,0,0-.4.52,4.44,4.44,0,0,0-.33.69V69h-1.56V60.87h.89a.46.46,0,0,1,.35.1.53.53,0,0,1,.13.32Z" style="fill:#022b55"/><path d="M168.9,89.42a3.5,3.5,0,0,0,1.13-.16,2.33,2.33,0,0,0,.83-.48,1.94,1.94,0,0,0,.5-.73,2.67,2.67,0,0,0,.17-1,2.12,2.12,0,0,0-.66-1.65,2.81,2.81,0,0,0-2-.6h-1.78v4.57Zm0-5.91a6.51,6.51,0,0,1,1.92.26,3.64,3.64,0,0,1,1.35.73,2.86,2.86,0,0,1,.79,1.12,3.94,3.94,0,0,1,.26,1.48,3.79,3.79,0,0,1-.28,1.48,3.07,3.07,0,0,1-.82,1.16,3.73,3.73,0,0,1-1.36.76,5.88,5.88,0,0,1-1.86.27h-1.78V95h-1.7V83.51Z" style="fill:#022b55"/><path d="M179.76,90a2.33,2.33,0,0,0-.14-.85,1.74,1.74,0,0,0-.38-.68,1.63,1.63,0,0,0-.62-.45,2.37,2.37,0,0,0-2.4.41,2.67,2.67,0,0,0-.71,1.57Zm1.29,3.81a2.89,2.89,0,0,1-.67.58,4.5,4.5,0,0,1-.79.4,5.41,5.41,0,0,1-1.77.29,4.2,4.2,0,0,1-1.56-.28A3.51,3.51,0,0,1,175,94a3.92,3.92,0,0,1-.82-1.36,5.65,5.65,0,0,1-.29-1.87,4.52,4.52,0,0,1,.27-1.58,3.64,3.64,0,0,1,.75-1.28,3.4,3.4,0,0,1,1.21-.85,3.91,3.91,0,0,1,1.6-.32,3.74,3.74,0,0,1,1.36.25,2.9,2.9,0,0,1,1.09.71,3,3,0,0,1,.71,1.14,4.16,4.16,0,0,1,.27,1.55,1.08,1.08,0,0,1-.08.49.33.33,0,0,1-.3.12h-5.33a4.61,4.61,0,0,0,.21,1.27,2.62,2.62,0,0,0,.51.9,1.94,1.94,0,0,0,.77.53,2.7,2.7,0,0,0,1,.18,3,3,0,0,0,.9-.12,5.35,5.35,0,0,0,.66-.26,4.45,4.45,0,0,0,.46-.26.67.67,0,0,1,.33-.12.36.36,0,0,1,.3.14Z" style="fill:#022b55"/><path d="M184.31,88a5.2,5.2,0,0,1,.55-.51,2.86,2.86,0,0,1,.61-.39,2.8,2.8,0,0,1,.7-.26,3.37,3.37,0,0,1,.8-.1,2.84,2.84,0,0,1,1.17.23,2.37,2.37,0,0,1,.86.63,2.74,2.74,0,0,1,.52,1,4.5,4.5,0,0,1,.17,1.25V95h-1.56V89.82a2.09,2.09,0,0,0-.4-1.35A1.52,1.52,0,0,0,186.5,88a2.38,2.38,0,0,0-1.13.29,3.78,3.78,0,0,0-1,.77v6h-1.56V86.87h.93a.39.39,0,0,1,.41.31Z" style="fill:#022b55"/><path d="M197,88.84a2.13,2.13,0,0,0-.83-.7,2.32,2.32,0,0,0-1-.2,2,2,0,0,0-1.66.77A3.66,3.66,0,0,0,193,91a5.7,5.7,0,0,0,.13,1.33,2.52,2.52,0,0,0,.38.89,1.71,1.71,0,0,0,.62.52,2.33,2.33,0,0,0,2-.15,3.67,3.67,0,0,0,.93-.85Zm1.57-5.65V95h-1a.37.37,0,0,1-.4-.31l-.14-.94a4.31,4.31,0,0,1-1.19,1,3,3,0,0,1-1.52.37,2.91,2.91,0,0,1-1.26-.27,2.79,2.79,0,0,1-1-.79,3.89,3.89,0,0,1-.62-1.31,6.79,6.79,0,0,1-.21-1.78,5.69,5.69,0,0,1,.24-1.68,4,4,0,0,1,.69-1.34,3.29,3.29,0,0,1,1.11-.89,3.17,3.17,0,0,1,1.46-.33,2.77,2.77,0,0,1,2.18.92V83.19Z" style="fill:#022b55"/><path d="M205.15,91.39a11.2,11.2,0,0,0-1.61.15,4.28,4.28,0,0,0-1.08.31,1.59,1.59,0,0,0-.61.45,1,1,0,0,0-.18.58,1.25,1.25,0,0,0,.1.53,1.22,1.22,0,0,0,.27.36,1.12,1.12,0,0,0,.41.2,2,2,0,0,0,.5.06,2.74,2.74,0,0,0,1.23-.27,3.08,3.08,0,0,0,.5-.33,3.84,3.84,0,0,0,.47-.44ZM200.58,88a4.58,4.58,0,0,1,1.47-1,4.7,4.7,0,0,1,1.75-.32A3.17,3.17,0,0,1,205,87a2.56,2.56,0,0,1,.91.63,2.77,2.77,0,0,1,.55,1,3.87,3.87,0,0,1,.19,1.26V95H206a.68.68,0,0,1-.35-.07.59.59,0,0,1-.19-.29l-.17-.71c-.21.19-.41.36-.61.51a5.26,5.26,0,0,1-.65.38,3.59,3.59,0,0,1-.7.23,4.25,4.25,0,0,1-.83.08,2.92,2.92,0,0,1-.9-.13,2.09,2.09,0,0,1-.73-.41,1.91,1.91,0,0,1-.5-.68,2.34,2.34,0,0,1-.17-1,1.79,1.79,0,0,1,.25-.92,2.36,2.36,0,0,1,.85-.8,5.65,5.65,0,0,1,1.54-.58,11.37,11.37,0,0,1,2.33-.25v-.59a2.07,2.07,0,0,0-.39-1.38,1.45,1.45,0,0,0-1.15-.46,2.75,2.75,0,0,0-.87.13,3.36,3.36,0,0,0-.6.29l-.44.28a.62.62,0,0,1-.38.13.45.45,0,0,1-.28-.09.76.76,0,0,1-.19-.21Z" style="fill:#022b55"/><path d="M209.18,95V88.15l-.85-.1a.83.83,0,0,1-.3-.13.32.32,0,0,1-.12-.27V87h1.27v-.74a3.71,3.71,0,0,1,.2-1.24,2.47,2.47,0,0,1,.57-.92,2.52,2.52,0,0,1,.89-.57,3.23,3.23,0,0,1,1.19-.2,3,3,0,0,1,1,.16l0,.78a.26.26,0,0,1-.06.16.34.34,0,0,1-.16.07,1,1,0,0,1-.22,0h-.28a2.71,2.71,0,0,0-.66.08,1.22,1.22,0,0,0-.5.3,1.4,1.4,0,0,0-.32.55,2.9,2.9,0,0,0-.11.84V87H213v1.14h-2.23V95Z" style="fill:#022b55"/><path d="M216.83,95.13a2,2,0,0,1-1.52-.55,2.22,2.22,0,0,1-.53-1.58V88.14h-.94a.38.38,0,0,1-.24-.08.36.36,0,0,1-.09-.26v-.63l1.33-.19.35-2.42a.35.35,0,0,1,.36-.29h.79V87h2.3v1.14h-2.3V92.9a1,1,0,0,0,.23.72.85.85,0,0,0,.61.23,1,1,0,0,0,.37-.06l.27-.12.19-.13a.33.33,0,0,1,.15-.05.16.16,0,0,1,.12,0,.35.35,0,0,1,.09.11l.47.75a2.65,2.65,0,0,1-.92.55A3.33,3.33,0,0,1,216.83,95.13Z" style="fill:#022b55"/><path d="M224.45,91.39a11.21,11.21,0,0,0-1.62.15,4.54,4.54,0,0,0-1.08.31,1.55,1.55,0,0,0-.6.45,1,1,0,0,0-.18.58,1.44,1.44,0,0,0,.09.53,1.09,1.09,0,0,0,.28.36,1.08,1.08,0,0,0,.4.2,2.1,2.1,0,0,0,.51.06,2.59,2.59,0,0,0,.65-.07,2.39,2.39,0,0,0,.57-.2,2.78,2.78,0,0,0,.51-.33,4.73,4.73,0,0,0,.47-.44ZM219.87,88a4.43,4.43,0,0,1,3.23-1.29,3.17,3.17,0,0,1,1.23.23,2.44,2.44,0,0,1,.9.63,2.62,2.62,0,0,1,.55,1,3.87,3.87,0,0,1,.2,1.26V95h-.7a.68.68,0,0,1-.35-.07.53.53,0,0,1-.19-.29l-.17-.71c-.21.19-.42.36-.62.51a4.5,4.5,0,0,1-.64.38,3.83,3.83,0,0,1-.7.23,4.25,4.25,0,0,1-.83.08,3,3,0,0,1-.91-.13,2.19,2.19,0,0,1-.73-.41,2,2,0,0,1-.49-.68,2.33,2.33,0,0,1-.18-1,1.81,1.81,0,0,1,.26-.92,2.28,2.28,0,0,1,.85-.8,5.57,5.57,0,0,1,1.53-.58,11.56,11.56,0,0,1,2.34-.25v-.59a2.07,2.07,0,0,0-.39-1.38A1.48,1.48,0,0,0,222.9,88a2.64,2.64,0,0,0-.86.13,3.36,3.36,0,0,0-.6.29l-.44.28a.62.62,0,0,1-.38.13.45.45,0,0,1-.28-.09.76.76,0,0,1-.19-.21Z" style="fill:#022b55"/><path d="M229.54,88.43a3.64,3.64,0,0,1,.94-1.25,2,2,0,0,1,1.33-.46,1.88,1.88,0,0,1,.49.06,1.33,1.33,0,0,1,.42.18l-.1,1.18a.26.26,0,0,1-.27.21,1.77,1.77,0,0,1-.33,0,2.44,2.44,0,0,0-.48,0,1.78,1.78,0,0,0-.67.12,1.5,1.5,0,0,0-.52.32,2,2,0,0,0-.4.52,7.52,7.52,0,0,0-.33.69V95h-1.55V86.87H229c.17,0,.29,0,.34.1a.53.53,0,0,1,.14.32Z" style="fill:#022b55"/><path d="M238.17,91.39a11.21,11.21,0,0,0-1.62.15,4.54,4.54,0,0,0-1.08.31,1.47,1.47,0,0,0-.6.45,1,1,0,0,0-.18.58,1.44,1.44,0,0,0,.09.53,1,1,0,0,0,.68.56A2.1,2.1,0,0,0,236,94a2.59,2.59,0,0,0,.65-.07,2.56,2.56,0,0,0,.57-.2,2.78,2.78,0,0,0,.51-.33,6.17,6.17,0,0,0,.47-.44ZM233.59,88a4.69,4.69,0,0,1,1.47-1,4.79,4.79,0,0,1,1.76-.32,3.17,3.17,0,0,1,1.23.23,2.52,2.52,0,0,1,.9.63,2.62,2.62,0,0,1,.55,1,3.87,3.87,0,0,1,.2,1.26V95H239a.66.66,0,0,1-.35-.07.53.53,0,0,1-.19-.29l-.17-.71c-.21.19-.42.36-.62.51a4.5,4.5,0,0,1-.64.38,3.83,3.83,0,0,1-.7.23,4.28,4.28,0,0,1-.84.08,3,3,0,0,1-.9-.13,2.09,2.09,0,0,1-.73-.41,1.89,1.89,0,0,1-.49-.68,2.33,2.33,0,0,1-.18-1,1.81,1.81,0,0,1,.26-.92,2.32,2.32,0,0,1,.84-.8,5.78,5.78,0,0,1,1.54-.58,11.47,11.47,0,0,1,2.34-.25v-.59a2,2,0,0,0-.4-1.38,1.44,1.44,0,0,0-1.15-.46,2.64,2.64,0,0,0-.86.13,3.36,3.36,0,0,0-.6.29l-.44.28a.62.62,0,0,1-.38.13.48.48,0,0,1-.29-.09.91.91,0,0,1-.18-.21Z" style="fill:#022b55"/><path d="M243.25,88a4.38,4.38,0,0,1,.55-.51,2.63,2.63,0,0,1,.61-.39,2.88,2.88,0,0,1,.69-.26,3.44,3.44,0,0,1,.8-.1,2.89,2.89,0,0,1,1.18.23,2.37,2.37,0,0,1,.86.63,2.9,2.9,0,0,1,.52,1,4.5,4.5,0,0,1,.17,1.25V95h-1.57V89.82a2,2,0,0,0-.4-1.35,1.49,1.49,0,0,0-1.22-.49,2.35,2.35,0,0,0-1.13.29,3.66,3.66,0,0,0-1,.77v6h-1.56V86.87h.94a.39.39,0,0,1,.41.31Z" style="fill:#022b55"/><path d="M880,40h0a64,64,0,0,1,64,64h0a64,64,0,0,1-64,64h0a64,64,0,0,1-64-64h0A64,64,0,0,1,880,40Z" style="fill:#fff"/><path d="M939,103.81a59,59,0,0,1-118,.76c4.38-10,21.5-13.41,30.18-3.31,10,11.64,32.93,18.35,41.44-9.7,6.35-20.93,21.5-25.15,33-25A58.32,58.32,0,0,1,939,103.81Z" style="fill:#3bb277"/><path d="M880,162.62a58.81,58.81,0,1,0-59-58.81A58.9,58.9,0,0,0,880,162.62Z" style="fill:#3cbf80"/><path d="M939,103.81a59,59,0,0,1-118,.76c4.38-10,21.85-15.11,30.53-5,10,11.64,26.35,8.69,34.86-19.36,6.35-20.93,27.73-13.78,39.21-13.67A58.4,58.4,0,0,1,939,103.81Z" style="fill:#3eb778"/><g style="clip-path:url(#clip-path)"><path d="M919.59,83H847.41A5.34,5.34,0,0,0,842,88.28v70.44a5.34,5.34,0,0,0,5.41,5.28h72.18a5.34,5.34,0,0,0,5.41-5.28V88.28A5.34,5.34,0,0,0,919.59,83Z" style="fill:#3aa063"/><path d="M929.15,129.53l-1.9-14.45a6,6,0,0,0-.73-2.17A6.06,6.06,0,0,0,925,111.2l-9.26-7-5,15.69,11.51,12.64Z" style="fill:#f9ae83"/><path d="M915.93,109.11l6.5,5.3a.76.76,0,0,1,.24.34.71.71,0,0,1,0,.41L920.37,124a.76.76,0,0,1-.57.54.71.71,0,0,1-.41,0,.78.78,0,0,1-.33-.24l-4.63-5.82a.73.73,0,0,1,0-.86l.45-8.35a.71.71,0,0,1,.5-.28A.73.73,0,0,1,915.93,109.11Z" style="fill:#f58a69"/><path d="M914.45,78.45H842.9a5.36,5.36,0,0,0-5.36,5.36v75.43a5.36,5.36,0,0,0,5.36,5.36h71.55a5.36,5.36,0,0,0,5.36-5.36V83.81A5.36,5.36,0,0,0,914.45,78.45Z" style="fill:#f2f2f2"/><path d="M842.9,78.45h71.55a5.36,5.36,0,0,1,5.36,5.36V88H837.54V83.8a5.36,5.36,0,0,1,5.36-5.35Z" style="fill:#28313a"/><path d="M901.1,83.52a1.46,1.46,0,0,1-.26.83,1.56,1.56,0,0,1-.68.54,1.51,1.51,0,0,1-.87.08,1.55,1.55,0,0,1-.76-.42,1.48,1.48,0,0,1-.4-.76,1.44,1.44,0,0,1,.09-.87,1.49,1.49,0,0,1,.55-.67,1.53,1.53,0,0,1,.83-.25,1.47,1.47,0,0,1,1.07.44,1.47,1.47,0,0,1,.32.5A1.43,1.43,0,0,1,901.1,83.52Z" style="fill:#3eb778"/><path d="M907.65,83.52a1.49,1.49,0,0,1-.26.84,1.59,1.59,0,0,1-.68.55,1.53,1.53,0,0,1-.87.08,1.5,1.5,0,0,1-.77-.42,1.52,1.52,0,0,1-.32-1.65,1.46,1.46,0,0,1,.56-.67,1.48,1.48,0,0,1,.84-.25,1.47,1.47,0,0,1,1.07.44,1.47,1.47,0,0,1,.32.5A1.43,1.43,0,0,1,907.65,83.52Z" style="fill:#f4ae3d"/><path d="M914.2,83.52a1.49,1.49,0,0,1-.49,1,1.52,1.52,0,0,1-1,.39,1.48,1.48,0,0,1-1-.39,1.15,1.15,0,0,1,0-1.9,1.48,1.48,0,0,1,1-.39,1.52,1.52,0,0,1,1,.39A1.49,1.49,0,0,1,914.2,83.52Z" style="fill:#da3845"/><path d="M919.8,88.12H837.57v24.79H919.8Z" style="fill:#dfe3e5"/><path d="M850.51,117.5a9.19,9.19,0,1,0-9.33-9.19A9.26,9.26,0,0,0,850.51,117.5Z" style="fill:#d4375c"/><path d="M854.19,105.71a3.46,3.46,0,0,1-2.1,3.25,3.48,3.48,0,0,1-3.8-.71,3.56,3.56,0,0,1-1-1.78,3.45,3.45,0,0,1,.19-2,3.48,3.48,0,0,1,3.21-2.16,3.45,3.45,0,0,1,3.47,3.41Z" style="fill:#fff"/><path d="M844.91,115.62a5.68,5.68,0,1,1,11.36,0,10.38,10.38,0,0,1-5.76,2.23A8.91,8.91,0,0,1,844.91,115.62Z" style="fill:#fff"/><path d="M905.56,118.88h-41.3a2.3,2.3,0,0,0-2.3,2.3v1.91a2.3,2.3,0,0,0,2.3,2.3h41.3a2.3,2.3,0,0,0,2.3-2.3v-1.91A2.3,2.3,0,0,0,905.56,118.88Z" style="fill:#d8d8d8"/><path d="M907.56,100.88h-41.3a2.3,2.3,0,0,0-2.3,2.3v1.91a2.3,2.3,0,0,0,2.3,2.3h41.3a2.3,2.3,0,0,0,2.3-2.3v-1.91A2.3,2.3,0,0,0,907.56,100.88Z" style="fill:#ededed"/><path d="M905,129.69H864.26A2.3,2.3,0,0,0,862,132v1.91a2.3,2.3,0,0,0,2.3,2.3H905a2.3,2.3,0,0,0,2.3-2.3V132A2.3,2.3,0,0,0,905,129.69Z" style="fill:#d8d8d8"/><path d="M885,139.69h-20.7A2.3,2.3,0,0,0,862,142v1.91a2.3,2.3,0,0,0,2.3,2.3H885a2.3,2.3,0,0,0,2.3-2.3V142A2.3,2.3,0,0,0,885,139.69Z" style="fill:#d8d8d8"/><path d="M918.75,138.77l-1.13-3.52a.65.65,0,0,0-.13-.23.66.66,0,0,0-.22-.15L913,133.2c-3.89-1.53-3.75-7.53-3.64-9.14a.57.57,0,0,0-.08-.34.58.58,0,0,0-.26-.23l-4.42-2.14a5.24,5.24,0,0,1-2.76-4.35,2.11,2.11,0,0,1,3-2.09l11.35,4a.55.55,0,0,1,.31.25l6,9.83a.55.55,0,0,0,.31.25.61.61,0,0,0,.4,0l5-1.64a.54.54,0,0,1,.25,0,.68.68,0,0,1,.24.08.74.74,0,0,1,.19.16.7.7,0,0,1,.11.23l2.34,10.38a.62.62,0,0,1,0,.27.66.66,0,0,1-.11.24.62.62,0,0,1-.22.17.75.75,0,0,1-.26,0H919.34a.65.65,0,0,1-.36-.1A.66.66,0,0,1,918.75,138.77Z" style="fill:#f9ae83"/><path d="M918.52,132.23c-8.27-1.45-6.2-9.88-6.2-9.88L902,117.87a5.29,5.29,0,0,0,1,2,5.42,5.42,0,0,0,1.7,1.46l4.45,2.14.37.18v2.51a.21.21,0,0,1,0,.11v1.07a.33.33,0,0,1,0,.14v1.16a.45.45,0,0,0,.08.31c.08.1,0,0,0,.08a3.46,3.46,0,0,0,.11.38v.1l.09.28v.13l.09.24.06.14a2.29,2.29,0,0,1,.1.23.61.61,0,0,1,.07.14l.12.22a.54.54,0,0,0,.07.13c0,.08.09.16.14.24l.06.1c.07.11.15.21.23.32v.06l.2.24.09.1.18.18.11.11.19.15.12.1.2.15a.57.57,0,0,1,.13.08l.24.14.12.06.38.17,1.39.55.14.06.81.32.52.2,1.65.65,1.21,3.79a.61.61,0,0,0,.59.42h2.71l-1.61-6.67Z" style="fill:#f58a69"/><path d="M902.62,117.36l.44-.83a.94.94,0,0,1,.51-.43,1,1,0,0,1,.66,0l2.15.77a.9.9,0,0,1,.34.2.91.91,0,0,1,.22.33.87.87,0,0,1,0,.77l-.62,1.19a1,1,0,0,1-.59.46,1,1,0,0,1-.74-.07l-2-1.14a.91.91,0,0,1-.41-.55A1,1,0,0,1,902.62,117.36Z" style="fill:#e3e3e6"/><path d="M931.05,140.83l-12,1.89a2.27,2.27,0,0,1-2.62-1.87v-.29a2.25,2.25,0,0,1,.39-1.65,2.3,2.3,0,0,1,1.42-.91l12.09-1.9a2.3,2.3,0,0,1,2.62,1.9v.29a2.28,2.28,0,0,1-.41,1.64A2.25,2.25,0,0,1,931.05,140.83Z" style="fill:#f1e8e1"/><path d="M924.39,141.87l-5.39.85a2.27,2.27,0,0,1-2.62-1.87v-.29a2.25,2.25,0,0,1,.39-1.65,2.3,2.3,0,0,1,1.42-.91l5.44-.86a2.31,2.31,0,0,1,1.69.4,2.28,2.28,0,0,1,.93,1.46v.28a2.29,2.29,0,0,1-.4,1.68A2.25,2.25,0,0,1,924.39,141.87Z" style="fill:#ddd3d2"/><path d="M938.56,165.1l-4.37-26.24-19.14,3,3.88,23.24Z" style="fill:#393c63"/><path d="M930.64,165.1,927,143.42a3.43,3.43,0,0,0-3.94-2.81l-8,1.25,3.88,23.24Z" style="fill:#2f2d4f"/></g><path d="M880,40.5h0A63.5,63.5,0,0,1,943.5,104h0A63.5,63.5,0,0,1,880,167.5h0A63.5,63.5,0,0,1,816.5,104h0A63.5,63.5,0,0,1,880,40.5Z" style="fill:none;stroke:#1fb767"/><path d="M477,168h0a64,64,0,0,1,64,64h0a64,64,0,0,1-64,64h0a64,64,0,0,1-64-64h0A64,64,0,0,1,477,168Z" style="fill:#fff"/><path d="M536,232a59,59,0,1,1-118,.77c4.38-10,21.5-13.46,30.18-3.33,10,11.68,32.93,18.41,41.44-9.73,6.35-21,21.5-25.23,33-25.12A58.61,58.61,0,0,1,536,232Z" style="fill:#3bb277"/><path d="M477,291a59,59,0,1,0-59-59A59,59,0,0,0,477,291Z" style="fill:#3bb277"/><path d="M536,232a59,59,0,1,1-118,.77c4.38-10,21.85-15.16,30.53-5,10,11.68,26.35,8.72,34.86-19.42,6.35-21,27.73-13.83,39.21-13.72A58.69,58.69,0,0,1,536,232Z" style="fill:#3cbf80"/><path d="M536,232a59,59,0,0,1-105,37,.67.67,0,0,1,0-.2c4.38-10,21.85-15.16,30.53-5,10,11.68,26.35,8.72,34.86-19.42,6.35-21,27.73-13.83,39.21-13.72l.38.46C536,231.36,536,231.68,536,232Z" style="fill:#3cbf80"/><path d="M536,232a59,59,0,0,1-105,37,.67.67,0,0,1,0-.2c4.38-10,21.85-15.16,30.53-5,10,11.68,26.35,8.72,34.86-19.42,6.35-21,27.73-13.83,39.21-13.72l.38.46C536,231.36,536,231.68,536,232Z" style="fill:#3eb778"/><g style="clip-path:url(#clip-path-2)"><path d="M495.11,279.75v13.41h-9.74V289.5a9.73,9.73,0,0,1,9.74-9.75Z" style="fill:#00707a"/><path d="M479,293.15h-9.74v-9.74a9.73,9.73,0,0,1,9.74,9.74Z" style="fill:#00707a"/><path d="M436.64,224.64h-3.91a.76.76,0,0,1-.47-.24.77.77,0,0,1,0-1,.76.76,0,0,1,.47-.24h3.91a.76.76,0,0,1,.47.24.77.77,0,0,1,0,1A.76.76,0,0,1,436.64,224.64Z" style="fill:#fe4e4e"/><path d="M440.79,220.12a.72.72,0,0,1-.73-.73v-3.91a.73.73,0,1,1,1.46,0v3.91a.72.72,0,0,1-.73.73Z" style="fill:#fe4e4e"/><path d="M437.86,221.35a.75.75,0,0,1-.43-.13l-3.76-2.72a.7.7,0,0,1-.22-.2.77.77,0,0,1-.12-.28.76.76,0,0,1,0-.3.66.66,0,0,1,.12-.27.63.63,0,0,1,.22-.21.75.75,0,0,1,.29-.09.77.77,0,0,1,.3,0,.6.6,0,0,1,.26.14l3.77,2.68a.74.74,0,0,1,.16,1,.75.75,0,0,1-.25.25A.67.67,0,0,1,437.86,221.35Z" style="fill:#fe4e4e"/><path d="M489.35,246.21H478.28v47h11.07Z" style="fill:#8e4f24"/><path d="M485.14,252.41h-6.86v40.74h6.86Z" style="fill:#b0632b"/><path d="M464.54,204.58H503.1a15.71,15.71,0,0,1,15.7,15.7v25.93h-70V220.28a15.73,15.73,0,0,1,1.2-6,15.77,15.77,0,0,1,8.52-8.49A15.76,15.76,0,0,1,464.54,204.58Z" style="fill:#f4ae3d"/><path d="M515.3,210.78H477.84v7.75h40.8A16.19,16.19,0,0,0,515.3,210.78Z" style="fill:#e59238"/><path d="M465.11,204.58a16.29,16.29,0,0,1,16.28,16.28v25.35H448.83V220.86a16.29,16.29,0,0,1,16.28-16.28Z" style="fill:#faaf18"/><path d="M465.11,206.35a14.31,14.31,0,0,1,10.1,4.18,14.46,14.46,0,0,1,3.09,4.63,14.31,14.31,0,0,1,1.09,5.47v24H450.82v-24a14.32,14.32,0,0,1,8.82-13.2A14.45,14.45,0,0,1,465.11,206.35Z" style="fill:#535044"/><path d="M450.86,219.59v25h28.53V230.8Z" style="fill:#766b60"/><path d="M487.64,231.15a3.21,3.21,0,1,0-3.21-3.21A3.21,3.21,0,0,0,487.64,231.15Z" style="fill:#535044"/><path d="M493.78,198.16h-7.31v31.22h2.66V201.92h4.65L492.45,200Z" style="fill:#535044"/><path d="M487.64,229.66a1.72,1.72,0,1,0-1.72-1.72A1.72,1.72,0,0,0,487.64,229.66Z" style="fill:#fff"/><path d="M437,246.21h44.4v1.55H437a.79.79,0,0,1-.78-.78.75.75,0,0,1,.23-.55.76.76,0,0,1,.55-.23Z" style="fill:#fdbe12"/><path d="M480.5,248.87a2.66,2.66,0,1,0-2.66-2.66A2.66,2.66,0,0,0,480.5,248.87Z" style="fill:#535044"/><path d="M480.5,247.67a1.46,1.46,0,1,0-1.46-1.46A1.46,1.46,0,0,0,480.5,247.67Z" style="fill:#897e74"/><path d="M468.81,222.61H442.58a3,3,0,0,0-3.05,3v16a3,3,0,0,0,3.05,3.05h26.23a3.06,3.06,0,0,0,3.05-3.05v-16A3.06,3.06,0,0,0,468.81,222.61Z" style="fill:#da3845"/><path d="M455.69,239.13l16.17-10.58v-2.5a1.3,1.3,0,0,0-.38-.91,1.34,1.34,0,0,0-.92-.38H440.82a1.3,1.3,0,0,0-1.29,1.29v2.5Z" style="fill:#bb2e3f"/><path d="M455.69,237l16.17-10.6v-.62a3.11,3.11,0,0,0-.24-1.21,3.16,3.16,0,0,0-.69-1,3.16,3.16,0,0,0-2.25-.93h-26a3.18,3.18,0,0,0-3.17,3.17v.62Z" style="fill:#fe4e4e"/></g><path d="M477,168.5h0A63.5,63.5,0,0,1,540.5,232h0A63.5,63.5,0,0,1,477,295.5h0A63.5,63.5,0,0,1,413.5,232h0A63.5,63.5,0,0,1,477,168.5Z" style="fill:none;stroke:#1fb767"/><path d="M76,14h0a64,64,0,0,1,64,64h0a64,64,0,0,1-64,64h0A64,64,0,0,1,12,78h0A64,64,0,0,1,76,14Z" style="fill:#fff"/><path d="M135,78a59,59,0,1,1-118,.77c4.38-10,21.5-13.46,30.18-3.33,10,11.68,32.93,18.41,41.44-9.73,6.35-21,21.5-25.23,33-25.12A58.61,58.61,0,0,1,135,78Z" style="fill:#3bb277"/><path d="M76,137A59,59,0,1,0,17,78,59,59,0,0,0,76,137Z" style="fill:#3cbf80"/><path d="M135,78a59,59,0,1,1-118,.77c4.38-10,21.85-15.16,30.53-5,10,11.68,26.35,8.72,34.86-19.42,6.35-21,27.73-13.83,39.21-13.72A58.69,58.69,0,0,1,135,78Z" style="fill:#3bb277"/><g style="clip-path:url(#clip-path-3)"><path d="M128.89,98.35,127,84.14a5.63,5.63,0,0,0-.74-2.14,5.73,5.73,0,0,0-1.5-1.68l-9.1-6.88-4.92,15.43,11.32,12.42Z" style="fill:#f9ae83"/><path d="M115.9,78.27l6.39,5.21a.73.73,0,0,1,.24.33.78.78,0,0,1,0,.4l-2.29,8.72a.75.75,0,0,1-.21.34.8.8,0,0,1-.35.19.9.9,0,0,1-.4,0,.78.78,0,0,1-.33-.24l-4.56-5.72a.71.71,0,0,1-.14-.42.74.74,0,0,1,.14-.43l.44-8.21a.7.7,0,0,1,.22-.2.56.56,0,0,1,.28-.1.61.61,0,0,1,.3,0A.51.51,0,0,1,115.9,78.27Z" style="fill:#f58a69"/><path d="M111.78,45.27H36.68a3.84,3.84,0,0,0-3.84,3.84v47.2a3.83,3.83,0,0,0,3.84,3.83h75.1a3.83,3.83,0,0,0,3.84-3.83V49.11A3.84,3.84,0,0,0,111.78,45.27Z" style="fill:#2f2d4f"/><path d="M111.63,49H37.41V96.2h74.22Z" style="fill:#32e6f9"/><path d="M85.48,65.22c2.64,3.27,6.75,5,10.82,6.31s8.22,2.33,11.71,4.7c1.27.86,2.41,1.87,3.62,2.8V49H83.57C81.9,54.5,81.9,60.68,85.48,65.22Z" style="fill:#37d9f4"/><path d="M111.63,49H37.41v4.7h74.22Z" style="fill:#38c7e8"/><path d="M97.82,51.51a1.13,1.13,0,0,1-.16.62,1.09,1.09,0,0,1-.48.42,1.06,1.06,0,0,1-.63.08,1,1,0,0,1-.57-.28,1.13,1.13,0,0,1-.32-.56,1.17,1.17,0,0,1,.06-.64,1.14,1.14,0,0,1,.4-.5,1.09,1.09,0,0,1,.61-.18,1,1,0,0,1,.76.3A1.08,1.08,0,0,1,97.82,51.51Z" style="fill:#0a96ad"/><path d="M102.55,51.51a1.13,1.13,0,0,1-.16.62,1,1,0,0,1-.48.42,1.08,1.08,0,0,1-.64.08,1,1,0,0,1-.57-.29,1.07,1.07,0,0,1-.31-.56,1.13,1.13,0,0,1,.06-.63,1,1,0,0,1,.4-.5,1.07,1.07,0,0,1,.62-.18,1.05,1.05,0,0,1,.75.3A1.08,1.08,0,0,1,102.55,51.51Z" style="fill:#0a96ad"/><path d="M107.3,51.51a1.13,1.13,0,0,1-.16.62,1.09,1.09,0,0,1-.48.42,1.06,1.06,0,0,1-.63.08,1,1,0,0,1-.57-.28,1.13,1.13,0,0,1-.32-.56,1.08,1.08,0,0,1,.06-.64,1.14,1.14,0,0,1,.4-.5,1.09,1.09,0,0,1,.61-.18,1,1,0,0,1,.76.3A1.08,1.08,0,0,1,107.3,51.51Z" style="fill:#0a96ad"/><path d="M69.56,52.58H42.22a1,1,0,0,1-.41-.08,1,1,0,0,1-.35-.23,1.21,1.21,0,0,1-.24-.35,1.15,1.15,0,0,1-.08-.41,1.08,1.08,0,0,1,.33-.74,1,1,0,0,1,.75-.3H69.56a1.13,1.13,0,0,1,.77.31.93.93,0,0,1,.23.35,1,1,0,0,1,.09.41,1.08,1.08,0,0,1-1.09,1Z" style="fill:#fff"/><path d="M76.83,94.61C74.57,92,71,91,67.66,90.18l-5.51-1.36a24.84,24.84,0,0,1-5.09-1.73c-3.34-1.73-5.62-4.92-7.56-8.11S45.77,72.41,43,69.91a12.67,12.67,0,0,0-5.58-3V96.2H78A10,10,0,0,0,76.83,94.61Z" style="fill:#37d9f4"/><path d="M99.59,59.26h-47a2.41,2.41,0,0,0-2.41,2.41V87.14a2.4,2.4,0,0,0,2.41,2.4h47a2.4,2.4,0,0,0,2.41-2.4V61.67A2.41,2.41,0,0,0,99.59,59.26Z" style="fill:#fff"/><path d="M60.83,76.25a4.9,4.9,0,1,0-5-4.9A4.93,4.93,0,0,0,60.83,76.25Z" style="fill:#d4375c"/><path d="M62.78,70a1.76,1.76,0,0,1-.28,1,1.83,1.83,0,0,1-.82.71,2,2,0,0,1-1.07.13,1.86,1.86,0,0,1-1-.5,1.79,1.79,0,0,1-.52-.94,1.81,1.81,0,0,1,.09-1.08,1.83,1.83,0,0,1,1.72-1.15,1.79,1.79,0,0,1,1.28.51A1.84,1.84,0,0,1,62.78,70Z" style="fill:#fff"/><path d="M57.84,75.24A3,3,0,0,1,63,73.1a3,3,0,0,1,.89,2.14,5.57,5.57,0,0,1-3.07,1.2A4.84,4.84,0,0,1,57.84,75.24Z" style="fill:#fff"/><path d="M94.51,66.54H70.05a1.78,1.78,0,0,0-1.78,1.78v.3a1.78,1.78,0,0,0,1.78,1.78H94.51a1.78,1.78,0,0,0,1.78-1.78v-.3A1.78,1.78,0,0,0,94.51,66.54Z" style="fill:#d7f3f4"/><path d="M72,67.58v1.77h-.17L70.73,68a.06.06,0,0,0,0,.06v1.32h-.22V67.58h.19L71.77,69V67.58Z" style="fill:#606565"/><path d="M72.32,68.27a.59.59,0,0,1,.23-.14.47.47,0,0,1,.26,0,.6.6,0,0,1,.19,0,.49.49,0,0,1,.15.1.64.64,0,0,1,.08.14.67.67,0,0,1,0,.2v.8h-.15l0-.17-.1.08a.24.24,0,0,1-.11.06h-.38a.24.24,0,0,1-.11-.06.39.39,0,0,1-.08-.1.38.38,0,0,1,0-.15.33.33,0,0,1,0-.14.27.27,0,0,1,.14-.12.58.58,0,0,1,.25-.09H73v-.1a.37.37,0,0,0,0-.11.27.27,0,0,0-.14-.17.2.2,0,0,0-.11,0H72.4Zm.72.52a1.22,1.22,0,0,0-.27,0l-.17,0a.21.21,0,0,0-.1.06.17.17,0,0,0,0,.1.11.11,0,0,0,0,.08.06.06,0,0,0,0,.06h.35l.08,0,.12,0Z" style="fill:#606565"/><path d="M73.6,69.35V68.1h.2v.13a.4.4,0,0,1,.15-.14.42.42,0,0,1,.21-.06h.11a.21.21,0,0,1,.1.06.39.39,0,0,1,.12.19.24.24,0,0,1,.06-.11.41.41,0,0,1,.1-.09h.24a.54.54,0,0,1,.18,0,.26.26,0,0,1,.13.1.29.29,0,0,1,.08.14.67.67,0,0,1,0,.2v.8h-.21v-.8a.44.44,0,0,0-.07-.22l-.09-.06a.16.16,0,0,0-.1,0H74.7l-.09.05-.06.09v.93h-.22v-.8a.46.46,0,0,0-.06-.23.19.19,0,0,0-.09,0,.16.16,0,0,0-.1,0,.2.2,0,0,0-.15,0,.34.34,0,0,0-.12.12v.93Z" style="fill:#606565"/><path d="M75.64,68.27a.64.64,0,0,1,.22-.14.52.52,0,0,1,.27,0,.61.61,0,0,1,.19,0,.71.71,0,0,1,.14.1.29.29,0,0,1,.08.14.67.67,0,0,1,0,.2v.8h-.15V69.2l-.1.08-.09.06h-.39a.24.24,0,0,1-.11-.06.25.25,0,0,1-.08-.1.38.38,0,0,1,0-.15.19.19,0,0,1,0-.15.22.22,0,0,1,.12-.11.58.58,0,0,1,.25-.09,2.16,2.16,0,0,1,.36,0v-.1a.3.3,0,0,0-.06-.22.24.24,0,0,0-.08-.06l-.1,0h-.47Zm.71.52a1.13,1.13,0,0,0-.26,0l-.18,0a.21.21,0,0,0-.1.06.17.17,0,0,0,0,.1v.14h.36l.08,0,.07-.07Z" style="fill:#606565"/><path d="M94.51,72H70.05a1.78,1.78,0,0,0-1.78,1.78v.3a1.78,1.78,0,0,0,1.78,1.78H94.51a1.78,1.78,0,0,0,1.78-1.78v-.3A1.78,1.78,0,0,0,94.51,72Z" style="fill:#d7f3f4"/><path d="M70.81,73.9l.34.19-.07.1L70.75,74v.38h-.13V74l-.33.19-.07-.12.34-.19-.34-.19.07-.12.33.2V73.4h.13v.37l.33-.2.07.12Z" style="fill:#606565"/><path d="M72.07,73.9l.34.19-.07.1L72,74v.38h-.13V74l-.33.19-.12-.12.34-.19-.34-.19.07-.12.33.2V73.4H72v.37l.33-.2.07.12Z" style="fill:#606565"/><path d="M73.24,73.9l.33.19-.07.1L73.17,74v.38h-.12V74l-.34.19-.07-.12.34-.19-.34-.19.07-.12.34.2V73.4h.13v.37l.33-.2.07.12Z" style="fill:#606565"/><path d="M74.45,73.9l.33.19-.06.1L74.38,74v.38h-.13V74l-.34.19-.06-.12.34-.19-.34-.19.07-.12.34.2V73.4h.13v.37l.34-.2.06.12Z" style="fill:#606565"/><path d="M75.66,73.9l.34.17-.06.1L75.6,74v.38h-.13V74l-.35.19-.05-.1.33-.19-.33-.19.05-.12.35.2V73.4h.13v.37l.34-.2.06.12Z" style="fill:#606565"/><path d="M76.87,73.9l.33.19-.06.1L76.8,74v.38h-.13V74l-.35.19,0-.12.33-.19-.33-.19,0-.12.35.2V73.4h.13v.37l.34-.2.06.12Z" style="fill:#606565"/><path d="M78.07,73.9l.34.19-.06.1L78,74v.38h-.12V74l-.35.19-.06-.12.34-.19-.34-.19.06-.12.35.2V73.4H78v.37l.34-.2.06.12Z" style="fill:#606565"/><path d="M79.28,73.9l.34.19-.06.1L79.22,74v.38H79.1V74l-.35.19-.06-.12.34-.19-.34-.19.06-.12.35.2V73.4h.12v.37l.34-.2.06.12Z" style="fill:#606565"/><path d="M80.49,73.9l.34.19-.06.1L80.43,74v.38h-.12V74l-.35.19,0-.12.34-.19-.34-.17.06-.12.35.2v-.37h.11v.37l.35-.2.06.12Z" style="fill:#606565"/><path d="M81.7,73.9l.34.19-.06.1L81.63,74v.38h-.11V74l-.34.19-.07-.12.34-.19-.34-.19.07-.12.34.2V73.4h.11v.37l.35-.2.06.12Z" style="fill:#606565"/><path d="M67.63,81H59.25a1.76,1.76,0,0,0-1.76,1.76V83a1.76,1.76,0,0,0,1.76,1.77h8.38A1.76,1.76,0,0,0,69.39,83v-.28A1.76,1.76,0,0,0,67.63,81Z" style="fill:#d4375c"/><path d="M92.88,81H84.51a1.76,1.76,0,0,0-1.76,1.76V83a1.76,1.76,0,0,0,1.76,1.77h8.37A1.76,1.76,0,0,0,94.64,83v-.28A1.76,1.76,0,0,0,92.88,81Z" style="fill:#0a96ad"/><g style="opacity:0.2199999988079071"><path d="M102.48,85.26s-1.31,3.13.66,5.43a11,11,0,0,0,5,3s-.57,4.92,1.6,6.29h4.79L115,89.66Z" style="fill:#2f2d4f"/></g><path d="M118.68,107.43,117.57,104a.64.64,0,0,0-.14-.22.51.51,0,0,0-.21-.15L113.05,102c-3.83-1.5-3.69-7.4-3.58-9a.54.54,0,0,0-.08-.33.61.61,0,0,0-.25-.23l-4.38-2.11A5.18,5.18,0,0,1,102.05,86a2,2,0,0,1,.19-1,2.06,2.06,0,0,1,.69-.83,2.16,2.16,0,0,1,1-.36A2,2,0,0,1,105,84l11.15,3.93a.55.55,0,0,1,.31.25l5.9,9.66a.61.61,0,0,0,.31.26.65.65,0,0,0,.39,0L128,96.47a.5.5,0,0,1,.24,0,.57.57,0,0,1,.24.08.55.55,0,0,1,.18.16.57.57,0,0,1,.11.22l2.32,10.23a.77.77,0,0,1,0,.26.46.46,0,0,1-.12.23.68.68,0,0,1-.21.17.7.7,0,0,1-.25,0H119.27a.61.61,0,0,1-.37-.1A.63.63,0,0,1,118.68,107.43Z" style="fill:#f9ae83"/><path d="M118.44,101c-8.12-1.43-6.06-9.72-6.06-9.72l-10.23-4.43a5.29,5.29,0,0,0,.94,2,5.22,5.22,0,0,0,1.67,1.43l4.38,2.11.36.17v1a.87.87,0,0,0-.07.17V97.4a1.73,1.73,0,0,0,.07.31c0,.09,0,0,0,.07a2.11,2.11,0,0,0,.11.38v.1c0,.09.06.18.1.27v.13l.09.24.06.14.09.22s0,.09.07.14a2.12,2.12,0,0,0,.11.21l.07.13.15.24.06.1.22.31v.06l.2.24.1.09.18.18.1.11.18.15.13.1.19.14.13.08.24.14.11.06a2.17,2.17,0,0,0,.38.16l1.36.55.14,0,.8.32.51.2,1.62.63,1.19,3.73a.61.61,0,0,0,.22.3.63.63,0,0,0,.35.11h2.67l-1.58-6.55Z" style="fill:#f58a69"/><path d="M102.82,86.38l.42-.82a1,1,0,0,1,.5-.42,1,1,0,0,1,.65,0l2.09.75a.9.9,0,0,1,.34.2,1,1,0,0,1,.22.32,1,1,0,0,1,.06.38.79.79,0,0,1-.1.37l-.61,1.18a1,1,0,0,1-.57.45,1,1,0,0,1-.73-.07l-2-1.11a1,1,0,0,1-.39-.55A.85.85,0,0,1,102.82,86.38Z" style="fill:#e3e3e6"/><path d="M130.76,109.47l-11.89,1.85a2.28,2.28,0,0,1-1.66-.4,2.26,2.26,0,0,1-.89-1.45v-.29a2.13,2.13,0,0,1,0-.87,2.22,2.22,0,0,1,.36-.78,2.44,2.44,0,0,1,.65-.59,2.39,2.39,0,0,1,.81-.29l11.9-1.86a2.2,2.2,0,0,1,1.67.39,2.24,2.24,0,0,1,.91,1.44v.29a2.18,2.18,0,0,1,0,.88,2.18,2.18,0,0,1-1,1.39A2.22,2.22,0,0,1,130.76,109.47Z" style="fill:#f1e8e1"/><path d="M124.18,110.45l-5.35.84a2.24,2.24,0,0,1-1.62-.41,2.21,2.21,0,0,1-.89-1.41v-.29a2.13,2.13,0,0,1,0-.87,2.22,2.22,0,0,1,.36-.78,2.44,2.44,0,0,1,.65-.59,2.39,2.39,0,0,1,.81-.29l5.35-.84a2.25,2.25,0,0,1,2.58,1.85v.27a2.18,2.18,0,0,1,0,.88,2.4,2.4,0,0,1-.38.79,2.33,2.33,0,0,1-1.5.85Z" style="fill:#ddd3d2"/><path d="M138.15,133.32l-4.29-25.8-18.82,3,3.81,22.85Z" style="fill:#393c63"/><path d="M130.36,133.32,126.8,112a3.48,3.48,0,0,0-.48-1.24,3.61,3.61,0,0,0-.91-1,3.44,3.44,0,0,0-2.54-.56L115,110.45l3.81,22.85Z" style="fill:#2f2d4f"/><g style="opacity:0.2199999988079071"><path d="M65.89,81.35,54.81,100h7c1.7-4.78,4.59-12.91,5.38-15C68.34,82,65.89,81.35,65.89,81.35Z" style="fill:#2f2d4f"/></g><path d="M42.37,111.71l.54-3.73a2.46,2.46,0,0,0-.34-1.59,7.42,7.42,0,0,1-1.19-4c.2-2.27,3.65-9.66,3.65-9.66a3.22,3.22,0,0,1,1.15-1.28,3.25,3.25,0,0,1,1.64-.5,31.73,31.73,0,0,1,6.09,1.36,2.49,2.49,0,0,0,1.66-.09,2.55,2.55,0,0,0,1.24-1.1L62.14,81a2.59,2.59,0,0,1,.64-.76,2.45,2.45,0,0,1,.88-.45,2.37,2.37,0,0,1,1-.08,2.43,2.43,0,0,1,.94.31,2.39,2.39,0,0,1,1.06,1.22,2.5,2.5,0,0,1,.06,1.62l-5.69,18A2.48,2.48,0,0,0,61,102a2.33,2.33,0,0,0,.53,1.08,4.11,4.11,0,0,1,1,3.17c-.24,1.78-3.43,3.66-5.09,4.51a2.61,2.61,0,0,0-.8.68,2.36,2.36,0,0,0-.44,1l-.6,2.44a2.62,2.62,0,0,1-.43.87,2.27,2.27,0,0,1-.73.65,2.47,2.47,0,0,1-1.89.26l-8.36-2.26a2.36,2.36,0,0,1-1.42-1A2.39,2.39,0,0,1,42.37,111.71Z" style="fill:#f9ae83"/><path d="M62.43,83.32l2.3.7s1.25-2.1.16-3S62.81,82.25,62.43,83.32Z" style="fill:#e3e3e6"/><path d="M62.54,106.28a3.74,3.74,0,0,0-.42-2.25c-2.84,4.76-10.06,5.15-10.06,5.15l-1.48,6.13-.2.73,2.18.57a2.45,2.45,0,0,0,1,0,2.3,2.3,0,0,0,.92-.32,2.27,2.27,0,0,0,.73-.65,2.62,2.62,0,0,0,.43-.87l.6-2.4a2.3,2.3,0,0,1,.45-.93,2.51,2.51,0,0,1,.79-.66C59.11,109.94,62.3,108.06,62.54,106.28Z" style="fill:#f58a69"/><path d="M42.12,117l12.57,2a2.25,2.25,0,0,0,.93,0,2.37,2.37,0,0,0,.84-.38,2.55,2.55,0,0,0,.63-.68,2.47,2.47,0,0,0,.32-.87v-.3a2.33,2.33,0,0,0-.43-1.74,2.24,2.24,0,0,0-.68-.62,2.4,2.4,0,0,0-.86-.31l-12.57-2a2.37,2.37,0,0,0-.92,0,2.2,2.2,0,0,0-.85.39,2.41,2.41,0,0,0-.63.68,2.21,2.21,0,0,0-.31.87l0,.3a2.2,2.2,0,0,0,0,.92,2.13,2.13,0,0,0,.4.83,2.28,2.28,0,0,0,.69.62A2.31,2.31,0,0,0,42.12,117Z" style="fill:#f1e8e1"/><path d="M49,118.06l5.65.89a2.25,2.25,0,0,0,.93,0,2.37,2.37,0,0,0,.84-.38,2.55,2.55,0,0,0,.63-.68,2.47,2.47,0,0,0,.32-.87v-.3a2.33,2.33,0,0,0-.43-1.74,2.24,2.24,0,0,0-.68-.62,2.4,2.4,0,0,0-.86-.31l-5.65-.89a2.2,2.2,0,0,0-.92,0,2.41,2.41,0,0,0-.85.38,2.55,2.55,0,0,0-.63.68,2.47,2.47,0,0,0-.32.87l0,.3a2.38,2.38,0,0,0,0,.92,2.41,2.41,0,0,0,.4.84,2.52,2.52,0,0,0,.69.61A2.3,2.3,0,0,0,49,118.06Z" style="fill:#ddd3d2"/><path d="M55.68,136.36l3.06-18.31-19.89-3.12-3.56,21.43Z" style="fill:#393c63"/><path d="M55.68,136.36l3.06-18.31-8.31-1.31a3.58,3.58,0,0,0-4.1,3l-2.79,16.72Z" style="fill:#2f2d4f"/></g><path d="M76,14.5h0A63.5,63.5,0,0,1,139.5,78h0A63.5,63.5,0,0,1,76,141.5h0A63.5,63.5,0,0,1,12.5,78h0A63.5,63.5,0,0,1,76,14.5Z" style="fill:none;stroke:#1fb767"/></svg>