<svg id="Layer_1" data-name="Layer 1" xmlns="http://www.w3.org/2000/svg" xmlns:xlink="http://www.w3.org/1999/xlink" viewBox="0 0 956 425"><defs><clipPath id="clip-path"><path d="M477,174h0a59,59,0,0,1,59,59h0a59,59,0,0,1-59,59h0a59,59,0,0,1-59-59h0A59,59,0,0,1,477,174Z" style="fill:none"/></clipPath><clipPath id="clip-path-2"><path d="M76,66h0a59,59,0,0,1,59,59h0a59,59,0,0,1-59,59h0a59,59,0,0,1-59-59h0A59,59,0,0,1,76,66Z" style="fill:none"/></clipPath></defs><path d="M71,221.1a1,1,0,1,0,0-2Zm6-1.87a1,1,0,1,0-.06,2Zm7.86,2.32a1,1,0,0,0,1-.94,1,1,0,0,0-.94-1.06Zm6.1-1.62a1,1,0,0,0-.14,2Zm7.76,2.66a1,1,0,0,0,1.09-.89,1,1,0,0,0-.9-1.1Zm6.16-1.35a1,1,0,0,0-.23,2Zm7.63,3a1,1,0,0,0,1.13-.84,1,1,0,0,0-.84-1.14Zm6.21-1.08a1,1,0,1,0-.32,2Zm7.5,3.35a1,1,0,0,0,.37-2Zm6.24-.81a1,1,0,0,0-1.18.78,1,1,0,0,0,.78,1.18Zm7.36,3.68a1,1,0,0,0,.46-1.95Zm6.26-.54a1,1,0,0,0-.49,1.94Zm7.2,4a1,1,0,1,0,.54-1.92Zm6.28-.28a1,1,0,0,0-1.25.68,1,1,0,0,0,.68,1.24Zm7,4.27a1,1,0,0,0,1.26-.65,1,1,0,0,0-.65-1.25Zm6.3,0a1,1,0,1,0-.64,1.89Zm6.86,4.51a1,1,0,0,0,.68-1.88Zm6.3.18a1,1,0,0,0-1.29.59,1,1,0,0,0,.59,1.28Zm6.72,4.72a1,1,0,0,0,.73-1.86Zm6.29.37a1,1,0,0,0-1.3.55,1,1,0,0,0,.55,1.3Zm6.59,4.89a1,1,0,0,0,.78-1.84ZM212,252a1,1,0,1,0-.79,1.83Zm6.5,5a1,1,0,0,0,1.32-.5,1,1,0,0,0-.51-1.33Zm6.27.62a1,1,0,0,0-1.32.5,1,1,0,0,0,.5,1.32Zm6.42,5.11a1,1,0,1,0,.84-1.82Zm6.27.68a1,1,0,0,0-.84,1.82Zm6.39,5.16a1,1,0,0,0,.84-1.81Zm6.26.71a1,1,0,0,0-1.33.48,1,1,0,0,0,.49,1.33Zm6.38,5.17a1,1,0,0,0,.84-1.82Zm6.26.69a1,1,0,0,0-1.33.49,1,1,0,0,0,.49,1.32Zm6.42,5.14a1,1,0,0,0,.83-1.82Zm6.25.64a1,1,0,1,0-.82,1.82Zm6.48,5.08a1,1,0,0,0,1.32-.51,1,1,0,0,0-.52-1.32Zm6.26.55a1,1,0,0,0-.8,1.84Zm6.54,5A1,1,0,0,0,296,291a1,1,0,0,0-.53-1.31ZM301,292a1,1,0,0,0-1.3.54,1,1,0,0,0,.54,1.31Zm6.64,4.84a1,1,0,1,0,.74-1.86Zm6.29.31a1,1,0,0,0-.72,1.87Zm6.74,4.68a1,1,0,1,0,.7-1.87Zm6.31.16a1,1,0,0,0-1.27.61,1,1,0,0,0,.6,1.27Zm6.86,4.5a1,1,0,0,0,.64-1.9Zm6.32,0a1,1,0,0,0-.62,1.9Zm7,4.29a1,1,0,0,0,1.25-.67,1,1,0,0,0-.67-1.24Zm6.32-.21a1,1,0,0,0-1.24.69,1,1,0,0,0,.68,1.23Zm7.1,4.07a1,1,0,1,0,.52-1.93Zm6.31-.4a1,1,0,0,0-.49,1.94Zm7.23,3.84a1,1,0,1,0,.46-1.94Zm6.29-.61a1,1,0,0,0-.43,1.95Zm7.36,3.61a1,1,0,0,0,.4-2Zm6.26-.82a1,1,0,1,0-.37,2Zm7.48,3.37a1,1,0,0,0,.34-2Zm6.21-1a1,1,0,1,0-.3,2Zm7.62,3.13a1,1,0,0,0,1.12-.85,1,1,0,0,0-.85-1.13Zm6.15-1.21a1,1,0,0,0-.25,2Zm7.75,2.89a1,1,0,1,0,.21-2Zm6.08-1.41a1,1,0,0,0-1.09.91,1,1,0,0,0,.91,1.08Zm7.81,2.66a1,1,0,0,0,.15-2Zm6.08-1.59a1,1,0,0,0-1.06.94A1,1,0,0,0,449,329Zm7.83,2.43a1,1,0,0,0,1-.95,1,1,0,0,0-.95-1.05Zm6.12-1.75a1,1,0,0,0-1,1,1,1,0,0,0,1,1Zm7.82,2.2a1,1,0,0,0,1-1,1,1,0,0,0-1-1Zm6-1.92a1,1,0,0,0,0,2Zm8.09,2a1,1,0,0,0,1-1,1,1,0,0,0-1-1Zm5.89-2.14a1,1,0,0,0-1,1,1,1,0,0,0,1,1Zm7.92,1.63a1,1,0,1,0-.13-2Zm5.81-2.42a1,1,0,0,0-.91,1.08,1,1,0,0,0,1.08.92Zm8,1.23a1,1,0,1,0-.22-2Zm5.7-2.72a1,1,0,0,0,.27,2Zm8.06.81a1,1,0,0,0,.82-1.15,1,1,0,0,0-1.15-.82Zm5.51-3a1,1,0,1,0,.37,2Zm8.1.35a1,1,0,0,0,.76-1.19,1,1,0,0,0-1.2-.76Zm5.32-3.32a1,1,0,0,0-.73,1.22,1,1,0,0,0,1.21.72Zm8.12-.1a1,1,0,0,0,.69-1.24,1,1,0,0,0-1.24-.68Zm5.11-3.62a1,1,0,0,0-.65,1.26,1,1,0,0,0,1.25.65Zm8.11-.56a1,1,0,0,0,.62-1.27,1,1,0,0,0-1.28-.62Zm4.91-3.89a1,1,0,1,0,.7,1.87Zm8-1a1,1,0,0,0-.75-1.85Zm4.7-4.15a1,1,0,0,0,.79,1.83Zm8-1.43a1,1,0,0,0-.85-1.81Zm4.48-4.38a1,1,0,0,0,.89,1.79Zm7.93-1.81a1,1,0,0,0-.94-1.77Zm4.26-4.58a1,1,0,1,0,1,1.75Zm7.85-2.15a1,1,0,0,0,.36-1.36,1,1,0,0,0-1.37-.37Zm4.08-4.74a1,1,0,0,0,1,1.72Zm7.77-2.43a1,1,0,0,0-1.07-1.69Zm3.91-4.86a1,1,0,0,0,1.09,1.68Zm7.7-2.66a1,1,0,1,0-1.11-1.66Zm3.8-5a1,1,0,1,0,1.12,1.65Zm7.63-2.82a1,1,0,0,0,.26-1.39,1,1,0,0,0-1.4-.26Zm3.71-5a1,1,0,1,0,1.15,1.63Zm7.6-2.93a1,1,0,0,0,.24-1.39,1,1,0,0,0-1.4-.24Zm3.66-5.06a1,1,0,0,0,1.16,1.62Zm7.58-3a1,1,0,1,0-1.17-1.63Zm3.65-5.08a1,1,0,0,0,1.16,1.63Zm7.58-3a1,1,0,0,0,.24-1.39,1,1,0,0,0-1.4-.24Zm3.68-5.05a1,1,0,0,0,1.15,1.63Zm7.61-2.89a1,1,0,0,0-1.14-1.64Zm3.74-5a1,1,0,0,0,1.13,1.65Zm7.67-2.77a1,1,0,0,0-1.12-1.67Zm3.82-4.93a1,1,0,0,0,1.1,1.68Zm7.73-2.59a1,1,0,0,0,.31-1.38,1,1,0,0,0-1.38-.31Zm4-4.82a1,1,0,1,0,1,1.7Zm7.8-2.36a1,1,0,0,0-1-1.73Zm4.11-4.69a1,1,0,1,0,1,1.73ZM743.5,209a1,1,0,0,0-1-1.76Zm4.29-4.53a1,1,0,1,0,.92,1.77Zm8-1.77a1,1,0,0,0-.88-1.8Zm4.48-4.35a1,1,0,1,0,.84,1.81Zm8-1.41a1,1,0,0,0-.8-1.84Zm4.67-4.15a1,1,0,1,0,.76,1.85Zm8.07-1a1,1,0,1,0-.7-1.88Zm4.87-3.92a1,1,0,0,0,.67,1.89Zm8.12-.64a1,1,0,0,0,.64-1.26,1,1,0,0,0-1.26-.65Zm5-3.67a1,1,0,0,0-.67,1.24,1,1,0,0,0,1.25.67Zm8.16-.25a1,1,0,0,0,.7-1.23,1,1,0,0,0-1.22-.7Zm5.2-3.42a1,1,0,0,0,.48,1.95Zm8.18.15a1,1,0,0,0,.77-1.19,1,1,0,0,0-1.19-.76Zm5.34-3.15a1,1,0,1,0,.39,2Zm8.2.53a1,1,0,1,0-.34-2Zm5.46-2.89a1,1,0,0,0,.29,2Zm8.12.91a1,1,0,0,0,.87-1.11,1,1,0,0,0-1.12-.87Zm5.65-2.65a1,1,0,0,0-.89,1.1,1,1,0,0,0,1.09.89Zm8,1.28a1,1,0,0,0,.92-1.08,1,1,0,0,0-1.08-.91Zm5.86-2.41a1,1,0,1,0,.12,2Zm7.87,1.61a1,1,0,0,0-.07-2Zm5.89-2.18a1,1,0,1,0,0,2ZM67,221.08l4,0,0-2-4,0Zm10,.14q4,.12,7.92.33l.11-2q-3.94-.21-8-.32Zm13.88.71q4,.28,7.9.66l.19-2c-2.62-.25-5.27-.48-7.95-.67Zm13.83,1.3q4,.47,7.86,1l.29-2c-2.62-.37-5.25-.71-7.92-1Zm13.75,1.91c2.64.43,5.24.88,7.82,1.37l.37-2c-2.59-.49-5.22-.95-7.87-1.38Zm13.66,2.52c2.61.54,5.2,1.12,7.76,1.72l.46-1.95c-2.58-.61-5.19-1.18-7.82-1.73Zm13.53,3.12c2.59.65,5.15,1.34,7.69,2l.54-1.92c-2.56-.72-5.14-1.4-7.74-2.06Zm13.4,3.68c2.55.76,5.09,1.54,7.6,2.35l.61-1.9c-2.53-.81-5.07-1.6-7.64-2.37Zm13.26,4.21c2.51.85,5,1.73,7.5,2.62l.68-1.88q-3.75-1.35-7.54-2.63Zm13.1,4.67q3.72,1.4,7.42,2.85l.73-1.86c-2.47-1-5-1.93-7.45-2.86Zm13,5.07q3.67,1.5,7.34,3l.78-1.84q-3.67-1.55-7.37-3.05Zm12.83,5.38,7.29,3.19.81-1.83c-2.43-1.07-4.87-2.14-7.31-3.19Zm12.74,5.63,7.24,3.29.84-1.82-7.26-3.29Zm12.67,5.79,7.23,3.34.84-1.81-7.23-3.35Zm12.65,5.86,7.22,3.36.84-1.82-7.22-3.35Zm12.64,5.86,7.26,3.33.83-1.82-7.25-3.32Zm12.69,5.79q3.63,1.63,7.3,3.26l.8-1.83-7.28-3.25Zm12.76,5.65q3.65,1.58,7.34,3.14l.78-1.84q-3.69-1.56-7.32-3.14Zm12.86,5.44c2.45,1,4.91,2,7.4,3l.74-1.86c-2.48-1-4.94-2-7.38-3Zm13,5.17c2.47.95,4.95,1.89,7.46,2.81l.7-1.87c-2.5-.93-5-1.86-7.44-2.81Zm13.1,4.85q3.74,1.34,7.53,2.62l.64-1.9q-3.78-1.28-7.5-2.6Zm13.23,4.5q3.76,1.21,7.6,2.39l.58-1.91c-2.54-.78-5.07-1.57-7.56-2.38Zm13.36,4.1q3.79,1.11,7.66,2.15l.52-1.93c-2.56-.69-5.11-1.41-7.62-2.14Zm13.48,3.69c2.55.65,5.12,1.29,7.72,1.9l.46-1.94q-3.88-.93-7.69-1.9Zm13.58,3.24q3.85.87,7.79,1.66l.4-2c-2.62-.53-5.2-1.08-7.76-1.65Zm13.68,2.81c2.59.49,5.21.95,7.85,1.4l.34-2c-2.64-.45-5.24-.91-7.82-1.4Zm13.76,2.36c2.61.4,5.25.79,7.92,1.15l.27-2q-4-.54-7.89-1.15Zm13.82,1.92q4,.49,8,.91l.21-2q-4-.42-8-.9Zm13.9,1.49c2.63.25,5.3.47,8,.67l.15-2c-2.68-.2-5.33-.43-8-.67ZM449,329c2.63.16,5.28.31,8,.43l.09-2q-4-.18-7.92-.43Zm14,.68q3.9.14,7.88.2l0-2q-4-.07-7.86-.21Zm13.9.28,4.06,0v-2L477,328Zm4.06,0c1.35,0,2.7,0,4,0l0-2c-1.33,0-2.66,0-4,0Zm10-.17c2.64-.08,5.26-.21,7.85-.37l-.13-2c-2.56.15-5.16.28-7.79.36Zm13.83-.79q3.94-.33,7.8-.77l-.22-2c-2.55.28-5.13.54-7.75.75Zm13.77-1.5c2.63-.36,5.22-.75,7.79-1.18l-.33-2c-2.55.42-5.12.81-7.73,1.16Zm13.67-2.24c2.61-.5,5.19-1,7.73-1.61l-.44-1.95c-2.52.57-5.08,1.1-7.66,1.6Zm13.53-3c2.58-.64,5.13-1.33,7.64-2l-.55-1.92q-3.74,1.06-7.57,2Zm13.35-3.75c2.53-.79,5-1.61,7.51-2.47L566,314.2q-3.68,1.28-7.45,2.45Zm13.12-4.49q3.72-1.4,7.35-2.88l-.75-1.85c-2.41,1-4.84,1.94-7.3,2.86Zm12.84-5.2q3.64-1.58,7.2-3.26l-.85-1.81q-3.54,1.67-7.14,3.24ZM597.68,303c2.37-1.17,4.71-2.37,7-3.6l-.94-1.77q-3.46,1.83-7,3.58ZM610,296.59q3.46-1.9,6.88-3.9l-1-1.73q-3.39,2-6.84,3.88Zm12-6.92c2.26-1.36,4.51-2.75,6.74-4.15l-1.07-1.69c-2.22,1.39-4.45,2.77-6.7,4.12Zm11.74-7.33q3.33-2.14,6.61-4.34l-1.11-1.66q-3.27,2.18-6.59,4.32Zm11.53-7.65q3.27-2.22,6.51-4.47l-1.14-1.65q-3.24,2.25-6.49,4.47Zm11.37-7.87q3.24-2.26,6.45-4.56l-1.16-1.63q-3.21,2.3-6.44,4.56Zm11.27-8,6.42-4.59-1.17-1.63-6.41,4.6Zm11.23-8,6.42-4.59-1.16-1.63-6.42,4.59Zm11.25-8q3.23-2.27,6.46-4.52l-1.14-1.64c-2.17,1.5-4.32,3-6.47,4.53Zm11.33-7.87q3.24-2.24,6.54-4.42l-1.12-1.67c-2.19,1.47-4.38,2.95-6.55,4.44Zm11.46-7.67q3.28-2.16,6.63-4.27l-1.07-1.69q-3.34,2.11-6.66,4.28Zm11.64-7.39q3.35-2.06,6.75-4.06l-1-1.73q-3.42,2-6.78,4.09Zm11.85-7c2.28-1.29,4.57-2.56,6.89-3.82l-1-1.76c-2.33,1.26-4.64,2.55-6.93,3.85Zm12.1-6.58q3.48-1.8,7-3.54l-.88-1.8q-3.57,1.75-7.07,3.57Zm12.35-6.08c2.36-1.1,4.76-2.17,7.18-3.22l-.8-1.84c-2.44,1.06-4.84,2.14-7.22,3.25Zm12.61-5.52q3.62-1.48,7.31-2.88l-.7-1.88q-3.74,1.43-7.37,2.91Zm12.85-4.91q3.68-1.32,7.45-2.53l-.62-1.91q-3.79,1.23-7.5,2.55Zm13.07-4.29q3.74-1.12,7.58-2.16l-.52-1.93q-3.87,1-7.64,2.18Zm13.26-3.63c2.54-.63,5.1-1.23,7.7-1.8l-.42-1.95q-3.93.85-7.76,1.8Zm13.43-3q3.86-.75,7.81-1.43l-.34-2q-4,.68-7.86,1.44Zm13.56-2.34c2.58-.39,5.19-.74,7.83-1.07l-.25-2c-2.65.33-5.28.68-7.87,1.07Zm13.68-1.73c2.57-.26,5.18-.5,7.81-.71l-.16-2c-2.65.21-5.26.44-7.85.71Zm13.79-1.13c2.55-.15,5.14-.28,7.75-.38l-.07-2q-3.94.15-7.8.39Zm13.69-.56c1.33,0,2.66-.05,4-.06l0-2c-1.35,0-2.7,0-4,.06Z" style="fill:#1fb767"/><path d="M477,314h0a15,15,0,0,1,15,15h0a15,15,0,0,1-15,15h0a15,15,0,0,1-15-15h0A15,15,0,0,1,477,314Z" style="fill:#fff"/><path d="M477,317h0a12,12,0,0,1,12,12h0a12,12,0,0,1-12,12h0a12,12,0,0,1-12-12h0A12,12,0,0,1,477,317Z" style="fill:#16a75c"/><path d="M479.81,332.89a.6.6,0,0,1,.44.16.53.53,0,0,1,.17.41v1h-6.95v-.57a1,1,0,0,1,.31-.72l3.07-3.08q.39-.39.69-.75a5.87,5.87,0,0,0,.51-.7,3.65,3.65,0,0,0,.31-.71,2.74,2.74,0,0,0,.11-.76,1.75,1.75,0,0,0-.11-.64,1.27,1.27,0,0,0-.3-.47,1.08,1.08,0,0,0-.46-.28,1.89,1.89,0,0,0-.6-.1,1.81,1.81,0,0,0-.58.09,1.58,1.58,0,0,0-.46.25,1.46,1.46,0,0,0-.34.36,1.92,1.92,0,0,0-.21.46.74.74,0,0,1-.31.43.83.83,0,0,1-.54.05l-.91-.16a3.77,3.77,0,0,1,.4-1.28,3,3,0,0,1,.75-.91,3.27,3.27,0,0,1,1-.56,4.26,4.26,0,0,1,1.26-.18,3.78,3.78,0,0,1,1.28.21,2.57,2.57,0,0,1,1,.58,2.61,2.61,0,0,1,.65.91,3,3,0,0,1,.23,1.18,3.19,3.19,0,0,1-.17,1,4.23,4.23,0,0,1-.44.91,5.57,5.57,0,0,1-.65.84c-.24.27-.5.54-.77.82l-2.29,2.33a5.18,5.18,0,0,1,.66-.14,3.42,3.42,0,0,1,.62-.06Z" style="fill:#fff"/><path d="M477,314h0a15,15,0,0,1,15,15h0a15,15,0,0,1-15,15h0a15,15,0,0,1-15-15h0A15,15,0,0,1,477,314Z" style="fill:none;stroke:#16a75c;stroke-width:2px"/><path d="M880,157h0a15,15,0,0,1,15,15h0a15,15,0,0,1-15,15h0a15,15,0,0,1-15-15h0A15,15,0,0,1,880,157Z" style="fill:#fff"/><path d="M880,160h0a12,12,0,0,1,12,12h0a12,12,0,0,1-12,12h0a12,12,0,0,1-12-12h0A12,12,0,0,1,880,160Z" style="fill:#16a75c"/><path d="M876.7,170.2a3.65,3.65,0,0,1,.4-1.27,3,3,0,0,1,1.79-1.47,4,4,0,0,1,1.26-.19,3.62,3.62,0,0,1,1.26.2,2.74,2.74,0,0,1,1,.55,2.48,2.48,0,0,1,.83,1.86,3.13,3.13,0,0,1-.11.85,2.12,2.12,0,0,1-.31.64,2,2,0,0,1-.51.46,3.06,3.06,0,0,1-.68.32A2.6,2.6,0,0,1,883,173a2.35,2.35,0,0,1,.45,1.48,3,3,0,0,1-.28,1.33,2.84,2.84,0,0,1-.76,1,3.34,3.34,0,0,1-1.1.6,4.44,4.44,0,0,1-1.32.2,4.72,4.72,0,0,1-1.33-.17,2.92,2.92,0,0,1-1-.52,3,3,0,0,1-.71-.84,5.31,5.31,0,0,1-.51-1.15l.76-.31a.87.87,0,0,1,.56-.07.55.55,0,0,1,.39.28,4.67,4.67,0,0,0,.27.49,1.86,1.86,0,0,0,.37.42,1.84,1.84,0,0,0,.49.3,1.71,1.71,0,0,0,.67.12,2,2,0,0,0,.77-.14,1.63,1.63,0,0,0,.55-.38,1.59,1.59,0,0,0,.33-.51,1.49,1.49,0,0,0,.11-.58,2.18,2.18,0,0,0-.08-.65.92.92,0,0,0-.32-.52,1.76,1.76,0,0,0-.7-.33,5.74,5.74,0,0,0-1.23-.11V171.7a4.42,4.42,0,0,0,1.06-.11,1.84,1.84,0,0,0,.66-.31,1,1,0,0,0,.35-.49,1.7,1.7,0,0,0,.1-.61,1.41,1.41,0,0,0-.4-1.09,1.52,1.52,0,0,0-1.06-.37,1.7,1.7,0,0,0-.57.09,1.63,1.63,0,0,0-.47.25,1.46,1.46,0,0,0-.34.36,1.92,1.92,0,0,0-.21.46.71.71,0,0,1-.32.43.82.82,0,0,1-.54.05Z" style="fill:#fff"/><path d="M880,157h0a15,15,0,0,1,15,15h0a15,15,0,0,1-15,15h0a15,15,0,0,1-15-15h0A15,15,0,0,1,880,157Z" style="fill:none;stroke:#16a75c;stroke-width:2px"/><path d="M76,206h0a15,15,0,0,1,15,15h0a15,15,0,0,1-15,15h0a15,15,0,0,1-15-15h0A15,15,0,0,1,76,206Z" style="fill:#fff"/><path d="M76,209h0a12,12,0,0,1,12,12h0a12,12,0,0,1-12,12h0a12,12,0,0,1-12-12h0A12,12,0,0,1,76,209Z" style="fill:#16a75c"/><path d="M79.18,225.21v1.29h-5.6v-1.29h2.06V219.3c0-.23,0-.47,0-.72L74.2,219.8a.6.6,0,0,1-.25.13h-.23a.84.84,0,0,1-.19-.07.51.51,0,0,1-.13-.12l-.54-.75,3.08-2.63h1.42v8.85Z" style="fill:#fff"/><path d="M76,206h0a15,15,0,0,1,15,15h0a15,15,0,0,1-15,15h0a15,15,0,0,1-15-15h0A15,15,0,0,1,76,206Z" style="fill:none;stroke:#16a75c;stroke-width:2px"/><path d="M477,169h0a64,64,0,0,1,64,64h0a64,64,0,0,1-64,64h0a64,64,0,0,1-64-64h0A64,64,0,0,1,477,169Z" style="fill:#fff"/><path d="M536,233a59,59,0,1,1-118,.77c4.38-10,21.5-13.46,30.18-3.33,10,11.68,32.93,18.41,41.44-9.73,6.35-21,21.5-25.23,33-25.12A58.61,58.61,0,0,1,536,233Z" style="fill:#3bb277"/><path d="M477,292a59,59,0,1,0-59-59A59,59,0,0,0,477,292Z" style="fill:#3cbf80"/><path d="M536,233a59,59,0,1,1-118,.77c4.38-10,21.85-15.16,30.53-5,10,11.68,26.35,8.72,34.86-19.42,6.35-21,27.73-13.83,39.21-13.72A58.69,58.69,0,0,1,536,233Z" style="fill:#3eb778"/><g style="clip-path:url(#clip-path)"><path d="M516.35,212.35H444.8a5.36,5.36,0,0,0-5.36,5.36v71.55a5.36,5.36,0,0,0,5.36,5.36h71.55a5.36,5.36,0,0,0,5.36-5.36V217.71A5.36,5.36,0,0,0,516.35,212.35Z" style="fill:#3aa063"/><path d="M525.26,258.23l-1.76-13.38a5.38,5.38,0,0,0-2.11-3.6l-8.58-6.44-4.65,14.54,10.67,11.71Z" style="fill:#f9ae83"/><path d="M513,239.31l6,4.92a.68.68,0,0,1,.22.31.62.62,0,0,1,0,.38l-2.14,8.21a.72.72,0,0,1-.2.32.8.8,0,0,1-.33.17.78.78,0,0,1-.37,0,.66.66,0,0,1-.31-.21L511.61,248a.68.68,0,0,1,0-.8l.39-7.75a.55.55,0,0,1,.21-.19.82.82,0,0,1,.26-.1.88.88,0,0,1,.28,0A.75.75,0,0,1,513,239.31Z" style="fill:#f58a69"/><path d="M511.45,207.45H439.9a5.36,5.36,0,0,0-5.36,5.36v75.43a5.36,5.36,0,0,0,5.36,5.36h71.55a5.36,5.36,0,0,0,5.36-5.36V212.81A5.36,5.36,0,0,0,511.45,207.45Z" style="fill:#f2f2f2"/><path d="M439.9,207.45h71.55a5.36,5.36,0,0,1,5.36,5.36V217H434.54v-4.2a5.36,5.36,0,0,1,5.36-5.35Z" style="fill:#28313a"/><path d="M498.1,212.52a1.46,1.46,0,0,1-.26.83,1.56,1.56,0,0,1-.68.54,1.49,1.49,0,0,1-.86.08,1.54,1.54,0,0,1-.77-.42,1.48,1.48,0,0,1-.4-.76,1.51,1.51,0,0,1,.64-1.54,1.53,1.53,0,0,1,.83-.25,1.47,1.47,0,0,1,1.07.44,1.47,1.47,0,0,1,.32.5A1.43,1.43,0,0,1,498.1,212.52Z" style="fill:#3eb778"/><path d="M504.65,212.52a1.49,1.49,0,0,1-.26.84,1.59,1.59,0,0,1-.68.55,1.53,1.53,0,0,1-.87.08,1.46,1.46,0,0,1-.77-.42,1.52,1.52,0,0,1-.32-1.65,1.46,1.46,0,0,1,.56-.67,1.56,1.56,0,0,1,.84-.25,1.47,1.47,0,0,1,1.07.44,1.47,1.47,0,0,1,.32.5A1.43,1.43,0,0,1,504.65,212.52Z" style="fill:#f4ae3d"/><path d="M511.2,212.52a1.46,1.46,0,0,1-.5.95,1.48,1.48,0,0,1-2,0,1.15,1.15,0,0,1,0-1.9,1.48,1.48,0,0,1,2,0A1.46,1.46,0,0,1,511.2,212.52Z" style="fill:#da3845"/><path d="M516.8,217.12H434.57v24.79H516.8Z" style="fill:#dfe3e5"/><path d="M447.51,246.5a9.19,9.19,0,1,0-9.33-9.19A9.27,9.27,0,0,0,447.51,246.5Z" style="fill:#3eb778"/><path d="M451.19,234.71a3.46,3.46,0,0,1-2.1,3.25,3.47,3.47,0,0,1-4.58-4.5,3.39,3.39,0,0,1,1.28-1.57,3.48,3.48,0,0,1,1.93-.59,3.45,3.45,0,0,1,3.47,3.41Z" style="fill:#fff"/><path d="M441.91,244.62a5.68,5.68,0,1,1,11.36,0,10.38,10.38,0,0,1-5.76,2.23A8.91,8.91,0,0,1,441.91,244.62Z" style="fill:#fff"/><path d="M502.56,247.88h-41.3a2.3,2.3,0,0,0-2.3,2.3v1.91a2.3,2.3,0,0,0,2.3,2.3h41.3a2.3,2.3,0,0,0,2.3-2.3v-1.91A2.3,2.3,0,0,0,502.56,247.88Z" style="fill:#d8d8d8"/><path d="M502,258.69H461.26A2.3,2.3,0,0,0,459,261v1.91a2.3,2.3,0,0,0,2.3,2.3H502a2.3,2.3,0,0,0,2.3-2.3V261A2.3,2.3,0,0,0,502,258.69Z" style="fill:#d8d8d8"/><path d="M482,268.69h-20.7A2.3,2.3,0,0,0,459,271v1.91a2.3,2.3,0,0,0,2.3,2.3H482a2.3,2.3,0,0,0,2.3-2.3V271A2.3,2.3,0,0,0,482,268.69Z" style="fill:#d8d8d8"/><path d="M515.63,266.8l-1-3.27a.57.57,0,0,0-.13-.21.46.46,0,0,0-.2-.13l-3.93-1.55c-3.61-1.42-3.47-7-3.37-8.47a.53.53,0,0,0-.08-.32.49.49,0,0,0-.24-.21l-4.12-2a4.89,4.89,0,0,1-2.56-4,2,2,0,0,1,.2-1,2.11,2.11,0,0,1,.66-.76,2.06,2.06,0,0,1,.95-.34,1.91,1.91,0,0,1,1,.16l10.5,3.73a.55.55,0,0,1,.3.24l5.51,9.1a.5.5,0,0,0,.29.24.52.52,0,0,0,.37,0l4.66-1.52a.45.45,0,0,1,.23,0,.61.61,0,0,1,.4.22.51.51,0,0,1,.1.21l2.17,9.62c.11,1.7.56,11.8.56,11.8H516.16C515.92,278.31,515.7,267,515.63,266.8Z" style="fill:#f9ae83"/><path d="M515.41,260.74c-7.66-1.35-5.75-9.16-5.75-9.16l-9.61-4.15a4.94,4.94,0,0,0,.89,1.88,5.1,5.1,0,0,0,1.57,1.35l4.12,2,.35.16v3.68a.33.33,0,0,0,0,.14.81.81,0,0,0,0,.22.33.33,0,0,0,0,.14v.36a.45.45,0,0,0,.07.29c.07.1,0,0,0,.07a2.45,2.45,0,0,0,.1.35v.1a1.83,1.83,0,0,0,.08.25v.13a.29.29,0,0,0,.08.22l.06.13.09.21a.54.54,0,0,0,.07.13l.1.21.07.12.13.22.06.09a2.73,2.73,0,0,0,.21.3v.05l.19.23.08.09.17.17.1.09.18.15.11.09.19.13.12.08.22.13.11.06.35.16,1.29.51h.13l.75.29.48.19,1.53.6,1.13,3.52c.07.23.29,11.51.53,11.51h2.52L517.19,261Z" style="fill:#f58a69"/><path d="M500.68,247l.4-.77a.84.84,0,0,1,.46-.41.88.88,0,0,1,.62,0l2,.71a.89.89,0,0,1,.31.19,1,1,0,0,1,.21.3,1.15,1.15,0,0,1,.06.37.88.88,0,0,1-.1.35l-.57,1.11a.75.75,0,0,1-.23.27.94.94,0,0,1-.31.17.84.84,0,0,1-.35,0,.8.8,0,0,1-.34-.11L501,248.1a.83.83,0,0,1-.37-.49A.86.86,0,0,1,500.68,247Z" style="fill:#e3e3e6"/><path d="M503.79,230.44h-41.3a2.3,2.3,0,0,0-2.3,2.3v1.91a2.3,2.3,0,0,0,2.3,2.3h41.3a2.3,2.3,0,0,0,2.3-2.3v-1.91A2.3,2.3,0,0,0,503.79,230.44Z" style="fill:#ededed"/></g><path d="M477,169.5h0A63.5,63.5,0,0,1,540.5,233h0A63.5,63.5,0,0,1,477,296.5h0A63.5,63.5,0,0,1,413.5,233h0A63.5,63.5,0,0,1,477,169.5Z" style="fill:none;stroke:#1fb767"/><path d="M880,12h0a64,64,0,0,1,64,64h0a64,64,0,0,1-64,64h0a64,64,0,0,1-64-64h0A64,64,0,0,1,880,12Z" style="fill:#fff"/><path d="M939,76a59,59,0,1,1-118,.77c4.38-10,21.5-13.46,30.18-3.33,10,11.68,32.93,18.41,41.44-9.73,6.35-21,21.5-25.23,33-25.12A58.61,58.61,0,0,1,939,76Z" style="fill:#3bb277"/><path d="M880,135a59,59,0,1,0-59-59A59,59,0,0,0,880,135Z" style="fill:#3cbf80"/><path d="M939,76a59,59,0,1,1-118,.77c4.38-10,21.85-15.16,30.53-5,10,11.68,26.35,8.72,34.86-19.42,6.35-21,27.73-13.83,39.21-13.72A58.69,58.69,0,0,1,939,76Z" style="fill:#3eb778"/><path d="M859.15,121.35l8.14-1.29a2.78,2.78,0,0,0,2.31-3.18l-4.3-27a2.77,2.77,0,0,0-1.12-1.81,2.83,2.83,0,0,0-2.07-.5L854,88.86A2.77,2.77,0,0,0,852.19,90a2.83,2.83,0,0,0-.5,2.07L856,119a2.8,2.8,0,0,0,3.15,2.35Z" style="fill:#ece0ed;fill-rule:evenodd"/><path d="M869.28,89l-19.06,6.24a3.25,3.25,0,0,1-4.08-2.06l-6.79-20.61a3.24,3.24,0,0,1,2.06-4.08l19.06-6.26a3.12,3.12,0,0,1,1.25-.15,3.21,3.21,0,0,1,1.22.33,3.42,3.42,0,0,1,1,.78,3.16,3.16,0,0,1,.62,1.1l6.79,20.61a3.34,3.34,0,0,1,.16,1.26,3.27,3.27,0,0,1-.34,1.22,3.15,3.15,0,0,1-.78,1,3.33,3.33,0,0,1-1.1.62Z" style="fill:#f9ece3;fill-rule:evenodd"/><path d="M831.22,83.31a3.19,3.19,0,0,0-1.51,1.06,3.19,3.19,0,0,0-.27,3.53,3.27,3.27,0,0,0,1.35,1.28,3.18,3.18,0,0,0,1.82.31,3.23,3.23,0,0,0,1.69-.76,3.28,3.28,0,0,0,1-1.57,3.24,3.24,0,0,0-.06-1.85,3.19,3.19,0,0,0-4-2Z" style="fill:#f4ae3d;fill-rule:evenodd"/><path d="M904.71,69.21,836.44,91.64a2.38,2.38,0,0,1-.92.12,2.31,2.31,0,0,1-.89-.24,2.26,2.26,0,0,1-.73-.57,2.2,2.2,0,0,1-.46-.8L831,82.51a2.41,2.41,0,0,1-.12-.92,2.31,2.31,0,0,1,.24-.89,2.4,2.4,0,0,1,.57-.73,2.33,2.33,0,0,1,.81-.46l68.22-22.39a2.41,2.41,0,0,1,.92-.12,2.31,2.31,0,0,1,.89.24,2.4,2.4,0,0,1,.73.57,2.33,2.33,0,0,1,.46.81l2.51,7.63a2.35,2.35,0,0,1-.14,1.8,2.49,2.49,0,0,1-.57.72,2.28,2.28,0,0,1-.81.44Z" style="fill:#f9ece3;fill-rule:evenodd"/><path d="M864.42,86.36,842,93.74a3.74,3.74,0,0,1-4.69-2.37l-4-12.09a3.72,3.72,0,0,1,2.37-4.68l22.47-7.39c11.57-3.8,36-15.84,38.56-30.08l4.65,2.77L908,61.45l7.5,21.26-2.1,5C902.84,77.74,876,82.55,864.42,86.36Z" style="fill:#e5e5e5;fill-rule:evenodd"/><path d="M912,73.1l-4.07-11.65-6.6-21.55-4.65-2.77c-2.52,14.24-27,26.28-38.56,30.08l-18.12,6,2.44,7.4a3.72,3.72,0,0,0,4.69,2.36l22.48-7.38C879.22,72.39,899.49,68.52,912,73.1Z" style="fill:#fff;fill-rule:evenodd"/><path d="M844.78,92.81l-6.31-19.14,19.65-6.46a77.79,77.79,0,0,0,7.66-3l6.57,20c-3,.68-5.75,1.43-7.93,2.15Z" style="fill:#fe4e4e;fill-rule:evenodd"/><path d="M898.64,33.25a3,3,0,0,0-1.06.58,3.12,3.12,0,0,0-.75.94,3,3,0,0,0-.33,1.16,3,3,0,0,0,.14,1.2L913.33,87.7a3,3,0,0,0,.58,1.06,3.28,3.28,0,0,0,1,.75,3.15,3.15,0,0,0,1.16.33,3.24,3.24,0,0,0,1.2-.14h0a3,3,0,0,0,1.06-.58,3.12,3.12,0,0,0,.75-.94,3,3,0,0,0,.33-1.16,3,3,0,0,0-.14-1.2L902.53,35.21a3.09,3.09,0,0,0-3.89-2Z" style="fill:#fe4e4e;fill-rule:evenodd"/><path d="M863.29,69.51l-15.09,5a1,1,0,0,0-.58.5,1,1,0,0,0-.06.76h0a.94.94,0,0,0,.5.57,1,1,0,0,0,.76.06l15.09-5a1,1,0,0,0,.64-1.25h0a1,1,0,0,0-.5-.58A1,1,0,0,0,863.29,69.51Z" style="fill:#b72537;fill-rule:evenodd"/><path d="M844.69,75.63l-1.22.4a1,1,0,0,0-.63,1.25,1,1,0,0,0,1.25.64l1.22-.4a1.06,1.06,0,0,0,.35-.18.93.93,0,0,0,.26-.3.89.89,0,0,0,.12-.38,1.07,1.07,0,0,0,0-.4.94.94,0,0,0-.2-.35,1.11,1.11,0,0,0-.32-.25,1.07,1.07,0,0,0-.39-.1,1.09,1.09,0,0,0-.4.07Z" style="fill:#b72537;fill-rule:evenodd"/><path d="M864.64,73.6l-19.82,6.51a1,1,0,0,0-.63,1.25h0a1,1,0,0,0,1.25.64l19.82-6.51a1,1,0,0,0,.58-.5,1.05,1.05,0,0,0,0-.76h0a1,1,0,0,0-1.25-.63Z" style="fill:#b72537;fill-rule:evenodd"/><path d="M852.56,128.42s1.23-3.06,1-4.46-2.29-9.78-2.56-11.21,1.72-4.75,3-6.38c0,0,.59,1.91,1.39,2.27s1.82.68,3-.9,5.93-6.76,7.17-8.25,2.06-1.83,2.63-1.59a8.81,8.81,0,0,1,2.31,1.45,4.88,4.88,0,0,1,1.2,2.25,3.12,3.12,0,0,1,2.07.37,7,7,0,0,1,2.08,1.63,5.54,5.54,0,0,1,.95,2.57,3.79,3.79,0,0,1,1.66,1,11.62,11.62,0,0,1,1.42,3,5.15,5.15,0,0,1-.06,2.14,1,1,0,0,1,.51.09,1,1,0,0,1,.4.34,21.56,21.56,0,0,1,1.73,3.07c.25.66.2,2.26-1.51,4s-11.55,11-13.07,12.47a4,4,0,0,1-1.52.92,3.88,3.88,0,0,1-1.76.16Z" style="fill:#f9ae83;fill-rule:evenodd"/><path d="M853.94,106.37s.59,1.91,1.39,2.27,1.78.67,3-.81l-4.1,5.17-.29-6.65Zm17-6.46a3.82,3.82,0,0,1,.79,1.69l-4.86,6.23Zm5.33,4.33a4.88,4.88,0,0,1,.56,1.93l-4.41,5.72,3.85-7.65Zm3.62,5.85-4.44,7.46,4.4-5.25a5.15,5.15,0,0,0,.06-2.14Z" style="fill:#f58a69;fill-rule:evenodd"/><path d="M880,12.5h0A63.5,63.5,0,0,1,943.5,76h0A63.5,63.5,0,0,1,880,139.5h0A63.5,63.5,0,0,1,816.5,76h0A63.5,63.5,0,0,1,880,12.5Z" style="fill:none;stroke:#1fb767"/><path d="M76,61h0a64,64,0,0,1,64,64h0a64,64,0,0,1-64,64h0a64,64,0,0,1-64-64h0A64,64,0,0,1,76,61Z" style="fill:#fff"/><path d="M135,125a59,59,0,1,1-118,.77c4.38-10,21.5-13.46,30.18-3.33,10,11.68,32.93,18.41,41.44-9.73,6.35-21,21.5-25.23,33-25.12A58.61,58.61,0,0,1,135,125Z" style="fill:#3bb277"/><path d="M76,184a59,59,0,1,0-59-59A59,59,0,0,0,76,184Z" style="fill:#3cbf80"/><path d="M135,125a59,59,0,1,1-118,.77c4.38-10,21.85-15.16,30.53-5,10,11.68,26.35,8.72,34.86-19.42,6.35-21,27.73-13.83,39.21-13.72A58.69,58.69,0,0,1,135,125Z" style="fill:#3eb778"/><g style="clip-path:url(#clip-path-2)"><path d="M115.35,104.35H43.8a5.36,5.36,0,0,0-5.36,5.36v71.55a5.36,5.36,0,0,0,5.36,5.36h71.55a5.36,5.36,0,0,0,5.36-5.36V109.71A5.36,5.36,0,0,0,115.35,104.35Z" style="fill:#3aa063"/><path d="M110.45,99.45H38.9a5.36,5.36,0,0,0-5.36,5.36v75.43a5.36,5.36,0,0,0,5.36,5.36h71.55a5.36,5.36,0,0,0,5.36-5.36V104.81A5.36,5.36,0,0,0,110.45,99.45Z" style="fill:#f2f2f2"/><path d="M38.9,99.45h71.55a5.36,5.36,0,0,1,5.36,5.36V109H33.54v-4.2a5.36,5.36,0,0,1,5.36-5.35Z" style="fill:#28313a"/><path d="M97.1,104.52a1.54,1.54,0,0,1-.26.83,1.56,1.56,0,0,1-.68.54,1.49,1.49,0,0,1-.86.08,1.54,1.54,0,0,1-.77-.42,1.41,1.41,0,0,1-.4-.76,1.44,1.44,0,0,1,.09-.87A1.49,1.49,0,0,1,95.6,103a1.47,1.47,0,0,1,1.07.44,1.38,1.38,0,0,1,.32.5A1.43,1.43,0,0,1,97.1,104.52Z" style="fill:#3eb778"/><path d="M103.65,104.52a1.49,1.49,0,0,1-.26.84,1.51,1.51,0,0,1-1.55.63,1.5,1.5,0,0,1-.77-.42,1.52,1.52,0,0,1-.32-1.65,1.46,1.46,0,0,1,.56-.67,1.48,1.48,0,0,1,.84-.25,1.47,1.47,0,0,1,1.07.44,1.38,1.38,0,0,1,.32.5A1.43,1.43,0,0,1,103.65,104.52Z" style="fill:#f4ae3d"/><path d="M110.2,104.52a1.46,1.46,0,0,1-.5,1,1.48,1.48,0,0,1-1,.39,1.52,1.52,0,0,1-1-.39,1.17,1.17,0,0,1,0-1.9,1.52,1.52,0,0,1,1-.39,1.48,1.48,0,0,1,1,.39A1.46,1.46,0,0,1,110.2,104.52Z" style="fill:#da3845"/><path d="M105.93,114.59H63a1.92,1.92,0,0,0-1.93,1.93h0A1.92,1.92,0,0,0,63,118.46h42.93a1.92,1.92,0,0,0,1.93-1.93h0A1.92,1.92,0,0,0,105.93,114.59Z" style="fill:#859e9c"/><path d="M79.55,121.33H63a1.92,1.92,0,0,0-1.93,1.93h0A1.92,1.92,0,0,0,63,125.2H79.55a1.92,1.92,0,0,0,1.93-1.93h0A1.92,1.92,0,0,0,79.55,121.33Z" style="fill:#859e9c"/><path d="M79.55,142.9H63a1.92,1.92,0,0,0-1.93,1.93h0A1.92,1.92,0,0,0,63,146.77H79.55a1.92,1.92,0,0,0,1.93-1.93h0A1.92,1.92,0,0,0,79.55,142.9Z" style="fill:#d8d8d8"/><path d="M105.93,136.16H63a1.92,1.92,0,0,0-1.93,1.93h0A1.92,1.92,0,0,0,63,140h42.93a1.92,1.92,0,0,0,1.93-1.93h0A1.92,1.92,0,0,0,105.93,136.16Z" style="fill:#d8d8d8"/><path d="M79.55,164.47H63a1.92,1.92,0,0,0-1.93,1.93h0A1.92,1.92,0,0,0,63,168.34H79.55a1.92,1.92,0,0,0,1.93-1.93h0A1.92,1.92,0,0,0,79.55,164.47Z" style="fill:#d8d8d8"/><path d="M105.93,157.73H63a1.92,1.92,0,0,0-1.93,1.93h0A1.92,1.92,0,0,0,63,161.6h42.93a1.92,1.92,0,0,0,1.93-1.93h0A1.92,1.92,0,0,0,105.93,157.73Z" style="fill:#d8d8d8"/><path d="M47.62,127a7.13,7.13,0,1,0-7.13-7.13A7.13,7.13,0,0,0,47.62,127Z" style="fill:#179668"/><path d="M43.05,119.94l1.26-1.4,2.45,2.22,4-4.45,1.4,1.27-5.3,5.85Z" style="fill:#f7f7f7"/><path d="M47.62,148.57a7.13,7.13,0,1,0-7.13-7.13A7.13,7.13,0,0,0,47.62,148.57Z" style="fill:#d8d8d8"/><path d="M47.62,170.13A7.13,7.13,0,1,0,40.49,163,7.13,7.13,0,0,0,47.62,170.13Z" style="fill:#d8d8d8"/><path d="M43.05,141.94l1.26-1.4,2.45,2.22,4-4.45,1.4,1.27-5.3,5.85Z" style="fill:#f7f7f7"/><path d="M43.05,162.94l1.26-1.4,2.45,2.22,4-4.45,1.4,1.27-5.3,5.85Z" style="fill:#f7f7f7"/><g style="opacity:0.2199999988079071"><path d="M90.26,130.06l11.27,22.77H94.38c-1.73-5.83-4.67-15.74-5.47-18.29C87.77,130.87,90.26,130.06,90.26,130.06Z" style="fill:#2f2d4f"/></g><path d="M114.17,160.93l-.55-3.79a2.5,2.5,0,0,1,.38-1.62,7.57,7.57,0,0,0,1.21-4c-.17-2.29-3.69-9.79-3.69-9.79a3.28,3.28,0,0,0-2.83-1.8,32.09,32.09,0,0,0-6.2,1.37,2.57,2.57,0,0,1-1.71-.07,2.52,2.52,0,0,1-1.29-1.14l-5.42-10.4a2.67,2.67,0,0,0-.64-.78,2.56,2.56,0,0,0-.9-.46,2.61,2.61,0,0,0-1-.08,2.48,2.48,0,0,0-1,.32,2.51,2.51,0,0,0-1.08,1.24,2.46,2.46,0,0,0-.06,1.65l5.78,18.31a2.56,2.56,0,0,1,.06,1.23,2.47,2.47,0,0,1-.54,1.1,4.11,4.11,0,0,0-.87,1.5,4,4,0,0,0-.2,1.72c.25,1.81,3.5,3.72,5.18,4.59a2.62,2.62,0,0,1,.81.67,2.75,2.75,0,0,1,.46.94l.61,2.48c.33,1.36,5.3,18.35,6.67,18l12-3.06C120.63,178.7,114.36,162.18,114.17,160.93Z" style="fill:#f9ae83"/><path d="M93.78,132.06l-2.34.71s-1.27-2.13-.16-3.06S93.39,131,93.78,132.06Z" style="fill:#e3e3e6"/><path d="M93.66,155.41a3.88,3.88,0,0,1,.44-2.29c2.83,4.84,10.23,5.24,10.23,5.24l6.5,22.23.2.74-2.21.58a2.36,2.36,0,0,1-1,.06,2.5,2.5,0,0,1-1.68-1,2.58,2.58,0,0,1-.43-.9l-5.61-18.48a2.75,2.75,0,0,0-.46-.94,2.49,2.49,0,0,0-.81-.67C97.16,159.13,93.91,157.22,93.66,155.41Z" style="fill:#f58a69"/></g><path d="M76,61.5h0A63.5,63.5,0,0,1,139.5,125h0A63.5,63.5,0,0,1,76,188.5h0A63.5,63.5,0,0,1,12.5,125h0A63.5,63.5,0,0,1,76,61.5Z" style="fill:none;stroke:#1fb767"/><path d="M181.5,106.51V118H180v-8.18c0-.12,0-.25,0-.39l0-.42-3.83,7a.64.64,0,0,1-.61.4h-.24a.63.63,0,0,1-.61-.4l-3.9-7a6.28,6.28,0,0,1,0,.84V118h-1.49V106.51h1.26a1,1,0,0,1,.34,0,.46.46,0,0,1,.24.24l3.84,6.88a3,3,0,0,1,.21.44l.19.46a7.33,7.33,0,0,1,.39-.91l3.77-6.87a.47.47,0,0,1,.22-.24,1,1,0,0,1,.35,0Zm7.65,6.52a2.57,2.57,0,0,0-.13-.85,2,2,0,0,0-.39-.68,1.63,1.63,0,0,0-.62-.45,2.37,2.37,0,0,0-2.4.41,2.73,2.73,0,0,0-.71,1.57Zm1.29,3.81a3.05,3.05,0,0,1-.66.58,5,5,0,0,1-.8.4,5.41,5.41,0,0,1-1.77.29,4.2,4.2,0,0,1-1.56-.28,3.51,3.51,0,0,1-1.24-.83,3.92,3.92,0,0,1-.82-1.36,5.65,5.65,0,0,1-.29-1.87,4.52,4.52,0,0,1,.27-1.58,3.73,3.73,0,0,1,.75-1.28,3.4,3.4,0,0,1,1.21-.85,3.91,3.91,0,0,1,1.6-.32,3.83,3.83,0,0,1,1.37.25,3,3,0,0,1,1.08.71,3.22,3.22,0,0,1,.72,1.14,4.38,4.38,0,0,1,.26,1.55,1.08,1.08,0,0,1-.08.49.33.33,0,0,1-.3.12h-5.32a4.28,4.28,0,0,0,.2,1.27,2.62,2.62,0,0,0,.51.9,1.94,1.94,0,0,0,.77.53,2.7,2.7,0,0,0,1,.18,3,3,0,0,0,.9-.12,3.78,3.78,0,0,0,.66-.26,4.45,4.45,0,0,0,.46-.26.67.67,0,0,1,.34-.12.36.36,0,0,1,.29.14Zm3.4-10.65V118h-1.57V106.19Zm7.61,6.84a2.57,2.57,0,0,0-.14-.85,1.82,1.82,0,0,0-.38-.68,1.59,1.59,0,0,0-.63-.45,2,2,0,0,0-.84-.16,2.11,2.11,0,0,0-1.56.57,2.73,2.73,0,0,0-.71,1.57Zm1.29,3.81a3.37,3.37,0,0,1-.67.58,4.6,4.6,0,0,1-.8.4,4.93,4.93,0,0,1-.88.22,5.3,5.3,0,0,1-.88.07,4.2,4.2,0,0,1-1.56-.28,3.51,3.51,0,0,1-1.24-.83,3.92,3.92,0,0,1-.82-1.36,5.65,5.65,0,0,1-.29-1.87,4.52,4.52,0,0,1,.27-1.58,3.73,3.73,0,0,1,.75-1.28,3.45,3.45,0,0,1,1.2-.85,4,4,0,0,1,1.61-.32,3.74,3.74,0,0,1,1.36.25,3,3,0,0,1,1.09.71,3.2,3.2,0,0,1,.71,1.14,4.16,4.16,0,0,1,.27,1.55,1.08,1.08,0,0,1-.08.49.35.35,0,0,1-.3.12h-5.33a4.61,4.61,0,0,0,.21,1.27,2.46,2.46,0,0,0,.51.9,1.87,1.87,0,0,0,.77.53,2.66,2.66,0,0,0,1,.18,3,3,0,0,0,.9-.12,3.66,3.66,0,0,0,.65-.26,4.71,4.71,0,0,0,.47-.26.67.67,0,0,1,.33-.12.36.36,0,0,1,.3.14ZM206,111a4.38,4.38,0,0,1,.55-.51,2.63,2.63,0,0,1,.61-.39,2.88,2.88,0,0,1,.69-.26,3.44,3.44,0,0,1,.8-.1,2.89,2.89,0,0,1,1.18.23,2.37,2.37,0,0,1,.86.63,2.9,2.9,0,0,1,.52,1,4.44,4.44,0,0,1,.17,1.25V118h-1.57v-5.18a2,2,0,0,0-.4-1.35,1.49,1.49,0,0,0-1.22-.49,2.35,2.35,0,0,0-1.13.29,3.66,3.66,0,0,0-1,.77v6h-1.56v-8.13h.94a.39.39,0,0,1,.41.31Zm10.34,2.94a2,2,0,0,0,.73-.11,1.46,1.46,0,0,0,.53-.31,1.3,1.3,0,0,0,.32-.5,1.81,1.81,0,0,0,.11-.63,1.48,1.48,0,0,0-.43-1.12,2.09,2.09,0,0,0-2.51,0,1.48,1.48,0,0,0-.43,1.12,1.81,1.81,0,0,0,.11.63,1.34,1.34,0,0,0,.32.49,1.63,1.63,0,0,0,.53.32A2,2,0,0,0,216.34,113.94Zm2.49,4.48a.61.61,0,0,0-.16-.45,1,1,0,0,0-.44-.27,2.62,2.62,0,0,0-.64-.15l-.77-.07-.83,0c-.28,0-.55,0-.81-.08a2.45,2.45,0,0,0-.69.5,1,1,0,0,0-.27.7.91.91,0,0,0,.13.48,1.08,1.08,0,0,0,.41.38,2.13,2.13,0,0,0,.7.26,4.75,4.75,0,0,0,1,.1,4.43,4.43,0,0,0,1-.11,2.23,2.23,0,0,0,.73-.28,1.18,1.18,0,0,0,.46-.42A1,1,0,0,0,218.83,118.42Zm1.58-8.24v.58q0,.28-.36.36l-.87.13a2.21,2.21,0,0,1,.18.53,2.62,2.62,0,0,1,.06.57,2.45,2.45,0,0,1-.23,1.09,2.34,2.34,0,0,1-.64.82,2.8,2.8,0,0,1-1,.53,3.69,3.69,0,0,1-1.23.19,4.28,4.28,0,0,1-1-.12,1.17,1.17,0,0,0-.37.32.56.56,0,0,0-.12.33.46.46,0,0,0,.23.42,2.15,2.15,0,0,0,.62.2,7.3,7.3,0,0,0,.87.07c.33,0,.67,0,1,.06a8,8,0,0,1,1,.12,2.79,2.79,0,0,1,.87.3,1.53,1.53,0,0,1,.62.56,1.59,1.59,0,0,1,.24.92,2.21,2.21,0,0,1-.26,1,2.6,2.6,0,0,1-.75.88,3.94,3.94,0,0,1-1.21.62,5.42,5.42,0,0,1-1.62.23,6.71,6.71,0,0,1-1.58-.17,3.79,3.79,0,0,1-1.11-.48,2,2,0,0,1-.66-.68,1.63,1.63,0,0,1-.22-.82,1.45,1.45,0,0,1,.37-1,2.49,2.49,0,0,1,1-.65,1.38,1.38,0,0,1-.56-.43,1.2,1.2,0,0,1-.21-.74,1.23,1.23,0,0,1,.06-.36,1.68,1.68,0,0,1,.2-.37,1.53,1.53,0,0,1,.32-.36,4.1,4.1,0,0,1,.46-.31,2.6,2.6,0,0,1-1-.88,2.55,2.55,0,0,1-.34-1.31,2.52,2.52,0,0,1,.23-1.08,2.56,2.56,0,0,1,.64-.82,2.94,2.94,0,0,1,1-.53,4.15,4.15,0,0,1,1.25-.18,3.51,3.51,0,0,1,1.82.44Zm3-4v6.91h.36a.7.7,0,0,0,.28,0,.67.67,0,0,0,.24-.19l2.43-2.68A.68.68,0,0,1,227,110a.68.68,0,0,1,.34-.08h1.42L225.86,113a2,2,0,0,1-.49.45,1.48,1.48,0,0,1,.26.24,2.37,2.37,0,0,1,.23.3l3.06,4h-1.4a.9.9,0,0,1-.34-.06.7.7,0,0,1-.25-.24l-2.51-3.26a.57.57,0,0,0-.24-.23.84.84,0,0,0-.36-.06h-.41V118h-1.56V106.19Zm11,8.2a11.21,11.21,0,0,0-1.62.15,4.54,4.54,0,0,0-1.08.31,1.55,1.55,0,0,0-.6.45,1,1,0,0,0-.18.58,1.44,1.44,0,0,0,.09.53,1.09,1.09,0,0,0,.28.36,1.08,1.08,0,0,0,.4.2,2.1,2.1,0,0,0,.51.06,2.59,2.59,0,0,0,.65-.07,2.39,2.39,0,0,0,.57-.2,2.78,2.78,0,0,0,.51-.33,4.73,4.73,0,0,0,.47-.44ZM229.87,111a4.43,4.43,0,0,1,3.23-1.29,3.17,3.17,0,0,1,1.23.23,2.44,2.44,0,0,1,.9.63,2.62,2.62,0,0,1,.55,1,3.87,3.87,0,0,1,.2,1.26V118h-.7a.68.68,0,0,1-.35-.07.49.49,0,0,1-.19-.29l-.17-.71c-.21.19-.42.36-.62.51a4.5,4.5,0,0,1-.64.38,3.19,3.19,0,0,1-.7.23,4.25,4.25,0,0,1-.83.08,3.33,3.33,0,0,1-.91-.13,2.19,2.19,0,0,1-.73-.41,2,2,0,0,1-.49-.68,2.33,2.33,0,0,1-.18-1,1.81,1.81,0,0,1,.26-.92,2.28,2.28,0,0,1,.85-.8,5.26,5.26,0,0,1,1.53-.58,11.56,11.56,0,0,1,2.34-.25v-.59a2.07,2.07,0,0,0-.39-1.38,1.48,1.48,0,0,0-1.16-.46,2.64,2.64,0,0,0-.86.13,3.36,3.36,0,0,0-.6.29l-.44.28a.7.7,0,0,1-.38.13.45.45,0,0,1-.28-.09.76.76,0,0,1-.19-.21Zm9.75,5a2.13,2.13,0,0,0,.83.7,2.32,2.32,0,0,0,1,.2,2,2,0,0,0,1.65-.76,3.65,3.65,0,0,0,.6-2.26,5.5,5.5,0,0,0-.14-1.32,2.33,2.33,0,0,0-.38-.9,1.52,1.52,0,0,0-.62-.51,2,2,0,0,0-.83-.17,2.2,2.2,0,0,0-1.19.31,3.51,3.51,0,0,0-.92.86Zm-.08-4.91a4.76,4.76,0,0,1,.55-.55,3.26,3.26,0,0,1,.63-.44,3.62,3.62,0,0,1,.71-.28,3.12,3.12,0,0,1,.82-.1,2.91,2.91,0,0,1,1.26.27,2.63,2.63,0,0,1,1,.8,3.71,3.71,0,0,1,.62,1.31,6.37,6.37,0,0,1,.22,1.78,5.69,5.69,0,0,1-.24,1.68,4.37,4.37,0,0,1-.7,1.34,3.22,3.22,0,0,1-1.11.89,3.27,3.27,0,0,1-1.46.32,3,3,0,0,1-1.25-.24,3.14,3.14,0,0,1-.93-.67v3.53h-1.55V109.87H239a.39.39,0,0,1,.41.31Zm9.16-1.22V118h-1.56v-8.13Zm.29-2.51a1.06,1.06,0,0,1-.09.42,1,1,0,0,1-.24.34,1,1,0,0,1-.34.23,1.16,1.16,0,0,1-.42.08,1.06,1.06,0,0,1-.4-.08,1.18,1.18,0,0,1-.35-.23,1.56,1.56,0,0,1-.23-.34,1.25,1.25,0,0,1-.08-.42,1.16,1.16,0,0,1,.08-.42,1.36,1.36,0,0,1,.23-.34,1,1,0,0,1,.35-.23.9.9,0,0,1,.4-.09,1,1,0,0,1,.42.09.89.89,0,0,1,.34.23.88.88,0,0,1,.24.34A1,1,0,0,1,249,107.36Zm11.25,4.48a2.07,2.07,0,0,0-.83-.7,2.25,2.25,0,0,0-1-.2,2,2,0,0,0-1.67.77,3.66,3.66,0,0,0-.58,2.25,5.7,5.7,0,0,0,.13,1.33,2.71,2.71,0,0,0,.38.89,1.66,1.66,0,0,0,.63.52,2.15,2.15,0,0,0,.83.16,2.22,2.22,0,0,0,1.17-.31,3.67,3.67,0,0,0,.93-.85Zm1.57-5.65V118h-.94a.38.38,0,0,1-.41-.31l-.14-.94a4.27,4.27,0,0,1-1.18,1,3,3,0,0,1-1.52.37,2.92,2.92,0,0,1-1.27-.27,2.79,2.79,0,0,1-1-.79,3.88,3.88,0,0,1-.61-1.31,6.37,6.37,0,0,1-.22-1.78,5.69,5.69,0,0,1,.24-1.68,3.89,3.89,0,0,1,.7-1.34,3.21,3.21,0,0,1,2.57-1.22,2.89,2.89,0,0,1,1.24.24,2.94,2.94,0,0,1,.93.68v-4.45Zm6.55,8.2a11.21,11.21,0,0,0-1.62.15,4.54,4.54,0,0,0-1.08.31,1.47,1.47,0,0,0-.6.45,1,1,0,0,0-.18.58,1.44,1.44,0,0,0,.09.53,1,1,0,0,0,.68.56,2,2,0,0,0,.5.06,2.74,2.74,0,0,0,1.23-.27,3.08,3.08,0,0,0,.5-.33,4.79,4.79,0,0,0,.48-.44ZM263.78,111a4.58,4.58,0,0,1,1.47-1,4.74,4.74,0,0,1,1.75-.32,3.1,3.1,0,0,1,1.23.23,2.56,2.56,0,0,1,.91.63,2.77,2.77,0,0,1,.55,1,3.87,3.87,0,0,1,.19,1.26V118h-.69a.72.72,0,0,1-.36-.07.61.61,0,0,1-.19-.29l-.16-.71c-.21.19-.42.36-.62.51a5.14,5.14,0,0,1-.64.38,3.19,3.19,0,0,1-.7.23,4.36,4.36,0,0,1-.84.08,3.26,3.26,0,0,1-.9-.13,2.09,2.09,0,0,1-.73-.41,2,2,0,0,1-.5-.68,2.52,2.52,0,0,1-.17-1,1.71,1.71,0,0,1,.26-.92,2.24,2.24,0,0,1,.84-.8,5.45,5.45,0,0,1,1.54-.58,11.39,11.39,0,0,1,2.34-.25v-.59a2.07,2.07,0,0,0-.4-1.38,1.44,1.44,0,0,0-1.15-.46,2.64,2.64,0,0,0-.86.13,3.36,3.36,0,0,0-.6.29l-.44.28a.73.73,0,0,1-.39.13.47.47,0,0,1-.28-.09.91.91,0,0,1-.18-.21Zm10.63,7.12a2,2,0,0,1-1.52-.55,2.17,2.17,0,0,1-.53-1.58v-4.86h-.95a.38.38,0,0,1-.23-.08.36.36,0,0,1-.09-.26v-.63l1.32-.19.36-2.42a.35.35,0,0,1,.36-.29h.79V110h2.3v1.14h-2.3v4.76a1,1,0,0,0,.23.72.85.85,0,0,0,.61.23,1.06,1.06,0,0,0,.37-.06l.27-.12.19-.13a.3.3,0,0,1,.14-.05c.06,0,.1,0,.12,0a.27.27,0,0,1,.1.11l.46.75a2.61,2.61,0,0,1-.91.55A3.38,3.38,0,0,1,274.41,118.13Zm7.62-3.74a11.21,11.21,0,0,0-1.62.15,4.54,4.54,0,0,0-1.08.31,1.47,1.47,0,0,0-.6.45,1,1,0,0,0-.18.58,1.44,1.44,0,0,0,.09.53,1,1,0,0,0,.68.56,2,2,0,0,0,.51.06,2.59,2.59,0,0,0,.65-.07,2.56,2.56,0,0,0,.57-.2,2.7,2.7,0,0,0,.5-.33A4.79,4.79,0,0,0,282,116ZM277.45,111a4.58,4.58,0,0,1,1.47-1,4.78,4.78,0,0,1,1.75-.32,3.19,3.19,0,0,1,1.24.23,2.52,2.52,0,0,1,.9.63,2.62,2.62,0,0,1,.55,1,3.87,3.87,0,0,1,.19,1.26V118h-.69a.66.66,0,0,1-.35-.07.49.49,0,0,1-.19-.29l-.17-.71c-.21.19-.42.36-.62.51a5.14,5.14,0,0,1-.64.38,3.19,3.19,0,0,1-.7.23,4.25,4.25,0,0,1-.83.08,3.33,3.33,0,0,1-.91-.13,2.09,2.09,0,0,1-.73-.41,2,2,0,0,1-.49-.68,2.33,2.33,0,0,1-.18-1,1.81,1.81,0,0,1,.26-.92,2.32,2.32,0,0,1,.84-.8,5.45,5.45,0,0,1,1.54-.58,11.47,11.47,0,0,1,2.34-.25v-.59a2.07,2.07,0,0,0-.39-1.38,1.48,1.48,0,0,0-1.16-.46,2.64,2.64,0,0,0-.86.13,3.36,3.36,0,0,0-.6.29l-.44.28a.7.7,0,0,1-.38.13.43.43,0,0,1-.28-.09.76.76,0,0,1-.19-.21ZM171.12,137.48h.56a1.37,1.37,0,0,0,.49-.07.87.87,0,0,0,.34-.27l3.66-4.24a.89.89,0,0,1,.36-.3,1,1,0,0,1,.45-.09h1.46l-4.26,4.9a1.44,1.44,0,0,1-.32.33,1.4,1.4,0,0,1-.32.22,1.56,1.56,0,0,1,.77.62l4.43,5.42h-1.48l-.28,0-.2-.07a.91.91,0,0,1-.16-.11,1,1,0,0,1-.12-.15l-3.78-4.48a1.45,1.45,0,0,0-.16-.18.54.54,0,0,0-.18-.11.84.84,0,0,0-.24-.06,1.58,1.58,0,0,0-.32,0h-.7V144h-1.7V132.51h1.7ZM184.57,139a2.57,2.57,0,0,0-.13-.85,1.89,1.89,0,0,0-.39-.68,1.55,1.55,0,0,0-.62-.45,2.37,2.37,0,0,0-2.4.41,2.76,2.76,0,0,0-.71,1.57Zm1.29,3.81a3.05,3.05,0,0,1-.66.58,4.6,4.6,0,0,1-.8.4,5.15,5.15,0,0,1-.88.22,5.42,5.42,0,0,1-.89.07,4.2,4.2,0,0,1-1.56-.28,3.61,3.61,0,0,1-1.24-.83,3.92,3.92,0,0,1-.82-1.36,5.66,5.66,0,0,1-.28-1.87,4.52,4.52,0,0,1,.26-1.58,4,4,0,0,1,.75-1.28,3.49,3.49,0,0,1,1.21-.85,3.91,3.91,0,0,1,1.6-.32,3.79,3.79,0,0,1,1.37.25,3.07,3.07,0,0,1,1.09.71,3.29,3.29,0,0,1,.71,1.14,4.38,4.38,0,0,1,.26,1.55,1,1,0,0,1-.08.49.32.32,0,0,1-.29.12h-5.33a4,4,0,0,0,.21,1.27,2.6,2.6,0,0,0,.5.9,2,2,0,0,0,.78.53,2.62,2.62,0,0,0,1,.18,3,3,0,0,0,.89-.12,3.49,3.49,0,0,0,.66-.26,4.45,4.45,0,0,0,.46-.26.67.67,0,0,1,.34-.12.34.34,0,0,1,.29.14Zm3.36-.84a2.18,2.18,0,0,0,.82.7,2.35,2.35,0,0,0,1,.2,2,2,0,0,0,1.66-.76,3.71,3.71,0,0,0,.59-2.26,5.5,5.5,0,0,0-.14-1.32,2.33,2.33,0,0,0-.38-.9,1.52,1.52,0,0,0-.62-.51,2,2,0,0,0-.83-.17,2.28,2.28,0,0,0-1.18.31,3.36,3.36,0,0,0-.92.86Zm-.08-4.91a4,4,0,0,1,.54-.55,3.47,3.47,0,0,1,.64-.44,3.39,3.39,0,0,1,.71-.28,3.45,3.45,0,0,1,.81-.1,2.84,2.84,0,0,1,1.26.27,2.66,2.66,0,0,1,1,.8,3.88,3.88,0,0,1,.61,1.31,6.35,6.35,0,0,1,.23,1.78,5.68,5.68,0,0,1-.25,1.68,4,4,0,0,1-.7,1.34,3.3,3.3,0,0,1-1.1.89,3.16,3.16,0,0,1-1.46.32,2.81,2.81,0,0,1-2.18-.91v3.53h-1.56V135.87h.94a.38.38,0,0,1,.4.31Zm11.89,3.3a11.21,11.21,0,0,0-1.62.15,4.54,4.54,0,0,0-1.08.31,1.47,1.47,0,0,0-.6.45,1,1,0,0,0-.18.58,1.44,1.44,0,0,0,.09.53,1,1,0,0,0,.68.56,2.1,2.1,0,0,0,.51.06,2.59,2.59,0,0,0,.65-.07,2.56,2.56,0,0,0,.57-.2,2.41,2.41,0,0,0,.5-.33A4.79,4.79,0,0,0,201,142ZM196.45,137a4.69,4.69,0,0,1,1.47-1,4.78,4.78,0,0,1,1.75-.32,3.19,3.19,0,0,1,1.24.23,2.52,2.52,0,0,1,.9.63,2.62,2.62,0,0,1,.55,1,3.87,3.87,0,0,1,.19,1.26V144h-.69a.66.66,0,0,1-.35-.07.49.49,0,0,1-.19-.29l-.17-.71c-.21.19-.42.36-.62.51a4.5,4.5,0,0,1-.64.38,3.83,3.83,0,0,1-.7.23,4.28,4.28,0,0,1-.84.08,3,3,0,0,1-.9-.13,2.09,2.09,0,0,1-.73-.41,1.89,1.89,0,0,1-.49-.68,2.33,2.33,0,0,1-.18-.95,1.81,1.81,0,0,1,.26-.92,2.32,2.32,0,0,1,.84-.8,5.78,5.78,0,0,1,1.54-.58,11.39,11.39,0,0,1,2.34-.25v-.59a2,2,0,0,0-.4-1.38,1.44,1.44,0,0,0-1.15-.46,2.64,2.64,0,0,0-.86.13,3.36,3.36,0,0,0-.6.29l-.44.28a.7.7,0,0,1-.38.13.48.48,0,0,1-.29-.09.91.91,0,0,1-.18-.21Zm9.79-4.82V144h-1.56V132.19Zm6.6,8.2a11.35,11.35,0,0,0-1.62.15,4.54,4.54,0,0,0-1.08.31,1.63,1.63,0,0,0-.6.45,1,1,0,0,0-.18.58,1.25,1.25,0,0,0,.1.53,1,1,0,0,0,.67.56,2.1,2.1,0,0,0,.51.06,2.59,2.59,0,0,0,.65-.07,2.39,2.39,0,0,0,.57-.2,2.78,2.78,0,0,0,.51-.33,4.73,4.73,0,0,0,.47-.44ZM208.26,137a4.47,4.47,0,0,1,3.23-1.29,3.17,3.17,0,0,1,1.23.23,2.44,2.44,0,0,1,.9.63,2.79,2.79,0,0,1,.56,1,4.16,4.16,0,0,1,.19,1.26V144h-.7a.68.68,0,0,1-.35-.07.54.54,0,0,1-.19-.29l-.17-.71a7,7,0,0,1-.62.51,4.5,4.5,0,0,1-.64.38,3.83,3.83,0,0,1-.7.23,4.25,4.25,0,0,1-.83.08,3,3,0,0,1-.91-.13,2,2,0,0,1-.72-.41,1.91,1.91,0,0,1-.5-.68,2.33,2.33,0,0,1-.18-.95,1.81,1.81,0,0,1,.26-.92,2.36,2.36,0,0,1,.85-.8,5.57,5.57,0,0,1,1.53-.58,11.56,11.56,0,0,1,2.34-.25v-.59a2.07,2.07,0,0,0-.39-1.38,1.46,1.46,0,0,0-1.16-.46,2.68,2.68,0,0,0-.86.13,3.36,3.36,0,0,0-.6.29l-.44.28a.7.7,0,0,1-.38.13.45.45,0,0,1-.28-.09.76.76,0,0,1-.19-.21Zm22.59,1.25a6.25,6.25,0,0,1-.42,2.34,5.3,5.3,0,0,1-1.16,1.82,5.12,5.12,0,0,1-1.8,1.16,6.2,6.2,0,0,1-2.33.42h-4.32V132.51h4.32a6.2,6.2,0,0,1,2.33.42,5.29,5.29,0,0,1,1.8,1.17,5.12,5.12,0,0,1,1.16,1.82A6.25,6.25,0,0,1,230.85,138.26Zm-1.75,0a5.51,5.51,0,0,0-.28-1.84,3.65,3.65,0,0,0-.8-1.37,3.36,3.36,0,0,0-1.25-.87,4.42,4.42,0,0,0-1.63-.29h-2.61v8.73h2.61a4.42,4.42,0,0,0,1.63-.29,3.33,3.33,0,0,0,1.25-.86,3.81,3.81,0,0,0,.8-1.37A5.56,5.56,0,0,0,229.1,138.26ZM238,139a2.57,2.57,0,0,0-.14-.85,1.74,1.74,0,0,0-.38-.68,1.59,1.59,0,0,0-.63-.45,2,2,0,0,0-.84-.16,2.11,2.11,0,0,0-1.56.57,2.76,2.76,0,0,0-.71,1.57Zm1.29,3.81a3.37,3.37,0,0,1-.67.58,4.6,4.6,0,0,1-.8.4,4.93,4.93,0,0,1-.88.22,5.3,5.3,0,0,1-.88.07,4.2,4.2,0,0,1-1.56-.28,3.51,3.51,0,0,1-1.24-.83,3.92,3.92,0,0,1-.82-1.36,5.65,5.65,0,0,1-.29-1.87,4.52,4.52,0,0,1,.27-1.58,3.64,3.64,0,0,1,.75-1.28,3.45,3.45,0,0,1,1.2-.85,4,4,0,0,1,1.61-.32,3.74,3.74,0,0,1,1.36.25,3,3,0,0,1,1.09.71,3.29,3.29,0,0,1,.71,1.14,4.16,4.16,0,0,1,.27,1.55,1.08,1.08,0,0,1-.08.49.35.35,0,0,1-.3.12h-5.33a4.61,4.61,0,0,0,.21,1.27,2.46,2.46,0,0,0,.51.9,1.87,1.87,0,0,0,.77.53,2.66,2.66,0,0,0,1,.18,3,3,0,0,0,.9-.12,3.66,3.66,0,0,0,.65-.26,4.71,4.71,0,0,0,.47-.26.67.67,0,0,1,.33-.12.36.36,0,0,1,.3.14Zm6.59-5.57a.51.51,0,0,1-.14.15.34.34,0,0,1-.18,0,.67.67,0,0,1-.29-.08l-.38-.2a4.69,4.69,0,0,0-.51-.19,2.43,2.43,0,0,0-.7-.09,2,2,0,0,0-.62.09,1.24,1.24,0,0,0-.46.23,1,1,0,0,0-.3.36.88.88,0,0,0-.1.43.71.71,0,0,0,.17.5,1.56,1.56,0,0,0,.47.35,6.27,6.27,0,0,0,.67.26l.76.24a7.05,7.05,0,0,1,.76.3,2.42,2.42,0,0,1,.66.4,1.81,1.81,0,0,1,.66,1.43,2.59,2.59,0,0,1-.21,1,2.24,2.24,0,0,1-.6.84,3,3,0,0,1-1,.55,4.18,4.18,0,0,1-1.33.2,4.2,4.2,0,0,1-2.75-1l.37-.6a.38.38,0,0,1,.16-.17.42.42,0,0,1,.26-.07.53.53,0,0,1,.31.12l.38.24a2.57,2.57,0,0,0,1.35.35,2,2,0,0,0,.69-.1,1.52,1.52,0,0,0,.49-.27,1.09,1.09,0,0,0,.39-.87.77.77,0,0,0-.18-.53,1.49,1.49,0,0,0-.47-.37,3.47,3.47,0,0,0-.67-.26l-.76-.24c-.27-.09-.52-.19-.77-.3a2.53,2.53,0,0,1-.67-.42,2,2,0,0,1-.48-.63,2.14,2.14,0,0,1-.17-.89,2.18,2.18,0,0,1,.19-.91,2.3,2.3,0,0,1,.57-.76,2.83,2.83,0,0,1,.92-.52,3.72,3.72,0,0,1,1.25-.2,4,4,0,0,1,1.46.26,3.28,3.28,0,0,1,1.12.7Zm6.52,3.12a11.2,11.2,0,0,0-1.61.15,4.54,4.54,0,0,0-1.08.31,1.47,1.47,0,0,0-.6.45,1,1,0,0,0-.18.58,1.44,1.44,0,0,0,.09.53,1,1,0,0,0,.68.56,2,2,0,0,0,.5.06,2.67,2.67,0,0,0,.66-.07,2.75,2.75,0,0,0,.57-.2,3.08,3.08,0,0,0,.5-.33,3.84,3.84,0,0,0,.47-.44ZM247.78,137a4.58,4.58,0,0,1,1.47-1,4.74,4.74,0,0,1,1.75-.32,3.19,3.19,0,0,1,1.24.23,2.61,2.61,0,0,1,.9.63,2.77,2.77,0,0,1,.55,1,3.87,3.87,0,0,1,.19,1.26V144h-.69a.63.63,0,0,1-.35-.07.55.55,0,0,1-.2-.29l-.16-.71c-.21.19-.42.36-.62.51a5.14,5.14,0,0,1-.64.38,3.93,3.93,0,0,1-.71.23,4.17,4.17,0,0,1-.83.08,2.92,2.92,0,0,1-.9-.13,2.09,2.09,0,0,1-.73-.41,2,2,0,0,1-.5-.68,2.52,2.52,0,0,1-.17-.95,1.79,1.79,0,0,1,.25-.92,2.44,2.44,0,0,1,.85-.8,5.78,5.78,0,0,1,1.54-.58,11.37,11.37,0,0,1,2.33-.25v-.59a2.07,2.07,0,0,0-.39-1.38,1.44,1.44,0,0,0-1.15-.46,2.64,2.64,0,0,0-.86.13,3.36,3.36,0,0,0-.6.29l-.44.28a.73.73,0,0,1-.39.13.47.47,0,0,1-.28-.09.91.91,0,0,1-.18-.21Z" style="fill:#022b55"/><path d="M379.93,380.51V392h-1.49v-8.18c0-.12,0-.25,0-.39l0-.42-3.83,7a.63.63,0,0,1-.61.4h-.24a.63.63,0,0,1-.61-.4l-3.9-7a6.28,6.28,0,0,1,0,.84V392h-1.49V380.51h1.26a1,1,0,0,1,.34.05.46.46,0,0,1,.24.24l3.84,6.88a3,3,0,0,1,.21.44c.07.15.13.31.19.46a7.33,7.33,0,0,1,.39-.91l3.77-6.87a.44.44,0,0,1,.22-.24,1,1,0,0,1,.35-.05Zm7.65,6.52a2.57,2.57,0,0,0-.13-.85,2,2,0,0,0-.39-.68,1.63,1.63,0,0,0-.62-.45,2.37,2.37,0,0,0-2.4.41,2.67,2.67,0,0,0-.71,1.57Zm1.29,3.81a3.05,3.05,0,0,1-.66.58,5,5,0,0,1-.8.4,5.41,5.41,0,0,1-1.77.29,4.2,4.2,0,0,1-1.56-.28,3.51,3.51,0,0,1-1.24-.83,3.92,3.92,0,0,1-.82-1.36,5.65,5.65,0,0,1-.29-1.87,4.52,4.52,0,0,1,.27-1.58,3.64,3.64,0,0,1,.75-1.28,3.4,3.4,0,0,1,1.21-.85,3.91,3.91,0,0,1,1.6-.32,3.83,3.83,0,0,1,1.37.25,3,3,0,0,1,1.08.71,3.31,3.31,0,0,1,.72,1.14,4.38,4.38,0,0,1,.26,1.55,1.05,1.05,0,0,1-.08.49.33.33,0,0,1-.3.12h-5.32a4.34,4.34,0,0,0,.2,1.27,2.62,2.62,0,0,0,.51.9,2,2,0,0,0,.77.53,2.7,2.7,0,0,0,1,.18,3,3,0,0,0,.9-.12,3.78,3.78,0,0,0,.66-.26,4.45,4.45,0,0,0,.46-.26.67.67,0,0,1,.34-.12.36.36,0,0,1,.29.14Zm3.26-5.84a5.2,5.2,0,0,1,.55-.51,2.86,2.86,0,0,1,.61-.39,2.8,2.8,0,0,1,.7-.26,3.37,3.37,0,0,1,.8-.1A2.84,2.84,0,0,1,396,384a2.37,2.37,0,0,1,.86.63,2.74,2.74,0,0,1,.52,1,4.11,4.11,0,0,1,.17,1.25V392H396v-5.18a2.09,2.09,0,0,0-.4-1.35,1.52,1.52,0,0,0-1.23-.49,2.38,2.38,0,0,0-1.13.29,3.62,3.62,0,0,0-1,.77v6h-1.56v-8.13h.93a.39.39,0,0,1,.41.31Zm10.35,2.94a2,2,0,0,0,.72-.11,1.38,1.38,0,0,0,.53-.31,1.2,1.2,0,0,0,.32-.5,1.61,1.61,0,0,0,.11-.63,1.48,1.48,0,0,0-.43-1.12,1.7,1.7,0,0,0-1.25-.42,1.74,1.74,0,0,0-1.26.42,1.51,1.51,0,0,0-.42,1.12,1.81,1.81,0,0,0,.1.63,1.34,1.34,0,0,0,.32.49,1.63,1.63,0,0,0,.53.32A2,2,0,0,0,402.48,387.94Zm2.48,4.48a.61.61,0,0,0-.16-.45.92.92,0,0,0-.44-.27,2.62,2.62,0,0,0-.64-.15l-.77-.07-.83,0c-.28,0-.55,0-.81-.08a2.45,2.45,0,0,0-.69.5,1.05,1.05,0,0,0-.14,1.18,1.08,1.08,0,0,0,.41.38,2.13,2.13,0,0,0,.7.26,4.85,4.85,0,0,0,1,.1,4.34,4.34,0,0,0,1-.11,2.16,2.16,0,0,0,.74-.28,1.31,1.31,0,0,0,.45-.42A1,1,0,0,0,405,392.42Zm1.59-8.24v.58q0,.28-.36.36l-.87.13a2.74,2.74,0,0,1,.17.53,2.62,2.62,0,0,1,.06.57,2.45,2.45,0,0,1-.23,1.09,2.34,2.34,0,0,1-.64.82,2.75,2.75,0,0,1-1,.53,3.78,3.78,0,0,1-1.23.19,4.3,4.3,0,0,1-1-.12,1,1,0,0,0-.36.32.51.51,0,0,0-.13.33.45.45,0,0,0,.24.42,2.08,2.08,0,0,0,.61.2,7.3,7.3,0,0,0,.87.07c.34,0,.67,0,1,.06a7.82,7.82,0,0,1,1,.12,2.76,2.76,0,0,1,.88.3,1.57,1.57,0,0,1,.61.56,1.61,1.61,0,0,1,.24.92,2.09,2.09,0,0,1-.26,1,2.51,2.51,0,0,1-.75.88,4.05,4.05,0,0,1-1.21.62,5.37,5.37,0,0,1-1.62.23,6.56,6.56,0,0,1-1.57-.17,3.68,3.68,0,0,1-1.11-.48,2,2,0,0,1-.67-.68,1.74,1.74,0,0,1-.22-.82,1.45,1.45,0,0,1,.37-1,2.49,2.49,0,0,1,1-.65,1.36,1.36,0,0,1-.56-.43,1.2,1.2,0,0,1-.21-.74,1.23,1.23,0,0,1,.06-.36,1.68,1.68,0,0,1,.2-.37,1.86,1.86,0,0,1,.33-.36,3.22,3.22,0,0,1,.45-.31,2.57,2.57,0,0,1-.94-.88,2.47,2.47,0,0,1-.35-1.31,2.47,2.47,0,0,1,.87-1.9,2.94,2.94,0,0,1,1-.53,4.17,4.17,0,0,1,1.26-.18,3.47,3.47,0,0,1,1.81.44Zm3.06-.31V392h-1.56v-8.13Zm.3-2.51a1.06,1.06,0,0,1-.09.42,1.31,1.31,0,0,1-.24.34,1.07,1.07,0,0,1-.35.23,1.15,1.15,0,0,1-.41.08,1.11,1.11,0,0,1-.41-.08,1.13,1.13,0,0,1-.34-.23,1.31,1.31,0,0,1-.24-.34,1.23,1.23,0,0,1-.07-.42.94.94,0,0,1,.31-.76,1,1,0,0,1,.34-.23,1,1,0,0,1,.41-.09,1,1,0,0,1,.41.09.93.93,0,0,1,.35.23,1.16,1.16,0,0,1,.24.34A1,1,0,0,1,409.91,381.36Zm6.75,3.91a.41.41,0,0,1-.14.15.3.3,0,0,1-.18,0,.75.75,0,0,1-.29-.08,3.91,3.91,0,0,0-.37-.2,4.23,4.23,0,0,0-.51-.19,2.5,2.5,0,0,0-.71-.09,2,2,0,0,0-.61.09,1.47,1.47,0,0,0-.47.23,1,1,0,0,0-.3.36,1,1,0,0,0-.1.43.71.71,0,0,0,.18.5,1.75,1.75,0,0,0,.47.35,7,7,0,0,0,.66.26c.25.08.51.15.76.24a5.72,5.72,0,0,1,.76.3,2.48,2.48,0,0,1,.67.4,2,2,0,0,1,.47.59,1.8,1.8,0,0,1,.18.84,2.59,2.59,0,0,1-.21,1.05,2.33,2.33,0,0,1-.59.84,2.91,2.91,0,0,1-1,.55,4.2,4.2,0,0,1-1.34.2,4.14,4.14,0,0,1-2.74-1l.37-.6a.33.33,0,0,1,.16-.17.46.46,0,0,1,.25-.07.51.51,0,0,1,.31.12l.39.24a2.73,2.73,0,0,0,.54.24,2.62,2.62,0,0,0,.8.11,2.11,2.11,0,0,0,.7-.1,1.52,1.52,0,0,0,.49-.27,1.18,1.18,0,0,0,.39-.87.73.73,0,0,0-.19-.53,1.38,1.38,0,0,0-.47-.37,3.36,3.36,0,0,0-.66-.26l-.77-.24c-.26-.09-.52-.19-.77-.3a2.71,2.71,0,0,1-.67-.42,1.93,1.93,0,0,1-.65-1.52,2.35,2.35,0,0,1,.19-.91,2.61,2.61,0,0,1,.57-.76,2.83,2.83,0,0,1,.92-.52,3.78,3.78,0,0,1,1.26-.2,4,4,0,0,1,1.46.26,3.38,3.38,0,0,1,1.12.7Zm3.79-1.4V392h-1.56v-8.13Zm.3-2.51a1.06,1.06,0,0,1-.09.42,1.31,1.31,0,0,1-.24.34,1,1,0,0,1-.34.23,1.16,1.16,0,0,1-.42.08,1.06,1.06,0,0,1-.4-.08,1.18,1.18,0,0,1-.35-.23,1.56,1.56,0,0,1-.23-.34,1,1,0,0,1-.08-.42,1,1,0,0,1,.08-.42,1.36,1.36,0,0,1,.23-.34,1,1,0,0,1,.35-.23.9.9,0,0,1,.4-.09,1,1,0,0,1,.42.09.89.89,0,0,1,.34.23,1.16,1.16,0,0,1,.24.34A1,1,0,0,1,420.75,381.36Zm7.57-1.17v6.91h.37a.78.78,0,0,0,.28-.05.74.74,0,0,0,.23-.19l2.43-2.68a.89.89,0,0,1,.25-.23.68.68,0,0,1,.34-.08h1.43L430.78,387a2.08,2.08,0,0,1-.5.45,1.2,1.2,0,0,1,.26.24l.24.3,3.05,4h-1.4a.81.81,0,0,1-.33-.06.63.63,0,0,1-.25-.24l-2.51-3.26a.57.57,0,0,0-.24-.23.84.84,0,0,0-.36-.06h-.42V392h-1.56V380.19Zm13.43,3.68V392h-.93a.41.41,0,0,1-.42-.31l-.11-.82a5.2,5.2,0,0,1-.55.51,3.12,3.12,0,0,1-.62.4,3.35,3.35,0,0,1-.69.25,3.18,3.18,0,0,1-2-.13,2.2,2.2,0,0,1-.85-.62,2.78,2.78,0,0,1-.52-1,4.11,4.11,0,0,1-.17-1.25v-5.18h1.56v5.18a2.14,2.14,0,0,0,.4,1.36,1.52,1.52,0,0,0,1.23.48,2.3,2.3,0,0,0,1.12-.28,3.75,3.75,0,0,0,1-.79v-5.95Zm7.57,3.16a2.57,2.57,0,0,0-.14-.85,1.82,1.82,0,0,0-.38-.68,1.66,1.66,0,0,0-.63-.45,2,2,0,0,0-.85-.16,2.1,2.1,0,0,0-1.55.57,2.73,2.73,0,0,0-.71,1.57Zm1.28,3.81a3.05,3.05,0,0,1-.66.58,4.6,4.6,0,0,1-.8.4,5.15,5.15,0,0,1-.88.22,5.34,5.34,0,0,1-.89.07,4.2,4.2,0,0,1-1.56-.28,3.61,3.61,0,0,1-1.24-.83,3.91,3.91,0,0,1-.81-1.36,5.4,5.4,0,0,1-.29-1.87,4.76,4.76,0,0,1,.26-1.58,4,4,0,0,1,.75-1.28,3.58,3.58,0,0,1,1.21-.85,3.94,3.94,0,0,1,1.6-.32,3.79,3.79,0,0,1,1.37.25,3.07,3.07,0,0,1,1.09.71,3.29,3.29,0,0,1,.71,1.14,4.17,4.17,0,0,1,.26,1.55.94.94,0,0,1-.08.49.32.32,0,0,1-.29.12H445a4.68,4.68,0,0,0,.21,1.27,2.6,2.6,0,0,0,.5.9,2,2,0,0,0,.78.53,2.66,2.66,0,0,0,1,.18,2.9,2.9,0,0,0,.89-.12,3.49,3.49,0,0,0,.66-.26,3.59,3.59,0,0,0,.46-.26.67.67,0,0,1,.34-.12.36.36,0,0,1,.3.14Zm6.59-5.57a.39.39,0,0,1-.13.15.36.36,0,0,1-.19,0,.75.75,0,0,1-.29-.08,3.91,3.91,0,0,0-.37-.2,3.67,3.67,0,0,0-.51-.19,2.45,2.45,0,0,0-.71-.09,2,2,0,0,0-.61.09,1.58,1.58,0,0,0-.47.23,1.12,1.12,0,0,0-.29.36.89.89,0,0,0-.11.43.71.71,0,0,0,.18.5,1.75,1.75,0,0,0,.47.35,6.27,6.27,0,0,0,.67.26c.25.08.5.15.75.24a6.47,6.47,0,0,1,.77.3,2.42,2.42,0,0,1,.66.4,1.81,1.81,0,0,1,.66,1.43,2.59,2.59,0,0,1-.21,1.05,2.49,2.49,0,0,1-.6.84,2.81,2.81,0,0,1-1,.55,4.25,4.25,0,0,1-4.08-.79l.37-.6a.38.38,0,0,1,.16-.17.46.46,0,0,1,.25-.07.53.53,0,0,1,.32.12l.38.24a2.59,2.59,0,0,0,.55.24,2.5,2.5,0,0,0,.79.11,2.11,2.11,0,0,0,.7-.1,1.52,1.52,0,0,0,.49-.27,1.09,1.09,0,0,0,.39-.87.77.77,0,0,0-.18-.53,1.61,1.61,0,0,0-.47-.37,3.74,3.74,0,0,0-.67-.26l-.77-.24c-.26-.09-.51-.19-.76-.3a2.59,2.59,0,0,1-.68-.42,1.93,1.93,0,0,1-.65-1.52,2.19,2.19,0,0,1,.2-.91,2.3,2.3,0,0,1,.57-.76,2.78,2.78,0,0,1,.91-.52,3.78,3.78,0,0,1,1.26-.2,4,4,0,0,1,1.46.26,3.38,3.38,0,0,1,1.12.7Zm3.8-1.4V392h-1.56v-8.13Zm.29-2.51a1.06,1.06,0,0,1-.09.42,1.11,1.11,0,0,1-.24.34,1,1,0,0,1-.34.23,1.16,1.16,0,0,1-.42.08,1.06,1.06,0,0,1-.4-.08,1.18,1.18,0,0,1-.35-.23,1.56,1.56,0,0,1-.23-.34,1.25,1.25,0,0,1-.08-.42,1.16,1.16,0,0,1,.08-.42,1.36,1.36,0,0,1,.23-.34,1,1,0,0,1,.35-.23.9.9,0,0,1,.4-.09,1,1,0,0,1,.42.09.89.89,0,0,1,.34.23,1,1,0,0,1,.24.34A1,1,0,0,1,461.28,381.36Zm5.43,2.38a4.13,4.13,0,0,1,1.61.3,3.25,3.25,0,0,1,1.24.84,3.61,3.61,0,0,1,.78,1.32,5.68,5.68,0,0,1,0,3.46,3.61,3.61,0,0,1-.78,1.32,3.25,3.25,0,0,1-1.24.84,4.13,4.13,0,0,1-1.61.29,4.23,4.23,0,0,1-1.63-.29,3.41,3.41,0,0,1-1.24-.84,3.78,3.78,0,0,1-.79-1.32,5.68,5.68,0,0,1,0-3.46,3.78,3.78,0,0,1,.79-1.32,3.41,3.41,0,0,1,1.24-.84A4.23,4.23,0,0,1,466.71,383.74Zm0,7.16a2,2,0,0,0,1.72-.78,4.47,4.47,0,0,0,0-4.37,2,2,0,0,0-1.72-.78,2,2,0,0,0-1.75.78,4.54,4.54,0,0,0,0,4.37A2,2,0,0,0,466.71,390.9Zm7.11-5.9a4.38,4.38,0,0,1,.55-.51,2.63,2.63,0,0,1,.61-.39,2.88,2.88,0,0,1,.69-.26,3.44,3.44,0,0,1,.8-.1,2.89,2.89,0,0,1,1.18.23,2.37,2.37,0,0,1,.86.63,2.9,2.9,0,0,1,.52,1,4.44,4.44,0,0,1,.17,1.25V392h-1.57v-5.18a2,2,0,0,0-.4-1.35A1.49,1.49,0,0,0,476,385a2.35,2.35,0,0,0-1.13.29,3.82,3.82,0,0,0-1,.77v6h-1.56v-8.13h.94a.39.39,0,0,1,.41.31Zm12.87,2a2.33,2.33,0,0,0-.14-.85,1.82,1.82,0,0,0-.38-.68,1.63,1.63,0,0,0-.62-.45,2.37,2.37,0,0,0-2.4.41,2.74,2.74,0,0,0-.72,1.57Zm1.29,3.81a3.05,3.05,0,0,1-.66.58,5,5,0,0,1-.8.4,5.41,5.41,0,0,1-1.77.29,4.2,4.2,0,0,1-1.56-.28A3.51,3.51,0,0,1,482,391a3.92,3.92,0,0,1-.82-1.36,5.65,5.65,0,0,1-.29-1.87,4.52,4.52,0,0,1,.27-1.58,3.64,3.64,0,0,1,.75-1.28,3.4,3.4,0,0,1,1.21-.85,3.91,3.91,0,0,1,1.6-.32A3.83,3.83,0,0,1,486,384a3,3,0,0,1,1.08.71,3.15,3.15,0,0,1,.71,1.14,4.16,4.16,0,0,1,.27,1.55,1.05,1.05,0,0,1-.08.49.33.33,0,0,1-.3.12h-5.33a4.68,4.68,0,0,0,.21,1.27,2.62,2.62,0,0,0,.51.9,1.94,1.94,0,0,0,.77.53,2.7,2.7,0,0,0,1,.18,3,3,0,0,0,.9-.12,3.38,3.38,0,0,0,.65-.26,3.8,3.8,0,0,0,.47-.26.67.67,0,0,1,.33-.12.36.36,0,0,1,.3.14Zm3.27-5.41a3.64,3.64,0,0,1,.94-1.25,2,2,0,0,1,1.33-.46,2,2,0,0,1,.5.06,1.28,1.28,0,0,1,.41.18l-.1,1.18a.26.26,0,0,1-.27.21,1.77,1.77,0,0,1-.33,0,2.44,2.44,0,0,0-.48-.05,1.78,1.78,0,0,0-.67.12,1.5,1.5,0,0,0-.52.32,2,2,0,0,0-.4.52,5.61,5.61,0,0,0-.32.69V392h-1.56v-8.13h.89a.46.46,0,0,1,.35.1.6.6,0,0,1,.13.32Zm18.43.83a6.49,6.49,0,0,1-.41,2.34,5.45,5.45,0,0,1-1.16,1.82,5.12,5.12,0,0,1-1.8,1.16A6.23,6.23,0,0,1,504,392h-4.32V380.51H504a6.23,6.23,0,0,1,2.33.42,5.15,5.15,0,0,1,1.8,1.17,5.35,5.35,0,0,1,1.16,1.82A6.46,6.46,0,0,1,509.68,386.26Zm-1.74,0a5.51,5.51,0,0,0-.28-1.84,3.93,3.93,0,0,0-.8-1.37,3.36,3.36,0,0,0-1.25-.87,4.46,4.46,0,0,0-1.63-.29h-2.61v8.73H504a4.46,4.46,0,0,0,1.63-.29,3.33,3.33,0,0,0,1.25-.86,4,4,0,0,0,.8-1.37A5.56,5.56,0,0,0,507.94,386.26Zm8.84.77a2.57,2.57,0,0,0-.13-.85,2.14,2.14,0,0,0-.38-.68,1.66,1.66,0,0,0-.63-.45,2,2,0,0,0-.85-.16,2.1,2.1,0,0,0-1.55.57,2.73,2.73,0,0,0-.71,1.57Zm1.29,3.81a3.05,3.05,0,0,1-.66.58,4.6,4.6,0,0,1-.8.4,5.15,5.15,0,0,1-.88.22,5.42,5.42,0,0,1-.89.07,4.2,4.2,0,0,1-1.56-.28A3.61,3.61,0,0,1,512,391a3.76,3.76,0,0,1-.81-1.36,5.4,5.4,0,0,1-.29-1.87,4.52,4.52,0,0,1,.26-1.58,4,4,0,0,1,.75-1.28,3.49,3.49,0,0,1,1.21-.85,3.94,3.94,0,0,1,1.6-.32,3.79,3.79,0,0,1,1.37.25,3.07,3.07,0,0,1,1.09.71,3.29,3.29,0,0,1,.71,1.14,4.38,4.38,0,0,1,.26,1.55.94.94,0,0,1-.08.49.32.32,0,0,1-.29.12h-5.33a4.32,4.32,0,0,0,.21,1.27,2.6,2.6,0,0,0,.5.9,2,2,0,0,0,.78.53,2.66,2.66,0,0,0,1,.18,3,3,0,0,0,.89-.12,3.49,3.49,0,0,0,.66-.26,3.59,3.59,0,0,0,.46-.26.67.67,0,0,1,.34-.12.34.34,0,0,1,.29.14Zm6.59-5.57a.5.5,0,0,1-.13.15.36.36,0,0,1-.19,0,.75.75,0,0,1-.29-.08,3.91,3.91,0,0,0-.37-.2,3.84,3.84,0,0,0-.52-.19,2.38,2.38,0,0,0-.7-.09,2.06,2.06,0,0,0-.62.09,1.53,1.53,0,0,0-.46.23,1,1,0,0,0-.29.36.89.89,0,0,0-.11.43.71.71,0,0,0,.18.5,1.75,1.75,0,0,0,.47.35,7,7,0,0,0,.66.26c.25.08.51.15.76.24a5.72,5.72,0,0,1,.76.3,2.64,2.64,0,0,1,.67.4,2,2,0,0,1,.47.59,1.8,1.8,0,0,1,.18.84,2.59,2.59,0,0,1-.21,1.05,2.33,2.33,0,0,1-.59.84,2.91,2.91,0,0,1-1,.55,4.2,4.2,0,0,1-1.34.2,4.14,4.14,0,0,1-2.74-1l.37-.6a.33.33,0,0,1,.16-.17.46.46,0,0,1,.25-.07.48.48,0,0,1,.31.12l.39.24a2.73,2.73,0,0,0,.54.24,2.62,2.62,0,0,0,.8.11,2.11,2.11,0,0,0,.7-.1,1.52,1.52,0,0,0,.49-.27,1.18,1.18,0,0,0,.39-.87.73.73,0,0,0-.19-.53,1.38,1.38,0,0,0-.47-.37,3.36,3.36,0,0,0-.66-.26l-.77-.24c-.26-.09-.52-.19-.77-.3a2.71,2.71,0,0,1-.67-.42,1.93,1.93,0,0,1-.65-1.52,2.35,2.35,0,0,1,.19-.91,2.61,2.61,0,0,1,.57-.76,2.83,2.83,0,0,1,.92-.52,3.78,3.78,0,0,1,1.26-.2,4,4,0,0,1,1.46.26,3.38,3.38,0,0,1,1.12.7Zm6.53,3.12a11.2,11.2,0,0,0-1.61.15,4.5,4.5,0,0,0-1.09.31,1.5,1.5,0,0,0-.59.45,1,1,0,0,0-.19.58,1.25,1.25,0,0,0,.1.53,1.22,1.22,0,0,0,.27.36,1.31,1.31,0,0,0,.41.2,2,2,0,0,0,.5.06,2.74,2.74,0,0,0,1.23-.27,3.08,3.08,0,0,0,.5-.33,3.84,3.84,0,0,0,.47-.44ZM526.61,385a4.47,4.47,0,0,1,3.23-1.29,3.17,3.17,0,0,1,1.23.23,2.44,2.44,0,0,1,.9.63,2.79,2.79,0,0,1,.56,1,3.87,3.87,0,0,1,.19,1.26V392H532a.68.68,0,0,1-.35-.07.54.54,0,0,1-.19-.29l-.17-.71c-.21.19-.41.36-.61.51a5.26,5.26,0,0,1-.65.38,3.59,3.59,0,0,1-.7.23,4.25,4.25,0,0,1-.83.08,3.39,3.39,0,0,1-.91-.13,2,2,0,0,1-.72-.41,1.91,1.91,0,0,1-.5-.68,2.34,2.34,0,0,1-.17-1,1.79,1.79,0,0,1,.25-.92,2.44,2.44,0,0,1,.85-.8,5.57,5.57,0,0,1,1.53-.58,12.32,12.32,0,0,1,2.34-.25v-.59a2.07,2.07,0,0,0-.39-1.38,1.45,1.45,0,0,0-1.15-.46,2.7,2.7,0,0,0-.87.13,3.36,3.36,0,0,0-.6.29l-.44.28a.62.62,0,0,1-.38.13.45.45,0,0,1-.28-.09.6.6,0,0,1-.18-.21Zm22.59,1.25a6.29,6.29,0,0,1-.42,2.34,5.3,5.3,0,0,1-1.16,1.82,5.12,5.12,0,0,1-1.8,1.16,6.2,6.2,0,0,1-2.33.42h-4.32V380.51h4.32a6.2,6.2,0,0,1,2.33.42,5.15,5.15,0,0,1,1.8,1.17,5.21,5.21,0,0,1,1.16,1.82A6.25,6.25,0,0,1,549.2,386.26Zm-1.75,0a5.51,5.51,0,0,0-.28-1.84,3.65,3.65,0,0,0-.8-1.37,3.32,3.32,0,0,0-1.24-.87,4.48,4.48,0,0,0-1.64-.29h-2.6v8.73h2.6a4.48,4.48,0,0,0,1.64-.29,3.3,3.3,0,0,0,1.24-.86,3.73,3.73,0,0,0,.8-1.37A5.56,5.56,0,0,0,547.45,386.26Zm5-2.39V392h-1.56v-8.13Zm.3-2.51a1.06,1.06,0,0,1-.09.42,1.31,1.31,0,0,1-.24.34,1.07,1.07,0,0,1-.35.23,1.09,1.09,0,0,1-.82,0,1.13,1.13,0,0,1-.34-.23,1.31,1.31,0,0,1-.24-.34,1.23,1.23,0,0,1-.07-.42.94.94,0,0,1,.31-.76,1,1,0,0,1,1.16-.23.93.93,0,0,1,.35.23,1.16,1.16,0,0,1,.24.34A1,1,0,0,1,552.8,381.36Zm4.82,6.58a2,2,0,0,0,.72-.11,1.38,1.38,0,0,0,.53-.31,1.2,1.2,0,0,0,.32-.5,1.61,1.61,0,0,0,.11-.63,1.48,1.48,0,0,0-.43-1.12,1.7,1.7,0,0,0-1.25-.42,1.74,1.74,0,0,0-1.26.42,1.51,1.51,0,0,0-.42,1.12,1.81,1.81,0,0,0,.1.63,1.34,1.34,0,0,0,.32.49,1.63,1.63,0,0,0,.53.32A2,2,0,0,0,557.62,387.94Zm2.48,4.48a.61.61,0,0,0-.16-.45.92.92,0,0,0-.44-.27,2.62,2.62,0,0,0-.64-.15l-.77-.07-.83,0c-.28,0-.55,0-.81-.08a2.45,2.45,0,0,0-.69.5,1.05,1.05,0,0,0-.14,1.18,1.16,1.16,0,0,0,.41.38,2.13,2.13,0,0,0,.7.26,4.85,4.85,0,0,0,1,.1,4.34,4.34,0,0,0,1-.11,2.16,2.16,0,0,0,.74-.28,1.31,1.31,0,0,0,.45-.42A1,1,0,0,0,560.1,392.42Zm1.59-8.24v.58q0,.28-.36.36l-.87.13a2.74,2.74,0,0,1,.17.53,2.62,2.62,0,0,1,.07.57,2.45,2.45,0,0,1-.24,1.09,2.23,2.23,0,0,1-.64.82,2.75,2.75,0,0,1-1,.53,3.78,3.78,0,0,1-1.23.19,4.3,4.3,0,0,1-1-.12,1,1,0,0,0-.36.32.56.56,0,0,0-.12.33.44.44,0,0,0,.23.42,2.08,2.08,0,0,0,.61.2,7.31,7.31,0,0,0,.88.07l1,.06a8.27,8.27,0,0,1,1,.12,2.79,2.79,0,0,1,.87.3,1.57,1.57,0,0,1,.61.56,1.61,1.61,0,0,1,.24.92,2.09,2.09,0,0,1-.26,1,2.51,2.51,0,0,1-.75.88,4.05,4.05,0,0,1-1.21.62,5.37,5.37,0,0,1-1.62.23,6.62,6.62,0,0,1-1.57-.17,3.68,3.68,0,0,1-1.11-.48,2,2,0,0,1-.67-.68,1.72,1.72,0,0,1-.21-.82,1.44,1.44,0,0,1,.36-1,2.49,2.49,0,0,1,1-.65,1.36,1.36,0,0,1-.56-.43,1.2,1.2,0,0,1-.21-.74,1,1,0,0,1,.07-.36,1.3,1.3,0,0,1,.19-.37,1.86,1.86,0,0,1,.33-.36,3.22,3.22,0,0,1,.45-.31,2.57,2.57,0,0,1-.94-.88,2.47,2.47,0,0,1-.35-1.31,2.38,2.38,0,0,1,.24-1.08,2.31,2.31,0,0,1,.64-.82,2.8,2.8,0,0,1,1-.53,4.17,4.17,0,0,1,1.26-.18,3.49,3.49,0,0,1,1.81.44Zm3.06-.31V392h-1.56v-8.13Zm.3-2.51a1.06,1.06,0,0,1-.09.42,1.31,1.31,0,0,1-.24.34,1.13,1.13,0,0,1-.34.23,1.25,1.25,0,0,1-.42.08,1.15,1.15,0,0,1-.41-.08,1.13,1.13,0,0,1-.34-.23,1.31,1.31,0,0,1-.24-.34,1.23,1.23,0,0,1-.07-.42.94.94,0,0,1,.31-.76,1.1,1.1,0,0,1,.75-.32,1.06,1.06,0,0,1,.42.09,1,1,0,0,1,.34.23,1.16,1.16,0,0,1,.24.34A1,1,0,0,1,565.05,381.36Zm4.5,10.77a2.07,2.07,0,0,1-1.52-.55,2.21,2.21,0,0,1-.52-1.58v-4.86h-1a.3.3,0,0,1-.32-.34v-.63l1.32-.19.35-2.42a.37.37,0,0,1,.12-.21.41.41,0,0,1,.24-.08h.8V384h2.3v1.14h-2.3v4.76a1,1,0,0,0,.23.72.85.85,0,0,0,.61.23,1,1,0,0,0,.36-.06,1.47,1.47,0,0,0,.28-.12l.19-.13a.3.3,0,0,1,.14-.05.16.16,0,0,1,.12,0,.36.36,0,0,1,.1.11l.46.75a2.61,2.61,0,0,1-.91.55A3.39,3.39,0,0,1,569.55,392.13Zm7.62-3.74a11.2,11.2,0,0,0-1.61.15,4.54,4.54,0,0,0-1.08.31,1.47,1.47,0,0,0-.6.45,1,1,0,0,0-.18.58,1.44,1.44,0,0,0,.09.53,1.22,1.22,0,0,0,.27.36,1.42,1.42,0,0,0,.41.2,2,2,0,0,0,.5.06,2.67,2.67,0,0,0,.66-.07,2.75,2.75,0,0,0,.57-.2,2.7,2.7,0,0,0,.5-.33,3.84,3.84,0,0,0,.47-.44ZM572.6,385a4.58,4.58,0,0,1,1.47-1,4.74,4.74,0,0,1,1.75-.32,3.1,3.1,0,0,1,1.23.23,2.56,2.56,0,0,1,.91.63,2.77,2.77,0,0,1,.55,1,3.87,3.87,0,0,1,.19,1.26V392H578a.63.63,0,0,1-.35-.07.55.55,0,0,1-.2-.29l-.17-.71a6.87,6.87,0,0,1-.61.51,5.14,5.14,0,0,1-.64.38,3.83,3.83,0,0,1-.7.23,4.36,4.36,0,0,1-.84.08,3.26,3.26,0,0,1-.9-.13,2.09,2.09,0,0,1-.73-.41,1.89,1.89,0,0,1-.49-.68,2.33,2.33,0,0,1-.18-1,1.71,1.71,0,0,1,.26-.92,2.32,2.32,0,0,1,.84-.8,5.78,5.78,0,0,1,1.54-.58,12.12,12.12,0,0,1,2.33-.25v-.59a2.07,2.07,0,0,0-.39-1.38,1.44,1.44,0,0,0-1.15-.46,2.64,2.64,0,0,0-.86.13,3.36,3.36,0,0,0-.6.29l-.44.28a.65.65,0,0,1-.39.13.47.47,0,0,1-.28-.09.91.91,0,0,1-.18-.21Zm9.79-4.82V392h-1.57V380.19ZM381.88,411.84a2.07,2.07,0,0,0-.83-.7,2.25,2.25,0,0,0-1-.2,2,2,0,0,0-1.67.77,3.73,3.73,0,0,0-.58,2.25,5.7,5.7,0,0,0,.13,1.33,2.71,2.71,0,0,0,.38.89,1.66,1.66,0,0,0,.63.52,2.15,2.15,0,0,0,.83.16,2.13,2.13,0,0,0,1.17-.31,3.36,3.36,0,0,0,.93-.85Zm1.57-5.65V418h-.94a.38.38,0,0,1-.41-.31l-.14-.94a4.27,4.27,0,0,1-1.18,1,3,3,0,0,1-1.52.37,3,3,0,0,1-1.27-.27,2.67,2.67,0,0,1-.95-.79,3.71,3.71,0,0,1-.62-1.31,6.37,6.37,0,0,1-.22-1.78,5.69,5.69,0,0,1,.24-1.68,3.89,3.89,0,0,1,.7-1.34,3.21,3.21,0,0,1,2.57-1.22A2.89,2.89,0,0,1,381,410a2.94,2.94,0,0,1,.93.68v-4.45Zm6.54,8.2a11.2,11.2,0,0,0-1.61.15,4.54,4.54,0,0,0-1.08.31,1.47,1.47,0,0,0-.6.45,1,1,0,0,0-.18.58,1.44,1.44,0,0,0,.09.53,1.22,1.22,0,0,0,.27.36,1.42,1.42,0,0,0,.41.2,2,2,0,0,0,.51.06,2.64,2.64,0,0,0,.65-.07,2.75,2.75,0,0,0,.57-.2,2.7,2.7,0,0,0,.5-.33A3.84,3.84,0,0,0,390,416ZM385.42,411a4.58,4.58,0,0,1,1.47-1,4.74,4.74,0,0,1,1.75-.32,3.19,3.19,0,0,1,1.24.23,2.61,2.61,0,0,1,.9.63,2.77,2.77,0,0,1,.55,1,3.87,3.87,0,0,1,.19,1.26V418h-.69a.63.63,0,0,1-.35-.07.5.5,0,0,1-.2-.29l-.17-.71a6.87,6.87,0,0,1-.61.51,5.14,5.14,0,0,1-.64.38,3.69,3.69,0,0,1-.71.23,4.17,4.17,0,0,1-.83.08,3.26,3.26,0,0,1-.9-.13,2.09,2.09,0,0,1-.73-.41,1.89,1.89,0,0,1-.49-.68,2.33,2.33,0,0,1-.18-1,1.9,1.9,0,0,1,.25-.92,2.44,2.44,0,0,1,.85-.8,5.78,5.78,0,0,1,1.54-.58,12.12,12.12,0,0,1,2.33-.25v-.59a2.07,2.07,0,0,0-.39-1.38,1.44,1.44,0,0,0-1.15-.46,2.64,2.64,0,0,0-.86.13,3.36,3.36,0,0,0-.6.29l-.44.28a.65.65,0,0,1-.39.13.47.47,0,0,1-.28-.09.91.91,0,0,1-.18-.21Zm9.66,0a4.38,4.38,0,0,1,.55-.51,2.63,2.63,0,0,1,.61-.39,2.73,2.73,0,0,1,.69-.26,3.44,3.44,0,0,1,.8-.1,2.89,2.89,0,0,1,1.18.23,2.33,2.33,0,0,1,.85.63,2.59,2.59,0,0,1,.52,1,4.1,4.1,0,0,1,.18,1.25V418h-1.57v-5.18a2,2,0,0,0-.4-1.35,1.49,1.49,0,0,0-1.22-.49,2.35,2.35,0,0,0-1.13.29,3.66,3.66,0,0,0-1,.77v6h-1.56v-8.13h.94a.39.39,0,0,1,.41.31Zm11.53,7v-8.13h.94a.39.39,0,0,1,.41.31l.11.78a4,4,0,0,1,1-.87,2.4,2.4,0,0,1,1.29-.35,1.9,1.9,0,0,1,1.31.45,2.56,2.56,0,0,1,.74,1.2,2.48,2.48,0,0,1,.45-.74,2.52,2.52,0,0,1,.63-.51,2.39,2.39,0,0,1,.72-.3,3.58,3.58,0,0,1,.8-.1,3,3,0,0,1,1.15.21,2.17,2.17,0,0,1,.86.59,2.69,2.69,0,0,1,.54,1,4.41,4.41,0,0,1,.18,1.31V418h-1.57v-5.18a2,2,0,0,0-.4-1.37,1.41,1.41,0,0,0-1.15-.47,1.73,1.73,0,0,0-.64.12,1.44,1.44,0,0,0-.53.35,1.73,1.73,0,0,0-.36.57,2.2,2.2,0,0,0-.13.8V418h-1.57v-5.18a2.16,2.16,0,0,0-.38-1.39,1.34,1.34,0,0,0-1.1-.45,1.74,1.74,0,0,0-.94.27,2.94,2.94,0,0,0-.79.72v6Zm18.6-5a2.57,2.57,0,0,0-.13-.85,2,2,0,0,0-.39-.68,1.55,1.55,0,0,0-.62-.45,2,2,0,0,0-.85-.16,2.1,2.1,0,0,0-1.55.57A2.73,2.73,0,0,0,421,413Zm1.29,3.81a3.05,3.05,0,0,1-.66.58,4.6,4.6,0,0,1-.8.4,5.15,5.15,0,0,1-.88.22,5.42,5.42,0,0,1-.89.07,4.2,4.2,0,0,1-1.56-.28,3.61,3.61,0,0,1-1.24-.83,3.92,3.92,0,0,1-.82-1.36,5.66,5.66,0,0,1-.28-1.87,4.52,4.52,0,0,1,.26-1.58,4,4,0,0,1,.75-1.28,3.49,3.49,0,0,1,1.21-.85,3.94,3.94,0,0,1,1.6-.32,3.79,3.79,0,0,1,1.37.25,3.07,3.07,0,0,1,1.09.71,3.29,3.29,0,0,1,.71,1.14,4.38,4.38,0,0,1,.26,1.55.94.94,0,0,1-.08.49.32.32,0,0,1-.29.12h-5.33a4,4,0,0,0,.21,1.27,2.6,2.6,0,0,0,.5.9,2,2,0,0,0,.78.53,2.62,2.62,0,0,0,1,.18,3,3,0,0,0,.89-.12,3.49,3.49,0,0,0,.66-.26,4.45,4.45,0,0,0,.46-.26.67.67,0,0,1,.34-.12.34.34,0,0,1,.29.14Zm3.26-5.84a4.45,4.45,0,0,1,.56-.51,3.32,3.32,0,0,1,1.3-.65,3.44,3.44,0,0,1,.8-.1,2.89,2.89,0,0,1,1.18.23,2.33,2.33,0,0,1,.85.63,2.74,2.74,0,0,1,.52,1,4.1,4.1,0,0,1,.18,1.25V418h-1.57v-5.18a2,2,0,0,0-.4-1.35A1.52,1.52,0,0,0,432,411a2.31,2.31,0,0,0-1.12.29,3.66,3.66,0,0,0-1,.77v6H428.3v-8.13h.93a.39.39,0,0,1,.41.31Zm10.35,2.94a2,2,0,0,0,.73-.11,1.34,1.34,0,0,0,.52-.31,1.2,1.2,0,0,0,.32-.5,1.61,1.61,0,0,0,.12-.63,1.48,1.48,0,0,0-.44-1.12,1.7,1.7,0,0,0-1.25-.42,1.74,1.74,0,0,0-1.26.42,1.51,1.51,0,0,0-.42,1.12,1.81,1.81,0,0,0,.1.63,1.49,1.49,0,0,0,.32.49,1.74,1.74,0,0,0,.53.32A2.08,2.08,0,0,0,440.11,413.94Zm2.49,4.48a.65.65,0,0,0-.16-.45,1,1,0,0,0-.44-.27,2.74,2.74,0,0,0-.64-.15l-.78-.07-.82,0c-.29,0-.56,0-.82-.08a2.45,2.45,0,0,0-.69.5,1,1,0,0,0-.26.7.91.91,0,0,0,.13.48,1,1,0,0,0,.4.38,2.13,2.13,0,0,0,.7.26,4.85,4.85,0,0,0,1,.1,4.34,4.34,0,0,0,1-.11,2.08,2.08,0,0,0,.74-.28,1.45,1.45,0,0,0,.46-.42A1.07,1.07,0,0,0,442.6,418.42Zm1.58-8.24v.58q0,.28-.36.36l-.87.13a2.74,2.74,0,0,1,.17.53,2.12,2.12,0,0,1,.07.57,2.59,2.59,0,0,1-.23,1.09,2.46,2.46,0,0,1-.64.82,2.89,2.89,0,0,1-1,.53,3.69,3.69,0,0,1-1.23.19,4.22,4.22,0,0,1-1-.12,1.07,1.07,0,0,0-.37.32.56.56,0,0,0-.12.33.46.46,0,0,0,.23.42,2.15,2.15,0,0,0,.62.2,7,7,0,0,0,.87.07l1,.06a8.27,8.27,0,0,1,1,.12,2.79,2.79,0,0,1,.87.3,1.59,1.59,0,0,1,.62.56,1.61,1.61,0,0,1,.24.92,2.1,2.1,0,0,1-.27,1,2.51,2.51,0,0,1-.75.88,3.94,3.94,0,0,1-1.21.62,5.3,5.3,0,0,1-1.61.23,6.65,6.65,0,0,1-1.58-.17,3.79,3.79,0,0,1-1.11-.48,2,2,0,0,1-.67-.68,1.72,1.72,0,0,1-.21-.82,1.41,1.41,0,0,1,.37-1,2.39,2.39,0,0,1,1-.65,1.43,1.43,0,0,1-.56-.43,1.2,1.2,0,0,1-.21-.74,1.27,1.27,0,0,1,.07-.36,1.63,1.63,0,0,1,.19-.37,1.86,1.86,0,0,1,.33-.36,3.22,3.22,0,0,1,.45-.31,2.57,2.57,0,0,1-.94-.88,2.46,2.46,0,0,1-.34-1.31,2.38,2.38,0,0,1,.23-1.08,2.43,2.43,0,0,1,.64-.82,2.89,2.89,0,0,1,1-.53,4.22,4.22,0,0,1,1.26-.18,3.47,3.47,0,0,1,1.81.44Zm3.06-.31V418h-1.56v-8.13Zm.3-2.51a1.06,1.06,0,0,1-.09.42,1.31,1.31,0,0,1-.24.34,1,1,0,0,1-.34.23,1.2,1.2,0,0,1-.42.08,1.15,1.15,0,0,1-.41-.08,1.08,1.08,0,0,1-.57-.57,1,1,0,0,1-.08-.42,1,1,0,0,1,.08-.42,1.13,1.13,0,0,1,.23-.34,1.08,1.08,0,0,1,.34-.23,1,1,0,0,1,.41-.09,1,1,0,0,1,.42.09.89.89,0,0,1,.34.23,1.16,1.16,0,0,1,.24.34A1,1,0,0,1,447.54,407.36Zm3.52-1.17v6.91h.37a.74.74,0,0,0,.28-.05.64.64,0,0,0,.23-.19l2.43-2.68a.89.89,0,0,1,.25-.23.72.72,0,0,1,.35-.08h1.42L453.52,413a2.08,2.08,0,0,1-.5.45,1.55,1.55,0,0,1,.27.24c.08.09.15.19.23.3l3.05,4h-1.4a.84.84,0,0,1-.33-.06.7.7,0,0,1-.25-.24l-2.51-3.26a.57.57,0,0,0-.24-.23.84.84,0,0,0-.36-.06h-.42V418H449.5V406.19Zm13.44,3.68V418h-.94a.41.41,0,0,1-.42-.31l-.11-.82a4.38,4.38,0,0,1-.55.51,3.27,3.27,0,0,1-1.31.65,2.9,2.9,0,0,1-.79.1,2.94,2.94,0,0,1-1.19-.23,2.17,2.17,0,0,1-.84-.62,2.5,2.5,0,0,1-.52-1,4.1,4.1,0,0,1-.18-1.25v-5.18h1.57v5.18a2.08,2.08,0,0,0,.4,1.36,1.48,1.48,0,0,0,1.22.48,2.3,2.3,0,0,0,1.12-.28,4,4,0,0,0,1-.79v-5.95Zm4.72,8.26a2,2,0,0,1-1.52-.55,2.22,2.22,0,0,1-.53-1.58v-4.86h-.94a.41.41,0,0,1-.24-.08.35.35,0,0,1-.08-.26v-.63l1.32-.19.35-2.42a.35.35,0,0,1,.36-.29h.79V410H471v1.14h-2.3v4.76a1,1,0,0,0,.23.72.87.87,0,0,0,.61.23,1,1,0,0,0,.37-.06,1.14,1.14,0,0,0,.27-.12l.19-.13a.3.3,0,0,1,.15-.05.16.16,0,0,1,.12,0,.35.35,0,0,1,.09.11l.47.75a2.65,2.65,0,0,1-.92.55A3.33,3.33,0,0,1,469.22,418.13Zm4.88-8.26V418h-1.56v-8.13Zm.3-2.51a1.06,1.06,0,0,1-.09.42,1.31,1.31,0,0,1-.24.34,1,1,0,0,1-.34.23,1.25,1.25,0,0,1-.42.08,1.15,1.15,0,0,1-.41-.08,1.13,1.13,0,0,1-.34-.23,1.27,1.27,0,0,1-.23-.34,1,1,0,0,1-.08-.42,1,1,0,0,1,.08-.42,1.13,1.13,0,0,1,.23-.34,1.1,1.1,0,0,1,.75-.32,1.06,1.06,0,0,1,.42.09.89.89,0,0,1,.34.23,1.16,1.16,0,0,1,.24.34A1,1,0,0,1,474.4,407.36Zm9.81,5.06a3.61,3.61,0,0,0,1.14-.16,2.37,2.37,0,0,0,.82-.48,1.94,1.94,0,0,0,.5-.73,2.47,2.47,0,0,0,.17-.95,2.12,2.12,0,0,0-.66-1.65,2.81,2.81,0,0,0-2-.6h-1.78v4.57Zm0-5.91a6.46,6.46,0,0,1,1.92.26,3.64,3.64,0,0,1,1.35.73,2.7,2.7,0,0,1,.79,1.12,4.12,4.12,0,0,1,0,3,3.1,3.1,0,0,1-.83,1.16,3.65,3.65,0,0,1-1.36.76,5.88,5.88,0,0,1-1.86.27h-1.78V418h-1.7V406.51Zm7.22,4.92a3.64,3.64,0,0,1,.94-1.25,2,2,0,0,1,1.33-.46,2,2,0,0,1,.5.06,1.28,1.28,0,0,1,.41.18l-.1,1.18a.26.26,0,0,1-.27.21,1.77,1.77,0,0,1-.33,0,2.44,2.44,0,0,0-.48-.05,1.74,1.74,0,0,0-.67.12,1.5,1.5,0,0,0-.52.32,2,2,0,0,0-.4.52,5.61,5.61,0,0,0-.32.69V418H490v-8.13h.9a.46.46,0,0,1,.35.1.6.6,0,0,1,.13.32Zm7.55-1.69a4.18,4.18,0,0,1,1.62.3,3.29,3.29,0,0,1,1.23.84,3.61,3.61,0,0,1,.78,1.32,5.48,5.48,0,0,1,0,3.46,3.61,3.61,0,0,1-.78,1.32,3.29,3.29,0,0,1-1.23.84,4.18,4.18,0,0,1-1.62.29,4.23,4.23,0,0,1-1.63-.29,3.29,3.29,0,0,1-1.23-.84,3.63,3.63,0,0,1-.79-1.32,5.48,5.48,0,0,1,0-3.46,3.63,3.63,0,0,1,.79-1.32,3.29,3.29,0,0,1,1.23-.84A4.23,4.23,0,0,1,499,409.74Zm0,7.16a2,2,0,0,0,1.72-.78,4.47,4.47,0,0,0,0-4.37A2,2,0,0,0,499,411a2,2,0,0,0-1.74.78,4.47,4.47,0,0,0,0,4.37A2,2,0,0,0,499,416.9Zm10.44-5.63a.41.41,0,0,1-.14.15.34.34,0,0,1-.18,0,.71.71,0,0,1-.29-.08l-.38-.2a3.25,3.25,0,0,0-.51-.19,2.38,2.38,0,0,0-.7-.09,2,2,0,0,0-.62.09,1.53,1.53,0,0,0-.46.23,1,1,0,0,0-.3.36.88.88,0,0,0-.1.43.71.71,0,0,0,.18.5,1.75,1.75,0,0,0,.47.35,6.06,6.06,0,0,0,.66.26l.76.24a6.32,6.32,0,0,1,.76.3,2.42,2.42,0,0,1,.66.4,1.84,1.84,0,0,1,.48.59,1.8,1.8,0,0,1,.18.84,2.59,2.59,0,0,1-.21,1.05,2.24,2.24,0,0,1-.6.84,2.77,2.77,0,0,1-1,.55,4.24,4.24,0,0,1-1.34.2,4.11,4.11,0,0,1-1.55-.28,4,4,0,0,1-1.19-.71l.36-.6a.44.44,0,0,1,.16-.17.5.5,0,0,1,.26-.07.51.51,0,0,1,.31.12l.39.24a2.73,2.73,0,0,0,.54.24,2.62,2.62,0,0,0,.8.11,2.11,2.11,0,0,0,.7-.1,1.64,1.64,0,0,0,.49-.27,1.11,1.11,0,0,0,.29-.4,1.28,1.28,0,0,0,.1-.47.73.73,0,0,0-.19-.53,1.38,1.38,0,0,0-.47-.37,3.36,3.36,0,0,0-.66-.26l-.77-.24c-.26-.09-.52-.19-.77-.3a2.71,2.71,0,0,1-.67-.42,1.93,1.93,0,0,1-.65-1.52,2.35,2.35,0,0,1,.19-.91,2.61,2.61,0,0,1,.57-.76,2.83,2.83,0,0,1,.92-.52,3.78,3.78,0,0,1,1.26-.2,3.9,3.9,0,0,1,1.45.26,3.28,3.28,0,0,1,1.12.7ZM517,413a2.57,2.57,0,0,0-.13-.85,2,2,0,0,0-.39-.68,1.55,1.55,0,0,0-.62-.45,2,2,0,0,0-.85-.16,2.1,2.1,0,0,0-1.55.57,2.73,2.73,0,0,0-.71,1.57Zm1.29,3.81a3.05,3.05,0,0,1-.66.58,4.6,4.6,0,0,1-.8.4,5.15,5.15,0,0,1-.88.22,5.42,5.42,0,0,1-.89.07,4.2,4.2,0,0,1-1.56-.28,3.61,3.61,0,0,1-1.24-.83,3.92,3.92,0,0,1-.82-1.36,5.66,5.66,0,0,1-.28-1.87,4.52,4.52,0,0,1,.26-1.58,4,4,0,0,1,.75-1.28,3.49,3.49,0,0,1,1.21-.85,3.94,3.94,0,0,1,1.6-.32,3.79,3.79,0,0,1,1.37.25,3.07,3.07,0,0,1,1.09.71,3.29,3.29,0,0,1,.71,1.14,4.38,4.38,0,0,1,.26,1.55.94.94,0,0,1-.08.49.32.32,0,0,1-.29.12h-5.33a4,4,0,0,0,.21,1.27,2.6,2.6,0,0,0,.5.9,2,2,0,0,0,.78.53,2.66,2.66,0,0,0,1,.18,3,3,0,0,0,.89-.12,3.49,3.49,0,0,0,.66-.26,3.59,3.59,0,0,0,.46-.26.67.67,0,0,1,.34-.12.34.34,0,0,1,.29.14Zm6.59-5.57a.5.5,0,0,1-.13.15.36.36,0,0,1-.19,0,.75.75,0,0,1-.29-.08,3.91,3.91,0,0,0-.37-.2,3.84,3.84,0,0,0-.52-.19,2.38,2.38,0,0,0-.7-.09,2,2,0,0,0-.61.09,1.47,1.47,0,0,0-.47.23.91.91,0,0,0-.29.36.89.89,0,0,0-.11.43.71.71,0,0,0,.18.5,1.75,1.75,0,0,0,.47.35,7,7,0,0,0,.66.26c.25.08.51.15.76.24a6.32,6.32,0,0,1,.76.3,2.48,2.48,0,0,1,.67.4,2,2,0,0,1,.47.59,1.8,1.8,0,0,1,.18.84,2.59,2.59,0,0,1-.21,1.05,2.33,2.33,0,0,1-.59.84,2.91,2.91,0,0,1-1,.55,4.24,4.24,0,0,1-1.34.2,4.14,4.14,0,0,1-2.74-1l.37-.6a.33.33,0,0,1,.16-.17.46.46,0,0,1,.25-.07.51.51,0,0,1,.31.12l.39.24a2.73,2.73,0,0,0,.54.24,2.62,2.62,0,0,0,.8.11,2.11,2.11,0,0,0,.7-.1,1.52,1.52,0,0,0,.49-.27,1.18,1.18,0,0,0,.39-.87.73.73,0,0,0-.19-.53,1.38,1.38,0,0,0-.47-.37,3.36,3.36,0,0,0-.66-.26l-.77-.24c-.26-.09-.52-.19-.77-.3a2.71,2.71,0,0,1-.67-.42,1.93,1.93,0,0,1-.65-1.52,2.35,2.35,0,0,1,.19-.91,2.61,2.61,0,0,1,.57-.76,2.83,2.83,0,0,1,.92-.52,3.78,3.78,0,0,1,1.26-.2,4,4,0,0,1,1.46.26,3.23,3.23,0,0,1,1.11.7Zm12.47-2.89a.58.58,0,0,1-.16.2.35.35,0,0,1-.23.07.61.61,0,0,1-.33-.13,4.64,4.64,0,0,0-.46-.3,2.9,2.9,0,0,0-.66-.29,3,3,0,0,0-1.81,0,1.63,1.63,0,0,0-.63.36,1.55,1.55,0,0,0-.39.53,1.86,1.86,0,0,0-.13.67,1.28,1.28,0,0,0,.23.77,2.34,2.34,0,0,0,.63.52,4.65,4.65,0,0,0,.87.37l1,.34a8.63,8.63,0,0,1,1,.39,3.28,3.28,0,0,1,.87.57,2.48,2.48,0,0,1,.62.83,2.73,2.73,0,0,1,.24,1.2,3.9,3.9,0,0,1-.26,1.42,3.39,3.39,0,0,1-.76,1.16,3.57,3.57,0,0,1-1.22.79,4.44,4.44,0,0,1-1.64.28A5.32,5.32,0,0,1,533,418a5,5,0,0,1-1.86-.77,4.39,4.39,0,0,1-.72-.63l.49-.81a.52.52,0,0,1,.17-.16.45.45,0,0,1,.23-.07.62.62,0,0,1,.38.18,6.24,6.24,0,0,0,.55.39,4.6,4.6,0,0,0,.77.39,3.32,3.32,0,0,0,1.11.17,3.05,3.05,0,0,0,.94-.13,2.07,2.07,0,0,0,.7-.4,1.79,1.79,0,0,0,.44-.64,2.09,2.09,0,0,0,.15-.81,1.43,1.43,0,0,0-.23-.83,1.9,1.9,0,0,0-.62-.53,4.07,4.07,0,0,0-.87-.37l-1-.31a8.63,8.63,0,0,1-1-.39,3,3,0,0,1-.87-.56,2.54,2.54,0,0,1-.62-.87,3.27,3.27,0,0,1-.23-1.29,3.13,3.13,0,0,1,.24-1.2,3,3,0,0,1,.69-1,3.29,3.29,0,0,1,1.14-.71,4.11,4.11,0,0,1,1.54-.28,4.84,4.84,0,0,1,1.77.32,3.91,3.91,0,0,1,1.42.88Zm7.78,4.65a2.57,2.57,0,0,0-.14-.85,1.82,1.82,0,0,0-.38-.68,1.63,1.63,0,0,0-.62-.45,2.08,2.08,0,0,0-.85-.16,2.11,2.11,0,0,0-1.56.57,2.73,2.73,0,0,0-.71,1.57Zm1.29,3.81a3.37,3.37,0,0,1-.67.58,4.27,4.27,0,0,1-.8.4,4.93,4.93,0,0,1-.88.22,5.3,5.3,0,0,1-.88.07,4.2,4.2,0,0,1-1.56-.28,3.65,3.65,0,0,1-1.25-.83,4.06,4.06,0,0,1-.81-1.36,5.65,5.65,0,0,1-.29-1.87,4.52,4.52,0,0,1,.27-1.58,3.64,3.64,0,0,1,.75-1.28,3.4,3.4,0,0,1,1.21-.85,3.87,3.87,0,0,1,1.6-.32,3.74,3.74,0,0,1,1.36.25,3,3,0,0,1,1.09.71,3.15,3.15,0,0,1,.71,1.14,4.16,4.16,0,0,1,.27,1.55,1.05,1.05,0,0,1-.08.49.34.34,0,0,1-.3.12h-5.33a4.68,4.68,0,0,0,.21,1.27,2.46,2.46,0,0,0,.51.9,1.87,1.87,0,0,0,.77.53,2.66,2.66,0,0,0,1,.18,3,3,0,0,0,.9-.12,3.66,3.66,0,0,0,.65-.26,4.71,4.71,0,0,0,.47-.26.64.64,0,0,1,.33-.12.36.36,0,0,1,.3.14Zm3.39-10.65V418h-1.56V406.19Zm7.62,6.84a2.57,2.57,0,0,0-.14-.85,2,2,0,0,0-.38-.68,1.59,1.59,0,0,0-.63-.45,2,2,0,0,0-.85-.16,2.1,2.1,0,0,0-1.55.57,2.73,2.73,0,0,0-.71,1.57Zm1.28,3.81a3.05,3.05,0,0,1-.66.58,4.6,4.6,0,0,1-.8.4,5.15,5.15,0,0,1-.88.22,5.34,5.34,0,0,1-.89.07,4.2,4.2,0,0,1-1.56-.28,3.61,3.61,0,0,1-1.24-.83,3.91,3.91,0,0,1-.81-1.36,5.4,5.4,0,0,1-.29-1.87,4.76,4.76,0,0,1,.26-1.58,4,4,0,0,1,.75-1.28,3.58,3.58,0,0,1,1.21-.85,3.94,3.94,0,0,1,1.6-.32,3.79,3.79,0,0,1,1.37.25,3.07,3.07,0,0,1,1.09.71,3.29,3.29,0,0,1,.71,1.14,4.17,4.17,0,0,1,.26,1.55.94.94,0,0,1-.08.49.32.32,0,0,1-.29.12h-5.33a4.68,4.68,0,0,0,.21,1.27,2.6,2.6,0,0,0,.5.9,2,2,0,0,0,.78.53,2.66,2.66,0,0,0,1,.18,3,3,0,0,0,.89-.12,3.49,3.49,0,0,0,.66-.26,3.59,3.59,0,0,0,.46-.26.67.67,0,0,1,.34-.12.36.36,0,0,1,.3.14ZM562,406.19v6.91h.37a.78.78,0,0,0,.28-.05.74.74,0,0,0,.23-.19l2.43-2.68a.89.89,0,0,1,.25-.23.71.71,0,0,1,.34-.08h1.43L564.49,413a2.08,2.08,0,0,1-.5.45,1.55,1.55,0,0,1,.27.24c.08.09.15.19.23.3l3,4h-1.4a.84.84,0,0,1-.33-.06.63.63,0,0,1-.25-.24l-2.51-3.26a.57.57,0,0,0-.24-.23.84.84,0,0,0-.36-.06H562V418h-1.56V406.19Zm11.47,5.08a.41.41,0,0,1-.14.15.34.34,0,0,1-.18,0,.71.71,0,0,1-.29-.08l-.38-.2A3.25,3.25,0,0,0,572,411a2.43,2.43,0,0,0-.7-.09,2,2,0,0,0-.62.09,1.42,1.42,0,0,0-.46.23,1,1,0,0,0-.3.36.88.88,0,0,0-.1.43.76.76,0,0,0,.17.5,1.8,1.8,0,0,0,.48.35,5.35,5.35,0,0,0,.66.26l.76.24a7.05,7.05,0,0,1,.76.3,2.42,2.42,0,0,1,.66.4,1.81,1.81,0,0,1,.66,1.43,2.59,2.59,0,0,1-.21,1.05,2.24,2.24,0,0,1-.6.84,2.73,2.73,0,0,1-1,.55,4.28,4.28,0,0,1-4.08-.79l.37-.6a.44.44,0,0,1,.16-.17.5.5,0,0,1,.26-.07.53.53,0,0,1,.31.12l.39.24a2.49,2.49,0,0,0,.54.24,2.57,2.57,0,0,0,.8.11,2,2,0,0,0,.69-.1,1.52,1.52,0,0,0,.49-.27,1.14,1.14,0,0,0,.3-.4,1.28,1.28,0,0,0,.1-.47.78.78,0,0,0-.19-.53,1.49,1.49,0,0,0-.47-.37,3.23,3.23,0,0,0-.67-.26l-.76-.24c-.26-.09-.52-.19-.77-.3a2.53,2.53,0,0,1-.67-.42,1.86,1.86,0,0,1-.47-.63,2,2,0,0,1-.18-.89,2.18,2.18,0,0,1,.19-.91,2.45,2.45,0,0,1,.57-.76,2.83,2.83,0,0,1,.92-.52,3.78,3.78,0,0,1,1.26-.2,3.94,3.94,0,0,1,1.45.26,3.28,3.28,0,0,1,1.12.7Zm3.79-1.4V418h-1.56v-8.13Zm.3-2.51a1.06,1.06,0,0,1-.09.42,1.31,1.31,0,0,1-.24.34,1.07,1.07,0,0,1-.35.23,1.15,1.15,0,0,1-.41.08,1.11,1.11,0,0,1-.41-.08,1.13,1.13,0,0,1-.34-.23,1.08,1.08,0,0,1-.23-.34,1.06,1.06,0,0,1-.09-.42,1,1,0,0,1,.09-.42,1.08,1.08,0,0,1,.57-.57,1,1,0,0,1,.41-.09,1,1,0,0,1,.41.09.93.93,0,0,1,.35.23,1.16,1.16,0,0,1,.24.34A1,1,0,0,1,577.59,407.36Z" style="fill:#022b55"/><path d="M692.54,63.42a3.5,3.5,0,0,0,1.13-.16,2.33,2.33,0,0,0,.83-.48,1.94,1.94,0,0,0,.5-.73,2.67,2.67,0,0,0,.17-.95,2.12,2.12,0,0,0-.66-1.65,2.81,2.81,0,0,0-2-.6h-1.78v4.57Zm0-5.91a6.51,6.51,0,0,1,1.92.26,3.64,3.64,0,0,1,1.35.73,2.76,2.76,0,0,1,.79,1.12,4.27,4.27,0,0,1,0,3,3.21,3.21,0,0,1-.83,1.16,3.65,3.65,0,0,1-1.36.76,5.88,5.88,0,0,1-1.86.27h-1.78V69h-1.7V57.51ZM703.4,64a2.57,2.57,0,0,0-.13-.85,1.89,1.89,0,0,0-.39-.68,1.63,1.63,0,0,0-.62-.45,2.37,2.37,0,0,0-2.4.41,2.67,2.67,0,0,0-.71,1.57Zm1.29,3.81a3.05,3.05,0,0,1-.66.58,4.6,4.6,0,0,1-.8.4,5.41,5.41,0,0,1-1.77.29,4.2,4.2,0,0,1-1.56-.28,3.51,3.51,0,0,1-1.24-.83,3.92,3.92,0,0,1-.82-1.36,5.65,5.65,0,0,1-.29-1.87,4.52,4.52,0,0,1,.27-1.58,3.64,3.64,0,0,1,.75-1.28,3.4,3.4,0,0,1,1.21-.85,3.91,3.91,0,0,1,1.6-.32,3.83,3.83,0,0,1,1.37.25,3,3,0,0,1,1.08.71,3.17,3.17,0,0,1,.72,1.14,4.38,4.38,0,0,1,.26,1.55,1.08,1.08,0,0,1-.08.49.33.33,0,0,1-.3.12h-5.32a4.28,4.28,0,0,0,.2,1.27,2.62,2.62,0,0,0,.51.9,1.94,1.94,0,0,0,.77.53,2.7,2.7,0,0,0,1,.18,3,3,0,0,0,.9-.12,4.33,4.33,0,0,0,.66-.26,4.45,4.45,0,0,0,.46-.26.67.67,0,0,1,.34-.12.36.36,0,0,1,.29.14ZM708,62a5.2,5.2,0,0,1,.55-.51,3.13,3.13,0,0,1,.61-.39,2.8,2.8,0,0,1,.7-.26,3.37,3.37,0,0,1,.8-.1,2.84,2.84,0,0,1,1.17.23,2.37,2.37,0,0,1,.86.63,2.74,2.74,0,0,1,.52,1,4.15,4.15,0,0,1,.18,1.25V69h-1.57V63.82a2.09,2.09,0,0,0-.4-1.35,1.52,1.52,0,0,0-1.23-.49,2.31,2.31,0,0,0-1.12.29,3.5,3.5,0,0,0-1,.77v6h-1.56V60.87h.93a.39.39,0,0,1,.41.31Zm10.35,2.94a2,2,0,0,0,.72-.11,1.38,1.38,0,0,0,.53-.31,1.2,1.2,0,0,0,.32-.5,1.61,1.61,0,0,0,.11-.63,1.48,1.48,0,0,0-.43-1.12,1.7,1.7,0,0,0-1.25-.42,1.74,1.74,0,0,0-1.26.42,1.51,1.51,0,0,0-.42,1.12,1.81,1.81,0,0,0,.1.63,1.34,1.34,0,0,0,.32.49,1.47,1.47,0,0,0,.53.32A2,2,0,0,0,718.3,64.94Zm2.48,4.48a.61.61,0,0,0-.16-.45.92.92,0,0,0-.44-.27,2.62,2.62,0,0,0-.64-.15l-.77-.07-.83,0c-.28,0-.55,0-.81-.08a2.45,2.45,0,0,0-.69.5A1.05,1.05,0,0,0,716.3,70a1.08,1.08,0,0,0,.41.38,2.13,2.13,0,0,0,.7.26,4.85,4.85,0,0,0,1,.1,4.34,4.34,0,0,0,1-.11,2.38,2.38,0,0,0,.74-.28,1.31,1.31,0,0,0,.45-.42A1,1,0,0,0,720.78,69.42Zm1.59-8.24v.58q0,.29-.36.36l-.87.13a2.74,2.74,0,0,1,.17.53,2.62,2.62,0,0,1,.07.57,2.45,2.45,0,0,1-.24,1.09,2.31,2.31,0,0,1-.64.82,2.75,2.75,0,0,1-1,.53,4.06,4.06,0,0,1-1.23.19,4.3,4.3,0,0,1-1-.12,1,1,0,0,0-.36.32.56.56,0,0,0-.12.33.44.44,0,0,0,.23.42,1.82,1.82,0,0,0,.61.2,7.31,7.31,0,0,0,.88.07l1,.06a8.27,8.27,0,0,1,1,.12,2.79,2.79,0,0,1,.87.3,1.57,1.57,0,0,1,.61.56,1.59,1.59,0,0,1,.24.92,2.09,2.09,0,0,1-.26,1,2.6,2.6,0,0,1-.75.88,3.83,3.83,0,0,1-1.21.62,5.32,5.32,0,0,1-1.62.23,6.62,6.62,0,0,1-1.57-.17,3.57,3.57,0,0,1-1.11-.48,2,2,0,0,1-.67-.68,1.75,1.75,0,0,1-.21-.82,1.46,1.46,0,0,1,.36-1,2.49,2.49,0,0,1,1-.65,1.43,1.43,0,0,1-.56-.43,1.2,1.2,0,0,1-.21-.74,1,1,0,0,1,.07-.36,1.3,1.3,0,0,1,.19-.37,1.86,1.86,0,0,1,.33-.36,2.55,2.55,0,0,1,.45-.31,2.57,2.57,0,0,1-.94-.88,2.47,2.47,0,0,1-.35-1.31,2.38,2.38,0,0,1,.24-1.08,2.31,2.31,0,0,1,.64-.82,2.8,2.8,0,0,1,1-.53,4.17,4.17,0,0,1,1.26-.18,3.49,3.49,0,0,1,1.81.44Zm8.19-.31V69h-.94a.39.39,0,0,1-.41-.31l-.12-.82a4.38,4.38,0,0,1-.55.51,3.06,3.06,0,0,1-.61.4,3.23,3.23,0,0,1-.7.25,2.85,2.85,0,0,1-.79.1,2.89,2.89,0,0,1-1.18-.23,2.31,2.31,0,0,1-.85-.62,2.63,2.63,0,0,1-.52-1,4.06,4.06,0,0,1-.18-1.25V60.87h1.57v5.18a2.08,2.08,0,0,0,.4,1.36,1.5,1.5,0,0,0,1.22.48,2.38,2.38,0,0,0,1.12-.28,3.79,3.79,0,0,0,1-.79V60.87ZM732.74,69V60.87h.93a.39.39,0,0,1,.41.31l.11.78a4,4,0,0,1,1-.87,2.4,2.4,0,0,1,1.29-.35,1.88,1.88,0,0,1,1.31.45.72.72,0,1,0,1.2.46,2.31,2.31,0,0,1,.62-.51,2.45,2.45,0,0,1,.73-.3,3.49,3.49,0,0,1,.79-.1,3,3,0,0,1,1.15.21,2.4,2.4,0,0,1,.87.59,2.75,2.75,0,0,1,.53,1,4.4,4.4,0,0,1,.19,1.31V69h-1.57V63.82a2,2,0,0,0-.4-1.37,1.43,1.43,0,0,0-1.15-.47,1.69,1.69,0,0,0-.64.12,1.48,1.48,0,0,0-.54.35,1.64,1.64,0,0,0-.36.57,2.2,2.2,0,0,0-.13.8V69h-1.56V63.82a2.14,2.14,0,0,0-.38-1.39A1.35,1.35,0,0,0,736,62a1.74,1.74,0,0,0-.94.27,2.8,2.8,0,0,0-.79.72v6Zm20-8.13V69h-.94a.41.41,0,0,1-.42-.31l-.11-.82a4.38,4.38,0,0,1-.55.51,3.12,3.12,0,0,1-.62.4,3.35,3.35,0,0,1-.69.25,3.18,3.18,0,0,1-2-.13,2.4,2.4,0,0,1-.85-.62,2.78,2.78,0,0,1-.52-1,4.39,4.39,0,0,1-.17-1.25V60.87h1.56v5.18a2.08,2.08,0,0,0,.41,1.36,1.48,1.48,0,0,0,1.22.48,2.41,2.41,0,0,0,1.12-.28,4,4,0,0,0,1-.79V60.87ZM754.89,69V60.87h.94a.39.39,0,0,1,.41.31l.11.78a4,4,0,0,1,1-.87,2.4,2.4,0,0,1,1.29-.35,1.9,1.9,0,0,1,1.31.45,2.61,2.61,0,0,1,.74,1.2,2.48,2.48,0,0,1,.45-.74,2.79,2.79,0,0,1,1.35-.81,3.65,3.65,0,0,1,.8-.1,3,3,0,0,1,1.15.21,2.28,2.28,0,0,1,.86.59,2.62,2.62,0,0,1,.54,1,4.41,4.41,0,0,1,.18,1.31V69h-1.56V63.82a2,2,0,0,0-.41-1.37,1.41,1.41,0,0,0-1.15-.47,1.77,1.77,0,0,0-.64.12,1.44,1.44,0,0,0-.53.35,1.64,1.64,0,0,0-.36.57,2.2,2.2,0,0,0-.13.8V69h-1.57V63.82a2.08,2.08,0,0,0-.38-1.39,1.34,1.34,0,0,0-1.1-.45,1.74,1.74,0,0,0-.94.27,2.94,2.94,0,0,0-.79.72v6Zm17.59-3.61a11.35,11.35,0,0,0-1.62.15,4.54,4.54,0,0,0-1.08.31,1.63,1.63,0,0,0-.6.45,1,1,0,0,0-.18.58,1.25,1.25,0,0,0,.1.53,1.07,1.07,0,0,0,.27.36,1,1,0,0,0,.41.2,2,2,0,0,0,.5.06,2.73,2.73,0,0,0,.66-.07,2.48,2.48,0,0,0,.56-.2,2.78,2.78,0,0,0,.51-.33,3.84,3.84,0,0,0,.47-.44ZM767.9,62a4.47,4.47,0,0,1,3.23-1.29,3.17,3.17,0,0,1,1.23.23,2.44,2.44,0,0,1,.9.63,2.79,2.79,0,0,1,.56,1,4.16,4.16,0,0,1,.19,1.26V69h-.7a.68.68,0,0,1-.35-.07.59.59,0,0,1-.19-.29l-.17-.71a7,7,0,0,1-.62.51,4.5,4.5,0,0,1-.64.38,3.83,3.83,0,0,1-.7.23,4.25,4.25,0,0,1-.83.08,3,3,0,0,1-.91-.13,2,2,0,0,1-.72-.41,1.91,1.91,0,0,1-.5-.68,2.33,2.33,0,0,1-.18-1,1.81,1.81,0,0,1,.26-.92,2.36,2.36,0,0,1,.85-.8,5.57,5.57,0,0,1,1.53-.58,11.56,11.56,0,0,1,2.34-.25v-.59a2.07,2.07,0,0,0-.39-1.38,1.45,1.45,0,0,0-1.15-.46,2.7,2.7,0,0,0-.87.13,3.36,3.36,0,0,0-.6.29l-.44.28a.62.62,0,0,1-.38.13.45.45,0,0,1-.28-.09.76.76,0,0,1-.19-.21Zm9.66,0a5.2,5.2,0,0,1,.55-.51,2.86,2.86,0,0,1,.61-.39,2.8,2.8,0,0,1,.7-.26,3.37,3.37,0,0,1,.8-.1,2.84,2.84,0,0,1,1.17.23,2.37,2.37,0,0,1,.86.63,2.74,2.74,0,0,1,.52,1,4.15,4.15,0,0,1,.17,1.25V69h-1.56V63.82a2.09,2.09,0,0,0-.4-1.35,1.52,1.52,0,0,0-1.23-.49,2.38,2.38,0,0,0-1.13.29,3.78,3.78,0,0,0-1,.77v6H776.1V60.87H777a.39.39,0,0,1,.41.31ZM663.71,92.54a.3.3,0,0,1,.24.11l.68.73a4.76,4.76,0,0,1-1.72,1.29,6.43,6.43,0,0,1-4.7,0,5.05,5.05,0,0,1-1.73-1.21,5.56,5.56,0,0,1-1.1-1.86,6.93,6.93,0,0,1-.39-2.37,6.72,6.72,0,0,1,.4-2.38A5.69,5.69,0,0,1,656.55,85a5.23,5.23,0,0,1,1.78-1.2,5.89,5.89,0,0,1,2.3-.44,5.67,5.67,0,0,1,2.17.4,5.57,5.57,0,0,1,1.66,1.07l-.56.79a.4.4,0,0,1-.15.14.33.33,0,0,1-.21.06.66.66,0,0,1-.36-.15,4.33,4.33,0,0,0-.54-.34,3.87,3.87,0,0,0-.81-.34,4.28,4.28,0,0,0-1.22-.15,4,4,0,0,0-1.57.3,3.65,3.65,0,0,0-1.23.86,4,4,0,0,0-.8,1.39,5.58,5.58,0,0,0-.28,1.85,5.38,5.38,0,0,0,.3,1.86,3.85,3.85,0,0,0,.81,1.38,3.54,3.54,0,0,0,1.23.87,3.78,3.78,0,0,0,1.52.29,5.89,5.89,0,0,0,.88,0,3.7,3.7,0,0,0,.73-.19,3.05,3.05,0,0,0,.63-.3,4.1,4.1,0,0,0,.59-.46l.13-.08A.29.29,0,0,1,663.71,92.54Zm6.68-1.15a11.21,11.21,0,0,0-1.62.15,4.54,4.54,0,0,0-1.08.31,1.47,1.47,0,0,0-.6.45,1,1,0,0,0-.18.58,1.44,1.44,0,0,0,.09.53,1,1,0,0,0,.68.56,2.1,2.1,0,0,0,.51.06,2.59,2.59,0,0,0,.65-.07,2.75,2.75,0,0,0,.57-.2,2.7,2.7,0,0,0,.5-.33,4.79,4.79,0,0,0,.48-.44ZM665.81,88a4.58,4.58,0,0,1,1.47-1,4.78,4.78,0,0,1,1.75-.32,3.19,3.19,0,0,1,1.24.23,2.61,2.61,0,0,1,.9.63,2.77,2.77,0,0,1,.55,1,3.87,3.87,0,0,1,.19,1.26V95h-.69a.66.66,0,0,1-.35-.07.6.6,0,0,1-.2-.29l-.16-.71c-.21.19-.42.36-.62.51a5.14,5.14,0,0,1-.64.38,3.83,3.83,0,0,1-.7.23,4.36,4.36,0,0,1-.84.08,2.92,2.92,0,0,1-.9-.13,2.09,2.09,0,0,1-.73-.41,1.89,1.89,0,0,1-.49-.68,2.33,2.33,0,0,1-.18-1,1.71,1.71,0,0,1,.26-.92,2.24,2.24,0,0,1,.84-.8,5.78,5.78,0,0,1,1.54-.58,11.39,11.39,0,0,1,2.34-.25v-.59a2,2,0,0,0-.4-1.38,1.44,1.44,0,0,0-1.15-.46,2.64,2.64,0,0,0-.86.13,3.36,3.36,0,0,0-.6.29l-.44.28a.63.63,0,0,1-.39.13.47.47,0,0,1-.28-.09.91.91,0,0,1-.18-.21Zm9.79-4.82V95H674V83.19Zm5.69,3.55a4.18,4.18,0,0,1,1.62.3,3.14,3.14,0,0,1,1.23.84,3.78,3.78,0,0,1,.79,1.32,5.68,5.68,0,0,1,0,3.46,3.78,3.78,0,0,1-.79,1.32,3.14,3.14,0,0,1-1.23.84,4.18,4.18,0,0,1-1.62.29,4.26,4.26,0,0,1-1.63-.29,3.29,3.29,0,0,1-1.23-.84,3.78,3.78,0,0,1-.79-1.32,5.68,5.68,0,0,1,0-3.46,3.78,3.78,0,0,1,.79-1.32,3.29,3.29,0,0,1,1.23-.84A4.26,4.26,0,0,1,681.29,86.74Zm0,7.16a2,2,0,0,0,1.72-.78,4.47,4.47,0,0,0,0-4.37,2,2,0,0,0-1.72-.78,2,2,0,0,0-1.74.78,4.47,4.47,0,0,0,0,4.37A2,2,0,0,0,681.29,93.9ZM688.4,88a4.45,4.45,0,0,1,.56-.51,3.32,3.32,0,0,1,1.3-.65,3.44,3.44,0,0,1,.8-.1,2.89,2.89,0,0,1,1.18.23,2.33,2.33,0,0,1,.85.63,2.74,2.74,0,0,1,.52,1,4.15,4.15,0,0,1,.18,1.25V95h-1.57V89.82a2,2,0,0,0-.4-1.35A1.5,1.5,0,0,0,690.6,88a2.35,2.35,0,0,0-1.13.29,3.66,3.66,0,0,0-1,.77v6h-1.56V86.87h.94a.38.38,0,0,1,.4.31Zm21.88,1.26a6.29,6.29,0,0,1-.41,2.34,5.3,5.3,0,0,1-1.16,1.82,5.12,5.12,0,0,1-1.8,1.16,6.23,6.23,0,0,1-2.33.42h-4.32V83.51h4.32a6.23,6.23,0,0,1,2.33.42,5.29,5.29,0,0,1,1.8,1.17,5.21,5.21,0,0,1,1.16,1.82A6.25,6.25,0,0,1,710.28,89.26Zm-1.74,0a5.51,5.51,0,0,0-.28-1.84,3.79,3.79,0,0,0-.8-1.37,3.36,3.36,0,0,0-1.25-.87,4.42,4.42,0,0,0-1.63-.29H702v8.73h2.61a4.23,4.23,0,0,0,1.63-.29,3.33,3.33,0,0,0,1.25-.86,4,4,0,0,0,.8-1.37A5.56,5.56,0,0,0,708.54,89.26Zm8.85.77a2.57,2.57,0,0,0-.14-.85,1.88,1.88,0,0,0-.38-.68,1.59,1.59,0,0,0-.63-.45,2,2,0,0,0-.85-.16,2.1,2.1,0,0,0-1.55.57,2.73,2.73,0,0,0-.71,1.57Zm1.28,3.81a3.05,3.05,0,0,1-.66.58,4.6,4.6,0,0,1-.8.4,5.15,5.15,0,0,1-.88.22,5.34,5.34,0,0,1-.89.07,4.2,4.2,0,0,1-1.56-.28,3.61,3.61,0,0,1-1.24-.83,3.91,3.91,0,0,1-.81-1.36,5.4,5.4,0,0,1-.29-1.87,4.76,4.76,0,0,1,.26-1.58,4,4,0,0,1,.75-1.28,3.58,3.58,0,0,1,1.21-.85,3.94,3.94,0,0,1,1.6-.32,3.79,3.79,0,0,1,1.37.25,3.07,3.07,0,0,1,1.09.71,3.29,3.29,0,0,1,.71,1.14,4.17,4.17,0,0,1,.26,1.55,1,1,0,0,1-.08.49.32.32,0,0,1-.29.12h-5.33a4.61,4.61,0,0,0,.21,1.27,2.6,2.6,0,0,0,.5.9,2,2,0,0,0,.78.53,2.66,2.66,0,0,0,1,.18,3,3,0,0,0,.89-.12,4.33,4.33,0,0,0,.66-.26,3.59,3.59,0,0,0,.46-.26.67.67,0,0,1,.34-.12.36.36,0,0,1,.3.14Zm6.59-5.57a.5.5,0,0,1-.13.15.36.36,0,0,1-.19,0,.67.67,0,0,1-.28-.08l-.38-.2a3.67,3.67,0,0,0-.51-.19,2.45,2.45,0,0,0-.71-.09,2,2,0,0,0-.61.09,1.58,1.58,0,0,0-.47.23,1,1,0,0,0-.29.36.89.89,0,0,0-.11.43.71.71,0,0,0,.18.5,1.56,1.56,0,0,0,.47.35,6.27,6.27,0,0,0,.67.26l.76.24a6.17,6.17,0,0,1,.75.3,2.34,2.34,0,0,1,.67.4,1.76,1.76,0,0,1,.65,1.43,2.59,2.59,0,0,1-.2,1.05,2.49,2.49,0,0,1-.6.84,3,3,0,0,1-1,.55,4.2,4.2,0,0,1-1.34.2,4.36,4.36,0,0,1-1.55-.28,4.17,4.17,0,0,1-1.19-.71l.37-.6a.44.44,0,0,1,.16-.17.47.47,0,0,1,.26-.07.53.53,0,0,1,.31.12l.38.24a2.57,2.57,0,0,0,1.35.35,2.09,2.09,0,0,0,.69-.1,1.52,1.52,0,0,0,.49-.27,1.18,1.18,0,0,0,.39-.87.77.77,0,0,0-.18-.53,1.53,1.53,0,0,0-.48-.37,3.36,3.36,0,0,0-.66-.26l-.77-.24c-.26-.09-.51-.19-.77-.3a2.71,2.71,0,0,1-.67-.42,1.93,1.93,0,0,1-.65-1.52,2.19,2.19,0,0,1,.2-.91,2.42,2.42,0,0,1,.56-.76,3.08,3.08,0,0,1,.93-.52,3.68,3.68,0,0,1,1.25-.2,4,4,0,0,1,1.46.26,3.55,3.55,0,0,1,1.12.7Zm6.53,3.12a11.2,11.2,0,0,0-1.61.15,4.28,4.28,0,0,0-1.08.31,1.47,1.47,0,0,0-.6.45.94.94,0,0,0-.19.58,1.25,1.25,0,0,0,.1.53,1.22,1.22,0,0,0,.27.36,1.12,1.12,0,0,0,.41.2,2,2,0,0,0,.5.06,2.74,2.74,0,0,0,1.23-.27,3.08,3.08,0,0,0,.5-.33,3.84,3.84,0,0,0,.47-.44ZM727.22,88a4.58,4.58,0,0,1,1.47-1,4.7,4.7,0,0,1,1.75-.32,3.14,3.14,0,0,1,1.23.23,2.56,2.56,0,0,1,.91.63,2.77,2.77,0,0,1,.55,1,3.87,3.87,0,0,1,.19,1.26V95h-.7a.68.68,0,0,1-.35-.07.59.59,0,0,1-.19-.29l-.17-.71c-.21.19-.41.36-.61.51a6,6,0,0,1-.64.38,3.93,3.93,0,0,1-.71.23,4.25,4.25,0,0,1-.83.08,2.92,2.92,0,0,1-.9-.13,2.09,2.09,0,0,1-.73-.41,1.91,1.91,0,0,1-.5-.68,2.52,2.52,0,0,1-.17-1,1.79,1.79,0,0,1,.25-.92,2.36,2.36,0,0,1,.85-.8,5.78,5.78,0,0,1,1.54-.58,11.37,11.37,0,0,1,2.33-.25v-.59a2.07,2.07,0,0,0-.39-1.38,1.44,1.44,0,0,0-1.15-.46,2.75,2.75,0,0,0-.87.13,4.18,4.18,0,0,0-.6.29l-.44.28a.62.62,0,0,1-.38.13.45.45,0,0,1-.28-.09.6.6,0,0,1-.18-.21ZM742,95.13a2,2,0,0,1-1.52-.55A2.22,2.22,0,0,1,740,93V88.14H739a.3.3,0,0,1-.32-.34v-.63L740,87l.35-2.42a.35.35,0,0,1,.36-.29h.79V87h2.31v1.14h-2.31V92.9a1,1,0,0,0,.23.72.87.87,0,0,0,.61.23,1,1,0,0,0,.37-.06l.27-.12.19-.13a.33.33,0,0,1,.15-.05.16.16,0,0,1,.12,0,.35.35,0,0,1,.09.11l.47.75a2.65,2.65,0,0,1-.92.55A3.33,3.33,0,0,1,742,95.13Zm8.59-5.1a2.57,2.57,0,0,0-.14-.85,1.74,1.74,0,0,0-.38-.68,1.63,1.63,0,0,0-.62-.45,2.08,2.08,0,0,0-.85-.16,2.11,2.11,0,0,0-1.56.57,2.73,2.73,0,0,0-.71,1.57Zm1.29,3.81a3.37,3.37,0,0,1-.67.58,4.27,4.27,0,0,1-.8.4,4.93,4.93,0,0,1-.88.22,5.3,5.3,0,0,1-.88.07,4.2,4.2,0,0,1-1.56-.28,3.65,3.65,0,0,1-1.25-.83,4.06,4.06,0,0,1-.81-1.36,5.65,5.65,0,0,1-.29-1.87,4.52,4.52,0,0,1,.27-1.58,3.64,3.64,0,0,1,.75-1.28,3.4,3.4,0,0,1,1.21-.85,3.87,3.87,0,0,1,1.6-.32,3.74,3.74,0,0,1,1.36.25,3,3,0,0,1,1.09.71,3.15,3.15,0,0,1,.71,1.14,4.16,4.16,0,0,1,.27,1.55,1.08,1.08,0,0,1-.08.49.34.34,0,0,1-.3.12h-5.33a4.61,4.61,0,0,0,.21,1.27,2.46,2.46,0,0,0,.51.9,1.87,1.87,0,0,0,.77.53,2.66,2.66,0,0,0,1,.18,3,3,0,0,0,.9-.12,4.62,4.62,0,0,0,.65-.26,4.71,4.71,0,0,0,.47-.26.64.64,0,0,1,.33-.12.36.36,0,0,1,.3.14Zm3.27-5.41a3.64,3.64,0,0,1,.94-1.25,2,2,0,0,1,1.33-.46,1.93,1.93,0,0,1,.49.06,1.33,1.33,0,0,1,.42.18l-.1,1.18a.26.26,0,0,1-.27.21,1.77,1.77,0,0,1-.33,0,2.44,2.44,0,0,0-.48,0,1.74,1.74,0,0,0-.67.12,1.5,1.5,0,0,0-.52.32,2,2,0,0,0-.4.52,7.52,7.52,0,0,0-.33.69V95h-1.56V86.87h.9a.43.43,0,0,1,.34.1.53.53,0,0,1,.14.32ZM761.09,93a2.13,2.13,0,0,0,.83.7,2.32,2.32,0,0,0,1,.2,2,2,0,0,0,1.65-.76,3.65,3.65,0,0,0,.6-2.26,5.5,5.5,0,0,0-.14-1.32,2.49,2.49,0,0,0-.38-.9,1.52,1.52,0,0,0-.62-.51,2,2,0,0,0-.83-.17,2.29,2.29,0,0,0-1.19.31,3.51,3.51,0,0,0-.92.86ZM761,88.09a4.76,4.76,0,0,1,.55-.55,3.76,3.76,0,0,1,.63-.44,3.39,3.39,0,0,1,.71-.28,3.12,3.12,0,0,1,.82-.1A2.83,2.83,0,0,1,765,87a2.66,2.66,0,0,1,1,.8,3.89,3.89,0,0,1,.62,1.31,6.37,6.37,0,0,1,.22,1.78,5.38,5.38,0,0,1-.25,1.68,4.15,4.15,0,0,1-.69,1.34,3.34,3.34,0,0,1-1.11.89,3.16,3.16,0,0,1-1.46.32,3,3,0,0,1-1.25-.24,3,3,0,0,1-.93-.67v3.53h-1.56V86.87h.94a.39.39,0,0,1,.41.31Zm9.16-1.22V95h-1.56V86.87Zm.29-2.51a1.06,1.06,0,0,1-.09.42,1.11,1.11,0,0,1-.24.34,1,1,0,0,1-.34.23,1,1,0,0,1-.42.08.9.9,0,0,1-.4-.08,1.18,1.18,0,0,1-.35-.23,1.56,1.56,0,0,1-.23-.34,1.25,1.25,0,0,1-.08-.42,1.16,1.16,0,0,1,.08-.42,1.36,1.36,0,0,1,.23-.34,1,1,0,0,1,.35-.23.9.9,0,0,1,.4-.09,1,1,0,0,1,.42.09.89.89,0,0,1,.34.23,1,1,0,0,1,.24.34A1,1,0,0,1,770.46,84.36ZM774,83.19V95h-1.56V83.19Zm3.86,3.68V95h-1.56V86.87Zm.3-2.51a1.06,1.06,0,0,1-.09.42,1.31,1.31,0,0,1-.24.34,1,1,0,0,1-.34.23,1,1,0,0,1-.42.08,1,1,0,0,1-.41-.08,1.08,1.08,0,0,1-.57-.57,1,1,0,0,1-.08-.42,1,1,0,0,1,.08-.42,1.13,1.13,0,0,1,.23-.34,1.08,1.08,0,0,1,.34-.23,1,1,0,0,1,.41-.09,1,1,0,0,1,.42.09.89.89,0,0,1,.34.23,1.16,1.16,0,0,1,.24.34A1,1,0,0,1,778.18,84.36Zm3.52,3.54a4.81,4.81,0,0,1,1.13-.84,3.14,3.14,0,0,1,1.43-.32,2.89,2.89,0,0,1,1.18.23,2.25,2.25,0,0,1,.85.63,2.75,2.75,0,0,1,.53,1,4.5,4.5,0,0,1,.17,1.25V95h-1.57V89.82a2,2,0,0,0-.4-1.35A1.49,1.49,0,0,0,783.8,88a2.35,2.35,0,0,0-1.13.29,3.66,3.66,0,0,0-1,.77v6h-1.56V83.19h1.56Z" style="fill:#022b55"/></svg>