<svg width="51" height="148" viewBox="0 0 51 148" fill="none" xmlns="http://www.w3.org/2000/svg">
<g clip-path="url(#clip0_2539:109994)">
<path d="M50.0937 2.12905C50.0937 0.962626 49.1438 0.012207 47.978 0.0122069C46.8122 0.0122069 45.8623 0.962626 45.8623 2.12905C45.8623 3.29548 46.8122 4.2459 47.978 4.2459C49.1438 4.2459 50.0937 3.29548 50.0937 2.12905Z" fill="#9BDBB3"/>
<path d="M50.0937 20.0358C50.0937 18.8694 49.1438 17.9189 47.978 17.9189C46.8122 17.9189 45.8623 18.8694 45.8623 20.0358C45.8623 21.2022 46.8122 22.1526 47.978 22.1526C49.1438 22.1526 50.0937 21.2022 50.0937 20.0358Z" fill="#9BDBB3"/>
<path d="M50.0937 37.9425C50.0937 36.7761 49.1438 35.8257 47.978 35.8257C46.8122 35.8257 45.8623 36.7761 45.8623 37.9425C45.8623 39.1089 46.8122 40.0594 47.978 40.0594C49.1438 40.0594 50.0937 39.1089 50.0937 37.9425Z" fill="#9BDBB3"/>
<path d="M50.0935 55.8493C50.0935 54.6828 49.1436 53.7324 47.9778 53.7324C46.812 53.7324 45.8621 54.6828 45.8621 55.8493C45.8621 57.0157 46.812 57.9661 47.9778 57.9661C49.1436 57.9661 50.0935 57.0157 50.0935 55.8493Z" fill="#9BDBB3"/>
<path d="M50.0935 73.756C50.0935 72.5896 49.1436 71.6392 47.9778 71.6392C46.812 71.6392 45.8621 72.5896 45.8621 73.756C45.8621 74.9224 46.812 75.8728 47.9778 75.8728C49.1436 75.8728 50.0935 74.9224 50.0935 73.756Z" fill="#9BDBB3"/>
<path d="M50.0935 91.6628C50.0935 90.4963 49.1436 89.5459 47.9778 89.5459C46.812 89.5459 45.8621 90.4963 45.8621 91.6628C45.8621 92.8292 46.812 93.7796 47.9778 93.7796C49.1436 93.7796 50.0935 92.8292 50.0935 91.6628Z" fill="#9BDBB3"/>
<path d="M50.0935 109.57C50.0935 108.403 49.1436 107.453 47.9778 107.453C46.812 107.453 45.8621 108.403 45.8621 109.57C45.8621 110.736 46.812 111.687 47.9778 111.687C49.1436 111.687 50.0935 110.736 50.0935 109.57Z" fill="#9BDBB3"/>
<path d="M50.0935 127.476C50.0935 126.31 49.1436 125.36 47.9778 125.36C46.812 125.36 45.8621 126.31 45.8621 127.476C45.8621 128.643 46.812 129.593 47.9778 129.593C49.1436 129.593 50.0935 128.643 50.0935 127.476Z" fill="#9BDBB3"/>
<path d="M45.8838 145.383C45.8838 146.55 46.8337 147.5 47.9995 147.5C49.1653 147.5 50.1152 146.55 50.1152 145.383C50.1152 144.217 49.1653 143.266 47.9995 143.266C46.8337 143.288 45.8838 144.217 45.8838 145.383Z" fill="#9BDBB3"/>
<path d="M34.8303 2.12905C34.8303 0.962626 33.8804 0.012207 32.7146 0.0122069C31.5488 0.0122069 30.5989 0.962626 30.5989 2.12905C30.5989 3.29548 31.5488 4.2459 32.7146 4.2459C33.8804 4.2459 34.8303 3.29548 34.8303 2.12905Z" fill="#9BDBB3"/>
<path d="M34.8303 20.0358C34.8303 18.8694 33.8804 17.9189 32.7146 17.9189C31.5488 17.9189 30.5989 18.8694 30.5989 20.0358C30.5989 21.2022 31.5488 22.1526 32.7146 22.1526C33.8804 22.1526 34.8303 21.2022 34.8303 20.0358Z" fill="#9BDBB3"/>
<path d="M34.8303 37.9425C34.8303 36.7761 33.8804 35.8257 32.7146 35.8257C31.5488 35.8257 30.5989 36.7761 30.5989 37.9425C30.5989 39.1089 31.5488 40.0594 32.7146 40.0594C33.8804 40.0594 34.8303 39.1089 34.8303 37.9425Z" fill="#9BDBB3"/>
<path d="M34.8303 55.8493C34.8303 54.6828 33.8804 53.7324 32.7146 53.7324C31.5488 53.7324 30.5989 54.6828 30.5989 55.8493C30.5989 57.0157 31.5488 57.9661 32.7146 57.9661C33.8804 57.9661 34.8303 57.0157 34.8303 55.8493Z" fill="#9BDBB3"/>
<path d="M34.8303 73.756C34.8303 72.5896 33.8804 71.6392 32.7146 71.6392C31.5488 71.6392 30.5989 72.5896 30.5989 73.756C30.5989 74.9224 31.5488 75.8728 32.7146 75.8728C33.8804 75.8728 34.8303 74.9224 34.8303 73.756Z" fill="#9BDBB3"/>
<path d="M34.8303 91.6628C34.8303 90.4963 33.8804 89.5459 32.7146 89.5459C31.5488 89.5459 30.5989 90.4963 30.5989 91.6628C30.5989 92.8292 31.5488 93.7796 32.7146 93.7796C33.8804 93.7796 34.8303 92.8292 34.8303 91.6628Z" fill="#9BDBB3"/>
<path d="M34.8303 109.57C34.8303 108.403 33.8804 107.453 32.7146 107.453C31.5488 107.453 30.5989 108.403 30.5989 109.57C30.5989 110.736 31.5488 111.687 32.7146 111.687C33.8804 111.687 34.8303 110.736 34.8303 109.57Z" fill="#9BDBB3"/>
<path d="M34.8303 127.476C34.8303 126.31 33.8804 125.36 32.7146 125.36C31.5488 125.36 30.5989 126.31 30.5989 127.476C30.5989 128.643 31.5488 129.593 32.7146 129.593C33.8804 129.593 34.8303 128.643 34.8303 127.476Z" fill="#9BDBB3"/>
<path d="M34.8303 145.383C34.8303 144.217 33.8804 143.266 32.7146 143.266C31.5488 143.266 30.5989 144.217 30.5989 145.383C30.5989 146.55 31.5488 147.5 32.7146 147.5C33.8804 147.5 34.8303 146.55 34.8303 145.383Z" fill="#9BDBB3"/>
<path d="M19.5669 2.12905C19.5669 0.962626 18.617 0.012207 17.4512 0.0122069C16.2854 0.0122069 15.3355 0.962626 15.3355 2.12905C15.3355 3.29548 16.2854 4.2459 17.4512 4.2459C18.617 4.2459 19.5669 3.29548 19.5669 2.12905Z" fill="#9BDBB3"/>
<path d="M19.5669 20.0358C19.5669 18.8694 18.617 17.9189 17.4512 17.9189C16.2854 17.9189 15.3355 18.8694 15.3355 20.0358C15.3355 21.2022 16.2854 22.1526 17.4512 22.1526C18.617 22.1526 19.5669 21.2022 19.5669 20.0358Z" fill="#9BDBB3"/>
<path d="M19.5669 37.9425C19.5669 36.7761 18.617 35.8257 17.4512 35.8257C16.2854 35.8257 15.3355 36.7761 15.3355 37.9425C15.3355 39.1089 16.2854 40.0594 17.4512 40.0594C18.617 40.0594 19.5669 39.1089 19.5669 37.9425Z" fill="#9BDBB3"/>
<path d="M19.5669 55.8493C19.5669 54.6828 18.617 53.7324 17.4512 53.7324C16.2854 53.7324 15.3355 54.6828 15.3355 55.8493C15.3355 57.0157 16.2854 57.9661 17.4512 57.9661C18.617 57.9661 19.5669 57.0157 19.5669 55.8493Z" fill="#9BDBB3"/>
<path d="M19.5669 73.756C19.5669 72.5896 18.617 71.6392 17.4512 71.6392C16.2854 71.6392 15.3355 72.5896 15.3355 73.756C15.3355 74.9224 16.2854 75.8728 17.4512 75.8728C18.617 75.8728 19.5669 74.9224 19.5669 73.756Z" fill="#9BDBB3"/>
<path d="M19.5669 91.6628C19.5669 90.4963 18.617 89.5459 17.4512 89.5459C16.2854 89.5459 15.3355 90.4963 15.3355 91.6628C15.3355 92.8292 16.2854 93.7796 17.4512 93.7796C18.617 93.7796 19.5669 92.8292 19.5669 91.6628Z" fill="#9BDBB3"/>
<path d="M19.5669 109.57C19.5669 108.403 18.617 107.453 17.4512 107.453C16.2854 107.453 15.3355 108.403 15.3355 109.57C15.3355 110.736 16.2854 111.687 17.4512 111.687C18.617 111.687 19.5669 110.736 19.5669 109.57Z" fill="#9BDBB3"/>
<path d="M19.5669 127.476C19.5669 126.31 18.617 125.36 17.4512 125.36C16.2854 125.36 15.3355 126.31 15.3355 127.476C15.3355 128.643 16.2854 129.593 17.4512 129.593C18.617 129.593 19.5669 128.643 19.5669 127.476Z" fill="#9BDBB3"/>
<path d="M15.3355 145.383C15.3355 146.552 16.2827 147.5 17.4512 147.5C18.6197 147.5 19.5669 146.552 19.5669 145.383C19.5669 144.214 18.6197 143.266 17.4512 143.266C16.2827 143.266 15.3355 144.214 15.3355 145.383Z" fill="#9BDBB3"/>
<path d="M4.30347 2.12905C4.30347 0.962626 3.35355 0.012207 2.18775 0.0122069C1.02194 0.0122069 0.0720291 0.962626 0.072029 2.12905C0.072029 3.29548 1.02194 4.2459 2.18775 4.2459C3.35355 4.2459 4.30347 3.29548 4.30347 2.12905Z" fill="#9BDBB3"/>
<path d="M4.30347 20.0358C4.30347 18.8694 3.35355 17.9189 2.18775 17.9189C1.02194 17.9189 0.0720291 18.8694 0.072029 20.0358C0.072029 21.2022 1.02194 22.1526 2.18775 22.1526C3.35355 22.1526 4.30347 21.2022 4.30347 20.0358Z" fill="#9BDBB3"/>
<path d="M4.30347 37.9425C4.30347 36.7761 3.35355 35.8257 2.18775 35.8257C1.02194 35.8257 0.0720291 36.7761 0.072029 37.9425C0.072029 39.1089 1.02194 40.0594 2.18775 40.0594C3.35355 40.0594 4.30347 39.1089 4.30347 37.9425Z" fill="#9BDBB3"/>
<path d="M4.30347 55.8493C4.30347 54.6828 3.35355 53.7324 2.18775 53.7324C1.02194 53.7324 0.0720291 54.6828 0.072029 55.8493C0.072029 57.0157 1.02194 57.9661 2.18775 57.9661C3.35355 57.9661 4.30347 57.0157 4.30347 55.8493Z" fill="#9BDBB3"/>
<path d="M4.30347 73.756C4.30347 72.5896 3.35355 71.6392 2.18775 71.6392C1.02194 71.6392 0.0720291 72.5896 0.072029 73.756C0.072029 74.9224 1.02194 75.8728 2.18775 75.8728C3.35355 75.8728 4.30347 74.9224 4.30347 73.756Z" fill="#9BDBB3"/>
<path d="M4.30347 91.6628C4.30347 90.4963 3.35355 89.5459 2.18775 89.5459C1.02194 89.5459 0.0720291 90.4963 0.072029 91.6628C0.072029 92.8292 1.02194 93.7796 2.18775 93.7796C3.35355 93.7796 4.30347 92.8292 4.30347 91.6628Z" fill="#9BDBB3"/>
<path d="M4.30347 109.57C4.30347 108.403 3.35355 107.453 2.18775 107.453C1.02194 107.453 0.0720291 108.403 0.072029 109.57C0.072029 110.736 1.02194 111.687 2.18775 111.687C3.35355 111.687 4.30347 110.736 4.30347 109.57Z" fill="#9BDBB3"/>
<path d="M4.30347 127.476C4.30347 126.31 3.35355 125.36 2.18775 125.36C1.02194 125.36 0.0720291 126.31 0.072029 127.476C0.072029 128.643 1.02194 129.593 2.18775 129.593C3.35355 129.593 4.30347 128.643 4.30347 127.476Z" fill="#9BDBB3"/>
<path d="M0.072029 145.383C0.072029 146.552 1.01927 147.5 2.18775 147.5C3.35622 147.5 4.30347 146.552 4.30347 145.383C4.30347 144.214 3.35622 143.266 2.18775 143.266C1.01927 143.266 0.0720291 144.214 0.072029 145.383Z" fill="#9BDBB3"/>
</g>
<defs>
<clipPath id="clip0_2539:109994">
<rect width="147" height="50" fill="white" transform="translate(50.5 0.5) rotate(90)"/>
</clipPath>
</defs>
</svg>
