<svg width="600" height="524" viewBox="0 0 600 524" fill="none" xmlns="http://www.w3.org/2000/svg">
<g clip-path="url(#clip0_3768_205218)">
<path d="M600 0.5H0V523.5H600V0.5Z" fill="#32E6F9"/>
<path d="M600 359.88C556.22 327.15 527.13 302.37 461.66 291.2C358.66 273.6 248.51 443.69 184.76 433.53C114.53 422.34 43.2901 380.26 43.2901 380.26L41.6801 496H600V359.88Z" fill="#37D9F4"/>
<path opacity="0.9" d="M463.43 291.21C463.43 291.21 432.64 288.86 405 308.21C377.36 327.56 397.8 359.21 427.91 358.64C458.02 358.07 470.69 354.03 488.58 366.03C506.47 378.03 471.1 389.87 452.81 393.14C434.52 396.41 431 432.39 518.74 433.24C595.24 433.99 600 441.14 600 441.14V359.88C551.76 318.39 500.58 293.36 463.43 291.21Z" fill="#34E0F7"/>
<path d="M283.26 442.82L269.88 390.71C269.811 390.456 269.692 390.219 269.531 390.011C269.369 389.804 269.169 389.63 268.94 389.5C268.712 389.37 268.46 389.286 268.199 389.254C267.938 389.221 267.673 389.24 267.42 389.31H267.37L262.23 390.9C261.959 390.985 261.708 391.127 261.496 391.317C261.284 391.507 261.115 391.74 261 392L258.38 397.53H255.1L244.88 379C244.429 378.184 243.735 377.53 242.894 377.128C242.053 376.727 241.108 376.598 240.19 376.76L221.72 380C221.72 380 217.99 380.53 215.9 376.17C214.02 372.24 201.9 341.62 199.47 334.06C199.338 333.642 199.107 333.262 198.797 332.953C198.488 332.643 198.108 332.412 197.69 332.28L189.4 329.59C188.787 329.388 188.123 329.407 187.523 329.642C186.922 329.878 186.422 330.315 186.11 330.88C183.79 335.03 178.38 344.38 176.27 345.02C173.304 345.587 170.289 345.858 167.27 345.83L159.73 321.52C159.632 321.17 159.466 320.844 159.241 320.558C159.017 320.273 158.738 320.035 158.421 319.857C158.105 319.68 157.756 319.567 157.395 319.524C157.035 319.482 156.669 319.511 156.32 319.61C156.172 319.648 156.027 319.702 155.89 319.77L106.19 341.59C105.904 341.708 105.652 341.896 105.458 342.138C105.264 342.379 105.134 342.665 105.08 342.97C104.431 346.881 103.58 350.756 102.53 354.58C101.86 356.13 87.05 365.19 81.42 368.58C80.0466 369.434 78.9924 370.717 78.42 372.23L50.26 437.67L283.26 442.82Z" fill="#8D8183"/>
<path d="M240.21 376.72L233.1 395.67C232.518 397.243 232.154 398.888 232.02 400.56L228.53 437.7L208.33 437.78L208.81 402.39C209.089 399.562 209.867 396.806 211.11 394.25L221.72 380.07L240.21 376.72Z" fill="#6B6162"/>
<path d="M233.05 395.01L229.39 440.7L226.07 440.78L225.73 395.01H233.05Z" fill="#635A5C"/>
<path d="M233 395H209.28C207.963 395.434 206.822 396.282 206.025 397.417C205.229 398.552 204.82 399.914 204.86 401.3V440.77H228.36V401.31C228.36 401.31 228.18 395.22 233 395Z" fill="#32E6F9"/>
<path d="M228.4 400.9C228.4 399.51 228.94 395.19 233 395.01H209.28C208.037 395.431 206.952 396.22 206.168 397.272C205.384 398.323 204.938 399.589 204.89 400.9H228.4Z" fill="#B6FCFF"/>
<path d="M218.1 395.06C218.1 395.06 216.1 395.38 216.1 400.67V430.43C216.089 430.72 216.142 431.009 216.254 431.277C216.366 431.544 216.536 431.784 216.75 431.98C216.936 432.149 217.154 432.279 217.391 432.363C217.628 432.447 217.879 432.484 218.13 432.47C218.405 432.455 218.672 432.377 218.912 432.242C219.151 432.107 219.356 431.918 219.51 431.69C219.772 431.315 219.908 430.867 219.9 430.41V400.67C219.9 400.67 219.9 395.05 222.19 395.02L218.1 395.06Z" fill="#B6FCFF"/>
<path d="M219.81 400.9V400.67C219.81 400.67 219.81 395.05 222.11 395.02H218.06C218.06 395.02 216.06 395.34 216.06 400.63V400.85L219.81 400.9Z" fill="white"/>
<path d="M209.62 395.06C209.62 395.06 207.79 395.38 207.79 400.67V421.28C207.769 421.856 207.978 422.417 208.37 422.84C208.527 422.997 208.714 423.121 208.921 423.203C209.127 423.286 209.348 423.325 209.57 423.32C209.83 423.31 210.082 423.233 210.303 423.096C210.524 422.96 210.705 422.768 210.83 422.54C211.072 422.165 211.198 421.726 211.19 421.28V400.67C211.19 400.67 211.19 395.05 213.25 395.02L209.62 395.06Z" fill="#B6FCFF"/>
<path d="M211.19 400.9V400.67C211.19 400.67 211.19 395.05 213.25 395.02H209.62C209.62 395.02 207.79 395.34 207.79 400.63V400.85L211.19 400.9Z" fill="white"/>
<path d="M78.3499 372.19C78.4133 372.02 78.5097 371.864 78.6336 371.731C78.7574 371.598 78.9063 371.49 79.0717 371.415C79.2371 371.34 79.4157 371.298 79.5973 371.292C79.7789 371.286 79.9599 371.316 80.1299 371.38C80.3517 371.461 80.5482 371.599 80.6999 371.78C83.4699 375.04 90.38 375 101.43 376.72C109.43 377.95 114.3 378.82 117.16 379.38C117.925 379.535 118.599 379.982 119.04 380.626C119.48 381.27 119.653 382.061 119.52 382.83C119.491 382.979 119.45 383.126 119.4 383.27C117.89 387.59 115.68 394.81 117.48 395.78C120.06 397.16 151.63 409.1 156.28 412.96C160.93 416.82 163 437.84 163 437.84L50.2 437.75L78.3499 372.19Z" fill="#6B6162"/>
<path d="M189.47 329.6C188.858 329.395 188.195 329.411 187.594 329.645C186.993 329.879 186.492 330.316 186.18 330.88C185.02 332.93 181.42 338.88 181.42 338.88C181.42 338.88 178.05 344.41 176.34 344.99C174.63 345.57 183.44 344.99 183.44 344.99L189.47 329.6Z" fill="#6B6162"/>
<path d="M113.5 338.39L111.13 348.06C110.957 348.782 110.627 349.457 110.164 350.038C109.701 350.619 109.116 351.09 108.45 351.42L102.34 354.75L105 343C105.075 342.693 105.219 342.407 105.42 342.163C105.62 341.919 105.873 341.723 106.16 341.59L113.5 338.39Z" fill="#6B6162"/>
<path d="M600 523.5H1V425C1 425 115.85 426.54 239.78 436.71C382.6 448.44 600 523.5 600 523.5Z" fill="#23B781"/>
<path d="M473.1 470C498.94 467.47 524.24 460.82 549.1 452.73C549.488 452.695 549.846 452.508 550.096 452.21C550.347 451.912 550.471 451.528 550.44 451.14C550.418 450.925 550.35 450.717 550.24 450.53C550.012 450.119 549.646 449.802 549.207 449.634C548.769 449.465 548.285 449.457 547.84 449.61C548.32 448.75 547.16 447.61 546.3 448.05C546.217 447.672 546.058 447.315 545.833 447.001C545.608 446.686 545.321 446.421 544.99 446.22C544.528 445.898 543.985 445.709 543.422 445.676C542.859 445.642 542.298 445.765 541.8 446.03C541.65 445.801 541.455 445.604 541.228 445.45C541.001 445.296 540.746 445.189 540.478 445.134C540.209 445.079 539.933 445.078 539.663 445.131C539.394 445.183 539.138 445.288 538.91 445.44V445.44C538.502 445.08 537.968 444.895 537.425 444.927C536.882 444.959 536.373 445.204 536.01 445.61C535.873 445.77 535.758 445.949 535.67 446.14C535.032 445.921 534.34 445.915 533.699 446.122C533.057 446.33 532.499 446.739 532.11 447.29C531.306 446.562 530.255 446.168 529.17 446.19C528.388 446.189 527.621 446.411 526.96 446.83C526.879 446.153 526.652 445.503 526.295 444.922C525.937 444.342 525.458 443.847 524.89 443.47C524.629 443.301 524.351 443.16 524.06 443.05C523.271 442.761 522.418 442.693 521.593 442.853C520.768 443.014 520.003 443.396 519.38 443.96C518.969 443.56 518.419 443.336 517.845 443.336C517.272 443.336 516.721 443.56 516.31 443.96C515.497 443.6 514.593 443.499 513.72 443.67C513.617 443.314 513.444 442.983 513.212 442.694C512.98 442.406 512.692 442.166 512.367 441.989C512.041 441.813 511.684 441.702 511.315 441.665C510.947 441.627 510.575 441.663 510.22 441.77C509.821 441.889 509.453 442.093 509.142 442.37C508.831 442.646 508.585 442.988 508.42 443.37C508.175 443.256 507.909 443.191 507.638 443.179C507.368 443.167 507.097 443.209 506.843 443.302C506.588 443.395 506.354 443.537 506.155 443.72C505.955 443.903 505.794 444.124 505.68 444.37C505.579 444.584 505.515 444.814 505.49 445.05C504.524 444.734 503.479 444.76 502.53 445.124C501.581 445.488 500.786 446.168 500.28 447.05C499.835 446.872 499.343 446.851 498.884 446.991C498.426 447.131 498.029 447.423 497.76 447.82C497.283 447.338 496.656 447.032 495.982 446.952C495.308 446.872 494.627 447.023 494.05 447.38C493.506 447.823 493.08 448.394 492.81 449.041C492.539 449.688 492.433 450.392 492.5 451.09C492.07 451.347 491.705 451.7 491.434 452.122C491.164 452.543 490.995 453.022 490.94 453.52C490.325 453.294 489.659 453.238 489.015 453.36C488.37 453.481 487.771 453.775 487.28 454.21C486.798 454.659 486.446 455.229 486.26 455.86C486.073 456.492 486.06 457.162 486.22 457.8C485.602 457.808 485 458.004 484.495 458.361C483.99 458.718 483.604 459.22 483.39 459.8C482.832 459.511 482.2 459.399 481.577 459.477C480.953 459.556 480.369 459.822 479.9 460.24C479.58 460.53 479.33 460.889 479.17 461.29C478.851 462.062 478.851 462.929 479.17 463.7C478.782 463.673 478.398 463.8 478.104 464.055C477.809 464.31 477.628 464.672 477.6 465.06V465.16C477.283 464.823 476.863 464.601 476.406 464.528C475.949 464.455 475.481 464.536 475.075 464.758C474.669 464.98 474.348 465.33 474.163 465.754C473.977 466.178 473.938 466.651 474.05 467.1C473.752 467.171 473.478 467.319 473.255 467.53C473.032 467.74 472.868 468.006 472.78 468.3C472.692 468.593 472.682 468.905 472.753 469.203C472.823 469.502 472.97 469.777 473.18 470H473.1Z" fill="#00707A"/>
<path d="M571.32 423.34C571.48 422.56 572.18 422.53 572.42 423.25L574.06 427.81L573.32 428.17C573.16 428.24 573.24 428.42 573.41 428.4L574.23 428.31L578.23 439.46L576.59 440.28C576.39 440.4 576.45 440.57 576.69 440.53L578.55 440.35L581.15 447.61L567.08 448.86L569.31 435.51H570.37C570.57 435.51 570.57 435.32 570.37 435.26L569.37 434.81L571.32 423.34Z" fill="#0E8E5D"/>
<path d="M552.28 412.68C552.57 411.4 553.82 411.36 554.28 412.5L557.1 419.84L555.78 420.41C555.5 420.54 555.61 420.82 555.94 420.79L557.4 420.66L564.27 438.66L561.28 440C560.95 440.19 561.03 440.47 561.46 440.4L564.73 440.07L569.22 451.81L544.43 454L548.53 432.35L550.39 432.2C550.75 432.2 550.75 431.91 550.51 431.79L548.77 431.09L552.28 412.68Z" fill="#23B781"/>
<path d="M421.28 466.24C420.97 465.4 420.19 465.5 420.05 466.32L419.05 471.62L419.91 471.88C420.1 471.88 420.06 472.15 419.91 472.16H419L416.51 485.08L418.46 485.71C418.68 485.8 418.65 486 418.37 485.99L416.31 486.11L414.68 494.54L430.36 493.54L425.66 479.24L424.49 479.33C424.25 479.33 424.23 479.16 424.37 479.07L425.37 478.41L421.28 466.24Z" fill="#23B781"/>
<path d="M438.41 446.81C438.01 445.69 436.94 445.81 436.76 446.91L435.4 453.91L436.56 454.26C436.81 454.35 436.75 454.62 436.47 454.63H435.25L431.92 471.83L434.52 472.68C434.83 472.81 434.78 473.08 434.42 473.06L431.66 473.21L429.49 484.43L450.37 483.11L444.11 464.05L442.54 464.16C442.23 464.16 442.2 463.94 442.39 463.81L443.74 462.95L438.41 446.81Z" fill="#0E8E5D"/>
<path d="M456.85 476.14C456.359 475.554 456.012 474.86 455.838 474.114C455.665 473.369 455.669 472.594 455.85 471.85C456.008 471.211 456.392 470.651 456.93 470.272C457.468 469.894 458.125 469.723 458.78 469.79C458.66 469.139 458.803 468.467 459.178 467.922C459.553 467.376 460.129 467.002 460.78 466.88C461.019 466.85 461.261 466.85 461.5 466.88C461.015 466.159 460.733 465.32 460.686 464.452C460.638 463.584 460.826 462.72 461.23 461.95C461.655 461.336 462.297 460.906 463.027 460.748C463.757 460.59 464.519 460.716 465.16 461.1C465.354 460.16 465.85 459.31 466.572 458.678C467.294 458.046 468.203 457.668 469.16 457.6C470.209 457.684 471.218 458.042 472.085 458.639C472.952 459.235 473.647 460.05 474.1 461C474.97 459.53 477.29 459.83 478.25 461.54C478.544 460.893 479.051 460.366 479.685 460.046C480.32 459.726 481.045 459.632 481.74 459.78C482.517 460.008 483.228 460.42 483.813 460.98C484.398 461.54 484.839 462.233 485.1 463C487.17 461.61 490.58 463.56 491.36 466.58C481.81 469.71 472.14 472.42 456.85 476.14Z" fill="#179668"/>
<path d="M600 445.12C600 445.12 449.13 458.32 361.91 514.75L599.99 515.39L600 445.12Z" fill="#3ECC8E"/>
<path d="M349.79 492.47C349.784 490.866 350.191 489.287 350.972 487.886C351.753 486.484 352.882 485.308 354.25 484.47C355.576 483.771 357.085 483.5 358.571 483.693C360.057 483.887 361.447 484.535 362.55 485.55C363.426 484.347 364.744 483.542 366.214 483.309C367.683 483.077 369.185 483.437 370.39 484.31C371.075 484.812 371.639 485.461 372.04 486.21C377.32 480.21 387.29 481.21 391.58 488.16C391.676 486.992 392.104 485.876 392.812 484.942C393.521 484.009 394.481 483.297 395.58 482.89C396.671 482.613 397.822 482.696 398.862 483.127C399.902 483.558 400.774 484.313 401.35 485.28C402.25 479.9 407 475.71 411.8 476.07C416.6 476.43 420.8 481.24 421.12 486.7C423.175 485.361 425.662 484.854 428.077 485.284C430.492 485.713 432.652 487.045 434.12 489.01C434.753 487.447 435.98 486.198 437.532 485.538C439.084 484.878 440.835 484.861 442.4 485.49L442.87 485.7C446 487.28 447.95 491.04 448.64 494.82C449.33 498.6 448.93 502.59 448.54 506.45C414.81 502.45 384.22 502.99 350.34 505.01C351.67 501.41 349.78 501.29 349.79 492.47Z" fill="#00707A"/>
<path d="M531.87 440.91H458.04V471.9H531.87V440.91Z" fill="#FCEAE8"/>
<path d="M458.03 440.91L490.19 471.9L425.86 477.59V471.9L458.03 440.91Z" fill="#9C2740"/>
<path d="M531.86 440.91L564.02 471.9H499.68L531.86 440.91Z" fill="#FCEAE8"/>
<path d="M564.02 471.9H483.08V512.93H564.02V471.9Z" fill="#94214F"/>
<path d="M425.86 476.65V512.94H490.19V477.07L458.03 446.69L425.86 476.65Z" fill="#D4375C"/>
<path d="M521.47 443.51H481.2L506.63 468.24H544.11L521.47 443.51Z" fill="#41859A"/>
<path d="M521.28 444.01H482.45L506.98 467.86H543.11L521.28 444.01Z" fill="#1F4E59"/>
<path d="M521.02 444.4H482.85L506.97 467.85H542.49L521.02 444.4Z" fill="#41A7C0"/>
<path d="M520.14 444.48H508.07L514.41 467.86H527.68L520.14 444.48Z" fill="#56C0D7"/>
<path d="M506.14 444.48H503.17L507.18 467.86H511.35L506.14 444.48Z" fill="#56C0D7"/>
<path d="M490.79 443.89H490.25L513.14 467.99H513.68L490.79 443.89Z" fill="#41859A"/>
<path d="M498.46 443.89H497.92L520.81 467.99H521.35L498.46 443.89Z" fill="#41859A"/>
<path d="M506.13 443.89H505.6L528.48 467.99H529.02L506.13 443.89Z" fill="#41859A"/>
<path d="M513.81 443.89H513.27L536.16 467.99H536.7L513.81 443.89Z" fill="#41859A"/>
<path d="M528.27 451.3L527.87 450.87H489.04L489.48 451.3H528.27Z" fill="#41859A"/>
<path d="M536.11 459.54L535.72 459.1H497.63L498.07 459.54H536.11Z" fill="#41859A"/>
<path d="M540.49 474.79H527.27V492.24H540.49V474.79Z" fill="#271329"/>
<path d="M461.01 455.37H454.7V465.9H461.01V455.37Z" fill="#FCEAE8"/>
<path d="M460.26 456.62H455.46V464.65H460.26V456.62Z" fill="#271329"/>
<path d="M600 517.8C600.075 515.897 599.636 514.009 598.73 512.334C597.824 510.659 596.484 509.259 594.85 508.28C593.223 507.43 591.381 507.08 589.555 507.274C587.73 507.468 586.002 508.197 584.59 509.37C584.341 506.794 583.388 504.337 581.836 502.266C580.284 500.196 578.192 498.592 575.79 497.63C573.379 496.843 570.792 496.774 568.343 497.433C565.894 498.092 563.69 499.45 562 501.34C561.153 500.224 559.999 499.38 558.679 498.911C557.359 498.442 555.931 498.368 554.57 498.7C553.179 499.128 551.928 499.92 550.947 500.994C549.966 502.069 549.29 503.386 548.99 504.81C547.01 502.78 544.424 501.448 541.622 501.014C538.82 500.579 535.952 501.066 533.45 502.4C528.37 505.14 525.23 511.46 525.87 517.46C551.41 516.78 576.92 518 600 517.8Z" fill="#179668"/>
<path d="M1 524V497.54C1 497.54 380.61 486.92 600 516.35V524H1Z" fill="#3ECC8E"/>
<path d="M186.59 425.98H149.91V441.38H186.59V425.98Z" fill="#FCEAE8"/>
<path d="M186.59 425.98L170.62 441.38L202.57 444.21V441.38L186.59 425.98Z" fill="#9C2740"/>
<path d="M185.91 457.43C185.879 456.893 185.987 456.357 186.226 455.875C186.464 455.393 186.824 454.981 187.27 454.68C187.701 454.423 188.202 454.307 188.702 454.348C189.202 454.39 189.677 454.586 190.06 454.91C190.237 454.647 190.478 454.432 190.759 454.286C191.04 454.14 191.354 454.066 191.671 454.072C191.988 454.078 192.299 454.163 192.575 454.32C192.851 454.477 193.083 454.7 193.25 454.97C193.662 454.486 194.18 454.103 194.764 453.852C195.348 453.6 195.982 453.487 196.617 453.521C197.251 453.555 197.87 453.735 198.424 454.047C198.978 454.359 199.452 454.795 199.81 455.32C199.826 454.926 199.954 454.545 200.179 454.221C200.404 453.897 200.717 453.643 201.08 453.49C201.444 453.372 201.837 453.376 202.198 453.503C202.559 453.629 202.869 453.871 203.08 454.19C203.168 453.352 203.549 452.572 204.157 451.988C204.765 451.404 205.559 451.054 206.4 451C207.257 451.095 208.054 451.488 208.653 452.108C209.252 452.729 209.615 453.54 209.68 454.4C210.349 453.914 211.178 453.703 211.998 453.809C212.818 453.915 213.566 454.33 214.09 454.97C214.276 454.437 214.666 454 215.174 453.754C215.682 453.509 216.267 453.475 216.8 453.66L216.96 453.72C217.51 454.032 217.982 454.463 218.342 454.983C218.702 455.502 218.941 456.096 219.04 456.72C219.272 458.376 219.322 460.053 219.19 461.72C207.34 462.34 198.51 460.88 186.32 461.72C186.68 460.39 186 460.38 185.91 457.43Z" fill="#FFBC4F"/>
<path d="M149.91 425.98L133.93 441.38H165.9L149.91 425.98Z" fill="#FCEAE8"/>
<path d="M174.14 441.38H133.93V461.77H174.14V441.38Z" fill="#94214F"/>
<path d="M202.57 443.74V461.77H170.62V443.95L186.59 428.86L202.57 443.74Z" fill="#D4375C"/>
<path d="M155.07 427.27H175.08L162.44 439.56H143.83L155.07 427.27Z" fill="#41859A"/>
<path d="M155.17 427.52H174.46L162.27 439.37H144.32L155.17 427.52Z" fill="#1F4E59"/>
<path d="M155.29 427.72H174.26L162.28 439.37H144.63L155.29 427.72Z" fill="#41A7C0"/>
<path d="M155.74 427.75H161.73L158.58 439.37H151.99L155.74 427.75Z" fill="#56C0D7"/>
<path d="M162.69 427.75H164.16L162.17 439.37H160.1L162.69 427.75Z" fill="#56C0D7"/>
<path d="M170.32 427.46H170.59L159.21 439.43H158.95L170.32 427.46Z" fill="#41859A"/>
<path d="M166.5 427.46H166.77L155.4 439.43H155.13L166.5 427.46Z" fill="#41859A"/>
<path d="M162.69 427.46H162.96L151.59 439.43H151.32L162.69 427.46Z" fill="#41859A"/>
<path d="M158.88 427.46H159.15L147.78 439.43H147.51L158.88 427.46Z" fill="#41859A"/>
<path d="M151.69 431.14L151.89 430.93H171.19L170.96 431.14H151.69Z" fill="#41859A"/>
<path d="M147.8 435.24L147.99 435.02H166.92L166.7 435.24H147.8Z" fill="#41859A"/>
<path d="M152.19 442.82H145.62V451.49H152.19V442.82Z" fill="#271329"/>
<path d="M188.24 433.16H185.11V438.39H188.24V433.16Z" fill="#FCEAE8"/>
<path d="M187.87 433.79H185.48V437.78H187.87V433.79Z" fill="#271329"/>
<path d="M113.06 465.18C113.021 464.159 113.256 463.147 113.742 462.248C114.227 461.349 114.945 460.597 115.82 460.07C116.694 459.61 117.685 459.42 118.668 459.524C119.65 459.627 120.58 460.019 121.34 460.65C121.472 459.266 121.984 457.946 122.818 456.834C123.653 455.722 124.778 454.863 126.07 454.35C127.362 453.932 128.747 453.898 130.057 454.253C131.367 454.608 132.546 455.337 133.45 456.35C133.904 455.747 134.525 455.291 135.237 455.039C135.948 454.786 136.717 454.749 137.45 454.93C138.199 455.156 138.873 455.581 139.401 456.158C139.929 456.735 140.291 457.444 140.45 458.21C141.51 457.113 142.899 456.392 144.407 456.158C145.914 455.923 147.457 456.187 148.8 456.91C150.183 457.729 151.302 458.927 152.025 460.363C152.749 461.798 153.045 463.411 152.88 465.01C139.16 464.63 125.45 465.26 113.06 465.18Z" fill="#179668"/>
<path d="M0 0V524C3.2 519.26 55.17 512.18 79.26 468.72C96.38 437.86 91.16 450.36 104.55 419.86C151.82 312.22 259.69 351.24 319.36 259.65C343.2 211.32 364.19 173.19 412.45 128.9C476 70.62 600 90.84 600 90.84V0H0Z" fill="#64F8FF"/>
<path d="M0 0V524C3.2 519.26 55.17 512.18 79.26 468.72C96.38 437.86 91.16 450.36 104.55 419.86C151.82 312.22 239.69 351.24 299.36 259.65C323.2 211.32 344.19 163.19 392.45 118.9C456 60.62 600 90.84 600 90.84V0H0Z" fill="#E6FFFE"/>
<path d="M0 0V524C3.2 519.26 31.17 512.18 55.26 468.72C72.38 437.86 63.12 392.09 80.7 363.27C118.84 300.75 141.63 335.92 218.7 258.35C272.53 204.15 245.76 118.14 320.11 59.93C436.29 -31.06 600 47.84 600 47.84V0H0Z" fill="white"/>
<path opacity="0.5" d="M327.24 456.22L321.67 453.94L320.07 454.02L324.17 456.22H327.24Z" fill="#179668"/>
<path opacity="0.5" d="M318.67 454.1L313.72 454.4L314.03 453.99L327.49 453.38L328.28 453.65L318.67 454.1Z" fill="#179668"/>
<path d="M324.17 456.22C324.698 456.382 325.248 456.466 325.8 456.47C326.98 456.47 327.24 456.22 327.24 456.22L326.08 425.06H325.25L324.17 456.22Z" fill="white"/>
<path d="M325.82 424.17H325.47C325.067 424.17 324.74 424.497 324.74 424.9V424.91C324.74 425.313 325.067 425.64 325.47 425.64H325.82C326.223 425.64 326.55 425.313 326.55 424.91V424.9C326.55 424.497 326.223 424.17 325.82 424.17Z" fill="#C6D9F2"/>
<path d="M325.68 425.63L324.48 456.31L324.09 456.22L325.23 425.63H325.68Z" fill="#C6D9F2"/>
<path d="M326.83 424.57L327.22 424.11L327.83 424.62L328.89 424.44L339.27 434.2C339.342 434.269 339.388 434.361 339.4 434.46V434.65C339.409 434.672 339.414 434.696 339.414 434.72C339.414 434.744 339.409 434.768 339.4 434.79L339.31 434.9L326.83 424.57Z" fill="white"/>
<path d="M325.26 423.78L325.42 424.35L324.64 424.58L324.18 425.58L310.1 428.84C310.006 428.874 309.904 428.874 309.81 428.84L309.64 428.76C309.594 428.733 309.558 428.69 309.54 428.64V428.51L325.26 423.78Z" fill="white"/>
<path d="M326.75 422.89L326.16 422.81L326.28 422.02L325.59 421.22L328.59 407.12C328.611 407.02 328.668 406.931 328.75 406.87L328.9 406.75C328.924 406.74 328.949 406.735 328.975 406.735C329.001 406.735 329.026 406.74 329.05 406.75H329.18L326.75 422.89Z" fill="white"/>
<path d="M326.994 424.774C327.462 424.37 327.52 423.67 327.123 423.21C326.726 422.75 326.025 422.704 325.556 423.108C325.088 423.513 325.03 424.213 325.427 424.673C325.824 425.133 326.525 425.178 326.994 424.774Z" fill="#EEF8F5"/>
<path opacity="0.5" d="M418.64 515.79L389.69 503.95L381.37 504.33L402.65 515.79H418.64Z" fill="#179668"/>
<path opacity="0.5" d="M374.06 504.73L348.31 506.34L349.96 504.19L419.93 500.99L424.07 502.41L374.06 504.73Z" fill="#179668"/>
<path d="M402.65 515.79C405.414 516.644 408.288 517.089 411.18 517.11C417.31 517.11 418.64 515.79 418.64 515.79L412.59 353.73H408.3L402.65 515.79Z" fill="white"/>
<path d="M413.34 349.06H407.41C406.444 349.06 405.66 349.844 405.66 350.81V354.95C405.66 355.917 406.444 356.7 407.41 356.7H413.34C414.307 356.7 415.09 355.917 415.09 354.95V350.81C415.09 349.844 414.307 349.06 413.34 349.06Z" fill="#C6D9F2"/>
<path d="M410.53 356.7L404.31 516.27L402.27 515.79L408.2 356.7H410.53Z" fill="#C6D9F2"/>
<path d="M406.9 350.69L409.31 352.75L406.53 356L407.37 361.62L354.17 416.89C353.795 417.278 353.297 417.526 352.76 417.59L351.76 417.7C351.621 417.717 351.479 417.704 351.345 417.663C351.21 417.622 351.086 417.553 350.98 417.46L350.42 416.98L406.9 350.69Z" fill="white"/>
<path d="M411.29 342.31L408.24 343.15L407.09 339L402 336.57L386 261.57C385.883 261.042 385.957 260.489 386.21 260.01L386.69 259.11C386.753 258.984 386.841 258.872 386.95 258.783C387.058 258.693 387.184 258.628 387.32 258.59L388.03 258.39L411.29 342.31Z" fill="white"/>
<path d="M415.89 350.23L416.36 347.09L420.6 347.74L424.93 344.05L499.93 360.12C500.462 360.228 500.937 360.522 501.27 360.95L501.9 361.75C501.989 361.86 502.053 361.986 502.09 362.123C502.126 362.259 502.133 362.401 502.11 362.54L502 363.27L415.89 350.23Z" fill="white"/>
<path d="M410.47 353.69C413.751 353.69 416.41 351.031 416.41 347.75C416.41 344.469 413.751 341.81 410.47 341.81C407.189 341.81 404.53 344.469 404.53 347.75C404.53 351.031 407.189 353.69 410.47 353.69Z" fill="#EEF8F5"/>
<path opacity="0.5" d="M276.66 476.19L256.22 476.97C256.12 476.971 256.021 476.939 255.94 476.88L247.36 467.31C247.299 467.26 247.255 467.192 247.234 467.117C247.212 467.041 247.214 466.961 247.239 466.886C247.264 466.812 247.311 466.746 247.373 466.699C247.436 466.651 247.512 466.624 247.59 466.62L268.04 465.85C268.089 465.844 268.139 465.849 268.185 465.864C268.232 465.88 268.275 465.906 268.31 465.94L276.9 475.5C276.961 475.551 277.005 475.619 277.027 475.695C277.048 475.772 277.045 475.853 277.019 475.928C276.993 476.003 276.945 476.068 276.881 476.115C276.816 476.162 276.74 476.188 276.66 476.19V476.19Z" fill="#179668"/>
<path d="M261.43 474.27C261.43 474.27 261.6 474.44 262.1 474.39L261.63 473.95L261.43 474.27Z" fill="#335860"/>
<path d="M261.49 463.51L261.63 473.91C261.631 473.977 261.646 474.044 261.674 474.105C261.703 474.167 261.744 474.221 261.795 474.266C261.846 474.31 261.906 474.343 261.97 474.363C262.035 474.383 262.103 474.388 262.17 474.38L269.31 473.6C269.378 473.593 269.443 473.572 269.502 473.538C269.561 473.504 269.612 473.459 269.652 473.404C269.693 473.35 269.722 473.288 269.737 473.221C269.752 473.155 269.753 473.087 269.74 473.02L267.74 462.8C267.714 462.68 267.644 462.574 267.544 462.502C267.445 462.43 267.322 462.397 267.2 462.41L261.95 463.02C261.825 463.028 261.708 463.083 261.623 463.174C261.537 463.265 261.49 463.385 261.49 463.51V463.51Z" fill="#517D84"/>
<path d="M261.43 474.27L258.14 471.49C258.094 471.452 258.055 471.406 258.027 471.353C257.999 471.3 257.981 471.242 257.976 471.183C257.97 471.123 257.976 471.063 257.994 471.006C258.012 470.949 258.041 470.896 258.08 470.85L258.86 469.93L261.6 472.14V474.14C261.604 474.162 261.602 474.184 261.594 474.205C261.586 474.226 261.573 474.244 261.555 474.257C261.537 474.271 261.516 474.279 261.494 474.281C261.472 474.283 261.45 474.28 261.43 474.27V474.27Z" fill="#335860"/>
<path d="M258.86 469.93L261.56 469.67L261.6 472.14L258.86 469.93Z" fill="#27454C"/>
<path d="M261.6 467.07L268.43 466.43L268.83 468.48L261.56 469.29L261.6 467.07Z" fill="#335860"/>
<path d="M278.53 465.24L278.26 465.4L269 455.55C268.915 455.481 268.809 455.446 268.7 455.45L246.17 455.75C246.107 455.759 246.046 455.78 245.99 455.81L245.73 455.64L245.79 456.82C245.808 456.916 245.857 457.004 245.93 457.07L255.38 467.59C255.421 467.626 255.468 467.653 255.52 467.67C255.571 467.687 255.626 467.694 255.68 467.69L278.19 466.84C278.298 466.835 278.4 466.788 278.474 466.71C278.549 466.632 278.59 466.528 278.59 466.42V466.42L278.53 465.24Z" fill="#38606B"/>
<path d="M278.13 465.73L255.62 466.59C255.565 466.593 255.51 466.584 255.459 466.565C255.407 466.546 255.36 466.517 255.32 466.48L245.87 456C245.803 455.944 245.755 455.869 245.731 455.786C245.708 455.702 245.71 455.613 245.738 455.53C245.767 455.448 245.819 455.376 245.889 455.324C245.959 455.272 246.043 455.243 246.13 455.24L268.63 454.39C268.742 454.383 268.853 454.419 268.94 454.49L278.38 465C278.437 465.057 278.476 465.128 278.494 465.207C278.512 465.285 278.508 465.367 278.482 465.443C278.456 465.519 278.409 465.586 278.347 465.637C278.285 465.687 278.21 465.72 278.13 465.73V465.73Z" fill="#F2FAFC"/>
<path d="M261.66 460L251.44 460.35C251.353 460.351 251.266 460.332 251.187 460.296C251.107 460.26 251.037 460.206 250.98 460.14L247.85 456.55C247.81 456.507 247.783 456.453 247.773 456.395C247.762 456.338 247.768 456.278 247.79 456.223C247.812 456.169 247.849 456.122 247.897 456.088C247.945 456.053 248.001 456.033 248.06 456.03L259.14 455.61C259.234 455.606 259.328 455.626 259.413 455.666C259.498 455.706 259.573 455.765 259.63 455.84L262.1 459C262.169 459.088 262.213 459.194 262.227 459.305C262.241 459.416 262.224 459.529 262.179 459.632C262.134 459.734 262.062 459.823 261.97 459.888C261.879 459.952 261.772 459.991 261.66 460V460Z" fill="#66D7F2"/>
<path d="M266 464.11C266.069 464.198 266.113 464.304 266.127 464.415C266.141 464.526 266.124 464.639 266.079 464.742C266.034 464.844 265.962 464.933 265.87 464.998C265.779 465.063 265.672 465.101 265.56 465.11L255.79 465.52C255.7 465.519 255.614 465.483 255.55 465.42L252.75 462.21C252.682 462.123 252.638 462.019 252.623 461.91C252.608 461.8 252.623 461.688 252.665 461.586C252.708 461.484 252.778 461.396 252.866 461.329C252.955 461.263 253.06 461.222 253.17 461.21L263.11 460.83C263.202 460.826 263.293 460.844 263.377 460.882C263.46 460.921 263.533 460.978 263.59 461.05L266 464.11Z" fill="#66D7F2"/>
<path d="M271.28 459.64L264.54 459.86C264.445 459.865 264.351 459.847 264.264 459.809C264.177 459.771 264.101 459.713 264.04 459.64L261.29 456.47C261.216 456.381 261.169 456.274 261.154 456.16C261.139 456.046 261.157 455.93 261.205 455.825C261.253 455.72 261.33 455.632 261.426 455.569C261.523 455.506 261.635 455.472 261.75 455.47L268.41 455.22C268.457 455.219 268.504 455.229 268.547 455.248C268.59 455.267 268.629 455.295 268.66 455.33L271.72 458.62C271.799 458.707 271.851 458.814 271.87 458.93C271.889 459.045 271.875 459.164 271.829 459.272C271.782 459.379 271.706 459.471 271.609 459.537C271.511 459.602 271.397 459.638 271.28 459.64V459.64Z" fill="#66D7F2"/>
<path d="M276.24 464.65L268.55 464.95C268.456 464.955 268.363 464.939 268.276 464.902C268.189 464.866 268.112 464.81 268.05 464.74L265.39 461.67C265.312 461.583 265.261 461.475 265.244 461.359C265.226 461.243 265.243 461.125 265.292 461.019C265.341 460.913 265.42 460.823 265.519 460.761C265.618 460.699 265.733 460.667 265.85 460.67L272.71 460.42C272.802 460.414 272.893 460.428 272.978 460.463C273.063 460.498 273.139 460.551 273.2 460.62L276.47 464.14C276.508 464.185 276.532 464.239 276.54 464.297C276.548 464.355 276.54 464.414 276.516 464.467C276.492 464.521 276.453 464.566 276.404 464.598C276.356 464.631 276.299 464.649 276.24 464.65V464.65Z" fill="#66D7F2"/>
<path opacity="0.8" d="M254.17 455.79L252.56 460.31L257.78 460.12L259.14 455.6L254.17 455.79Z" fill="#9AE9F7"/>
<path opacity="0.8" d="M257.66 461L256.05 465.52L261.27 465.33L262.64 460.81L257.66 461Z" fill="#9AE9F7"/>
<path opacity="0.8" d="M269.56 460.52L268.66 464.95L271.61 464.85L272.37 460.42L269.56 460.52Z" fill="#9AE9F7"/>
<path opacity="0.8" d="M265.56 455.38L264.66 459.81L267.61 459.71L268.37 455.27L265.56 455.38Z" fill="#9AE9F7"/>
<path opacity="0.5" d="M296.21 456.08L281.45 456.64C281.415 456.644 281.38 456.639 281.347 456.627C281.314 456.615 281.284 456.595 281.26 456.57L275.06 449.68C275.019 449.642 274.991 449.593 274.977 449.539C274.964 449.485 274.966 449.428 274.984 449.375C275.002 449.323 275.035 449.276 275.078 449.241C275.122 449.207 275.175 449.186 275.23 449.18L289.98 448.62C290.052 448.614 290.124 448.635 290.18 448.68L296.37 455.58C296.415 455.615 296.448 455.664 296.465 455.718C296.482 455.773 296.481 455.831 296.464 455.886C296.446 455.94 296.413 455.988 296.367 456.023C296.322 456.057 296.267 456.077 296.21 456.08Z" fill="#179668"/>
<path d="M285.22 454.69C285.22 454.69 285.34 454.82 285.7 454.78L285.36 454.46L285.22 454.69Z" fill="#335860"/>
<path d="M285.26 446.93L285.36 454.43C285.36 454.479 285.37 454.528 285.39 454.574C285.41 454.619 285.439 454.66 285.476 454.693C285.513 454.726 285.557 454.751 285.604 454.766C285.651 454.781 285.701 454.786 285.75 454.78L290.9 454.21C290.949 454.205 290.997 454.19 291.04 454.166C291.082 454.142 291.12 454.109 291.149 454.069C291.178 454.03 291.199 453.984 291.209 453.936C291.22 453.888 291.22 453.838 291.21 453.79L289.74 446.42C289.725 446.333 289.677 446.255 289.607 446.203C289.536 446.151 289.447 446.128 289.36 446.14L285.57 446.58C285.484 446.59 285.405 446.631 285.348 446.696C285.291 446.76 285.259 446.844 285.26 446.93Z" fill="#517D84"/>
<path d="M285.22 454.69L282.84 452.69C282.809 452.659 282.784 452.623 282.767 452.582C282.75 452.542 282.742 452.499 282.742 452.455C282.742 452.411 282.75 452.368 282.767 452.328C282.784 452.287 282.809 452.251 282.84 452.22L283.4 451.56L285.4 453.16V454.63C285.408 454.654 285.406 454.68 285.395 454.702C285.384 454.725 285.364 454.742 285.34 454.75C285.316 454.758 285.29 454.756 285.268 454.745C285.245 454.734 285.228 454.714 285.22 454.69V454.69Z" fill="#335860"/>
<path d="M283.36 451.56L285.31 451.38L285.34 453.16L283.36 451.56Z" fill="#27454C"/>
<path d="M285.34 449.5L290.26 449.03L290.56 450.51L285.31 451.1L285.34 449.5Z" fill="#335860"/>
<path d="M297.56 448.18L297.36 448.29L290.67 441.19C290.64 441.164 290.605 441.144 290.567 441.132C290.529 441.12 290.49 441.116 290.45 441.12L274.2 441.33H274.07L273.88 441.21V442.06C273.888 442.131 273.924 442.195 273.98 442.24L280.8 449.83C280.829 449.857 280.864 449.878 280.902 449.892C280.94 449.906 280.98 449.912 281.02 449.91L297.26 449.29C297.337 449.285 297.409 449.251 297.463 449.196C297.517 449.141 297.548 449.067 297.55 448.99L297.56 448.18Z" fill="#38606B"/>
<path d="M297.26 448.53L281.02 449.15C280.944 449.152 280.87 449.127 280.81 449.08L273.99 441.48C273.941 441.441 273.906 441.387 273.888 441.327C273.871 441.267 273.872 441.203 273.891 441.143C273.911 441.084 273.948 441.031 273.997 440.993C274.047 440.955 274.107 440.933 274.17 440.93L290.41 440.32C290.45 440.316 290.489 440.32 290.527 440.332C290.565 440.344 290.6 440.364 290.63 440.39L297.45 447.98C297.499 448.02 297.535 448.074 297.552 448.135C297.569 448.197 297.568 448.261 297.547 448.321C297.526 448.381 297.488 448.433 297.436 448.471C297.385 448.508 297.323 448.529 297.26 448.53V448.53Z" fill="#F2FAFC"/>
<path d="M285.38 444.39L278.01 444.64C277.947 444.642 277.885 444.629 277.828 444.603C277.77 444.577 277.72 444.539 277.68 444.49L275.41 441.9C275.381 441.869 275.361 441.83 275.354 441.787C275.347 441.745 275.352 441.702 275.369 441.663C275.386 441.623 275.414 441.59 275.45 441.566C275.485 441.543 275.527 441.53 275.57 441.53L283.57 441.22C283.637 441.219 283.702 441.233 283.763 441.261C283.823 441.288 283.877 441.329 283.92 441.38L285.71 443.67C285.759 443.735 285.789 443.812 285.798 443.892C285.807 443.973 285.794 444.055 285.76 444.128C285.726 444.202 285.673 444.266 285.606 444.312C285.539 444.358 285.461 444.385 285.38 444.39V444.39Z" fill="#66D7F2"/>
<path d="M288.49 447.36C288.542 447.422 288.575 447.498 288.587 447.578C288.599 447.659 288.588 447.741 288.556 447.815C288.524 447.89 288.471 447.954 288.405 448C288.339 448.047 288.261 448.075 288.18 448.08L281.13 448.38C281.097 448.381 281.065 448.374 281.036 448.36C281.006 448.346 280.98 448.326 280.96 448.3L278.96 445.99C278.906 445.928 278.87 445.853 278.856 445.772C278.843 445.691 278.852 445.608 278.883 445.532C278.914 445.456 278.966 445.39 279.033 445.342C279.099 445.294 279.178 445.266 279.26 445.26L286.43 444.98C286.497 444.975 286.564 444.987 286.626 445.015C286.687 445.043 286.74 445.086 286.78 445.14L288.49 447.36Z" fill="#66D7F2"/>
<path d="M292.32 444.14L287.46 444.3C287.392 444.3 287.325 444.286 287.263 444.259C287.201 444.231 287.145 444.191 287.1 444.14L285.1 441.85C285.044 441.788 285.007 441.711 284.993 441.629C284.98 441.546 284.991 441.462 285.025 441.385C285.059 441.309 285.114 441.244 285.184 441.199C285.255 441.153 285.336 441.13 285.42 441.13L290.23 440.95C290.264 440.949 290.298 440.956 290.329 440.97C290.36 440.984 290.388 441.004 290.41 441.03L292.62 443.4C292.677 443.461 292.716 443.538 292.731 443.62C292.747 443.703 292.738 443.788 292.706 443.866C292.675 443.944 292.622 444.011 292.553 444.059C292.485 444.108 292.404 444.136 292.32 444.14Z" fill="#66D7F2"/>
<path d="M295.9 447.75L290.35 447.97C290.283 447.974 290.215 447.963 290.152 447.937C290.09 447.911 290.034 447.871 289.99 447.82L288.07 445.6C288.017 445.536 287.984 445.459 287.973 445.377C287.962 445.295 287.975 445.212 288.009 445.137C288.044 445.062 288.099 444.998 288.168 444.952C288.237 444.907 288.317 444.882 288.4 444.88L293.4 444.7C293.465 444.697 293.53 444.708 293.59 444.733C293.65 444.757 293.705 444.793 293.75 444.84L296.11 447.38C296.145 447.414 296.167 447.459 296.174 447.507C296.181 447.555 296.172 447.604 296.148 447.646C296.124 447.688 296.086 447.721 296.042 447.74C295.997 447.759 295.947 447.762 295.9 447.75V447.75Z" fill="#66D7F2"/>
<path opacity="0.8" d="M279.98 441.36L278.81 444.62L282.58 444.48L283.56 441.22L279.98 441.36Z" fill="#9AE9F7"/>
<path opacity="0.8" d="M282.5 445.12L281.33 448.38L285.1 448.24L286.08 444.98L282.5 445.12Z" fill="#9AE9F7"/>
<path opacity="0.8" d="M291.08 444.77L290.43 447.97L292.56 447.9L293.11 444.7L291.08 444.77Z" fill="#9AE9F7"/>
<path opacity="0.8" d="M288.19 441.06L287.55 444.26L289.67 444.19L290.22 440.99L288.19 441.06Z" fill="#9AE9F7"/>
<path d="M139.67 426.98H139.27V434.42H139.67V426.98Z" fill="#178EA6"/>
<path d="M139.67 427.08H139.27V429.7L139.67 429.1V427.08Z" fill="#006776"/>
<path d="M139.86 433.74H139.08C138.908 433.74 138.742 433.808 138.62 433.93C138.499 434.052 138.43 434.218 138.43 434.39V439L140.51 436.95V434.38C140.507 434.209 140.438 434.047 140.316 433.927C140.195 433.807 140.031 433.74 139.86 433.74V433.74Z" fill="#41A7C0"/>
<path d="M138.77 427C138.758 427.098 138.767 427.198 138.797 427.293C138.826 427.387 138.876 427.474 138.941 427.548C139.007 427.622 139.088 427.681 139.178 427.722C139.268 427.763 139.366 427.784 139.465 427.784C139.564 427.784 139.662 427.763 139.752 427.722C139.842 427.681 139.923 427.622 139.989 427.548C140.054 427.474 140.104 427.387 140.133 427.293C140.163 427.198 140.172 427.098 140.16 427C140.16 426.817 140.087 426.642 139.958 426.512C139.829 426.383 139.653 426.31 139.47 426.31C139.379 426.309 139.288 426.326 139.203 426.36C139.118 426.394 139.041 426.444 138.976 426.509C138.91 426.573 138.859 426.649 138.823 426.734C138.788 426.818 138.77 426.909 138.77 427V427Z" fill="white"/>
<path d="M139.86 433.74H139.06V433.79C139.06 434.88 139.59 435.79 140.25 435.79C140.336 435.805 140.424 435.805 140.51 435.79V434.45C140.51 434.278 140.442 434.112 140.32 433.99C140.198 433.868 140.032 433.8 139.86 433.8V433.74Z" fill="#56C0D7"/>
<path d="M138.91 423.9C138.356 424.015 137.849 424.289 137.449 424.689C137.049 425.089 136.775 425.596 136.66 426.15C136.59 426.451 136.57 426.762 136.6 427.07C136.638 427.425 136.815 427.751 137.092 427.976C137.37 428.2 137.725 428.306 138.08 428.27V428.27C137.833 428.03 137.65 427.733 137.546 427.404C137.443 427.076 137.422 426.727 137.487 426.389C137.551 426.051 137.699 425.734 137.916 425.467C138.133 425.2 138.413 424.991 138.731 424.859C139.048 424.726 139.394 424.675 139.736 424.709C140.079 424.743 140.407 424.862 140.693 425.054C140.978 425.246 141.211 425.507 141.371 425.811C141.532 426.116 141.614 426.456 141.61 426.8V427C141.755 426.899 141.879 426.771 141.973 426.622C142.068 426.472 142.132 426.306 142.162 426.132C142.192 425.958 142.187 425.78 142.147 425.608C142.107 425.436 142.033 425.273 141.93 425.13C141.599 424.656 141.138 424.287 140.602 424.069C140.066 423.851 139.478 423.792 138.91 423.9V423.9Z" fill="white"/>
<path d="M139.55 421.27C138.085 421.27 136.68 421.851 135.643 422.886C134.606 423.921 134.023 425.325 134.02 426.79C134.026 427.025 134.104 427.253 134.243 427.443C134.383 427.632 134.577 427.774 134.8 427.85L135.06 427.94C134.96 427.561 134.91 427.172 134.91 426.78C134.908 425.735 135.261 424.72 135.909 423.9C136.558 423.08 137.465 422.504 138.482 422.265C139.5 422.027 140.569 422.139 141.514 422.585C142.46 423.031 143.227 423.783 143.69 424.72V424.72C143.859 424.439 143.931 424.11 143.893 423.784C143.855 423.458 143.71 423.154 143.48 422.92C142.966 422.4 142.354 421.986 141.68 421.703C141.005 421.42 140.281 421.272 139.55 421.27Z" fill="white"/>
<path d="M131.73 425.76L131.94 425.97C132.089 424.555 132.629 423.209 133.501 422.085C134.374 420.961 135.542 420.102 136.876 419.607C138.21 419.111 139.655 418.997 141.05 419.279C142.445 419.56 143.733 420.226 144.77 421.2V420.85C144.766 420.58 144.694 420.315 144.559 420.08C144.424 419.846 144.232 419.649 144 419.51C142.659 418.684 141.115 418.247 139.54 418.25C137.717 418.254 135.941 418.837 134.471 419.915C133.001 420.994 131.911 422.512 131.36 424.25C131.289 424.512 131.286 424.789 131.351 425.053C131.415 425.317 131.546 425.56 131.73 425.76V425.76Z" fill="white"/>
<path d="M530.98 422.72H530.05V439.77H530.98V422.72Z" fill="#178EA6"/>
<path d="M530.05 422.94H530.98V428.94L530.05 427.57V422.94Z" fill="#006776"/>
<path d="M529.63 438.19H531.41C531.606 438.19 531.8 438.228 531.98 438.303C532.161 438.378 532.325 438.488 532.464 438.626C532.602 438.765 532.712 438.929 532.787 439.11C532.862 439.291 532.9 439.484 532.9 439.68V439.68V450.26L528.13 445.58V439.68C528.133 439.284 528.292 438.905 528.573 438.626C528.854 438.347 529.234 438.19 529.63 438.19Z" fill="#41A7C0"/>
<path d="M532.11 422.85C532.11 423.164 532.017 423.472 531.842 423.733C531.667 423.995 531.419 424.199 531.129 424.319C530.838 424.439 530.518 424.471 530.21 424.409C529.902 424.348 529.618 424.197 529.396 423.974C529.173 423.752 529.022 423.469 528.961 423.16C528.899 422.852 528.931 422.532 529.051 422.242C529.172 421.951 529.375 421.703 529.637 421.528C529.898 421.353 530.206 421.26 530.52 421.26V421.26C530.942 421.26 531.346 421.428 531.644 421.726C531.943 422.024 532.11 422.428 532.11 422.85V422.85Z" fill="white"/>
<path d="M529.63 438.19H531.45V438.31C531.45 440.82 530.23 442.86 528.72 442.86C528.518 442.858 528.319 442.821 528.13 442.75V439.68C528.133 439.284 528.292 438.905 528.573 438.626C528.854 438.347 529.234 438.19 529.63 438.19Z" fill="#56C0D7"/>
<path d="M531.79 415.66C533.067 415.911 534.242 416.532 535.169 417.446C536.095 418.36 536.732 419.526 537 420.8C537.152 421.492 537.199 422.204 537.14 422.91C537.049 423.724 536.642 424.469 536.005 424.983C535.369 425.498 534.555 425.741 533.74 425.66V425.66C534.291 425.109 534.698 424.432 534.925 423.687C535.152 422.941 535.191 422.152 535.04 421.388C534.889 420.624 534.552 419.908 534.059 419.306C533.566 418.703 532.932 418.231 532.213 417.931C531.494 417.632 530.712 417.514 529.937 417.588C529.161 417.663 528.416 417.927 527.768 418.358C527.119 418.789 526.586 419.373 526.217 420.059C525.848 420.745 525.653 421.511 525.65 422.29V422.65C525.321 422.416 525.04 422.119 524.826 421.777C524.611 421.435 524.466 421.053 524.399 420.654C524.332 420.256 524.345 419.848 524.436 419.454C524.527 419.061 524.695 418.689 524.93 418.36V418.36C525.692 417.297 526.745 416.477 527.962 415.998C529.179 415.519 530.508 415.402 531.79 415.66V415.66Z" fill="white"/>
<path d="M530.34 409.62C533.696 409.625 536.913 410.961 539.286 413.334C541.659 415.707 542.995 418.924 543 422.28V422.28C542.987 422.817 542.811 423.337 542.495 423.771C542.178 424.206 541.737 424.533 541.23 424.71L540.62 424.91C540.852 424.046 540.97 423.155 540.97 422.26C540.976 419.864 540.17 417.536 538.685 415.656C537.199 413.776 535.121 412.454 532.788 411.906C530.456 411.357 528.006 411.615 525.838 412.636C523.671 413.657 521.912 415.382 520.85 417.53V417.53C520.466 416.887 520.306 416.135 520.395 415.391C520.484 414.648 520.816 413.955 521.34 413.42C522.515 412.223 523.915 411.271 525.46 410.619C527.004 409.967 528.663 409.627 530.34 409.62Z" fill="white"/>
<path d="M548.23 419.92C548.08 420.08 547.93 420.25 547.77 420.41C547.436 417.164 546.203 414.076 544.208 411.493C542.214 408.91 539.538 406.936 536.481 405.792C533.425 404.649 530.11 404.382 526.91 405.021C523.71 405.66 520.753 407.18 518.37 409.41V408.62C518.379 408.001 518.546 407.395 518.856 406.859C519.166 406.323 519.608 405.876 520.14 405.56C523.211 403.662 526.75 402.658 530.36 402.66C534.538 402.669 538.605 404.009 541.971 406.485C545.337 408.961 547.827 412.444 549.08 416.43C549.251 417.036 549.263 417.675 549.114 418.287C548.965 418.898 548.661 419.461 548.23 419.92V419.92Z" fill="white"/>
</g>
<defs>
<clipPath id="clip0_3768_205218">
<rect width="600" height="524" fill="white"/>
</clipPath>
</defs>
</svg>
