<svg width="600" height="524" viewBox="0 0 600 524" fill="none" xmlns="http://www.w3.org/2000/svg">
<g clip-path="url(#clip0_3768_205220)">
<path d="M600 0.5H0V523.5H600V0.5Z" fill="#32E6F9"/>
<path d="M600 359.88C556.22 327.15 527.13 302.37 461.66 291.2C358.66 273.6 248.51 443.69 184.76 433.53C114.53 422.34 43.2899 380.26 43.2899 380.26L41.6799 496H600V359.88Z" fill="#37D9F4"/>
<path opacity="0.9" d="M463.43 291.21C463.43 291.21 432.64 288.86 405 308.21C377.36 327.56 397.8 359.21 427.91 358.64C458.02 358.07 470.69 354.03 488.58 366.03C506.47 378.03 471.1 389.87 452.81 393.14C434.52 396.41 431 432.39 518.74 433.24C595.24 433.99 600 441.14 600 441.14V359.88C551.76 318.39 500.58 293.36 463.43 291.21Z" fill="#34E0F7"/>
<path d="M283.26 442.82L269.88 390.71C269.811 390.456 269.692 390.219 269.531 390.011C269.369 389.804 269.169 389.63 268.94 389.5C268.712 389.37 268.46 389.286 268.199 389.254C267.938 389.221 267.673 389.24 267.42 389.31H267.37L262.23 390.9C261.959 390.985 261.708 391.127 261.496 391.317C261.284 391.507 261.115 391.74 261 392L258.38 397.53H255.1L244.88 379C244.429 378.184 243.735 377.53 242.894 377.128C242.053 376.727 241.108 376.598 240.19 376.76L221.72 380C221.72 380 217.99 380.53 215.9 376.17C214.02 372.24 201.9 341.62 199.47 334.06C199.338 333.642 199.107 333.262 198.797 332.953C198.488 332.643 198.108 332.412 197.69 332.28L189.4 329.59C188.787 329.388 188.123 329.407 187.523 329.642C186.922 329.878 186.422 330.315 186.11 330.88C183.79 335.03 178.38 344.38 176.27 345.02C173.304 345.587 170.289 345.858 167.27 345.83L159.73 321.52C159.632 321.17 159.466 320.844 159.241 320.558C159.017 320.273 158.738 320.035 158.421 319.857C158.105 319.68 157.756 319.567 157.395 319.524C157.035 319.482 156.669 319.511 156.32 319.61C156.172 319.648 156.027 319.702 155.89 319.77L106.19 341.59C105.904 341.708 105.652 341.896 105.458 342.138C105.264 342.379 105.134 342.665 105.08 342.97C104.431 346.881 103.58 350.756 102.53 354.58C101.86 356.13 87.05 365.19 81.42 368.58C80.0466 369.434 78.9924 370.717 78.42 372.23L50.26 437.67L283.26 442.82Z" fill="#8D8183"/>
<path d="M240.21 376.72L233.1 395.67C232.518 397.243 232.154 398.888 232.02 400.56L228.53 437.7L208.33 437.78L208.81 402.39C209.089 399.562 209.868 396.806 211.11 394.25L221.72 380.07L240.21 376.72Z" fill="#6B6162"/>
<path d="M233.05 395.01L229.39 440.7L226.07 440.78L225.73 395.01H233.05Z" fill="#635A5C"/>
<path d="M233 395H209.28C207.963 395.434 206.822 396.282 206.026 397.417C205.229 398.552 204.82 399.914 204.86 401.3V440.77H228.36V401.31C228.36 401.31 228.18 395.22 233 395Z" fill="#32E6F9"/>
<path d="M228.4 400.9C228.4 399.51 228.94 395.19 233 395.01H209.28C208.037 395.431 206.952 396.22 206.168 397.272C205.384 398.323 204.938 399.589 204.89 400.9H228.4Z" fill="#B6FCFF"/>
<path d="M218.1 395.06C218.1 395.06 216.1 395.38 216.1 400.67V430.43C216.089 430.72 216.142 431.009 216.254 431.277C216.366 431.544 216.536 431.784 216.75 431.98C216.936 432.149 217.154 432.279 217.391 432.363C217.628 432.447 217.879 432.484 218.13 432.47C218.405 432.455 218.672 432.377 218.912 432.242C219.151 432.107 219.356 431.918 219.51 431.69C219.772 431.315 219.908 430.867 219.9 430.41V400.67C219.9 400.67 219.9 395.05 222.19 395.02L218.1 395.06Z" fill="#B6FCFF"/>
<path d="M219.81 400.9V400.67C219.81 400.67 219.81 395.05 222.11 395.02H218.06C218.06 395.02 216.06 395.34 216.06 400.63V400.85L219.81 400.9Z" fill="white"/>
<path d="M209.62 395.06C209.62 395.06 207.79 395.38 207.79 400.67V421.28C207.769 421.856 207.978 422.417 208.37 422.84C208.527 422.997 208.714 423.121 208.921 423.203C209.127 423.286 209.348 423.325 209.57 423.32C209.83 423.31 210.082 423.233 210.303 423.096C210.524 422.96 210.705 422.768 210.83 422.54C211.072 422.165 211.198 421.726 211.19 421.28V400.67C211.19 400.67 211.19 395.05 213.25 395.02L209.62 395.06Z" fill="#B6FCFF"/>
<path d="M211.19 400.9V400.67C211.19 400.67 211.19 395.05 213.25 395.02H209.62C209.62 395.02 207.79 395.34 207.79 400.63V400.85L211.19 400.9Z" fill="white"/>
<path d="M78.3499 372.19C78.4133 372.02 78.5097 371.864 78.6336 371.731C78.7574 371.598 78.9063 371.49 79.0717 371.415C79.2371 371.34 79.4157 371.298 79.5973 371.292C79.7789 371.286 79.9599 371.316 80.1299 371.38C80.3517 371.461 80.5482 371.599 80.6999 371.78C83.4699 375.04 90.38 375 101.43 376.72C109.43 377.95 114.3 378.82 117.16 379.38C117.925 379.535 118.599 379.982 119.04 380.626C119.48 381.27 119.653 382.061 119.52 382.83C119.491 382.979 119.45 383.126 119.4 383.27C117.89 387.59 115.68 394.81 117.48 395.78C120.06 397.16 151.63 409.1 156.28 412.96C160.93 416.82 163 437.84 163 437.84L50.2 437.75L78.3499 372.19Z" fill="#6B6162"/>
<path d="M189.47 329.6C188.858 329.395 188.194 329.411 187.593 329.645C186.992 329.879 186.492 330.316 186.18 330.88C185.02 332.93 181.42 338.88 181.42 338.88C181.42 338.88 178.05 344.41 176.34 344.99C174.63 345.57 183.44 344.99 183.44 344.99L189.47 329.6Z" fill="#6B6162"/>
<path d="M113.5 338.39L111.13 348.06C110.956 348.782 110.627 349.457 110.163 350.038C109.7 350.619 109.115 351.09 108.45 351.42L102.34 354.75L105 343C105.075 342.693 105.219 342.407 105.419 342.163C105.62 341.919 105.873 341.723 106.16 341.59L113.5 338.39Z" fill="#6B6162"/>
<path d="M600 523.5H1V425C1 425 115.85 426.54 239.78 436.71C382.6 448.44 600 523.5 600 523.5Z" fill="#23B781"/>
<path d="M473.1 470C498.94 467.47 524.24 460.82 549.1 452.73C549.487 452.695 549.845 452.508 550.096 452.21C550.347 451.912 550.47 451.528 550.44 451.14C550.418 450.925 550.35 450.717 550.24 450.53C550.012 450.119 549.646 449.802 549.207 449.634C548.768 449.465 548.284 449.457 547.84 449.61C548.32 448.75 547.16 447.61 546.3 448.05C546.217 447.672 546.058 447.315 545.832 447.001C545.607 446.686 545.321 446.421 544.99 446.22C544.527 445.898 543.985 445.709 543.422 445.676C542.859 445.642 542.297 445.765 541.8 446.03C541.649 445.801 541.455 445.604 541.228 445.45C541.001 445.296 540.746 445.189 540.478 445.134C540.209 445.079 539.932 445.078 539.663 445.131C539.394 445.183 539.138 445.288 538.91 445.44V445.44C538.502 445.08 537.968 444.895 537.425 444.927C536.881 444.959 536.373 445.204 536.01 445.61C535.873 445.77 535.758 445.949 535.67 446.14C535.032 445.921 534.34 445.915 533.698 446.122C533.057 446.33 532.499 446.739 532.11 447.29C531.306 446.562 530.254 446.168 529.17 446.19C528.387 446.189 527.621 446.411 526.96 446.83C526.879 446.153 526.652 445.503 526.295 444.922C525.937 444.342 525.458 443.847 524.89 443.47C524.629 443.301 524.351 443.16 524.06 443.05C523.271 442.761 522.418 442.693 521.593 442.853C520.768 443.014 520.003 443.396 519.38 443.96C518.969 443.56 518.418 443.336 517.845 443.336C517.271 443.336 516.721 443.56 516.31 443.96C515.497 443.6 514.593 443.499 513.72 443.67C513.617 443.314 513.444 442.983 513.212 442.694C512.979 442.406 512.692 442.166 512.367 441.989C512.041 441.813 511.684 441.702 511.315 441.665C510.947 441.627 510.574 441.663 510.22 441.77C509.821 441.889 509.453 442.093 509.142 442.37C508.831 442.646 508.584 442.988 508.42 443.37C508.174 443.256 507.909 443.191 507.638 443.179C507.367 443.167 507.097 443.209 506.842 443.302C506.588 443.395 506.354 443.537 506.155 443.72C505.955 443.903 505.794 444.124 505.68 444.37C505.579 444.584 505.514 444.814 505.49 445.05C504.524 444.734 503.478 444.76 502.529 445.124C501.58 445.488 500.786 446.168 500.28 447.05C499.835 446.872 499.343 446.851 498.884 446.991C498.426 447.131 498.029 447.423 497.76 447.82C497.282 447.338 496.656 447.032 495.982 446.952C495.308 446.872 494.627 447.023 494.05 447.38C493.506 447.823 493.08 448.394 492.81 449.041C492.539 449.688 492.433 450.392 492.5 451.09C492.07 451.347 491.705 451.7 491.434 452.122C491.164 452.543 490.994 453.022 490.94 453.52C490.324 453.294 489.659 453.238 489.015 453.36C488.37 453.481 487.771 453.775 487.28 454.21C486.798 454.659 486.446 455.229 486.259 455.86C486.073 456.492 486.059 457.162 486.22 457.8C485.601 457.808 485 458.004 484.494 458.361C483.989 458.718 483.604 459.22 483.39 459.8C482.832 459.511 482.2 459.399 481.576 459.477C480.953 459.556 480.369 459.822 479.9 460.24C479.58 460.53 479.33 460.889 479.17 461.29C478.85 462.062 478.85 462.929 479.17 463.7C478.781 463.673 478.398 463.8 478.104 464.055C477.809 464.31 477.628 464.672 477.6 465.06V465.16C477.283 464.823 476.863 464.601 476.406 464.528C475.949 464.455 475.481 464.536 475.075 464.758C474.669 464.98 474.348 465.33 474.162 465.754C473.977 466.178 473.937 466.651 474.05 467.1C473.752 467.171 473.477 467.319 473.254 467.53C473.031 467.74 472.868 468.006 472.78 468.3C472.692 468.593 472.682 468.905 472.752 469.203C472.823 469.502 472.97 469.777 473.18 470H473.1Z" fill="#00707A"/>
<path d="M571.32 423.34C571.48 422.56 572.18 422.53 572.42 423.25L574.06 427.81L573.32 428.17C573.16 428.24 573.24 428.42 573.41 428.4L574.23 428.31L578.23 439.46L576.59 440.28C576.39 440.4 576.45 440.57 576.69 440.53L578.55 440.35L581.15 447.61L567.08 448.86L569.31 435.51H570.37C570.57 435.51 570.57 435.32 570.37 435.26L569.37 434.81L571.32 423.34Z" fill="#0E8E5D"/>
<path d="M552.28 412.68C552.57 411.4 553.82 411.36 554.28 412.5L557.1 419.84L555.78 420.41C555.5 420.54 555.61 420.82 555.94 420.79L557.4 420.66L564.27 438.66L561.28 440C560.95 440.19 561.03 440.47 561.46 440.4L564.73 440.07L569.22 451.81L544.43 454L548.53 432.35L550.39 432.2C550.75 432.2 550.75 431.91 550.51 431.79L548.77 431.09L552.28 412.68Z" fill="#23B781"/>
<path d="M421.28 466.24C420.97 465.4 420.19 465.5 420.05 466.32L419.05 471.62L419.91 471.88C420.1 471.88 420.06 472.15 419.91 472.16H419L416.51 485.08L418.46 485.71C418.68 485.8 418.65 486 418.37 485.99L416.31 486.11L414.68 494.54L430.36 493.54L425.66 479.24L424.49 479.33C424.25 479.33 424.23 479.16 424.37 479.07L425.37 478.41L421.28 466.24Z" fill="#23B781"/>
<path d="M438.41 446.81C438.01 445.69 436.94 445.81 436.76 446.91L435.4 453.91L436.56 454.26C436.81 454.35 436.75 454.62 436.47 454.63H435.25L431.92 471.83L434.52 472.68C434.83 472.81 434.78 473.08 434.42 473.06L431.66 473.21L429.49 484.43L450.37 483.11L444.11 464.05L442.54 464.16C442.23 464.16 442.2 463.94 442.39 463.81L443.74 462.95L438.41 446.81Z" fill="#0E8E5D"/>
<path d="M456.85 476.14C456.359 475.554 456.012 474.86 455.838 474.114C455.665 473.369 455.669 472.594 455.85 471.85C456.008 471.211 456.392 470.651 456.93 470.272C457.468 469.894 458.125 469.723 458.78 469.79C458.66 469.139 458.803 468.467 459.178 467.922C459.553 467.376 460.129 467.002 460.78 466.88C461.019 466.85 461.261 466.85 461.5 466.88C461.015 466.159 460.733 465.32 460.686 464.452C460.638 463.584 460.826 462.72 461.23 461.95C461.655 461.336 462.297 460.906 463.027 460.748C463.757 460.59 464.519 460.716 465.16 461.1C465.354 460.16 465.85 459.31 466.572 458.678C467.294 458.046 468.203 457.668 469.16 457.6C470.209 457.684 471.218 458.042 472.085 458.639C472.952 459.235 473.647 460.05 474.1 461C474.97 459.53 477.29 459.83 478.25 461.54C478.544 460.893 479.051 460.366 479.685 460.046C480.32 459.726 481.045 459.632 481.74 459.78C482.517 460.008 483.228 460.42 483.813 460.98C484.398 461.54 484.839 462.233 485.1 463C487.17 461.61 490.58 463.56 491.36 466.58C481.81 469.71 472.14 472.42 456.85 476.14Z" fill="#179668"/>
<path d="M600 445.12C600 445.12 449.13 458.32 361.91 514.75L599.99 515.39L600 445.12Z" fill="#3ECC8E"/>
<path d="M349.79 492.47C349.784 490.866 350.191 489.287 350.972 487.886C351.753 486.484 352.882 485.308 354.25 484.47C355.576 483.771 357.085 483.5 358.571 483.693C360.057 483.887 361.447 484.535 362.55 485.55C363.427 484.347 364.744 483.542 366.214 483.309C367.683 483.077 369.185 483.437 370.39 484.31C371.075 484.812 371.639 485.461 372.04 486.21C377.32 480.21 387.29 481.21 391.58 488.16C391.676 486.992 392.104 485.876 392.813 484.942C393.521 484.009 394.481 483.297 395.58 482.89C396.671 482.613 397.822 482.696 398.862 483.127C399.902 483.558 400.775 484.313 401.35 485.28C402.25 479.9 407 475.71 411.8 476.07C416.6 476.43 420.8 481.24 421.12 486.7C423.175 485.361 425.662 484.854 428.077 485.284C430.492 485.713 432.652 487.045 434.12 489.01C434.753 487.447 435.98 486.198 437.532 485.538C439.085 484.878 440.835 484.861 442.4 485.49L442.87 485.7C446 487.28 447.95 491.04 448.64 494.82C449.33 498.6 448.93 502.59 448.54 506.45C414.81 502.45 384.22 502.99 350.34 505.01C351.67 501.41 349.78 501.29 349.79 492.47Z" fill="#00707A"/>
<path d="M531.87 440.91H458.04V471.9H531.87V440.91Z" fill="#FCEAE8"/>
<path d="M458.03 440.91L490.19 471.9L425.86 477.59V471.9L458.03 440.91Z" fill="#9C2740"/>
<path d="M531.86 440.91L564.02 471.9H499.68L531.86 440.91Z" fill="#FCEAE8"/>
<path d="M564.02 471.9H483.08V512.93H564.02V471.9Z" fill="#94214F"/>
<path d="M425.86 476.65V512.94H490.19V477.07L458.03 446.69L425.86 476.65Z" fill="#D4375C"/>
<path d="M521.47 443.51H481.2L506.63 468.24H544.11L521.47 443.51Z" fill="#41859A"/>
<path d="M521.28 444.01H482.45L506.98 467.86H543.11L521.28 444.01Z" fill="#1F4E59"/>
<path d="M521.02 444.4H482.85L506.97 467.85H542.49L521.02 444.4Z" fill="#41A7C0"/>
<path d="M520.14 444.48H508.07L514.41 467.86H527.68L520.14 444.48Z" fill="#56C0D7"/>
<path d="M506.14 444.48H503.17L507.18 467.86H511.35L506.14 444.48Z" fill="#56C0D7"/>
<path d="M490.79 443.89H490.25L513.14 467.99H513.68L490.79 443.89Z" fill="#41859A"/>
<path d="M498.46 443.89H497.92L520.81 467.99H521.35L498.46 443.89Z" fill="#41859A"/>
<path d="M506.13 443.89H505.6L528.48 467.99H529.02L506.13 443.89Z" fill="#41859A"/>
<path d="M513.81 443.89H513.27L536.16 467.99H536.7L513.81 443.89Z" fill="#41859A"/>
<path d="M528.27 451.3L527.87 450.87H489.04L489.48 451.3H528.27Z" fill="#41859A"/>
<path d="M536.11 459.54L535.72 459.1H497.63L498.07 459.54H536.11Z" fill="#41859A"/>
<path d="M540.49 474.79H527.27V492.24H540.49V474.79Z" fill="#271329"/>
<path d="M461.01 455.37H454.7V465.9H461.01V455.37Z" fill="#FCEAE8"/>
<path d="M460.26 456.62H455.46V464.65H460.26V456.62Z" fill="#271329"/>
<path d="M600 517.8C600.075 515.897 599.636 514.009 598.73 512.334C597.824 510.659 596.484 509.259 594.85 508.28C593.223 507.43 591.381 507.08 589.555 507.274C587.73 507.468 586.002 508.197 584.59 509.37C584.341 506.794 583.388 504.337 581.836 502.266C580.284 500.196 578.192 498.592 575.79 497.63C573.379 496.843 570.792 496.774 568.343 497.433C565.894 498.092 563.69 499.45 562 501.34C561.153 500.224 559.999 499.38 558.679 498.911C557.359 498.442 555.931 498.368 554.57 498.7C553.179 499.128 551.928 499.92 550.947 500.994C549.966 502.069 549.29 503.386 548.99 504.81C547.01 502.78 544.424 501.448 541.622 501.014C538.82 500.579 535.952 501.066 533.45 502.4C528.37 505.14 525.23 511.46 525.87 517.46C551.41 516.78 576.92 518 600 517.8Z" fill="#179668"/>
<path d="M1 524V497.54C1 497.54 380.61 486.92 600 516.35V524H1Z" fill="#3ECC8E"/>
<path d="M186.59 425.98H149.91V441.38H186.59V425.98Z" fill="#FCEAE8"/>
<path d="M186.59 425.98L170.62 441.38L202.57 444.21V441.38L186.59 425.98Z" fill="#9C2740"/>
<path d="M185.91 457.43C185.879 456.893 185.988 456.357 186.226 455.875C186.464 455.393 186.824 454.981 187.27 454.68C187.701 454.423 188.202 454.307 188.702 454.348C189.202 454.39 189.677 454.586 190.06 454.91C190.237 454.647 190.478 454.432 190.759 454.286C191.041 454.14 191.354 454.066 191.671 454.072C191.989 454.078 192.299 454.163 192.575 454.32C192.851 454.477 193.083 454.7 193.25 454.97C193.662 454.486 194.18 454.103 194.764 453.852C195.348 453.6 195.982 453.487 196.617 453.521C197.252 453.555 197.87 453.735 198.424 454.047C198.978 454.359 199.452 454.795 199.81 455.32C199.826 454.926 199.955 454.545 200.179 454.221C200.404 453.897 200.717 453.643 201.08 453.49C201.444 453.372 201.837 453.376 202.198 453.503C202.559 453.629 202.869 453.871 203.08 454.19C203.168 453.352 203.55 452.572 204.157 451.988C204.765 451.404 205.559 451.054 206.4 451C207.257 451.095 208.054 451.488 208.653 452.108C209.252 452.729 209.615 453.54 209.68 454.4C210.349 453.914 211.178 453.703 211.998 453.809C212.818 453.915 213.566 454.33 214.09 454.97C214.276 454.437 214.666 454 215.174 453.754C215.682 453.509 216.267 453.475 216.8 453.66L216.96 453.72C217.51 454.032 217.982 454.463 218.342 454.983C218.702 455.502 218.941 456.096 219.04 456.72C219.272 458.376 219.322 460.053 219.19 461.72C207.34 462.34 198.51 460.88 186.32 461.72C186.68 460.39 186 460.38 185.91 457.43Z" fill="#FFBC4F"/>
<path d="M149.91 425.98L133.93 441.38H165.9L149.91 425.98Z" fill="#FCEAE8"/>
<path d="M174.14 441.38H133.93V461.77H174.14V441.38Z" fill="#94214F"/>
<path d="M202.57 443.74V461.77H170.62V443.95L186.59 428.86L202.57 443.74Z" fill="#D4375C"/>
<path d="M155.07 427.27H175.08L162.44 439.56H143.83L155.07 427.27Z" fill="#41859A"/>
<path d="M155.17 427.52H174.46L162.27 439.37H144.32L155.17 427.52Z" fill="#1F4E59"/>
<path d="M155.29 427.72H174.26L162.28 439.37H144.63L155.29 427.72Z" fill="#41A7C0"/>
<path d="M155.74 427.75H161.73L158.58 439.37H151.99L155.74 427.75Z" fill="#56C0D7"/>
<path d="M162.69 427.75H164.16L162.17 439.37H160.1L162.69 427.75Z" fill="#56C0D7"/>
<path d="M170.32 427.46H170.59L159.21 439.43H158.95L170.32 427.46Z" fill="#41859A"/>
<path d="M166.5 427.46H166.77L155.4 439.43H155.13L166.5 427.46Z" fill="#41859A"/>
<path d="M162.69 427.46H162.96L151.59 439.43H151.32L162.69 427.46Z" fill="#41859A"/>
<path d="M158.88 427.46H159.15L147.78 439.43H147.51L158.88 427.46Z" fill="#41859A"/>
<path d="M151.69 431.14L151.89 430.93H171.19L170.96 431.14H151.69Z" fill="#41859A"/>
<path d="M147.8 435.24L147.99 435.02H166.92L166.7 435.24H147.8Z" fill="#41859A"/>
<path d="M152.19 442.82H145.62V451.49H152.19V442.82Z" fill="#271329"/>
<path d="M188.24 433.16H185.11V438.39H188.24V433.16Z" fill="#FCEAE8"/>
<path d="M187.87 433.79H185.48V437.78H187.87V433.79Z" fill="#271329"/>
<path d="M113.06 465.18C113.021 464.159 113.256 463.147 113.742 462.248C114.227 461.349 114.945 460.597 115.82 460.07C116.695 459.61 117.686 459.42 118.668 459.524C119.65 459.627 120.58 460.019 121.34 460.65C121.472 459.266 121.984 457.946 122.818 456.834C123.653 455.722 124.778 454.863 126.07 454.35C127.362 453.932 128.747 453.898 130.057 454.253C131.368 454.608 132.546 455.337 133.45 456.35C133.904 455.747 134.526 455.291 135.237 455.039C135.948 454.786 136.718 454.749 137.45 454.93C138.199 455.156 138.873 455.581 139.401 456.158C139.929 456.735 140.291 457.444 140.45 458.21C141.51 457.113 142.9 456.392 144.407 456.158C145.914 455.923 147.457 456.187 148.8 456.91C150.183 457.729 151.302 458.927 152.026 460.363C152.749 461.798 153.045 463.411 152.88 465.01C139.16 464.63 125.45 465.26 113.06 465.18Z" fill="#179668"/>
<path d="M0 0V524C3.2 519.26 55.17 512.18 79.26 468.72C96.38 437.86 91.16 450.36 104.55 419.86C151.82 312.22 259.69 351.24 319.36 259.65C343.2 211.32 364.19 173.19 412.45 128.9C476 70.62 600 90.84 600 90.84V0H0Z" fill="#64F8FF"/>
<path d="M0 0V524C3.2 519.26 55.17 512.18 79.26 468.72C96.38 437.86 91.16 450.36 104.55 419.86C151.82 312.22 239.69 351.24 299.36 259.65C323.2 211.32 344.19 163.19 392.45 118.9C456 60.62 600 90.84 600 90.84V0H0Z" fill="#E6FFFE"/>
<path d="M0 0V524C3.2 519.26 31.17 512.18 55.26 468.72C72.38 437.86 63.12 392.09 80.7 363.27C118.84 300.75 141.63 335.92 218.7 258.35C272.53 204.15 245.76 118.14 320.11 59.93C436.29 -31.06 600 47.84 600 47.84V0H0Z" fill="white"/>
<path opacity="0.5" d="M327.24 456.22L321.67 453.94L320.07 454.02L324.17 456.22H327.24Z" fill="#179668"/>
<path opacity="0.5" d="M318.67 454.1L313.72 454.4L314.03 453.99L327.49 453.38L328.28 453.65L318.67 454.1Z" fill="#179668"/>
<path d="M324.17 456.22C324.698 456.382 325.248 456.466 325.8 456.47C326.98 456.47 327.24 456.22 327.24 456.22L326.08 425.06H325.25L324.17 456.22Z" fill="white"/>
<path d="M325.82 424.17H325.47C325.067 424.17 324.74 424.497 324.74 424.9V424.91C324.74 425.313 325.067 425.64 325.47 425.64H325.82C326.223 425.64 326.55 425.313 326.55 424.91V424.9C326.55 424.497 326.223 424.17 325.82 424.17Z" fill="#C6D9F2"/>
<path d="M325.68 425.63L324.48 456.31L324.09 456.22L325.23 425.63H325.68Z" fill="#C6D9F2"/>
<path d="M326.83 424.57L327.22 424.11L327.83 424.62L328.89 424.44L339.27 434.2C339.342 434.269 339.388 434.361 339.4 434.46V434.65C339.409 434.672 339.414 434.696 339.414 434.72C339.414 434.744 339.409 434.768 339.4 434.79L339.31 434.9L326.83 424.57Z" fill="white"/>
<path d="M325.26 423.78L325.42 424.35L324.64 424.58L324.18 425.58L310.1 428.84C310.006 428.874 309.904 428.874 309.81 428.84L309.64 428.76C309.594 428.733 309.558 428.69 309.54 428.64V428.51L325.26 423.78Z" fill="white"/>
<path d="M326.75 422.89L326.16 422.81L326.28 422.02L325.59 421.22L328.59 407.12C328.611 407.02 328.668 406.931 328.75 406.87L328.9 406.75C328.924 406.74 328.949 406.735 328.975 406.735C329.001 406.735 329.026 406.74 329.05 406.75H329.18L326.75 422.89Z" fill="white"/>
<path d="M326.994 424.774C327.462 424.37 327.52 423.67 327.123 423.21C326.726 422.75 326.025 422.704 325.557 423.108C325.088 423.513 325.03 424.213 325.427 424.673C325.824 425.133 326.526 425.178 326.994 424.774Z" fill="#EEF8F5"/>
<path opacity="0.5" d="M418.64 515.79L389.69 503.95L381.37 504.33L402.65 515.79H418.64Z" fill="#179668"/>
<path opacity="0.5" d="M374.06 504.73L348.31 506.34L349.96 504.19L419.93 500.99L424.07 502.41L374.06 504.73Z" fill="#179668"/>
<path d="M402.65 515.79C405.414 516.644 408.287 517.089 411.18 517.11C417.31 517.11 418.64 515.79 418.64 515.79L412.59 353.73H408.3L402.65 515.79Z" fill="white"/>
<path d="M413.34 349.06H407.41C406.444 349.06 405.66 349.844 405.66 350.81V354.95C405.66 355.917 406.444 356.7 407.41 356.7H413.34C414.307 356.7 415.09 355.917 415.09 354.95V350.81C415.09 349.844 414.307 349.06 413.34 349.06Z" fill="#C6D9F2"/>
<path d="M410.53 356.7L404.31 516.27L402.27 515.79L408.2 356.7H410.53Z" fill="#C6D9F2"/>
<path d="M406.9 350.69L409.31 352.75L406.53 356L407.37 361.62L354.17 416.89C353.794 417.278 353.296 417.526 352.76 417.59L351.76 417.7C351.62 417.717 351.479 417.704 351.344 417.663C351.21 417.622 351.086 417.553 350.98 417.46L350.42 416.98L406.9 350.69Z" fill="white"/>
<path d="M411.29 342.31L408.24 343.15L407.09 339L402 336.57L386 261.57C385.883 261.042 385.957 260.489 386.21 260.01L386.69 259.11C386.753 258.984 386.841 258.872 386.95 258.783C387.058 258.693 387.184 258.628 387.32 258.59L388.03 258.39L411.29 342.31Z" fill="white"/>
<path d="M415.89 350.23L416.36 347.09L420.6 347.74L424.93 344.05L499.93 360.12C500.461 360.228 500.937 360.522 501.27 360.95L501.9 361.75C501.989 361.86 502.053 361.986 502.089 362.123C502.125 362.259 502.132 362.401 502.11 362.54L502 363.27L415.89 350.23Z" fill="white"/>
<path d="M410.47 353.69C413.751 353.69 416.41 351.031 416.41 347.75C416.41 344.469 413.751 341.81 410.47 341.81C407.189 341.81 404.53 344.469 404.53 347.75C404.53 351.031 407.189 353.69 410.47 353.69Z" fill="#EEF8F5"/>
<path opacity="0.5" d="M276.66 476.19L256.22 476.97C256.12 476.971 256.021 476.939 255.94 476.88L247.36 467.31C247.299 467.26 247.255 467.192 247.234 467.117C247.212 467.041 247.214 466.961 247.239 466.886C247.264 466.812 247.311 466.746 247.373 466.699C247.436 466.651 247.512 466.624 247.59 466.62L268.04 465.85C268.089 465.844 268.139 465.849 268.185 465.864C268.232 465.88 268.275 465.906 268.31 465.94L276.9 475.5C276.961 475.551 277.005 475.619 277.027 475.695C277.048 475.772 277.045 475.853 277.019 475.928C276.993 476.003 276.945 476.068 276.881 476.115C276.816 476.162 276.74 476.188 276.66 476.19V476.19Z" fill="#179668"/>
<path d="M261.43 474.27C261.43 474.27 261.6 474.44 262.1 474.39L261.63 473.95L261.43 474.27Z" fill="#335860"/>
<path d="M261.49 463.51L261.63 473.91C261.631 473.977 261.646 474.044 261.674 474.105C261.703 474.167 261.744 474.221 261.795 474.266C261.846 474.31 261.906 474.343 261.97 474.363C262.035 474.383 262.103 474.388 262.17 474.38L269.31 473.6C269.378 473.593 269.443 473.572 269.502 473.538C269.561 473.504 269.612 473.459 269.652 473.404C269.693 473.35 269.722 473.288 269.737 473.221C269.752 473.155 269.753 473.087 269.74 473.02L267.74 462.8C267.714 462.68 267.644 462.574 267.544 462.502C267.445 462.43 267.322 462.397 267.2 462.41L261.95 463.02C261.825 463.028 261.708 463.083 261.623 463.174C261.537 463.265 261.49 463.385 261.49 463.51V463.51Z" fill="#517D84"/>
<path d="M261.43 474.27L258.14 471.49C258.094 471.452 258.055 471.406 258.027 471.353C257.999 471.3 257.981 471.242 257.976 471.183C257.97 471.123 257.976 471.063 257.994 471.006C258.012 470.949 258.041 470.896 258.08 470.85L258.86 469.93L261.6 472.14V474.14C261.604 474.162 261.602 474.184 261.594 474.205C261.586 474.226 261.573 474.244 261.555 474.257C261.537 474.271 261.516 474.279 261.494 474.281C261.472 474.283 261.45 474.28 261.43 474.27V474.27Z" fill="#335860"/>
<path d="M258.86 469.93L261.56 469.67L261.6 472.14L258.86 469.93Z" fill="#27454C"/>
<path d="M261.6 467.07L268.43 466.43L268.83 468.48L261.56 469.29L261.6 467.07Z" fill="#335860"/>
<path d="M278.53 465.24L278.26 465.4L269 455.55C268.915 455.481 268.809 455.446 268.7 455.45L246.17 455.75C246.107 455.759 246.046 455.78 245.99 455.81L245.73 455.64L245.79 456.82C245.808 456.916 245.857 457.004 245.93 457.07L255.38 467.59C255.421 467.626 255.468 467.653 255.52 467.67C255.571 467.687 255.626 467.694 255.68 467.69L278.19 466.84C278.298 466.835 278.4 466.788 278.474 466.71C278.549 466.632 278.59 466.528 278.59 466.42V466.42L278.53 465.24Z" fill="#38606B"/>
<path d="M278.13 465.73L255.62 466.59C255.565 466.593 255.51 466.584 255.459 466.565C255.407 466.546 255.36 466.517 255.32 466.48L245.87 456C245.803 455.944 245.755 455.869 245.731 455.786C245.708 455.702 245.71 455.613 245.738 455.53C245.767 455.448 245.819 455.376 245.889 455.324C245.959 455.272 246.043 455.243 246.13 455.24L268.63 454.39C268.742 454.383 268.853 454.419 268.94 454.49L278.38 465C278.437 465.057 278.476 465.128 278.494 465.207C278.512 465.285 278.508 465.367 278.482 465.443C278.456 465.519 278.409 465.586 278.347 465.637C278.285 465.687 278.21 465.72 278.13 465.73V465.73Z" fill="#F2FAFC"/>
<path d="M261.66 460L251.44 460.35C251.353 460.351 251.266 460.332 251.187 460.296C251.107 460.26 251.037 460.206 250.98 460.14L247.85 456.55C247.81 456.507 247.783 456.453 247.773 456.395C247.762 456.338 247.768 456.278 247.79 456.223C247.812 456.169 247.849 456.122 247.897 456.088C247.945 456.053 248.001 456.033 248.06 456.03L259.14 455.61C259.234 455.606 259.328 455.626 259.413 455.666C259.498 455.706 259.573 455.765 259.63 455.84L262.1 459C262.169 459.088 262.213 459.194 262.227 459.305C262.241 459.416 262.224 459.529 262.179 459.632C262.134 459.734 262.062 459.823 261.97 459.888C261.879 459.952 261.772 459.991 261.66 460V460Z" fill="#66D7F2"/>
<path d="M266 464.11C266.069 464.198 266.113 464.304 266.127 464.415C266.141 464.526 266.124 464.639 266.079 464.742C266.034 464.844 265.962 464.933 265.871 464.998C265.779 465.063 265.672 465.101 265.56 465.11L255.79 465.52C255.7 465.519 255.614 465.483 255.55 465.42L252.75 462.21C252.682 462.123 252.638 462.019 252.623 461.91C252.608 461.8 252.623 461.688 252.666 461.586C252.708 461.484 252.778 461.396 252.867 461.329C252.955 461.263 253.06 461.222 253.17 461.21L263.11 460.83C263.202 460.826 263.293 460.844 263.377 460.882C263.46 460.921 263.533 460.978 263.59 461.05L266 464.11Z" fill="#66D7F2"/>
<path d="M271.28 459.64L264.54 459.86C264.445 459.865 264.351 459.847 264.264 459.809C264.177 459.771 264.1 459.713 264.04 459.64L261.29 456.47C261.216 456.381 261.169 456.274 261.154 456.16C261.139 456.046 261.157 455.93 261.205 455.825C261.253 455.72 261.33 455.632 261.426 455.569C261.523 455.506 261.635 455.472 261.75 455.47L268.41 455.22C268.457 455.219 268.504 455.229 268.547 455.248C268.59 455.267 268.629 455.295 268.66 455.33L271.72 458.62C271.799 458.707 271.851 458.814 271.87 458.93C271.889 459.045 271.875 459.164 271.828 459.272C271.782 459.379 271.706 459.471 271.608 459.537C271.511 459.602 271.397 459.638 271.28 459.64V459.64Z" fill="#66D7F2"/>
<path d="M276.24 464.65L268.55 464.95C268.456 464.955 268.362 464.939 268.276 464.902C268.189 464.866 268.112 464.81 268.05 464.74L265.39 461.67C265.312 461.583 265.261 461.475 265.244 461.359C265.226 461.243 265.243 461.125 265.292 461.019C265.341 460.913 265.42 460.823 265.519 460.761C265.618 460.699 265.733 460.667 265.85 460.67L272.71 460.42C272.801 460.414 272.893 460.428 272.978 460.463C273.063 460.498 273.139 460.551 273.2 460.62L276.47 464.14C276.508 464.185 276.532 464.239 276.54 464.297C276.548 464.355 276.54 464.414 276.516 464.467C276.492 464.521 276.453 464.566 276.404 464.598C276.355 464.631 276.298 464.649 276.24 464.65V464.65Z" fill="#66D7F2"/>
<path opacity="0.8" d="M254.17 455.79L252.56 460.31L257.78 460.12L259.14 455.6L254.17 455.79Z" fill="#9AE9F7"/>
<path opacity="0.8" d="M257.66 461L256.05 465.52L261.27 465.33L262.64 460.81L257.66 461Z" fill="#9AE9F7"/>
<path opacity="0.8" d="M269.56 460.52L268.66 464.95L271.61 464.85L272.37 460.42L269.56 460.52Z" fill="#9AE9F7"/>
<path opacity="0.8" d="M265.56 455.38L264.66 459.81L267.61 459.71L268.37 455.27L265.56 455.38Z" fill="#9AE9F7"/>
<path opacity="0.5" d="M296.21 456.08L281.45 456.64C281.415 456.644 281.38 456.639 281.347 456.627C281.314 456.615 281.284 456.595 281.26 456.57L275.06 449.68C275.019 449.642 274.991 449.593 274.977 449.539C274.964 449.485 274.966 449.428 274.984 449.375C275.002 449.323 275.035 449.276 275.078 449.241C275.122 449.207 275.175 449.186 275.23 449.18L289.98 448.62C290.052 448.614 290.124 448.635 290.18 448.68L296.37 455.58C296.415 455.615 296.448 455.664 296.465 455.718C296.482 455.773 296.481 455.831 296.464 455.886C296.446 455.94 296.413 455.988 296.367 456.023C296.322 456.057 296.267 456.077 296.21 456.08Z" fill="#179668"/>
<path d="M285.22 454.69C285.22 454.69 285.34 454.82 285.7 454.78L285.36 454.46L285.22 454.69Z" fill="#335860"/>
<path d="M285.26 446.93L285.36 454.43C285.36 454.479 285.37 454.528 285.39 454.574C285.41 454.619 285.439 454.66 285.476 454.693C285.513 454.726 285.557 454.751 285.604 454.766C285.651 454.781 285.701 454.786 285.75 454.78L290.9 454.21C290.949 454.205 290.997 454.19 291.04 454.166C291.082 454.142 291.12 454.109 291.149 454.069C291.178 454.03 291.199 453.984 291.209 453.936C291.22 453.888 291.22 453.838 291.21 453.79L289.74 446.42C289.725 446.333 289.677 446.255 289.607 446.203C289.536 446.151 289.447 446.128 289.36 446.14L285.57 446.58C285.484 446.59 285.405 446.631 285.348 446.696C285.291 446.76 285.259 446.844 285.26 446.93Z" fill="#517D84"/>
<path d="M285.22 454.69L282.84 452.69C282.809 452.659 282.784 452.623 282.767 452.582C282.75 452.542 282.742 452.499 282.742 452.455C282.742 452.411 282.75 452.368 282.767 452.328C282.784 452.287 282.809 452.251 282.84 452.22L283.4 451.56L285.4 453.16V454.63C285.408 454.654 285.406 454.68 285.395 454.702C285.384 454.725 285.364 454.742 285.34 454.75C285.316 454.758 285.29 454.756 285.268 454.745C285.245 454.734 285.228 454.714 285.22 454.69V454.69Z" fill="#335860"/>
<path d="M283.36 451.56L285.31 451.38L285.34 453.16L283.36 451.56Z" fill="#27454C"/>
<path d="M285.34 449.5L290.26 449.03L290.56 450.51L285.31 451.1L285.34 449.5Z" fill="#335860"/>
<path d="M297.56 448.18L297.36 448.29L290.67 441.19C290.64 441.164 290.605 441.144 290.567 441.132C290.53 441.12 290.49 441.116 290.45 441.12L274.2 441.33H274.07L273.88 441.21V442.06C273.888 442.131 273.924 442.195 273.98 442.24L280.8 449.83C280.83 449.857 280.864 449.878 280.902 449.892C280.94 449.906 280.98 449.912 281.02 449.91L297.26 449.29C297.337 449.285 297.41 449.251 297.463 449.196C297.517 449.141 297.548 449.067 297.55 448.99L297.56 448.18Z" fill="#38606B"/>
<path d="M297.26 448.53L281.02 449.15C280.944 449.152 280.87 449.127 280.81 449.08L273.99 441.48C273.941 441.441 273.906 441.387 273.888 441.327C273.871 441.267 273.872 441.203 273.891 441.143C273.911 441.084 273.948 441.031 273.997 440.993C274.047 440.955 274.107 440.933 274.17 440.93L290.41 440.32C290.45 440.316 290.489 440.32 290.527 440.332C290.565 440.344 290.6 440.364 290.63 440.39L297.45 447.98C297.499 448.02 297.535 448.074 297.552 448.135C297.569 448.197 297.568 448.261 297.547 448.321C297.526 448.381 297.488 448.433 297.436 448.471C297.385 448.508 297.323 448.529 297.26 448.53V448.53Z" fill="#F2FAFC"/>
<path d="M285.38 444.39L278.01 444.64C277.947 444.642 277.885 444.629 277.828 444.603C277.77 444.577 277.72 444.539 277.68 444.49L275.41 441.9C275.381 441.869 275.362 441.83 275.354 441.787C275.347 441.745 275.352 441.702 275.369 441.663C275.386 441.623 275.414 441.59 275.45 441.566C275.486 441.543 275.527 441.53 275.57 441.53L283.57 441.22C283.637 441.219 283.703 441.233 283.763 441.261C283.824 441.288 283.877 441.329 283.92 441.38L285.71 443.67C285.759 443.735 285.789 443.812 285.798 443.892C285.807 443.973 285.794 444.055 285.76 444.128C285.726 444.202 285.673 444.266 285.606 444.312C285.539 444.358 285.461 444.385 285.38 444.39V444.39Z" fill="#66D7F2"/>
<path d="M288.49 447.36C288.542 447.422 288.575 447.498 288.587 447.578C288.599 447.659 288.588 447.741 288.556 447.815C288.524 447.89 288.471 447.954 288.405 448C288.339 448.047 288.261 448.075 288.18 448.08L281.13 448.38C281.097 448.381 281.065 448.374 281.036 448.36C281.006 448.346 280.98 448.326 280.96 448.3L278.96 445.99C278.906 445.928 278.87 445.853 278.856 445.772C278.843 445.691 278.852 445.608 278.883 445.532C278.914 445.456 278.966 445.39 279.033 445.342C279.099 445.294 279.178 445.266 279.26 445.26L286.43 444.98C286.497 444.975 286.564 444.987 286.626 445.015C286.687 445.043 286.74 445.086 286.78 445.14L288.49 447.36Z" fill="#66D7F2"/>
<path d="M292.32 444.14L287.46 444.3C287.392 444.3 287.325 444.286 287.263 444.259C287.201 444.231 287.145 444.191 287.1 444.14L285.1 441.85C285.044 441.788 285.007 441.711 284.993 441.629C284.98 441.546 284.991 441.462 285.025 441.385C285.059 441.309 285.114 441.244 285.184 441.199C285.255 441.153 285.336 441.13 285.42 441.13L290.23 440.95C290.264 440.949 290.298 440.956 290.329 440.97C290.36 440.984 290.388 441.004 290.41 441.03L292.62 443.4C292.677 443.461 292.716 443.538 292.731 443.62C292.747 443.703 292.738 443.788 292.706 443.866C292.675 443.944 292.622 444.011 292.553 444.059C292.485 444.108 292.404 444.136 292.32 444.14Z" fill="#66D7F2"/>
<path d="M295.9 447.75L290.35 447.97C290.283 447.974 290.215 447.963 290.153 447.937C290.09 447.911 290.035 447.871 289.99 447.82L288.07 445.6C288.018 445.536 287.984 445.459 287.973 445.377C287.962 445.295 287.975 445.212 288.009 445.137C288.044 445.062 288.099 444.998 288.168 444.952C288.237 444.907 288.318 444.882 288.4 444.88L293.4 444.7C293.465 444.697 293.53 444.708 293.59 444.733C293.65 444.757 293.705 444.793 293.75 444.84L296.11 447.38C296.145 447.414 296.167 447.459 296.174 447.507C296.181 447.555 296.172 447.604 296.148 447.646C296.124 447.688 296.086 447.721 296.042 447.74C295.997 447.759 295.947 447.762 295.9 447.75V447.75Z" fill="#66D7F2"/>
<path opacity="0.8" d="M279.98 441.36L278.81 444.62L282.58 444.48L283.56 441.22L279.98 441.36Z" fill="#9AE9F7"/>
<path opacity="0.8" d="M282.5 445.12L281.33 448.38L285.1 448.24L286.08 444.98L282.5 445.12Z" fill="#9AE9F7"/>
<path opacity="0.8" d="M291.08 444.77L290.43 447.97L292.56 447.9L293.11 444.7L291.08 444.77Z" fill="#9AE9F7"/>
<path opacity="0.8" d="M288.19 441.06L287.55 444.26L289.67 444.19L290.22 440.99L288.19 441.06Z" fill="#9AE9F7"/>
<path d="M139.67 426.98H139.27V434.42H139.67V426.98Z" fill="#178EA6"/>
<path d="M139.67 427.08H139.27V429.7L139.67 429.1V427.08Z" fill="#006776"/>
<path d="M139.86 433.74H139.08C138.908 433.74 138.742 433.808 138.62 433.93C138.498 434.052 138.43 434.218 138.43 434.39V439L140.51 436.95V434.38C140.507 434.209 140.438 434.047 140.316 433.927C140.194 433.807 140.031 433.74 139.86 433.74V433.74Z" fill="#41A7C0"/>
<path d="M138.77 427C138.758 427.098 138.767 427.198 138.797 427.293C138.827 427.387 138.876 427.474 138.941 427.548C139.007 427.622 139.088 427.681 139.178 427.722C139.268 427.763 139.366 427.784 139.465 427.784C139.564 427.784 139.662 427.763 139.752 427.722C139.842 427.681 139.923 427.622 139.989 427.548C140.054 427.474 140.104 427.387 140.133 427.293C140.163 427.198 140.172 427.098 140.16 427C140.16 426.817 140.087 426.642 139.958 426.512C139.829 426.383 139.653 426.31 139.47 426.31C139.379 426.309 139.288 426.326 139.203 426.36C139.118 426.394 139.041 426.444 138.976 426.509C138.911 426.573 138.859 426.649 138.824 426.734C138.788 426.818 138.77 426.909 138.77 427V427Z" fill="white"/>
<path d="M139.86 433.74H139.06V433.79C139.06 434.88 139.59 435.79 140.25 435.79C140.336 435.805 140.424 435.805 140.51 435.79V434.45C140.51 434.278 140.442 434.112 140.32 433.99C140.198 433.868 140.032 433.8 139.86 433.8V433.74Z" fill="#56C0D7"/>
<path d="M138.91 423.9C138.356 424.015 137.849 424.289 137.449 424.689C137.049 425.089 136.775 425.596 136.66 426.15C136.59 426.451 136.57 426.762 136.6 427.07C136.638 427.425 136.815 427.751 137.092 427.976C137.37 428.2 137.725 428.306 138.08 428.27V428.27C137.833 428.03 137.65 427.733 137.546 427.404C137.443 427.076 137.422 426.727 137.487 426.389C137.551 426.051 137.699 425.734 137.916 425.467C138.133 425.2 138.413 424.991 138.731 424.859C139.048 424.726 139.394 424.675 139.736 424.709C140.079 424.743 140.407 424.862 140.693 425.054C140.978 425.246 141.211 425.507 141.371 425.811C141.532 426.116 141.614 426.456 141.61 426.8V427C141.755 426.899 141.879 426.771 141.973 426.622C142.068 426.472 142.132 426.306 142.162 426.132C142.192 425.958 142.187 425.78 142.147 425.608C142.107 425.436 142.033 425.273 141.93 425.13C141.599 424.656 141.138 424.287 140.602 424.069C140.066 423.851 139.478 423.792 138.91 423.9V423.9Z" fill="white"/>
<path d="M139.55 421.27C138.085 421.27 136.68 421.851 135.643 422.886C134.606 423.921 134.023 425.325 134.02 426.79C134.026 427.025 134.104 427.253 134.243 427.443C134.383 427.632 134.577 427.774 134.8 427.85L135.06 427.94C134.96 427.561 134.91 427.172 134.91 426.78C134.908 425.735 135.261 424.72 135.909 423.9C136.558 423.08 137.465 422.504 138.482 422.265C139.5 422.027 140.569 422.139 141.514 422.585C142.46 423.031 143.227 423.783 143.69 424.72V424.72C143.859 424.439 143.931 424.11 143.893 423.784C143.855 423.458 143.71 423.154 143.48 422.92C142.966 422.4 142.354 421.986 141.68 421.703C141.005 421.42 140.281 421.272 139.55 421.27Z" fill="white"/>
<path d="M131.73 425.76L131.94 425.97C132.089 424.555 132.629 423.209 133.501 422.085C134.374 420.961 135.542 420.102 136.876 419.607C138.21 419.111 139.655 418.997 141.05 419.279C142.445 419.56 143.733 420.226 144.77 421.2V420.85C144.766 420.58 144.694 420.315 144.559 420.08C144.424 419.846 144.232 419.649 144 419.51C142.659 418.684 141.115 418.247 139.54 418.25C137.717 418.254 135.941 418.837 134.471 419.915C133.001 420.994 131.911 422.512 131.36 424.25C131.289 424.512 131.286 424.789 131.351 425.053C131.415 425.317 131.546 425.56 131.73 425.76V425.76Z" fill="white"/>
<path d="M530.98 422.72H530.05V439.77H530.98V422.72Z" fill="#178EA6"/>
<path d="M530.05 422.94H530.98V428.94L530.05 427.57V422.94Z" fill="#006776"/>
<path d="M529.63 438.19H531.41C531.606 438.19 531.8 438.228 531.98 438.303C532.161 438.378 532.325 438.488 532.464 438.626C532.602 438.765 532.712 438.929 532.787 439.11C532.862 439.291 532.9 439.484 532.9 439.68V439.68V450.26L528.13 445.58V439.68C528.133 439.284 528.292 438.905 528.573 438.626C528.854 438.347 529.234 438.19 529.63 438.19Z" fill="#41A7C0"/>
<path d="M532.11 422.85C532.11 423.164 532.017 423.472 531.842 423.733C531.667 423.995 531.419 424.199 531.129 424.319C530.838 424.439 530.518 424.471 530.21 424.409C529.902 424.348 529.618 424.197 529.396 423.974C529.173 423.752 529.022 423.469 528.961 423.16C528.899 422.852 528.931 422.532 529.051 422.242C529.172 421.951 529.375 421.703 529.637 421.528C529.898 421.353 530.206 421.26 530.52 421.26V421.26C530.942 421.26 531.346 421.428 531.644 421.726C531.943 422.024 532.11 422.428 532.11 422.85V422.85Z" fill="white"/>
<path d="M529.63 438.19H531.45V438.31C531.45 440.82 530.23 442.86 528.72 442.86C528.518 442.858 528.319 442.821 528.13 442.75V439.68C528.133 439.284 528.292 438.905 528.573 438.626C528.854 438.347 529.234 438.19 529.63 438.19Z" fill="#56C0D7"/>
<path d="M531.79 415.66C533.067 415.911 534.242 416.532 535.169 417.446C536.095 418.36 536.732 419.526 537 420.8C537.152 421.492 537.199 422.204 537.14 422.91C537.049 423.724 536.642 424.469 536.005 424.983C535.369 425.498 534.555 425.741 533.74 425.66V425.66C534.291 425.109 534.698 424.432 534.925 423.687C535.152 422.941 535.191 422.152 535.04 421.388C534.889 420.624 534.552 419.908 534.059 419.306C533.566 418.703 532.932 418.231 532.213 417.931C531.494 417.632 530.712 417.514 529.937 417.588C529.161 417.663 528.416 417.927 527.768 418.358C527.119 418.789 526.586 419.373 526.217 420.059C525.848 420.745 525.653 421.511 525.65 422.29V422.65C525.321 422.416 525.04 422.119 524.826 421.777C524.611 421.435 524.466 421.053 524.399 420.654C524.332 420.256 524.345 419.848 524.436 419.454C524.527 419.061 524.695 418.689 524.93 418.36V418.36C525.692 417.297 526.745 416.477 527.962 415.998C529.179 415.519 530.508 415.402 531.79 415.66V415.66Z" fill="white"/>
<path d="M530.34 409.62C533.696 409.625 536.913 410.961 539.286 413.334C541.659 415.707 542.995 418.924 543 422.28V422.28C542.987 422.817 542.811 423.337 542.495 423.771C542.178 424.206 541.737 424.533 541.23 424.71L540.62 424.91C540.852 424.046 540.97 423.155 540.97 422.26C540.976 419.864 540.17 417.536 538.685 415.656C537.199 413.776 535.121 412.454 532.788 411.906C530.456 411.357 528.006 411.615 525.838 412.636C523.671 413.657 521.912 415.382 520.85 417.53V417.53C520.466 416.887 520.306 416.135 520.395 415.391C520.484 414.648 520.816 413.955 521.34 413.42C522.515 412.223 523.915 411.271 525.46 410.619C527.004 409.967 528.663 409.627 530.34 409.62Z" fill="white"/>
<path d="M548.23 419.92C548.08 420.08 547.93 420.25 547.77 420.41C547.436 417.164 546.203 414.076 544.208 411.493C542.214 408.91 539.538 406.936 536.481 405.792C533.425 404.649 530.11 404.382 526.91 405.021C523.71 405.66 520.753 407.18 518.37 409.41V408.62C518.379 408.001 518.546 407.395 518.856 406.859C519.166 406.323 519.608 405.876 520.14 405.56C523.211 403.662 526.75 402.658 530.36 402.66C534.538 402.669 538.605 404.009 541.971 406.485C545.337 408.961 547.827 412.444 549.08 416.43C549.251 417.036 549.263 417.675 549.114 418.287C548.965 418.898 548.661 419.461 548.23 419.92V419.92Z" fill="white"/>
<path d="M492.47 479.15H182.08V216.3H499.62V472C499.62 473.896 498.867 475.715 497.526 477.056C496.185 478.397 494.366 479.15 492.47 479.15V479.15Z" fill="#FCFBFA"/>
<path d="M492.47 480.09H181.15V215.37H500.56V472C500.558 474.145 499.704 476.201 498.188 477.718C496.671 479.234 494.615 480.087 492.47 480.09V480.09ZM183 478.22H492.47C494.119 478.217 495.7 477.561 496.865 476.395C498.031 475.23 498.688 473.649 498.69 472V217.23H183V478.22Z" fill="#00707A"/>
<path d="M463.12 287.27C463.12 287.41 406.19 287.53 335.99 287.53C265.79 287.53 208.85 287.41 208.85 287.27C208.85 287.13 265.76 287 336 287C406.24 287 463.12 287.12 463.12 287.27Z" fill="#E0E0E0"/>
<path d="M463.12 315.34C463.12 315.49 406.19 315.61 335.99 315.61C265.79 315.61 208.85 315.49 208.85 315.34C208.85 315.19 265.76 315.08 335.99 315.08C406.22 315.08 463.12 315.2 463.12 315.34Z" fill="#E0E0E0"/>
<path d="M463.12 343.42C463.12 343.57 406.19 343.68 335.99 343.68C265.79 343.68 208.85 343.57 208.85 343.42C208.85 343.27 265.76 343.16 335.99 343.16C406.22 343.16 463.12 343.28 463.12 343.42Z" fill="#E0E0E0"/>
<path d="M463.12 371.5C463.12 371.64 406.19 371.76 335.99 371.76C265.79 371.76 208.85 371.64 208.85 371.5C208.85 371.36 265.76 371.24 335.99 371.24C406.22 371.24 463.12 371.35 463.12 371.5Z" fill="#E0E0E0"/>
<path d="M463.12 399.57C463.12 399.72 406.19 399.84 335.99 399.84C265.79 399.84 208.85 399.72 208.85 399.57C208.85 399.42 265.76 399.31 335.99 399.31C406.22 399.31 463.12 399.43 463.12 399.57Z" fill="#E0E0E0"/>
<path d="M463.12 427.65C463.12 427.8 406.19 427.91 335.99 427.91C265.79 427.91 208.85 427.8 208.85 427.65C208.85 427.5 265.76 427.39 335.99 427.39C406.22 427.39 463.12 427.51 463.12 427.65Z" fill="#E0E0E0"/>
<path d="M369.06 373.9H386.22C387.305 373.9 388.345 374.331 389.112 375.098C389.879 375.865 390.31 376.905 390.31 377.99V455.47H365V378C364.997 376.919 365.423 375.88 366.184 375.112C366.945 374.344 367.979 373.908 369.06 373.9V373.9Z" fill="#23B781"/>
<path d="M416.9 347H434.06C435.145 347 436.185 347.431 436.952 348.198C437.719 348.965 438.15 350.005 438.15 351.09V455.46H412.81V351C412.834 349.931 413.275 348.914 414.039 348.166C414.804 347.418 415.831 347 416.9 347V347Z" fill="#23B781"/>
<path d="M235.71 417.29H252.87C253.955 417.29 254.995 417.721 255.762 418.488C256.529 419.255 256.96 420.295 256.96 421.38V455.47H231.63V421.37C231.633 420.289 232.063 419.253 232.828 418.488C233.593 417.723 234.629 417.293 235.71 417.29V417.29Z" fill="#23B781"/>
<path d="M277.62 405.9H294.78C295.865 405.9 296.905 406.331 297.672 407.098C298.439 407.865 298.87 408.905 298.87 409.99V455.47H273.54V410C273.539 409.463 273.643 408.931 273.848 408.434C274.052 407.937 274.352 407.486 274.731 407.105C275.11 406.724 275.56 406.422 276.056 406.215C276.551 406.008 277.083 405.901 277.62 405.9V405.9Z" fill="#23B781"/>
<path d="M321.06 391.48H338.22C339.305 391.48 340.345 391.911 341.112 392.678C341.879 393.445 342.31 394.485 342.31 395.57V455.47H317V395.57C317 394.49 317.427 393.455 318.187 392.688C318.948 391.922 319.98 391.488 321.06 391.48V391.48Z" fill="#23B781"/>
<path d="M500.73 211.5H181.07C176.26 211.5 172.36 215.4 172.36 220.21V222.16C172.36 226.97 176.26 230.87 181.07 230.87H500.73C505.54 230.87 509.44 226.97 509.44 222.16V220.21C509.44 215.4 505.54 211.5 500.73 211.5Z" fill="#006668"/>
<path d="M465.43 455.46H464.26H460.84L447.7 455.51L399.34 455.59L239.8 455.67H208V455.41C208 400.49 208.06 351.96 208.08 317.16C208.08 299.76 208.14 285.8 208.16 276.16C208.16 271.36 208.16 267.64 208.16 265.11C208.16 263.86 208.16 262.9 208.16 262.25C208.16 261.6 208.16 261.25 208.16 261.25C208.16 261.25 208.16 261.58 208.16 262.25C208.16 262.92 208.16 263.86 208.16 265.11C208.16 267.64 208.16 271.36 208.21 276.16C208.21 285.78 208.21 299.74 208.29 317.16C208.29 351.96 208.34 400.49 208.37 455.41L208.12 455.15H239.8L399.34 455.23L447.7 455.31L460.84 455.36H464.26L465.43 455.46Z" fill="#00707A"/>
<path d="M220.86 276.1C218.775 276.37 216.671 276.46 214.57 276.37C212.47 276.46 210.365 276.37 208.28 276.1C210.366 275.843 212.47 275.756 214.57 275.84C216.67 275.756 218.774 275.843 220.86 276.1V276.1Z" fill="#00707A"/>
<path d="M220.86 302.82C218.774 303.077 216.67 303.164 214.57 303.08C212.47 303.164 210.366 303.077 208.28 302.82C210.365 302.55 212.47 302.46 214.57 302.55C216.671 302.46 218.775 302.551 220.86 302.82Z" fill="#00707A"/>
<path d="M220.86 329.53C218.774 329.787 216.67 329.874 214.57 329.79C212.47 329.874 210.366 329.787 208.28 329.53C210.365 329.26 212.47 329.17 214.57 329.26C216.671 329.17 218.775 329.26 220.86 329.53Z" fill="#00707A"/>
<path d="M220.86 356.24C218.774 356.497 216.67 356.584 214.57 356.5C212.47 356.584 210.366 356.497 208.28 356.24C210.365 355.97 212.47 355.88 214.57 355.97C216.671 355.88 218.775 355.97 220.86 356.24V356.24Z" fill="#00707A"/>
<path d="M220.86 383C218.774 383.257 216.67 383.344 214.57 383.26C212.47 383.344 210.366 383.257 208.28 383C210.365 382.73 212.47 382.64 214.57 382.73C216.671 382.64 218.775 382.73 220.86 383Z" fill="#00707A"/>
<path d="M220.86 409.66C218.774 409.917 216.67 410.004 214.57 409.92C212.47 410.004 210.366 409.917 208.28 409.66C210.366 409.397 212.47 409.31 214.57 409.4C216.67 409.31 218.774 409.397 220.86 409.66V409.66Z" fill="#00707A"/>
<path d="M180.15 413.37C180.15 413.37 188.9 429.49 192.64 426.26C196.38 423.03 225.35 395.61 225.35 395.61L242.06 402.54C242.06 402.54 200.06 461.79 184.06 458.19C168.06 454.59 157.17 429.45 157.17 429.45L180.15 413.37Z" fill="#F9AE83"/>
<path d="M240.37 404.88C244.87 403.61 252.63 396.5 255.69 393.88C262.06 388.37 261.57 387.79 260.8 387.16C258.74 385.46 249.24 396.43 249.91 392.89C250.58 389.35 263.1 380.82 260.91 379.14C258 376.94 248.26 388.61 247.36 389.53C246.46 390.45 245.1 389.19 245.95 388.4C247.18 387.26 259.79 374.97 256.95 372.79C255.38 371.58 253.46 374.6 253.46 374.6C253.46 374.6 242.46 386.96 241.21 385.89C239.96 384.82 246.07 377.32 248.34 374.94C250.61 372.56 250.34 370.58 248.51 370.45C247.24 370.37 240.13 377.45 237.95 379.87C235.77 382.29 229.89 388.96 230.1 383.31C230.31 377.66 228.35 373.23 226.98 372.4C225.61 371.57 223.98 373.17 224.64 374.8C225.195 376.626 225.491 378.521 225.52 380.43C225.61 381.972 225.434 383.518 225 385C224.79 385.68 224.59 386.33 224.39 386.94C223.46 389.76 225.79 395.54 223.5 397.45" fill="#F9AE83"/>
<path d="M242 397.37C242.09 397.37 241.75 396.47 240.59 395.63C239.826 395.086 238.947 394.724 238.022 394.572C237.097 394.419 236.148 394.48 235.25 394.75L235.75 395.5C236.914 394.049 237.539 392.24 237.52 390.38C237.52 388.98 237.11 388.18 237 388.21C236.903 388.919 236.856 389.634 236.86 390.35C236.692 392.014 236.054 393.595 235.02 394.91V394.91L234.13 396.08L235.53 395.65C237.11 395.2 238.803 395.394 240.24 396.19C241.4 396.8 241.92 397.47 242 397.37Z" fill="#EAA27D"/>
<path fill-rule="evenodd" clip-rule="evenodd" d="M188.35 425.15C187.43 424.42 153.54 367.42 135.45 368.15C117.79 368.89 165.28 445.77 165.28 445.77C165.28 445.77 171.96 447.98 181.09 439.65C190.22 431.32 188.35 425.15 188.35 425.15Z" fill="#E23B5B"/>
<path d="M67.3301 382.55C67.3301 382.55 89.9801 365.55 116.08 365.55C137.08 365.55 145.67 373.55 145.67 373.55L159.8 474.17L76.8001 475.47L67.3301 382.55Z" fill="#FF4964"/>
<path d="M97.76 368.16C98.2045 369.925 98.8277 371.641 99.62 373.28C101.35 377.06 111.45 391.52 125.97 389.49C140.2 387.49 134.24 374.33 132.97 371.72C131.97 369.61 129.22 366.14 127.17 366.14C123.06 366.14 106.89 365.24 100.63 367.2C99.36 367.6 97.76 368.16 97.76 368.16Z" fill="#F9AE83"/>
<path d="M103.097 417.298C104.668 416.985 105.673 415.388 105.343 413.73C105.012 412.073 103.471 410.983 101.9 411.297C100.329 411.61 99.3241 413.207 99.6547 414.865C99.9853 416.522 101.527 417.612 103.097 417.298Z" fill="#E7F1F2"/>
<path d="M92.0001 370.68C91.3001 368.52 80.7101 374.14 80.7101 374.14C80.7101 374.14 97.0401 412.9 94.7101 425.71C92.8301 435.79 73.5501 441.54 71.7901 426.26C71.0801 420.1 76.6201 523.5 76.6201 523.5H163.11C163.11 523.5 158.52 396 145.6 371.94C144.75 370.37 137.19 368.34 137.6 369.18C141.76 378.77 149.6 397.33 145 410.08C142.59 416.71 124.12 424.26 110.7 411.08C105.28 405.84 95.0001 379.88 92.0001 370.68Z" fill="#0A96AD"/>
<path d="M95.3501 417.33C96.5983 418.831 98.093 420.11 99.7701 421.11C100.531 421.546 101.373 421.824 102.245 421.925C103.116 422.026 103.999 421.95 104.84 421.7C105.651 421.45 106.395 421.023 107.02 420.45C107.64 419.816 108.132 419.069 108.47 418.25C109.155 416.425 109.534 414.499 109.59 412.55C110.279 414.539 110.377 416.686 109.87 418.73C109.575 419.817 109.043 420.824 108.31 421.68C107.5 422.511 106.502 423.135 105.4 423.5C104.3 423.822 103.14 423.887 102.01 423.69C100.925 423.459 99.9026 422.998 99.0101 422.34C97.3208 421.069 96.0469 419.325 95.3501 417.33V417.33Z" fill="#0B7189"/>
<path d="M103 417.32C102.248 417.361 101.507 417.124 100.919 416.653C100.331 416.182 99.9379 415.511 99.8141 414.768C99.6903 414.025 99.8448 413.262 100.248 412.626C100.651 411.99 101.275 411.525 102 411.32C102.33 411.256 102.67 411.256 103 411.32H102.86C102.089 411.497 101.418 411.971 100.995 412.64C100.572 413.308 100.43 414.117 100.6 414.89C100.705 415.491 100.992 416.046 101.42 416.48C101.849 416.914 102.4 417.207 103 417.32V417.32Z" fill="#C2C6C6"/>
<path d="M103.1 417.3H102.96C102.343 417.201 101.772 416.911 101.328 416.472C100.883 416.033 100.587 415.466 100.48 414.85C100.31 414.077 100.452 413.268 100.875 412.599C101.298 411.931 101.969 411.456 102.74 411.28H102.88C103.497 411.381 104.066 411.673 104.509 412.114C104.952 412.555 105.246 413.124 105.35 413.74C105.518 414.51 105.376 415.315 104.955 415.981C104.534 416.647 103.867 417.121 103.1 417.3V417.3Z" fill="#E7F1F2"/>
<path d="M147.2 407.84C147.473 408.701 147.934 409.49 148.55 410.15C149.137 410.734 149.932 411.061 150.76 411.06C151.158 411.098 151.559 411.049 151.935 410.916C152.312 410.783 152.655 410.569 152.94 410.29C153.472 409.582 153.77 408.725 153.79 407.84C153.975 408.311 154.05 408.818 154.008 409.323C153.967 409.827 153.81 410.315 153.55 410.75C153.24 411.206 152.797 411.556 152.28 411.75C151.784 411.931 151.258 412.013 150.73 411.99C150.202 411.985 149.682 411.859 149.211 411.621C148.739 411.384 148.328 411.041 148.01 410.62C147.428 409.814 147.141 408.832 147.2 407.84Z" fill="#0B7189"/>
<path d="M150.82 408.42C150.31 408.481 149.797 408.344 149.385 408.037C148.974 407.73 148.696 407.276 148.61 406.77C148.457 406.244 148.507 405.68 148.752 405.191C148.997 404.701 149.418 404.322 149.93 404.13C150.132 404.074 150.342 404.057 150.55 404.08H150.46C149.948 404.272 149.527 404.651 149.282 405.141C149.037 405.631 148.987 406.194 149.14 406.72C149.21 407.142 149.409 407.532 149.71 407.837C150.011 408.141 150.399 408.345 150.82 408.42Z" fill="#C2C6C6"/>
<path d="M150.91 408.4H150.82C150.401 408.326 150.016 408.125 149.715 407.825C149.414 407.524 149.214 407.138 149.14 406.72C148.987 406.194 149.037 405.63 149.282 405.141C149.527 404.651 149.948 404.272 150.46 404.08H150.55C150.97 404.154 151.357 404.356 151.658 404.659C151.958 404.961 152.158 405.349 152.23 405.77C152.386 406.294 152.336 406.857 152.09 407.346C151.845 407.835 151.423 408.211 150.91 408.4V408.4Z" fill="#E7F1F2"/>
<path d="M105.42 441.63C105.42 441.63 140.15 447.11 153.42 434.54L156.53 479.28C156.53 479.28 153.04 490.87 136.41 492.85C119.78 494.83 108.8 482 108.8 482L105.42 441.63Z" fill="#0B7189"/>
<path d="M109.23 447.12L109.02 444.65L109.62 444.74C109.62 444.74 110.29 444.85 111.47 444.99L111.35 445.92L110.06 445.76L110.17 447.04L109.23 447.12Z" fill="#0E9EA5"/>
<path d="M124.11 446.71H122.11V445.76C122.8 445.76 123.49 445.76 124.21 445.76H125.67V446.71H124.11ZM129.29 446.57V445.63C130.5 445.56 131.7 445.46 132.83 445.33L132.94 446.27C131.73 446.4 130.52 446.5 129.29 446.57ZM118.51 446.57C117.21 446.5 116 446.41 114.93 446.31L115.01 445.38C116.08 445.47 117.27 445.56 118.56 445.63L118.51 446.57ZM136.51 445.8L136.35 444.87C137.56 444.67 138.73 444.43 139.82 444.15L140.05 445.07C138.89 445.33 137.69 445.57 136.46 445.78L136.51 445.8ZM143.51 444.03L143.2 443.14C144.306 442.755 145.385 442.297 146.43 441.77L146.86 442.61C145.762 443.147 144.629 443.612 143.47 444L143.51 444.03Z" fill="#0E9EA5"/>
<path d="M150.75 441L150.69 440.08C150.45 440.286 150.2 440.486 149.94 440.68L149.37 439.93C149.858 439.563 150.326 439.169 150.77 438.75L151.49 438.06L151.69 440.94L150.75 441Z" fill="#0E9EA5"/>
<path d="M134.08 490.22V489.28C134.83 489.28 135.59 489.2 136.34 489.11C136.85 489.05 137.34 488.98 137.83 488.9L137.99 489.83C137.49 489.91 136.99 489.99 136.45 490.05C135.65 490.14 134.86 490.2 134.08 490.22ZM130.18 490.04C128.887 489.88 127.606 489.626 126.35 489.28L126.61 488.37C127.82 488.706 129.054 488.953 130.3 489.11L130.18 490.04ZM141.74 488.92L141.46 488.02C142.653 487.644 143.813 487.172 144.93 486.61L145.36 487.44C144.198 488.036 142.987 488.531 141.74 488.92V488.92ZM122.68 488C121.49 487.478 120.331 486.887 119.21 486.23L119.69 485.42C120.775 486.057 121.897 486.628 123.05 487.13L122.68 488ZM148.68 485.36L148.1 484.62C149.079 483.85 149.977 482.982 150.78 482.03L151.5 482.64C150.651 483.634 149.703 484.539 148.67 485.34L148.68 485.36ZM116 484C114.971 483.208 113.99 482.357 113.06 481.45L113.72 480.78C114.623 481.66 115.578 482.485 116.58 483.25L116 484ZM153.68 479.29L152.84 478.88C153.026 478.507 153.19 478.123 153.33 477.73L153.16 475.39L154.16 475.33L154.33 477.85V477.93C154.14 478.409 153.916 478.873 153.66 479.32L153.68 479.29ZM111.8 477.7L111.48 473.88L112.41 473.8L112.73 477.62L111.8 477.7ZM152.88 471.6L152.61 467.77L153.55 467.7L153.82 471.53L152.88 471.6ZM111.16 470.06L110.83 466.24L111.77 466.16L112.09 469.98L111.16 470.06ZM152.35 463.94L152.08 460.12L153.02 460.05L153.29 463.88L152.35 463.94ZM110.51 462.41L110.19 458.59L111.13 458.51L111.45 462.33L110.51 462.41ZM151.82 456.29L151.55 452.46L152.49 452.4L152.76 456.22L151.82 456.29ZM109.87 454.77L109.55 450.95L110.49 450.87L110.81 454.69L109.87 454.77ZM151.28 448.64L151.02 444.81L151.96 444.74L152.23 448.57L151.28 448.64Z" fill="#0E9EA5"/>
<path fill-rule="evenodd" clip-rule="evenodd" d="M169.08 452.4C152.32 449.54 186.47 411.99 192.64 426.26C193 427.09 189.87 435.26 189.44 436.09C186.44 441.72 183.05 457.09 183.05 457.09C180.26 460.38 174.51 453.33 169.08 452.4Z" fill="#D1375C"/>
<path d="M130.42 347.46C167.983 338.601 195.826 320.36 192.608 306.717C189.391 293.074 156.332 289.196 118.769 298.055C81.2054 306.914 53.3627 325.155 56.5801 338.798C59.7976 352.44 92.8568 356.318 130.42 347.46Z" fill="#9E7B57"/>
<path d="M132.25 283C139.58 280.62 151.4 284.07 153.66 301.42C155.36 314.42 153.32 329.92 146 332.3C138.68 334.68 130.35 322.25 126.31 309.82C122.27 297.39 124.93 285.39 132.25 283Z" fill="#1D394F"/>
<path d="M117.269 336.173L111.171 336.317C106.103 336.436 102.09 340.642 102.21 345.711L102.741 368.244C102.86 373.313 107.066 377.325 112.135 377.206L118.233 377.062C123.302 376.942 127.314 372.737 127.194 367.668L126.663 345.134C126.544 340.066 122.338 336.054 117.269 336.173Z" fill="#F9AE83"/>
<path d="M132.6 363.33C120.18 364.44 103.6 357.94 98.45 339.38L91.92 316.07C90.43 299.36 96.99 281.78 118.75 279.84C135.15 278.38 149.75 290.84 151.25 307.53L152.25 330.92C152 349.26 145.61 362.18 132.6 363.33Z" fill="#F9AE83"/>
<path d="M102.45 325.32C102.82 323.69 105.29 332.87 105.81 330.72C106.67 327.18 108.99 325.59 108.26 319.72C108.09 318.34 108.03 313.56 108.51 312.95C115.7 303.87 144.14 299.17 151.28 308.52C151.28 308.52 152.05 275.73 120.33 278.67C86.58 281.79 91.22 308.3 91.92 316.1C92.86 326.66 96.92 347.21 102.46 348.63C102.46 348.6 99.16 339.73 102.45 325.32Z" fill="#1D394F"/>
<path d="M98.8454 339.611C102.766 338.854 105.11 333.923 104.08 328.598C103.051 323.273 99.0386 319.571 95.1181 320.328C91.1977 321.086 88.8539 326.017 89.8832 331.342C90.9124 336.667 94.925 340.369 98.8454 339.611Z" fill="#F9AE83"/>
<path d="M92.21 324.69C93.4619 324.11 94.8781 323.99 96.21 324.35C97.5741 324.711 98.8017 325.466 99.74 326.52C100.637 327.551 101.317 328.751 101.74 330.05C101.92 330.7 102.1 331.34 102.22 331.99C102.34 332.64 102.36 333.31 102.37 333.99C102.06 333.39 101.81 332.8 101.55 332.21C101.29 331.62 100.98 331.07 100.73 330.5C100.164 329.422 99.4729 328.415 98.67 327.5C97.8652 326.586 96.8693 325.861 95.7529 325.376C94.6365 324.89 93.4269 324.656 92.21 324.69V324.69Z" fill="#C97355"/>
<path d="M94.6001 329.6C95.0273 328.904 95.7088 328.402 96.5001 328.2C97.3305 327.983 98.2093 328.046 99.0001 328.38C99.7478 328.715 100.403 329.226 100.91 329.87C101.133 330.193 101.34 330.526 101.53 330.87C101.684 331.227 101.811 331.594 101.91 331.97C101.588 331.764 101.281 331.537 100.99 331.29C100.71 331.07 100.41 330.87 100.15 330.65C99.6213 330.261 99.0552 329.926 98.4601 329.65C97.2243 329.154 95.8483 329.137 94.6001 329.6Z" fill="#C97355"/>
<path d="M138.85 300.5C138.85 300.5 134.03 312.25 123.41 314.41C123.295 314.432 123.176 314.418 123.069 314.371C122.961 314.324 122.871 314.245 122.809 314.145C122.748 314.046 122.718 313.93 122.723 313.813C122.729 313.696 122.769 313.583 122.84 313.49C124.17 311.74 126.31 308.19 125.77 303.99C125 298 138.85 300.5 138.85 300.5Z" fill="#1D394F"/>
<path d="M152.38 307.78C151.14 310.78 145.97 315.59 133.85 318.23C133.746 318.256 133.635 318.249 133.535 318.21C133.434 318.171 133.348 318.102 133.289 318.012C133.23 317.921 133.2 317.815 133.204 317.707C133.207 317.6 133.245 317.496 133.31 317.41C134.86 315.32 137.84 310.41 136.87 304.75C135.74 298.07 150.52 305.75 151.96 307.07C152.22 307.3 152.52 307.46 152.38 307.78Z" fill="#1D394F"/>
<path d="M135.77 328.59C136.835 329.806 137.777 331.126 138.58 332.53C139.44 333.94 140.097 335.465 140.53 337.06C140.624 337.507 140.671 337.963 140.67 338.42C140.66 338.693 140.61 338.962 140.52 339.22C140.408 339.534 140.202 339.806 139.93 340C139.527 340.236 139.093 340.414 138.64 340.53C138.227 340.637 137.805 340.711 137.38 340.75C135.742 340.892 134.091 340.732 132.51 340.28C134.085 340.186 135.652 339.986 137.2 339.68C137.57 339.59 137.93 339.48 138.28 339.37C138.589 339.258 138.885 339.11 139.16 338.93C139.221 338.853 139.265 338.765 139.291 338.67C139.317 338.576 139.323 338.477 139.31 338.38C139.308 338.042 139.264 337.707 139.18 337.38C138.769 335.888 138.245 334.431 137.61 333.02C137 331.55 136.35 330.1 135.77 328.59Z" fill="#C97355"/>
<path d="M141.27 348.3C139.965 349.34 138.416 350.028 136.77 350.3C135.12 350.604 133.432 350.642 131.77 350.41C130.132 350.173 128.529 349.733 127 349.1C126.24 348.79 125.51 348.4 124.78 348.04C124.05 347.68 123.39 347.19 122.78 346.71C123.58 346.91 124.34 347.17 125.1 347.42L127.39 348.07C128.17 348.22 128.91 348.5 129.69 348.61L130.84 348.85L132 349C133.54 349.216 135.097 349.283 136.65 349.2C138.225 349.118 139.78 348.815 141.27 348.3V348.3Z" fill="#C97355"/>
<path d="M137.85 353C137.562 353.55 137.087 353.98 136.51 354.21C135.953 354.459 135.35 354.588 134.74 354.59C134.147 354.593 133.56 354.481 133.01 354.26C132.444 354.044 131.935 353.702 131.52 353.26C132.08 353.179 132.645 353.146 133.21 353.16C133.74 353.16 134.21 353.16 134.74 353.16C135.27 353.16 135.74 353.16 136.23 353.16C136.72 353.16 137.25 353.09 137.85 353Z" fill="#C97355"/>
<path d="M112.59 322.6C113.92 322.092 115.279 321.665 116.66 321.32C118.059 320.984 119.479 320.743 120.91 320.6C122.37 320.354 123.863 320.388 125.31 320.7C126.813 321.022 128.14 321.896 129.03 323.15L128.92 323.28C127.661 322.78 126.338 322.461 124.99 322.33C123.664 322.129 122.329 321.995 120.99 321.93C119.604 321.91 118.217 321.981 116.84 322.14C115.44 322.28 114.05 322.5 112.67 322.76L112.59 322.6Z" fill="#1D394F"/>
<path d="M150.34 321C149.476 320.956 148.61 320.983 147.75 321.08C146.916 321.152 146.092 321.31 145.29 321.55C144.576 321.845 143.878 322.179 143.2 322.55C142.467 322.926 141.762 323.354 141.09 323.83L140.94 323.75C140.967 323.249 141.1 322.759 141.329 322.313C141.558 321.867 141.879 321.474 142.27 321.16C143.079 320.601 144.028 320.279 145.01 320.23C145.923 320.11 146.847 320.11 147.76 320.23C148.652 320.338 149.53 320.539 150.38 320.83L150.34 321Z" fill="#1D394F"/>
<path d="M125.962 333.032C126.862 333.011 127.559 331.642 127.52 329.975C127.481 328.307 126.719 326.973 125.819 326.994C124.919 327.015 124.222 328.384 124.261 330.051C124.3 331.719 125.062 333.053 125.962 333.032Z" fill="#1D394F"/>
<path d="M144.936 332.575C145.836 332.554 146.533 331.185 146.494 329.518C146.455 327.85 145.693 326.516 144.793 326.537C143.893 326.558 143.196 327.927 143.235 329.594C143.274 331.262 144.036 332.596 144.936 332.575Z" fill="#1D394F"/>
<path d="M127.06 363.43C127.06 363.43 112.88 360.19 107.85 355.43C107.85 355.43 119.61 376.55 126.73 369.32C127.64 368.37 127.06 363.43 127.06 363.43Z" fill="#F58A69"/>
<path d="M192.67 311C189.46 297.37 156.4 293.49 118.83 302.35C85.0701 310.35 59.1601 325.87 56.6101 338.83C53.3901 325.2 81.2301 306.96 118.79 298.08C156.35 289.2 189.42 293.08 192.63 306.74C192.954 308.14 192.967 309.594 192.67 311Z" fill="#D8AA73"/>
<path opacity="0.3" fill-rule="evenodd" clip-rule="evenodd" d="M82.5001 464.89C76.2301 480.62 87.0001 482.36 99.4401 482C111.88 481.64 146.17 470.64 146.17 470.64L148.04 461.71C124.93 461.2 90.3601 445.2 82.5001 464.89Z" fill="#2B4060"/>
<path fill-rule="evenodd" clip-rule="evenodd" d="M73.4801 461.46C73.4801 461.46 87.8001 378 68.4801 382.61C46.7501 387.79 38.5801 463.25 38.5801 463.25C38.5801 463.25 43.1601 469.49 57.0901 468.65C71.0201 467.81 73.4801 461.46 73.4801 461.46Z" fill="#FF4964"/>
<path fill-rule="evenodd" clip-rule="evenodd" d="M75.7401 463.62C43.5701 416.35 3.74006 497.74 62.6601 482.62L75.7401 463.62Z" fill="#E23B5B"/>
<path d="M71.8101 382.78C72.9101 383.335 73.8706 384.132 74.6201 385.11C75.0264 385.576 75.3942 386.074 75.7201 386.6C76.0704 387.109 76.3813 387.644 76.6501 388.2C77.2127 389.298 77.7069 390.43 78.1301 391.59C78.5401 392.75 78.8301 393.95 79.1801 395.13C80.217 399.926 80.7101 404.823 80.6501 409.73C80.5879 414.603 80.2038 419.467 79.5001 424.29C79.1101 426.69 78.8101 429.1 78.2701 431.47C77.7301 433.84 77.2701 436.22 76.6401 438.57C76.8301 436.15 77.1101 433.74 77.3801 431.34L77.5901 429.54L77.7401 427.73L78.0601 424.13C78.3201 421.73 78.4201 419.32 78.5701 416.92L78.6901 415.12C78.6901 414.52 78.6901 413.92 78.6901 413.32L78.7601 409.72C78.8434 404.936 78.5088 400.155 77.7601 395.43C77.5001 394.28 77.2601 393.1 76.9701 391.95C76.6514 390.805 76.2674 389.68 75.8201 388.58C75.6192 388.036 75.3786 387.508 75.1001 387C74.8387 386.464 74.5414 385.946 74.2101 385.45L73.7201 384.71L73.1401 384.02C72.7612 383.542 72.3129 383.124 71.8101 382.78V382.78Z" fill="#E23B5B"/>
<path d="M95 492.39L140.53 487.88C141.215 487.823 141.86 487.533 142.357 487.058C142.854 486.583 143.173 485.952 143.26 485.27L151.13 430.16C151.196 429.696 151.155 429.223 151.009 428.777C150.863 428.332 150.617 427.925 150.289 427.59C149.962 427.255 149.562 426.999 149.12 426.843C148.678 426.687 148.206 426.635 147.74 426.69L99.8 432.36C99.1071 432.439 98.4622 432.753 97.9727 433.249C97.4832 433.746 97.1787 434.396 97.11 435.09L91.65 489.09C91.6127 489.537 91.6741 489.987 91.83 490.408C91.9858 490.828 92.2323 491.21 92.552 491.525C92.8716 491.839 93.2566 492.08 93.6797 492.23C94.1027 492.379 94.5535 492.434 95 492.39V492.39Z" fill="#E4DBE2"/>
<path d="M114.14 430.55L114.82 428.96L118.94 428.4C118.94 428.4 119.82 425.62 125.7 424.98C130.98 424.4 131.36 427.05 131.36 427.05L134.21 426.87L134.29 428.17L114.14 430.55Z" fill="#403336"/>
<path d="M132.3 451.9L75 454.18L49.25 455.83C46.43 456.01 40.59 459.12 39.53 464.25C38.69 468.31 39.77 475.52 42.61 478.89C46.43 483.41 58.24 484.01 64.09 483.09L76.19 481.17L135.29 468.36" fill="#F9AE83"/>
<path d="M148 448C148.032 447.815 148.024 447.626 147.975 447.445C147.925 447.264 147.837 447.096 147.716 446.953C147.595 446.81 147.444 446.695 147.273 446.617C147.103 446.539 146.918 446.499 146.73 446.5C144.2 446.5 137.39 446.5 134.98 447.14C131.98 447.97 120.88 452.67 120.88 452.67L125.46 470L142.46 470.28C142.46 470.28 148.69 467.45 148.78 466.22C148.772 465.445 148.722 464.67 148.63 463.9L150.52 462.9C153.32 461.14 151.52 457.73 151.52 457.73C152.059 457.414 152.518 456.979 152.865 456.46C153.211 455.94 153.435 455.349 153.52 454.73C153.567 454.16 153.454 453.587 153.192 453.078C152.931 452.569 152.531 452.144 152.04 451.85C152.04 451.85 152.82 449.11 151.39 448.37C149.96 447.63 147.53 448.56 147.53 448.56C147.748 448.434 147.914 448.236 148 448Z" fill="#F9AE83"/>
<path d="M148.94 448.26C148.778 448.349 148.602 448.41 148.42 448.44C147.937 448.572 147.446 448.675 146.95 448.75C145.7 448.97 143.95 449.14 142.04 449.34C140.404 449.476 138.777 449.713 137.17 450.05C135.94 450.33 135.26 450.71 135.23 450.66C135.2 450.61 135.38 450.53 135.7 450.36C136.154 450.14 136.625 449.959 137.11 449.82C138.714 449.407 140.35 449.133 142 449C143.92 448.8 145.66 448.66 146.91 448.51C148.16 448.36 148.93 448.21 148.94 448.26Z" fill="#EB996E"/>
<path d="M152.12 451.75C151.761 452.02 151.359 452.226 150.93 452.36C149.92 452.742 148.88 453.036 147.82 453.24C146.58 453.5 145.45 453.65 144.64 453.76C144.199 453.85 143.749 453.88 143.3 453.85C144.766 453.462 146.251 453.151 147.75 452.92C148.98 452.67 150.07 452.38 150.85 452.14C151.263 451.977 151.687 451.847 152.12 451.75V451.75Z" fill="#EB996E"/>
<path d="M151.61 457.78C150.471 458.357 149.255 458.768 148 459C146.755 459.331 145.467 459.475 144.18 459.43C144.18 459.33 145.87 459.13 147.93 458.67C149.99 458.21 151.57 457.69 151.61 457.78Z" fill="#EB996E"/>
<path d="M150.54 462.92C148.75 463.819 146.773 464.285 144.77 464.28C144.77 464.19 146.07 463.99 147.66 463.61C148.607 463.328 149.568 463.098 150.54 462.92V462.92Z" fill="#EB996E"/>
<path d="M141.68 459.8C141.68 459.8 141.5 459.95 141.16 459.98C140.7 460.009 140.245 459.878 139.87 459.61C139.496 459.346 139.229 458.955 139.12 458.51C139.04 458.18 139.12 457.96 139.12 457.96C139.318 458.491 139.644 458.966 140.07 459.34C140.563 459.618 141.115 459.776 141.68 459.8Z" fill="#EB996E"/>
<path d="M141.29 465.17C141.29 465.26 140.62 465.3 140.05 464.77C139.48 464.24 139.43 463.57 139.52 463.58C139.61 463.59 139.78 464.09 140.27 464.53C140.76 464.97 141.3 465.08 141.29 465.17Z" fill="#EB996E"/>
<path d="M139.38 454.24C139.38 454.33 138.94 454.47 138.51 454.14C138.08 453.81 138.09 453.31 138.19 453.33C138.29 453.35 138.4 453.64 138.71 453.87C139.02 454.1 139.37 454.14 139.38 454.24Z" fill="#EB996E"/>
<path d="M120.85 452.64L120.99 452.56L121.39 452.38L122.98 451.69C124.36 451.1 126.38 450.24 128.98 449.21C130.25 448.7 131.66 448.14 133.2 447.58C133.992 447.268 134.808 447.02 135.64 446.84C136.537 446.685 137.442 446.579 138.35 446.52C140.21 446.38 142.18 446.33 144.24 446.31H146.59C146.885 446.291 147.178 446.354 147.44 446.49C147.719 446.627 147.943 446.856 148.074 447.138C148.205 447.42 148.235 447.738 148.16 448.04C148.115 448.13 148.046 448.206 147.96 448.26C147.899 448.303 147.836 448.343 147.77 448.38L147.38 448.56C147.118 448.672 146.847 448.762 146.57 448.83C146.55 448.836 146.528 448.838 146.507 448.836C146.486 448.833 146.466 448.827 146.447 448.817C146.428 448.807 146.412 448.793 146.399 448.776C146.386 448.759 146.376 448.74 146.37 448.72C146.361 448.677 146.368 448.633 146.39 448.596C146.413 448.559 146.448 448.532 146.49 448.52C147.187 448.325 147.895 448.172 148.61 448.06C149.353 447.926 150.111 447.903 150.86 447.99C151.267 448.041 151.65 448.211 151.96 448.48C152.243 448.777 152.428 449.154 152.49 449.56C152.605 450.342 152.554 451.139 152.34 451.9L152.25 451.71C152.618 451.917 152.939 452.2 153.19 452.54C153.501 452.966 153.706 453.461 153.788 453.983C153.87 454.505 153.826 455.038 153.66 455.54C153.29 456.524 152.581 457.343 151.66 457.85L151.73 457.63C152.188 458.559 152.369 459.601 152.25 460.63C152.176 461.128 151.992 461.604 151.712 462.022C151.432 462.441 151.063 462.792 150.63 463.05V463.05L148.75 464.05L148.83 463.89C148.88 464.34 148.92 464.79 148.95 465.23C148.95 465.45 148.95 465.67 148.95 465.9C148.95 466.13 148.95 466.12 148.95 466.24C148.932 466.372 148.885 466.499 148.81 466.61C148.531 466.968 148.193 467.275 147.81 467.52C147.469 467.772 147.115 468.005 146.75 468.22C145.378 469.028 143.963 469.759 142.51 470.41H142.46L130.07 470.15L126.64 470.06H125.74H125.44H125.75H126.64H130.07L142.46 470.2H142.4C143.838 469.545 145.24 468.814 146.6 468.01C146.95 467.79 147.3 467.57 147.6 467.32C147.938 467.087 148.238 466.804 148.49 466.48C148.534 466.413 148.564 466.338 148.58 466.26C148.58 466.15 148.58 466.05 148.58 465.94V465.29C148.58 464.85 148.54 464.41 148.46 463.97C148.456 463.938 148.461 463.906 148.476 463.878C148.49 463.849 148.512 463.826 148.54 463.81L150.42 462.81C150.811 462.573 151.145 462.253 151.399 461.873C151.653 461.493 151.821 461.062 151.89 460.61C151.99 459.661 151.817 458.703 151.39 457.85C151.38 457.831 151.373 457.81 151.371 457.789C151.369 457.767 151.372 457.745 151.378 457.725C151.385 457.704 151.395 457.685 151.409 457.669C151.424 457.653 151.441 457.639 151.46 457.63C152.287 457.145 152.925 456.394 153.27 455.5C153.492 454.864 153.488 454.172 153.261 453.539C153.033 452.905 152.595 452.369 152.02 452.02C151.988 452.001 151.962 451.973 151.948 451.938C151.934 451.904 151.931 451.866 151.94 451.83C152.138 451.118 152.189 450.372 152.09 449.64C152.035 449.3 151.882 448.984 151.65 448.73C151.386 448.517 151.067 448.381 150.73 448.34C150.014 448.255 149.29 448.275 148.58 448.4C147.878 448.507 147.184 448.658 146.5 448.85L146.42 448.54C146.678 448.467 146.932 448.38 147.18 448.28L147.54 448.12C147.65 448.07 147.76 447.95 147.8 447.96C147.832 447.732 147.797 447.499 147.7 447.29C147.594 447.076 147.422 446.9 147.21 446.79C146.995 446.677 146.753 446.625 146.51 446.64H144.16C142.11 446.64 140.16 446.69 138.29 446.82C137.392 446.866 136.497 446.966 135.61 447.12C134.789 447.29 133.983 447.527 133.2 447.83C131.66 448.38 130.25 448.93 128.97 449.43L122.97 451.81L121.37 452.45L120.95 452.61L120.85 452.64Z" fill="#EB996E"/>
<path d="M58.1 330.67C58.1 330.67 66.1 311.36 123.16 299.21C123.16 299.21 175.26 285.31 191.43 303.98C189.79 301.04 180.43 295.5 177.25 294.29L117.48 270.9C116.812 270.648 116.089 270.578 115.386 270.7C114.683 270.821 114.025 271.128 113.48 271.59L71.78 314.35C69 316.71 58.05 327 58.1 330.67Z" fill="#F9D07D"/>
</g>
<defs>
<clipPath id="clip0_3768_205220">
<rect width="600" height="524" fill="white"/>
</clipPath>
</defs>
</svg>
