<svg xmlns="http://www.w3.org/2000/svg" xmlns:xlink="http://www.w3.org/1999/xlink" width="357" height="495" fill="none" xmlns:v="https://vecta.io/nano"><style><![CDATA[.B{opacity:.5}.C{fill:#fff}.D{fill:#335860}.E{fill:#f2b161}.F{fill:#ae633a}.G{fill:#f9ae83}.H{fill:#38c7e8}.I{fill:#179668}.J{fill:#ff4964}.K{fill:#1d394f}.L{fill-rule:evenodd}.M{fill:#30b57c}.N{fill:#0b7189}.O{fill:#f58a69}]]></style><g clip-path="url(#K)"><path d="M356.615.169H-.113V494.23h356.728V.169z" fill="#32e6f9"/><path opacity=".12" d="M-.113 307.708s170.984-138.469 357-120.989v-59.4s-170.984-16.465-357 55.512v124.877z" class="C"/><path d="M356.615 349.045c-16.479-23.219-30.73-62.396-66.712-62.396-50.412 0-102.797 67.506-133.546 63.016-48.59-7.11-61.329-28.488-93.948-28.469S-.113 350.069-.113 350.069v27.239h356.728v-28.263z" fill="#37d9f4"/><path opacity=".9" d="M290.748 286.649s-14.843-1.042-28.184 7.514-3.467 22.599 11.048 22.327 20.669-2.038 29.265 3.269-8.455 10.557-17.258 12.013-10.466 17.358 31.81 17.734c36.893.328 39.186 3.494 39.186 3.494v-11.488s-.451-19.349-7.074-24.581c-23.262-18.362-40.868-29.343-58.793-30.282z" fill="#34e0f7"/><path d="M-16.845 18.203c-6.172 9.966-7.694 28.836-3.166 38.783S-5.524 72.127 3.946 69.535c.883 13.798 12.852 23.388 23.759 19.161-5.881 12.539-4.519 28.939 3.185 38.088s20.941 9.956 30.711 2.066c6.031 15.179 19.954 24.187 34.056 22.299s27.931-14.747 33.821-31.551c8.117 10.267 25.31 5.335 30.881-8.838 6.463 9.721 17.925 13.563 28.278 9.486s19.146-15.798 21.608-28.892c17.258 8.331 41.571-15.273 44.155-39.346C179.129 38.914 103.229 28.93-16.845 18.203z" fill="#16895d"/><path d="M49.576 215.32c-6.708 12.728-42.878 38.36-42.878 38.36a1.41 1.41 0 0 0-.47.94L.31 363.811a32.99 32.99 0 0 1-4.603 15.094l-19.729 33.053a1.41 1.41 0 0 1-.412.443c-.168.116-.359.194-.56.228a1.4 1.4 0 0 1-.604-.027c-.197-.052-.38-.147-.537-.277l-15.689-12.887-.075-.066-24.718-23.482a1.39 1.39 0 0 1-.197-1.813l24.079-35.598c3.771-5.576 6.331-11.879 7.516-18.504l12.213-67.628c.035-.187.105-.366.207-.526l43.291-66.858a1.38 1.38 0 0 0 .207-1.015l-7.516-42.652a1.39 1.39 0 0 1 .132-.893l28.607-55.924a1.4 1.4 0 0 0 .15-.808l-4.03-34.105a1.42 1.42 0 0 1 .31-1.071l.291-.357 4.801 28.413c.036.191.109.373.216.535l2.179 3.353c.126.202.2.433.214.67s-.03.475-.13.692l-7.027 15.367c-.11.224-.152.475-.122.723l.263 2.677c.02.199.083.391.183.565a1.42 1.42 0 0 0 .398.44c.162.117.348.199.544.239a1.4 1.4 0 0 0 .594-.005l27.076-6.142a1.43 1.43 0 0 0 .432-.169l15.717-9.599a1.43 1.43 0 0 1 .892-.197l1.015.103-17.418 11.591a1.4 1.4 0 0 1-.338.16l-31.604 10.285c-.353.115-.647.365-.817.695l-15.21 29.005c-.098.187-.153.394-.161.605a1.43 1.43 0 0 0 .114.616l13.04 30.057c.096.22.246.412.437.558s.415.242.653.277.48.011.706-.073a1.42 1.42 0 0 0 .582-.405l24.144-27.935a1.13 1.13 0 0 1 .216-.206l53.719-40.906c.215-.159.378-.378.47-.629l11.649-30.865c.079-.211.207-.4.374-.552a1.42 1.42 0 0 1 .585-.32c.218-.059.446-.065.666-.018a1.42 1.42 0 0 1 .602.289c.212.178.369.414.451.679a1.45 1.45 0 0 1 .009.815l-6.99 23.839c-.078.263-.077.543.001.806a1.42 1.42 0 0 0 1.176 1.003 1.42 1.42 0 0 0 .796-.127l12.721-6.162.187-.075 11.537-3.644a1.42 1.42 0 0 1 .696-.036c.231.046.447.149.629.299l7.835 6.425a1.41 1.41 0 0 1 .422.576c.089.225.118.469.085.709a1.4 1.4 0 0 1-.274.66 1.41 1.41 0 0 1-.562.441l-32.881 14.39c-.118.051-.229.117-.329.197l-52.291 42.22a1.57 1.57 0 0 0-.291.32l-42.06 63.871a1.42 1.42 0 0 0 .118 1.776 1.42 1.42 0 0 0 1.761.262s15.736-4.978 18.113-9.524" fill="#ac5143" class="L"/><g style="mix-blend-mode:multiply" class="L"><path d="M3.579 303.472l-11.988-43.123-1.146-27.624L4.068 210.37l-8.202 20.448 3.401 21.162 3.345 6.425 3.645-4.34-2.678 49.407z" fill="#ccbdab"/></g><g fill="#9b463d" class="L"><path d="M14.797 196.798l25.742-9.647a.87.87 0 0 0 .244-.131l14.477-11.516a1.04 1.04 0 0 0 .197-.206l5.684-8.632a.94.94 0 0 0-.276-1.072c-.154-.126-.343-.201-.542-.212a.94.94 0 0 0-.563.147l-10.456 10.088a1.01 1.01 0 0 1-.319.197l-19.269 7.073-.15.047-8.38 1.522c-.241.048-.454.19-.592.394l-6.868 10.614a.94.94 0 0 0 .106 1.012c.113.14.264.246.435.303s.355.063.53.019zm28.024-35.655c-.106.158-.16.346-.157.536a.94.94 0 0 0 .176.531c.111.155.267.272.446.337s.374.072.559.023l12.899-5.344 14.477-5.993a.68.68 0 0 0 .225-.131l1.156-.94a.94.94 0 0 0-.372-1.453c-.18-.075-.378-.092-.568-.049l-7.91 4.039-.094.046-12.58 4.697a.88.88 0 0 1-.62 0l-2.753-1.005c-.174-.058-.36-.064-.537-.017s-.336.144-.459.28l-3.889 4.443zm-22.885 63.138l-3.589 2.611c-.109.076-.199.175-.263.291l-8.333 14.972c-.059.101-.095.213-.103.329l-1.099 9.215a.94.94 0 0 0 .13.499.95.95 0 0 0 .374.355.94.94 0 0 0 .505.104c.175-.014.342-.075.484-.179l16.723-14.953a.94.94 0 0 0-.453-1.469c-.192-.062-.399-.061-.59.004l-3.871 2.15a.93.93 0 0 1-.428.091c-.148-.004-.293-.043-.423-.113a.93.93 0 0 1-.325-.293.94.94 0 0 1-.158-.408l-.564-7.768c-.01-.117.004-.234.041-.346a.87.87 0 0 1 .175-.302l2.978-3.475a.94.94 0 0 0-.634-1.384.95.95 0 0 0-.578.069zm18.939-26.976l-10.174 6.913-.122.094-5.205 5.034a.94.94 0 0 0-.139.573c.016.201.097.391.229.542a.94.94 0 0 0 .507.3c.197.042.402.021.586-.062l1.682-1.315a.51.51 0 0 1 .169-.103l9.395-4.499a.85.85 0 0 0 .366-.32l3.899-5.917a.94.94 0 0 0-.658-1.274.94.94 0 0 0-.535.034zm32.149-62.284L91.016 123.9l.16-.065 23.242-7.515a.82.82 0 0 0 .282-.159l.743-.592c.137-.15.222-.341.241-.543s-.027-.406-.133-.58a.94.94 0 0 0-.454-.384c-.189-.075-.398-.087-.594-.034l-22.078 8.764h-.066l-3.053.939-11.687 4.039a1.17 1.17 0 0 0-.254.141l-7.375 5.636c-.126.158-.197.353-.203.555s.053.402.17.567.283.29.475.353.4.063.592-.001zm31.567-24.017l6.275-2.339a.72.72 0 0 1 .197 0l15.295-2.019 7.056-1.278a.66.66 0 0 0 .216-.065l5.12-2.236c.162-.108.288-.264.358-.446a.94.94 0 0 0 .033-.57c-.049-.189-.155-.359-.304-.485a.94.94 0 0 0-.529-.218l-6.576.573h-.197l-16.62 5.382h-.159l-3.909.536a.85.85 0 0 1-.582-.123l-1.954-1.174a.94.94 0 0 0-.516-.12c-.18.01-.353.071-.499.177l-3.579 2.724a.94.94 0 0 0-.289.231.95.95 0 0 0-.218.691.92.92 0 0 0 .103.355.95.95 0 0 0 .231.288c.095.081.205.141.324.179s.244.051.367.04a.97.97 0 0 0 .356-.103zM13.228 141.23l6.06 15.376a.78.78 0 0 0 .188.3l7.441 7.693c.02.024.041.046.066.066l4.472 3.757c.16.102.347.153.537.146a.94.94 0 0 0 .873-1.189l-.507-1.174a.94.94 0 0 0-.366-.413l-5.797-3.391a.58.58 0 0 1-.15-.112l-4.622-4.321a.87.87 0 0 1-.207-.282l-5.853-12.84a.94.94 0 0 1-.056-.573l1.682-7.213c.005-.197-.052-.39-.163-.552a.94.94 0 0 0-1.509-.059l-2.048 4.001a.95.95 0 0 0-.104.386.94.94 0 0 0 .066.394zm19.315-38.407l-8.23 20.241a1.15 1.15 0 0 0-.047.169.94.94 0 0 0 .2.551.95.95 0 0 0 .488.325.94.94 0 0 0 .585-.028.93.93 0 0 0 .455-.369l.094-.253v-.085l5.984-12.577a.94.94 0 0 1 .31-.366l3.072-2.076a.93.93 0 0 0 .325-.415.95.95 0 0 0 .051-.524l-.479-2.311c-.004-.043-.004-.087 0-.131l-.291-5.016a.94.94 0 0 1 .047-.348l2.076-5.814-4.575 8.942-.066.085z"/></g><path d="M309.218-2.649c-.281 16.907-13.462 55.615-33.821 61.429-13.819 6.753-38.311 4.546-49.97-6.575-3.495 22.881-19.457 42.502-39.458 48.598s-43.037-1.822-56.904-19.368c-7.77 9.393-20.669 13.3-31.745 9.552S77.262 75.959 75.214 63.195a53.8 53.8 0 0 1-31.741 14.61c-11.912 1.203-23.884-1.602-34.022-7.969-20.546-13.056-31.519-64.237-27.545-90.039C88.874-11.206 212.415-8.998 309.218-2.649z" fill="#23b781"/><path d="M313.211-13.92c-2.546 16.738-20.781 53.313-41.741 56.357-14.599 4.847-38.574-.62-48.636-13.15-6.53 22.158-24.971 39.45-45.63 42.831s-42.408-7.514-53.795-26.807c-8.972 8.313-22.237 10.426-32.74 5.222S72.819 32.922 72.48 20.035a53.81 53.81 0 0 1-66.017-2.207C-12.129 2.095-16.149-50.092-8.756-75.161 95.995-51.905 218.127-33.203 313.211-13.92z" fill="#33cb93"/><g class="B H"><path d="M72.856 374.303l-7.234-2.95-2.086.094 5.317 2.856h4.002z" class="B"/></g><g class="B H"><path d="M61.714 371.541l-6.435.404.413-.535 17.484-.799 1.033.357-12.495.573z" class="B"/></g><g class="H"><path d="M68.863 374.303c.688.212 1.403.323 2.123.328 1.531 0 1.879-.328 1.879-.328l-1.513-40.389h-1.08l-1.409 40.389z"/><path d="M71.052 332.721h-.535a.91.91 0 0 0-.911.911v.084a.91.91 0 0 0 .911.911h.535a.91.91 0 0 0 .911-.911v-.084a.91.91 0 0 0-.911-.911z"/><path d="M70.827 334.627l-1.55 39.798-.517-.122 1.484-39.676h.582zm1.118-2.216l-.132-.78 1.062-.178.742-1.212 19.09-1.963a.6.6 0 0 1 .385.094l.216.141a.27.27 0 0 1 .103.178v.179l-21.467 3.541z"/><path d="M69.747 333.303l.723.329-.451.939.582 1.296-9.075 16.907a.51.51 0 0 1-.119.161.5.5 0 0 1-.172.102l-.235.104a.32.32 0 0 1-.207 0l-.169-.076 9.122-19.762zm.405-2.254l-.601.516-.705-.77h-1.419l-11.743-15.216c-.081-.108-.12-.241-.113-.376v-.253a.28.28 0 0 1 .094-.179l.141-.122 14.346 16.4z"/><path d="M70.78 333.876c.82 0 1.484-.664 1.484-1.484s-.665-1.484-1.484-1.484-1.484.664-1.484 1.484.665 1.484 1.484 1.484z"/></g><path d="M322.756 365.013c-24.717 4.105-49.961 4.264-75.158 2.94a1.39 1.39 0 0 1-1.32-.409 1.37 1.37 0 0 1-.333-.633c-.054-.236-.044-.483.028-.714.121-.437.387-.82.753-1.086s.814-.4 1.267-.38a1.14 1.14 0 0 1-.224-.615c-.013-.222.039-.443.149-.637a1.15 1.15 0 0 1 1.118-.57c-.023-.376.032-.753.161-1.107a2.75 2.75 0 0 1 .59-.95c.358-.408.819-.711 1.336-.876a2.99 2.99 0 0 1 1.595-.063c.088-.257.226-.495.406-.698s.4-.368.645-.485a2.04 2.04 0 0 1 .782-.197c.272-.013.543.028.798.121a1.98 1.98 0 0 1 .669-.631c.27-.154.572-.243.883-.258s.62.042.904.169.533.319.729.56a3.03 3.03 0 0 1 1.836-.513c.652.03 1.276.27 1.781.683a4.17 4.17 0 0 1 2.489-1.766 3.99 3.99 0 0 1 2.227.047c-.095-.65-.046-1.312.144-1.94s.516-1.207.955-1.695a4.11 4.11 0 0 1 .667-.611 4.5 4.5 0 0 1 4.641-.3c.276-.472.724-.818 1.25-.965s1.088-.084 1.569.176a4.38 4.38 0 0 1 2.348-.94c.014-.561.202-1.104.537-1.554s.802-.785 1.335-.959 1.108-.178 1.645-.013a2.72 2.72 0 0 1 1.35.939 1.97 1.97 0 0 1 .829-.403 1.98 1.98 0 0 1 .922.018c.302.079.58.228.813.436s.413.466.527.757a4.3 4.3 0 0 1 5.345.554c.371-.277.825-.42 1.288-.404s.906.187 1.258.488c.326-.566.834-1.006 1.441-1.248a2.9 2.9 0 0 1 1.904-.085 4.08 4.08 0 0 1 1.572 1.227c.415.533.691 1.16.805 1.825.465.132.893.37 1.25.696s.634.731.807 1.183c.516-.376 1.127-.601 1.764-.65a3.45 3.45 0 0 1 3.217 1.655c.33.546.502 1.174.496 1.813.578-.146 1.186-.115 1.746.09a2.97 2.97 0 0 1 1.392 1.056 3.03 3.03 0 0 1 1.617-.743c.601-.08 1.213.021 1.756.292a2.69 2.69 0 0 1 .939.789c.247.312.429.671.535 1.055s.136.785.085 1.18c.185-.067.381-.096.578-.085a1.46 1.46 0 0 1 .564.151 1.44 1.44 0 0 1 .737.873 2.01 2.01 0 0 1 .957-.854c.404-.173.853-.209 1.279-.103s.805.35 1.08.692.43.766.442 1.205c.299-.001.593.075.854.219s.482.354.64.607a1.73 1.73 0 0 1 .211.821c.002.287-.068.57-.202.823z" fill="#00707a"/><path d="M316.152 366.676c-20.49 3.4-41.422 3.531-62.287 2.442-.197.044-.402.035-.595-.025a1.14 1.14 0 0 1-.501-.319 1.15 1.15 0 0 1-.248-1.122 1.66 1.66 0 0 1 .624-.899c.304-.22.674-.33 1.048-.312-.115-.147-.185-.325-.199-.512s.029-.373.121-.536.233-.293.401-.376a.94.94 0 0 1 .542-.089c-.017-.309.03-.619.139-.91s.275-.557.49-.78c.294-.344.675-.6 1.104-.743a2.48 2.48 0 0 1 1.329-.065c.072-.214.186-.411.335-.58s.331-.306.534-.403.424-.153.65-.163a1.69 1.69 0 0 1 .661.103c.142-.214.332-.392.555-.52a1.63 1.63 0 0 1 .729-.215c.257-.014.514.033.749.136a1.64 1.64 0 0 1 .607.459c.449-.302.983-.45 1.523-.423a2.51 2.51 0 0 1 1.474.573c.474-.737 1.215-1.261 2.067-1.465.612-.187 1.266-.187 1.879 0-.072-.541-.025-1.091.137-1.611a3.76 3.76 0 0 1 .802-1.405 3.67 3.67 0 0 1 .564-.507c.544-.377 1.18-.602 1.841-.65s1.323.083 1.917.378c.23-.395.605-.684 1.045-.807a1.76 1.76 0 0 1 1.313.149c.558-.441 1.235-.706 1.944-.76.011-.466.166-.918.444-1.292s.665-.653 1.108-.798a2.25 2.25 0 0 1 1.366-.013c.445.137.838.409 1.122.778.2-.163.436-.276.688-.331a1.64 1.64 0 0 1 .763.016c.25.064.481.187.674.358s.344.384.44.624a3.58 3.58 0 0 1 2.299-.54c.806.085 1.558.441 2.135 1.01a1.68 1.68 0 0 1 1.062-.342c.383.01.751.151 1.043.398.273-.478.701-.848 1.214-1.048s1.079-.218 1.604-.051a3.41 3.41 0 0 1 1.304 1.021c.344.443.574.963.669 1.515a2.57 2.57 0 0 1 1.71 1.559 2.82 2.82 0 0 1 3.004-.277 2.82 2.82 0 0 1 1.143 1.076c.272.46.407.988.39 1.521a2.44 2.44 0 0 1 2.603.94c.375-.343.846-.563 1.35-.63s1.016.021 1.468.254a2.2 2.2 0 0 1 .78.657 2.48 2.48 0 0 1 .446.888c.088.323.108.66.061.991.154-.052.316-.072.478-.059s.318.058.462.134.269.179.371.305.177.272.221.428a1.66 1.66 0 0 1 .785-.745c.337-.154.716-.191 1.077-.104a1.66 1.66 0 0 1 .913.58c.231.29.359.649.363 1.02.248-.006.493.054.71.174s.399.295.527.508.195.457.197.705a1.41 1.41 0 0 1-.185.708l-.103.019z" fill="#016668"/><g class="H"><path d="M88.47 372.593c19.861 1.268 39.825-.61 59.61-3.654a1.1 1.1 0 0 0 .57-.069 1.12 1.12 0 0 0 .459-.345 1.1 1.1 0 0 0 .224-.528 1.11 1.11 0 0 0-.069-.57 1.6 1.6 0 0 0-.686-.798 1.61 1.61 0 0 0-1.034-.198c.078-.151.113-.32.102-.489a.94.94 0 0 0-.547-.793c-.155-.071-.325-.098-.494-.08-.041-.598-.319-1.155-.77-1.549-.312-.301-.701-.51-1.123-.604s-.863-.071-1.273.068c-.089-.196-.216-.372-.374-.518a1.61 1.61 0 0 0-.545-.332 1.62 1.62 0 0 0-1.251.061c-.157-.191-.357-.342-.583-.442a1.57 1.57 0 0 0-1.954.574c-.453-.239-.971-.327-1.478-.251s-.977.312-1.34.673a3.28 3.28 0 0 0-2.105-1.202c-.594-.093-1.203-.018-1.757.216a3.61 3.61 0 0 0-.265-1.537c-.2-.486-.504-.924-.89-1.281-.18-.159-.375-.301-.583-.422-.561-.314-1.198-.47-1.841-.452a3.57 3.57 0 0 0-1.813.555c-.257-.352-.64-.592-1.069-.667s-.872.019-1.233.263a3.51 3.51 0 0 0-1.935-.535 2.16 2.16 0 0 0-1.68-1.836 2.15 2.15 0 0 0-1.299.118c-.411.172-.759.467-.995.844-.206-.136-.442-.222-.687-.25a1.56 1.56 0 0 0-.726.087 1.57 1.57 0 0 0-.607.408c-.168.182-.29.4-.357.638-.693-.35-1.484-.455-2.244-.296a3.42 3.42 0 0 0-1.937 1.17c-.61-.404 5.036-.94 4.538-.404-.582-.855-8.343-.545-9.291-.122-.466.265-.859.641-1.145 1.095s-.453.972-.49 1.506a2.49 2.49 0 0 0-.932.654 2.48 2.48 0 0 0-.543 1 2.82 2.82 0 0 0-2.865.065 2.82 2.82 0 0 0-.973 1.123 2.81 2.81 0 0 0-.268 1.46 2.37 2.37 0 0 0-1.375.21 2.36 2.36 0 0 0-1.02.946c-.388-.285-.853-.446-1.334-.463s-.956.112-1.363.369c-.273.184-.504.424-.676.704-.34.54-.451 1.192-.31 1.813-.152-.034-.31-.036-.463-.007a1.13 1.13 0 0 0-.748.512 1.13 1.13 0 0 0-.161.434c-.196-.296-.486-.518-.822-.631a1.6 1.6 0 0 0-1.851.649c-.192.298-.28.652-.248 1.006a1.36 1.36 0 0 0-.655.238 1.35 1.35 0 0 0-.575 1.219 1.35 1.35 0 0 0 .234.656l-.085-.009zm-60.182 2.658c-.22-.559-.306-1.161-.254-1.759a3.88 3.88 0 0 1 .555-1.688 2.06 2.06 0 0 1 1.128-.921c.476-.159.993-.139 1.455.057.319-1.371 1.663-2.132 2.677-1.522a3.91 3.91 0 0 1 .939-3.757c.222-.185.48-.324.757-.409s.568-.112.856-.083.567.117.821.257a2.19 2.19 0 0 1 .657.554 3.3 3.3 0 0 1 1.586-1.493 3.29 3.29 0 0 1 2.172-.178 4.69 4.69 0 0 1 2.819 3.757c.94-.893 2.602-.104 2.922 1.409a2.33 2.33 0 0 1 2.969-.47c.518.372.94.863 1.229 1.432a4 4 0 0 1 .434 1.837c1.879-.545 3.908 1.737 3.758 4.208-7.657 0-15.37-.273-27.48-1.231z"/></g><path d="M342.372 369.212a4.56 4.56 0 0 0 .623-1.985c.052-.7-.058-1.403-.322-2.054a2.4 2.4 0 0 0-1.133-1.264c-.519-.27-1.118-.341-1.685-.201-.113-1.644-1.513-2.818-2.819-2.264.338-.722.48-1.521.412-2.315a4.54 4.54 0 0 0-.797-2.212c-.221-.255-.491-.463-.794-.612s-.632-.236-.969-.256a2.54 2.54 0 0 0-.993.139c-.318.112-.611.286-.861.512-.276-.826-.824-1.535-1.554-2.01a3.86 3.86 0 0 0-2.467-.61c-.931.225-1.786.691-2.48 1.35a5.46 5.46 0 0 0-1.475 2.407c-.94-1.212-2.988-.61-3.636 1.09-.335-.547-.852-.958-1.461-1.16s-1.268-.185-1.865.051c-.668.335-1.246.824-1.687 1.426a4.69 4.69 0 0 0-.849 2.04c-2.029-.939-4.82 1.268-5.12 4.142 8.868 1.513 17.812 2.621 31.932 3.786z" class="I"/><path d="M356.615 365.248v129.433H-.113V374.453s224.976-16.503 356.728-9.205z" fill="#23b781"/><g fill="#3cbf80"><path opacity=".75" d="M308.655 407.938c13.415-7.561 31.002-16.127 47.913-23.641v12.116c-9.789 4.509-19.344 9.149-28.664 14.033-37.043 19.406-70.291 42.653-98.644 76.814a198.98 198.98 0 0 0-38.519-7.148c35.7-30.733 73.392-46.212 114.212-70.06l3.702-2.114zm47.96-41.347v9.609l-69.023 29.249c-40.473 18.213-77.375 38.51-111.14 70.615-11.828.244-22.322 2.132-35.813 6.951 40.801-35.158 68.995-47.518 115.602-74.983 2.819-1.691 5.844-3.344 8.916-4.959 24.633-13.019 55.316-24.018 78.916-32.631l12.542-3.851zm0 42.371v21.669c-32.093 14.418-46.034 24.619-91.326 64.049l-.573.498a37.94 37.94 0 0 0-1.879-.498c-11.274-2.817-16.047.367-28.42-.685 35.7-30.733 60.737-50.496 101.558-74.353l12.081-6.359 8.559-4.321zm-48.862-45.593l-14.027 4.312c-26.587 9.684-62.089 22.392-87.869 37.571-46.607 27.464-74.8 39.825-115.555 74.982 13.491-4.818 23.994-6.706 35.813-6.95 56.904-54.037 122.714-74.767 199.525-108.13h-2.001l-15.886-1.785zm-55.842 0l-14.027 4.312c-26.587 9.684-62.09 22.392-87.869 37.571-46.607 27.464-74.801 39.825-115.555 74.982 13.491-4.818 23.985-6.706 35.813-6.95 56.904-54.037 122.714-74.767 199.525-108.13 2.565-1.775-.733-1.766-.733-1.766l-17.154-.019zm-46.861 1.71l-10.335 4.339c-76.811 33.373-133.612 52.6-190.516 106.646a54.41 54.41 0 0 0-4.312.169v-17.846c26.24-18.457 50.337-30.433 84.102-50.327 25.779-15.197 61.282-27.896 87.869-37.571l14.045-4.358 19.147-1.052zm-53.644 1.099l-3.523 1.756C93.233 391.67 44.146 409.018-.113 436.511V424.3l28.259-16.24c25.779-15.197 61.282-27.896 87.859-37.571l10.475-3.212 24.925-1.099zm-70.461 3.766l-3.523 1.757-77.535 32.734V391.52c15.896-6.528 31.942-12.324 45.668-17.311l10.475-3.213 24.915-1.052z"/></g><path d="M356.615 414.56v80.121H-.113v-97.685s109.346-9.44 265.261 6.124l22.434 2.376 21.063 2.489 19.297 2.508 20.142 2.818 8.531 1.249z" fill="#33cb93"/><path d="M275.482 374.941l14.74.554c.036.005.072.001.106-.01s.066-.031.092-.055l6.191-6.895c.043-.036.074-.084.09-.138s.015-.111-.002-.164-.05-.101-.094-.136a.28.28 0 0 0-.154-.059l-14.722-.517c-.035-.004-.071 0-.105.012s-.066.029-.092.054l-6.191 6.894a.29.29 0 0 0-.065.127.29.29 0 0 0 .006.143c.014.046.04.088.075.121s.078.057.125.069z" class="B I"/><path d="M286.427 373.589s-.122.122-.489.084l.348-.31.141.226z" class="D"/><path d="M286.427 365.83l-.104 7.514a.36.36 0 0 1-.032.141.35.35 0 0 1-.085.116c-.036.033-.079.058-.125.073s-.094.022-.143.018l-5.157-.564c-.049-.005-.097-.021-.139-.045s-.08-.058-.109-.098-.05-.085-.06-.133-.012-.098-.002-.146l1.465-7.364a.36.36 0 0 1 .139-.215c.071-.052.159-.076.246-.067l3.758.441a.36.36 0 0 1 .348.329z" fill="#517d84"/><path d="M286.427 373.589l2.377-2.001a.34.34 0 0 0 .073-.107c.017-.041.025-.084.025-.128s-.008-.087-.025-.127-.042-.077-.073-.108l-.555-.657-1.982 1.597v1.465c-.009.021-.009.045 0 .066a.09.09 0 0 0 .047.047c.021.008.045.008.066 0a.09.09 0 0 0 .047-.047z" class="D"/><path d="M288.324 370.461l-1.954-.188-.028 1.775 1.982-1.587z" fill="#27454c"/><path d="M286.342 368.394l-4.923-.46-.291 1.475 5.242.592-.028-1.607z" class="D"/><path d="M274.129 367.079l.197.113 6.68-7.101c.065-.048.144-.074.226-.075l16.252.226c.041-.01.082-.01.123 0l.187-.123v.846c-.011.07-.048.133-.103.178l-6.811 7.59a.3.3 0 0 1-.105.061c-.039.013-.08.018-.121.014l-16.224-.611c-.079-.006-.153-.042-.209-.098a.33.33 0 0 1-.092-.212v-.808z" fill="#38606b"/><path d="M274.42 367.427l16.234.611a.29.29 0 0 0 .117-.014c.037-.013.071-.034.099-.062l6.83-7.58c.048-.04.081-.094.098-.154s.014-.123-.006-.182-.058-.11-.108-.147a.31.31 0 0 0-.171-.061l-16.235-.62c-.078 0-.154.027-.216.075l-6.848 7.589a.32.32 0 0 0-.073.34c.021.057.059.107.109.144s.109.057.17.061z" fill="#f2fafc"/><g fill="#66d7f2"><path d="M286.305 363.294l7.365.244c.062.003.124-.008.18-.033a.41.41 0 0 0 .149-.108l2.264-2.592c.028-.031.047-.07.054-.111a.22.22 0 0 0-.012-.124.23.23 0 0 0-.076-.098c-.034-.025-.074-.039-.116-.043l-7.995-.3c-.067-.004-.133.009-.194.037s-.113.07-.154.122l-1.785 2.283c-.052.063-.086.14-.098.221a.45.45 0 0 0 .034.24.44.44 0 0 0 .154.185c.068.047.148.073.23.077zm-3.119 2.968a.45.45 0 0 0-.055.456c.033.074.085.138.151.185a.45.45 0 0 0 .223.083l7.046.291c.032.001.064-.005.094-.018a.21.21 0 0 0 .075-.057l2.02-2.302a.44.44 0 0 0 .111-.221c.016-.082.007-.168-.025-.246a.44.44 0 0 0-.387-.275l-7.168-.272c-.066-.005-.133.007-.194.035a.39.39 0 0 0-.153.125l-1.738 2.216zm-3.824-3.221l4.857.159a.49.49 0 0 0 .366-.159l1.983-2.283a.44.44 0 0 0 .104-.225c.013-.084.001-.17-.033-.247s-.091-.143-.162-.189a.45.45 0 0 0-.238-.072l-4.81-.169c-.034-.001-.067.005-.098.018s-.058.033-.081.058l-2.208 2.376a.43.43 0 0 0-.114.224c-.016.084-.006.171.029.249s.091.145.163.192a.44.44 0 0 0 .242.068zm-3.579 3.616l5.542.216a.45.45 0 0 0 .202-.037c.064-.028.12-.07.165-.123l1.879-2.207a.44.44 0 0 0 .098-.223c.011-.083-.002-.166-.036-.242s-.089-.139-.158-.185a.44.44 0 0 0-.233-.073l-4.951-.179c-.066-.004-.133.006-.194.031s-.118.062-.163.11l-2.358 2.536c-.033.035-.053.079-.059.126s.003.095.026.137.058.075.101.095a.23.23 0 0 0 .139.018z"/></g><g fill="#9ae9f7"><path opacity=".8" d="M291.707 360.26l1.155 3.26-3.767-.141-.977-3.259 3.589.14zm-2.528 3.757l1.165 3.26-3.767-.141-.986-3.259 3.588.14zm-8.577-.347l.648 3.203-2.132-.075-.545-3.203 2.029.075zm2.884-3.71l.648 3.203-2.123-.075-.554-3.203 2.029.075z"/></g><path d="M295.014 388.335l14.74.555c.036.004.072 0 .106-.011a.25.25 0 0 0 .091-.055l6.191-6.895c.044-.035.075-.084.091-.137a.28.28 0 0 0-.002-.165c-.018-.054-.05-.101-.095-.136s-.097-.055-.153-.059l-14.75-.564c-.073 0-.143.027-.197.075l-6.154 6.895a.28.28 0 0 0-.096.291c.014.053.043.1.083.137s.091.061.145.069z" class="B I"/><path d="M305.996 386.945s-.122.122-.489.085l.348-.32.141.235z" class="D"/><path d="M305.958 379.187l-.103 7.514c0 .049-.01.097-.03.142a.33.33 0 0 1-.085.118.34.34 0 0 1-.126.073.35.35 0 0 1-.144.015l-5.158-.573a.35.35 0 0 1-.137-.043.34.34 0 0 1-.108-.095c-.028-.04-.048-.084-.058-.132a.35.35 0 0 1 .002-.144l1.447-7.364c.018-.086.068-.162.139-.214s.159-.076.246-.067l3.758.432c.091.002.178.037.244.1s.106.147.113.238z" fill="#517d84"/><path d="M305.996 386.945l2.377-2c.031-.031.056-.068.073-.108s.026-.084.026-.127-.009-.087-.026-.128-.042-.077-.073-.107l-.554-.658-1.983 1.597v1.465c-.008.022-.008.045 0 .067s.026.037.047.046.045.009.066 0 .038-.026.047-.047z" class="D"/><path d="M307.856 383.817l-1.954-.187-.028 1.775 1.982-1.588z" fill="#27454c"/><path d="M305.874 381.751l-4.923-.46-.291 1.474 5.251.592-.037-1.606z" class="D"/><path d="M293.661 380.436l.197.113 6.68-7.101a.38.38 0 0 1 .225-.075l16.253.225c.04-.014.083-.014.122 0l.188-.122v.845c-.004.036-.015.07-.033.1s-.042.058-.07.079l-6.812 7.589c-.03.028-.065.049-.104.062s-.08.017-.121.013l-16.244-.582c-.078-.005-.152-.038-.207-.093s-.089-.129-.093-.208l.019-.845z" fill="#38606b"/><path d="M293.943 380.784l16.234.619c.039.006.079.002.117-.011s.071-.035.099-.064l6.82-7.589a.32.32 0 0 0 .098-.154c.016-.06.014-.124-.007-.182s-.057-.11-.107-.147-.11-.059-.172-.062l-16.234-.62a.36.36 0 0 0-.216.075l-6.811 7.59c-.047.04-.08.093-.097.152s-.015.122.004.18.055.11.103.148.107.06.169.065z" fill="#f2fafc"/><g fill="#66d7f2"><path d="M305.836 376.641l7.366.254a.4.4 0 0 0 .329-.141l2.264-2.592c.028-.032.047-.07.054-.112s.003-.084-.012-.123a.23.23 0 0 0-.076-.098c-.034-.025-.075-.04-.117-.043l-7.995-.301c-.066-.006-.134.006-.195.034a.38.38 0 0 0-.152.126l-1.785 2.283a.44.44 0 0 0-.092.218.45.45 0 0 0 .036.235.44.44 0 0 0 .151.183.45.45 0 0 0 .224.077zm-3.119 2.997c-.049.064-.08.14-.089.22s.002.162.035.236a.45.45 0 0 0 .15.185.46.46 0 0 0 .224.082l7.046.291c.031 0 .063-.007.092-.02s.055-.032.077-.055l2.02-2.311c.054-.061.09-.137.104-.219a.44.44 0 0 0-.027-.24c-.031-.077-.083-.143-.15-.191a.44.44 0 0 0-.228-.082l-7.168-.282c-.067-.001-.134.014-.194.043a.45.45 0 0 0-.154.126l-1.738 2.217zm-3.824-3.241l4.858.16a.48.48 0 0 0 .366-.16l1.982-2.282c.056-.064.092-.142.105-.226s.001-.169-.034-.246a.44.44 0 0 0-.161-.189.45.45 0 0 0-.239-.072l-4.81-.169c-.033-.002-.067.004-.097.017s-.059.033-.081.058l-2.208 2.377c-.06.061-.1.139-.115.223a.44.44 0 0 0 .192.441c.073.046.157.07.242.068zm-3.579 3.616l5.543.216a.48.48 0 0 0 .201-.039.49.49 0 0 0 .165-.12l1.879-2.208c.053-.063.087-.141.098-.223s-.001-.166-.035-.241a.45.45 0 0 0-.159-.186c-.069-.045-.15-.071-.232-.073l-4.951-.178c-.067-.003-.132.008-.194.032a.45.45 0 0 0-.163.109l-2.359 2.536c-.032.034-.053.078-.059.126s.003.095.026.137.059.075.102.095.091.026.138.017z"/></g><g fill="#9ae9f7"><path opacity=".8" d="M311.238 373.617l1.156 3.259-3.768-.141-.977-3.259 3.589.141zm-2.518 3.757l1.156 3.259-3.767-.141-.977-3.259 3.588.141zm-8.586-.348l.648 3.203-2.133-.075-.545-3.203 2.03.075zm2.884-3.71l.648 3.203-2.123-.075-.554-3.203 2.029.075z"/></g><path opacity=".9" d="M-116.326 429.852l139.136-19.021 248.632 6.368-153.397 40.267-234.371-27.614z" class="M"/><g fill="#279661"><path d="M232.52 418.505l-4.265-10.332 4.077 2.17.094-4.293 5.439 5.551 7.873-5.635-.253 4.245 4.302-4.273-.141 5.231 4.031-2.921-3.072 9.44a35.31 35.31 0 0 1-6.887 1.39c-2.865.009-11.198-.573-11.198-.573zm-200.258-1.794l-4.491-8.623 4.528 2.677 4.077-3.757v4.03l6.069-4.697-1.447 5.739 4.538-5.739-.113 4.293 3.11-2.414-2.367 7.786c-1.719.586-3.495.989-5.299 1.203-2.189 0-8.605-.498-8.605-.498z"/></g><path d="M-83.632 249.012l3.194 1.991.836.545a32.73 32.73 0 0 1 9.498-7.167c-1.621 4.018-2.725 8.225-3.288 12.521l10.616.827c.31-1.24 1.973-2.903 2.283-4.143a55.82 55.82 0 0 1 8.455-.403 66.01 66.01 0 0 1 4.491-7.308c0 .244 0 .488-.056.733-.103 2.902 1.287 5.635 2.208 8.406 0 .169.094.357.15.526a93.31 93.31 0 0 1 11.274 1.418c.761 1.315 1.954 2.565 2.725 3.88 1.879.366 4.143-.414 5.956-.94 1.005-6.762 3.983-12.708 7.948-18.381l.611-.855c-1.268 3.663-1.071 7.617-.63 11.487.056.705.15 1.4.235 2.095l7.826.817c.601-.789 1.954-2.132 1.963-3.109 3.817 0 7.624.375 11.368 1.118 1.052-3.616 3.589-7.374 5.844-10.483l.122-.15c-1.362 4.03-.15 9.102.667 13.441.075.451.413 6.171.489 6.575 3.889.761 7.863-4.584 11.818-4.283a26.4 26.4 0 0 1 1.372-7.448c.08.444.2.881.357 1.305a25.53 25.53 0 0 0 2.433 4.246l.535.939c4.012-.085 8.549-.874 12.523-1.259-.554-2.761.376-5.203.789-8.002 7.888.074 15.767-.555 23.543-1.879.329-3.362 1.879-6.255 3.448-9.28.169.582.348 1.127.545 1.691 1.34 3.926 2.892 7.776 4.65 11.534h.16c1.992.216 4.942-.451 6.877-.723-.432-4.227.376-7.223.883-11.459v.441.057c.451 5.222 2.349 10.059 4.228 15.028l.78 2.038 9.179-.084c.291-1.578 1.24-3.062 1.541-4.64 2.227.047 4.425-.846 6.651-.808a111.53 111.53 0 0 1 3.861-15.273.19.19 0 0 0 0-.075c.094-.319.198-.648.292-.939-.185 3.71.061 7.429.733 11.083 0 .31.112.62.187.94 8.709.471 17.44.27 26.118-.602.291-2.817.939-6.302 1.23-9.129.066.216.132.347.207.554v.094l3.598 11.187.442 1.371c3.41.376 7.318.075 10.757.178.55-4.705 1.445-9.364 2.677-13.939.057.301.132.602.198.893v.131c.779 2.95 2.151 5.749 2.715 8.726a31.7 31.7 0 0 0 3.899 0l-.649-31.137 2.189 4.95a172.49 172.49 0 0 0-1.879-20.983c-.225-1.475-.375-3.598-.732-5.749l-.367-21.03c-43.789-.179-95.525 3.409-138.722 7.908a305.96 305.96 0 0 0-30.664 13.93c-6.86 2.003-13.6 4.392-20.189 7.157a50.32 50.32 0 0 1 7.243 0c1.334.094 2.668.226 4.04.357a90.6 90.6 0 0 0-7.638 1.785c-16.272 4.555-31.707 13.394-44.371 23.998l21.317-8.679-8.023 6.002c-9.874 7.599-17.634 14.653-25.563 25.436z" fill="#9b503e"/><path d="M99.519 450.084l-8.906-17.095 8.981 5.307 8.079-7.515v8.031l10.992-10.078-.16 8.19 5.722-5.767 1.39 6.923 4.697-5.157-3.241 15.817s-6.933 2.189-10.503 2.283c-4.331 0-17.051-.939-17.051-.939z" fill="#279661"/><path d="M144.613 248.956c1.466-.263 3.448-.47 4.698.31.441-3.025 1.446-6.03 1.878-9.046.245 1.879 1.231 3.269 2.152 4.894 3.366 1.093 6.976 1.197 10.4.301-.601-2.17.15-4.049.216-6.303 1.541 3.757 4.697 6.65 7.027 9.985 2.443.76 5.383.178 7.948.065-1.184-3.945-1.559-8.265-2.217-12.314 2.687 3.974 6.163 7.618 8.85 11.591 2.01-.404 3.109-.366 5.12-.77-.986-2.941-2.428-5.708-4.275-8.2 6.332 3.109 11.274 8.613 14.957 14.409 2.02-.526 3.542-1.578 5.561-2.095l-2.358-7.909c1.053 1.109 2.443 1.456 3.495 2.565a8.82 8.82 0 0 0 4.773-3.607c-3.679-5.463-7.653-10.721-11.903-15.752 6.707 6.209 13.641 12.455 19.4 19.481.939-.198 1.879-.761 2.818-.94a41.96 41.96 0 0 0-3.016-11.853c4.594 3.71 10.429 5.41 15.643 8.265 2.618-1.171 5.114-2.599 7.45-4.264l-9.217-12.173c7.134 4.636 13.943 9.754 20.378 15.32 1.822-.085 3.156-1.569 4.697-2.527a40.48 40.48 0 0 0-6.163-9.102c2.274 1.203 4.491 2.968 6.764 4.171 1.983-.62 2.387-2.884 3.758-4.387-15.088-12.567-35.841-23.904-57.355-33.147 9.78 2.461 19.376 5.599 28.72 9.393-13.153-5.457-25.028-12.014-39.007-15.799-4.394-1.277-8.879-2.219-13.416-2.818a347.72 347.72 0 0 0-39.27-11.543c-3.757 24.477-5.082 46.973 1.494 73.799z" fill="#9b503e"/><path d="M99.19 400.368l6.097 46.635h8.305l4.453-46.635H99.19z" class="E"/><path d="M105.287 447.003h4.65l-1.324-46.016-9.423-.619 6.097 46.635z" class="F"/><path d="M233.093 384.766l4.81 33.119h7.459l4.67-33.119h-16.939z" class="E"/><path d="M237.903 417.885h4.181l-.517-32.499-8.474-.62 4.81 33.119z" class="F"/><path d="M31.895 377.703l4.472 35.683H43.3l4.34-35.683H31.895z" class="E"/><path d="M36.367 413.386h3.88l-.479-35.214-7.873-.469 4.472 35.683z" class="F"/><path d="M-120.253 379.487v5.646L114.4 403.777l1.418-6.65-236.071-17.64z" fill="#b87893"/><path d="M115.818 397.127l-1.418 6.65 150.682-17.226v-4.941l-149.264 15.517z" fill="#d8c5c3"/><path d="M-120.253 379.487l236.071 17.64 149.264-15.517-218.033-8.716-167.302 6.593z" fill="#f9e4dc"/><g fill="#e4c3c3"><path d="M-104.159 378.341l238.833 16.832 32.261-3.522-245.55-14.446-25.544 1.136zm88.423-2.085l222.185 11.629 32.271-3.513-228.912-9.243-25.544 1.127z" class="B"/></g><path d="M180.962 390.402l-223.266-13.986 1.531-.113 224.957 13.723-3.222.376z" fill="#e0c1c1" class="B"/><g class="M"><path d="M32.29 417.134l-1.343-5.946 3.128 4.236 3.204-6.575v3.757l2.762-2.817v5.682l4.397-5.579-1.099 5.128 3.758-2v3.954c-1.833.609-3.721 1.04-5.637 1.287-2.058-.019-9.169-1.127-9.169-1.127zm67.229 32.95l-2.368-10.492 5.534 7.514 5.636-11.675v6.575l4.886-4.922v9.994l7.769-9.853-1.926 9.101 6.576-3.541v6.989s-7.008 2.226-9.967 2.273c-3.57.009-16.141-1.963-16.141-1.963zm75.11-34.406l-1.879-8.144 4.294 5.805 4.378-9.055v5.091l3.758-3.823v7.787l6.031-7.646-1.503 7.035 5.101-2.752v5.42s-5.439 1.728-7.741 1.766c-2.677.047-12.439-1.484-12.439-1.484zm-197.054 1.531l-3.175-9.299 5.75 6.256 4.002-11.15.639 5.965 3.946-4.941.94 9.111 6.107-9.693-.883 8.406 5.637-3.841.695 6.368s-6.144 2.705-8.831 3.024c-3.232.348-14.825-.206-14.825-.206z"/></g><path d="M97.377 226.103h10.795l3.993 167.333c-1.36.385-2.76.609-4.171.667a38.52 38.52 0 0 1-5.177-.667l-5.44-167.333z" class="E"/><path d="M97.377 226.103h5.9l5.196 167.99-2.499-.15-3.157-.507-5.44-167.333z" class="F"/><path d="M32.356 245.321h7.516l2.818 129.827c-.943.324-1.926.513-2.922.564-1.225-.09-2.441-.278-3.636-.564l-3.777-129.827z" class="E"/><path d="M32.356 245.321h4.171l3.645 130.372-1.757-.122c-.489-.066-2.217-.423-2.217-.423l-3.842-129.827z" class="F"/><path d="M231.223 222.975h10.504l3.88 158.814a16.99 16.99 0 0 1-4.059.676 35.9 35.9 0 0 1-5.036-.676l-5.289-158.814z" class="E"/><path d="M231.223 222.975h5.74l5.055 159.48-2.443-.15-3.063-.507-5.289-158.823z" class="F"/><path d="M22.764 249.782c-1.484-.122-3.476-.131-4.632.771-.742-2.969-2.039-5.861-2.818-8.811-.056 1.879-.939 3.372-1.653 5.082a18.63 18.63 0 0 1-10.297 1.315c.395-2.217-.545-4.02-.836-6.256-1.165 3.879-4.012 7.082-5.994 10.633-2.358.995-5.346.714-7.91.854.789-4.038.733-8.378.986-12.473-2.283 4.217-5.374 8.19-7.657 12.408-2.039-.198-3.128-.057-5.167-.254.684-3.026 1.845-5.924 3.439-8.585-5.994 3.757-10.334 9.684-13.453 15.818-2.067-.32-3.683-1.212-5.75-1.532l1.56-8.105c-.94 1.202-2.274 1.69-3.213 2.902a8.82 8.82 0 0 1-5.101-3.119c3.13-5.804 6.58-11.429 10.334-16.85-6.05 6.857-12.345 13.76-17.38 21.321-.939-.103-1.879-.573-2.818-.666a41.54 41.54 0 0 1 1.879-12.098c-4.284 4.123-9.921 6.415-14.834 9.759-2.72-.91-5.344-2.084-7.835-3.504l7.873-12.999c-6.647 5.322-12.925 11.09-18.79 17.264-1.823.103-3.297-1.25-4.895-2.048 1.291-3.445 3.049-6.697 5.223-9.665-2.142 1.418-4.171 3.391-6.313 4.809-2.039-.413-2.659-2.63-4.171-3.992 13.773-13.995 33.304-27.333 53.785-38.67-9.475 3.413-18.701 7.48-27.611 12.173 12.542-6.725 23.722-14.427 37.25-19.584 4.244-1.714 8.613-3.102 13.068-4.152 12.329-5.868 24.994-11.005 37.927-15.385 6.135 24.027 9.686 46.288 5.806 73.639z" fill="#f27d31"/><path d="M266.068 229.588l-2.987 2.292-.771.629a32.82 32.82 0 0 0-10.174-6.237c2.007 3.865 3.519 7.968 4.5 12.211l-10.494 1.878c-.432-1.202-2.245-2.695-2.677-3.898a55.58 55.58 0 0 0-8.456.442c-1.583-2.385-3.318-4.666-5.195-6.829.056.235.094.489.132.723.394 2.875-.724 5.693-1.353 8.576 0 .179-.066.366-.104.536-3.756.616-7.471 1.463-11.123 2.536-.629 1.39-1.691 2.742-2.33 4.132-1.813.555-4.162 0-6.022-.375-1.663-6.575-5.223-12.211-9.733-17.499-.216-.263-.451-.526-.686-.798 1.626 3.531 1.823 7.514 1.767 11.374v2.104l-7.704 1.597c-.667-.733-2.151-1.935-2.255-2.902-3.8.379-7.554 1.131-11.208 2.244-1.4-3.494-4.303-6.988-6.848-9.853-.044-.044-.085-.091-.123-.14 1.748 3.879 1.043 9.045.667 13.441 0 .46-.065.939-.103 1.362-3.758 1.145-8.014 1.474-11.922 2.169a26.22 26.22 0 0 0-2.104-7.279 6.37 6.37 0 0 1-.226 1.343 24.93 24.93 0 0 1-1.879 4.424 17.15 17.15 0 0 0-.432 1.014c-3.993.32-8.587 0-12.589 0 .282-2.817-.892-5.147-1.578-7.88-7.842.836-15.742.977-23.609.423-.667-3.316-2.499-6.04-4.359-8.895a42.63 42.63 0 0 1-.367 1.728 118.84 118.84 0 0 1-3.532 11.901h-.15c-1.964.413-4.97 0-6.924 0 0-4.246-1.09-7.158-2.011-11.272a3.77 3.77 0 0 1 0 .451v.047c.066 5.251-1.343 10.257-2.724 15.338-.207.705-.385 1.4-.573 2.104l-9.141.827c-.451-1.55-1.541-2.931-1.992-4.471-2.217.272-4.491-.394-6.708-.141a111.03 111.03 0 0 0-5.355-14.812.21.21 0 0 1 0-.075c-.132-.31-.272-.62-.394-.94a48.22 48.22 0 0 1 .366 11.093c0 .32-.047.639-.085.939a168.93 168.93 0 0 1-26.127 2.029c-.573-2.771-1.578-6.171-2.133-8.96-.047.225-.094.357-.15.573v.093l-2.471 11.488-.301 1.409c-3.354.714-7.281.798-10.682 1.249-1.013-4.628-2.37-9.174-4.059-13.601 0 .301-.066.601-.103.94v.131c-.489 3.015-1.569 5.936-1.879 8.951a31.54 31.54 0 0 1-3.88.376l-2.443-31.052-1.597 5.081a173.23 173.23 0 0 1-.178-21.068c.075-1.484 0-3.616.15-5.795l-1.644-20.862c43.563-4.527 95.395-6.086 138.826-5.889a304.73 304.73 0 0 1 31.867 10.811 187.3 187.3 0 0 1 20.752 5.119 48.51 48.51 0 0 0-7.205.723c-1.325.226-2.631.489-3.993.752 2.602.225 5.205.573 7.779 1.024 16.675 2.883 32.881 10.163 46.569 19.461l-22.077-6.518 8.577 5.175c10.579 6.575 19.006 12.831 27.968 22.778z" fill="#f4ae3d"/><g fill="#ffca69"><path d="M50.929 200.367c2.969 7.74 5.505 15.592 8.032 23.482.901-7.273 1.052-14.619.451-21.923l7.262 16.306c-.085-14.239-5.853-28.329-16.262-39.685l2.396 13.686c-4.794-5.206-10.404-9.597-16.61-13 7.723 4.725 11.969 13.967 14.731 21.134zm-13.162 18.391c1.343-2.423 1.062-5.335.667-8.05-1.466-10.2-3.88-20.457-9.226-29.39 1.005 1.682 1.099 5.232 1.691 7.223.939 3.119 1.55 6.322 2.245 9.497l4.622 20.72zm120.807 1.399a52.95 52.95 0 0 0-8.145-23.425 148.58 148.58 0 0 1 17.981 18.785c-4.857-15.902-16.657-29.747-31.998-37.571a96.76 96.76 0 0 1 7.149 10.426c-6.022-6.039-12.72-12.436-21.411-13.582 3.552.47 7.14 6.03 9.517 8.341 3.758 3.635 7.516 7.167 10.851 11.149 6.573 7.807 11.98 16.523 16.056 25.877zm20.612-12.313c-8.74-11.432-19.375-21.28-31.444-29.118 7.526.704 14.602 3.901 20.104 9.083 5.694 5.288 10.203 12.502 11.34 20.035z"/><path d="M212.631 219.491c-4.651-8.454-11.29-15.65-19.344-20.965a86.68 86.68 0 0 1 26.024 12.69c-3.676-1.812-7.608-3.048-11.659-3.664 6.379 7.392 13.002 15.386 14.092 24.919-2.086-4.621-6.717-8.538-9.113-12.98zm-37.795-21.641c-4.655-8.452-11.297-15.644-19.353-20.956a86.61 86.61 0 0 1 26.033 12.681 40.21 40.21 0 0 0-11.669-3.654c6.389 7.392 13.012 15.385 14.093 24.909-2.077-4.611-6.68-8.528-9.104-12.98zm-37.945 28.45c-.517-6.406-5.731-14.54-8.503-20.354-3.25-6.838-7.365-13.281-10.681-20.044 16.093 4.377 18.131 27.295 19.184 40.398zM86.92 195.088l-9.226-4.537c7.243 6.106 11.706 13.817 16.046 21.388l.113-12.098a115.88 115.88 0 0 1 12.109 19.246c-1.691-11.037-6.999-21.547-13.951-31.203a30.55 30.55 0 0 0-6.698-7.214 17.92 17.92 0 0 0-10.409-3.503c2.767 2.093 5.35 4.418 7.722 6.95-.752-.798-4.237-1.615-5.477-2.179 2.208 4.565 7.412 8.379 9.771 13.15z"/></g><path d="M43.62 250.346l-.301 1.409c-3.354.714-7.281.798-10.682 1.249a95.44 95.44 0 0 0-4.059-13.601c0 .301-.066.602-.103.94l-1.362-19.077 3.561 14.878c1.062 4.762 1.654 9.816 3.326 14.418a6.81 6.81 0 0 1 2.687-.075l.413-2.705c.582.648.273 1.878 1.052 2.282a2.07 2.07 0 0 0 .714.122l4.754.16z" fill="url(#A)"/><path d="M74.51 244.203c0 .319-.047.639-.085.939-8.618 1.357-17.328 2.045-26.052 2.057-.573-2.771-1.578-6.171-2.133-8.96-.047.225-.094.357-.15.573l-.329-7.458c-.103-2.48.329-5.749-.376-8.097l6.247 20.599c.064.332.248.63.517.835a1.47 1.47 0 0 0 .733.141l10.015.188a26.2 26.2 0 0 0 0-4.621l1.513 3.936c3.351-.427 6.739-.471 10.099-.132z" fill="url(#B)"/><path d="M98.316 250.618l-.573 2.104-9.141.827c-.451-1.55-1.541-2.931-1.992-4.471-2.217.272-4.491-.395-6.708-.141-1.432-5.058-3.222-10.008-5.355-14.812a.21.21 0 0 1 0-.076l-.357-1.737-1.184-5.279c-.319-1.39-.348-3.682-1.099-4.894 2.724 4.021 4.322 8.632 5.89 13.15l2.621 7.515a5.92 5.92 0 0 0 1.259 2.357c1.193 1.146 3.119 1.127 4.829 1.043-.163-4.823-.663-9.628-1.494-14.381l5.007 18.128 8.296.667z" fill="url(#C)"/><path d="M109.975 246.138c-1.964.413-4.97 0-6.924 0 0-4.246-1.09-7.157-2.011-11.271a3.38 3.38 0 0 1 0 .45c-.657-5.231-1.625-10.397-1.954-15.667 1.344 1.409 1.785 3.382 2.199 5.26 1.428 6.462 3.069 12.875 4.923 19.237.071.314.215.607.422.854a1.99 1.99 0 0 0 .94.461l2.405.676z" fill="url(#D)"/><path d="M156.601 247.8l-.432 1.015c-3.993.319-8.587 0-12.589 0 .282-2.818-.893-5.147-1.579-7.881-7.841.836-15.742.977-23.609.423-.667-3.316-2.499-6.04-4.359-8.895a42.64 42.64 0 0 1-.366 1.728l-3.129-19.631c-.573-3.757-1.493-7.683-1.691-11.506 4.028 11.209 7.754 22.515 11.18 33.918a31.93 31.93 0 0 1 5.637.939l.892-3.382a21.14 21.14 0 0 0 .574 4.19 50.25 50.25 0 0 1 10.014-.188 26.97 26.97 0 0 1 .057-4.772c.523 1.77 1.238 3.477 2.132 5.091.848-.436 1.79-.655 2.744-.639-.349-1.979-.581-3.977-.696-5.983a79.44 79.44 0 0 1 5.177 14.484c3.382-.114 6.764.253 10.043 1.089z" fill="url(#E)"/><path d="M170.289 246.335c.816-.283 1.66-.478 2.518-.582 0 .46-.066.939-.104 1.362-3.757 1.146-8.013 1.475-11.921 2.17-.345-2.516-1.054-4.968-2.105-7.28a6.36 6.36 0 0 1-.225 1.343c-.282-1.878-.733-3.672-1.1-5.494-.479-2.452-.253-5.552-1.052-7.872l5.9 17.152 7.732-.451c-.314-.778-.455-1.614-.413-2.452l.77 2.104z" fill="url(#F)"/><path d="M176.969 245.997l-.103.217c-.027-.084-.049-.169-.066-.255l.169.038z" fill="url(#G)"/><path d="M176.969 245.997l-.103.217c-.027-.084-.049-.169-.066-.255l.169.038z" fill="url(#G)"/><path d="M200.333 239.291v2.104l-7.703 1.596c-.667-.732-2.152-1.935-2.255-2.902a58.23 58.23 0 0 0-11.208 2.245c-1.4-3.494-4.303-6.988-6.849-9.853-1.879-4.396-3.899-8.698-5.073-13.394 4.118 6.363 7.803 12.997 11.03 19.856a79.6 79.6 0 0 1 11.273-1.014c-.619-2.328-.987-4.715-1.099-7.12a44.04 44.04 0 0 0 3.889 9.543l3.711-.517c-.293-1.098-.411-2.236-.347-3.372l1.437 4.096a6.68 6.68 0 0 1 3.194-1.268z" fill="url(#H)"/><path d="M228.565 239.375c0 .179-.066.366-.104.535a92.85 92.85 0 0 0-11.123 2.537c-.63 1.39-1.691 2.742-2.33 4.132-1.813.555-4.162 0-6.022-.375-1.663-6.575-5.223-12.211-9.733-17.499-1.253-2.724-2.571-5.423-3.955-8.097-.94-1.935-2.001-3.841-3.035-5.748-.629-1.155-1.879-4.697-3.006-5.326 1.675 1.004 3.126 2.34 4.265 3.926 7.103 8.811 12.364 18.786 17.446 28.808.517-1.475 3.138-1.615 3.758-.207a8.71 8.71 0 0 0-.113-5.231c.45 1.025 1.004 2 1.654 2.911a1.78 1.78 0 0 0 .658.611c.465.125.959.075 1.39-.141 2.705-.937 5.537-1.453 8.399-1.531.427-.056.861.013 1.249.197a1.89 1.89 0 0 1 .602.498z" fill="url(#I)"/><path d="M262.31 232.509a32.82 32.82 0 0 0-10.174-6.237c2.007 3.865 3.519 7.968 4.5 12.211l-10.494 1.878c-.432-1.202-2.245-2.695-2.677-3.898a55.58 55.58 0 0 0-8.456.442 66.83 66.83 0 0 0-5.195-6.829c.056.235.094.489.132.724l-2.96-6.341c-1.08-2.32-1.954-5.729-3.598-7.72a131.62 131.62 0 0 1 12.486 17.846c2.368-.355 4.775-.378 7.149-.066-.953-1.371-1.399-3.032-1.259-4.696l4.613 7.138c.17.311.419.57.723.752.304.096.624.125.94.084l6.388-.385c-2.236-5.636-4.29-11.34-6.163-17.114 4.958 3.309 9.676 6.963 14.121 10.934a9.43 9.43 0 0 1 .695.676c-.244.16-.507.366-.771.601z" fill="url(#J)"/><g class="M"><path d="M233.027 419.632l-1.606-7.12 3.598 3.335 3.974-6.171v4.443l3.307-3.335 1.033 4.509 4.228-4.387-.141 5.504 3.269-1.765v4.696s-4.697 1.512-6.745 1.54c-2.415.085-10.917-1.249-10.917-1.249z"/><path opacity=".9" d="M226.873 456.086c.113 4.837-22.735 5.213-43.939 1.033-16.854-3.325-34.253-9.722-30.439-11.995 9.949-5.936 19.729-8.453 41.337-8.914s32.929 15.048 33.041 19.876z"/></g><path opacity=".45" d="M196.745 385.611c.112 4.838-26.259 12.042-47.867 12.549s-33.699-7.777-30.363-10.708c8.671-7.617 19.278-6.34 40.876-6.847s37.241.179 37.354 5.006z" fill="#c4a7a7"/><path d="M209.691 339.249c-3.27-.432-7.648-7.806-7.648-7.806l-3.523-15.028c-.276-.884-.674-1.725-1.184-2.499-1.878-3.034-3.447-6.011-6.576-7.692l-13.012-5.082-12.119-2.207-4.622 1.334s-10.569 3.062-12.016 5.682 6.126 25.417 6.126 25.417-2.819 30.855-3.758 35.016-4.378 10.069-4.378 10.069l7.196-10.82c2.565-3.372 8.314-5.025 12.467-5.063l31.397-.582-2.217-13.357s4.162 3.26 5.787 3.898c6.576 2.565 27.762 4.359 27.762 4.359s4.697-9.75 5.101-9.957-24.783-5.682-24.783-5.682z" class="J"/><path d="M158.583 301.349c-.376-1.062-5.552 1.878-5.552 1.878s7.253 23.247 6.576 29.663c-.366 3.437-2.621 2.517-5.129-4.697-.62-1.784 1.446 12.098-3.401 26.779-4.557 13.77-3.598 21.341-2.753 18.88l51.023.939s-4.791-57.916-11.471-69.666c-.442-.771-4.209-1.682-4.021-1.268 2.17 4.696 2.818 9.345 1.879 16.324-.442 3.466-10.682 7.345-17.484.996-2.696-2.593-8.088-15.31-9.667-19.828z" fill="#0a96ad"/><path d="M161.571 326.587a9 9 0 0 0 2.33 1.879c.398.214.835.345 1.285.387s.905-.007 1.336-.143a2.94 2.94 0 0 0 1.108-.676 3.67 3.67 0 0 0 .724-1.146 9.15 9.15 0 0 0 .507-2.959 5.64 5.64 0 0 1 .216 3.184c-.139.564-.402 1.091-.77 1.541a3.71 3.71 0 0 1-1.475.939 3.66 3.66 0 0 1-3.326-.526c-.876-.618-1.549-1.48-1.935-2.48z" class="N"/><path d="M165.498 326.493a1.59 1.59 0 0 1-1.107-.3c-.318-.235-.538-.579-.615-.967s-.008-.791.196-1.13.527-.589.906-.702a1.49 1.49 0 0 1 .507 0h-.075c-.397.101-.737.356-.947.708a1.55 1.55 0 0 0-.171 1.17 1.57 1.57 0 0 0 .463.813c.233.218.527.361.843.408z" fill="#c2c6c6"/><path d="M165.573 326.474h-.075a1.57 1.57 0 0 1-.847-.415c-.234-.222-.394-.509-.459-.824a1.55 1.55 0 0 1 .171-1.17c.21-.352.55-.607.947-.709h.075a1.58 1.58 0 0 1 .847.415c.234.222.394.51.459.825.052.197.064.402.036.603a1.53 1.53 0 0 1-.201.571c-.104.175-.242.327-.405.448a1.53 1.53 0 0 1-.548.256z" fill="#e7f1f2"/><path d="M188.205 321.064a3.03 3.03 0 0 0 .723 1.174 1.6 1.6 0 0 0 .529.336c.197.075.407.111.617.106.206.017.414-.011.607-.084a1.38 1.38 0 0 0 .511-.339 2.12 2.12 0 0 0 .404-1.268 1.68 1.68 0 0 1 .133.757 1.67 1.67 0 0 1-.217.736 1.36 1.36 0 0 1-.639.536c-.254.101-.526.149-.799.141-.272.006-.541-.051-.787-.167a1.74 1.74 0 0 1-.631-.5 2.19 2.19 0 0 1-.451-1.428z" class="N"/><path d="M190.074 321.318a1.01 1.01 0 0 1-1.155-.827 1.1 1.1 0 0 1 .648-1.371c.105-.023.214-.023.319 0h-.047c-.261.107-.473.308-.593.564a1.13 1.13 0 0 0-.055.817 1.08 1.08 0 0 0 .316.544 1.07 1.07 0 0 0 .567.273z" fill="#c2c6c6"/><path d="M190.121 321.308h-.047a1.07 1.07 0 0 1-.574-.284c-.158-.151-.265-.347-.309-.561a1.13 1.13 0 0 1 .648-1.381h.047c.218.034.42.134.578.287s.265.352.306.568c.086.268.067.559-.053.814a1.11 1.11 0 0 1-.596.557z" fill="#e7f1f2"/><path d="M167.057 338.995s17.982 2.405 24.652-4.236l2.151 23.031s-1.662 6.021-10.212 7.242-14.355-5.241-14.355-5.241l-2.236-20.796z" class="N"/><g fill="#0e9ea5"><path d="M169.096 341.785l-.141-1.278h.31l.939.113-.047.479-.667-.066.066.658-.46.094zm7.666-.395h-1.033v-.488h1.08.752v.488h-.799zm2.678-.141l-.047-.479 1.878-.197.057.479-1.888.197zm-5.572.122c-.667 0-1.287-.047-1.878-.084v-.489l1.878.085v.488zm9.254-.61l-.094-.479 1.785-.413.122.469-1.85.423h.037zm3.598-.996l-.178-.46c.566-.212 1.119-.459 1.653-.742l.235.423a15.05 15.05 0 0 1-1.71.779zm3.711-1.653v-.479a5.92 5.92 0 0 1-.385.319l-.301-.375a9.16 9.16 0 0 0 .705-.63l.366-.366.141 1.484-.526.047zm-8.004 25.558v-.489c.385 0 .78-.056 1.156-.112l.77-.132.094.479-.789.132c-.414.122-.827.122-1.231.122zm-2.01-.047c-.668-.07-1.331-.186-1.983-.348l.122-.469c.617.159 1.245.269 1.879.328l-.018.489zm5.956-.723l-.16-.451c.612-.212 1.206-.473 1.776-.78l.225.432c-.588.332-1.204.612-1.841.836v-.037zm-9.865-.169a14.6 14.6 0 0 1-1.813-.874l.235-.423a15.09 15.09 0 0 0 1.757.846l-.179.451zm13.369-1.672l-.31-.376a8.95 8.95 0 0 0 1.353-1.371l.385.31a9.9 9.9 0 0 1-1.409 1.39l-.019.047zm-16.91-.282c-.543-.394-1.06-.821-1.551-1.278l.329-.356c.48.442.985.856 1.513 1.239l-.291.395zm19.381-2.884l-.442-.206c.089-.193.167-.391.235-.592l-.113-1.202.489-.047.122 1.296c-.056.242-.134.478-.235.704l-.056.047zm-21.608-.328l-.216-1.964.488-.056.207 1.973-.479.047zm21.119-3.645l-.188-1.972.489-.047.179 1.972-.48.047zm-21.542-.291l-.216-1.963.489-.056.206 1.972-.479.047zm21.223-3.701l-.188-1.963h.489l.178 1.973-.479-.01zm-21.608-.282l-.216-1.963.488-.056.207 1.972-.479.047zm21.232-3.653l-.188-1.973.489-.047.178 1.973-.479.047zm-21.655-.273l-.216-1.972.489-.057.206 1.973-.479.056zm21.298-3.654l-.188-1.963.489-.047.178 1.973-.479.037z"/></g><g fill="#0d809b"><path opacity=".45" d="M159.598 331.34s.235 2.977-1.156 3.222c-.469.084-1.54 1.042-3.354-4.481s.677 11.713-2.968 22.721c-3.063 9.271-4.876 22.28-4.876 22.28s3.833-13.347 6.003-15.968c4.472-5.401 6.351-27.774 6.351-27.774z"/><path d="M147.385 374.65s3.635-9.393 7.018-11.121 32.646-6.105 37.287-6.481 6.088 2.32 6.088 2.32-34.695 2.311-38.979 4.772-11.414 10.51-11.414 10.51z"/></g><path d="M197.806 355.705l-4.284-4.34-7.797-1.775a3.16 3.16 0 0 0-1.673.066l-7.187 2.282c-.15 0-23.844-7.993-23.844-7.993l-2.686 10.201 28.663 5.119c.56.078 1.127.1 1.691.065l12.843-.817s.704-.685.263-1.127 2.311.714 2.63.723.94.235 1.362-.281a1.8 1.8 0 0 0 .355-1.059c.004-.381-.114-.754-.336-1.064z" class="G"/><g class="O"><path d="M193.823 357.414a7.22 7.22 0 0 1-1.344-.319l-3.297-.874-3.345-.667a6.74 6.74 0 0 1-1.39-.291c.474-.029.95-.004 1.419.075a32.34 32.34 0 0 1 3.382.583 30.14 30.14 0 0 1 3.297.939 5.62 5.62 0 0 1 1.278.554zm3.983-1.709c-.637-.154-1.264-.345-1.879-.573l-4.697-1.278c-1.528-.5-3.101-.849-4.697-1.042-.664-.018-1.327.026-1.983.131.159-.094.335-.158.517-.187a5.39 5.39 0 0 1 1.475-.16 20.5 20.5 0 0 1 4.754.939l4.65 1.371 1.372.536c.176.06.341.149.488.263z"/></g><path d="M149.686 304.946s-5.355 4.593-6.717 10.83-6.2 28.169-4.763 31.926 13.688 7.402 13.688 7.402l2.255-10.022-.94-1.823a.94.94 0 0 1-.488-.995c.394-2.377 3.138-16.973 3.185-21.219.028-5.044-6.22-16.099-6.22-16.099z" class="J"/><g fill="#e23b5b"><path d="M152.458 343.006a16.47 16.47 0 0 0-3.232-.32 9.72 9.72 0 0 0-1.56.141c-.535.075-1.052.235-1.634.348.395-.444.887-.791 1.437-1.015.553-.234 1.147-.359 1.748-.366.595-.007 1.186.091 1.747.291a3.92 3.92 0 0 1 1.494.921z"/><path d="M152.43 343.062c-.532-.566-1.121-1.076-1.757-1.521a5.74 5.74 0 0 0-.94-.564c-.338-.179-.704-.301-1.099-.47a2.73 2.73 0 0 1 1.259 0c.422.092.822.268 1.174.517.366.237.684.54.94.892a2.83 2.83 0 0 1 .423 1.146zm3.476-18.569l-.771 4.781a.51.51 0 0 0 0 .206c.254.817 1.541 5.636 3.364 5.392 0 0 1.522.497 1.127-3.128-.261-2.312-.653-4.608-1.174-6.876.004-.043.004-.087 0-.131l-.836-1.381c-.602-.939-1.541.056-1.71 1.137zm-1.701 17.329l.94.235a1.48 1.48 0 0 1 .526.291c.154.132.279.294.367.477a1.48 1.48 0 0 1 .146.583 1.46 1.46 0 0 1-.1.593l-4.002 11.037c-.089.274-.271.508-.515.662s-.533.219-.819.183l-1.785-.263a.72.72 0 0 1-.28-.121c-.083-.06-.153-.136-.205-.225a.73.73 0 0 1-.094-.29.71.71 0 0 1 .034-.303l4.153-11.919a1.35 1.35 0 0 1 .626-.802c.306-.175.667-.225 1.008-.138z"/></g><path d="M162.473 299.799c-.005 1.044.099 2.086.31 3.109.432 2.339 4.021 11.797 12.382 12.708 8.192.883 6.717-7.27 6.398-8.895-.263-1.315-2.387-5.213-3.523-5.494-2.283-.583-9.696-2.132-13.444-1.879-.721.081-1.432.232-2.123.451z" class="G"/><g fill="#d3355b"><path d="M208.789 338.864c-2.129.191-4.099 1.201-5.496 2.817a12.75 12.75 0 0 0-1.71 2.64l-.648 1.503-.649 1.568v-1.728c0-.582.198-1.137.348-1.7.339-1.143.908-2.204 1.672-3.119.8-.921 1.836-1.606 2.997-1.981a5.3 5.3 0 0 1 3.486 0z"/><path d="M207.905 339.023a5.07 5.07 0 0 0-3.71-.751 7.92 7.92 0 0 0-1.832.61l-.94.461-.939.507a9.27 9.27 0 0 1 .676-.817c.26-.244.533-.472.817-.686.599-.418 1.277-.709 1.992-.855a4.07 4.07 0 0 1 2.198.197c.715.235 1.328.705 1.738 1.334z"/></g><path d="M178.001 291.741c18.922-4.935 32.809-14.506 31.016-21.378s-18.586-8.442-37.509-3.507-32.808 14.507-31.016 21.378 18.586 8.442 37.509 3.507z" fill="#9e7b57"/><path d="M178.152 259.091c3.683-1.297 9.715.319 11.067 9.082 1.015 6.575.169 14.437-3.513 15.724s-8.042-4.903-10.241-11.149-.995-12.399 2.687-13.657z" class="K"/><g class="G"><path d="M171.11 286.204l-2.947.138c-2.607.123-4.621 2.335-4.498 4.941l.529 11.259c.122 2.607 2.335 4.62 4.942 4.498l2.946-.138c2.607-.123 4.622-2.335 4.499-4.942l-.529-11.258c-.123-2.607-2.335-4.621-4.942-4.498z"/><path d="M179.327 299.799a16.31 16.31 0 0 1-17.587-11.722l-3.627-11.76c-.939-8.454 2.161-17.433 13.153-18.673 4.035-.405 8.067.803 11.214 3.36a15.35 15.35 0 0 1 5.584 10.288l.798 11.825c.076 9.299-2.959 15.912-9.535 16.682z"/></g><path d="M163.562 280.882c.17-.836 1.522 3.757 1.767 2.696.394-1.813 1.55-2.64 1.108-5.636-.157-1.142-.141-2.301.047-3.438 3.533-4.696 17.85-7.401 21.608-2.752 0 0 0-16.616-16.037-14.747-17.051 2.001-14.336 15.367-13.942 19.312.602 5.335 2.885 15.705 5.722 16.353 0 0-1.766-4.452-.273-11.788z" class="K"/><path d="M161.881 288.184c1.978-.431 3.106-2.957 2.521-5.644s-2.662-4.515-4.639-4.085-3.106 2.957-2.521 5.644 2.662 4.515 4.639 4.085z" class="G"/><g fill="#c97355"><path d="M158.367 280.685c.616-.358 1.344-.468 2.039-.31a3.67 3.67 0 0 1 1.879 1.061c.478.523.839 1.14 1.061 1.813l.245.995c.023.338.023.677 0 1.015a9.94 9.94 0 0 1-.489-.874l-.46-.836a8.59 8.59 0 0 0-1.081-1.456 4.44 4.44 0 0 0-1.453-1.031c-.549-.242-1.141-.37-1.741-.377z"/><path d="M159.598 283.146c.099-.179.234-.336.395-.462s.347-.218.544-.271c.417-.129.865-.109 1.269.056a2.56 2.56 0 0 1 .939.733c.121.158.231.324.329.498.084.178.153.364.207.554a3.76 3.76 0 0 1-.47-.338l-.442-.31c-.27-.19-.56-.351-.864-.479-.616-.231-1.296-.224-1.907.019z"/></g><g class="K"><path d="M181.704 267.863s-2.302 6.012-7.657 7.233c-.059.014-.12.01-.177-.012a.29.29 0 0 1-.137-.112c-.033-.05-.049-.11-.047-.17s.023-.119.06-.166c1.068-1.377 1.56-3.115 1.372-4.847-.489-3.015 6.586-1.926 6.586-1.926z"/><path d="M188.646 271.405c-.592 1.502-3.156 4.029-9.263 5.513-.053.016-.11.014-.162-.005s-.098-.053-.129-.099-.047-.101-.045-.156.02-.109.054-.153c1.382-1.848 1.977-4.168 1.654-6.453-.658-3.372 6.924.329 7.666.996.131.112.301.187.225.357z"/></g><g fill="#c97355"><path d="M180.473 282.141c.557.602 1.051 1.26 1.475 1.963a8.97 8.97 0 0 1 1.043 2.273c.054.224.082.454.084.685-.001.138-.023.274-.066.404-.051.162-.153.304-.291.404-.202.123-.42.218-.648.282a3.86 3.86 0 0 1-.629.122c-.828.098-1.666.037-2.471-.178.796-.064 1.587-.183 2.367-.357.188-.047.367-.113.536-.169.159-.059.311-.138.451-.235.029-.041.049-.086.061-.135s.013-.098.004-.147c-.007-.172-.035-.342-.084-.507-.223-.75-.502-1.482-.836-2.189l-.996-2.216zm3.025 9.918a5.04 5.04 0 0 1-2.255 1.052 8.41 8.41 0 0 1-2.518.113 10.25 10.25 0 0 1-2.433-.592l-1.137-.507c-.375-.169-.714-.423-1.052-.657l1.184.328 1.165.31 1.174.244.583.104.592.066c.782.095 1.572.111 2.358.046a8.45 8.45 0 0 0 2.339-.507zm-1.672 2.414c-.142.281-.378.504-.667.63-.279.132-.584.202-.893.206-.301.015-.601-.033-.883-.141a1.88 1.88 0 0 1-.761-.469c.283-.049.569-.071.855-.066h.77.761c.254-.085.508-.103.818-.16z"/></g><g class="K"><path d="M168.664 279.379c.667-.274 1.351-.506 2.048-.695.703-.19 1.419-.331 2.142-.423a5.91 5.91 0 0 1 2.226 0c.753.15 1.423.575 1.879 1.193l-.056.066a7.34 7.34 0 0 0-2.001-.432 20.17 20.17 0 0 0-2.039-.16 15.93 15.93 0 0 0-2.104.16c-.705.084-1.409.216-2.105.366l.01-.075zm19.118-1.277c-.44-.013-.88.012-1.315.075-.422.047-.838.138-1.24.272-.361.158-.713.336-1.053.535-.363.205-.715.431-1.052.677h-.075c.007-.256.069-.507.181-.737s.271-.433.467-.597a2.68 2.68 0 0 1 1.372-.498 5.05 5.05 0 0 1 1.4 0c.449.044.893.132 1.324.263l-.009.01zm-12.24 6.401c.456-.022.794-.724.754-1.569s-.442-1.512-.898-1.49-.793.723-.754 1.568.442 1.512.898 1.491zm9.607-.451c.456-.021.794-.723.754-1.568s-.442-1.512-.898-1.491-.793.724-.754 1.569.442 1.512.898 1.49z"/></g><path d="M176.508 299.893s-7.224-1.475-9.827-3.851c0 0 6.21 10.557 9.733 6.819.423-.479.094-2.968.094-2.968z" class="O"/><path d="M209.089 272.56c-1.785-6.876-18.582-8.454-37.503-3.513-17.014 4.452-29.951 12.624-31.088 19.218-1.794-6.867 12.091-16.428 31.003-21.369s35.7-3.372 37.513 3.503a4.9 4.9 0 0 1 .075 2.161z" fill="#d8aa73"/><path d="M141.156 284.113s3.814-9.872 32.581-16.71c0 0 26.23-7.655 34.648 1.606-.865-1.465-5.694-4.161-7.3-4.696l-30.561-11.14c-.343-.122-.712-.15-1.069-.08s-.689.233-.96.475l-20.603 22.157c-1.372 1.221-6.802 6.575-6.736 8.454v-.066z" fill="#f9d07d"/><path d="M238.138 373.232c-1.999-1.309-4.432-1.778-6.774-1.306l-2.348 13.15c2.931-.254 6.031.874 8.746-.254a6.21 6.21 0 0 0 2.639-2.286c.643-.999.985-2.161.987-3.349a7.35 7.35 0 0 0-.898-3.374c-.566-1.037-1.373-1.922-2.352-2.581z" class="J"/><path d="M231.392 371.616c0-.103.414-.235 1.184-.329a9.77 9.77 0 0 1 3.335.198c1.671.415 3.185 1.306 4.359 2.564.709.746 1.276 1.615 1.673 2.564a7.36 7.36 0 0 1 .526 3.306 6.66 6.66 0 0 1-1.062 3.194c-.582.905-1.383 1.648-2.33 2.16-1.535.764-3.252 1.089-4.96.94-1.098-.077-2.184-.269-3.241-.573-.742-.207-1.137-.385-1.118-.489s.451-.131 1.212-.103l3.156.075c1.486-.019 2.944-.402 4.247-1.118.711-.415 1.316-.991 1.766-1.681a5.43 5.43 0 0 0 .789-2.498c.049-.874-.077-1.748-.371-2.573a6.58 6.58 0 0 0-1.339-2.227 8.61 8.61 0 0 0-3.617-2.48c-.982-.32-1.997-.534-3.025-.639-.751-.112-1.174-.178-1.184-.291z" fill="#f5f5f5"/><path d="M200.662 423.727l-5.524 25.361 31.491 7.035c2.152-7.918-14.421-12.755-14.421-12.755l4.209-16.09-15.755-3.551z" class="J"/><g opacity=".6" class="C"><path opacity=".6" d="M202.748 439.827c-.324.025-.627.168-.852.401s-.357.542-.37.867a1.27 1.27 0 0 0 .381.86c.233.227.544.356.869.361a1.4 1.4 0 0 0 .899-.431c.235-.25.371-.578.379-.922-.047-.337-.224-.642-.492-.85a1.31 1.31 0 0 0-.946-.268"/></g><path d="M195.138 449.06l.564-2.555 31.002 7.965c.181.532.154 1.112-.075 1.625l-31.491-7.035z" class="C"/><g fill="#263238"><path d="M212.725 443.321c-.047.15-.827.047-1.691.375s-1.419.883-1.55.789.3-.939 1.362-1.305 1.945.009 1.879.141zm2.997 2.066c0 .16-.723.272-1.39.808s-.94 1.183-1.128 1.146-.056-.939.789-1.588 1.757-.479 1.729-.366zm.986 4.405c-.141 0-.187-.807.395-1.568s1.381-.939 1.419-.78-.517.489-.987 1.118-.629 1.249-.827 1.23zm-3.438-10.247c-.094.131-.752-.235-1.635-.376s-1.616 0-1.672-.16.723-.554 1.766-.375 1.644.808 1.541.911zm.084-3.898c-.545.023-1.087-.1-1.568-.357a7.14 7.14 0 0 1-1.541-.883c-.28-.209-.547-.435-.799-.676-.152-.142-.284-.303-.394-.479a.69.69 0 0 1-.085-.437c.02-.151.09-.292.197-.399.101-.09.222-.155.352-.189a.86.86 0 0 1 .4-.008 1.76 1.76 0 0 1 .573.216c.332.15.647.336.94.554.476.359.894.79 1.24 1.277a2.66 2.66 0 0 1 .638 1.484c-.084 0-.328-.526-.939-1.249a6.55 6.55 0 0 0-1.231-1.108c-.266-.181-.546-.341-.836-.479-.319-.16-.601-.226-.723-.094s0 .065 0 .178a1.52 1.52 0 0 0 .291.348 8 8 0 0 0 .723.667c.435.354.9.668 1.391.939.474.197.932.429 1.371.695z"/><path d="M213.148 435.825c-.197-.516-.223-1.082-.075-1.615.103-.591.307-1.159.601-1.682a5.15 5.15 0 0 1 .611-.864 1.32 1.32 0 0 1 .515-.443 1.33 1.33 0 0 1 .668-.13c.141.032.269.104.369.208s.168.233.195.375c.032.205.032.414 0 .62a3.28 3.28 0 0 1-.235 1.061c-.216.57-.571 1.077-1.033 1.475-.799.676-1.485.723-1.485.667s.573-.263 1.212-.94c.375-.391.66-.859.836-1.371.103-.303.16-.619.169-.939 0-.348 0-.648-.169-.639s-.479.15-.667.394a6.13 6.13 0 0 0-.582.761c-.289.471-.511.98-.658 1.513-.272.929-.225 1.54-.272 1.549z"/></g><path d="M163.187 362.787c-4.547.695-8.794 1.879-11.509 5.636-3.607 4.921-7.957 11.835-7.694 16.212.404 6.575 4.556 7.955 7.619 9.167a7.96 7.96 0 0 0 4.265.432l52.695-7.195.508-9.139-25.441-5.382-9.996-11.666-10.447 1.935z" fill="#0c87a8"/><path d="M173.634 360.852l16.497-2.902s28.87-2.095 35.7 2.724 6.895 11.271 5.637 17.658-14.177 47.781-14.177 47.781c1.034 1.405 1.491 3.153 1.278 4.884a6.64 6.64 0 0 1-1.392 3.073c-.721.887-1.659 1.572-2.723 1.99l-16.695-3.823s-2.264-.488-.996-2.724 2.236-2.742 2.236-2.742l-.526-4.077s4.294-10.914 4.622-12.379 3.035-22.891 3.035-22.891l2.771-6.575s-9.15-2.94-17.004-4.921l-5.083-.583a14.87 14.87 0 0 1-9.297-4.778c-2.419-2.665-3.788-6.117-3.855-9.715h-.028z" fill="#0a96ad"/><path d="M220.137 380.483c-1.249 6.368-14.176 47.791-14.176 47.791 1.035 1.401 1.493 3.146 1.277 4.874a6.77 6.77 0 0 1-.338 1.175l-9.141-2.086s-2.255-.479-.996-2.714c.503-1.09 1.272-2.037 2.236-2.752l-.526-4.077s4.294-10.905 4.622-12.37 3.025-22.89 3.025-22.89l2.819-6.575s-9.151-2.959-17.005-4.931l-5.082-.583a14.85 14.85 0 0 1-13.153-14.314l5.149-.94s28.87-2.104 35.7 2.715 6.839 11.309 5.589 17.677z" fill="#0b8caa"/><g fill="#0c6877"><path d="M199.488 427.015c.896-.361 1.852-.546 2.818-.545a12.97 12.97 0 0 1 2.894.291c1.898.421 3.68 1.251 5.223 2.433l-2.734-.808-2.687-.695c-1.809-.419-3.657-.645-5.514-.676zm17.812-.911c-.704-1.165-1.23-2.33-1.832-3.457-.564-1.149-1.244-2.238-2.029-3.25a4.19 4.19 0 0 1 1.701 1.137 7.43 7.43 0 0 1 1.174 1.681 9.01 9.01 0 0 1 .723 1.879 7.11 7.11 0 0 1 .263 2.01zm-8.361-44.823c.467-.793 1.039-1.519 1.7-2.16a13.76 13.76 0 0 1 2.142-1.747 9.06 9.06 0 0 1 5.233-1.653l-2.452 1.099a22.93 22.93 0 0 0-2.264 1.343l-4.359 3.118zm.197-.704c.06-.679.215-1.346.461-1.982.232-.653.528-1.282.883-1.879.691-1.199 1.734-2.156 2.987-2.742-.46.498-.939.939-1.296 1.503l-1.09 1.606-1.945 3.494z"/><path d="M208.967 381.197c-.136-1.019-.136-2.052 0-3.072a15.67 15.67 0 0 1 .723-2.996 10.17 10.17 0 0 1 3.542-4.997l-1.437 2.63c-.423.892-.78 1.794-1.109 2.715l-1.719 5.72zm-20.114-6.162c-.081-.011-.154-.054-.203-.12a.31.31 0 0 1-.06-.227c.592-3.945-3.204-13.329-3.241-13.423a.31.31 0 0 1 .001-.237c.032-.075.092-.135.168-.167a.33.33 0 0 1 .234.008c.075.031.135.089.17.162.16.394 3.889 9.637 3.279 13.751-.014.079-.058.149-.123.197a.31.31 0 0 1-.225.056z"/><path d="M208.901 380.906a11.98 11.98 0 0 1-.789 3.437l-.751 1.607c-.184.558-.307 1.134-.367 1.718l-.253 1.738-.301 1.71-.846 3.39h-.094a9.05 9.05 0 0 1-.056-3.588 15.32 15.32 0 0 1 1.043-3.4c.246-.538.441-1.098.582-1.672.141-.563.16-1.174.282-1.756a9.4 9.4 0 0 1 1.466-3.222l.084.038z"/></g><path d="M233.816 375.787c.075.056-.695 1.061-1.202 2.508s-.583 2.705-.677 2.695c-.128-.957.005-1.93.385-2.818.279-.913.795-1.736 1.494-2.385z" fill="#263238"/><g fill="#0c6877"><path d="M164.22 367.681a3.29 3.29 0 0 1 1.7-.198c.569.055 1.121.221 1.626.489.244.15.469.329.695.488a6.53 6.53 0 0 0 .648.526c.423.348.94.611 1.362.94a9.4 9.4 0 0 1 2.415 2.291c.297.468.57.951.817 1.447a10.82 10.82 0 0 1 .536 1.578l-.085.047a11.18 11.18 0 0 1-1.09-1.231l-.996-1.24-.939-1.249-.977-1.258a4.23 4.23 0 0 0-1.184-1.062 7.49 7.49 0 0 0-1.494-.554 27.58 27.58 0 0 0-2.987-.939l-.047-.075zm2.809 7.486c-1.096-1.118-2.466-1.928-3.974-2.349-.743-.223-1.503-.383-2.273-.479l-1.184-.14c-.404 0-.808-.057-1.222-.132.395-.141.799-.235 1.203-.338a11 11 0 0 1 1.24-.132 8.27 8.27 0 0 1 2.518.31 6.71 6.71 0 0 1 2.255 1.203c.669.53 1.169 1.245 1.437 2.057z"/><path d="M167.114 375.336c3.371-.238 6.753-.26 10.127-.066l5.055.423c1.681.103 3.372.112 5.063.112 3.382 0 6.764.104 10.137.423 1.701.188 3.364.507 5.026.827a26.77 26.77 0 0 1 4.914 1.38l-.057.075c-1.606-.366-3.316-.507-4.979-.723s-3.344-.404-4.998-.554l-10.071-.939c-1.672-.16-3.363-.282-5.045-.32s-3.382.047-5.064.057a95.92 95.92 0 0 1-10.108-.63v-.065z"/></g><path d="M216.53 334.975l-11.837 21.932-30.468 1.381-.047 1.381 29.519-.94.939-.056 31.172-.676 6.05-11.009 7.77-11.722a1.14 1.14 0 0 0 .057-1.163 1.14 1.14 0 0 0-.416-.439c-.175-.106-.376-.162-.581-.164l-31.115.855c-.215-.007-.427.048-.612.158a1.13 1.13 0 0 0-.431.462z" fill="#e5e5e5"/><path d="M241.821 347.016s1.634 1.428 1.409 2.687-.122 2.179-1.297 2.292a1.79 1.79 0 0 1-1.559 1.878c.051.28.042.568-.028.844a1.98 1.98 0 0 1-.376.755 2 2 0 0 1-.657.531 1.98 1.98 0 0 1-.818.209s-.648 2.104-2.095 1.634c-.83-.262-1.63-.612-2.386-1.042l-.442-.742s-2.133-.752-1.635-1.954c.301-.733 1.381-.939 1.381-.939a2.05 2.05 0 0 1 .094-1.879c.489-.695 2.152-.169 2.152-.169-.046-.583.128-1.163.488-1.625.545-.676 3.213 1.071 3.213 1.071l1.391-1.747 1.165-1.804z" class="G"/><g class="O"><path d="M238.514 356.221c-.937-.366-1.831-.833-2.668-1.39a16.06 16.06 0 0 1-2.509-1.653c1.825.835 3.56 1.855 5.177 3.043zm1.879-2.338c-.866-.32-1.695-.732-2.471-1.231a12.82 12.82 0 0 1-2.321-1.503 12.23 12.23 0 0 1 2.471 1.231 12.44 12.44 0 0 1 2.321 1.503zm-2.725-4.227c.779.259 1.516.629 2.189 1.099.715.389 1.405.822 2.067 1.296a6.43 6.43 0 0 1-2.227-1.033c-.722-.382-1.402-.838-2.029-1.362z"/></g><path d="M249.571 334.327h-.141-.441l-1.682.066-6.191.197-20.424.526h-1.485c-.22-.018-.441.025-.639.122s-.367.247-.488.432l-1.325 2.536-2.517 4.8-4.275 8.134-2.912 5.457-.799 1.484-.216.376c-.047.094-.075.131-.085.131l.057-.14.188-.395.751-1.512 2.819-5.504 4.227-8.163 2.499-4.809 1.334-2.555a1.52 1.52 0 0 1 .59-.54c.241-.124.511-.18.782-.164h1.484l20.434-.432 6.191-.103h2.264v.056z" fill="#c1c1c1"/><path d="M227.888 345.72a1.32 1.32 0 0 0-.211.711c0 .253.072.5.208.713a1.32 1.32 0 0 0 .56.486c.23.105.485.142.735.106s.484-.143.674-.308.33-.382.401-.625.071-.499-.001-.741a1.32 1.32 0 0 0-.402-.624c-.299-.221-.672-.315-1.04-.263a1.41 1.41 0 0 0-.924.545z" class="C"/><path d="M2.367 461.214c-1.954-5.072-.141-10.538 6.576-12.032a17.72 17.72 0 0 1 18.188 7.477c3.852-9.393 12.852-16.062 22.275-16.607s18.733 5.195 23.045 14.089a13.64 13.64 0 0 1 7.34-2.624c2.65-.142 5.284.493 7.579 1.826 4.538 2.733 7.29 8.454 6.905 14.089a24.92 24.92 0 0 1 29.575 3.917c7.694 7.665 4.284 19.058 1.24 22.289-28.438-3.635-22.801-1.559-52.319-7.862-31.501-6.8-48.298-14.38-70.404-24.562z" class="I"/><path d="M-1-1v497h359V-1H-1zm300.675 460.353c-33.185 23.38-86.916 30.737-124.271 30.926-43.879.265-158.139-3.128-162.828-65.064C7.3 355.604 32.278 355.79 26.151 254.026 16.095 152.618-4.017 120.489 7.045 82.335S77.94 76.813 143.304 36.15 331.8 3.016 317.273 96.392s-33.588 119.481 0 196.29 15.587 143.29-17.598 166.671z" class="C"/><path d="M280.283 461.167c-1.269-4.377 5.148-4.64 5.148-4.64s-13.106-7.026-12.035-11.346 7.836-1.569 7.836-1.569-14.506-8.989-12.881-12.558 6.577-1.409 6.577-1.409-11.039-17.968-6.577-20.345c4.839-2.602 12.815 16.381 12.815 16.381s1.259-7.664 4.331-7.223 6.012 17.846 6.012 17.846 2.452-7.711 6.53-6.452 4.321 19.875 4.321 19.875 2.565-7.026 6.896-4.387-5.919 22.477-5.919 22.477-21.438-1.127-23.054-6.65z" fill="#de634b"/><g fill="#ba4d3e"><path d="M310.853 476.581c-.181.028-.366-.005-.526-.094-10.09-5.711-35.897-54.056-36.987-56.113-.1-.187-.121-.405-.059-.608s.201-.372.388-.472.405-.121.608-.059.372.201.472.388c.263.498 26.681 49.988 36.367 55.474.092.05.173.119.239.202a.79.79 0 0 1 .143.278.8.8 0 0 1 .025.312c-.012.104-.045.205-.097.297a.83.83 0 0 1-.243.261c-.099.068-.211.113-.33.134z"/><path d="M285.431 440.738c-.188.027-.38-.01-.545-.104l-10.494-6.321a.81.81 0 0 1-.361-.494c-.051-.205-.019-.423.089-.605a.79.79 0 0 1 .492-.368c.102-.026.209-.03.313-.014a.8.8 0 0 1 .294.11l9.348 5.635.563-11.271c.006-.105.033-.207.079-.302a.79.79 0 0 1 .188-.249c.079-.07.17-.124.269-.158s.205-.049.31-.042a.77.77 0 0 1 .301.075c.095.044.18.108.25.185a.8.8 0 0 1 .158.268c.034.099.049.203.042.308l-.629 12.605a.78.78 0 0 1-.423.667c-.078.034-.16.06-.244.075zm7.798 12.868c-.143.022-.289.006-.423-.047l-13.237-5.307c-.098-.04-.187-.098-.262-.172a.8.8 0 0 1-.175-.258c-.041-.097-.063-.201-.063-.306a.81.81 0 0 1 .23-.568c.073-.075.161-.134.258-.175s.201-.063.306-.064a.81.81 0 0 1 .307.059l12.363 4.959 3.119-13.309a.8.8 0 0 1 .348-.492c.175-.112.388-.152.592-.109.2.051.374.176.486.351a.81.81 0 0 1 .115.588l-3.335 14.211c-.024.112-.073.218-.142.309s-.16.165-.262.217c-.069.049-.145.087-.225.113zm6.35 10.069a.66.66 0 0 1-.3 0l-12.411-2.818a.79.79 0 0 1-.601-.939c.049-.202.174-.377.349-.489a.81.81 0 0 1 .591-.112l11.809 2.695 5.214-9.947c.047-.094.113-.177.194-.246a.8.8 0 0 1 .274-.151c.101-.031.207-.042.312-.032a.79.79 0 0 1 .3.091.82.82 0 0 1 .338 1.081l-5.524 10.425a.79.79 0 0 1-.545.442z"/></g><path d="M298.584 444.617c3.757-4.302 11.499 1.879 11.499 1.879s-6.765-17.847-.357-19.819 10.945 6.669 10.945 6.669-6.051-20.618.112-21.491 9.273 5.504 9.273 5.504 8.699-23.435 16.676-20.664c8.699 2.987-4.754 24.092-4.754 24.092s10.616-4.095 13.641-.742-14.421 18.401-14.421 18.401 12.054-2.94 15.267 1.963-18.79 18.109-18.79 18.109 11.377-2.338 13.228 3.757-33.662 9.778-33.662 9.778-23.392-21.969-18.657-27.436z" fill="#f4ae3d"/><g fill="#e59238"><path d="M316.274 480.911c-.172.008-.342-.038-.486-.133a.81.81 0 0 1-.313-.393c-4.847-13.996 23.224-68.417 24.427-70.925a.76.76 0 0 1 .18-.247.78.78 0 0 1 .263-.159c.097-.035.199-.05.302-.045s.204.031.297.075a.79.79 0 0 1 .402.444c.071.195.061.41-.026.599-.291.61-28.992 56.356-24.351 69.741.066.196.053.41-.036.596s-.249.329-.443.4a.76.76 0 0 1-.216.047z"/><path d="M329.821 435.6c-.123.011-.246-.012-.357-.066-.106-.043-.202-.109-.28-.194a.79.79 0 0 1-.171-.294l-4.585-14.794c-.061-.198-.04-.412.056-.595a.78.78 0 0 1 .461-.382c.198-.061.412-.041.596.056a.78.78 0 0 1 .381.461l4.312 13.892 14.976-7.712a.76.76 0 0 1 .292-.088.76.76 0 0 1 .303.031c.098.031.189.081.267.147a.79.79 0 0 1 .19.239c.095.186.113.402.05.601s-.203.364-.388.46l-15.802 8.153a.83.83 0 0 1-.301.085zm-6.36 16.672a.78.78 0 0 1-.439-.092c-.134-.074-.243-.186-.313-.321l-8.972-16.804a.77.77 0 0 1-.09-.292c-.011-.103-.001-.206.029-.305a.75.75 0 0 1 .144-.27c.065-.08.146-.146.237-.194a.79.79 0 0 1 .292-.091c.103-.011.206-.001.305.029a.78.78 0 0 1 .464.381l8.662 16.212 20.237-6.396c.098-.032.201-.045.304-.037a.8.8 0 0 1 .295.084c.091.047.173.112.239.191a.77.77 0 0 1 .148.269.8.8 0 0 1-.077.569c-.096.174-.252.306-.44.37l-20.847 6.575-.178.122zm-4.735 13.263a.81.81 0 0 1-.38-.065c-.12-.053-.225-.134-.306-.236l-10.945-14.211c-.064-.081-.112-.174-.14-.273s-.036-.204-.023-.307.047-.201.099-.29a.79.79 0 0 1 1.304-.088l10.701 13.91 18.489-1.812c.206-.019.412.045.572.177a.79.79 0 0 1 .283.527c.01.103 0 .206-.03.305a.78.78 0 0 1-.382.463.79.79 0 0 1-.293.087l-18.912 1.878-.037-.065z"/></g><path d="M336.426 480.864c5.138-2.17 8.624-8.454 5.185-12.587a7.67 7.67 0 0 0-2.922-2.219c-1.139-.493-2.381-.702-3.618-.609a7.67 7.67 0 0 0-3.488 1.139 7.69 7.69 0 0 0-2.561 2.629c1.231-6.735-2.132-14.418-7.459-17.076s-11.95.056-14.712 6.02c-4.979-5.776-14.205-4.057-17.239 3.194-4.641-5.889-10.523-10.839-17.089-11.797a14.61 14.61 0 0 0-15.972 10.529c-5.636-2.865-12.56-1.137-16.628 4.17-2.527-9.392-16.178-16.371-25.084-14.089-8.145 2.114-11.744 8.613-11.405 14.869-1.893-1.275-4.181-1.827-6.447-1.557a9.52 9.52 0 0 0-5.898 3.032c-3.279 3.494-4.434 9.627-2.818 14.681-15.107-4.547-15.737 7.833-10.851 7.842 17.192 0 53.484 1.353 92.35-1.315 38.387-2.179 58.266-4.508 66.656-6.856z" fill="#00707a"/></g><defs><linearGradient id="A" x1="40.039" y1="285.677" x2="32.229" y2="206.41" xlink:href="#L"><stop stop-color="#db6034"/><stop offset="1" stop-color="#fb8830"/></linearGradient><linearGradient id="B" x1="26197.3" y1="7417.43" x2="26116.3" y2="5385.1" xlink:href="#L"><stop stop-color="#db6034"/><stop offset="1" stop-color="#fb8830"/></linearGradient><linearGradient id="C" x1="24493" y1="9620.79" x2="24339.6" y2="6959.86" xlink:href="#L"><stop stop-color="#db6034"/><stop offset="1" stop-color="#fb8830"/></linearGradient><linearGradient id="D" x1="10395.6" y1="8173.58" x2="10130.2" y2="5940.2" xlink:href="#L"><stop stop-color="#db6034"/><stop offset="1" stop-color="#fb8830"/></linearGradient><linearGradient id="E" x1="46728.6" y1="13831.4" x2="46546.7" y2="9936.21" xlink:href="#L"><stop stop-color="#db6034"/><stop offset="1" stop-color="#fb8830"/></linearGradient><linearGradient id="F" x1="16805.6" y1="5929.54" x2="16712.9" y2="4296.24" xlink:href="#L"><stop stop-color="#db6034"/><stop offset="1" stop-color="#fb8830"/></linearGradient><linearGradient id="G" x1="349.89" y1="320.897" x2="348.328" y2="299.427" xlink:href="#L"><stop stop-color="#db6034"/><stop offset="1" stop-color="#fb8830"/></linearGradient><linearGradient id="H" x1="34244.5" y1="7256.13" x2="34173.3" y2="5225.78" xlink:href="#L"><stop stop-color="#db6034"/><stop offset="1" stop-color="#fb8830"/></linearGradient><linearGradient id="I" x1="41737" y1="11135.8" x2="41591.6" y2="7974.84" xlink:href="#L"><stop stop-color="#db6034"/><stop offset="1" stop-color="#fb8830"/></linearGradient><linearGradient id="J" x1="43619.9" y1="7101.15" x2="43562" y2="5094.19" xlink:href="#L"><stop stop-color="#db6034"/><stop offset="1" stop-color="#fb8830"/></linearGradient><clipPath id="K"><path d="M0 0h357v495H0z" class="C"/></clipPath><linearGradient id="L" gradientUnits="userSpaceOnUse"/></defs></svg>