<svg id="Layer_1" data-name="Layer 1" xmlns="http://www.w3.org/2000/svg" xmlns:xlink="http://www.w3.org/1999/xlink" viewBox="0 0 656 247"><defs><clipPath id="clip-path"><rect y="0.05" width="655.11" height="249" style="fill:none"/></clipPath></defs><g style="clip-path:url(#clip-path)"><rect y="0.05" width="655.11" height="249" style="fill:#fbfbfb"/><path d="M637.35,172.93C605.72,150.5,505.42,54.63,458.1,47c-74.48-12-154,104.51-200.08,97.59-22.13-3.34-92-42.7-131.86-32.06-51.6,13.8-71.32,74.87-71.32,74.87H558.08Z" style="fill:#ddedea"/><path d="M53,148.76c-.17-.66-.86-.66-1,0L50.86,153l.69.25c.17.08.08.24-.09.24h-.77l-2.76,10.27,1.64.57c.17.08.17.25-.09.25H47.76L46,171.26H59.21L56,159.52H55c-.17,0-.17-.17-.08-.25l.86-.49Z" style="fill:#0e8e5d"/><path d="M69.83,143.42c-.43-1.48-1.81-1.4-2.15,0l-2.41,8.87,1.55.57c.34.08.26.49-.18.49H65L59.15,175l3.36,1.31c.34.17.34.5-.17.5H58.63l-3.79,14H82.67L76,166.08H73.88c-.43,0-.43-.33-.17-.49l1.89-1Z" style="fill:#23b781"/><path d="M33.47,149c.26-.91,1.2-.91,1.38,0l1.55,5.66-.95.33c-.17.08-.17.33.09.33h1l3.79,13.88-2.15.82c-.26.16-.18.33.08.33h2.33l2.5,9H25.2l4.3-15.85h1.38c.26,0,.26-.16.09-.33l-1.21-.65Z" style="fill:#0e8e5d"/><path d="M19.39,148.88a1,1,0,0,1,2.06,0l2.24,7.56-1.37.49c-.26.08-.18.41.17.41H24l5.43,18.48-3.19,1.07c-.35.16-.26.41.17.41H29.9l3.62,12.07H7.41l6.29-21.11h2c.35,0,.43-.24.17-.41L14.13,167Z" style="fill:#3ecc8e"/><path d="M53.73,190.06a148.25,148.25,0,0,0,26.52-1.33A105.43,105.43,0,0,0,92.36,186a56.42,56.42,0,0,0,10.32-4.53c3.53-1.86,8.11-2.65,11.88-4.14a78.6,78.6,0,0,0,21.7-12.07c1.84-1.49,4.21-3.48,4.66-5.89.35-2.06-2.17-4-4.09-4.46-2.56-.64-5.8.83-6.14,3.39a1.74,1.74,0,0,0-2.41-.25,1.71,1.71,0,0,0-.64.86,1.27,1.27,0,0,0-1.64.62,1,1,0,0,0-.08.51,1.37,1.37,0,0,0-1.73-.87.83.83,0,0,0-.55.35,2.38,2.38,0,0,0-.42-3.43,2.77,2.77,0,0,0-3-.15,4.58,4.58,0,0,0-6.09-1.87,4.38,4.38,0,0,0-2.21,2.39,1.67,1.67,0,0,0-.5-2.42,1.88,1.88,0,0,0-2.54.52l-.14.2a2.43,2.43,0,0,0-2.31-2.77,2.72,2.72,0,0,0-2.85,1.74c-.54-2.16-1.2-4.46-3.08-5.72s-5.24-.43-5.38,1.76a3.09,3.09,0,0,0-2.59-1.3,1.57,1.57,0,0,0-1.37,2.15,2.65,2.65,0,0,0-3.47.68,2.2,2.2,0,0,0,.35,3,2,2,0,0,0-2.5,1.26,2,2,0,0,0,.62,2.06,1.28,1.28,0,0,0-2.38.91,2.9,2.9,0,0,0-3.68-1.61,2.76,2.76,0,0,0-1.78,3.39,1.73,1.73,0,0,0-2.13-1.22,1.71,1.71,0,0,0-1.39,1.58,2.45,2.45,0,0,0-2.44-2.5,2.55,2.55,0,0,0-2.65,2.37,1.75,1.75,0,0,0,0,.66,1.73,1.73,0,0,0-2.39.33,3,3,0,0,0-.33.64,4.53,4.53,0,0,0-8.9,1.62c-1.3-.94-3.5.44-3.15,2A2.71,2.71,0,0,0,51.59,164a2.64,2.64,0,0,0-1.89,3.24,1.43,1.43,0,0,0,.29.62,1.75,1.75,0,0,0-2.1,1c-.06.18,0,.26-.1.43-.75-1.28-3.38-.33-3,1.11a2.49,2.49,0,0,0-3-1.81,2.63,2.63,0,0,0-2,2.27,3.64,3.64,0,0,0-4.48-2.64,4.14,4.14,0,0,0-2.35,1.57c.35-.48-.35-1-1-1.16A6.57,6.57,0,0,0,25,172.52a8.35,8.35,0,0,0,.73,7.79,15.81,15.81,0,0,0,6.17,5.35C38.45,189.19,46.26,189.85,53.73,190.06Z" style="fill:#00707a"/><path d="M47.1,175c-32.51,3.38-44.24,9.87-47,24.69C-4.57,224.4,208.5,220.17,248,220.88c31.58.56,248.48-13.41,301.9-38.81-18.78,0-164.19-7-217.14-7-66.18,0-131.21-7.06-177.07-3.53C121.23,174.14,87.74,170.78,47.1,175Z" style="fill:#3eba82"/><path d="M468.36,50.45C454.87,50.06,445,53.68,433.85,61c-17.93,12-4.67,31.74,14.86,31.36s27.76-2.87,39.37,4.59-11.33,14.83-23.21,16.86-14.12,24.39,42.76,25c49.64.46,8.88,37.34,8.88,37.34H639.57C608.28,150.31,506.15,59.34,468.36,50.45Z" style="fill:#cfe6e0;opacity:0.8999999761581421;isolation:isolate"/><path d="M644.81,189.94a16.66,16.66,0,0,0-6.74-15.7,14.93,14.93,0,0,0-16.36.17,11.24,11.24,0,0,0-15-3.89,12.81,12.81,0,0,0-3.51,3.11c-8.71-12.12-28.17-12.43-38.16-.54a11.55,11.55,0,0,0-6.58-10.6,10.24,10.24,0,0,0-11.62,3.22c-.52-10.12-8.67-18.8-18-19.21s-18.68,7.66-20.41,17.55a19.38,19.38,0,0,0-25.81,1.51,12.42,12.42,0,0,0-15.11-8.23c-.33,0-.52.14-.84.19-6.35,2.27-10.94,8.63-13.27,15.67s-2.42,14.3-2.5,21.57c65.89-.25,124.87,7.26,189.85,18.2C639,206.05,642.66,206.25,644.81,189.94Z" style="fill:#00707a"/><path d="M371.21,204.64c-.52-9,9.42-16.13,17-12.38a9.11,9.11,0,0,1,5.06-9.09,8.08,8.08,0,0,1,9.61,3.23c-.26-7.25,5.22-17,11.77-18.18s13.52,6.35,16.13,13.15c4.89-5.08,10.65-10,17.5-10.42s14.54,6.52,13,13.62a12.25,12.25,0,0,1,14.43-.71A15.69,15.69,0,0,1,482.47,198C445.39,197.57,408.42,200.48,371.21,204.64Z" style="fill:#179668"/><path d="M623.6,226.46c28.16-6.25,27.08-31.92,3.25-36.09S448.16,205,245.64,205,10.64,180.1,2,194.54c-10.83,18,23.83,48.58,82.31,31.92s281,15.27,355.22,0S598.24,232.09,623.6,226.46Z" style="fill:#3ecc8e"/><path d="M251.26,68l21.83-20.35c1.22-1.16,3-.12,3.16,1.73l.12,18.5Z" style="fill:#4d6007"/><path d="M312.16,197.89c0,2.55-1.7,4.63-3.88,4.63l-32.27.23c-2.19,0-4-2.08-4-4.63l-.24-32c0-2.54,1.7-4.62,3.88-4.62l32.27-.24c2.19,0,4,2.09,4,4.63Z" style="fill:#ff9d39"/><path d="M325.26,189c.12,14.34,7.89,25.9,17.35,25.79s17.11-11.68,17-26-7.89-25.91-17.35-25.79S325.14,174.65,325.26,189Z" style="fill:#342b2f"/><path d="M342.49,214.78c9.46,0,17.11-11.68,17-26s-7.89-25.91-17.35-25.79l13-.12c9.46,0,17.23,11.57,17.35,25.79s-7.52,26-17,26Z" style="fill:#2d2a2f"/><path d="M224.81,198.47c0,2.54-1.7,4.63-3.88,4.63l-32.28.23c-2.18,0-4-2.08-4-4.63l-.24-32c0-2.55,1.69-4.63,3.88-4.63l32.27-.23c2.18,0,4,2.08,4,4.63Z" style="fill:#4d6007"/><path d="M386.77,150.13l-196.54,1.16,3.15,40.82,198.25-1.27Z" style="fill:#5b5486"/><path d="M277,154,274.43,47.1l-94.88.69V69.18l-12.25-.57a3.49,3.49,0,0,0-3.15,3.7v.46a7,7,0,0,0,2.18,5.09,5.81,5.81,0,0,1,1.7,5l-5.22,39.09c-.12.92,3,1.73,2.91,5.43,0,0,.61,57.94,1.21,54.58,2.92-13.76,49.75-24.86,63.34-25,15.65-.12,28,13.53,30,30.29.25,2.55,2.07,4.51,4.25,4.51L391,191.07c2.18,0,3.88-2.08,3.88-4.63l-.24-33.07Z" style="fill:#ff9d39"/><path d="M411.89,148.86c0,2.54-1.7,4.63-3.88,4.63l-115.38.69a4.76,4.76,0,0,1-4.86-4.63l-.6-94c0-2.54,1.69-4.63,3.88-4.63l116.23-.69c2.18,0,4,2.08,4,4.63Z" style="fill:#a0642f"/><path d="M202.85,189.68c.12,14.34,7.88,25.91,17.35,25.79s17.1-11.68,17-26-7.88-25.9-17.35-25.79S202.73,175.46,202.85,189.68Z" style="fill:#342b2f"/><path d="M220.2,215.59c9.46,0,17.1-11.68,17-26s-7.88-25.91-17.35-25.79l13-.12c9.46,0,17.22,11.57,17.34,25.79s-7.52,26-17,26Z" style="fill:#2d2a2f"/><path d="M292,154.53,95.48,155.68l3,37,198.36-1.16Z" style="fill:#e28734"/><path d="M412.49,148.86c0,2.54-1.69,4.63-3.88,4.63l-120.23.81-.85-131.14c0-2.54,1.7-4.63,3.88-4.63l116.23-.69c2.19,0,4,2.08,4,4.63Z" style="fill:#544549"/><path d="M182.22,154.53l-.6-86.62-75,1a3.32,3.32,0,0,0-3,3.7c0,6.25,4.48,5.32,3.88,10.53l-5.34,40c-.12.92,3.27.81,3.15,4.39l.25,65.92a68.52,68.52,0,0,1,1-11.22c2.91-13.76,15.77-24.63,29.36-24.75,15.65-.11,28,13.53,30,30.3.25,2.55,2.07,4.51,4.25,4.51l49.14-.35c2.18,0,3.88-2.08,4.12-4.62,1.82-17.23,14.32-30.53,29.6-30.64s28,13.18,30,30.29c.24,2.55,2.06,4.51,4.25,4.51l9.46-.11c2.19,0,3.88-2.08,3.88-4.63l-.24-33.07Z" style="fill:#ffbc4f"/><path d="M161.11,139.15h-6.55c-4.25,0-4.37-7.52,0-7.52h6.55C165.36,131.63,165.48,139.15,161.11,139.15Z" style="fill:#403336"/><path d="M300.15,167.36h6.19c5.21,0,5.33,10.06,0,10.18h-6.19Z" style="fill:#dd3342"/><path d="M306.46,177.42c5.34,0,5.21-10.17,0-10.17l13.83-.12c2.18,0,4,2.08,4,4.63v.92c0,2.55-1.7,4.63-3.88,4.63Z" style="fill:#ff535c"/><path d="M380.47,166.79h6.18c5.22,0,5.34,10.06,0,10.17h-6.18Z" style="fill:#dd3342"/><path d="M386.77,177c5.34,0,5.22-10.17-.12-10.17l14-.12c5.21,0,5.33,10.06.12,10.18Z" style="fill:#ff535c"/><path d="M156.5,68.61l21.84-20.47c1.21-1.16,3-.12,3.15,1.73l.13,18.51Z" style="fill:#ffbc4f"/><path d="M92.93,191.65l9.34,7.17c1.45,1,3.27-.12,3.27-2.08l-.48-69.16c0-2.54.36-4.62-4-4.62H96.32c-2.18,0-3.88,2.08-3.88,4.62Z" style="fill:#eae8e7"/><path d="M172.88,124.35a.8.8,0,0,1,.85.8l.36,49a.85.85,0,0,1-1.69,0l-.37-49A1,1,0,0,1,172.88,124.35Z" style="fill:#ff9d39"/><path d="M103.73,124.35l.36,57.81h-3.28l-.36-59.2h1.82A1.52,1.52,0,0,1,103.73,124.35Z" style="fill:#d8d5d2"/><path d="M186.1,126.54l.49,65.57h-7.52l-.49-65.57a3.79,3.79,0,0,1,7.52,0Z" style="fill:#f79237"/><path d="M130.9,216.16c9.47-.11,17.11-11.68,17-26s-7.89-25.91-17.35-25.79l13-.12c9.46,0,17.23,11.56,17.35,25.79s-7.52,26-17,26Z" style="fill:#2f3435"/><path d="M119.13,190.26c.12,9.71,5.34,17.58,11.77,17.46s11.53-8,11.53-17.69-5.34-17.58-11.77-17.46S119,180.55,119.13,190.26Z" style="fill:#4f4c43"/><path d="M130.66,207.72c-6.43,0-11.65-7.86-11.77-17.46s5.1-17.58,11.53-17.69h8c-6.43,0-11.52,8-11.52,17.69s5.34,17.58,11.77,17.46Z" style="fill:#73716b"/><path d="M125.32,190.26c0,4.51,2.43,8.21,5.46,8.09s5.34-3.7,5.34-8.21-2.43-8.21-5.46-8.09S125.2,185.75,125.32,190.26Z" style="fill:#a4b1b2"/><path d="M130.66,182.05c3,0,5.46,3.58,5.46,8.09s-2.43,8.21-5.34,8.21h2.43c3,0,5.33-3.7,5.33-8.21s-2.42-8.21-5.45-8.09Z" style="fill:#73716b"/><path d="M113.55,190.26c.13,14.34,7.89,25.9,17.35,25.79s17.11-11.68,17-26-7.89-25.9-17.35-25.79S113.43,175.92,113.55,190.26Zm5.58,0c0-9.71,5.1-17.58,11.53-17.69s11.65,7.75,11.77,17.46-5.1,17.58-11.53,17.69S119.13,200,119.13,190.26Z" style="fill:#2d2a2f"/><path d="M246.4,215.35c9.47,0,17.11-11.67,17-26S255.5,163.43,246,163.55l13-.12c9.46,0,17.23,11.57,17.35,25.79s-7.52,26-17,26Z" style="fill:#2f3435"/><path d="M234.63,189.57c.13,9.71,5.34,17.57,11.77,17.46s11.53-8,11.53-17.69-5.34-17.58-11.77-17.47S234.63,179.85,234.63,189.57Z" style="fill:#4f4c43"/><path d="M246.16,207c-6.43,0-11.65-7.75-11.77-17.46s5.1-17.58,11.53-17.7h8c-6.44,0-11.53,8-11.53,17.7s5.34,17.57,11.77,17.46Z" style="fill:#73716b"/><path d="M240.82,189.45c0,4.51,2.43,8.21,5.46,8.1s5.34-3.7,5.34-8.21-2.43-8.22-5.46-8.1S240.82,184.94,240.82,189.45Z" style="fill:#a4b1b2"/><path d="M246.16,181.24c3,0,5.46,3.58,5.46,8.1s-2.43,8.21-5.34,8.21h2.43c3,0,5.34-3.7,5.34-8.21s-2.43-8.22-5.46-8.1Z" style="fill:#73716b"/><path d="M229.05,189.57c.12,14.34,7.89,25.9,17.35,25.78s17.11-11.67,17-26S255.5,163.43,246,163.55,229.05,175.23,229.05,189.57Zm5.58,0c0-9.72,5.1-17.58,11.53-17.7s11.65,7.75,11.77,17.47-5.1,17.57-11.53,17.69S234.76,199.28,234.63,189.57Z" style="fill:#2d2a2f"/><path d="M87.47,186.79c0-2.54,1.7-4.63,3.88-4.63l15.41-.11c2.18,0,3.88,2.08,3.88,4.63v7.86c0,2.54-1.7,4.62-3.88,4.62l-15.41.12c-2.18,0-3.88-2.08-3.88-4.63Z" style="fill:#342b2f"/><path d="M81.52,186.91c0-2.55,1.7-4.63,3.89-4.63l15.4-.11c2.19,0,3.89,2.08,3.89,4.62v7.86c0,2.55-1.7,4.63-3.89,4.63l-15.4.12c-2.19,0-3.89-2.09-3.89-4.63Z" style="fill:#403336"/><path d="M383.62,149c0,2.54-1.33,4.62-3,4.62l-92.21.58L287.53,23c0-2.54,1.34-4.62,3-4.62l89.3-.58c1.7,0,3,2.08,3,4.63Z" style="fill:#403336"/><path d="M345.77,113.24a4,4,0,0,0,.6-3.12l-.48.12a4.05,4.05,0,0,1-.49,2.66Z" style="fill:#a7a765"/><path d="M351,118.1c-.48,3-2.42,5.09-6.55,4.74a5.39,5.39,0,0,1-5.21-5.66v-.35a4.64,4.64,0,0,1,6.55-3.82,4.42,4.42,0,0,1,5.21,3.36A3.88,3.88,0,0,1,351,118.1Z" style="fill:#c6c67d"/><path d="M347.71,113a3.88,3.88,0,0,1,1.45,3.93c-.48,2.66-2.18,4.63-5.82,4.28a4.75,4.75,0,0,1-3.76-2.08,5.27,5.27,0,0,0,4.85,3.7c4,.46,5.95-1.73,6.55-4.74A4.39,4.39,0,0,0,347.71,113Z" style="fill:#b7b771"/><path d="M321.5,112.9s-.12-2.55,1.7-3.47l.49.46a4.91,4.91,0,0,0-1.58,3.12Z" style="fill:#a7a765"/><path d="M328.3,119c-.73,3.7-3,6.36-8.13,5.78s-6.68-4.63-6.43-7.52c.24-3.82,4.61-6.47,8-4.74C326.48,112,329,115.44,328.3,119Z" style="fill:#e86b7b"/><path d="M324.29,112.67a4.58,4.58,0,0,1,1.82,4.85c-.6,3.24-2.79,5.67-7.28,5.21a6.25,6.25,0,0,1-4.73-2.55,6.44,6.44,0,0,0,6.07,4.63c5,.46,7.4-2.2,8.13-5.78A5.19,5.19,0,0,0,324.29,112.67Z" style="fill:#c05666"/><path d="M353.41,115.79a4.22,4.22,0,0,1,1.58-3.24l.36.35a4.25,4.25,0,0,0-1.46,2.89Z" style="fill:#a7a765"/><path d="M359.72,121.46c-.61,3.35-2.79,5.78-7.4,5.31a6.19,6.19,0,0,1-5.95-6.47v-.46c.25-3.59,4.25-6,7.4-4.4C358,115,360.33,118.22,359.72,121.46Z" style="fill:#e86b7b"/><path d="M356.08,115.56a4.34,4.34,0,0,1,1.7,4.51c-.61,3-2.55,5.2-6.67,4.85a5.75,5.75,0,0,1-4.37-2.42,6,6,0,0,0,5.58,4.27c4.61.47,6.79-2,7.4-5.31A4.81,4.81,0,0,0,356.08,115.56Z" style="fill:#c05666"/><path d="M340.67,108.85a5.34,5.34,0,0,1-4.61,5.9h-.36S334,109.78,340.67,108.85Z" style="fill:#b7b771"/><path d="M335.7,114.75a4.71,4.71,0,0,0-.49-3.82l-.48.23a4.65,4.65,0,0,1,.36,3.36Z" style="fill:#a7a765"/><path d="M341.76,120.76c-.72,3.7-3.15,6.36-8.13,5.9a6.77,6.77,0,0,1-6.43-7.52c.37-3.82,4.61-6.59,8.13-4.74C339.94,113.71,342.49,117.18,341.76,120.76Z" style="fill:#c6c67d"/><path d="M337.76,114.4a4.69,4.69,0,0,1,1.82,5c-.61,3.24-2.79,5.67-7.28,5.21a6,6,0,0,1-4.73-2.66,6.41,6.41,0,0,0,6.07,4.62c5,.46,7.4-2.19,8.12-5.9A5.16,5.16,0,0,0,337.76,114.4Z" style="fill:#b7b771"/><path d="M313.37,121.57h47.44a1.19,1.19,0,0,1,1.09,1.27v31.23H312.16V122.84A1.21,1.21,0,0,1,313.37,121.57Z" style="fill:#7cbbc3"/><path d="M222.26,198.59c0,2.54-1.7,4.62-3.88,4.62l-32.28.23c-2.18,0-4-2.08-4-4.62l-.24-32c0-2.55,1.7-4.63,3.88-4.63l32.27-.23c2.19,0,4,2.08,4,4.62Z" style="fill:#ffbc4f"/><path d="M317,149.44c0,2.54-1.69,4.63-3.88,4.63l-115.38.69a4.74,4.74,0,0,1-4.85-4.51l-.85-126.51c0-2.55,1.7-4.63,3.88-4.63l116.23-.69c2.18,0,4,2.08,4,4.62Z" style="fill:#d8d5d2"/><path d="M211.7,198.59l-.24-32c0-2.54-1.82-4.62-4-4.62l12.37-.12c2.19,0,4,2.08,4,4.63l.24,32c0,2.54-1.7,4.63-3.88,4.63l-12.38.11C210,203.21,211.7,201.13,211.7,198.59Z" style="fill:#ff9d39"/><path d="M321.62,186.56c0-2.54-1.82-4.63-3.88-4.63l-22.2.12c-2.18,0-3.88,2.08-3.88,4.63v7.86c0,2.54,1.82,4.62,3.88,4.62l22.2-.11c2.18,0,3.88-2.08,3.88-4.63Z" style="fill:#b3d4db"/><path d="M409.46,186c0-2.54-1.7-4.63-3.88-4.63l-95.36.58c-2.18,0-3.88,2.08-3.88,4.63v7.86c0,2.55,1.82,4.63,3.88,4.63l95.36-.58c2.18,0,3.88-2.08,3.88-4.62Z" style="fill:#d3ebef"/><path d="M343.22,185.17a.93.93,0,0,1,1-.92c27.78-.24,28.39-.81,28.39.69l.12,10.29a1,1,0,0,1-1,.93c-27.78.23-28.39.81-28.39-.81Z" style="fill:#ff9d39"/><path d="M370.15,185.06l.12,10.29a.93.93,0,0,1-1,.92h2.43a1,1,0,0,0,1-.92c-.12-12.61,1-11.22-3.4-11.22A.84.84,0,0,1,370.15,185.06Z" style="fill:#d88336"/><path d="M120,120.76h4.37c1.58-10.75,18.69-10.87,20.5-.12h4.37C146.55,104.92,122.29,105,120,120.76Z" style="fill:#2d2a2f"/><path d="M173.12,115.79,173,99.37l-9.95.11a4.76,4.76,0,0,0-4.49,4.63l.13,16.3,10.91-.11A4.32,4.32,0,0,0,173.12,115.79Z" style="fill:#544549"/><path d="M145.46,104.22l.12,16.31,13.1-.12L158.56,104a4.75,4.75,0,0,1,4.49-4.62l-12.74.11A4.78,4.78,0,0,0,145.46,104.22Z" style="fill:#403336"/><path d="M172.88,87c0-2.54-1.82-4.62-4-4.62l-47,.11c-2.18,0-4,2.08-4.24,4.63l-1.58,29c-.12,2.42,1.58,4.62,3.64,4.5L169,120.3c2.18,0,3.88-2.08,3.88-4.63Z" style="fill:#5ae5ba;opacity:0.44999998807907104;isolation:isolate"/><path d="M118.89,116.25l1.58-29a4.63,4.63,0,0,1,4.12-4.62H121.8c-2.18,0-4,2-4.24,4.62l-1.58,29c-.12,2.54,1.58,4.63,3.64,4.63h2.91A4.26,4.26,0,0,1,118.89,116.25Z" style="fill:#ff9d39"/><path d="M291.17,149.55c0,2.55-1.33,4.63-3,4.63l-91.36.58c-2.06,0-3.88-2.08-3.88-4.63l-.85-126.51c0-2.54,1.33-4.62,3-4.62l92.09-.58c1.7,0,3.15,2.08,3.15,4.62Z" style="fill:#eae5e1"/><path d="M192.05,168.52h9a5,5,0,0,1,5.09,4.86V193a5,5,0,0,1-5.09,4.85h-9A5,5,0,0,1,187,193V173.38A5.1,5.1,0,0,1,192.05,168.52Z" style="fill:none;stroke:#ff9d39;stroke-miterlimit:10;stroke-width:1.4821399450302124px"/><path d="M447.56,150.6h-2.79V173h2.79Z" style="fill:#5b5a75"/><path d="M446,166.32h.61a2.51,2.51,0,0,1,2.55,2.43v6h-5.59v-6A2.27,2.27,0,0,1,446,166.32Z" style="fill:#46435d"/><path d="M447.19,166.32h-1.45a1.83,1.83,0,0,1,1.82,1.74v6.59H449v-6.59A1.83,1.83,0,0,0,447.19,166.32Z" style="fill:#403d54"/><path d="M451.92,178.46c-.12,3-1.81,5.44-5.82,5.56a5.58,5.58,0,0,1-5.82-5.56,5.83,5.83,0,0,1,11.64,0Z" style="fill:#e4dbe2"/><path d="M448.89,178.46a2.51,2.51,0,0,1-2.42,2.66h-.37a2.66,2.66,0,1,1,0-5.32A2.76,2.76,0,0,1,448.89,178.46Z" style="fill:#84829b"/><path d="M447.56,150.6h-2.79v4.74h2.79Z" style="fill:#403d54"/><path d="M501.42,150.6h-2.78V173h2.78Z" style="fill:#5b5a75"/><path d="M499.85,166.32h.6a2.5,2.5,0,0,1,2.55,2.43v6h-5.58v-6A2.27,2.27,0,0,1,499.85,166.32Z" style="fill:#46435d"/><path d="M501.06,166.32h-1.45a1.82,1.82,0,0,1,1.81,1.74v6.59h1.46v-6.59A1.75,1.75,0,0,0,501.06,166.32Z" style="fill:#403d54"/><path d="M505.79,178.46c-.12,3-1.82,5.44-5.82,5.56a5.59,5.59,0,0,1-5.82-5.56,5.83,5.83,0,0,1,11.64,0Z" style="fill:#bdaeb7"/><path d="M502.88,178.46a2.51,2.51,0,0,1-2.43,2.66h-.36a2.66,2.66,0,1,1,0-5.32A2.84,2.84,0,0,1,502.88,178.46Z" style="fill:#84829b"/><path d="M501.42,150.6h-2.78v4.74h2.78Z" style="fill:#403d54"/><path d="M512.1,147.71H434.7v4h77.4Z" style="fill:#5b5a75"/><path d="M450,149.79a.79.79,0,0,1-.72.81h-.12a1,1,0,0,1-1-.81A.81.81,0,0,1,449,149,.91.91,0,0,1,450,149.79Z" style="fill:#403d54"/><path d="M474.25,149.79a.81.81,0,0,1-.85.81h-.12a.81.81,0,1,1,0-1.62A.92.92,0,0,1,474.25,149.79Z" style="fill:#403d54"/><path d="M498.51,149.79a.81.81,0,0,1-.85.81h-.12a.81.81,0,1,1,0-1.62A.91.91,0,0,1,498.51,149.79Z" style="fill:#403d54"/><path d="M512.1,150.48H434.7v1.39h77.4Z" style="fill:#828199"/><path d="M440.52,150.48H434.7v1.39h5.82Z" style="fill:#9f9fb8"/><path d="M512.1,150.36H445.25l1.21,1.39H512.1Z" style="fill:#5b5a75"/><path d="M446.34,117.41h58.12a1.31,1.31,0,0,1,1.33,1.27v31.68H445V118.68A1.32,1.32,0,0,1,446.34,117.41Z" style="fill:#5d9ea9"/><path d="M512.47,108.85a4.09,4.09,0,0,0,.6-3.12l-.48.11a4.94,4.94,0,0,1-.49,2.66Z" style="fill:#a7a765"/><path d="M517.68,113.82c-.48,3-2.54,5.21-6.67,4.74a5.62,5.62,0,0,1-5.34-5.78v-.35c.24-3.12,3.76-5.32,6.55-3.81a4.55,4.55,0,0,1,5.34,3.35A3.19,3.19,0,0,1,517.68,113.82Z" style="fill:#c6c67d"/><path d="M514.41,108.62a4.29,4.29,0,0,1,1.57,4c-.48,2.65-2.3,4.62-5.94,4.27a5.32,5.32,0,0,1-3.88-2.08,5.38,5.38,0,0,0,5,3.82c4.13.46,6.07-1.74,6.67-4.74A4.59,4.59,0,0,0,514.41,108.62Z" style="fill:#b7b771"/><path d="M491.48,107.35s-.12-2.55,1.7-3.59l.48.46a4.64,4.64,0,0,0-1.58,3.13Z" style="fill:#a7a765"/><path d="M498.39,113.59c-.72,3.7-3.15,6.48-8.25,5.9a6.77,6.77,0,0,1-6.43-7.63c.37-3.94,4.61-6.6,8.13-4.75C496.57,106.42,499.12,110,498.39,113.59Z" style="fill:#e86b7b"/><path d="M494.27,107.11a5,5,0,0,1,1.94,5c-.61,3.35-2.79,5.78-7.4,5.32a5.84,5.84,0,0,1-4.73-2.66,6.54,6.54,0,0,0,6.18,4.62c5.1.58,7.53-2.19,8.25-5.9A5.44,5.44,0,0,0,494.27,107.11Z" style="fill:#c05666"/><path d="M455.32,110.47s-.73-2.43.85-3.93l.61.34a4.85,4.85,0,0,0-.85,3.36Z" style="fill:#a7a765"/><path d="M462,116.6c-.72,3.7-3.15,6.47-8.25,6a6.92,6.92,0,0,1-6.55-7.75c.37-3.93,4.73-6.71,8.25-4.86C460.05,109.43,462.6,113,462,116.6Z" style="fill:#c6c67d"/><path d="M457.75,110.12a5,5,0,0,1,1.94,5c-.61,3.36-2.79,5.79-7.4,5.32a6.21,6.21,0,0,1-4.85-2.66,6.67,6.67,0,0,0,6.18,4.75c5.1.57,7.65-2.2,8.25-6A5.37,5.37,0,0,0,457.75,110.12Z" style="fill:#b7b771"/><path d="M520.23,111.51a4.06,4.06,0,0,1,1.58-3.24l.36.35a4.2,4.2,0,0,0-1.45,2.89Z" style="fill:#a7a765"/><path d="M526.66,117.18c-.61,3.46-2.91,5.89-7.52,5.43a6.23,6.23,0,0,1-5.95-7c.25-3.59,4.25-6.13,7.53-4.4A5,5,0,0,1,526.66,117.18Z" style="fill:#e86b7b"/><path d="M522.9,111.28a4.31,4.31,0,0,1,1.7,4.62c-.61,3.13-2.55,5.32-6.8,4.86a5.74,5.74,0,0,1-4.36-2.43,6.16,6.16,0,0,0,5.7,4.28c4.61.46,6.91-2.08,7.52-5.43A4.94,4.94,0,0,0,522.9,111.28Z" style="fill:#c05666"/><path d="M457.63,116.94a4,4,0,0,1,1.57-3.23l.37.34a4.06,4.06,0,0,0-1.34,2.89Z" style="fill:#a7a765"/><path d="M464.06,122.61c-.61,3.47-2.91,5.9-7.52,5.44a6.23,6.23,0,0,1-6-7.06,5.33,5.33,0,0,1,7.52-4.39C462.36,116.14,464.66,119.37,464.06,122.61Z" style="fill:#e86b7b"/><path d="M460.3,116.71a4.31,4.31,0,0,1,1.69,4.63c-.6,3.12-2.54,5.32-6.79,4.85a5.75,5.75,0,0,1-4.37-2.42,6.21,6.21,0,0,0,5.71,4.28c4.6.46,6.91-2.09,7.52-5.44A4.86,4.86,0,0,0,460.3,116.71Z" style="fill:#c05666"/><path d="M457.38,118.45c.73,1.27.85,2.31-1,3.81a3.25,3.25,0,0,1-4.12-.23c-1-1-.37-2.66,1-3.81S456.78,117.29,457.38,118.45Z" style="fill:#ff8197"/><path d="M468.43,108.16s-.25-2.78,1.82-4l.48.46A5.62,5.62,0,0,0,469,108Z" style="fill:#a7a765"/><path d="M476.19,114.86c-.73,4.17-3.52,7.17-9.22,6.59-6-.57-7.52-5.2-7.28-8.55.36-4.4,5.22-7.4,9.1-5.32C474.13,106.88,476.92,110.82,476.19,114.86Z" style="fill:#e86b7b"/><path d="M471.58,107.69a5.44,5.44,0,0,1,2.06,5.55c-.73,3.7-3.15,6.48-8.25,5.9a6.85,6.85,0,0,1-5.34-2.89,7.34,7.34,0,0,0,6.92,5.21c5.7.57,8.37-2.43,9.22-6.6A5.91,5.91,0,0,0,471.58,107.69Z" style="fill:#c05666"/><path d="M463.82,102a5.37,5.37,0,0,1,5,5.78v.34S463.21,108.5,463.82,102Z" style="fill:#b7b771"/><path d="M507.13,104.46a5.21,5.21,0,0,1-4.73,5.89H502C502.15,110.47,500.45,105.38,507.13,104.46Z" style="fill:#b7b771"/><path d="M502.15,110.47s.73-2.43-.48-3.93l-.49.23a5.67,5.67,0,0,1,.49,3.47Z" style="fill:#a7a765"/><path d="M508.34,116.48c-.73,3.7-3.15,6.48-8.25,5.9a6.87,6.87,0,0,1-6.55-7.63,5.89,5.89,0,0,1,8.25-4.86C506.52,109.31,509.07,112.9,508.34,116.48Z" style="fill:#c6c67d"/><path d="M504.22,110a5,5,0,0,1,1.94,5c-.61,3.35-2.79,5.78-7.4,5.32a6.26,6.26,0,0,1-4.86-2.66,6.69,6.69,0,0,0,6.19,4.74c5.1.58,7.52-2.2,8.25-5.9A5.32,5.32,0,0,0,504.22,110Z" style="fill:#b7b771"/><path d="M480.92,110.58a4.09,4.09,0,0,0,.61-3.12l-.49.12a5,5,0,0,1-.48,2.66Z" style="fill:#a7a765"/><path d="M486.14,115.56c-.49,3-2.55,5.2-6.67,4.74a5.5,5.5,0,0,1-5.22-5.78v-.35c.24-3.12,3.76-5.32,6.55-3.82a4.55,4.55,0,0,1,5.34,3.36A4.8,4.8,0,0,1,486.14,115.56Z" style="fill:#c6c67d"/><path d="M482.74,110.35a4.34,4.34,0,0,1,1.58,4.05c-.49,2.66-2.31,4.63-5.95,4.28a5.41,5.41,0,0,1-3.88-2.08,5.38,5.38,0,0,0,5,3.81c4.13.47,6.07-1.73,6.68-4.74A4.5,4.5,0,0,0,482.74,110.35Z" style="fill:#b7b771"/><path d="M468.79,117.41H526.9a1.32,1.32,0,0,1,1.34,1.27v31.68H467.33V118.68A1.43,1.43,0,0,1,468.79,117.41Z" style="fill:#7cbbc3"/><path d="M445,118.33v32.15h22.93V118.33a.93.93,0,0,0-1-.92H446.1A1,1,0,0,0,445,118.33Zm14.32,5h-6.8a1.74,1.74,0,1,1,0-3.47h6.8a1.75,1.75,0,0,1,1.82,1.74A1.82,1.82,0,0,1,459.33,123.3Z" style="fill:#acd9e2"/><path d="M459.45,199.16c0-5-2.79-9.13-6.8-10.4l1.82-.35h-4.24c-5.22,0-9.22,4.86-9.22,10.75s3.39,10.76,9.22,10.76h4.12l-1.58-.35C457,208.41,459.45,204.14,459.45,199.16Z" style="fill:#403d54"/><path d="M463.57,199.16c0,6-3.4,10.76-9.22,10.76s-9.22-4.86-9.22-10.76,4-10.75,9.22-10.75S463.57,193.27,463.57,199.16Z" style="fill:#46435d"/><path d="M459.93,199.4c0,3.12-2.18,5.55-5,5.55s-5-2.55-5-5.55,2.19-5.55,5-5.55S459.93,196.39,459.93,199.4Z" style="fill:#403d54"/><path d="M458.48,199.16c0,2.66-1.7,4.86-3.89,4.86s-3.88-2.2-3.88-4.86,1.7-4.85,3.88-4.85S458.48,196.51,458.48,199.16Z" style="fill:#bdaeb7"/><path d="M450.83,193.27c-1.33,1.15-2.3,2.08-2.91,1.62s-.12-1.85,1.09-3.13,2.67-2.08,3.4-1.38S452.05,192.11,450.83,193.27Z" style="fill:#828199"/><path d="M448,197.31c-.12.81-.6,1.39-1.09,1.28s-.61-.81-.48-1.51.6-1.38,1.09-1.27S448.29,196.62,448,197.31Z" style="fill:#828199"/><path d="M505.43,199.16c0-5-2.79-9.13-6.79-10.4l1.81-.35h-4.24c-5.22,0-9.22,4.86-9.22,10.75s3.4,10.76,9.22,10.76h4.24l-1.57-.35C503,208.41,505.43,204.14,505.43,199.16Z" style="fill:#403d54"/><path d="M509.68,199.16c0,6-3.4,10.76-9.23,10.76s-9.22-4.86-9.22-10.76,4-10.75,9.22-10.75S509.68,193.27,509.68,199.16Z" style="fill:#46435d"/><path d="M501.06,205a5.58,5.58,0,1,0-5-5.55A5.29,5.29,0,0,0,501.06,205Z" style="fill:#403d54"/><path d="M504.58,199.16c0,2.66-1.7,4.86-3.88,4.86s-3.89-2.2-3.89-4.86,1.7-4.85,3.89-4.85S504.58,196.51,504.58,199.16Z" style="fill:#bdaeb7"/><path d="M496.82,193.27c-1.34,1.15-2.31,2.08-2.92,1.62s-.12-1.85,1.1-3.13,2.67-2.08,3.39-1.38S498.15,192.11,496.82,193.27Z" style="fill:#828199"/><path d="M494.15,197.31c-.13.81-.61,1.39-1.1,1.28s-.6-.81-.48-1.51.61-1.38,1.09-1.27S494.27,196.62,494.15,197.31Z" style="fill:#828199"/><path d="M473.76,150.6H471V173h2.79Z" style="fill:#828199"/><path d="M472.19,166.32h.6a2.5,2.5,0,0,1,2.55,2.43v6h-5.58v-6A2.33,2.33,0,0,1,472.19,166.32Z" style="fill:#5b5a75"/><path d="M473.4,166.32h-1.46a1.83,1.83,0,0,1,1.82,1.74v6.59h1.58v-6.59a1.86,1.86,0,0,0-1.94-1.74Z" style="fill:#403d54"/><path d="M478.13,178.46c-.12,3-1.82,5.44-5.82,5.56a5.61,5.61,0,0,1-5.83-5.56,5.83,5.83,0,0,1,11.65,0Z" style="fill:#ccbfc8"/><path d="M475.22,178.46a2.51,2.51,0,0,1-2.43,2.66h-.36a2.66,2.66,0,1,1,0-5.32A2.76,2.76,0,0,1,475.22,178.46Z" style="fill:#84829b"/><path d="M473.76,150.6H471v4.74h2.79Z" style="fill:#5b5a75"/><path d="M527.75,150.6H525V173h2.79Z" style="fill:#828199"/><path d="M526.05,166.32h.61a2.5,2.5,0,0,1,2.55,2.43v6h-5.58v-6A2.4,2.4,0,0,1,526.05,166.32Z" style="fill:#5b5a75"/><path d="M527.39,166.32h-1.46a1.83,1.83,0,0,1,1.82,1.74v6.59h1.46v-6.59A1.83,1.83,0,0,0,527.39,166.32Z" style="fill:#403d54"/><path d="M532.12,178.46c-.12,3-1.82,5.44-5.82,5.56a5.41,5.41,0,1,1,.24-10.76A5.68,5.68,0,0,1,532.12,178.46Z" style="fill:#ccbfc8"/><path d="M529.09,178.46a2.51,2.51,0,0,1-2.43,2.66h-.36a2.73,2.73,0,0,1-2.79-2.42v-.24a2.67,2.67,0,0,1,2.91-2.42A2.79,2.79,0,0,1,529.09,178.46Z" style="fill:#84829b"/><path d="M527.75,150.6H525v4.74h2.79Z" style="fill:#5b5a75"/><path d="M461.63,150.48h-6.55v1.39h6.55Z" style="fill:#9f9fb8"/><path d="M538.43,147.71H461v4h77.41Z" style="fill:#5b5a75"/><path d="M476.31,149.79a.81.81,0,0,1-.85.81h-.12a.81.81,0,1,1,0-1.62A.91.91,0,0,1,476.31,149.79Z" style="fill:#403d54"/><path d="M500.58,149.79a.82.82,0,0,1-.85.81h-.12a.81.81,0,0,1,0-1.62A.84.84,0,0,1,500.58,149.79Z" style="fill:#403d54"/><path d="M524.84,149.79a.81.81,0,0,1-.85.81h-.12a.81.81,0,0,1,0-1.62A.84.84,0,0,1,524.84,149.79Z" style="fill:#403d54"/><path d="M441.49,178.35h63.82a6.63,6.63,0,0,1,6.79,6.47v15H434.7v-15A6.63,6.63,0,0,1,441.49,178.35Z" style="fill:#e4dbe2"/><path d="M467.7,178.35h63.81a6.63,6.63,0,0,1,6.8,6.47v15H460.9v-15A6.71,6.71,0,0,1,467.7,178.35Z" style="fill:#ccbfc8"/><path d="M485.65,199.16c0-5-2.79-9.13-6.79-10.4l1.82-.35h-4.25c-5.21,0-9.22,4.86-9.22,10.75s3.4,10.76,9.22,10.76h4.25l-1.58-.35C483.23,208.41,485.65,204.14,485.65,199.16Z" style="fill:#46435d"/><path d="M489.9,199.16c0,6-3.4,10.76-9.22,10.76s-9.22-4.86-9.22-10.76,4-10.75,9.22-10.75S489.9,193.27,489.9,199.16Z" style="fill:#5b5a75"/><path d="M481.29,205c2.74,0,5-2.49,5-5.55a5,5,0,1,0-5,5.55Z" style="fill:#403d54"/><path d="M484.8,199.16c0,2.66-1.69,4.86-3.88,4.86s-3.88-2.2-3.88-4.86,1.7-4.85,3.88-4.85S484.8,196.51,484.8,199.16Z" style="fill:#e4dbe2"/><path d="M482.86,195a5.75,5.75,0,0,1,.85,2.89c0,2.55-1.58,4.51-3.64,4.51a3.59,3.59,0,0,1-2.91-1.85,4.16,4.16,0,0,0,3.76,3.47c2.19,0,3.88-2.2,3.88-4.86A5.45,5.45,0,0,0,482.86,195Z" style="fill:#bdaeb7"/><path d="M480.19,205.52a4.61,4.61,0,0,1-2.18-.92c-.12-.11-.12-.23,0-.23s.24-.12.24,0a3.78,3.78,0,0,0,1.94.92c.13,0,.13.12.13.23Z" style="fill:#403d54"/><path d="M487.72,205.29c-.25,0-.25-.11-.13-.23a8.24,8.24,0,0,0,.85-1.85c0-.11.13-.11.25-.11s.12.11.12.23a8.94,8.94,0,0,1-.85,1.85C487.84,205.18,487.84,205.29,487.72,205.29Z" style="fill:#403d54"/><path d="M481.53,209.46c-.12,0-.12-.12-.24-.12a.42.42,0,0,1,.12-.23,8.8,8.8,0,0,0,5.33-3c.13-.11.13-.11.25,0s.12.23,0,.23A9,9,0,0,1,481.53,209.46Z" style="fill:#403d54"/><path d="M531.76,199.16c0-5-2.79-9.13-6.8-10.4l1.82-.35h-4.24c-5.22,0-9.22,4.86-9.22,10.75s3.39,10.76,9.22,10.76h4.24l-1.57-.35C529.33,208.41,531.76,204.14,531.76,199.16Z" style="fill:#46435d"/><path d="M535.88,199.16c0,6-3.4,10.76-9.22,10.76s-9.22-4.86-9.22-10.76,4-10.75,9.22-10.75S535.88,193.27,535.88,199.16Z" style="fill:#5b5a75"/><path d="M532.24,199.4c0,3.12-2.18,5.55-5,5.55s-5-2.55-5-5.55,2.19-5.55,5-5.55S532.24,196.39,532.24,199.4Z" style="fill:#403d54"/><path d="M530.79,199.16c0,2.66-1.7,4.86-3.89,4.86s-3.88-2.2-3.88-4.86,1.7-4.85,3.88-4.85S530.79,196.51,530.79,199.16Z" style="fill:#e4dbe2"/><path d="M529,195a5.85,5.85,0,0,1,.85,2.89c0,2.55-1.58,4.51-3.65,4.51a3.6,3.6,0,0,1-2.91-1.85A4.17,4.17,0,0,0,527,204c2.18,0,3.88-2.2,3.88-4.86A5.93,5.93,0,0,0,529,195Z" style="fill:#bdaeb7"/><path d="M526.3,205.52a4.6,4.6,0,0,1-2.19-.92c-.12-.11-.12-.23,0-.23s.24-.12.24,0a3.78,3.78,0,0,0,1.95.92c.12,0,.12.12.12.23Z" style="fill:#403d54"/><path d="M533.82,205.29c-.24,0-.24-.11-.12-.23a9.23,9.23,0,0,0,.85-1.85c0-.11.12-.11.24-.11s.12.11.12.23a8.45,8.45,0,0,1-.85,1.85A.43.43,0,0,0,533.82,205.29Z" style="fill:#403d54"/><path d="M527.51,209.46c-.12,0-.12-.12-.24-.12a.42.42,0,0,1,.12-.23,8.85,8.85,0,0,0,5.34-3c.12-.11.24-.11.24,0s.12.23,0,.23A8.94,8.94,0,0,1,527.51,209.46Z" style="fill:#403d54"/><path d="M568.4,215.59c30.82,0,55.81-1.25,55.81-2.78s-25-2.77-55.81-2.77-55.81,1.24-55.81,2.77S537.57,215.59,568.4,215.59Z" style="fill:#40b588"/><path d="M481.91,208.75,479,216.1l-2.88-13.6-2,13.61L473,207.53l-5.86,8.21,3-15.79-8.82,16.48.37-6.35-5,6.37-.9-9.61L452,216.13l-1.9-7.9-3.69,8.48-2-15.42-4.18,14.83L438.73,208l-4.65,7.54,2.32-18.69-9,18.32-1-10.77-4.2,9.51-3-19.61-2.8,18.34-3.59-8.52-1.6,13.5-2.5-8.72-3.05,7.22-2.76-13.59-2.1,13.61-1-8.58-5.87,8.32,3-15.9L388,216.46l.37-6.36-5,6.38-.78-9.5-3.7,9.18-1.91-7.9-3.81,8.59-1.87-15.53L367,216.15,365.43,208l-4.64,7.54,2.32-18.69-9,18.33-1-10.78-4.07,9.52-3.12-19.61-2.8,18.45-3.47-8.63-1.73,13.5-2.49-8.73-2.94,7.35-2.88-13.71-2,13.72-1.16-8.58-5.87,8.21,3-15.9-9,16.59.38-6.35-4.86,6.26-.9-9.5-3.71,9.18-1.9-7.91-3.69,8.6-2-15.54-4.18,14.95-1.65-8.24-4.53,7.54,2.32-18.69-9.11,18.44-1-10.78-4.08,9.52-3-19.72-2.92,18.44-3.47-8.51-1.45,11.89-2-7.22-3.06,7.34-2.76-13.7L255,216.32l-1-8.58L248.05,216l3-15.78-8.95,16.47.37-6.35-4.86,6.38-.9-9.62L233,216.34l-1.9-8-3.81,8.6L225.4,201.5l-4.3,14.83-1.53-8.24-4.64,7.54,2.31-18.69-9,18.44-1-10.78-4.08,9.52-3.12-19.72-2.8,18.45-3.46-8.52-1.58,11.88-2-7.21-2.94,7.35-2.88-13.59-2,13.6-1-8.58L175.48,216l3-15.78-8.95,16.47.37-6.35-5,6.38-.78-9.62-3.83,9.29-1.9-7.9L154.71,217l-1.87-15.42-4.31,14.84L147,208.25l-4.64,7.54L144.68,197l-9,18.44-1-10.77-4.07,9.51-3.13-19.61-2.79,18.34-3.59-8.52-1.46,11.89-2-7.22-2.94,7.35-2.22-10.69-.16,14.23,6.92-.1,1.45,0,71.12-.07,1.45,0,71.23-.07,1.46,0,71.72-.06.85,0,72.44,0,.86-.1,73.17,0Z" style="fill:#3ecc8e"/><path d="M565.48,176.15h47.68a2.26,2.26,0,0,1,2.31,2.2V209.8a2.25,2.25,0,0,1-2.31,2.2H569.73a4.25,4.25,0,0,1-4.37-4.16Z" style="fill:#c05666"/><path d="M544.62,176.15h26.2V212h-26.2a1.44,1.44,0,0,1-1.46-1.39v-33A1.4,1.4,0,0,1,544.62,176.15Z" style="fill:#e86b7b"/><path d="M568.64,178.23H554.93v8.45h13.71Z" style="fill:#e4dbe2"/><path d="M565.24,180.89H557.6a.64.64,0,0,1-.49-.23c-.12-.11.12-.34.25-.46h7.76a.69.69,0,0,1,.49.23c.12.12-.13.35-.25.46Z" style="fill:#ccbfc8"/><path d="M560,182.4H557.6a.35.35,0,1,1,0-.7H560a.35.35,0,1,1,0,.7C560,182.51,560.15,182.51,560,182.4Z" style="fill:#ccbfc8"/><path d="M564.88,182.4H561.6a.3.3,0,0,1-.24-.47.26.26,0,0,1,.24-.23h3.28a.29.29,0,0,1,.24.46A.26.26,0,0,1,564.88,182.4Z" style="fill:#ccbfc8"/><path d="M567.79,185.87H555.9a.12.12,0,0,1-.12-.12v-6.59c0-.12,0-.12.12-.12h11.89c.12,0,.12,0,.12.12v6.59C567.91,185.87,567.91,185.87,567.79,185.87Z" style="fill:#ccbfc8"/></g></svg>