<svg id="Layer_1" data-name="Layer 1" xmlns="http://www.w3.org/2000/svg" viewBox="0 0 655 294"><rect id="Bg" y="0.05" width="655" height="293" style="fill:#fbfbfb"/><path d="M592.28,169H509.14a19.32,19.32,0,0,0-19.32,19.32h0v83.14a19.32,19.32,0,0,0,19.31,19.33h83.15a19.32,19.32,0,0,0,19.33-19.31V188.33A19.32,19.32,0,0,0,592.3,169Z" style="fill:#7a1fa2"/><path d="M498.3,245.62c.49-.85,9.37-56.35,23.86-61.34,14.16-4.95.76,70.46.76,70.46s-4.56,3.83-14.31.13S498.3,245.62,498.3,245.62Z" style="fill:#e23b5b;fill-rule:evenodd"/><path d="M586.78,192.85s-18.77-14-40.4-14c-17.43,0-24.54,6.58-24.54,6.58l-11.72,83.43,68.88,1Z" style="fill:#ff4964"/><path d="M561.57,180.93a23.55,23.55,0,0,1-1.55,4.23c-1.44,3.15-9.8,15.13-21.84,13.45s-6.85-12.57-5.83-14.74c.84-1.76,3.11-4.62,4.8-4.62,3.42,0,16.83-.76,22,.88C560.24,180.46,561.57,180.93,561.57,180.93Z" style="fill:#f9ae83"/><path d="M560,219.65a2.42,2.42,0,1,0-2.86,2A2.47,2.47,0,0,0,560,219.65Z" style="fill:#e7f1f2"/><path d="M566.31,183c.58-1.8,9.37,2.87,9.37,2.87S562.14,218,564.11,228.63c1.55,8.37,17.54,13.13,19,.45C583.7,224,579,290.8,579,290.8H507.4s3.78-86.85,14.5-106.75c.69-1.3,7-3,6.67-2.29-3.46,8-10,23.34-6.14,33.93,2.05,5.48,17.32,11.74,28.45.84C555.33,212.15,563.86,190.64,566.31,183Z" style="fill:#0a96ad"/><path d="M563.57,221.7a15.13,15.13,0,0,1-3.68,3.13,5.5,5.5,0,0,1-2,.67,5.44,5.44,0,0,1-2.16-.18,4.77,4.77,0,0,1-1.8-1,6.16,6.16,0,0,1-1.21-1.82,14.82,14.82,0,0,1-.91-4.75,9.09,9.09,0,0,0-.23,5.14,6.22,6.22,0,0,0,1.29,2.45A5.58,5.58,0,0,0,558,227a6.14,6.14,0,0,0,2.55-1.11A9.11,9.11,0,0,0,563.57,221.7Z" style="fill:#0b7189"/><path d="M557.26,221.68a2.54,2.54,0,0,0,2.77-2.05,2.39,2.39,0,0,0-.33-1.86,2.49,2.49,0,0,0-1.55-1.1,2.1,2.1,0,0,0-.79,0h.12a2.35,2.35,0,0,1,.88.4,2.21,2.21,0,0,1,.66.7,2.26,2.26,0,0,1,.35.9,2.41,2.41,0,0,1,0,1,2.52,2.52,0,0,1-2,2.05Z" style="fill:#c2c6c6"/><path d="M557.13,221.66h.13a2.54,2.54,0,0,0,2-2,2.8,2.8,0,0,0,0-1,2.26,2.26,0,0,0-.35-.9,2.35,2.35,0,0,0-.66-.71,2.4,2.4,0,0,0-.88-.39h-.12a2.52,2.52,0,0,0-1.35.7,2.66,2.66,0,0,0-.7,2.35,2.51,2.51,0,0,0,.34.91,2.48,2.48,0,0,0,.67.7,2.33,2.33,0,0,0,.88.39Z" style="fill:#e7f1f2"/><path d="M520.57,213.83a5,5,0,0,1-1.12,1.9,2.63,2.63,0,0,1-.84.56,3.11,3.11,0,0,1-2,.08,2.12,2.12,0,0,1-.83-.52,3.54,3.54,0,0,1-.7-2,2.86,2.86,0,0,0-.18,1.23,2.75,2.75,0,0,0,.39,1.18,2.17,2.17,0,0,0,1,.82,3.15,3.15,0,0,0,1.29.2,2.75,2.75,0,0,0,1.26-.3,2.9,2.9,0,0,0,1-.84,3.49,3.49,0,0,0,.67-2.27Z" style="fill:#0b7189"/><path d="M517.56,214.3a1.64,1.64,0,0,0,1.21-.31,1.69,1.69,0,0,0,.64-1.06,1.8,1.8,0,0,0-.13-1.31,1.77,1.77,0,0,0-1-.88,1.46,1.46,0,0,0-.51,0h0a1.79,1.79,0,0,1,1.08,2.19,1.66,1.66,0,0,1-.45.88A1.75,1.75,0,0,1,517.56,214.3Z" style="fill:#c2c6c6"/><path d="M517.48,214.2a1.78,1.78,0,0,0,.92-.48,1.7,1.7,0,0,0,.47-.92,1.8,1.8,0,0,0-1.08-2.18h0a1.71,1.71,0,0,0-.92.48,2.14,2.14,0,0,0-.36,2.22,1.84,1.84,0,0,0,1,.88Z" style="fill:#e7f1f2"/><path d="M555.21,241.84s-28.79,4.54-39.77-5.89l-2.58,37.1s2.91,9.61,16.69,11.27,22.86-9,22.86-9Z" style="fill:#0b7189"/><path d="M552,246.38l.18-2h-.49l-1.53.2.1.78,1.07-.14-.11,1.06Z" style="fill:#0e9ea5"/><path d="M539.71,246.05h1.68v-.77h-3v.77Zm-4.29-.12v-.78a18.25,18.25,0,0,1-2.95-.24v.78c.92.1,1.92.18,2.95.24Zm8.93,0,3-.2V245c-.88,0-1.88.14-3,.2Zm-14.88-.63.14-.78c-1-.16-2.05-.37-2.89-.59l-.18.75a29.26,29.26,0,0,0,2.93.6Zm-5.81-1.47.26-.74a20.28,20.28,0,0,1-2.68-1.13l-.36.7a25,25,0,0,0,2.78,1.15Z" style="fill:#0e9ea5"/><path d="M517.63,241.29v-.76a5.91,5.91,0,0,0,.63.49l.47-.61a12.35,12.35,0,0,1-1.17-1l-.59-.57-.16,2.39Z" style="fill:#0e9ea5"/><path d="M531.45,282.13v-.78a8.29,8.29,0,0,1-1.86-.14,10.47,10.47,0,0,1-1.25-.19l-.12.78,1.27.18A16,16,0,0,0,531.45,282.13Zm3.23-.15a24.35,24.35,0,0,0,3.17-.63l-.2-.76a20.12,20.12,0,0,1-3.07.62Zm-9.59-.94.25-.73a19.1,19.1,0,0,1-2.89-1.19l-.35.7a17,17,0,0,0,3,1.22Zm15.81-.77a27.92,27.92,0,0,0,2.88-1.48l-.41-.67a22.1,22.1,0,0,1-2.78,1.43Zm-21.56-2.19.49-.62a14.56,14.56,0,0,1-2.23-2.14l-.59.51A16.53,16.53,0,0,0,519.34,278.08ZM546.46,277a27.46,27.46,0,0,0,2.43-2l-.55-.55a21.61,21.61,0,0,1-2.37,2Zm-31.25-3.9.7-.35c-.23-.47-.35-.82-.41-.94l.14-1.94h-.78l-.14,2a6.48,6.48,0,0,0,.49,1.19ZM550,271.74l.27-3.17h-.8l-.26,3.17Zm-34.06-5.05.2-3.17h-.77l-.21,3.17Zm34.58-1.37.26-3.17H550l-.3,3.17Zm-34.15-5.07.22-3.17h-.78l-.22,3.17ZM551.1,259l.27-3.17h-.78l-.27,3.17Zm-34.23-5.07.22-3.17h-.79l-.21,3.17Zm34.76-1.27.27-3.17h-.78l-.27,3.17Zm-34.33-5.07.22-3.17h-.77l-.23,3.17Z" style="fill:#0e9ea5"/><path d="M595.66,156.52c2.67-11.31-20.42-26.43-51.57-33.78s-58.57-4.13-61.24,7.18,20.43,26.43,51.58,33.78S593,167.83,595.66,156.52Z" style="fill:#9e7b57"/><path d="M533,110.32c-6.13-2-15.87.9-17.75,15.27-1.41,10.76.29,23.64,6.36,25.6s13-8.34,16.36-18.65S539,112.28,533,110.32Z" style="fill:#1d394f"/><path d="M546.78,188.31h.73a9.79,9.79,0,0,0,10-9.54l.33-14.35a9.77,9.77,0,0,0-9.53-10h-.74a9.78,9.78,0,0,0-10,9.55l-.33,14.35A9.78,9.78,0,0,0,546.78,188.31Z" style="fill:#f9ae83"/><path d="M532.68,176.92A26.72,26.72,0,0,0,561,157.06l5.4-19.34c1.24-13.85-4.09-28.43-22.23-30a25.06,25.06,0,0,0-26.95,22.94l-.86,19.41C516.6,165.24,521.86,176,532.68,176.92Z" style="fill:#f9ae83"/><path d="M557.68,145.41c-.32-1.37-2.37,6.25-2.8,4.48-.71-2.95-2.63-4.26-2-9.16a18.85,18.85,0,0,0-.21-5.61c-6-7.52-29.54-11.43-35.47-3.68,0,0-.64-27.18,25.68-24.74,28,2.58,24.13,24.54,23.54,31-.78,8.77-4.09,25.8-8.74,27C557.66,164.69,560.41,157.35,557.68,145.41Z" style="fill:#1d394f"/><path d="M568.13,150.4c.85-4.41-1.09-8.5-4.34-9.13s-6.57,2.44-7.43,6.86,1.09,8.5,4.34,9.12S567.28,154.81,568.13,150.4Z" style="fill:#f9ae83"/><path d="M566.17,144.88a4.91,4.91,0,0,0-3.31-.29,6.14,6.14,0,0,0-2.93,1.8,8.72,8.72,0,0,0-1.69,2.92c-.15.56-.29,1.09-.39,1.62a14.71,14.71,0,0,0-.12,1.63c.25-.48.47-1,.67-1.47s.47-.94.68-1.41a12.8,12.8,0,0,1,1.71-2.49,6.84,6.84,0,0,1,5.38-2.31Z" style="fill:#c97355"/><path d="M564.19,149a2.54,2.54,0,0,0-1.58-1.15,3.19,3.19,0,0,0-2,.14,4.23,4.23,0,0,0-1.58,1.23c-.18.26-.35.54-.51.82a7.77,7.77,0,0,0-.33.92,8.43,8.43,0,0,0,.78-.55l.7-.54A8.46,8.46,0,0,1,561,149a4.34,4.34,0,0,1,3.17-.06Z" style="fill:#c97355"/><path d="M527.5,124.82s4,9.75,12.8,11.53a.48.48,0,0,0,.29,0,.43.43,0,0,0,.22-.18.45.45,0,0,0,.07-.28.54.54,0,0,0-.11-.27,11.08,11.08,0,0,1-2.43-7.87C539,122.75,527.5,124.82,527.5,124.82Z" style="fill:#1d394f"/><path d="M516.28,130.85c1,2.45,5.31,6.48,15.35,8.67a.39.39,0,0,0,.26,0,.42.42,0,0,0,.21-.16.43.43,0,0,0,.07-.25.38.38,0,0,0-.09-.25,14.34,14.34,0,0,1-2.94-10.53c.94-5.52-11.33.82-12.52,1.92C516.42,130.46,516.15,130.58,516.28,130.85Z" style="fill:#1d394f"/><path d="M530,148.11a19.69,19.69,0,0,0-2.31,3.27,14.4,14.4,0,0,0-1.62,3.76,4.23,4.23,0,0,0-.12,1.12,1.84,1.84,0,0,0,.12.66,1.38,1.38,0,0,0,.49.65,3.43,3.43,0,0,0,1.07.43,4.9,4.9,0,0,0,1,.19,11.08,11.08,0,0,0,4.09-.39,29.75,29.75,0,0,1-3.89-.49L528,157a2.29,2.29,0,0,1-.73-.37.84.84,0,0,1-.13-.44,4.83,4.83,0,0,1,.11-.84,24.44,24.44,0,0,1,1.31-3.62C529,150.56,529.57,149.35,530,148.11Z" style="fill:#c97355"/><path d="M525.48,164.46a8.1,8.1,0,0,0,3.74,1.62,12.76,12.76,0,0,0,4.09,0,17.89,17.89,0,0,0,4-1.06c.63-.27,1.22-.58,1.84-.88a14.47,14.47,0,0,0,1.69-1.11c-.65.17-1.28.37-1.92.6l-1.9.53c-.65.12-1.27.35-1.9.45l-1,.2-1,.12a19.8,19.8,0,0,1-3.85.17A13.93,13.93,0,0,1,525.48,164.46Z" style="fill:#c97355"/><path d="M528.32,168.33a2.23,2.23,0,0,0,1.1,1,3.78,3.78,0,0,0,1.48.31,4.54,4.54,0,0,0,1.45-.27,3.81,3.81,0,0,0,1.23-.79,8.42,8.42,0,0,0-1.42,0h-2.49a7.69,7.69,0,0,1-1.35-.27Z" style="fill:#c97355"/><path d="M549.26,143.14a28.32,28.32,0,0,0-3.37-1,26.17,26.17,0,0,0-3.52-.61,10.12,10.12,0,0,0-3.64,0,5,5,0,0,0-3.09,2.05h0a11.16,11.16,0,0,1,3.27-.78,27.6,27.6,0,0,1,3.4-.12,24.56,24.56,0,0,1,3.43.18,33.54,33.54,0,0,1,3.46.51Z" style="fill:#1d394f"/><path d="M518,141.79a13.35,13.35,0,0,1,2,0,10.44,10.44,0,0,1,2,.41,13.93,13.93,0,0,1,1.74.84,13.69,13.69,0,0,1,1.76,1.06h.12a2.85,2.85,0,0,0-.34-1.14,3,3,0,0,0-.76-.91,4.24,4.24,0,0,0-2.27-.77,7.33,7.33,0,0,0-2.29,0,9.48,9.48,0,0,0-2.17.49Z" style="fill:#1d394f"/><path d="M539.65,149.35c0-1.37-.55-2.5-1.29-2.52s-1.38,1.08-1.41,2.46.54,2.51,1.29,2.53S539.61,150.73,539.65,149.35Z" style="fill:#1d394f"/><path d="M523.92,149c0-1.37-.54-2.5-1.29-2.52s-1.38,1.08-1.41,2.46.55,2.51,1.29,2.53S523.89,150.35,523.92,149Z" style="fill:#1d394f"/><path d="M537.28,177s11.75-2.7,15.91-6.67c0,0-9.74,17.51-15.65,11.52C536.79,181.09,537.28,177,537.28,177Z" style="fill:#f58a69"/><path d="M482.86,133.49c2.66-11.31,30.08-14.52,61.23-7.18,28,6.62,49.48,19.51,51.59,30.24,2.68-11.29-20.45-26.42-51.55-33.78s-58.57-4.09-61.23,7.18A8.29,8.29,0,0,0,482.86,133.49Z" style="fill:#d8aa73"/><path d="M582.22,262.35c5.24,13-3.88,16.75-14.21,16.36s-56.76-10.92-56.76-10.92l-1.46-8.91C529,258.53,575.68,246,582.22,262.35Z" style="fill:#2b4060;fill-rule:evenodd;opacity:0.30000001192092896;isolation:isolate"/><path d="M572.82,256.77s-1.64-70.18,13.66-64.06c17.19,6.89,14.76,69.77,14.76,69.77s-4.52,4.56-15.83,2.18S572.82,256.77,572.82,256.77Z" style="fill:#ff4964;fill-rule:evenodd"/><path d="M570.71,258.28c32.1-34.88,54.93,36.71,8.43,17.2Z" style="fill:#e23b5b;fill-rule:evenodd"/><path d="M527.15,254.09l.25-1.33c-10.35-9.42-9.59-4.56-16.36-10.08-3.68-2.94-3,4.09.16,6.56C515.4,250.7,527.15,254.09,527.15,254.09Z" style="fill:#f58a69;fill-rule:evenodd"/><path d="M595.8,258.69c10.41,13.23-3.25,16.85-12.41,16.36s-55.93-9.83-55.93-9.83l1.08-11.9C545.5,253.25,585.39,245.46,595.8,258.69Z" style="fill:#f9ae83;fill-rule:evenodd"/><path d="M595.8,258.69c10.41,13.23-3.25,16.85-12.41,16.36l-2.33-.22c4.62-.66,9.18-2.27,10.84-6,2.49-5.55-1.56-11.84-4.65-15.54a17.48,17.48,0,0,1,8.55,5.37Z" style="fill:#f58a69;fill-rule:evenodd"/><path d="M513,252.15l-1.82-3.39L500,255.22l4.19,11.37,10.12-1.15Z" style="fill:#ea8678;fill-rule:evenodd"/><path d="M531.1,255.09l-2.64-2-17.32-4.28s-.2,10.09,3.09,16.69c0,0,8.18,1.82,13.23-.24Z" style="fill:#f9ae83;fill-rule:evenodd"/><path d="M583.72,192.44a6.73,6.73,0,0,0-2.58,1.57,11.21,11.21,0,0,0-1.09,1.09,12.72,12.72,0,0,0-1,1.2,23.94,23.94,0,0,0-1.61,2.6c-.49.9-.86,1.86-1.31,2.78a52.68,52.68,0,0,0-3,11.8,90.61,90.61,0,0,0-.82,12.09c0,2,0,4.09.14,6s.27,4.09.47,6c.14-2,.21-4.09.27-6v-3l.18-3c0-2,.29-4.09.45-6l.12-1.5a12.38,12.38,0,0,1,.19-1.49l.37-3A72.91,72.91,0,0,1,577.07,202c.37-.9.7-1.84,1.08-2.74a20.58,20.58,0,0,1,1.36-2.64,8.5,8.5,0,0,1,.79-1.25,9.8,9.8,0,0,1,.9-1.14l.51-.55.55-.49a5,5,0,0,1,1.38-.84Z" style="fill:#e23b5b"/><path d="M449,221.7a2,2,0,0,0,0,1.45l12.84,37.92a2,2,0,0,0,.59.85,2.07,2.07,0,0,0,.93.45l60,10.92h.27l-.47.66,1.43-.86h.14a2,2,0,0,0,.8-2.35l-14.11-38.39a2.11,2.11,0,0,0-.59-.82,2,2,0,0,0-.92-.44L451.2,220.64a3.55,3.55,0,0,0-1.84.59l-1.5.88Z" style="fill:#a0a0a0"/><path d="M508,232.6l-58.7-10.47a2,2,0,0,0-1,.13,2.1,2.1,0,0,0-.81.57,2.19,2.19,0,0,0-.44,1.89l12.82,37.91a2,2,0,0,0,1.51,1.31l60,10.94a2,2,0,0,0,2.25-1.62,2.11,2.11,0,0,0,0-1l-14-38.36a2.11,2.11,0,0,0-.63-.9,2,2,0,0,0-1-.43Z" style="fill:#cdcdd3"/><path d="M447.08,224.3l.2.65,67,48.2,7.18,1.31a2.08,2.08,0,0,0,1.81-.71,2,2,0,0,0,.44-.91,2.11,2.11,0,0,0,0-1l-14-38.4a2,2,0,0,0-1.51-1.27l-58.71-10.45a2.12,2.12,0,0,0-1,.09,2,2,0,0,0-.84.57,2.11,2.11,0,0,0-.47,1.9Z" style="fill:#cdcdd3"/><path d="M447.08,224.3l.2.65,67,48.2,7.18,1.31a2.08,2.08,0,0,0,1.81-.71,2,2,0,0,0,.44-.91,2.11,2.11,0,0,0,0-1l-14-38.4a2,2,0,0,0-1.51-1.27l-58.71-10.45a2.12,2.12,0,0,0-1,.09,2,2,0,0,0-.84.57,2.11,2.11,0,0,0-.47,1.9Z" style="fill:#d8d8d8"/><path d="M477.2,252.07a4.64,4.64,0,0,0,6.13,2,3.93,3.93,0,0,0,1.22-1.18,4.08,4.08,0,0,0,.64-1.57,4.18,4.18,0,0,0-.05-1.69,4.11,4.11,0,0,0-.74-1.53c-1.48-2.33-4.48-3.68-6.4-2.47a4.62,4.62,0,0,0-.8,6.4Z" style="fill:#e2e2e2"/><path d="M463.56,260.31s-1,1.65-2.41,1.63a20.94,20.94,0,0,1-4.09-.77,3,3,0,0,1-.62-1.06,3.1,3.1,0,0,1-.14-1.21,8.77,8.77,0,0,1,.63-2,1.2,1.2,0,0,1-.55.33,1.39,1.39,0,0,1-1.23-.19,1.33,1.33,0,0,1-.42-.49,14.18,14.18,0,0,1-1.68-4.09,5.92,5.92,0,0,1-2.05-1.77,7.17,7.17,0,0,1-.61-2.32,2.73,2.73,0,0,1-.65-2.82,3.54,3.54,0,0,1,.86-1.36,3.41,3.41,0,0,1,1.38-.82s5.67-2.72,6.14-2,1.61,1.58-.47,2.82l-3.39,2,.59,1.45s5.5-2.41,6.26-2,2,.58,1.3,1.68a30.74,30.74,0,0,1-6,3.74l.19,2s5.93-2.58,6.68-1.84,1.48,1.14.39,2.14a36.58,36.58,0,0,1-5.44,3.11l1.29,1.74S463.44,258,463.56,260.31Z" style="fill:#f9ae83"/><path d="M594.45,149.84s-6.62-16-53.94-26.09c0,0-43.21-11.53-56.61,4,1.36-2.44,9.15-7,11.74-8l49.57-19.38a3.24,3.24,0,0,1,3.33.57L583.2,136.4c2.29,2,11.39,10.51,11.35,13.53Z" style="fill:#f9d07d"/><path d="M172.75,148.48H71.38A19.37,19.37,0,0,0,52,167.84h0V269.23A19.37,19.37,0,0,0,71.37,288.6H172.75a19.37,19.37,0,0,0,19.37-19.37V167.85a19.37,19.37,0,0,0-19.37-19.37Z" style="fill:#1e88e5"/><path d="M156.86,168.22a9.09,9.09,0,0,0,1.9-12.53c-.84-1.1-2-2.05-2.21-3.5a6.82,6.82,0,0,1,.37-2.57,15.06,15.06,0,0,0-5.52-15.29c0-3.12-1.84-9.72-5.8-12.3l-18,2.64q1.23,28.42-.17,56.88a14.18,14.18,0,0,0,1.34,8.47c2.25,3.44,7,4.1,11.07,4.26a32.56,32.56,0,0,0,11.69-1.37,14.48,14.48,0,0,0,5.13-2.85,14.24,14.24,0,0,0,3.56-4.66C162.72,179.79,160.16,173.31,156.86,168.22Z" style="fill:#1d394f"/><path d="M102,129.88l-.56-4.1,23.75-7.26c7.4-1.64,16.4,4.92,17.69,12.3a133.21,133.21,0,0,1,2.69,24.79c-.53,12.76-9.95,15.46-9.95,15.46l1,7.55a14,14,0,0,1-12.1,15.62h0a14,14,0,0,1-15.6-12Z" style="fill:#ffbe9d"/><path d="M141.23,140.19a1.61,1.61,0,0,1-.31,1.18,1.71,1.71,0,0,1-1.66.63,1.66,1.66,0,0,1-.56-.25,1.54,1.54,0,0,1-.43-.45,1.65,1.65,0,0,1-.22-.57,1.63,1.63,0,0,1,1.32-1.79,1.54,1.54,0,0,1,1.18.24,1.6,1.6,0,0,1,.42.44A1.35,1.35,0,0,1,141.23,140.19Z" style="fill:#1d394f"/><path d="M140.82,136.44c-.16.23-1.49-.53-3.22-.33s-2.89,1.21-3.09,1,0-.47.55-.94a4.38,4.38,0,0,1,5.11-.56C140.7,136,140.93,136.34,140.82,136.44Z" style="fill:#1d394f"/><path d="M125.12,142.39a1.66,1.66,0,0,1-1.38,1.8,1.57,1.57,0,0,1-.61,0,1.49,1.49,0,0,1-1-.69,1.47,1.47,0,0,1-.22-.57,1.63,1.63,0,0,1,1.33-1.78,1.57,1.57,0,0,1,.61,0,1.92,1.92,0,0,1,.57.24,1.63,1.63,0,0,1,.43.44,1.7,1.7,0,0,1,.22.58Z" style="fill:#1d394f"/><path d="M123.89,138.72c-.19.22-1.5-.54-3.22-.33s-2.89,1.21-3.12,1,0-.47.57-.94a4.42,4.42,0,0,1,2.44-1.08,4.32,4.32,0,0,1,2.61.53C123.76,138.27,124,138.61,123.89,138.72Z" style="fill:#1d394f"/><path d="M131.64,150.81a10.87,10.87,0,0,1,2.74-.84c.43,0,.84-.22.88-.53a2.33,2.33,0,0,0-.45-1.27l-1.7-3.22a57.35,57.35,0,0,1-3.93-8.45,60,60,0,0,1,4.61,8.2l1.64,3.24a2.59,2.59,0,0,1,.43,1.71,1,1,0,0,1-.24.44,1,1,0,0,1-.42.27,3.06,3.06,0,0,1-.73.21,11.21,11.21,0,0,1-2.83.24Z" style="fill:#c97355"/><path d="M135.59,171.09a33.23,33.23,0,0,1-17.69-2.52s5.23,8.2,18.06,5.64Z" style="fill:#eb996e"/><path d="M131.37,155.06a3.11,3.11,0,0,0-2.91-.84,2.93,2.93,0,0,0-1.06.45,3,3,0,0,0-.79.84,1.79,1.79,0,0,0,0,2.05,2,2,0,0,0,2.32.31,6.43,6.43,0,0,0,2-1.58,2.27,2.27,0,0,0,.43-.55.65.65,0,0,0,0-.66" style="fill:#eb996e"/><path d="M126.68,152.6c.28,0,.51,1.82,2.25,3s3.73.7,3.79,1-.41.41-1.25.53a4.73,4.73,0,0,1-3.13-.7,4.11,4.11,0,0,1-1.79-2.5C126.39,153.09,126.55,152.6,126.68,152.6Z" style="fill:#c97355"/><path d="M237.6,165.78a2.23,2.23,0,0,0,1.21-3l-7.71,2.32a29.87,29.87,0,0,0,6.15-3.37c2.05-1.72,1.05-3.22,1.05-3.22l-7.92,3-4.49,2.64-11.25,17.19s8.79,4.3,10.35,3c2.75-2.17,4.25-7,4.84-9.51a34,34,0,0,0,5.52-2A5.24,5.24,0,0,0,237,171l-6.16,1.17a32.68,32.68,0,0,0,7-2.89c.8-1.23.31-1.77.31-1.77l-7.71,1.19.79-.57Z" style="fill:#ffbe9d"/><path d="M209.24,183.66l-25.89,23.72c-3.22-.76-42.65-24.31-42.65-24.31l-6.15,30.32s40.35,18.46,51.46,16.4a10,10,0,0,0,6.67-3c8.79-11.52,27.66-39.78,27.66-39.78Z" style="fill:#ffbe9d"/><path d="M226.84,182.47l-4.66-2.26,3.36-6.15,2.65-5.59,4.1-7.63L226,163.22a4.9,4.9,0,0,0-1.89,1.45L213.9,178.88l-4.55,4.66,4.41,11.83,5.16-8.06,3-.72A9.16,9.16,0,0,0,226.84,182.47Z" style="fill:#ffbe9d"/><path d="M219.33,172.86a37.53,37.53,0,0,1,6.71-2.63,5.73,5.73,0,0,1,2.29-.31,2.13,2.13,0,0,1,1.09.43,2,2,0,0,1,.68,1A2.22,2.22,0,0,1,229,173.6a8.13,8.13,0,0,1-2.52.88,4.59,4.59,0,0,0-2.34,1.23,7.59,7.59,0,0,0-1,2.32,8.19,8.19,0,0,1-6,5.13" style="fill:#ffbe9d"/><path d="M217.24,183.09s.41-.13,1.13-.41a7.78,7.78,0,0,0,2.68-1.77,7.25,7.25,0,0,0,1.38-1.74,11.34,11.34,0,0,0,.94-2.38,3.86,3.86,0,0,1,.7-1.31,3.72,3.72,0,0,1,1.27-.88c1-.43,2-.53,2.95-.9a3,3,0,0,0,1.19-.85,1.69,1.69,0,0,0,.45-1.23,1.78,1.78,0,0,0-.62-1.08,1.82,1.82,0,0,0-1.18-.43,6.89,6.89,0,0,0-2.46.43,19.55,19.55,0,0,0-2,.67c-1.32.48-2.36.89-3.06,1.19a7.39,7.39,0,0,1-1.13.45,4.25,4.25,0,0,1,1-.61c.7-.35,1.72-.82,3-1.31.66-.27,1.38-.52,2-.76a7.37,7.37,0,0,1,2.63-.39,2.5,2.5,0,0,1,1.41.51,2,2,0,0,1,.57.61,1.68,1.68,0,0,1,.23.79,2.68,2.68,0,0,1-.56,1.54,2.79,2.79,0,0,1-1.34,1c-1,.43-2,.51-3,.9a2.86,2.86,0,0,0-1.12.76,3.71,3.71,0,0,0-.64,1.17,11.87,11.87,0,0,1-1,2.42,7.77,7.77,0,0,1-1.48,1.8,8.23,8.23,0,0,1-2.85,1.68,6.7,6.7,0,0,1-.88.23Z" style="fill:#eb996e"/><path d="M137.77,268.4H84.68a137.74,137.74,0,0,0-13,20.16l75.68.31C148.82,286.43,137.77,268.4,137.77,268.4Z" style="fill:#1d394f"/><path d="M153.45,220.14a144,144,0,0,0-7.69-38.69l-9.18-2.83c-1.4,6.15-11.3,8.08-16.94,5.43l-6-3.12c-19.13-2.87-18.15-1.29-22.56,1.38-3.83,2.29-3.48,19.54-3.48,19.54s-9.54,44.92-9,52.12,6.15,14.35,6.15,14.35h53c5.33,0,6.87-12.08,6.5-16.4S154.05,228,153.45,220.14Z" style="fill:#23b781"/><path d="M103.06,235.11a4,4,0,0,0,.88.76,17,17,0,0,0,2.74,1.59,16.34,16.34,0,0,0,4.53,1.36,15.46,15.46,0,0,0,5.79-.25,18.93,18.93,0,0,0,9-5.23,22.92,22.92,0,0,0,2-2.4,3.68,3.68,0,0,0,.61-1,38.15,38.15,0,0,1-3,3.1,19.69,19.69,0,0,1-8.86,5,16.11,16.11,0,0,1-10-.92C104.41,236.07,103.12,235,103.06,235.11Z" style="fill:#263238"/><g style="opacity:0.30000001192092896"><path d="M127.86,231.17a15.49,15.49,0,0,1-5.49,10.37A12.84,12.84,0,0,1,111,244a10.92,10.92,0,0,1-7.75-8.36,33.1,33.1,0,0,0,8.47,2.93,16.55,16.55,0,0,0,16.4-7.71l-.43.45" style="opacity:0.30000001192092896;isolation:isolate"/></g><path d="M67.23,219l26.66,12.55s10.91-24.14,11.85-27.44,3.88-8.51.86-15.39-11.09-9.4-15.58-6.46C81.1,188.85,67.23,219,67.23,219Z" style="fill:#23b781"/><path d="M151.34,220.32c1.25,0,15.6,7.51,15.6,7.51l8.21-27.05c-12.31-8.2-22.21-17.41-29.35-19.33l3.76,22.35Z" style="fill:#23b781"/><path d="M67.23,219a1.72,1.72,0,0,1,.54.18l1.47.64,5.31,2.46,17.76,8.2,2.17,1-.32.12c3.07-6.36,5.78-12.06,7.7-16.16.93-2,1.67-3.65,2.24-4.86.22-.53.43-1,.59-1.31a2,2,0,0,1,.25-.45,1.48,1.48,0,0,1-.16.49c-.11.31-.27.76-.52,1.36-.47,1.16-1.16,2.84-2.05,4.92-1.82,4.1-4.49,9.86-7.56,16.23V232h-.23l-2.17-1-17.7-8.2-5.33-2.54-1.45-.72C67.4,219.15,67.21,219,67.23,219Z" style="fill:#263238"/><path d="M148.88,198.12a9.79,9.79,0,0,1,.55,1.66c.37,1.15.84,2.71,1.42,4.57a55.35,55.35,0,0,1,2.93,15.5,33.57,33.57,0,0,1-1.43,8.61c-.74,2.59-1.6,4.82-2.34,6.71s-1.38,3.38-1.81,4.43a13.43,13.43,0,0,1-.71,1.6,1.09,1.09,0,0,1,0-.44l.43-1.22c.41-1.15,1-2.67,1.66-4.5s1.52-4.1,2.21-6.7a33,33,0,0,0,1.38-8.49,58.5,58.5,0,0,0-2.75-15.4c-.55-2-1-3.52-1.25-4.61-.15-.55-.23-1-.29-1.27a1.7,1.7,0,0,1,0-.45Z" style="fill:#263238"/><path d="M126.26,192.72A17.55,17.55,0,0,0,121,182.35a9.26,9.26,0,0,1-3.39-4.74c-.35-2.52,1.83-4.88,1.48-7.4-.45-3.14-4.39-4.49-5.78-7.34-1.89-3.83,1.39-8.82-.64-12.57-1.21-2.25-4.1-3.46-4.71-6-.37-1.62,2.7-4,3.42-7.48,1.62-7.91,2.44-14-5.23-18.64L101.66,112a16.67,16.67,0,0,0-9.35,13.74c0,2.73,1.35,5.47.19,7.91-1.67,3.43-5.52,5.54-6.69,9.17-1.68,5.19,2.91,11,.92,16-1.19,3-4.3,4.68-6.15,7.22a11,11,0,0,0,.66,13.9A13.94,13.94,0,0,0,76,195.62a6.53,6.53,0,0,0,1.83,3.16,6.4,6.4,0,0,0,3.25,1.65c3.55.19,5.56-3.81,8.21-6.15a11,11,0,0,1,14.92.39c2.73,2.83,3.82,7.07,7,9.39a9.35,9.35,0,0,0,11-.57,12.3,12.3,0,0,0,4-10.77Z" style="fill:#1d394f"/><path d="M91.35,229.9c-5.07,8.32-8.59,13.1-8.59,13.1l45.43,27.68L122.9,283,64,258.7s-5.82-6-3.77-12.63l9.41-25.93Z" style="fill:#ffbe9d"/><path d="M71.7,247.22a41.15,41.15,0,0,1,5.44-2.81,41.16,41.16,0,0,1,6-1.41,12.44,12.44,0,0,0-6.15.88A12.54,12.54,0,0,0,71.7,247.22Z" style="fill:#eb996e"/><path d="M163.44,279.11l-11.34-5.44-22.19-1.74-1.8-1.25L122.82,283a36.17,36.17,0,0,0,8.82,3l18.78-.6,9.72,1Z" style="fill:#ffbe9d"/><path d="M227.18,235.39l-63.74.51a4.12,4.12,0,0,0-4.37,3l-6.95,46.46H119.31a1.92,1.92,0,0,0,0,3.83H224.23l7.18-49a4.12,4.12,0,0,0-2.44-4.48,4.4,4.4,0,0,0-1.79-.32Z" style="fill:#d8d8d8"/><path d="M192.62,265.78a4,4,0,1,0-4-4A4,4,0,0,0,192.62,265.78Z" style="fill:#fff"/><path d="M154.7,288.87s2.05-11.81,4.54-26.43,4.28-26.45,4.1-26.47-2.05,11.81-4.54,26.43S154.52,288.85,154.7,288.87Z" style="fill:#263238"/><path d="M146.05,117.82a11.13,11.13,0,0,0-4.67-6.8c-1.15-.68-2.46-1-3.63-1.69a42.31,42.31,0,0,1-3.94-2.84,14,14,0,0,0-20.3,5.16c-2.75-2.05-7.5-1.21-10.74,0A12.3,12.3,0,0,0,96,120.06l15.13,4.61a40.58,40.58,0,0,0,10.4,8.55,21.07,21.07,0,0,0,13,2.65,14.37,14.37,0,0,0,10.72-7.38,15.07,15.07,0,0,0,.74-10.67Z" style="fill:#1d394f"/><path d="M123.56,131.89c-.13.49-1.87.47-3.88.94s-3.57,1.23-3.89.84,0-.65.69-1.19a6.77,6.77,0,0,1,2.81-1.37,6.58,6.58,0,0,1,3.12,0C123.19,131.34,123.6,131.66,123.56,131.89Z" style="fill:#1d394f"/><path d="M139.61,131.52c-.24.43-1.49.16-2.93.31s-2.6.55-2.93.18,0-.59.49-1a4.29,4.29,0,0,1,4.74-.39C139.51,130.93,139.74,131.32,139.61,131.52Z" style="fill:#1d394f"/><path d="M104.68,117.31c-2.47.82-5.23,7.53-4.52,10a7.62,7.62,0,0,0,5.54,4.92,14.71,14.71,0,0,0,7.67-.49c3.51-1.07,7.2-3.49,7.44-7.14a14.33,14.33,0,0,0,13.41,3.67c4.7-1.21,8.2-8.38,9.49-13.06Z" style="fill:#1d394f"/><path d="M391.64,53.25h-88a18.9,18.9,0,0,0-18.91,18.89v88a18.9,18.9,0,0,0,18.9,18.9h88a18.91,18.91,0,0,0,18.91-18.9v-88a18.91,18.91,0,0,0-18.91-18.91Z" style="fill:#069550"/><path d="M241.58,82.88l1.36-.86a5.31,5.31,0,0,1,1.95-.73,5.13,5.13,0,0,1,5.3,2.58c2.2,4,4.9,9.58,4.9,9.58l-5.74,9.11h-2c-2,1.34-7-1.36-10.29-3.38s-1.68-4-1.68-4c-2-2.86.78-4,.78-4a2.93,2.93,0,0,1-.49-1.13,3.17,3.17,0,0,1,.47-2.37,3.14,3.14,0,0,1,.88-.86" style="fill:#f9ae83"/><path d="M238.62,54.07l-41.62,8,11.17,58.26,41.61-8Z" style="fill:#ff4964"/><path d="M204,75.38c0-.14,6.84-1.58,15.34-3.2s15.41-2.85,15.43-2.71-6.84,1.57-15.34,3.19S204,75.54,204,75.38Z" style="fill:#fff"/><path d="M204.73,79.52c0-.14,6.84-1.56,15.34-3.18s15.41-2.84,15.43-2.72-6.84,1.58-15.32,3.2S204.77,79.66,204.73,79.52Z" style="fill:#fff"/><path d="M205.57,83.64c0-.14,6.84-1.56,15.33-3.2s15.4-2.84,15.44-2.7S229.5,79.3,221,80.94,205.57,83.76,205.57,83.64Z" style="fill:#fff"/><path d="M206.31,87.74c0-.12,6.84-1.56,15.35-3.18s15.4-2.84,15.42-2.7-6.84,1.56-15.34,3.18S206.33,87.88,206.31,87.74Z" style="fill:#fff"/><path d="M207.09,91.86c0-.14,6.84-1.56,15.35-3.18s15.4-2.84,15.44-2.72-6.84,1.56-15.34,3.2S207.13,92,207.09,91.86Z" style="fill:#fff"/><path d="M207.89,96c0-.14,6.84-1.56,15.35-3.2s15.4-2.84,15.42-2.7-6.84,1.56-15.34,3.18S207.91,96.1,207.89,96Z" style="fill:#fff"/><path d="M208.67,100.09c0-.12,6.84-1.56,15.35-3.19s15.4-2.84,15.42-2.7-6.84,1.56-15.32,3.19S208.71,100.23,208.67,100.09Z" style="fill:#fff"/><path d="M209.57,104.21c0-.14,6.84-1.56,15.33-3.2s15.42-2.84,15.44-2.7-6.84,1.56-15.34,3.2S209.57,104.35,209.57,104.21Z" style="fill:#fff"/><path d="M210.25,108.33c0-.14,6.84-1.58,15.35-3.2s15.4-2.84,15.42-2.7-6.84,1.56-15.34,3.18S210.27,108.45,210.25,108.33Z" style="fill:#fff"/><path d="M245.26,81.24c-.32,0-12.64,2-12.64,2-.22,1.14.44,2.74,3.36,2.78s5.22-.18,5.22-.18,3.06,6.36,6,7.06,1.52-6.1,1.52-6.1Z" style="fill:#f9ae83"/><path d="M386.54,41.08a22,22,0,0,0,2.26-7.72,7.4,7.4,0,0,0-3.37-6.9c-2.16-1.14-4.84-.62-7.14-1.44a11.89,11.89,0,0,1-3.68-2.73,11.51,11.51,0,0,1-2.32-3.95c-1.26-2.83.5-3.85-1.64-6C367.83,9.44,366,9,362.41,10.8A45.92,45.92,0,0,0,348.3,5.57c-3.82-.12-8.18.2-10.84,2.94-2,2.12-3.4,4.82-6,6.36-3.51,2.13-8,.32-12,.46a2.36,2.36,0,0,0-1.2.22,2.32,2.32,0,0,0-.94.79,2.41,2.41,0,0,0,0,1,2.62,2.62,0,0,0,.36,1c1.06,2.18,2.1,4.38,3.16,6.58a6.32,6.32,0,0,1-2.74.56,6.42,6.42,0,0,1-2.72-.7,18.51,18.51,0,0,0,4.84,11.68,1.72,1.72,0,0,0-.63-.16,1.62,1.62,0,0,0-1.55,1,4,4,0,0,0,0,2.6,19.15,19.15,0,0,0,23.48,13.47,20.31,20.31,0,0,0,2.52-.88l22.51,1.7a5.69,5.69,0,0,0,3.88,3.6c2.52-1.86,2.92-2.9,2.92-2.9,1.56,1.14.34.56,1.56,1.14a5.54,5.54,0,0,0,6.4-1.35,5.4,5.4,0,0,0,1.14-2,6.48,6.48,0,0,1,1.63-3.3,11.1,11.1,0,0,1,3.28-1.82,9.4,9.4,0,0,0,4.12-4.22,6.77,6.77,0,0,1-2.69-.61,6.61,6.61,0,0,1-2.21-1.64Z" style="fill:#1d394f"/><path d="M370.61,31.36l.58,46.46c.1,8-1.38,19.54-13.86,19.12-10.83-1.18-13.71-11.42-13.79-18.78,0-3.5,0-6.42-.1-6.79,0,0-11.84-1-12.84-12.66-.49-5.66-.55-17.39-.46-28A21.88,21.88,0,0,1,350.42,9.17h1.14C363.79,8.91,370.77,19.2,370.61,31.36Z" style="fill:#f9ae83"/><path d="M343.44,71.38a28.27,28.27,0,0,0,14.91-5.63s-3.09,8.83-14.85,8.63Z" style="fill:#f58a69"/><path d="M350.14,35.6c.24.24,1.58-.86,3.54-.9s3.43.9,3.65.66-.15-.56-.78-1a4.92,4.92,0,0,0-2.93-.82,4.75,4.75,0,0,0-2.82,1C350.22,35,350,35.5,350.14,35.6Z" style="fill:#1d394f"/><path d="M349.78,40a1.63,1.63,0,0,0,1.64,1.49,1.52,1.52,0,0,0,.59-.12,1.43,1.43,0,0,0,.5-.34,1.58,1.58,0,0,0,.34-.5,1.71,1.71,0,0,0,.11-.59,1.59,1.59,0,0,0-.52-1.07,1.67,1.67,0,0,0-1.12-.43,1.52,1.52,0,0,0-.59.12,1.59,1.59,0,0,0-.84.85A1.71,1.71,0,0,0,349.78,40Z" style="fill:#1d394f"/><path d="M345.24,49.23a12.58,12.58,0,0,0-3-.3c-.46,0-.92,0-1-.38a2.5,2.5,0,0,1,.22-1.4c.34-1.14.72-2.34,1.1-3.59A60.71,60.71,0,0,0,345,34.18a62.15,62.15,0,0,0-3.12,9.19c-.38,1.26-.72,2.46-1.06,3.6a2.77,2.77,0,0,0-.1,1.82,1.08,1.08,0,0,0,.33.4,1.19,1.19,0,0,0,.47.22,3.57,3.57,0,0,0,.8,0A11.89,11.89,0,0,0,345.24,49.23Z" style="fill:#c97355"/><path d="M351,28.24c.18.42,1.76.1,3.64.2s3.43.5,3.65,0-.2-.6-.85-1a6.23,6.23,0,0,0-2.76-.78,5.67,5.67,0,0,0-2.78.56C351.22,27.64,350.9,28,351,28.24Z" style="fill:#1d394f"/><path d="M332.36,31.86c.22.36,1.74,0,3.6,0s3.38.18,3.58-.18-.22-.5-.86-.78a6.83,6.83,0,0,0-5.46.22C332.58,31.36,332.28,31.7,332.36,31.86Z" style="fill:#1d394f"/><path d="M370.29,40.18c.2,0,7.86-3,8.2,5s-7.8,6.7-7.82,6.48S370.29,40.18,370.29,40.18Z" style="fill:#f9ae83"/><path d="M373,48.57a.73.73,0,0,1,.4.18,1.4,1.4,0,0,0,1,0,3.45,3.45,0,0,0,1.48-3.16,4.64,4.64,0,0,0-.48-2,1.59,1.59,0,0,0-.42-.66,1.64,1.64,0,0,0-.68-.38.67.67,0,0,0-.48.06.7.7,0,0,0-.32.36v.4a.47.47,0,0,1-.14-.46.94.94,0,0,1,1.06-.76,2,2,0,0,1,.92.4,2.06,2.06,0,0,1,.6.8,4.69,4.69,0,0,1,.58,2.2,3.61,3.61,0,0,1-.42,2.06,3.75,3.75,0,0,1-1.48,1.5,1.53,1.53,0,0,1-.67.06,1.58,1.58,0,0,1-.63-.22C373,48.75,373,48.59,373,48.57Z" style="fill:#c97355"/><path d="M347.12,54.79a12.41,12.41,0,0,0,2.6-2.14,9.07,9.07,0,0,0,1.1-2c.24-.58.42-1,.5-.92s0,.42,0,1a6,6,0,0,1-1,2.36,5,5,0,0,1-2,1.56A2.33,2.33,0,0,1,347.12,54.79Z" style="fill:#c97355"/><path d="M381,27.18a39.47,39.47,0,0,1-3-9.36c-.92-3.15-2.68-6.43-5.78-7.53a8.53,8.53,0,0,0-8.5.8,11,11,0,0,0-8.29-8.54,27.32,27.32,0,0,0-14.5,1.14,30.12,30.12,0,0,0-9.48,7.36,41,41,0,0,0-4,5L323.91,27a4.74,4.74,0,0,0-1,1,2,2,0,0,0-.53,1.46,2,2,0,0,0,.65,1.42,2,2,0,0,0,2.83-.06l.05-.06h0a17.85,17.85,0,0,1,.92,1.86h0v.12a12.81,12.81,0,0,0,.61,1.16l2.74,12c.18-3.31,0-14.77.1-18a18.31,18.31,0,0,0,13.08-6c1.8-2,3.22-4.48,5.62-5.66,3.1-1.55,6.81-.42,10,.7l-.14-.12A14.4,14.4,0,0,1,363.35,20a45.52,45.52,0,0,0,2,19.32c.3.92,1.14,2.84,2,3.2,1.8.7,2.28-1.14,3.36-2.1A4.83,4.83,0,0,1,374,39.6a70.26,70.26,0,0,0,2.2-8.32,7.16,7.16,0,0,0,3.38.22c-.36-.82-.7-1.64-1-2.48a3.7,3.7,0,0,0,1.44.66,1.3,1.3,0,0,0,.78-.09,1.2,1.2,0,0,0,.58-.51C381.73,28.48,381.31,27.78,381,27.18Z" style="fill:#1d394f"/><path d="M332.28,36.34c.24.24,1.58-.86,3.54-.9s3.42.9,3.64.64-.16-.54-.78-1a4.94,4.94,0,0,0-5.74.16C332.36,35.78,332.16,36.22,332.28,36.34Z" style="fill:#1d394f"/><path d="M333.38,40.22a1.57,1.57,0,0,0,.52,1.07,1.54,1.54,0,0,0,1.12.41,1.35,1.35,0,0,0,.59-.11,1.41,1.41,0,0,0,.5-.33,1.43,1.43,0,0,0,.34-.5,1.77,1.77,0,0,0,.11-.6,1.69,1.69,0,0,0-1.67-1.48,1.53,1.53,0,0,0-.6.12,1.56,1.56,0,0,0-.5.33,1.41,1.41,0,0,0-.33.5A1.32,1.32,0,0,0,333.38,40.22Z" style="fill:#1d394f"/><path d="M324.49,83.68l-42.31,27.71L256.39,91.26l-8,12.73s15,17.38,20.58,23.29,9.27,9,13.65,8.48,41-14.81,41-14.81l5.56-38.85-2.32.56a7.81,7.81,0,0,0-2.36,1Z" style="fill:#ffbc4f"/><path d="M371.73,74.22c-9.46,6-19,8.2-28.67,4.34l-14.52,3.7-7.07,12.28a11.24,11.24,0,0,0-1.46,6.39l2.78,47-8.56,29.85,83.83.74-4.14-22.19-10.28-79.7Z" style="fill:#ffbc4f"/><path d="M384.55,112.39l-2.62-36s19.73,1.82,26.25,15.74c5.5,11.73,22,45.84,23.65,50.66,4.76,14.17-4,34.83-34.73,33.71l-3.46-19.24Z" style="fill:#ffbc4f"/><path d="M400.3,142.34a10,10,0,0,0,.5,1.42c.34.86.84,2,1.42,3.32l1.48,3.3a12.67,12.67,0,0,0,.64,1.34,7,7,0,0,0-.48-1.4c-.34-.86-.84-2-1.42-3.34L401,143.7a11.37,11.37,0,0,0-.66-1.36Z" style="fill:#bf7811"/><path d="M389.4,114s.12-2.28.12-5.1a39.48,39.48,0,0,0-.12-5.1,39.48,39.48,0,0,0-.12,5.1C389.28,111.75,389.34,114,389.4,114Z" style="fill:#bf7811"/><path d="M392.3,98.7a3,3,0,0,0,.18-.58c.1-.36.26-.9.46-1.54a27,27,0,0,1,2.2-4.84,25.28,25.28,0,0,1,3.16-4.26c.46-.5.86-.9,1.14-1.16l.4-.44s-.18.12-.48.36a12.49,12.49,0,0,0-1.18,1.12,23.14,23.14,0,0,0-3.24,4.26,23.72,23.72,0,0,0-2.16,4.92c-.18.64-.32,1.18-.4,1.56a3.09,3.09,0,0,0-.08.6Z" style="fill:#bf7811"/><path d="M322.69,96.48a3.78,3.78,0,0,1,.1,1.16v3.23c0,2.72-.3,6.46-.64,10.56s-.48,7.86-.42,10.56a20,20,0,0,0,.14,3.19,5.82,5.82,0,0,1,0,1.18,4.25,4.25,0,0,1-.22-1.17c-.12-.73-.22-1.84-.3-3.2a83.3,83.3,0,0,1,.26-10.6c.34-4.12.68-7.84.8-10.54,0-1.34.1-2.44.12-3.21A5.07,5.07,0,0,1,322.69,96.48Z" style="fill:#bf7811"/><path d="M412.89,149a8,8,0,0,1-1.37.76c-.88.46-2.12,1.16-3.66,2s-3.32,2-5.42,3.13c-1.06.54-2.18,1.08-3.36,1.6L395.42,158l-1.12.46.14-.28c.82,5.1,1.5,9.66,2,13L397,175a7.72,7.72,0,0,1,.14,1.44,8.35,8.35,0,0,1-.32-1.4c-.18-1-.4-2.3-.68-3.88-.58-3.28-1.32-7.82-2.14-12.92v-.18h.18l1.14-.46,3.66-1.5c1.18-.52,2.28-1,3.32-1.57,2.1-1.06,4-2.15,5.48-3s2.85-1.54,3.75-2l1.06-.44C412.74,149,412.86,148.94,412.89,149Z" style="fill:#bf7811"/><path d="M417.35,142.8s-1,.28-2.52.84a20.3,20.3,0,0,0-5.53,3.18,20.09,20.09,0,0,0-4.16,4.8c-.86,1.4-1.24,2.37-1.32,2.33a3.58,3.58,0,0,1,.2-.71,11.92,11.92,0,0,1,.82-1.78,17.38,17.38,0,0,1,9.87-8.06,11.37,11.37,0,0,1,2-.46C417.09,142.78,417.35,142.76,417.35,142.8Z" style="fill:#bf7811"/><path d="M385.42,178.11,406,128.44a2.74,2.74,0,0,0,.38-1.45,2.78,2.78,0,0,0-.43-1.43,2.71,2.71,0,0,0-1.12-1,2.67,2.67,0,0,0-1.47-.25h-4.14a2.66,2.66,0,0,1-1.05-.09,2.61,2.61,0,0,1-1.6-1.29,2.54,2.54,0,0,1-.31-1l-.14-1.82a2.52,2.52,0,0,0-.3-1,2.62,2.62,0,0,0-.67-.81,2.75,2.75,0,0,0-.93-.48,2.79,2.79,0,0,0-1-.09H373.51a6.92,6.92,0,0,0-4.56,2l-1.6,1.56a6.92,6.92,0,0,1-4.56,2H337.72a7,7,0,0,0-6,4.11l-20.41,50.69Z" style="fill:#ff725e"/><path d="M385.42,178.11,406,128.44a2.74,2.74,0,0,0,.38-1.45,2.78,2.78,0,0,0-.43-1.43,2.71,2.71,0,0,0-1.12-1,2.67,2.67,0,0,0-1.47-.25h-4.14a2.66,2.66,0,0,1-1.05-.09,2.61,2.61,0,0,1-1.6-1.29,2.54,2.54,0,0,1-.31-1l-.14-1.82a2.52,2.52,0,0,0-.3-1,2.62,2.62,0,0,0-.67-.81,2.75,2.75,0,0,0-.93-.48,2.79,2.79,0,0,0-1-.09H373.51a6.92,6.92,0,0,0-4.56,2l-1.6,1.56a6.92,6.92,0,0,1-4.56,2H337.72a7,7,0,0,0-6,4.11l-20.41,50.69Z" style="fill:#e23b5b"/><path d="M388.82,161.25l7.78-30a3,3,0,0,0,.13-1.36,2.91,2.91,0,0,0-.46-1.27,3,3,0,0,0-1-1,2.94,2.94,0,0,0-1.29-.42H333.12a2.7,2.7,0,0,0-2.58,2.24l-11.33,45.19c-.48,2,.3,3.18,2,3.14h61.26a2.63,2.63,0,0,0,1.67-.66,2.67,2.67,0,0,0,.9-1.56Z" style="fill:#e0e0e0"/><path d="M384.61,176.75l3.31-47.35a2.92,2.92,0,0,0-.77-2.18,3.13,3.13,0,0,0-2.15-.93H322v50.4Z" style="fill:#ececec"/><path d="M385.32,177.83l-7.51-48.75a3.48,3.48,0,0,0-3.42-2.72H310.57a3.52,3.52,0,0,0-1.65.39,3.45,3.45,0,0,0-1.57,4.43l13.78,44.61Z" style="fill:#fafafa"/><path d="M385.42,178.09,370,132.44a4.59,4.59,0,0,0-4.32-3.18H299.85a3.17,3.17,0,0,0-1.44.39,3.22,3.22,0,0,0-1.11,1,3.34,3.34,0,0,0-.54,1.39,3.23,3.23,0,0,0,.14,1.48l14.41,44.59Z" style="fill:#ff4964"/><g style="opacity:0.30000001192092896"><path d="M353.62,170.45l3.65.2a34,34,0,0,0,16-2.84,6,6,0,0,0,2.18-1.26,6.15,6.15,0,0,0,1.46-2,5.19,5.19,0,0,0-.35-2.78,5,5,0,0,0-1.75-2.18,38.72,38.72,0,0,1-4.44-3.54,4.15,4.15,0,0,1-.6-5.19l.34.26c.88,2.24,3.36,3.35,5.42,4.63a19.13,19.13,0,0,1,8,10.5,8.29,8.29,0,0,1-.5,7.14,8.84,8.84,0,0,1-4.35,2.84,44.32,44.32,0,0,1-15.6,2h-6.82c-1.63-.44-2.15-1.28-3.13-2.66a4.38,4.38,0,0,1-.59-2.62,4.42,4.42,0,0,1,1.07-2.46Z" style="opacity:0.30000001192092896;isolation:isolate"/></g><path d="M353.62,170.45l17.17-2.58,6.66-3.82a3.11,3.11,0,0,0,1.07-1,2.9,2.9,0,0,0,.45-1.4h0a3,3,0,0,0-1.9-2.9c-2.1-.9-5.46-2-6.88-4.58-2-3.61,0-4.35,0-4.35l14.33,5.6,10.14,6.91,2,11.52-14.15,4.62s-15.76.88-20.12.4-4.34-2.52-4.34-2.52a4,4,0,0,1-2.43-2.92c-2.12-2-2-2.92-2-2.92" style="fill:#f9ae83"/><path d="M374,172.75a6.1,6.1,0,0,0-.72.14l-2,.42a42.63,42.63,0,0,1-13,.4l-2-.26a2.89,2.89,0,0,0-.72,0,2.88,2.88,0,0,0,.7.18c.46.12,1.12.24,2,.38a37.78,37.78,0,0,0,6.55.38,36.77,36.77,0,0,0,6.52-.8c.82-.2,1.48-.36,2-.52A3.43,3.43,0,0,0,374,172.75Z" style="fill:#eb996e"/><path d="M375.63,175.41a2.78,2.78,0,0,0-.7.12c-.44.12-1.1.26-2,.42a41.71,41.71,0,0,1-6.4.76,40.52,40.52,0,0,1-6.42-.26,11.29,11.29,0,0,1-2-.26,2.89,2.89,0,0,0-.72,0,2.7,2.7,0,0,0,.69.18,17.11,17.11,0,0,0,2,.36,33.27,33.27,0,0,0,6.46.36,33.94,33.94,0,0,0,6.42-.86c.8-.18,1.44-.36,1.88-.5a3.13,3.13,0,0,0,.78-.32Z" style="fill:#eb996e"/></svg>