<svg id="Layer_1" data-name="Layer 1" xmlns="http://www.w3.org/2000/svg" xmlns:xlink="http://www.w3.org/1999/xlink" viewBox="0 0 1090 361"><defs><clipPath id="clip-path"><rect x="724" y="126" width="67" height="50" style="fill:none"/></clipPath><clipPath id="clip-path-2"><rect x="514" y="126" width="62" height="50" style="fill:none"/></clipPath><clipPath id="clip-path-3"><rect x="546" y="144" width="32" height="32" style="fill:none"/></clipPath><clipPath id="clip-path-4"><rect x="514" y="129" width="47" height="47" style="fill:none"/></clipPath><clipPath id="clip-path-5"><rect x="92.5" y="126" width="55" height="50" style="fill:none"/></clipPath><clipPath id="clip-path-6"><rect x="301.5" y="126" width="62" height="50" style="fill:none"/></clipPath><clipPath id="clip-path-7"><rect x="939.5" y="126" width="62" height="50" style="fill:none"/></clipPath></defs><path d="M14.32,180.37C6.49,180.37.05,186.74,1,194.52a120.37,120.37,0,0,0,239.91-14.15h-.1a92,92,0,0,1,184,0h-.1a120.37,120.37,0,1,0,240.74,0h-.1a92,92,0,1,1,184,0h-.1a120.38,120.38,0,0,0,239.92,14.15c.92-7.78-5.52-14.15-13.35-14.15s-14.07,6.39-15.28,14.13a92,92,0,0,1-182.92-14.13h.1a120.38,120.38,0,0,0-240.75,0h.1a92,92,0,0,1-184,0h.1a120.38,120.38,0,0,0-240.75,0h.1A92,92,0,0,1,29.59,194.5C28.39,186.76,22.15,180.37,14.32,180.37Z" style="fill:#d9f4e3;fill-rule:evenodd"/><circle cx="120.5" cy="180.5" r="91.5" style="fill:#fff"/><circle cx="332.5" cy="180.5" r="91.5" style="fill:#fff"/><circle cx="545.5" cy="180.5" r="91.5" style="fill:#fff"/><circle cx="757.5" cy="180.5" r="91.5" style="fill:#fff"/><g style="clip-path:url(#clip-path)"><path d="M726,168h65a8,8,0,0,1-8,8H734A8,8,0,0,1,726,168Z" style="fill:#1fb767"/><path d="M748,169h22a3,3,0,0,1-3,3H751A3,3,0,0,1,748,169Z" style="fill:#001b3d"/><path d="M732,141a6,6,0,0,1,6-6h41a6,6,0,0,1,6,6v27H732Z" style="fill:#001b3d"/><path d="M736,142a2,2,0,0,1,2-2h13a2,2,0,0,1,2,2v11.13a1.77,1.77,0,0,1-1.77,1.78,1.78,1.78,0,0,0-1.78,1.78v1.65l-4-3a2,2,0,0,0-1.22-.41H738a2,2,0,0,1-2-2Z" style="fill:#fff"/><line x1="740.28" y1="143.68" x2="748.77" y2="143.68" style="fill:none;stroke:#1e88e5;stroke-linecap:round;stroke-width:2px"/><line x1="740.28" y1="147.03" x2="748.77" y2="147.03" style="fill:none;stroke:#1e88e5;stroke-linecap:round;stroke-width:2px"/><line x1="740.28" y1="150.37" x2="748.77" y2="150.37" style="fill:none;stroke:#1e88e5;stroke-linecap:round;stroke-width:2px"/><path d="M781.61,126l2.58,1.62,3,0-1.62,2.58,0,3-2.58-1.62-3,0,1.62-2.57Z" style="fill:#ffa600"/><path d="M724,130a2,2,0,0,1,2-2h14.8a2,2,0,0,1,2,2v12.76a2,2,0,0,1-2,2h-7.3a2,2,0,0,0-1.48.66l-3.71,4.08v-2.74a2,2,0,0,0-2-2H726a2,2,0,0,1-2-2Z" style="fill:#1fb767"/><path d="M738.53,133.45a.63.63,0,0,1,0,.91l-5,5a.64.64,0,0,1-.91-.91l5-5A.63.63,0,0,1,738.53,133.45Z" style="fill:#fff;fill-rule:evenodd"/><path d="M729.45,135.27a.65.65,0,0,1,.91,0l3.18,3.17a.64.64,0,1,1-.91.91l-3.18-3.17A.65.65,0,0,1,729.45,135.27Z" style="fill:#fff;fill-rule:evenodd"/></g><path d="M713.1,208h-2.16V196.43h2.16Zm2.16,0v-8.21h1.21a.49.49,0,0,1,.5.36l.13.61a4.57,4.57,0,0,1,.44-.44,3.23,3.23,0,0,1,.51-.34,2.35,2.35,0,0,1,.57-.23,2.48,2.48,0,0,1,.68-.09,1.87,1.87,0,0,1,1.28.43,2.6,2.6,0,0,1,.75,1.11,2.71,2.71,0,0,1,.48-.7,2.92,2.92,0,0,1,.63-.48,3,3,0,0,1,.73-.27,3.46,3.46,0,0,1,.78-.09,3.23,3.23,0,0,1,1.21.21,2.32,2.32,0,0,1,.89.61,2.59,2.59,0,0,1,.54,1,4.08,4.08,0,0,1,.19,1.32V208h-2v-5.22a1.73,1.73,0,0,0-.34-1.18,1.25,1.25,0,0,0-1-.4,1.8,1.8,0,0,0-.57.1,1.55,1.55,0,0,0-.46.31,1.27,1.27,0,0,0-.3.49,1.76,1.76,0,0,0-.11.68V208h-2v-5.22a1.79,1.79,0,0,0-.33-1.2,1.19,1.19,0,0,0-1-.38,1.54,1.54,0,0,0-.81.22,2.75,2.75,0,0,0-.69.57v6Zm15.38-2.13a2,2,0,0,0,.73.58,2.2,2.2,0,0,0,.86.17,1.92,1.92,0,0,0,.81-.17,1.65,1.65,0,0,0,.61-.51,2.5,2.5,0,0,0,.39-.87,5,5,0,0,0,.14-1.24,5.2,5.2,0,0,0-.12-1.21,2.5,2.5,0,0,0-.33-.82,1.36,1.36,0,0,0-.53-.46,1.68,1.68,0,0,0-.7-.14,2,2,0,0,0-1,.26,3.24,3.24,0,0,0-.82.73Zm-.1-5a4.2,4.2,0,0,1,1.14-.92,3.13,3.13,0,0,1,1.5-.35,2.65,2.65,0,0,1,1.23.28,2.77,2.77,0,0,1,1,.82,3.63,3.63,0,0,1,.62,1.31,6.4,6.4,0,0,1,.23,1.78,5.84,5.84,0,0,1-.25,1.71,4.29,4.29,0,0,1-.71,1.36,3.38,3.38,0,0,1-1.12.9,3.25,3.25,0,0,1-1.45.32,2.7,2.7,0,0,1-2.05-.8v3.36h-2V199.79h1.21a.49.49,0,0,1,.51.36Zm9.22-4.8V208h-2V196.11ZM747,203a2.17,2.17,0,0,0-.11-.72,1.58,1.58,0,0,0-.32-.6,1.51,1.51,0,0,0-.55-.4,1.86,1.86,0,0,0-.77-.15,1.82,1.82,0,0,0-1.35.49,2.4,2.4,0,0,0-.62,1.38Zm-3.76,1.19a3.76,3.76,0,0,0,.22,1.1,2.37,2.37,0,0,0,.46.76,1.92,1.92,0,0,0,.68.45,2.75,2.75,0,0,0,.88.14,2.88,2.88,0,0,0,.83-.11,4.52,4.52,0,0,0,.61-.25l.45-.25a.86.86,0,0,1,.39-.11.39.39,0,0,1,.36.19l.57.72a3.39,3.39,0,0,1-.73.64,4.27,4.27,0,0,1-.86.42,5.38,5.38,0,0,1-.9.22,6.88,6.88,0,0,1-.89.06,4.36,4.36,0,0,1-1.59-.28,3.48,3.48,0,0,1-1.28-.84,3.86,3.86,0,0,1-.86-1.38,5.29,5.29,0,0,1-.31-1.9,4.56,4.56,0,0,1,.27-1.58,3.74,3.74,0,0,1,2-2.16,4.15,4.15,0,0,1,1.65-.32,4.09,4.09,0,0,1,1.43.25,3.11,3.11,0,0,1,1.13.73,3.25,3.25,0,0,1,.74,1.17,4.27,4.27,0,0,1,.27,1.57,1.24,1.24,0,0,1-.1.61.39.39,0,0,1-.36.15Zm7,3.86v-8.21h1.21a.47.47,0,0,1,.5.36l.13.61a6.16,6.16,0,0,1,.45-.44,2.83,2.83,0,0,1,.51-.34,2.35,2.35,0,0,1,.57-.23,2.48,2.48,0,0,1,.68-.09,1.84,1.84,0,0,1,1.27.43,2.44,2.44,0,0,1,.75,1.11,2.51,2.51,0,0,1,.49-.7,2.92,2.92,0,0,1,.63-.48,3.13,3.13,0,0,1,.72-.27,3.61,3.61,0,0,1,.79-.09,3.27,3.27,0,0,1,1.21.21,2.32,2.32,0,0,1,.89.61,2.73,2.73,0,0,1,.54,1,4.08,4.08,0,0,1,.19,1.32V208h-2v-5.22a1.73,1.73,0,0,0-.35-1.18,1.24,1.24,0,0,0-1-.4,1.69,1.69,0,0,0-.56.1,1.33,1.33,0,0,0-.46.31,1.27,1.27,0,0,0-.3.49,1.76,1.76,0,0,0-.12.68V208h-2v-5.22a1.74,1.74,0,0,0-.34-1.2,1.19,1.19,0,0,0-1-.38,1.53,1.53,0,0,0-.8.22,2.44,2.44,0,0,0-.69.57v6ZM769,203a2.18,2.18,0,0,0-.12-.72,1.45,1.45,0,0,0-.32-.6,1.43,1.43,0,0,0-.55-.4,1.81,1.81,0,0,0-.76-.15,1.83,1.83,0,0,0-1.36.49,2.4,2.4,0,0,0-.62,1.38Zm-3.77,1.19a4.11,4.11,0,0,0,.22,1.1,2.39,2.39,0,0,0,.47.76,1.84,1.84,0,0,0,.68.45,2.71,2.71,0,0,0,.88.14,2.81,2.81,0,0,0,.82-.11,4,4,0,0,0,.61-.25l.46-.25a.82.82,0,0,1,.38-.11.41.41,0,0,1,.37.19l.57.72a3.44,3.44,0,0,1-.74.64,4,4,0,0,1-.86.42,5.38,5.38,0,0,1-.9.22,6.88,6.88,0,0,1-.89.06,4.36,4.36,0,0,1-1.59-.28,3.56,3.56,0,0,1-1.28-.84,4,4,0,0,1-.86-1.38,5.52,5.52,0,0,1-.31-1.9,4.56,4.56,0,0,1,.27-1.58,3.74,3.74,0,0,1,2-2.16,4.35,4.35,0,0,1,3.09-.07,3.15,3.15,0,0,1,1.12.73,3.25,3.25,0,0,1,.74,1.17,4.27,4.27,0,0,1,.27,1.57,1.4,1.4,0,0,1-.09.61.42.42,0,0,1-.37.15Zm8.87-3.34a5.53,5.53,0,0,1,.52-.46,3.58,3.58,0,0,1,.59-.36,3,3,0,0,1,.66-.23,3.13,3.13,0,0,1,.77-.09,2.78,2.78,0,0,1,1.19.24,2.15,2.15,0,0,1,.87.64,2.63,2.63,0,0,1,.52,1,3.87,3.87,0,0,1,.19,1.26V208h-2v-5.22a1.73,1.73,0,0,0-.34-1.16,1.28,1.28,0,0,0-1-.42,2.12,2.12,0,0,0-1,.23,3.82,3.82,0,0,0-.85.63V208h-2v-8.21h1.2a.49.49,0,0,1,.51.36Zm9.81,7.33a2.16,2.16,0,0,1-1.64-.6,2.35,2.35,0,0,1-.57-1.67v-4.59h-.84a.36.36,0,0,1-.27-.1.4.4,0,0,1-.12-.31v-.79l1.32-.21.42-2.24a.48.48,0,0,1,.15-.25.46.46,0,0,1,.29-.09h1v2.58h2.2v1.41h-2.2v4.45a.9.9,0,0,0,.19.6.68.68,0,0,0,.52.22,1.21,1.21,0,0,0,.3,0l.22-.1.17-.09a.24.24,0,0,1,.14-.05.2.2,0,0,1,.14.05.51.51,0,0,1,.12.13l.6,1a2.93,2.93,0,0,1-1,.54A3.48,3.48,0,0,1,783.88,208.13Zm7.56-3.63a8.86,8.86,0,0,0-1.44.15,4,4,0,0,0-.94.27,1.21,1.21,0,0,0-.5.39.86.86,0,0,0-.15.49.84.84,0,0,0,.3.74,1.36,1.36,0,0,0,.81.23,2.32,2.32,0,0,0,1.05-.22,3.39,3.39,0,0,0,.87-.67Zm-4.53-3.56a4.84,4.84,0,0,1,3.41-1.3,3.21,3.21,0,0,1,1.28.24,2.67,2.67,0,0,1,1.56,1.66,3.74,3.74,0,0,1,.2,1.28V208h-.89a1,1,0,0,1-.43-.08.61.61,0,0,1-.24-.34l-.18-.6a6.41,6.41,0,0,1-.61.5,3.1,3.1,0,0,1-.61.35,3.26,3.26,0,0,1-.69.22,3.94,3.94,0,0,1-.8.08,3.22,3.22,0,0,1-1-.14,2,2,0,0,1-.76-.42,2,2,0,0,1-.5-.7,2.59,2.59,0,0,1-.17-1,1.86,1.86,0,0,1,.1-.61,1.68,1.68,0,0,1,.34-.59,2.68,2.68,0,0,1,.61-.53,3.75,3.75,0,0,1,.92-.43,6.89,6.89,0,0,1,1.28-.3,11.47,11.47,0,0,1,1.67-.14v-.48a1.81,1.81,0,0,0-.35-1.22,1.29,1.29,0,0,0-1-.4,2.57,2.57,0,0,0-.8.11,3.13,3.13,0,0,0-.55.26l-.44.25a.9.9,0,0,1-.44.11.61.61,0,0,1-.35-.11,1.09,1.09,0,0,1-.23-.25Zm13.32.45a.64.64,0,0,1-.16.19.53.53,0,0,1-.23,0,.65.65,0,0,1-.31-.08l-.38-.17a3.87,3.87,0,0,0-.49-.19,2.46,2.46,0,0,0-.65-.08,1.55,1.55,0,0,0-.92.25.78.78,0,0,0-.33.65.66.66,0,0,0,.17.45,1.61,1.61,0,0,0,.46.31,5.71,5.71,0,0,0,.64.25c.24.07.49.14.73.23a5.21,5.21,0,0,1,.74.3,2.26,2.26,0,0,1,.64.41,1.89,1.89,0,0,1,.45.6,1.87,1.87,0,0,1,.18.85,2.7,2.7,0,0,1-.22,1.1,2.29,2.29,0,0,1-.62.86,3.09,3.09,0,0,1-1,.57,4.66,4.66,0,0,1-1.41.2,4.58,4.58,0,0,1-.83-.08,5,5,0,0,1-.78-.21,5.42,5.42,0,0,1-.69-.32,3.89,3.89,0,0,1-.55-.4l.46-.75a.7.7,0,0,1,.21-.21.56.56,0,0,1,.3-.07.59.59,0,0,1,.34.1l.39.23a3.39,3.39,0,0,0,.5.22,2.31,2.31,0,0,0,.75.1,1.82,1.82,0,0,0,.6-.08,1.32,1.32,0,0,0,.41-.22.87.87,0,0,0,.24-.31.84.84,0,0,0,.08-.38.68.68,0,0,0-.17-.47,1.63,1.63,0,0,0-.46-.32,4,4,0,0,0-.65-.24l-.74-.24a5.86,5.86,0,0,1-.75-.3,2.35,2.35,0,0,1-.64-.44,2,2,0,0,1-.46-.64,2.51,2.51,0,0,1,0-1.89,2.19,2.19,0,0,1,.59-.79,3,3,0,0,1,1-.55,4,4,0,0,1,1.35-.21,4.22,4.22,0,0,1,1.54.28,3.56,3.56,0,0,1,1.16.74Zm4.07-1.6V208h-2v-8.21Zm.28-2.39a1.13,1.13,0,0,1-.11.48,1.21,1.21,0,0,1-.28.39,1.13,1.13,0,0,1-.4.27,1.25,1.25,0,0,1-1,0,1.33,1.33,0,0,1-.66-.66,1.12,1.12,0,0,1-.1-.48,1.21,1.21,0,0,1,.1-.5,1.34,1.34,0,0,1,.27-.4,1.25,1.25,0,0,1,1.37-.26,1.11,1.11,0,0,1,.4.26,1.38,1.38,0,0,1,.28.4A1.22,1.22,0,0,1,804.58,197.4Z" style="fill:#008444"/><path d="M703.44,226l-1-2.65a3.92,3.92,0,0,1-.15-.42l-.16-.52c0,.19-.09.36-.14.53s-.1.3-.15.42l-1,2.64Zm2.61,3H704.9a.52.52,0,0,1-.31-.09.64.64,0,0,1-.18-.25l-.59-1.62h-3.3l-.59,1.62a.56.56,0,0,1-.17.24.55.55,0,0,1-.32.1h-1.15l3.13-7.95h1.5Zm2.67-3a1.46,1.46,0,0,0,.44-.06,1,1,0,0,0,.31-.2.79.79,0,0,0,.18-.29.9.9,0,0,0,.07-.37.86.86,0,0,0-.25-.66,1.25,1.25,0,0,0-1.5,0,.86.86,0,0,0-.25.66,1.15,1.15,0,0,0,.06.37.81.81,0,0,0,.19.29,1,1,0,0,0,.31.2A1.46,1.46,0,0,0,708.72,226Zm1.53,3.21a.4.4,0,0,0-.09-.27.72.72,0,0,0-.27-.16,1.57,1.57,0,0,0-.41-.08l-.48,0-.53,0-.53,0a1.18,1.18,0,0,0-.36.29.59.59,0,0,0-.14.4.5.5,0,0,0,.07.27.59.59,0,0,0,.24.23,1.38,1.38,0,0,0,.42.14,2.8,2.8,0,0,0,.63.06,3.23,3.23,0,0,0,.66-.06,1.57,1.57,0,0,0,.45-.16.68.68,0,0,0,.26-.24A.58.58,0,0,0,710.25,229.25Zm1.36-5.7v.5c0,.17-.1.27-.29.3l-.51.1a1.61,1.61,0,0,1,.11.63,1.58,1.58,0,0,1-.17.76,1.51,1.51,0,0,1-.46.57,2,2,0,0,1-.7.37,2.73,2.73,0,0,1-.87.13l-.32,0-.3,0c-.18.11-.27.22-.27.36a.28.28,0,0,0,.16.25,1.27,1.27,0,0,0,.42.11,4.8,4.8,0,0,0,.58,0l.68,0a3.85,3.85,0,0,1,.68.1,1.88,1.88,0,0,1,.59.21,1.16,1.16,0,0,1,.57,1.06,1.5,1.5,0,0,1-.19.73,2.07,2.07,0,0,1-.53.63,2.78,2.78,0,0,1-.86.44,3.73,3.73,0,0,1-1.16.17,4.57,4.57,0,0,1-1.11-.13,2.55,2.55,0,0,1-.78-.33,1.4,1.4,0,0,1-.47-.47,1.16,1.16,0,0,1-.15-.57.91.91,0,0,1,.23-.65,1.49,1.49,0,0,1,.66-.43,1,1,0,0,1-.36-.31,1,1,0,0,1-.13-.51.85.85,0,0,1,.05-.26,1.11,1.11,0,0,1,.13-.27,1.36,1.36,0,0,1,.24-.24,1.51,1.51,0,0,1,.32-.22,1.83,1.83,0,0,1-.68-.61,1.69,1.69,0,0,1-.24-.91,1.66,1.66,0,0,1,.17-.75,1.62,1.62,0,0,1,.46-.58,2.4,2.4,0,0,1,.71-.37,3.26,3.26,0,0,1,.9-.12,2.49,2.49,0,0,1,.68.08,1.82,1.82,0,0,1,.58.21Zm5.72-.19V229h-.83a.32.32,0,0,1-.34-.25l-.09-.45a3,3,0,0,1-.77.57,2.05,2.05,0,0,1-1,.22,1.91,1.91,0,0,1-.82-.16,1.56,1.56,0,0,1-.6-.44,2.12,2.12,0,0,1-.37-.68,3,3,0,0,1-.12-.87v-3.58h1.36v3.58a1.24,1.24,0,0,0,.24.81.92.92,0,0,0,.72.28,1.4,1.4,0,0,0,.66-.16,2.29,2.29,0,0,0,.58-.43v-4.08Zm4.79,1.1a.44.44,0,0,1-.11.12.38.38,0,0,1-.16,0,.42.42,0,0,1-.21-.06l-.26-.12a2.68,2.68,0,0,0-.34-.13,2,2,0,0,0-.45-.05,1,1,0,0,0-.63.17.53.53,0,0,0-.23.45.41.41,0,0,0,.12.3,1.07,1.07,0,0,0,.31.22,3.28,3.28,0,0,0,.45.17l.5.16a4.34,4.34,0,0,1,.5.2,1.35,1.35,0,0,1,.44.29,1.17,1.17,0,0,1,.32.41,1.31,1.31,0,0,1,.12.58,1.91,1.91,0,0,1-.15.76,1.76,1.76,0,0,1-.43.59,2.11,2.11,0,0,1-.71.39,3.15,3.15,0,0,1-1,.14,2.76,2.76,0,0,1-.57-.06,3.18,3.18,0,0,1-.53-.14,2.92,2.92,0,0,1-.47-.22,2.31,2.31,0,0,1-.38-.27l.31-.52a.47.47,0,0,1,.14-.14.37.37,0,0,1,.21-.06.43.43,0,0,1,.24.08l.26.15a2.29,2.29,0,0,0,.35.16,1.74,1.74,0,0,0,.51.07,1.22,1.22,0,0,0,.41-.06,1,1,0,0,0,.29-.15.48.48,0,0,0,.16-.22.58.58,0,0,0,.06-.26.44.44,0,0,0-.12-.32,1,1,0,0,0-.32-.22,2.7,2.7,0,0,0-.44-.17l-.51-.16-.51-.2a1.57,1.57,0,0,1-.45-.31,1.4,1.4,0,0,1-.31-.44,1.56,1.56,0,0,1-.12-.64,1.66,1.66,0,0,1,.14-.66,1.41,1.41,0,0,1,.4-.54,1.89,1.89,0,0,1,.67-.38,2.82,2.82,0,0,1,.92-.14,2.78,2.78,0,0,1,1.06.19,2.39,2.39,0,0,1,.8.51Zm3.27,4.63a1.5,1.5,0,0,1-1.13-.41,1.64,1.64,0,0,1-.39-1.15v-3.16h-.58a.28.28,0,0,1-.19-.07.27.27,0,0,1-.07-.21v-.54l.9-.15.29-1.54a.28.28,0,0,1,.11-.17.29.29,0,0,1,.19-.06h.71v1.78h1.5v1h-1.5v3.06a.66.66,0,0,0,.12.42.49.49,0,0,0,.36.14l.21,0,.15-.07.11-.06.1,0a.15.15,0,0,1,.1,0l.09.09.4.66a2,2,0,0,1-.68.37A2.4,2.4,0,0,1,725.39,229.09Zm7.08-5.73V229h-.83a.33.33,0,0,1-.35-.25l-.09-.45a2.75,2.75,0,0,1-.76.57,2.07,2.07,0,0,1-1,.22,1.94,1.94,0,0,1-.82-.16,1.61,1.61,0,0,1-.59-.44,1.94,1.94,0,0,1-.37-.68,3,3,0,0,1-.12-.87v-3.58h1.36v3.58a1.3,1.3,0,0,0,.23.81.93.93,0,0,0,.72.28,1.41,1.41,0,0,0,.67-.16,2.48,2.48,0,0,0,.58-.43v-4.08Zm4.79,1.1a.34.34,0,0,1-.12.12.33.33,0,0,1-.15,0,.49.49,0,0,1-.22-.06l-.26-.12a2.2,2.2,0,0,0-.34-.13,1.84,1.84,0,0,0-.44-.05,1.1,1.1,0,0,0-.64.17.52.52,0,0,0-.22.45.44.44,0,0,0,.11.3,1.29,1.29,0,0,0,.32.22,3.68,3.68,0,0,0,.44.17l.5.16a3.86,3.86,0,0,1,.51.2,1.6,1.6,0,0,1,.44.29,1.14,1.14,0,0,1,.31.41,1.31,1.31,0,0,1,.12.58,1.9,1.9,0,0,1-.14.76,1.76,1.76,0,0,1-.43.59,2.11,2.11,0,0,1-.71.39,3.15,3.15,0,0,1-1,.14,2.62,2.62,0,0,1-.57-.06,3.29,3.29,0,0,1-.54-.14,3.38,3.38,0,0,1-.47-.22,2.84,2.84,0,0,1-.38-.27l.31-.52a.49.49,0,0,1,.15-.14.33.33,0,0,1,.21-.06.4.4,0,0,1,.23.08l.27.15a2.16,2.16,0,0,0,.34.16,1.87,1.87,0,0,0,.52.07,1.27,1.27,0,0,0,.41-.06.82.82,0,0,0,.28-.15.51.51,0,0,0,.17-.22.58.58,0,0,0,.05-.26.44.44,0,0,0-.12-.32,1,1,0,0,0-.31-.22,3.28,3.28,0,0,0-.45-.17l-.51-.16-.51-.2a1.67,1.67,0,0,1-.44-.31,1.43,1.43,0,0,1-.32-.44,1.56,1.56,0,0,1-.11-.64,1.65,1.65,0,0,1,.13-.66,1.55,1.55,0,0,1,.41-.54,1.85,1.85,0,0,1,.66-.38,2.93,2.93,0,0,1,.93-.14,2.81,2.81,0,0,1,1.06.19,2.34,2.34,0,0,1,.79.51Zm4,.65h2.85v1.13h-2.85ZM755.9,225a4.54,4.54,0,0,1-.29,1.63,3.79,3.79,0,0,1-2.09,2.14,4.66,4.66,0,0,1-3.29,0,3.8,3.8,0,0,1-1.28-.86,4,4,0,0,1-.82-1.28,4.54,4.54,0,0,1-.29-1.63,4.43,4.43,0,0,1,.29-1.61,4,4,0,0,1,.82-1.3,3.75,3.75,0,0,1,1.28-.84,4.13,4.13,0,0,1,1.64-.31,4.56,4.56,0,0,1,1.14.14,3.88,3.88,0,0,1,1,.4,3.7,3.7,0,0,1,1.4,1.43,4,4,0,0,1,.38,1A5,5,0,0,1,755.9,225Zm-1.51,0a3.59,3.59,0,0,0-.18-1.17,2.44,2.44,0,0,0-.5-.88,2.11,2.11,0,0,0-.79-.56,3,3,0,0,0-2.1,0,2.2,2.2,0,0,0-.79.56,2.44,2.44,0,0,0-.5.88,3.93,3.93,0,0,0,0,2.35,2.53,2.53,0,0,0,.5.88,2.3,2.3,0,0,0,.79.55,3,3,0,0,0,2.1,0,2.21,2.21,0,0,0,.79-.55,2.53,2.53,0,0,0,.5-.88A3.61,3.61,0,0,0,754.39,225Zm3.87-4.19v4.68h.25a.41.41,0,0,0,.21,0,.42.42,0,0,0,.17-.14l1.4-1.74a.75.75,0,0,1,.19-.17.62.62,0,0,1,.29-.06H762l-1.76,2.09a1.42,1.42,0,0,1-.4.38,1.8,1.8,0,0,1,.2.19l.18.24,1.88,2.74h-1.23a.78.78,0,0,1-.28-.05.49.49,0,0,1-.19-.19L759,226.62a.38.38,0,0,0-.16-.17.7.7,0,0,0-.24,0h-.31V229H756.9v-8.17Zm6.4,8.26a1.53,1.53,0,0,1-1.14-.41,1.64,1.64,0,0,1-.39-1.15v-3.16h-.58a.24.24,0,0,1-.18-.07.27.27,0,0,1-.08-.21v-.54l.91-.15.28-1.54a.34.34,0,0,1,.11-.17.32.32,0,0,1,.2-.06h.7v1.78H766v1h-1.51v3.06a.6.6,0,0,0,.13.42.47.47,0,0,0,.35.14l.21,0,.15-.07.12-.06a.18.18,0,0,1,.2,0l.08.09.41.66a2.09,2.09,0,0,1-.69.37A2.34,2.34,0,0,1,764.66,229.09Zm4.66-5.82a3.17,3.17,0,0,1,1.14.2,2.5,2.5,0,0,1,1.45,1.49,3.95,3.95,0,0,1,0,2.42,2.7,2.7,0,0,1-.57.92,2.55,2.55,0,0,1-.88.58,3.17,3.17,0,0,1-1.14.2,3.27,3.27,0,0,1-1.15-.2,2.48,2.48,0,0,1-1.45-1.5,3.76,3.76,0,0,1,0-2.42,2.43,2.43,0,0,1,.57-.91,2.55,2.55,0,0,1,.88-.58A3.27,3.27,0,0,1,769.32,223.27Zm0,4.77a1.18,1.18,0,0,0,1-.48,2.3,2.3,0,0,0,.34-1.38,2.36,2.36,0,0,0-.34-1.39,1.18,1.18,0,0,0-1-.48,1.21,1.21,0,0,0-1.06.48,3,3,0,0,0,0,2.77A1.21,1.21,0,0,0,769.32,228Zm5.18-.5a1.29,1.29,0,0,0,.5.39,1.47,1.47,0,0,0,1.14,0,1.21,1.21,0,0,0,.43-.35,2.16,2.16,0,0,0,.27-.61,3.87,3.87,0,0,0,.09-.89,2.26,2.26,0,0,0-.31-1.35,1,1,0,0,0-.88-.42,1.23,1.23,0,0,0-.69.19,2,2,0,0,0-.55.5Zm0-3.49a2.87,2.87,0,0,1,.75-.57,2.11,2.11,0,0,1,1-.21,1.93,1.93,0,0,1,.88.19,1.83,1.83,0,0,1,.68.56,2.43,2.43,0,0,1,.42.87,4.55,4.55,0,0,1,0,2.39,2.69,2.69,0,0,1-.49,1,2.19,2.19,0,0,1-1.75.83,2.26,2.26,0,0,1-.47-.05,1.58,1.58,0,0,1-.4-.15,1.79,1.79,0,0,1-.34-.22,2.68,2.68,0,0,1-.28-.3l-.06.38a.36.36,0,0,1-.12.2.33.33,0,0,1-.21.06h-.9v-8.17h1.36Zm8.52,1.48a1.64,1.64,0,0,0-.08-.5,1.25,1.25,0,0,0-.22-.41,1.05,1.05,0,0,0-.38-.27,1.4,1.4,0,0,0-1.46.23,1.72,1.72,0,0,0-.43.95Zm-2.59.82a2.62,2.62,0,0,0,.15.75,1.48,1.48,0,0,0,.32.52,1.25,1.25,0,0,0,.47.31,1.64,1.64,0,0,0,.6.1,1.93,1.93,0,0,0,.57-.07,2.79,2.79,0,0,0,.42-.18l.31-.17a.54.54,0,0,1,.26-.07.3.3,0,0,1,.26.12l.39.5a2.38,2.38,0,0,1-.51.44,2.69,2.69,0,0,1-.59.29,3.3,3.3,0,0,1-.62.15,4.26,4.26,0,0,1-.61,0,3,3,0,0,1-1.09-.19,2.37,2.37,0,0,1-.88-.58,2.64,2.64,0,0,1-.59-.94,3.78,3.78,0,0,1-.22-1.31,3.24,3.24,0,0,1,.19-1.09,2.69,2.69,0,0,1,.53-.88,2.66,2.66,0,0,1,.86-.6,2.71,2.71,0,0,1,1.13-.22,2.86,2.86,0,0,1,1,.17,2,2,0,0,1,.77.5,2.2,2.2,0,0,1,.51.8,2.86,2.86,0,0,1,.19,1.09.79.79,0,0,1-.07.41.27.27,0,0,1-.25.11Zm6.11-2a2.46,2.46,0,0,1,.63-.8,1.33,1.33,0,0,1,.85-.29,1.09,1.09,0,0,1,.63.17l-.09,1a.24.24,0,0,1-.08.14.2.2,0,0,1-.14,0l-.25,0-.31,0a1.25,1.25,0,0,0-.4.06,1.29,1.29,0,0,0-.32.19,2.48,2.48,0,0,0-.25.3,3,3,0,0,0-.19.4V229h-1.36v-5.64h.79a.47.47,0,0,1,.3.07.49.49,0,0,1,.11.27Zm10,3.4a.48.48,0,0,1,.35.12.42.42,0,0,1,.13.33V229h-5.45v-.45a1,1,0,0,1,.05-.29.7.7,0,0,1,.19-.27l2.41-2.42c.21-.21.38-.4.54-.59a3.24,3.24,0,0,0,.4-.56,2.68,2.68,0,0,0,.25-.55,2.35,2.35,0,0,0,.08-.6,1.28,1.28,0,0,0-.08-.5.85.85,0,0,0-.24-.37,1,1,0,0,0-.36-.22,1.4,1.4,0,0,0-.47-.08,1.63,1.63,0,0,0-.45.07,1.2,1.2,0,0,0-.37.2,1.44,1.44,0,0,0-.27.28,1.38,1.38,0,0,0-.16.37.58.58,0,0,1-.24.33.64.64,0,0,1-.43,0l-.72-.13a3,3,0,0,1,.32-1,2.48,2.48,0,0,1,.59-.72,2.38,2.38,0,0,1,.82-.43,3.12,3.12,0,0,1,1-.15,2.91,2.91,0,0,1,1,.16,2.15,2.15,0,0,1,.78.46,2.11,2.11,0,0,1,.51.71,2.56,2.56,0,0,1,0,1.75,3.13,3.13,0,0,1-.35.71,4.41,4.41,0,0,1-.5.66l-.61.65-1.8,1.83a3.61,3.61,0,0,1,.51-.11,2.93,2.93,0,0,1,.49,0Zm7.09-2.72a6.45,6.45,0,0,1-.22,1.81,3.67,3.67,0,0,1-.62,1.27,2.57,2.57,0,0,1-.93.75,2.75,2.75,0,0,1-1.15.24,2.8,2.8,0,0,1-1.16-.24,2.72,2.72,0,0,1-.92-.75,3.85,3.85,0,0,1-.61-1.27,7.56,7.56,0,0,1,0-3.62,3.7,3.7,0,0,1,.61-1.26,2.58,2.58,0,0,1,.92-.74,2.66,2.66,0,0,1,1.16-.25,2.61,2.61,0,0,1,1.15.25,2.45,2.45,0,0,1,.93.74,3.54,3.54,0,0,1,.62,1.26A6.5,6.5,0,0,1,803.61,225Zm-1.4,0a7.13,7.13,0,0,0-.12-1.43,2.82,2.82,0,0,0-.35-.9,1.21,1.21,0,0,0-2.1,0,2.83,2.83,0,0,0-.33.9,7.13,7.13,0,0,0-.12,1.43,7,7,0,0,0,.12,1.43,2.74,2.74,0,0,0,.33.9,1.22,1.22,0,0,0,.48.48,1.31,1.31,0,0,0,1.14,0,1.22,1.22,0,0,0,.48-.48,2.72,2.72,0,0,0,.35-.9A7,7,0,0,0,802.21,225Zm7.08,2.72a.47.47,0,0,1,.34.12.42.42,0,0,1,.13.33V229h-5.45v-.45a1,1,0,0,1,.05-.29.83.83,0,0,1,.19-.27l2.42-2.42c.2-.21.38-.4.53-.59a4,4,0,0,0,.41-.56,3.28,3.28,0,0,0,.24-.55,2,2,0,0,0,.08-.6,1.28,1.28,0,0,0-.08-.5.93.93,0,0,0-.23-.37.91.91,0,0,0-.37-.22,1.36,1.36,0,0,0-.47-.08,1.63,1.63,0,0,0-.45.07,1,1,0,0,0-.36.2,1,1,0,0,0-.27.28,1.14,1.14,0,0,0-.17.37.58.58,0,0,1-.24.33.64.64,0,0,1-.43,0l-.71-.13a2.8,2.8,0,0,1,.32-1,2.3,2.3,0,0,1,.58-.72,2.38,2.38,0,0,1,.82-.43,3.12,3.12,0,0,1,1-.15,2.91,2.91,0,0,1,1,.16,2.29,2.29,0,0,1,.79.46,2.23,2.23,0,0,1,.5.71,2.56,2.56,0,0,1,0,1.75,2.76,2.76,0,0,1-.35.71,4.41,4.41,0,0,1-.5.66l-.61.65-1.8,1.83a3.46,3.46,0,0,1,.52-.11,2.74,2.74,0,0,1,.48,0Zm6.38,0a.47.47,0,0,1,.34.12.42.42,0,0,1,.14.33V229h-5.46v-.45a1,1,0,0,1,0-.29.83.83,0,0,1,.19-.27l2.41-2.42a6.92,6.92,0,0,0,.54-.59,3.32,3.32,0,0,0,.41-.56,3.28,3.28,0,0,0,.24-.55,2,2,0,0,0,.09-.6,1.28,1.28,0,0,0-.09-.5.93.93,0,0,0-.23-.37.91.91,0,0,0-.37-.22,1.36,1.36,0,0,0-.47-.08,1.63,1.63,0,0,0-.45.07,1,1,0,0,0-.36.2,1,1,0,0,0-.27.28,1.14,1.14,0,0,0-.17.37.58.58,0,0,1-.24.33.64.64,0,0,1-.43,0l-.71-.13a2.8,2.8,0,0,1,.32-1,2.3,2.3,0,0,1,.58-.72,2.38,2.38,0,0,1,.82-.43,3.21,3.21,0,0,1,1-.15,2.87,2.87,0,0,1,1,.16,2.29,2.29,0,0,1,.79.46,2.23,2.23,0,0,1,.5.71,2.56,2.56,0,0,1,0,1.75,2.76,2.76,0,0,1-.35.71,4.41,4.41,0,0,1-.5.66l-.61.65-1.8,1.83a3.46,3.46,0,0,1,.52-.11,2.77,2.77,0,0,1,.49,0Z" style="fill:#1a4373"/><g style="clip-path:url(#clip-path-2)"><g style="clip-path:url(#clip-path-3)"><circle cx="562" cy="152.89" r="8.89" style="fill:#001b3d"/><circle cx="562" cy="152.89" r="8.89" style="fill:#001b3d"/><path d="M547.78,176a10.67,10.67,0,0,1,10.66-10.67h7.12A10.67,10.67,0,0,1,576.22,176Z" style="fill:#001b3d"/></g><g style="clip-path:url(#clip-path-4)"><circle cx="537.5" cy="142.06" r="13.06" style="fill:#1fb767"/><circle cx="537.5" cy="142.06" r="13.06" style="fill:#1fb767"/><path d="M544,144.5a6.5,6.5,0,1,1-13,0h13Z" style="fill:#fff"/><path d="M516.61,174.33a14,14,0,0,1,14-14h13.78a14,14,0,0,1,14,14V176H516.61Z" style="fill:#1fb767"/><path d="M533.58,160.33h-3.91L532.28,176l3.91-10.44Z" style="fill:#fff;fill-rule:evenodd"/><path d="M545.33,160.33,542.72,176l-3.91-10.44,2.61-5.23Z" style="fill:#fff;fill-rule:evenodd"/><path d="M541.42,160.33h-7.84l2.61,5.23L532.28,176h10.44l-3.91-10.44Z" style="fill:#001b3d"/><path d="M518.36,149l3.09,2.72,4.12.1-2.72,3.1-.1,4.12-3.09-2.73-4.12-.1,2.72-3.09Z" style="fill:#ffa600"/></g><rect x="557.94" y="131.41" width="6.17" height="6.17" rx="1" transform="translate(-8.63 225.75) rotate(-22.58)" style="fill:#ef5350"/></g><path d="M521.52,203.63l-1.41-3.85c-.07-.17-.14-.37-.22-.6s-.15-.49-.22-.76c-.07.27-.14.52-.22.76s-.14.44-.21.62l-1.4,3.83Zm3.8,4.37h-1.67a.67.67,0,0,1-.45-.14.85.85,0,0,1-.27-.35l-.86-2.36h-4.79l-.87,2.36a.72.72,0,0,1-.25.34.68.68,0,0,1-.45.15H514l4.55-11.57h2.19Zm7.77-8.21V208h-1.21a.47.47,0,0,1-.5-.36l-.13-.66a4.92,4.92,0,0,1-1.11.84,3.25,3.25,0,0,1-1.44.31,3,3,0,0,1-1.19-.23,2.4,2.4,0,0,1-.86-.64,2.79,2.79,0,0,1-.54-1,4.17,4.17,0,0,1-.18-1.26v-5.22h2V205a1.79,1.79,0,0,0,.35,1.17,1.29,1.29,0,0,0,1,.4,2.11,2.11,0,0,0,1-.22,3.53,3.53,0,0,0,.85-.63v-5.94Zm7.11,2.1a2,2,0,0,0-.74-.58,2.15,2.15,0,0,0-.85-.17,1.91,1.91,0,0,0-.8.17,1.68,1.68,0,0,0-.62.51,2.5,2.5,0,0,0-.39.87,5,5,0,0,0-.14,1.23,6,6,0,0,0,.11,1.22,2.5,2.5,0,0,0,.34.82,1.3,1.3,0,0,0,.53.46,1.73,1.73,0,0,0,.69.13,2,2,0,0,0,1-.25,3.45,3.45,0,0,0,.82-.73Zm2-5.78V208H541a.47.47,0,0,1-.5-.36l-.17-.79a4.2,4.2,0,0,1-1.14.92,3.13,3.13,0,0,1-1.5.35,2.65,2.65,0,0,1-1.23-.28,2.88,2.88,0,0,1-1-.81,4,4,0,0,1-.62-1.32,6.5,6.5,0,0,1-.22-1.79,5.82,5.82,0,0,1,.25-1.7,4.29,4.29,0,0,1,.71-1.36,3.29,3.29,0,0,1,1.11-.89,3.2,3.2,0,0,1,1.46-.33,2.83,2.83,0,0,1,1.18.22,3.15,3.15,0,0,1,.87.58v-4.33Zm4,3.68V208h-2v-8.21Zm.27-2.39a1.12,1.12,0,0,1-.1.48,1.21,1.21,0,0,1-.28.39,1.13,1.13,0,0,1-.4.27,1.18,1.18,0,0,1-.5.1,1.12,1.12,0,0,1-.48-.1,1.3,1.3,0,0,1-.67-.66,1.28,1.28,0,0,1-.09-.48,1.39,1.39,0,0,1,.09-.5,1.56,1.56,0,0,1,.27-.4,1.31,1.31,0,0,1,.4-.26,1.12,1.12,0,0,1,.48-.1,1.18,1.18,0,0,1,.5.1,1.11,1.11,0,0,1,.4.26,1.38,1.38,0,0,1,.28.4A1.21,1.21,0,0,1,546.44,197.4Zm7,5.55a2.17,2.17,0,0,0-.11-.72,1.58,1.58,0,0,0-.32-.6,1.43,1.43,0,0,0-.55-.4,2.09,2.09,0,0,0-2.12.34,2.4,2.4,0,0,0-.62,1.38Zm-3.76,1.19a3.76,3.76,0,0,0,.22,1.1,2.23,2.23,0,0,0,.47.76,1.76,1.76,0,0,0,.68.45,2.71,2.71,0,0,0,.88.14,2.81,2.81,0,0,0,.82-.11,4.52,4.52,0,0,0,.61-.25c.17-.09.33-.17.45-.25a.86.86,0,0,1,.39-.11.38.38,0,0,1,.36.19l.57.72a3.39,3.39,0,0,1-.73.64,4,4,0,0,1-.86.42,5.38,5.38,0,0,1-.9.22,6.88,6.88,0,0,1-.89.06,4.36,4.36,0,0,1-1.59-.28,3.56,3.56,0,0,1-1.28-.84,3.86,3.86,0,0,1-.86-1.38,5.29,5.29,0,0,1-.31-1.9,4.56,4.56,0,0,1,.27-1.58,3.74,3.74,0,0,1,2-2.16,4.15,4.15,0,0,1,1.65-.32,4.09,4.09,0,0,1,1.43.25,3.11,3.11,0,0,1,1.13.73,3.25,3.25,0,0,1,.74,1.17,4.27,4.27,0,0,1,.27,1.57,1.4,1.4,0,0,1-.09.61.42.42,0,0,1-.37.15Zm8.87-3.34a5.53,5.53,0,0,1,.52-.46,3.58,3.58,0,0,1,.59-.36,2.71,2.71,0,0,1,.66-.23,3.07,3.07,0,0,1,.77-.09,2.81,2.81,0,0,1,1.19.24,2.12,2.12,0,0,1,.86.64,2.65,2.65,0,0,1,.53,1,4.16,4.16,0,0,1,.19,1.26V208h-2v-5.22a1.78,1.78,0,0,0-.34-1.16,1.28,1.28,0,0,0-1.05-.42,2.12,2.12,0,0,0-1,.23,3.82,3.82,0,0,0-.85.63V208h-2v-8.21h1.21a.49.49,0,0,1,.51.36Zm12.19.59a.53.53,0,0,1-.17.19.46.46,0,0,1-.22,0,.62.62,0,0,1-.31-.08l-.38-.17a3.87,3.87,0,0,0-.49-.19,2.46,2.46,0,0,0-.65-.08,1.55,1.55,0,0,0-.92.25.78.78,0,0,0-.33.65.66.66,0,0,0,.17.45,1.7,1.7,0,0,0,.45.31,6.82,6.82,0,0,0,.65.25c.24.07.49.14.73.23a5.21,5.21,0,0,1,.74.3,2.26,2.26,0,0,1,.64.41,1.89,1.89,0,0,1,.45.6,1.87,1.87,0,0,1,.18.85,2.7,2.7,0,0,1-.22,1.1,2.29,2.29,0,0,1-.62.86,3.09,3.09,0,0,1-1,.57,4.66,4.66,0,0,1-1.41.2,4.58,4.58,0,0,1-.83-.08,5,5,0,0,1-.78-.21,5.42,5.42,0,0,1-.69-.32,3.89,3.89,0,0,1-.55-.4l.46-.75a.81.81,0,0,1,.2-.21.67.67,0,0,1,.65,0l.39.23a3.39,3.39,0,0,0,.5.22,2.28,2.28,0,0,0,.74.1,1.74,1.74,0,0,0,.6-.08,1.27,1.27,0,0,0,.42-.22.87.87,0,0,0,.24-.31,1,1,0,0,0,.08-.38.64.64,0,0,0-.18-.47,1.44,1.44,0,0,0-.45-.32,4,4,0,0,0-.65-.24l-.74-.24a5.86,5.86,0,0,1-.75-.3,2.57,2.57,0,0,1-.65-.44,2.16,2.16,0,0,1-.45-.64,2.51,2.51,0,0,1,0-1.89,2.08,2.08,0,0,1,.59-.79,3,3,0,0,1,1-.55,4,4,0,0,1,1.35-.21,4.22,4.22,0,0,1,1.54.28,3.56,3.56,0,0,1,1.16.74Zm4.07-1.6V208h-2v-8.21Zm.28-2.39a1.13,1.13,0,0,1-.11.48,1.21,1.21,0,0,1-.28.39,1.13,1.13,0,0,1-.4.27,1.25,1.25,0,0,1-1,0,1.19,1.19,0,0,1-.39-.27,1.21,1.21,0,0,1-.28-.39,1.28,1.28,0,0,1-.09-.48,1.16,1.16,0,0,1,.37-.9,1.25,1.25,0,0,1,1.37-.26,1.11,1.11,0,0,1,.4.26,1.38,1.38,0,0,1,.28.4A1.22,1.22,0,0,1,575.12,197.4Z" style="fill:#069550"/><path d="M509.47,227.74a.5.5,0,0,1,.35.12.42.42,0,0,1,.13.33V229H504.5v-.45a.77.77,0,0,1,.05-.29.7.7,0,0,1,.19-.27l2.41-2.42c.2-.21.38-.4.54-.59a3.24,3.24,0,0,0,.4-.56,2.19,2.19,0,0,0,.24-.55,2,2,0,0,0,.09-.6,1.5,1.5,0,0,0-.08-.5.85.85,0,0,0-.24-.37.88.88,0,0,0-.36-.22,1.4,1.4,0,0,0-.47-.08,1.63,1.63,0,0,0-.45.07,1.2,1.2,0,0,0-.37.2,1.44,1.44,0,0,0-.27.28,1.38,1.38,0,0,0-.16.37.58.58,0,0,1-.24.33.64.64,0,0,1-.43,0l-.72-.13a3,3,0,0,1,.32-1,2.48,2.48,0,0,1,.59-.72,2.38,2.38,0,0,1,.82-.43,3.12,3.12,0,0,1,1-.15,2.91,2.91,0,0,1,1,.16,2.24,2.24,0,0,1,.78.46,2.11,2.11,0,0,1,.51.71,2.56,2.56,0,0,1,.05,1.75,3.13,3.13,0,0,1-.35.71,3.89,3.89,0,0,1-.51.66c-.19.22-.39.43-.6.65l-1.8,1.83a3.1,3.1,0,0,1,.51-.11,2.85,2.85,0,0,1,.49,0Zm6.68.24v1h-4.4v-1h1.61v-4.63c0-.19,0-.38,0-.57l-1.15,1a.58.58,0,0,1-.19.1h-.18a.52.52,0,0,1-.15-.06.3.3,0,0,1-.1-.09l-.43-.59L513.6,221h1.12V228Zm4-2.87H523v1.13h-2.85Zm11.55,2.63a.45.45,0,0,1,.34.12.42.42,0,0,1,.14.33V229h-5.46v-.45A.81.81,0,0,1,527,228l2.42-2.42c.2-.21.38-.4.54-.59a3.88,3.88,0,0,0,.4-.56,3.28,3.28,0,0,0,.24-.55,2,2,0,0,0,.09-.6,1.28,1.28,0,0,0-.09-.5.93.93,0,0,0-.23-.37,1,1,0,0,0-.36-.22,1.42,1.42,0,0,0-.48-.08,1.63,1.63,0,0,0-.45.07,1.27,1.27,0,0,0-.36.2,1,1,0,0,0-.27.28,1.4,1.4,0,0,0-.17.37.58.58,0,0,1-.24.33.64.64,0,0,1-.43,0l-.71-.13a2.8,2.8,0,0,1,.32-1,2.35,2.35,0,0,1,1.4-1.15,3.21,3.21,0,0,1,1-.15,3,3,0,0,1,1,.16,2.33,2.33,0,0,1,.78.46,2.23,2.23,0,0,1,.5.71,2.56,2.56,0,0,1,0,1.75,3.09,3.09,0,0,1-.34.71,5.29,5.29,0,0,1-.51.66c-.19.22-.4.43-.61.65l-1.79,1.83a3.1,3.1,0,0,1,.51-.11,2.77,2.77,0,0,1,.49,0Zm7-6.69v.58a1.27,1.27,0,0,1-.06.43,1.16,1.16,0,0,1-.11.27l-3,6.21a.93.93,0,0,1-.26.33.74.74,0,0,1-.46.13h-1l3.08-6.08.2-.34a3.4,3.4,0,0,1,.23-.3h-3.8a.27.27,0,0,1-.22-.1.3.3,0,0,1-.1-.22v-.91Zm6.65,5.12a4.12,4.12,0,0,1-.16,1.21,2.48,2.48,0,0,1-.5.92,2,2,0,0,1-.81.58,2.9,2.9,0,0,1-1.14.21,5.46,5.46,0,0,1-.58,0,4.79,4.79,0,0,1-.6-.11c0-.15,0-.29,0-.44l0-.44a.35.35,0,0,1,.1-.19.32.32,0,0,1,.23-.08.85.85,0,0,1,.24,0,2,2,0,0,0,.39,0,1.55,1.55,0,0,0,.55-.09.9.9,0,0,0,.4-.29,1.35,1.35,0,0,0,.25-.51,2.94,2.94,0,0,0,.08-.77v-5.16h1.48Zm6.2-2.81V229h-.83a.33.33,0,0,1-.35-.25l-.09-.45a2.75,2.75,0,0,1-.76.57,2.07,2.07,0,0,1-1,.22,2,2,0,0,1-.82-.16,1.61,1.61,0,0,1-.59-.44,2.12,2.12,0,0,1-.37-.68,3,3,0,0,1-.12-.87v-3.58H548v3.58a1.24,1.24,0,0,0,.24.81.91.91,0,0,0,.71.28,1.41,1.41,0,0,0,.67-.16,2.48,2.48,0,0,0,.58-.43v-4.08Zm2.72-2.53V229h-1.36v-8.17Zm2.76,2.53V229h-1.36v-5.64Zm.19-1.65a.88.88,0,0,1-.07.33.79.79,0,0,1-.2.27.88.88,0,0,1-.27.19.86.86,0,0,1-.68,0,1,1,0,0,1-.27-.19.75.75,0,0,1-.18-.27.72.72,0,0,1-.07-.33.8.8,0,0,1,.07-.34.75.75,0,0,1,.18-.27,1,1,0,0,1,.27-.19.86.86,0,0,1,.68,0,.88.88,0,0,1,.27.19.79.79,0,0,1,.2.27A1,1,0,0,1,557.2,221.71Zm8.59,6a.48.48,0,0,1,.35.12.42.42,0,0,1,.13.33V229h-5.45v-.45a1,1,0,0,1,0-.29.7.7,0,0,1,.19-.27l2.41-2.42c.2-.21.38-.4.54-.59a3.24,3.24,0,0,0,.4-.56,2.68,2.68,0,0,0,.25-.55,2,2,0,0,0,.08-.6,1.28,1.28,0,0,0-.08-.5.85.85,0,0,0-.24-.37.81.81,0,0,0-.36-.22,1.36,1.36,0,0,0-.47-.08,1.63,1.63,0,0,0-.45.07,1,1,0,0,0-.36.2,1,1,0,0,0-.27.28,1.14,1.14,0,0,0-.17.37.58.58,0,0,1-.24.33.64.64,0,0,1-.43,0l-.72-.13a3.26,3.26,0,0,1,.32-1,2.48,2.48,0,0,1,.59-.72,2.38,2.38,0,0,1,.82-.43,3.12,3.12,0,0,1,1-.15,2.91,2.91,0,0,1,1,.16,2.15,2.15,0,0,1,.78.46,2.11,2.11,0,0,1,.51.71,2.56,2.56,0,0,1,0,1.75,3.13,3.13,0,0,1-.35.71,4.41,4.41,0,0,1-.5.66l-.61.65-1.8,1.83a3.34,3.34,0,0,1,.51-.11,2.93,2.93,0,0,1,.49,0Zm7.1-2.72a6.42,6.42,0,0,1-.23,1.81,3.67,3.67,0,0,1-.62,1.27,2.57,2.57,0,0,1-.93.75,2.75,2.75,0,0,1-1.15.24,2.8,2.8,0,0,1-1.16-.24,2.6,2.6,0,0,1-.91-.75,3.49,3.49,0,0,1-.61-1.27,7.24,7.24,0,0,1,0-3.62,3.37,3.37,0,0,1,.61-1.26,2.46,2.46,0,0,1,.91-.74A2.66,2.66,0,0,1,570,221a2.61,2.61,0,0,1,1.15.25,2.45,2.45,0,0,1,.93.74,3.54,3.54,0,0,1,.62,1.26A6.48,6.48,0,0,1,572.89,225Zm-1.41,0a7.13,7.13,0,0,0-.12-1.43,3.08,3.08,0,0,0-.34-.9,1.28,1.28,0,0,0-.49-.47,1.25,1.25,0,0,0-.57-.13,1.28,1.28,0,0,0-.57.13,1.26,1.26,0,0,0-.48.47,2.83,2.83,0,0,0-.33.9,7.13,7.13,0,0,0-.12,1.43,7,7,0,0,0,.12,1.43,2.74,2.74,0,0,0,.33.9,1.22,1.22,0,0,0,.48.48,1.28,1.28,0,0,0,.57.13,1.17,1.17,0,0,0,1.06-.61,3,3,0,0,0,.34-.9A7,7,0,0,0,571.48,225Zm7.08,2.72a.47.47,0,0,1,.34.12.42.42,0,0,1,.13.33V229h-5.45v-.45a1,1,0,0,1,0-.29.83.83,0,0,1,.19-.27l2.41-2.42a6.92,6.92,0,0,0,.54-.59,4,4,0,0,0,.41-.56,3.28,3.28,0,0,0,.24-.55,2,2,0,0,0,.09-.6,1.28,1.28,0,0,0-.09-.5.93.93,0,0,0-.23-.37.91.91,0,0,0-.37-.22,1.36,1.36,0,0,0-.47-.08,1.63,1.63,0,0,0-.45.07,1,1,0,0,0-.36.2,1,1,0,0,0-.27.28,1.14,1.14,0,0,0-.17.37.58.58,0,0,1-.24.33.64.64,0,0,1-.43,0l-.71-.13a3,3,0,0,1,.31-1,2.48,2.48,0,0,1,.59-.72,2.38,2.38,0,0,1,.82-.43,3.21,3.21,0,0,1,1-.15,2.91,2.91,0,0,1,1,.16,2.29,2.29,0,0,1,.79.46,2.23,2.23,0,0,1,.5.71,2.56,2.56,0,0,1,0,1.75,2.76,2.76,0,0,1-.35.71,4.41,4.41,0,0,1-.5.66l-.61.65-1.79,1.83a3.1,3.1,0,0,1,.51-.11,2.77,2.77,0,0,1,.49,0Zm6.38,0a.47.47,0,0,1,.34.12.42.42,0,0,1,.14.33V229H580v-.45a.79.79,0,0,1,.06-.29.68.68,0,0,1,.18-.27l2.42-2.42c.2-.21.38-.4.54-.59a3.88,3.88,0,0,0,.4-.56,3.28,3.28,0,0,0,.24-.55,2,2,0,0,0,.09-.6,1.28,1.28,0,0,0-.09-.5.93.93,0,0,0-.23-.37,1,1,0,0,0-.36-.22,1.42,1.42,0,0,0-.48-.08,1.63,1.63,0,0,0-.45.07,1.15,1.15,0,0,0-.36.2,1,1,0,0,0-.27.28,1.4,1.4,0,0,0-.17.37.58.58,0,0,1-.24.33.64.64,0,0,1-.43,0l-.71-.13a2.8,2.8,0,0,1,.32-1,2.2,2.2,0,0,1,.59-.72,2.25,2.25,0,0,1,.81-.43,3.21,3.21,0,0,1,1-.15,3,3,0,0,1,1,.16,2.33,2.33,0,0,1,.78.46,2.23,2.23,0,0,1,.5.71,2.56,2.56,0,0,1,0,1.75,2.76,2.76,0,0,1-.35.71,4.41,4.41,0,0,1-.5.66l-.61.65-1.79,1.83a3.1,3.1,0,0,1,.51-.11,2.77,2.77,0,0,1,.49,0Z" style="fill:#1a4373"/><g style="clip-path:url(#clip-path-5)"><path d="M99.5,136h32a4,4,0,0,1,4,4v32a4,4,0,0,1-4,4h-28a4,4,0,0,1-4-4Z" style="fill:#16a75c"/><circle cx="106.5" cy="147" r="3" style="fill:#fff"/><path d="M113.5,144h7a1,1,0,0,1,1,1h0a1,1,0,0,1-1,1h-7a1,1,0,0,1-1-1h0A1,1,0,0,1,113.5,144Z" style="fill:#fff"/><path d="M113.5,148h9a1,1,0,0,1,1,1h0a1,1,0,0,1-1,1h-9a1,1,0,0,1-1-1h0A1,1,0,0,1,113.5,148Z" style="fill:#9bdbb3"/><circle cx="106.5" cy="157" r="2.5" style="fill:none;stroke:#fff"/><path d="M113.5,154h4a1,1,0,0,1,1,1h0a1,1,0,0,1-1,1h-4a1,1,0,0,1-1-1h0A1,1,0,0,1,113.5,154Z" style="fill:#fff"/><path d="M113.5,158h9a1,1,0,0,1,1,1h0a1,1,0,0,1-1,1h-9a1,1,0,0,1-1-1h0A1,1,0,0,1,113.5,158Z" style="fill:#9bdbb3"/><path d="M99.5,167a1,1,0,0,1,1-1h39a1,1,0,0,1,1,1v3a6,6,0,0,1-6,6h-29a6,6,0,0,1-6-6Z" style="fill:#4dc27e"/><path d="M99.5,166h9v5.5a4.5,4.5,0,0,1-9,0Z" style="fill:#16a75c"/><path d="M107.49,129.92l-2.39,1.54-.85,2.71-1.54-2.4-2.71-.85,2.39-1.53.86-2.71,1.53,2.39Z" style="fill:#9b27b0"/><rect x="95.5" y="136" width="4" height="4" style="fill:#16a75c"/><rect x="139.57" y="154.07" width="5.62" height="5.62" rx="1" transform="translate(-66.43 192.69) rotate(-57.51)" style="fill:#ffa600"/><path d="M92.5,139.5a3.5,3.5,0,0,1,7,0V148h-6a1,1,0,0,1-1-1Z" style="fill:#069550"/><path d="M141.12,138.41a2,2,0,0,1,2.83,0l1.07,1.08a2,2,0,0,1,0,2.83l-13,13a2,2,0,0,1-.93.53l-3.84.95a.5.5,0,0,1-.61-.61l.95-3.84a2,2,0,0,1,.53-.94Z" style="fill:#001b3d"/><line x1="138.85" y1="140.65" x2="142.85" y2="144.65" style="fill:none;stroke:#e3e7ed"/></g><path d="M81.55,202.25a3.2,3.2,0,0,0,1-.15,2,2,0,0,0,.73-.42,1.78,1.78,0,0,0,.44-.67,2.77,2.77,0,0,0,.14-.89,2.47,2.47,0,0,0-.14-.84,1.76,1.76,0,0,0-.43-.64,1.91,1.91,0,0,0-.73-.4,3.27,3.27,0,0,0-1-.14H79.94v4.15Zm0-5.82a6.7,6.7,0,0,1,2,.27,4,4,0,0,1,1.4.76,3,3,0,0,1,.81,1.17,4.31,4.31,0,0,1,0,3,3,3,0,0,1-.84,1.2,3.88,3.88,0,0,1-1.4.79,6.16,6.16,0,0,1-2,.28H79.94V208H77.79V196.43ZM92.3,203a2.18,2.18,0,0,0-.12-.72,1.58,1.58,0,0,0-.32-.6,1.43,1.43,0,0,0-.55-.4,2.09,2.09,0,0,0-2.12.34,2.4,2.4,0,0,0-.62,1.38Zm-3.77,1.19a3.76,3.76,0,0,0,.22,1.1,2.23,2.23,0,0,0,.47.76,1.76,1.76,0,0,0,.68.45,2.71,2.71,0,0,0,.88.14,2.81,2.81,0,0,0,.82-.11,4.52,4.52,0,0,0,.61-.25c.17-.09.33-.17.45-.25a.86.86,0,0,1,.39-.11.41.41,0,0,1,.37.19l.56.72a3.39,3.39,0,0,1-.73.64,4,4,0,0,1-.86.42,5.38,5.38,0,0,1-.9.22,6.88,6.88,0,0,1-.89.06,4.36,4.36,0,0,1-1.59-.28,3.56,3.56,0,0,1-1.28-.84,3.86,3.86,0,0,1-.86-1.38,5.29,5.29,0,0,1-.31-1.9,4.56,4.56,0,0,1,.27-1.58,3.74,3.74,0,0,1,2-2.16,4.35,4.35,0,0,1,3.09-.07,3.15,3.15,0,0,1,1.12.73,3.25,3.25,0,0,1,.74,1.17,4.27,4.27,0,0,1,.27,1.57A1.4,1.4,0,0,1,94,204a.42.42,0,0,1-.37.15Zm8.87-3.34a5.53,5.53,0,0,1,.52-.46,3.58,3.58,0,0,1,.59-.36,2.86,2.86,0,0,1,.66-.23,3.07,3.07,0,0,1,.77-.09,2.81,2.81,0,0,1,1.19.24,2.12,2.12,0,0,1,.86.64,2.65,2.65,0,0,1,.53,1,4.16,4.16,0,0,1,.19,1.26V208h-2v-5.22a1.78,1.78,0,0,0-.34-1.16,1.28,1.28,0,0,0-1-.42,2.12,2.12,0,0,0-1,.23,3.82,3.82,0,0,0-.85.63V208h-2v-8.21h1.21a.49.49,0,0,1,.51.36Zm12.34,1.09a2,2,0,0,0-.74-.58,2.15,2.15,0,0,0-.85-.17,1.88,1.88,0,0,0-.8.17,1.68,1.68,0,0,0-.62.51,2.5,2.5,0,0,0-.39.87,5,5,0,0,0-.14,1.23,6,6,0,0,0,.11,1.22,2.3,2.3,0,0,0,.34.82,1.3,1.3,0,0,0,.53.46,1.73,1.73,0,0,0,.69.13,2,2,0,0,0,1-.25,3.45,3.45,0,0,0,.82-.73Zm2-5.78V208H110.5a.46.46,0,0,1-.49-.36l-.17-.79a4.2,4.2,0,0,1-1.14.92,3.13,3.13,0,0,1-1.5.35,2.65,2.65,0,0,1-1.23-.28,2.88,2.88,0,0,1-1-.81,4,4,0,0,1-.62-1.32,6.5,6.5,0,0,1-.22-1.79,5.5,5.5,0,0,1,.25-1.7,4.1,4.1,0,0,1,.71-1.36,3.29,3.29,0,0,1,1.11-.89,3.2,3.2,0,0,1,1.46-.33,2.75,2.75,0,0,1,1.17.22,3.06,3.06,0,0,1,.88.58v-4.33ZM118,204.5a8.86,8.86,0,0,0-1.44.15,4,4,0,0,0-.94.27,1.21,1.21,0,0,0-.5.39.86.86,0,0,0-.15.49.84.84,0,0,0,.3.74,1.36,1.36,0,0,0,.81.23,2.29,2.29,0,0,0,1-.22,3.08,3.08,0,0,0,.87-.67Zm-4.53-3.56a4.86,4.86,0,0,1,3.41-1.3,3.3,3.3,0,0,1,1.29.24,2.69,2.69,0,0,1,1.55,1.66,3.74,3.74,0,0,1,.21,1.28V208H119a1,1,0,0,1-.43-.08.61.61,0,0,1-.24-.34l-.18-.6a6.35,6.35,0,0,1-.6.5,3.5,3.5,0,0,1-.62.35,2.93,2.93,0,0,1-.69.22,3.94,3.94,0,0,1-.8.08,3.27,3.27,0,0,1-1-.14,2,2,0,0,1-.76-.42,1.85,1.85,0,0,1-.49-.7,2.4,2.4,0,0,1-.18-1,1.86,1.86,0,0,1,.1-.61,1.68,1.68,0,0,1,.34-.59,2.74,2.74,0,0,1,.62-.53,3.58,3.58,0,0,1,.92-.43,6.53,6.53,0,0,1,1.28-.3,11.32,11.32,0,0,1,1.66-.14v-.48a1.81,1.81,0,0,0-.35-1.22,1.29,1.29,0,0,0-1-.4,2.57,2.57,0,0,0-.8.11,3.13,3.13,0,0,0-.55.26l-.44.25a.89.89,0,0,1-.43.11.56.56,0,0,1-.35-.11.94.94,0,0,1-.24-.25Zm8.75,7.06v-6.72l-.71-.11a.9.9,0,0,1-.37-.16.4.4,0,0,1-.14-.34v-.81h1.22v-.6a3.64,3.64,0,0,1,.21-1.27,2.82,2.82,0,0,1,.61-1,2.74,2.74,0,0,1,1-.6,3.66,3.66,0,0,1,1.28-.21,3.51,3.51,0,0,1,1,.15l0,1a.28.28,0,0,1-.06.18.4.4,0,0,1-.15.1l-.21.05h-.26a2.47,2.47,0,0,0-.63.08,1.1,1.1,0,0,0-.46.26,1.24,1.24,0,0,0-.3.5,2.73,2.73,0,0,0-.09.76v.54h2.13v1.41H124.2V208Zm7.9.13a2.17,2.17,0,0,1-1.65-.6,2.35,2.35,0,0,1-.57-1.67v-4.59h-.84a.38.38,0,0,1-.27-.1.43.43,0,0,1-.11-.31v-.79l1.32-.21.41-2.24a.44.44,0,0,1,.16-.25.43.43,0,0,1,.28-.09h1v2.58h2.19v1.41h-2.19v4.45a.9.9,0,0,0,.18.6.68.68,0,0,0,.52.22,1.23,1.23,0,0,0,.31,0l.21-.1.17-.09a.3.3,0,0,1,.14-.05.25.25,0,0,1,.15.05.51.51,0,0,1,.12.13l.59,1a3,3,0,0,1-1,.54A3.53,3.53,0,0,1,130.12,208.13Zm7.55-3.63a8.86,8.86,0,0,0-1.44.15,4,4,0,0,0-.94.27,1.21,1.21,0,0,0-.5.39.86.86,0,0,0-.15.49.84.84,0,0,0,.3.74,1.36,1.36,0,0,0,.81.23,2.26,2.26,0,0,0,1.05-.22,3.08,3.08,0,0,0,.87-.67Zm-4.53-3.56a4.86,4.86,0,0,1,3.41-1.3,3.3,3.3,0,0,1,1.29.24,2.69,2.69,0,0,1,1.55,1.66,3.74,3.74,0,0,1,.21,1.28V208h-.9a1,1,0,0,1-.43-.08.61.61,0,0,1-.24-.34l-.18-.6a5.3,5.3,0,0,1-.6.5,3.18,3.18,0,0,1-.62.35,2.93,2.93,0,0,1-.69.22,3.87,3.87,0,0,1-.8.08,3.32,3.32,0,0,1-1-.14,2.09,2.09,0,0,1-.76-.42,1.85,1.85,0,0,1-.49-.7,2.4,2.4,0,0,1-.18-1,2.16,2.16,0,0,1,.1-.61,2.06,2.06,0,0,1,.34-.59,2.74,2.74,0,0,1,.62-.53,3.75,3.75,0,0,1,.92-.43,6.71,6.71,0,0,1,1.28-.3,11.32,11.32,0,0,1,1.66-.14v-.48a1.81,1.81,0,0,0-.35-1.22,1.26,1.26,0,0,0-1-.4,2.62,2.62,0,0,0-.8.11,3.13,3.13,0,0,0-.55.26l-.44.25a.89.89,0,0,1-.43.11.56.56,0,0,1-.35-.11.94.94,0,0,1-.24-.25Zm10.18.28a3.53,3.53,0,0,1,.92-1.16,1.92,1.92,0,0,1,1.24-.42,1.52,1.52,0,0,1,.92.25l-.13,1.48a.53.53,0,0,1-.12.21.39.39,0,0,1-.2,0,2,2,0,0,1-.36,0,3.73,3.73,0,0,0-.46,0,1.5,1.5,0,0,0-.58.1,1.34,1.34,0,0,0-.47.28,2,2,0,0,0-.36.43,5.24,5.24,0,0,0-.28.58V208h-2v-8.21h1.16a.64.64,0,0,1,.42.11.59.59,0,0,1,.16.39Zm8.34,3.28a8.74,8.74,0,0,0-1.44.15,3.83,3.83,0,0,0-.94.27,1.15,1.15,0,0,0-.5.39.8.8,0,0,0-.16.49.85.85,0,0,0,.31.74,1.34,1.34,0,0,0,.81.23,2.25,2.25,0,0,0,1-.22,3.27,3.27,0,0,0,.88-.67Zm-4.53-3.56a4.84,4.84,0,0,1,3.41-1.3,3.21,3.21,0,0,1,1.28.24,2.62,2.62,0,0,1,1,.66,2.78,2.78,0,0,1,.6,1,4,4,0,0,1,.2,1.28V208h-.89a1,1,0,0,1-.43-.08.53.53,0,0,1-.24-.34l-.18-.6a6.41,6.41,0,0,1-.61.5,3.42,3.42,0,0,1-.61.35,3.26,3.26,0,0,1-.69.22,3.94,3.94,0,0,1-.8.08,3.22,3.22,0,0,1-1-.14,1.94,1.94,0,0,1-.76-.42,1.87,1.87,0,0,1-.5-.7,2.4,2.4,0,0,1-.17-1,1.86,1.86,0,0,1,.1-.61,1.68,1.68,0,0,1,.34-.59,2.68,2.68,0,0,1,.61-.53,3.75,3.75,0,0,1,.92-.43,6.89,6.89,0,0,1,1.28-.3,11.47,11.47,0,0,1,1.67-.14v-.48a1.76,1.76,0,0,0-.36-1.22,1.25,1.25,0,0,0-1-.4,2.57,2.57,0,0,0-.8.11,3.13,3.13,0,0,0-.55.26l-.44.25a.93.93,0,0,1-.44.11.61.61,0,0,1-.35-.11,1.09,1.09,0,0,1-.23-.25Zm10.16-.14a5.53,5.53,0,0,1,.52-.46,3.58,3.58,0,0,1,.59-.36,2.86,2.86,0,0,1,.66-.23,3.07,3.07,0,0,1,.77-.09,2.81,2.81,0,0,1,1.19.24,2.12,2.12,0,0,1,.86.64,2.65,2.65,0,0,1,.53,1,3.87,3.87,0,0,1,.19,1.26V208h-2v-5.22a1.73,1.73,0,0,0-.34-1.16,1.28,1.28,0,0,0-1.05-.42,2.12,2.12,0,0,0-1,.23,3.82,3.82,0,0,0-.85.63V208h-2v-8.21h1.2a.49.49,0,0,1,.51.36Z" style="fill:#069550"/><path d="M73.4,227.74a.47.47,0,0,1,.34.12.42.42,0,0,1,.14.33V229H68.42v-.45a.81.81,0,0,1,.24-.56l2.42-2.42c.2-.21.38-.4.54-.59a3.88,3.88,0,0,0,.4-.56,3.28,3.28,0,0,0,.24-.55,2,2,0,0,0,.09-.6,1.28,1.28,0,0,0-.09-.5.93.93,0,0,0-.23-.37,1,1,0,0,0-.36-.22,1.42,1.42,0,0,0-.48-.08,1.63,1.63,0,0,0-.45.07,1.15,1.15,0,0,0-.36.2,1,1,0,0,0-.27.28,1.4,1.4,0,0,0-.17.37.58.58,0,0,1-.24.33.64.64,0,0,1-.43,0l-.71-.13a2.8,2.8,0,0,1,.32-1,2.2,2.2,0,0,1,.59-.72,2.34,2.34,0,0,1,.81-.43,3.21,3.21,0,0,1,1-.15,3,3,0,0,1,1,.16,2.33,2.33,0,0,1,.78.46,2.23,2.23,0,0,1,.5.71,2.56,2.56,0,0,1,0,1.75,3.09,3.09,0,0,1-.34.71,5.29,5.29,0,0,1-.51.66c-.19.22-.4.43-.61.65l-1.79,1.83a3.1,3.1,0,0,1,.51-.11,2.77,2.77,0,0,1,.49,0Zm6.38,0a.5.5,0,0,1,.35.12.45.45,0,0,1,.13.33V229H74.8v-.45A.81.81,0,0,1,75,228l2.42-2.42c.2-.21.38-.4.54-.59a3.88,3.88,0,0,0,.4-.56,2.63,2.63,0,0,0,.24-.55,2,2,0,0,0,.09-.6,1.5,1.5,0,0,0-.08-.5,1.08,1.08,0,0,0-.24-.37,1,1,0,0,0-.36-.22,1.42,1.42,0,0,0-.48-.08,1.63,1.63,0,0,0-.45.07,1.27,1.27,0,0,0-.36.2,1,1,0,0,0-.27.28,1.4,1.4,0,0,0-.17.37.58.58,0,0,1-.24.33.64.64,0,0,1-.43,0l-.71-.13a2.8,2.8,0,0,1,.32-1,2.35,2.35,0,0,1,1.4-1.15,3.21,3.21,0,0,1,1-.15,3,3,0,0,1,1,.16,2.33,2.33,0,0,1,.78.46,2.23,2.23,0,0,1,.5.71A2.42,2.42,0,0,1,80,224a3.09,3.09,0,0,1-.34.71,4.49,4.49,0,0,1-.51.66c-.19.22-.4.43-.61.65l-1.79,1.83a3.1,3.1,0,0,1,.51-.11,2.77,2.77,0,0,1,.49,0ZM87,226.17a4.12,4.12,0,0,1-.16,1.21,2.48,2.48,0,0,1-.5.92,2,2,0,0,1-.81.58,2.9,2.9,0,0,1-1.14.21,5.46,5.46,0,0,1-.58,0,4.79,4.79,0,0,1-.6-.11c0-.15,0-.29,0-.44s0-.29,0-.44a.29.29,0,0,1,.09-.19.32.32,0,0,1,.23-.08.85.85,0,0,1,.24,0,2,2,0,0,0,.39,0,1.55,1.55,0,0,0,.55-.09.9.9,0,0,0,.4-.29,1.35,1.35,0,0,0,.25-.51,2.94,2.94,0,0,0,.08-.77v-5.16H87Zm6.2-2.81V229h-.83a.31.31,0,0,1-.34-.25l-.1-.45a2.75,2.75,0,0,1-.76.57,2.07,2.07,0,0,1-1,.22,1.94,1.94,0,0,1-.82-.16,1.61,1.61,0,0,1-.59-.44,1.94,1.94,0,0,1-.37-.68,3,3,0,0,1-.12-.87v-3.58h1.36v3.58a1.3,1.3,0,0,0,.23.81,1,1,0,0,0,.73.28,1.4,1.4,0,0,0,.66-.16,2.48,2.48,0,0,0,.58-.43v-4.08Zm2.61.69c.12-.11.24-.22.36-.31a1.9,1.9,0,0,1,.4-.25,2.51,2.51,0,0,1,.46-.16,2.2,2.2,0,0,1,.53-.06,1.94,1.94,0,0,1,.82.16,1.53,1.53,0,0,1,.59.44,1.8,1.8,0,0,1,.36.67,2.65,2.65,0,0,1,.13.87V229H98.14v-3.59a1.25,1.25,0,0,0-.23-.8.89.89,0,0,0-.72-.29,1.46,1.46,0,0,0-.66.16,2.66,2.66,0,0,0-.59.44V229H94.58v-5.64h.83a.33.33,0,0,1,.35.24Zm6.35-.69V229h-1.36v-5.64Zm.19-1.65a.88.88,0,0,1-.07.33.79.79,0,0,1-.2.27.77.77,0,0,1-.27.19.86.86,0,0,1-.68,0,1,1,0,0,1-.27-.19.75.75,0,0,1-.18-.27.72.72,0,0,1-.07-.33.8.8,0,0,1,.07-.34.75.75,0,0,1,.18-.27,1,1,0,0,1,.27-.19.86.86,0,0,1,.68,0,.77.77,0,0,1,.27.19.79.79,0,0,1,.2.27A1,1,0,0,1,102.39,221.71Zm3.83,3.4h2.85v1.13h-2.85Zm12.25-.09a6.45,6.45,0,0,1-.22,1.81,3.86,3.86,0,0,1-.62,1.27,2.57,2.57,0,0,1-.93.75,2.75,2.75,0,0,1-1.15.24,2.8,2.8,0,0,1-1.16-.24,2.63,2.63,0,0,1-.92-.75,3.85,3.85,0,0,1-.61-1.27,7.56,7.56,0,0,1,0-3.62,3.7,3.7,0,0,1,.61-1.26,2.49,2.49,0,0,1,.92-.74,2.66,2.66,0,0,1,1.16-.25,2.61,2.61,0,0,1,1.15.25,2.45,2.45,0,0,1,.93.74,3.71,3.71,0,0,1,.62,1.26A6.5,6.5,0,0,1,118.47,225Zm-1.4,0a6.4,6.4,0,0,0-.13-1.43,2.61,2.61,0,0,0-.34-.9,1.26,1.26,0,0,0-.48-.47,1.28,1.28,0,0,0-.57-.13,1.16,1.16,0,0,0-1,.6,2.83,2.83,0,0,0-.33.9A7,7,0,0,0,114,225a6.91,6.91,0,0,0,.13,1.43,2.74,2.74,0,0,0,.33.9,1.22,1.22,0,0,0,.48.48,1.25,1.25,0,0,0,.57.13,1.28,1.28,0,0,0,.57-.13,1.22,1.22,0,0,0,.48-.48,2.53,2.53,0,0,0,.34-.9A6.28,6.28,0,0,0,117.07,225Zm4.55-1.09-.27.34a2.35,2.35,0,0,1,.49-.17,2.15,2.15,0,0,1,.58-.07,2.57,2.57,0,0,1,.87.15,2,2,0,0,1,.75.45,2.17,2.17,0,0,1,.53.75,2.52,2.52,0,0,1,.2,1,2.63,2.63,0,0,1-.21,1.05,2.45,2.45,0,0,1-.57.85,2.72,2.72,0,0,1-.89.57,3,3,0,0,1-1.14.21,3,3,0,0,1-1.15-.21,2.42,2.42,0,0,1-.86-.56,2.57,2.57,0,0,1-.55-.88,3.26,3.26,0,0,1,0-2.3,5.29,5.29,0,0,1,.71-1.23l1.89-2.54a.76.76,0,0,1,.29-.23,1,1,0,0,1,.44-.09H124Zm.31,4a1.63,1.63,0,0,0,.59-.11,1.43,1.43,0,0,0,.47-.31,1.42,1.42,0,0,0,.42-1.05,1.7,1.7,0,0,0-.11-.61,1.44,1.44,0,0,0-.29-.46,1.33,1.33,0,0,0-.47-.29,1.71,1.71,0,0,0-1.18,0,1.29,1.29,0,0,0-.45.31,1.44,1.44,0,0,0-.29.46,1.56,1.56,0,0,0-.11.57,2,2,0,0,0,.09.61,1.24,1.24,0,0,0,.27.46,1.19,1.19,0,0,0,.45.3A1.62,1.62,0,0,0,121.93,228Zm9.48-1.81a4.11,4.11,0,0,1-.17,1.21,2.46,2.46,0,0,1-.49.92,2.11,2.11,0,0,1-.82.58,2.81,2.81,0,0,1-1.13.21,5.65,5.65,0,0,1-.59,0,4.79,4.79,0,0,1-.6-.11c0-.15,0-.29,0-.44s0-.29,0-.44a.29.29,0,0,1,.09-.19.36.36,0,0,1,.23-.08.85.85,0,0,1,.25,0,1.92,1.92,0,0,0,.38,0,1.6,1.6,0,0,0,.56-.09,1,1,0,0,0,.4-.29,1.52,1.52,0,0,0,.25-.51,3.44,3.44,0,0,0,.08-.77v-5.16h1.48Zm6.19-2.81V229h-.83a.32.32,0,0,1-.34-.25l-.09-.45a2.8,2.8,0,0,1-.77.57,2,2,0,0,1-1,.22,1.94,1.94,0,0,1-.82-.16,1.64,1.64,0,0,1-.6-.44,1.93,1.93,0,0,1-.36-.68,2.94,2.94,0,0,1-.13-.87v-3.58H134v3.58a1.24,1.24,0,0,0,.24.81.92.92,0,0,0,.72.28,1.34,1.34,0,0,0,.66-.16,2.13,2.13,0,0,0,.58-.43v-4.08Zm2.72-2.53V229H139v-8.17Zm2.77,2.53V229h-1.37v-5.64Zm.18-1.65a.72.72,0,0,1-.07.33.77.77,0,0,1-.19.27.92.92,0,0,1-.28.19.94.94,0,0,1-.34.07.88.88,0,0,1-.33-.07,1,1,0,0,1-.46-.46.88.88,0,0,1-.07-.33,1,1,0,0,1,.07-.34,1,1,0,0,1,.46-.46.88.88,0,0,1,.33-.07.94.94,0,0,1,.34.07.92.92,0,0,1,.28.19.77.77,0,0,1,.19.27A.8.8,0,0,1,143.27,221.71Zm8.6,6a.5.5,0,0,1,.35.12.45.45,0,0,1,.13.33V229h-5.46v-.45a.81.81,0,0,1,.24-.56l2.42-2.42c.2-.21.38-.4.54-.59a3.88,3.88,0,0,0,.4-.56,2.19,2.19,0,0,0,.24-.55,2,2,0,0,0,.09-.6,1.5,1.5,0,0,0-.08-.5,1.08,1.08,0,0,0-.24-.37,1,1,0,0,0-.36-.22,1.42,1.42,0,0,0-.48-.08,1.63,1.63,0,0,0-.45.07,1.27,1.27,0,0,0-.36.2,1,1,0,0,0-.27.28,1.12,1.12,0,0,0-.16.37.52.52,0,0,1-.68.37l-.71-.13a3,3,0,0,1,.32-1,2.33,2.33,0,0,1,.59-.72,2.43,2.43,0,0,1,.81-.43,3.21,3.21,0,0,1,1-.15,3,3,0,0,1,1,.16,2.33,2.33,0,0,1,.78.46,2.43,2.43,0,0,1,.51.71,2.48,2.48,0,0,1,0,1.75,3.09,3.09,0,0,1-.34.71,3.89,3.89,0,0,1-.51.66c-.19.22-.4.43-.61.65l-1.79,1.83a3.1,3.1,0,0,1,.51-.11,2.85,2.85,0,0,1,.49,0ZM159,225a6.42,6.42,0,0,1-.23,1.81,3.66,3.66,0,0,1-.61,1.27,2.57,2.57,0,0,1-.93.75,2.9,2.9,0,0,1-2.31,0,2.63,2.63,0,0,1-.92-.75,3.85,3.85,0,0,1-.61-1.27,7.56,7.56,0,0,1,0-3.62A3.7,3.7,0,0,1,154,222a2.49,2.49,0,0,1,.92-.74,2.79,2.79,0,0,1,2.31,0,2.45,2.45,0,0,1,.93.74,3.53,3.53,0,0,1,.61,1.26A6.48,6.48,0,0,1,159,225Zm-1.4,0a7,7,0,0,0-.13-1.43,2.82,2.82,0,0,0-.34-.9,1.26,1.26,0,0,0-.48-.47,1.33,1.33,0,0,0-.58-.13,1.24,1.24,0,0,0-.56.13,1.26,1.26,0,0,0-.48.47,3.08,3.08,0,0,0-.34.9,7.13,7.13,0,0,0-.12,1.43,7,7,0,0,0,.12,1.43,3,3,0,0,0,.34.9,1.22,1.22,0,0,0,.48.48,1.24,1.24,0,0,0,.56.13,1.33,1.33,0,0,0,.58-.13,1.22,1.22,0,0,0,.48-.48,2.73,2.73,0,0,0,.34-.9A6.91,6.91,0,0,0,157.56,225Zm7.07,2.72a.5.5,0,0,1,.35.12.42.42,0,0,1,.13.33V229h-5.46v-.45a.79.79,0,0,1,.06-.29.7.7,0,0,1,.19-.27l2.41-2.42c.2-.21.38-.4.54-.59a3.24,3.24,0,0,0,.4-.56,2.19,2.19,0,0,0,.24-.55,2,2,0,0,0,.09-.6,1.5,1.5,0,0,0-.08-.5,1,1,0,0,0-.6-.59,1.4,1.4,0,0,0-.47-.08,1.52,1.52,0,0,0-.45.07,1.2,1.2,0,0,0-.37.2,1.44,1.44,0,0,0-.27.28,1.12,1.12,0,0,0-.16.37.59.59,0,0,1-.25.33.61.61,0,0,1-.42,0l-.72-.13a3,3,0,0,1,.32-1,2.33,2.33,0,0,1,.59-.72,2.43,2.43,0,0,1,.81-.43,3.21,3.21,0,0,1,1-.15,2.93,2.93,0,0,1,1,.16,2.33,2.33,0,0,1,.78.46,2.11,2.11,0,0,1,.51.71,2.35,2.35,0,0,1,.18.94,2.64,2.64,0,0,1-.13.81,3.13,3.13,0,0,1-.35.71,3.89,3.89,0,0,1-.51.66c-.19.22-.39.43-.61.65l-1.79,1.83a3.1,3.1,0,0,1,.51-.11,2.85,2.85,0,0,1,.49,0Zm6.38,0a.5.5,0,0,1,.35.12.42.42,0,0,1,.13.33V229H166v-.45a.77.77,0,0,1,.05-.29.7.7,0,0,1,.19-.27l2.41-2.42c.2-.21.38-.4.54-.59a3.88,3.88,0,0,0,.4-.56,2.19,2.19,0,0,0,.24-.55,2,2,0,0,0,.09-.6,1.5,1.5,0,0,0-.08-.5,1.08,1.08,0,0,0-.24-.37,1,1,0,0,0-.36-.22,1.4,1.4,0,0,0-.47-.08,1.57,1.57,0,0,0-.45.07,1.2,1.2,0,0,0-.37.2,1.44,1.44,0,0,0-.27.28,1.38,1.38,0,0,0-.16.37.63.63,0,0,1-.24.33.65.65,0,0,1-.43,0l-.72-.13a3,3,0,0,1,.32-1,2.48,2.48,0,0,1,.59-.72,2.43,2.43,0,0,1,.81-.43,3.21,3.21,0,0,1,1-.15,2.93,2.93,0,0,1,1,.16,2.15,2.15,0,0,1,.78.46,2.11,2.11,0,0,1,.51.71,2.56,2.56,0,0,1,0,1.75,3.13,3.13,0,0,1-.35.71,3.89,3.89,0,0,1-.51.66c-.19.22-.39.43-.61.65L168,227.89a3.1,3.1,0,0,1,.51-.11,2.85,2.85,0,0,1,.49,0Z" style="fill:#1a4373"/><g style="clip-path:url(#clip-path-6)"><path d="M302.51,165.52l2.75-2.82.3-3.94,2.82,2.76,3.94.3-2.76,2.82-.3,3.94-2.82-2.76Z" style="fill:#ffa600"/><rect x="354.49" y="132.99" width="5.39" height="5.39" rx="1.16" transform="translate(-19.58 199.29) rotate(-30.38)" style="fill:#1e88e5"/><path d="M330.68,127.6a3.28,3.28,0,0,0-4.48,1.2l-1.09,1.89-7.74-4.46a2,2,0,0,0-2.73.73L303,147.16a2,2,0,0,0,.73,2.74l7.74,4.47,1.09-1.9a3.28,3.28,0,1,1,5.68,3.28l-1.09,1.9,6.79,3.92a2,2,0,0,0,2.74-.74l3.73-6.46-2.54-1.46a4,4,0,0,1-1.47-5.48l.75-1.29a4,4,0,0,1,5.47-1.46l2.54,1.46,3.18-5.51a2,2,0,0,0-.73-2.74L330.79,134l1.09-1.89A3.27,3.27,0,0,0,330.68,127.6Z" style="fill:#1fb767;fill-rule:evenodd"/><path d="M329.22,152a3.28,3.28,0,1,1,3.28-5.68l1.89,1.1,3.92-6.79a2,2,0,0,1,2.74-.74l6.79,3.92-1.1,1.9a3.28,3.28,0,0,0,5.69,3.28l1.09-1.9,7.74,4.47a2,2,0,0,1,.73,2.74l-3.92,6.78-1.9-1.09a3.28,3.28,0,1,0-3.28,5.68l1.9,1.1-4.47,7.73a2,2,0,0,1-2.73.74l-7.74-4.47-1.09,1.89a3.28,3.28,0,0,1-5.68-3.28l1.09-1.89-6.79-3.92a2,2,0,0,1-.73-2.74l4.46-7.73Z" style="fill:#001b3d;fill-rule:evenodd"/></g><path d="M294,196.43V208h-1.9v-7.47c0-.3,0-.62.05-1l-3.5,6.57a.8.8,0,0,1-.76.47h-.3a.82.82,0,0,1-.76-.47l-3.54-6.59c0,.17,0,.34,0,.52s0,.32,0,.47V208h-1.9V196.43h1.88l.18,0a.4.4,0,0,1,.15.1.78.78,0,0,1,.14.2l3.46,6.42a5.12,5.12,0,0,1,.25.53c.08.18.16.37.23.56.08-.2.15-.39.23-.57s.17-.37.26-.54l3.42-6.4a.77.77,0,0,1,.13-.2.65.65,0,0,1,.15-.1l.2,0H294Zm6.4,8.07a8.86,8.86,0,0,0-1.44.15,4,4,0,0,0-.94.27,1.21,1.21,0,0,0-.5.39.86.86,0,0,0-.15.49.84.84,0,0,0,.3.74,1.36,1.36,0,0,0,.81.23,2.26,2.26,0,0,0,1-.22,3.08,3.08,0,0,0,.87-.67Zm-4.53-3.56a4.86,4.86,0,0,1,3.41-1.3,3.3,3.3,0,0,1,1.29.24,2.69,2.69,0,0,1,1.55,1.66,3.74,3.74,0,0,1,.21,1.28V208h-.9a1,1,0,0,1-.43-.08.61.61,0,0,1-.24-.34l-.18-.6a6.35,6.35,0,0,1-.6.5,3.5,3.5,0,0,1-.62.35,2.93,2.93,0,0,1-.69.22,3.94,3.94,0,0,1-.8.08,3.32,3.32,0,0,1-1-.14,2.09,2.09,0,0,1-.76-.42,1.85,1.85,0,0,1-.49-.7,2.4,2.4,0,0,1-.18-1,2.16,2.16,0,0,1,.1-.61,1.85,1.85,0,0,1,.34-.59,2.54,2.54,0,0,1,.62-.53,3.58,3.58,0,0,1,.92-.43,6.53,6.53,0,0,1,1.28-.3,11.32,11.32,0,0,1,1.66-.14v-.48a1.81,1.81,0,0,0-.35-1.22,1.29,1.29,0,0,0-1-.4,2.57,2.57,0,0,0-.8.11,3.13,3.13,0,0,0-.55.26l-.44.25a.89.89,0,0,1-.43.11.56.56,0,0,1-.35-.11.94.94,0,0,1-.24-.25Zm10.95,7.19a2.17,2.17,0,0,1-1.65-.6,2.35,2.35,0,0,1-.57-1.67v-4.59h-.84a.36.36,0,0,1-.27-.1.39.39,0,0,1-.11-.31v-.79l1.32-.21.41-2.24a.48.48,0,0,1,.15-.25.46.46,0,0,1,.29-.09h1v2.58h2.19v1.41h-2.19v4.45a.9.9,0,0,0,.18.6.68.68,0,0,0,.52.22,1.21,1.21,0,0,0,.3,0l.22-.1.17-.09a.27.27,0,0,1,.14-.05.25.25,0,0,1,.15.05l.12.13.59,1a3,3,0,0,1-1,.54A3.53,3.53,0,0,1,306.81,208.13Zm9-6.6a.94.94,0,0,1-.18.17.33.33,0,0,1-.24.07.52.52,0,0,1-.29-.09l-.35-.21a2.16,2.16,0,0,0-1.16-.3,2,2,0,0,0-.91.19,1.62,1.62,0,0,0-.65.54,2.56,2.56,0,0,0-.39.85,4.81,4.81,0,0,0-.13,1.13,4.58,4.58,0,0,0,.14,1.17,2.55,2.55,0,0,0,.41.86,1.72,1.72,0,0,0,.64.53,1.93,1.93,0,0,0,.85.18,2.05,2.05,0,0,0,.76-.12,2.78,2.78,0,0,0,.49-.25l.35-.26a.52.52,0,0,1,.33-.12.39.39,0,0,1,.36.19l.57.72a3.73,3.73,0,0,1-1.51,1.06,4.82,4.82,0,0,1-.85.22,6.33,6.33,0,0,1-.86.06,3.66,3.66,0,0,1-1.44-.28,3.43,3.43,0,0,1-1.17-.83,4,4,0,0,1-.8-1.33,5.61,5.61,0,0,1,0-3.47,3.75,3.75,0,0,1,.76-1.34,3.65,3.65,0,0,1,1.25-.89,4.38,4.38,0,0,1,1.71-.32,4,4,0,0,1,1.61.3,3.91,3.91,0,0,1,1.25.85Zm3.81-.86a4.66,4.66,0,0,1,1.06-.73,3.19,3.19,0,0,1,1.35-.28,2.86,2.86,0,0,1,1.2.24,2.19,2.19,0,0,1,.86.64,2.8,2.8,0,0,1,.53,1,4.17,4.17,0,0,1,.18,1.26V208h-2v-5.22a1.73,1.73,0,0,0-.35-1.16,1.28,1.28,0,0,0-1.05-.42,2.12,2.12,0,0,0-1,.23,3.82,3.82,0,0,0-.85.63V208h-2V196.11h2Zm7,1.67h4.14V204h-4.14Zm18.89-5.91V208h-1.9v-7.47a8.41,8.41,0,0,1,.05-1l-3.5,6.57a.81.81,0,0,1-.76.47h-.3a.81.81,0,0,1-.76-.47l-3.54-6.59c0,.17,0,.34,0,.52s0,.32,0,.47V208H333V196.43h1.87l.19,0a.4.4,0,0,1,.15.1.77.77,0,0,1,.13.2l3.47,6.42c.09.17.17.35.25.53s.15.37.23.56c.07-.2.15-.39.23-.57s.17-.37.26-.54l3.41-6.4a1.15,1.15,0,0,1,.14-.2.65.65,0,0,1,.15-.1l.19,0h1.88Zm6.4,8.07a8.86,8.86,0,0,0-1.44.15,4,4,0,0,0-.94.27,1.21,1.21,0,0,0-.5.39.87.87,0,0,0-.16.49.85.85,0,0,0,.31.74,1.36,1.36,0,0,0,.81.23,2.32,2.32,0,0,0,1.05-.22,3.39,3.39,0,0,0,.87-.67Zm-4.53-3.56a4.84,4.84,0,0,1,3.41-1.3,3.3,3.3,0,0,1,1.29.24,2.79,2.79,0,0,1,1,.66,2.76,2.76,0,0,1,.59,1,3.74,3.74,0,0,1,.2,1.28V208H353a1,1,0,0,1-.43-.08.61.61,0,0,1-.24-.34l-.18-.6a6.41,6.41,0,0,1-.61.5,3.1,3.1,0,0,1-.61.35,3.26,3.26,0,0,1-.69.22,3.94,3.94,0,0,1-.8.08,3.22,3.22,0,0,1-1-.14,2,2,0,0,1-.76-.42,2,2,0,0,1-.5-.7,2.59,2.59,0,0,1-.17-1,1.86,1.86,0,0,1,.1-.61,1.68,1.68,0,0,1,.34-.59,2.68,2.68,0,0,1,.61-.53,3.75,3.75,0,0,1,.92-.43,6.89,6.89,0,0,1,1.28-.3,11.47,11.47,0,0,1,1.67-.14v-.48a1.76,1.76,0,0,0-.36-1.22,1.25,1.25,0,0,0-1-.4,2.57,2.57,0,0,0-.8.11,3.13,3.13,0,0,0-.55.26l-.44.25a.89.89,0,0,1-.43.11.61.61,0,0,1-.36-.11,1.09,1.09,0,0,1-.23-.25Zm10.29-4.83v6.81h.37a.83.83,0,0,0,.31,0,.65.65,0,0,0,.24-.21l2-2.52a1,1,0,0,1,.28-.26.83.83,0,0,1,.41-.09h1.81l-2.55,3.05a2.19,2.19,0,0,1-.6.55,1.35,1.35,0,0,1,.3.28,3.18,3.18,0,0,1,.26.35l2.73,4h-1.78a1,1,0,0,1-.4-.07.63.63,0,0,1-.28-.28l-2.1-3.11a.49.49,0,0,0-.23-.24.84.84,0,0,0-.36-.06h-.45V208h-2V196.11Zm8.62,3.68V208h-2v-8.21Zm.27-2.39a1.12,1.12,0,0,1-.1.48,1.21,1.21,0,0,1-.28.39,1.23,1.23,0,0,1-.4.27,1.21,1.21,0,0,1-.5.1,1.12,1.12,0,0,1-.48-.1,1.3,1.3,0,0,1-.67-.66,1.28,1.28,0,0,1-.09-.48,1.39,1.39,0,0,1,.09-.5,1.56,1.56,0,0,1,.27-.4,1.31,1.31,0,0,1,.4-.26,1.12,1.12,0,0,1,.48-.1,1.31,1.31,0,0,1,.9.36,1.38,1.38,0,0,1,.28.4A1.21,1.21,0,0,1,366.59,197.4Zm3.59,3.4a5.53,5.53,0,0,1,.52-.46,3.58,3.58,0,0,1,.59-.36,2.86,2.86,0,0,1,.66-.23,3.13,3.13,0,0,1,.77-.09,2.78,2.78,0,0,1,1.19.24,2.05,2.05,0,0,1,.86.64,2.51,2.51,0,0,1,.53,1,3.87,3.87,0,0,1,.19,1.26V208h-2v-5.22a1.73,1.73,0,0,0-.34-1.16,1.28,1.28,0,0,0-1.05-.42,2.12,2.12,0,0,0-1,.23,3.82,3.82,0,0,0-.85.63V208h-2v-8.21h1.21a.49.49,0,0,1,.51.36Zm10.19,2.9a2,2,0,0,0,.64-.1,1.15,1.15,0,0,0,.44-.28,1.07,1.07,0,0,0,.28-.42,1.63,1.63,0,0,0,.09-.55,1.27,1.27,0,0,0-.37-1,1.47,1.47,0,0,0-1.08-.36,1.52,1.52,0,0,0-1.1.36,1.3,1.3,0,0,0-.36,1,1.61,1.61,0,0,0,.09.54,1.21,1.21,0,0,0,.27.43,1.32,1.32,0,0,0,.46.28A2,2,0,0,0,380.37,203.7Zm2.23,4.67a.53.53,0,0,0-.15-.39.93.93,0,0,0-.39-.24,2.28,2.28,0,0,0-.58-.12c-.22,0-.46-.05-.71-.06l-.76,0c-.27,0-.52,0-.77-.06a1.8,1.8,0,0,0-.54.43.88.88,0,0,0-.2.57.77.77,0,0,0,.11.4.9.9,0,0,0,.34.33,2.14,2.14,0,0,0,.62.21,4.69,4.69,0,0,0,.92.08,4.38,4.38,0,0,0,.95-.09,2.22,2.22,0,0,0,.66-.23,1,1,0,0,0,.38-.35A.83.83,0,0,0,382.6,208.37Zm2-8.3v.74c0,.23-.15.38-.43.43l-.73.14a2.58,2.58,0,0,1-.08,2,2.46,2.46,0,0,1-.68.83,3.2,3.2,0,0,1-1,.54,4.26,4.26,0,0,1-1.26.18l-.47,0-.44-.07c-.25.16-.38.33-.38.52a.39.39,0,0,0,.22.37,1.86,1.86,0,0,0,.61.16c.25,0,.54.05.86.06l1,.05a7.44,7.44,0,0,1,1,.15,2.59,2.59,0,0,1,.86.31,1.62,1.62,0,0,1,.6.59,1.69,1.69,0,0,1,.23.95,2.23,2.23,0,0,1-.27,1.06,2.74,2.74,0,0,1-.77.91,4,4,0,0,1-1.25.64,5.4,5.4,0,0,1-1.68.25,6,6,0,0,1-1.62-.19,3.32,3.32,0,0,1-1.14-.48,1.92,1.92,0,0,1-.68-.68,1.67,1.67,0,0,1-.23-.82,1.4,1.4,0,0,1,.35-1,2.32,2.32,0,0,1,1-.62,1.43,1.43,0,0,1-.52-.45,1.27,1.27,0,0,1-.19-.74,1.19,1.19,0,0,1,.06-.37,1.66,1.66,0,0,1,.2-.4,2.25,2.25,0,0,1,.34-.36,2.39,2.39,0,0,1,.47-.31,2.59,2.59,0,0,1-1-.89,2.5,2.5,0,0,1-.35-1.32,2.42,2.42,0,0,1,.24-1.09,2.52,2.52,0,0,1,.68-.84,3.16,3.16,0,0,1,1-.54,4.56,4.56,0,0,1,1.31-.18,4,4,0,0,1,1,.11,3.31,3.31,0,0,1,.85.31Z" style="fill:#069550"/><path d="M298.61,228v1h-4.4v-1h1.61v-4.63c0-.19,0-.38,0-.57l-1.15,1a.54.54,0,0,1-.2.1h-.18a.94.94,0,0,1-.15-.06.38.38,0,0,1-.09-.09l-.43-.59,2.42-2.06h1.12V228Zm1.28-4.72a3,3,0,0,1,.32-1,2.33,2.33,0,0,1,.59-.72,2.43,2.43,0,0,1,.81-.43,3.21,3.21,0,0,1,1-.15,2.78,2.78,0,0,1,1,.16,2.25,2.25,0,0,1,.76.43,1.9,1.9,0,0,1,.48.65,2,2,0,0,1,.17.81,2.26,2.26,0,0,1-.09.67,1.41,1.41,0,0,1-.64.86,2,2,0,0,1-.53.25,2.08,2.08,0,0,1,1.07.69,1.9,1.9,0,0,1,.35,1.16,2.32,2.32,0,0,1-.22,1.05,2.51,2.51,0,0,1-.59.77,2.61,2.61,0,0,1-.87.47,3.28,3.28,0,0,1-1,.16,3.66,3.66,0,0,1-1.05-.14,2.19,2.19,0,0,1-.77-.41,2.61,2.61,0,0,1-.57-.66,4.68,4.68,0,0,1-.39-.9l.6-.25a.76.76,0,0,1,.44,0,.43.43,0,0,1,.3.22l.21.38a1.93,1.93,0,0,0,.29.34,1.84,1.84,0,0,0,.39.24,1.64,1.64,0,0,0,.53.08,1.4,1.4,0,0,0,.6-.11,1.13,1.13,0,0,0,.43-.29,1.06,1.06,0,0,0,.26-.41,1.13,1.13,0,0,0,.09-.45,2,2,0,0,0-.06-.51.8.8,0,0,0-.25-.4,1.39,1.39,0,0,0-.56-.26,4,4,0,0,0-1-.1v-1a3.69,3.69,0,0,0,.83-.1,1.48,1.48,0,0,0,.52-.24.86.86,0,0,0,.28-.38,1.51,1.51,0,0,0,.07-.48,1.12,1.12,0,0,0-.31-.86,1.21,1.21,0,0,0-.84-.29,1.5,1.5,0,0,0-.44.07,1.2,1.2,0,0,0-.37.2,1,1,0,0,0-.27.28,1.12,1.12,0,0,0-.16.37.64.64,0,0,1-.25.33.62.62,0,0,1-.42,0Zm9.09,1.85h2.85v1.13H309Zm8.87,2.63a.5.5,0,0,1,.35.12.42.42,0,0,1,.13.33V229h-5.46v-.45a.81.81,0,0,1,.24-.56l2.42-2.42c.2-.21.38-.4.54-.59a3.88,3.88,0,0,0,.4-.56,2.19,2.19,0,0,0,.24-.55,2,2,0,0,0,.09-.6,1.5,1.5,0,0,0-.08-.5,1.08,1.08,0,0,0-.24-.37,1,1,0,0,0-.36-.22,1.42,1.42,0,0,0-.48-.08,1.63,1.63,0,0,0-.45.07,1.27,1.27,0,0,0-.36.2,1.44,1.44,0,0,0-.27.28,1.12,1.12,0,0,0-.16.37.64.64,0,0,1-.25.33.61.61,0,0,1-.42,0l-.72-.13a3,3,0,0,1,.32-1,2.33,2.33,0,0,1,.59-.72,2.43,2.43,0,0,1,.81-.43,3.21,3.21,0,0,1,1-.15,3,3,0,0,1,1,.16,2.33,2.33,0,0,1,.78.46,2.26,2.26,0,0,1,.51.71,2.35,2.35,0,0,1,.18.94,2.64,2.64,0,0,1-.13.81,3.61,3.61,0,0,1-.35.71,3.89,3.89,0,0,1-.51.66c-.19.22-.39.43-.61.65l-1.79,1.83a3.1,3.1,0,0,1,.51-.11,2.85,2.85,0,0,1,.49,0Zm7.09-2.72a6.08,6.08,0,0,1-.23,1.81,3.66,3.66,0,0,1-.61,1.27,2.57,2.57,0,0,1-.93.75,2.9,2.9,0,0,1-2.31,0,2.63,2.63,0,0,1-.92-.75,3.85,3.85,0,0,1-.61-1.27,7.56,7.56,0,0,1,0-3.62,3.7,3.7,0,0,1,.61-1.26,2.49,2.49,0,0,1,.92-.74,2.79,2.79,0,0,1,2.31,0,2.45,2.45,0,0,1,.93.74,3.53,3.53,0,0,1,.61,1.26A6.13,6.13,0,0,1,324.94,225Zm-1.4,0a6.4,6.4,0,0,0-.13-1.43,2.82,2.82,0,0,0-.34-.9,1.26,1.26,0,0,0-.48-.47,1.31,1.31,0,0,0-.57-.13,1.16,1.16,0,0,0-1,.6,3.08,3.08,0,0,0-.34.9,7.13,7.13,0,0,0-.12,1.43,7,7,0,0,0,.12,1.43,3,3,0,0,0,.34.9,1.22,1.22,0,0,0,.48.48,1.25,1.25,0,0,0,.57.13,1.31,1.31,0,0,0,.57-.13,1.22,1.22,0,0,0,.48-.48,2.73,2.73,0,0,0,.34-.9A6.28,6.28,0,0,0,323.54,225Zm8,1.15a4.11,4.11,0,0,1-.17,1.21,2.46,2.46,0,0,1-.49.92,2.11,2.11,0,0,1-.82.58,2.83,2.83,0,0,1-1.14.21,5.65,5.65,0,0,1-.58,0,4.79,4.79,0,0,1-.6-.11c0-.15,0-.29,0-.44s0-.29,0-.44a.29.29,0,0,1,.09-.19.34.34,0,0,1,.23-.08.85.85,0,0,1,.25,0,1.92,1.92,0,0,0,.38,0,1.64,1.64,0,0,0,.56-.09,1,1,0,0,0,.4-.29,1.34,1.34,0,0,0,.24-.51,2.91,2.91,0,0,0,.09-.77v-5.16h1.48Zm6.19-2.81V229h-.83a.32.32,0,0,1-.34-.25l-.1-.45a2.75,2.75,0,0,1-.76.57,2.07,2.07,0,0,1-1,.22,1.89,1.89,0,0,1-.81-.16,1.56,1.56,0,0,1-.6-.44,2.12,2.12,0,0,1-.37-.68,3,3,0,0,1-.12-.87v-3.58h1.36v3.58a1.24,1.24,0,0,0,.24.81.92.92,0,0,0,.72.28,1.4,1.4,0,0,0,.66-.16,2.29,2.29,0,0,0,.58-.43v-4.08Zm2.72-2.53V229h-1.36v-8.17Zm2.76,2.53V229h-1.36v-5.64Zm.19-1.65a.72.72,0,0,1-.07.33.77.77,0,0,1-.19.27.92.92,0,0,1-.28.19.86.86,0,0,1-.68,0,.83.83,0,0,1-.26-.19.66.66,0,0,1-.19-.27.72.72,0,0,1-.07-.33.8.8,0,0,1,.07-.34.66.66,0,0,1,.19-.27.83.83,0,0,1,.26-.19.86.86,0,0,1,.68,0,.92.92,0,0,1,.28.19.77.77,0,0,1,.19.27A.8.8,0,0,1,343.36,221.71Zm8.6,6a.47.47,0,0,1,.34.12.42.42,0,0,1,.14.33V229H347v-.45a.81.81,0,0,1,.24-.56l2.42-2.42c.2-.21.38-.4.53-.59a3.32,3.32,0,0,0,.41-.56,3.28,3.28,0,0,0,.24-.55,2,2,0,0,0,.09-.6,1.28,1.28,0,0,0-.09-.5.93.93,0,0,0-.23-.37,1,1,0,0,0-.36-.22,1.46,1.46,0,0,0-.48-.08,1.63,1.63,0,0,0-.45.07,1.15,1.15,0,0,0-.36.2,1,1,0,0,0-.27.28,1.4,1.4,0,0,0-.17.37.58.58,0,0,1-.24.33.64.64,0,0,1-.43,0l-.71-.13a2.8,2.8,0,0,1,.32-1,2.3,2.3,0,0,1,.58-.72,2.38,2.38,0,0,1,.82-.43,3.21,3.21,0,0,1,1-.15,2.87,2.87,0,0,1,1,.16,2.29,2.29,0,0,1,.79.46,2.23,2.23,0,0,1,.5.71,2.56,2.56,0,0,1,.05,1.75,3.09,3.09,0,0,1-.34.71,5.29,5.29,0,0,1-.51.66l-.61.65-1.79,1.83a3.1,3.1,0,0,1,.51-.11,2.77,2.77,0,0,1,.49,0Zm7.09-2.72a6.42,6.42,0,0,1-.23,1.81,3.85,3.85,0,0,1-.61,1.27,2.57,2.57,0,0,1-.93.75,2.8,2.8,0,0,1-1.16.24,2.75,2.75,0,0,1-1.15-.24,2.54,2.54,0,0,1-.92-.75,3.66,3.66,0,0,1-.61-1.27,7.56,7.56,0,0,1,0-3.62,3.53,3.53,0,0,1,.61-1.26,2.42,2.42,0,0,1,.92-.74,2.61,2.61,0,0,1,1.15-.25,2.66,2.66,0,0,1,1.16.25,2.45,2.45,0,0,1,.93.74,3.7,3.7,0,0,1,.61,1.26A6.48,6.48,0,0,1,359.05,225Zm-1.41,0a7.13,7.13,0,0,0-.12-1.43,3.08,3.08,0,0,0-.34-.9,1.22,1.22,0,0,0-.49-.47,1.25,1.25,0,0,0-.57-.13,1.13,1.13,0,0,0-1,.6,3.08,3.08,0,0,0-.34.9,7.13,7.13,0,0,0-.12,1.43,7,7,0,0,0,.12,1.43,3,3,0,0,0,.34.9,1.27,1.27,0,0,0,.47.48,1.31,1.31,0,0,0,.57.13,1.25,1.25,0,0,0,.57-.13,1.18,1.18,0,0,0,.49-.48,3,3,0,0,0,.34-.9A7,7,0,0,0,357.64,225Zm7.08,2.72a.51.51,0,0,1,.35.12.45.45,0,0,1,.13.33V229h-5.46v-.45A.81.81,0,0,1,360,228l2.42-2.42c.2-.21.38-.4.54-.59a3.88,3.88,0,0,0,.4-.56,2.63,2.63,0,0,0,.24-.55,2,2,0,0,0,.09-.6,1.5,1.5,0,0,0-.08-.5,1.08,1.08,0,0,0-.24-.37,1,1,0,0,0-.36-.22,1.42,1.42,0,0,0-.48-.08,1.63,1.63,0,0,0-.45.07,1.27,1.27,0,0,0-.36.2,1,1,0,0,0-.27.28,1.12,1.12,0,0,0-.16.37.52.52,0,0,1-.68.37l-.71-.13a2.8,2.8,0,0,1,.32-1,2.35,2.35,0,0,1,1.4-1.15,3.21,3.21,0,0,1,1-.15,3,3,0,0,1,1,.16,2.33,2.33,0,0,1,.78.46,2.23,2.23,0,0,1,.5.71,2.19,2.19,0,0,1,.19.94,2.38,2.38,0,0,1-.14.81,3.09,3.09,0,0,1-.34.71,5.29,5.29,0,0,1-.51.66c-.19.22-.4.43-.61.65l-1.79,1.83a3.1,3.1,0,0,1,.51-.11,2.77,2.77,0,0,1,.49,0Zm6.38,0a.5.5,0,0,1,.35.12.45.45,0,0,1,.13.33V229h-5.46v-.45a.81.81,0,0,1,.24-.56l2.42-2.42c.2-.21.38-.4.54-.59a3.88,3.88,0,0,0,.4-.56,2.19,2.19,0,0,0,.24-.55,2,2,0,0,0,.09-.6,1.5,1.5,0,0,0-.08-.5,1.08,1.08,0,0,0-.24-.37,1,1,0,0,0-.36-.22,1.42,1.42,0,0,0-.48-.08,1.63,1.63,0,0,0-.45.07,1.27,1.27,0,0,0-.36.2,1,1,0,0,0-.27.28,1.12,1.12,0,0,0-.16.37.64.64,0,0,1-.25.33.62.62,0,0,1-.42,0l-.72-.13a3,3,0,0,1,.32-1,2.35,2.35,0,0,1,1.4-1.15,3.21,3.21,0,0,1,1-.15,3,3,0,0,1,1,.16,2.33,2.33,0,0,1,.78.46,2.26,2.26,0,0,1,.51.71,2.48,2.48,0,0,1,0,1.75,3.09,3.09,0,0,1-.34.71,3.89,3.89,0,0,1-.51.66c-.19.22-.4.43-.61.65l-1.79,1.83a3.1,3.1,0,0,1,.51-.11,2.77,2.77,0,0,1,.49,0Z" style="fill:#1a4373"/><circle cx="969.5" cy="180.5" r="91.5" style="fill:#fff"/><g style="clip-path:url(#clip-path-7)"><rect x="968.47" y="145.8" width="31.75" height="23.47" rx="4" transform="translate(380.14 950.44) rotate(-61.78)" style="fill:#1fb767"/><rect x="957.37" y="133.55" width="40.65" height="30.04" rx="4" transform="translate(617.44 1069.54) rotate(-77.28)" style="fill:#001b3d"/><circle cx="989.04" cy="138.46" r="2.65" style="fill:#b9c3d3"/><rect x="979.06" y="129.29" width="1.77" height="10.6" rx="0.88" transform="translate(632.84 1060.83) rotate(-77.28)" style="fill:#b9c3d3"/><rect x="977.57" y="131.84" width="1.77" height="12.07" rx="0.88" transform="translate(628.47 1061.94) rotate(-77.28)" style="fill:#1a4373"/><circle cx="986.31" cy="150.52" r="2.65" style="fill:#b9c3d3"/><rect x="976.34" y="141.36" width="1.77" height="10.6" rx="0.88" transform="translate(618.94 1067.59) rotate(-77.28)" style="fill:#b9c3d3"/><rect x="978.58" y="148.58" width="1.77" height="4.42" rx="0.88" transform="translate(616.66 1072.99) rotate(-77.28)" style="fill:#1a4373"/><path d="M986.64,162l-3,1.73a.42.42,0,0,1-.55-.12l-2-2.86a.35.35,0,0,1,.11-.51.43.43,0,0,1,.56.13l1.44,2.09.94-4.18a.39.39,0,0,1,.48-.27.4.4,0,0,1,.31.45l-1,4.17,2.2-1.26a.43.43,0,0,1,.56.12A.35.35,0,0,1,986.64,162Z" style="fill:#b9c3d3;fill-rule:evenodd"/><rect x="951.83" y="156.25" width="5.96" height="3.54" transform="translate(167.92 721.43) rotate(-45)" style="fill:#001b3d"/><rect x="939.5" y="162.14" width="16.5" height="5.89" rx="2" transform="translate(160.86 718.51) rotate(-45)" style="fill:#1fb767"/><circle cx="967.33" cy="145.5" r="12.14" transform="translate(180.44 726.62) rotate(-45)" style="fill:#001b3d"/><path d="M956.08,156.75a15.91,15.91,0,1,0,0-22.5A15.92,15.92,0,0,0,956.08,156.75Zm2.91-2.91a11.79,11.79,0,1,0,0-16.68A11.79,11.79,0,0,0,959,153.84Z" style="fill:#1fb767;fill-rule:evenodd"/><path d="M971.82,140a6.34,6.34,0,0,0-9,0" style="fill:none;stroke:#fff;stroke-linecap:round;stroke-width:2px"/><rect x="944.34" y="126.84" width="5.47" height="5.47" rx="1" transform="translate(22.85 373.62) rotate(-22.58)" style="fill:#ef5350"/><path d="M956.36,167.57l1.73,2.29,2.7,1-2.3,1.74-1,2.69-1.73-2.3-2.69-1,2.29-1.73Z" style="fill:#ff9500"/></g><path d="M941.06,196.43V208h-1.9v-7.47c0-.3,0-.62.05-1l-3.49,6.57a.82.82,0,0,1-.76.47h-.31a.82.82,0,0,1-.76-.47l-3.54-6.59c0,.17,0,.34,0,.52s0,.32,0,.47V208h-1.89V196.43h1.87l.18,0a.4.4,0,0,1,.15.1.78.78,0,0,1,.14.2l3.46,6.42a5.12,5.12,0,0,1,.25.53c.08.18.16.37.23.56l.23-.57c.08-.19.17-.37.26-.54l3.42-6.4a.77.77,0,0,1,.13-.2.65.65,0,0,1,.15-.1l.2,0h1.87Zm5.65,3.23a4.42,4.42,0,0,1,1.66.3,3.75,3.75,0,0,1,1.28.84,3.65,3.65,0,0,1,.82,1.33,5.46,5.46,0,0,1,0,3.51,3.87,3.87,0,0,1-.82,1.34,3.61,3.61,0,0,1-1.28.84,4.42,4.42,0,0,1-1.66.3,4.47,4.47,0,0,1-1.67-.3,3.65,3.65,0,0,1-1.29-.84,3.87,3.87,0,0,1-.82-1.34,5.46,5.46,0,0,1,0-3.51,3.65,3.65,0,0,1,.82-1.33A3.79,3.79,0,0,1,945,200,4.47,4.47,0,0,1,946.71,199.66Zm0,6.94a1.72,1.72,0,0,0,1.51-.69,3.43,3.43,0,0,0,.5-2,3.49,3.49,0,0,0-.5-2,1.72,1.72,0,0,0-1.51-.69,1.76,1.76,0,0,0-1.54.7,3.46,3.46,0,0,0-.5,2,3.43,3.43,0,0,0,.5,2A1.77,1.77,0,0,0,946.71,206.6Zm7.4-5.8a5.53,5.53,0,0,1,.52-.46,3.58,3.58,0,0,1,.59-.36,2.86,2.86,0,0,1,.66-.23,3.13,3.13,0,0,1,.77-.09,2.81,2.81,0,0,1,1.19.24,2.15,2.15,0,0,1,.87.64,2.63,2.63,0,0,1,.52,1,3.87,3.87,0,0,1,.19,1.26V208h-2v-5.22a1.73,1.73,0,0,0-.34-1.16,1.28,1.28,0,0,0-1.05-.42,2.12,2.12,0,0,0-1,.23,3.82,3.82,0,0,0-.85.63V208h-2v-8.21h1.2a.49.49,0,0,1,.51.36Zm9.23-1V208h-2v-8.21Zm.28-2.39a1.13,1.13,0,0,1-.11.48,1.21,1.21,0,0,1-.28.39,1.13,1.13,0,0,1-.4.27,1.25,1.25,0,0,1-1,0,1.19,1.19,0,0,1-.39-.27,1.21,1.21,0,0,1-.28-.39,1.28,1.28,0,0,1-.09-.48,1.16,1.16,0,0,1,.37-.9,1.25,1.25,0,0,1,1.37-.26,1.11,1.11,0,0,1,.4.26,1.38,1.38,0,0,1,.28.4A1.22,1.22,0,0,1,963.62,197.4Zm4.47,10.73a2.16,2.16,0,0,1-1.64-.6,2.35,2.35,0,0,1-.57-1.67v-4.59H965a.36.36,0,0,1-.27-.1.39.39,0,0,1-.11-.31v-.79l1.31-.21.42-2.24a.48.48,0,0,1,.15-.25.46.46,0,0,1,.29-.09h1v2.58h2.2v1.41h-2.2v4.45a.9.9,0,0,0,.19.6.68.68,0,0,0,.52.22,1.21,1.21,0,0,0,.3,0l.22-.1.17-.09a.24.24,0,0,1,.14-.05.2.2,0,0,1,.14.05.79.79,0,0,1,.13.13l.59,1a3,3,0,0,1-1,.54A3.59,3.59,0,0,1,968.09,208.13Zm6.79-8.47a4.42,4.42,0,0,1,1.66.3,3.56,3.56,0,0,1,2.1,2.17,5.46,5.46,0,0,1,0,3.51,3.87,3.87,0,0,1-.82,1.34,3.52,3.52,0,0,1-1.28.84,4.42,4.42,0,0,1-1.66.3,4.47,4.47,0,0,1-1.67-.3,3.65,3.65,0,0,1-1.29-.84,3.87,3.87,0,0,1-.82-1.34,5.46,5.46,0,0,1,0-3.51,3.65,3.65,0,0,1,.82-1.33,3.79,3.79,0,0,1,1.29-.84A4.47,4.47,0,0,1,974.88,199.66Zm0,6.94a1.72,1.72,0,0,0,1.51-.69,3.43,3.43,0,0,0,.5-2,3.49,3.49,0,0,0-.5-2,1.72,1.72,0,0,0-1.51-.69,1.76,1.76,0,0,0-1.54.7,3.46,3.46,0,0,0-.5,2,3.43,3.43,0,0,0,.5,2A1.77,1.77,0,0,0,974.88,206.6Zm7.42-5.38a3.64,3.64,0,0,1,.91-1.16,2,2,0,0,1,1.25-.42,1.49,1.49,0,0,1,.91.25l-.13,1.48a.37.37,0,0,1-.12.21.34.34,0,0,1-.2,0,1.85,1.85,0,0,1-.35,0,3.73,3.73,0,0,0-.46,0,1.5,1.5,0,0,0-.58.1,1.25,1.25,0,0,0-.47.28,2,2,0,0,0-.36.43,5.22,5.22,0,0,0-.29.58V208h-2v-8.21h1.16a.48.48,0,0,1,.58.5Zm6.15-1.43V208h-2v-8.21Zm.28-2.39a1.13,1.13,0,0,1-.11.48,1.21,1.21,0,0,1-.28.39,1.13,1.13,0,0,1-.4.27,1.25,1.25,0,0,1-1,0,1.19,1.19,0,0,1-.39-.27,1.21,1.21,0,0,1-.28-.39,1.28,1.28,0,0,1-.09-.48,1.16,1.16,0,0,1,.37-.9,1.25,1.25,0,0,1,1.37-.26,1.11,1.11,0,0,1,.4.26,1.38,1.38,0,0,1,.28.4A1.22,1.22,0,0,1,988.73,197.4Zm3.59,3.4a4.5,4.5,0,0,1,.52-.46,3.5,3.5,0,0,1,.58-.36,3,3,0,0,1,.66-.23,3.19,3.19,0,0,1,.77-.09,2.78,2.78,0,0,1,1.19.24,2.15,2.15,0,0,1,.87.64,2.8,2.8,0,0,1,.53,1,4.17,4.17,0,0,1,.18,1.26V208h-2v-5.22a1.73,1.73,0,0,0-.34-1.16,1.28,1.28,0,0,0-1-.42,2.12,2.12,0,0,0-1,.23,3.82,3.82,0,0,0-.85.63V208h-2v-8.21h1.21a.49.49,0,0,1,.5.36Zm10.18,2.9a2,2,0,0,0,.64-.1,1.28,1.28,0,0,0,.45-.28,1.17,1.17,0,0,0,.27-.42,1.63,1.63,0,0,0,.1-.55,1.3,1.3,0,0,0-.37-1,1.49,1.49,0,0,0-1.09-.36,1.52,1.52,0,0,0-1.1.36,1.3,1.3,0,0,0-.36,1,1.61,1.61,0,0,0,.09.54,1.57,1.57,0,0,0,.27.43,1.42,1.42,0,0,0,.46.28A2.1,2.1,0,0,0,1002.5,203.7Zm2.23,4.67a.56.56,0,0,0-.14-.39,1.08,1.08,0,0,0-.39-.24,2.36,2.36,0,0,0-.59-.12c-.22,0-.45-.05-.7-.06l-.77,0c-.26,0-.52,0-.77-.06a1.64,1.64,0,0,0-.53.43.83.83,0,0,0-.2.57.77.77,0,0,0,.1.4.9.9,0,0,0,.34.33,2.14,2.14,0,0,0,.62.21,4.77,4.77,0,0,0,.92.08,4.38,4.38,0,0,0,1-.09,2,2,0,0,0,.66-.23,1,1,0,0,0,.38-.35A.83.83,0,0,0,1004.73,208.37Zm2-8.3v.74c0,.23-.14.38-.42.43l-.74.14a2.58,2.58,0,0,1-.08,2,2.43,2.43,0,0,1-.67.83,3.25,3.25,0,0,1-1,.54,4.26,4.26,0,0,1-1.26.18l-.46,0-.44-.07c-.26.16-.39.33-.39.52a.39.39,0,0,0,.23.37,1.73,1.73,0,0,0,.6.16c.25,0,.54.05.86.06l1,.05a7.86,7.86,0,0,1,1,.15,2.53,2.53,0,0,1,.85.31,1.62,1.62,0,0,1,.6.59,1.69,1.69,0,0,1,.24.95,2.24,2.24,0,0,1-.28,1.06,2.74,2.74,0,0,1-.77.91,3.87,3.87,0,0,1-1.25.64,5.4,5.4,0,0,1-1.68.25,6,6,0,0,1-1.62-.19,3.32,3.32,0,0,1-1.14-.48,2,2,0,0,1-.68-.68,1.67,1.67,0,0,1-.23-.82,1.4,1.4,0,0,1,.35-1,2.32,2.32,0,0,1,1-.62,1.43,1.43,0,0,1-.52-.45,1.27,1.27,0,0,1-.19-.74,1.19,1.19,0,0,1,.06-.37,2.14,2.14,0,0,1,.2-.4,2.25,2.25,0,0,1,.34-.36,2.39,2.39,0,0,1,.47-.31,2.66,2.66,0,0,1-1-.89,2.5,2.5,0,0,1-.35-1.32,2.42,2.42,0,0,1,.24-1.09,2.65,2.65,0,0,1,.68-.84,3.21,3.21,0,0,1,1-.54,4.49,4.49,0,0,1,1.3-.18,4,4,0,0,1,1,.11,3.31,3.31,0,0,1,.85.31Z" style="fill:#008444"/><path d="M1011.69,198.36a2,2,0,0,1-.29.15,1,1,0,0,1-.29.08,1.39,1.39,0,0,1,.58.23l1.27.74-.46.8-1.28-.74-.27-.19a1,1,0,0,1-.21-.21,1.66,1.66,0,0,1,.11.61v1.47h-1v-1.46a3,3,0,0,1,0-.31,2.46,2.46,0,0,1,.07-.29,1,1,0,0,1-.21.2l-.25.18-1.27.73-.47-.8,1.27-.73a1.79,1.79,0,0,1,.58-.23,1.63,1.63,0,0,1-.58-.23l-1.27-.74.47-.8,1.27.75.26.18a2.09,2.09,0,0,1,.22.2,1.57,1.57,0,0,1-.11-.6v-1.48h1v1.47a1.73,1.73,0,0,1,0,.32.89.89,0,0,1-.07.28,2.09,2.09,0,0,1,.22-.2l.25-.17,1.27-.74.47.8Z" style="fill:#f44336"/><path d="M905.16,222.49a.43.43,0,0,1-.15.17.24.24,0,0,1-.18.05.45.45,0,0,1-.25-.08l-.32-.19a2.63,2.63,0,0,0-.44-.19,1.7,1.7,0,0,0-.59-.09,1.8,1.8,0,0,0-.54.08,1.43,1.43,0,0,0-.39.2.9.9,0,0,0-.23.32,1.06,1.06,0,0,0-.08.4.72.72,0,0,0,.16.47,1.26,1.26,0,0,0,.42.32,3.28,3.28,0,0,0,.59.24l.67.22a5.72,5.72,0,0,1,.68.28,2.33,2.33,0,0,1,.59.39,1.78,1.78,0,0,1,.41.59,2.1,2.1,0,0,1,.16.84,2.59,2.59,0,0,1-.19,1,2.34,2.34,0,0,1-.54.82,2.59,2.59,0,0,1-.86.55,3.26,3.26,0,0,1-1.17.2,3.82,3.82,0,0,1-.75-.08,4.16,4.16,0,0,1-.71-.21,3.78,3.78,0,0,1-.63-.33,2.84,2.84,0,0,1-.53-.43l.43-.71a.44.44,0,0,1,.15-.12.32.32,0,0,1,.18-.06.5.5,0,0,1,.3.12l.38.24a3,3,0,0,0,.51.26,2.16,2.16,0,0,0,.71.11,1.45,1.45,0,0,0,1-.3,1.09,1.09,0,0,0,.35-.86.82.82,0,0,0-.16-.51,1,1,0,0,0-.41-.33,2.59,2.59,0,0,0-.59-.23l-.67-.21a4.9,4.9,0,0,1-.67-.26,2.27,2.27,0,0,1-.59-.4,1.7,1.7,0,0,1-.42-.62,2.45,2.45,0,0,1,0-1.77,2.41,2.41,0,0,1,.51-.73,2.54,2.54,0,0,1,.81-.51,3,3,0,0,1,1.12-.19,3.6,3.6,0,0,1,1.29.22,3,3,0,0,1,1,.61Zm5.2,3a1.64,1.64,0,0,0-.08-.5,1.25,1.25,0,0,0-.22-.41,1,1,0,0,0-.38-.27,1.22,1.22,0,0,0-.53-.11,1.25,1.25,0,0,0-.93.34,1.64,1.64,0,0,0-.42.95Zm-2.59.82a2.62,2.62,0,0,0,.15.75,1.48,1.48,0,0,0,.32.52,1.25,1.25,0,0,0,.47.31,1.64,1.64,0,0,0,.6.1,1.93,1.93,0,0,0,.57-.07,2.79,2.79,0,0,0,.42-.18l.31-.17a.54.54,0,0,1,.27-.07.29.29,0,0,1,.25.12l.39.5a2.38,2.38,0,0,1-.51.44,2.49,2.49,0,0,1-.59.29,3.12,3.12,0,0,1-.62.15,4.26,4.26,0,0,1-.61,0,3,3,0,0,1-1.09-.19,2.37,2.37,0,0,1-.88-.58,2.64,2.64,0,0,1-.59-.94,3.78,3.78,0,0,1-.22-1.31,3.24,3.24,0,0,1,.19-1.09,2.71,2.71,0,0,1,.54-.88,2.61,2.61,0,0,1,.85-.6,2.79,2.79,0,0,1,1.14-.22,2.84,2.84,0,0,1,1,.17,2.13,2.13,0,0,1,.78.5,2.32,2.32,0,0,1,.5.8,2.86,2.86,0,0,1,.19,1.09.79.79,0,0,1-.07.41.26.26,0,0,1-.25.11Zm6.19,1.19a1.29,1.29,0,0,0,.5.39,1.45,1.45,0,0,0,.59.12,1.28,1.28,0,0,0,.56-.12,1.07,1.07,0,0,0,.42-.35,1.78,1.78,0,0,0,.26-.59,3.17,3.17,0,0,0,.1-.86,3.89,3.89,0,0,0-.08-.83,1.52,1.52,0,0,0-.23-.56.91.91,0,0,0-.36-.32,1.21,1.21,0,0,0-.48-.1,1.29,1.29,0,0,0-.72.19,1.86,1.86,0,0,0-.56.5Zm-.07-3.41a3.17,3.17,0,0,1,.78-.64,2.16,2.16,0,0,1,1-.24,1.83,1.83,0,0,1,.84.2,1.76,1.76,0,0,1,.66.56,2.51,2.51,0,0,1,.43.9,4.48,4.48,0,0,1,.15,1.22,4,4,0,0,1-.17,1.18,2.85,2.85,0,0,1-.49.93,2.17,2.17,0,0,1-.76.62,2.19,2.19,0,0,1-1,.22,2,2,0,0,1-.81-.14,1.78,1.78,0,0,1-.6-.41v2.31H912.6v-7.48h.83a.34.34,0,0,1,.35.24Zm6.77,5a1.54,1.54,0,0,1-1.14-.41,1.64,1.64,0,0,1-.39-1.15v-3.16h-.57a.25.25,0,0,1-.19-.07.27.27,0,0,1-.08-.21v-.54l.91-.15.28-1.54a.34.34,0,0,1,.11-.17.32.32,0,0,1,.2-.06h.7v1.78H922v1h-1.51v3.06a.6.6,0,0,0,.13.42.49.49,0,0,0,.36.14l.2,0,.15-.07.12-.06a.19.19,0,0,1,.1,0,.17.17,0,0,1,.1,0l.08.09.41.66a2.09,2.09,0,0,1-.69.37A2.34,2.34,0,0,1,920.66,229.09Zm5.8-3.56a1.38,1.38,0,0,0-.08-.5,1.09,1.09,0,0,0-.22-.41.9.9,0,0,0-.38-.27,1.21,1.21,0,0,0-.52-.11,1.22,1.22,0,0,0-.93.34,1.59,1.59,0,0,0-.43.95Zm-2.59.82a2.31,2.31,0,0,0,.16.75,1.31,1.31,0,0,0,.78.83,1.7,1.7,0,0,0,.61.1A1.82,1.82,0,0,0,926,228a2.79,2.79,0,0,0,.42-.18l.31-.17a.57.57,0,0,1,.27-.07.28.28,0,0,1,.25.12l.39.5a2.59,2.59,0,0,1-.5.44,2.93,2.93,0,0,1-.59.29,3.3,3.3,0,0,1-.62.15,4.4,4.4,0,0,1-.62,0,3,3,0,0,1-1.09-.19,2.37,2.37,0,0,1-.88-.58,2.79,2.79,0,0,1-.59-.94,3.79,3.79,0,0,1-.21-1.31,3,3,0,0,1,.19-1.09,2.53,2.53,0,0,1,.53-.88,2.61,2.61,0,0,1,.85-.6,3,3,0,0,1,2.12-.05,2.13,2.13,0,0,1,.78.5,2.18,2.18,0,0,1,.5.8,2.86,2.86,0,0,1,.19,1.09.94.94,0,0,1-.06.41.29.29,0,0,1-.26.11ZM928.7,229v-5.64h.83a.34.34,0,0,1,.35.24l.09.42a2.91,2.91,0,0,1,.31-.3,2.62,2.62,0,0,1,.34-.24,2.74,2.74,0,0,1,.4-.15,1.7,1.7,0,0,1,.46-.06,1.33,1.33,0,0,1,.88.29,1.81,1.81,0,0,1,.52.76,1.43,1.43,0,0,1,.33-.47,1.5,1.5,0,0,1,.43-.33,1.91,1.91,0,0,1,.5-.19,2.48,2.48,0,0,1,.54-.06,2.37,2.37,0,0,1,.83.14,1.66,1.66,0,0,1,.61.42,1.68,1.68,0,0,1,.37.67,2.81,2.81,0,0,1,.14.91V229h-1.36v-3.59a1.19,1.19,0,0,0-.24-.81.87.87,0,0,0-.69-.28,1,1,0,0,0-.39.08.79.79,0,0,0-.31.2.89.89,0,0,0-.21.34,1.36,1.36,0,0,0-.08.47V229H932v-3.59a1.21,1.21,0,0,0-.23-.83.84.84,0,0,0-.66-.26,1.12,1.12,0,0,0-.56.15,1.93,1.93,0,0,0-.47.4V229Zm10.58-1.46a1.29,1.29,0,0,0,.5.39,1.39,1.39,0,0,0,.57.12,1.48,1.48,0,0,0,.57-.11,1.1,1.1,0,0,0,.42-.35,1.71,1.71,0,0,0,.27-.61,3.36,3.36,0,0,0,.1-.89,2.33,2.33,0,0,0-.31-1.35,1,1,0,0,0-.88-.42,1.21,1.21,0,0,0-.69.19,2,2,0,0,0-.55.5Zm0-3.49a2.71,2.71,0,0,1,.75-.57,2.11,2.11,0,0,1,1-.21,1.93,1.93,0,0,1,.88.19,1.72,1.72,0,0,1,.67.56,2.45,2.45,0,0,1,.43.87,4.06,4.06,0,0,1,.15,1.15,4.37,4.37,0,0,1-.17,1.24,2.86,2.86,0,0,1-.49,1,2.19,2.19,0,0,1-1.75.83,2.44,2.44,0,0,1-.48-.05,1.66,1.66,0,0,1-.39-.15,1.52,1.52,0,0,1-.34-.22,2.68,2.68,0,0,1-.28-.3l-.06.38a.36.36,0,0,1-.12.2.33.33,0,0,1-.21.06h-.9v-8.17h1.36Zm8.51,1.48a1.63,1.63,0,0,0-.07-.5,1.25,1.25,0,0,0-.22-.41,1.05,1.05,0,0,0-.38-.27,1.4,1.4,0,0,0-1.46.23,1.65,1.65,0,0,0-.43.95Zm-2.58.82a2.62,2.62,0,0,0,.15.75,1.48,1.48,0,0,0,.32.52,1.25,1.25,0,0,0,.47.31,1.64,1.64,0,0,0,.6.1,1.93,1.93,0,0,0,.57-.07,2.28,2.28,0,0,0,.41-.18l.32-.17a.54.54,0,0,1,.26-.07.3.3,0,0,1,.26.12l.39.5a2.64,2.64,0,0,1-.51.44,2.69,2.69,0,0,1-.59.29,3.3,3.3,0,0,1-.62.15,4.26,4.26,0,0,1-.61,0,3.07,3.07,0,0,1-1.1-.19,2.33,2.33,0,0,1-.87-.58,2.64,2.64,0,0,1-.59-.94,3.56,3.56,0,0,1-.22-1.31A3,3,0,0,1,944,225a2.53,2.53,0,0,1,.53-.88,2.73,2.73,0,0,1,.85-.6,2.79,2.79,0,0,1,1.14-.22,2.86,2.86,0,0,1,1,.17,2,2,0,0,1,.77.5,2.2,2.2,0,0,1,.51.8,3.07,3.07,0,0,1,.19,1.09.91.91,0,0,1-.07.41.27.27,0,0,1-.25.11Zm6.11-2a2.44,2.44,0,0,1,.62-.8,1.37,1.37,0,0,1,.86-.29,1.09,1.09,0,0,1,.63.17l-.09,1a.3.3,0,0,1-.08.14.2.2,0,0,1-.14,0l-.25,0-.31,0a1.25,1.25,0,0,0-.4.06,1.13,1.13,0,0,0-.32.19,2.48,2.48,0,0,0-.25.3c-.07.12-.13.25-.2.4V229H950v-5.64h.79a.42.42,0,0,1,.29.07.38.38,0,0,1,.11.27Zm5.21.77h2.85v1.13h-2.85Zm14.1-.09a4.39,4.39,0,0,1-.29,1.61,3.62,3.62,0,0,1-.82,1.26,3.71,3.71,0,0,1-1.27.82,4.53,4.53,0,0,1-1.65.29h-3v-7.95h3a4.53,4.53,0,0,1,1.65.29,3.71,3.71,0,0,1,1.27.82,3.62,3.62,0,0,1,.82,1.26A4.34,4.34,0,0,1,970.63,225Zm-1.52,0a3.6,3.6,0,0,0-.17-1.17,2.3,2.3,0,0,0-.5-.88,2.09,2.09,0,0,0-.79-.55,2.69,2.69,0,0,0-1-.2h-1.54v5.6h1.54a2.69,2.69,0,0,0,1-.19,2.21,2.21,0,0,0,.79-.55,2.38,2.38,0,0,0,.5-.88A3.62,3.62,0,0,0,969.11,225Zm6.17.51a1.63,1.63,0,0,0-.07-.5,1.25,1.25,0,0,0-.22-.41,1.05,1.05,0,0,0-.38-.27,1.4,1.4,0,0,0-1.46.23,1.65,1.65,0,0,0-.43.95Zm-2.59.82a3,3,0,0,0,.16.75,1.35,1.35,0,0,0,.32.52,1.25,1.25,0,0,0,.47.31,1.64,1.64,0,0,0,.6.1,1.93,1.93,0,0,0,.57-.07,2.28,2.28,0,0,0,.41-.18l.32-.17a.54.54,0,0,1,.26-.07.28.28,0,0,1,.25.12l.4.5a2.64,2.64,0,0,1-.51.44,2.69,2.69,0,0,1-.59.29,3.3,3.3,0,0,1-.62.15,4.26,4.26,0,0,1-.61,0,3.07,3.07,0,0,1-1.1-.19,2.46,2.46,0,0,1-.88-.58,2.77,2.77,0,0,1-.58-.94,3.56,3.56,0,0,1-.22-1.31,3,3,0,0,1,.19-1.09,2.53,2.53,0,0,1,.53-.88,2.73,2.73,0,0,1,.85-.6,2.79,2.79,0,0,1,1.14-.22,2.86,2.86,0,0,1,1,.17,2,2,0,0,1,.77.5,2.2,2.2,0,0,1,.51.8,3.07,3.07,0,0,1,.19,1.09.91.91,0,0,1-.07.41.27.27,0,0,1-.25.11Zm8.28-1.89a.34.34,0,0,1-.12.12.33.33,0,0,1-.15,0,.49.49,0,0,1-.22-.06l-.25-.12a2.68,2.68,0,0,0-.34-.13,2,2,0,0,0-.45-.05,1,1,0,0,0-.63.17.53.53,0,0,0-.23.45.41.41,0,0,0,.12.3,1.07,1.07,0,0,0,.31.22,3.28,3.28,0,0,0,.45.17l.5.16a4.34,4.34,0,0,1,.5.2,1.46,1.46,0,0,1,.44.29,1.22,1.22,0,0,1,.44,1,1.91,1.91,0,0,1-.15.76,1.76,1.76,0,0,1-.43.59,2.11,2.11,0,0,1-.71.39,3.15,3.15,0,0,1-1,.14,2.76,2.76,0,0,1-.57-.06,3.18,3.18,0,0,1-.53-.14,3.51,3.51,0,0,1-.48-.22,2.84,2.84,0,0,1-.38-.27l.32-.52a.47.47,0,0,1,.14-.14.37.37,0,0,1,.21-.06.46.46,0,0,1,.24.08l.26.15a1.92,1.92,0,0,0,.35.16,1.74,1.74,0,0,0,.51.07,1.22,1.22,0,0,0,.41-.06,1,1,0,0,0,.29-.15.57.57,0,0,0,.16-.22.58.58,0,0,0,.06-.26.44.44,0,0,0-.12-.32,1.13,1.13,0,0,0-.32-.22,3.68,3.68,0,0,0-.44-.17l-.52-.16-.51-.2a1.67,1.67,0,0,1-.44-.31,1.43,1.43,0,0,1-.32-.44,1.75,1.75,0,0,1-.11-.64,1.51,1.51,0,0,1,.14-.66,1.41,1.41,0,0,1,.4-.54,1.94,1.94,0,0,1,.66-.38,2.93,2.93,0,0,1,.93-.14,2.78,2.78,0,0,1,1.06.19,2.5,2.5,0,0,1,.8.51Zm5,1.07a1.63,1.63,0,0,0-.07-.5,1.25,1.25,0,0,0-.22-.41,1.05,1.05,0,0,0-.38-.27,1.4,1.4,0,0,0-1.46.23,1.65,1.65,0,0,0-.43.95Zm-2.59.82a3,3,0,0,0,.16.75,1.35,1.35,0,0,0,.32.52,1.21,1.21,0,0,0,.46.31,1.74,1.74,0,0,0,.61.1,1.93,1.93,0,0,0,.57-.07,2.28,2.28,0,0,0,.41-.18l.32-.17a.54.54,0,0,1,.26-.07.28.28,0,0,1,.25.12l.4.5a2.38,2.38,0,0,1-.51.44,2.69,2.69,0,0,1-.59.29,3.3,3.3,0,0,1-.62.15,4.26,4.26,0,0,1-.61,0,3.07,3.07,0,0,1-1.1-.19,2.46,2.46,0,0,1-.88-.58,2.62,2.62,0,0,1-.58-.94,3.56,3.56,0,0,1-.22-1.31,3,3,0,0,1,.19-1.09,2.53,2.53,0,0,1,.53-.88,2.73,2.73,0,0,1,.85-.6,2.79,2.79,0,0,1,1.14-.22,2.86,2.86,0,0,1,1,.17,2,2,0,0,1,.77.5,2.2,2.2,0,0,1,.51.8,3.07,3.07,0,0,1,.19,1.09.91.91,0,0,1-.07.41.28.28,0,0,1-.25.11Zm4.83,2.65v-5.64h.84a.33.33,0,0,1,.34.24l.09.42a2.91,2.91,0,0,1,.31-.3,2.62,2.62,0,0,1,.34-.24,2.74,2.74,0,0,1,.4-.15,1.73,1.73,0,0,1,.47-.06,1.32,1.32,0,0,1,.87.29,1.72,1.72,0,0,1,.52.76,1.8,1.8,0,0,1,.33-.47,1.65,1.65,0,0,1,.43-.33,1.91,1.91,0,0,1,.5-.19,2.48,2.48,0,0,1,.54-.06,2.33,2.33,0,0,1,.83.14,1.58,1.58,0,0,1,.61.42,1.83,1.83,0,0,1,.38.67,2.82,2.82,0,0,1,.13.91V229H994.8v-3.59a1.24,1.24,0,0,0-.23-.81.89.89,0,0,0-.7-.28,1,1,0,0,0-.39.08.79.79,0,0,0-.31.2.89.89,0,0,0-.21.34,1.36,1.36,0,0,0-.08.47V229h-1.36v-3.59a1.27,1.27,0,0,0-.23-.83.86.86,0,0,0-.67-.26,1.06,1.06,0,0,0-.55.15,2,2,0,0,0-.48.4V229Zm10.58-1.46a1.29,1.29,0,0,0,.5.39,1.47,1.47,0,0,0,1.14,0,1.21,1.21,0,0,0,.43-.35,1.71,1.71,0,0,0,.27-.61,3.87,3.87,0,0,0,.09-.89,2.26,2.26,0,0,0-.31-1.35,1,1,0,0,0-.88-.42,1.18,1.18,0,0,0-.68.19,2,2,0,0,0-.56.5Zm0-3.49a2.87,2.87,0,0,1,.75-.57,2.12,2.12,0,0,1,1-.21,2,2,0,0,1,.88.19,1.88,1.88,0,0,1,.67.56,2.62,2.62,0,0,1,.43.87,4.47,4.47,0,0,1,.14,1.15,4,4,0,0,1-.17,1.24,2.69,2.69,0,0,1-.49,1,2.19,2.19,0,0,1-1.75.83,2.26,2.26,0,0,1-.47-.05,1.58,1.58,0,0,1-.4-.15,1.46,1.46,0,0,1-.33-.22,2.76,2.76,0,0,1-.29-.3l-.06.38a.31.31,0,0,1-.12.2.33.33,0,0,1-.21.06h-.9v-8.17h1.36Zm8.52,1.48a1.64,1.64,0,0,0-.08-.5,1.25,1.25,0,0,0-.22-.41,1,1,0,0,0-.38-.27,1.22,1.22,0,0,0-.53-.11,1.25,1.25,0,0,0-.93.34,1.64,1.64,0,0,0-.42.95Zm-2.59.82a2.62,2.62,0,0,0,.15.75,1.48,1.48,0,0,0,.32.52,1.25,1.25,0,0,0,.47.31,1.64,1.64,0,0,0,.6.1,1.93,1.93,0,0,0,.57-.07,2.79,2.79,0,0,0,.42-.18l.31-.17a.54.54,0,0,1,.27-.07.29.29,0,0,1,.25.12l.39.5a2.38,2.38,0,0,1-.51.44,2.49,2.49,0,0,1-.59.29,3.12,3.12,0,0,1-.62.15,4.26,4.26,0,0,1-.61,0,3,3,0,0,1-1.09-.19,2.37,2.37,0,0,1-.88-.58,2.64,2.64,0,0,1-.59-.94,3.78,3.78,0,0,1-.22-1.31,3.24,3.24,0,0,1,.19-1.09,2.55,2.55,0,0,1,.54-.88,2.51,2.51,0,0,1,.85-.6,2.76,2.76,0,0,1,1.14-.22,2.84,2.84,0,0,1,1,.17,2.13,2.13,0,0,1,.78.5,2.32,2.32,0,0,1,.5.8,2.86,2.86,0,0,1,.19,1.09.79.79,0,0,1-.07.41.26.26,0,0,1-.25.11Zm6.11-2a2.6,2.6,0,0,1,.63-.8,1.35,1.35,0,0,1,.86-.29,1.06,1.06,0,0,1,.62.17l-.09,1a.2.2,0,0,1-.22.18l-.24,0-.32,0a1.25,1.25,0,0,0-.4.06,1.29,1.29,0,0,0-.32.19,1.76,1.76,0,0,0-.24.3,3,3,0,0,0-.2.4V229h-1.36v-5.64h.8a.44.44,0,0,1,.29.07.49.49,0,0,1,.11.27Zm10,3.4a.47.47,0,0,1,.34.12.42.42,0,0,1,.13.33V229h-5.45v-.45a1,1,0,0,1,0-.29.83.83,0,0,1,.19-.27l2.41-2.42a6.92,6.92,0,0,0,.54-.59,3.24,3.24,0,0,0,.4-.56,2.68,2.68,0,0,0,.25-.55,2,2,0,0,0,.08-.6,1.28,1.28,0,0,0-.08-.5.93.93,0,0,0-.23-.37.91.91,0,0,0-.37-.22,1.36,1.36,0,0,0-.47-.08,1.63,1.63,0,0,0-.45.07,1,1,0,0,0-.36.2,1,1,0,0,0-.27.28,1.14,1.14,0,0,0-.17.37.58.58,0,0,1-.24.33.64.64,0,0,1-.43,0l-.71-.13a3,3,0,0,1,.31-1,2.48,2.48,0,0,1,.59-.72,2.38,2.38,0,0,1,.82-.43,3.12,3.12,0,0,1,1-.15,2.91,2.91,0,0,1,1,.16,2.15,2.15,0,0,1,.78.46,2.11,2.11,0,0,1,.51.71,2.56,2.56,0,0,1,0,1.75,2.76,2.76,0,0,1-.35.71,4.41,4.41,0,0,1-.5.66l-.61.65-1.8,1.83a3.46,3.46,0,0,1,.52-.11,2.74,2.74,0,0,1,.48,0Zm7.09-2.72a6.42,6.42,0,0,1-.23,1.81,3.67,3.67,0,0,1-.62,1.27,2.57,2.57,0,0,1-.93.75,2.75,2.75,0,0,1-1.15.24,2.83,2.83,0,0,1-1.16-.24,2.6,2.6,0,0,1-.91-.75,3.66,3.66,0,0,1-.61-1.27,7.56,7.56,0,0,1,0-3.62,3.53,3.53,0,0,1,.61-1.26,2.46,2.46,0,0,1,.91-.74A2.69,2.69,0,0,1,1025,221a2.61,2.61,0,0,1,1.15.25,2.45,2.45,0,0,1,.93.74,3.54,3.54,0,0,1,.62,1.26A6.48,6.48,0,0,1,1027.93,225Zm-1.41,0a7.13,7.13,0,0,0-.12-1.43,3.08,3.08,0,0,0-.34-.9,1.22,1.22,0,0,0-.49-.47,1.25,1.25,0,0,0-.57-.13,1.31,1.31,0,0,0-.57.13,1.26,1.26,0,0,0-.48.47,3.1,3.1,0,0,0-.33.9,7.13,7.13,0,0,0-.12,1.43,7,7,0,0,0,.12,1.43,3,3,0,0,0,.33.9,1.22,1.22,0,0,0,.48.48,1.31,1.31,0,0,0,.57.13,1.25,1.25,0,0,0,.57-.13,1.18,1.18,0,0,0,.49-.48,3,3,0,0,0,.34-.9A7,7,0,0,0,1026.52,225Zm7.08,2.72a.47.47,0,0,1,.34.12.42.42,0,0,1,.14.33V229h-5.46v-.45a1,1,0,0,1,.05-.29.83.83,0,0,1,.19-.27l2.42-2.42c.2-.21.38-.4.54-.59a3.88,3.88,0,0,0,.4-.56,3.28,3.28,0,0,0,.24-.55,2,2,0,0,0,.09-.6,1.28,1.28,0,0,0-.09-.5.93.93,0,0,0-.23-.37.91.91,0,0,0-.37-.22,1.32,1.32,0,0,0-.47-.08,1.63,1.63,0,0,0-.45.07,1,1,0,0,0-.36.2,1,1,0,0,0-.27.28,1.14,1.14,0,0,0-.17.37.58.58,0,0,1-.24.33.64.64,0,0,1-.43,0l-.71-.13a2.8,2.8,0,0,1,.32-1,2.3,2.3,0,0,1,.58-.72,2.38,2.38,0,0,1,.82-.43,3.21,3.21,0,0,1,1-.15,3,3,0,0,1,1,.16,2.33,2.33,0,0,1,.78.46,2.23,2.23,0,0,1,.5.71,2.56,2.56,0,0,1,0,1.75,3.09,3.09,0,0,1-.34.71,5.29,5.29,0,0,1-.51.66l-.61.65-1.79,1.83a3.1,3.1,0,0,1,.51-.11,2.77,2.77,0,0,1,.49,0Zm6.38,0a.47.47,0,0,1,.34.12.42.42,0,0,1,.14.33V229H1035v-.45a.81.81,0,0,1,.24-.56l2.42-2.42c.2-.21.38-.4.54-.59a3.88,3.88,0,0,0,.4-.56,3.28,3.28,0,0,0,.24-.55,2,2,0,0,0,.09-.6,1.5,1.5,0,0,0-.08-.5,1.08,1.08,0,0,0-.24-.37,1,1,0,0,0-.36-.22,1.42,1.42,0,0,0-.48-.08,1.63,1.63,0,0,0-.45.07,1.15,1.15,0,0,0-.36.2,1,1,0,0,0-.27.28,1.4,1.4,0,0,0-.17.37.58.58,0,0,1-.24.33.64.64,0,0,1-.43,0l-.71-.13a2.8,2.8,0,0,1,.32-1,2.2,2.2,0,0,1,.59-.72,2.34,2.34,0,0,1,.81-.43,3.21,3.21,0,0,1,1-.15,3,3,0,0,1,1,.16,2.33,2.33,0,0,1,.78.46,2.23,2.23,0,0,1,.5.71,2.56,2.56,0,0,1,0,1.75,3.09,3.09,0,0,1-.34.71,5.29,5.29,0,0,1-.51.66c-.19.22-.4.43-.61.65l-1.79,1.83a3.1,3.1,0,0,1,.51-.11,2.77,2.77,0,0,1,.49,0Z" style="fill:#1a4373"/><path d="M120.06,328.59v4.05a14.64,14.64,0,0,1-.56,4.33,7.91,7.91,0,0,1-1.59,3,6.37,6.37,0,0,1-2.47,1.77,8.63,8.63,0,0,1-3.16.56,9,9,0,0,1-2.59-.36,6.56,6.56,0,0,1-2.17-1.11,6.89,6.89,0,0,1-1.64-1.9,9.48,9.48,0,0,1-1.07-2.72,16.18,16.18,0,0,1-.36-3.58v-4.05a15.33,15.33,0,0,1,.55-4.34,8.11,8.11,0,0,1,1.61-3,6.47,6.47,0,0,1,2.47-1.75,8.51,8.51,0,0,1,3.17-.56,8.84,8.84,0,0,1,2.58.36,6.66,6.66,0,0,1,2.17,1.11,6.55,6.55,0,0,1,1.64,1.89,9.08,9.08,0,0,1,1,2.72A15.36,15.36,0,0,1,120.06,328.59Zm-4.87,4.66V328a13.19,13.19,0,0,0-.14-2,6.35,6.35,0,0,0-.38-1.48,2.8,2.8,0,0,0-.59-1,2.13,2.13,0,0,0-.83-.54,2.51,2.51,0,0,0-1-.19A2.59,2.59,0,0,0,111,323a2.33,2.33,0,0,0-.93.89,4.7,4.7,0,0,0-.57,1.61,13.1,13.1,0,0,0-.19,2.45v5.3a15.4,15.4,0,0,0,.12,2.05,8.17,8.17,0,0,0,.38,1.5,3.46,3.46,0,0,0,.61,1,2.06,2.06,0,0,0,.83.54,2.79,2.79,0,0,0,1,.18,2.64,2.64,0,0,0,1.22-.27,2.41,2.41,0,0,0,.91-.89,4.62,4.62,0,0,0,.57-1.64A12.43,12.43,0,0,0,115.19,333.25Z" style="fill:#16a75c"/><path d="M134.3,319.23V342h-4.89V324.8l-5.29,1.61v-3.79l9.69-3.39Z" style="fill:#16a75c"/><path d="M331.06,27.59v4.05A14.64,14.64,0,0,1,330.5,36a7.91,7.91,0,0,1-1.59,3,6.37,6.37,0,0,1-2.47,1.77,8.63,8.63,0,0,1-3.16.56,9,9,0,0,1-2.59-.36,6.56,6.56,0,0,1-2.17-1.11,6.89,6.89,0,0,1-1.64-1.9,9.48,9.48,0,0,1-1.07-2.72,16.18,16.18,0,0,1-.36-3.58V27.59a15.33,15.33,0,0,1,.55-4.34,8.11,8.11,0,0,1,1.61-3,6.47,6.47,0,0,1,2.47-1.75,8.51,8.51,0,0,1,3.17-.56,8.84,8.84,0,0,1,2.58.36A6.66,6.66,0,0,1,328,19.41a6.55,6.55,0,0,1,1.64,1.89A9.08,9.08,0,0,1,330.69,24,15.36,15.36,0,0,1,331.06,27.59Zm-4.87,4.66V27a13.19,13.19,0,0,0-.14-2,6.35,6.35,0,0,0-.38-1.48,2.8,2.8,0,0,0-.59-1,2.13,2.13,0,0,0-.83-.54,2.51,2.51,0,0,0-1-.19A2.59,2.59,0,0,0,322,22a2.33,2.33,0,0,0-.93.89,4.7,4.7,0,0,0-.57,1.61,13.1,13.1,0,0,0-.19,2.45v5.3a15.4,15.4,0,0,0,.12,2,8.17,8.17,0,0,0,.38,1.5,3.26,3.26,0,0,0,.61,1,2.06,2.06,0,0,0,.83.54,2.79,2.79,0,0,0,1,.18,2.64,2.64,0,0,0,1.22-.27,2.41,2.41,0,0,0,.91-.89,4.62,4.62,0,0,0,.57-1.64A12.43,12.43,0,0,0,326.19,32.25Z" style="fill:#16a75c"/><path d="M349.7,37.2V41H334V37.78L341.33,30A22.67,22.67,0,0,0,343,27.91a8.17,8.17,0,0,0,.91-1.64,4.13,4.13,0,0,0,.28-1.38,4,4,0,0,0-.33-1.72,2.39,2.39,0,0,0-.92-1.08,2.79,2.79,0,0,0-1.49-.37,2.71,2.71,0,0,0-1.61.48,3.07,3.07,0,0,0-1,1.35,4.83,4.83,0,0,0-.36,1.92h-4.9A7.39,7.39,0,0,1,337.31,19a8.39,8.39,0,0,1,4.21-1,9.8,9.8,0,0,1,4.14.78,5.66,5.66,0,0,1,2.53,2.24,7.22,7.22,0,0,1,.48,5.73,9.41,9.41,0,0,1-1.05,2.14A18.61,18.61,0,0,1,346,31c-.65.73-1.38,1.5-2.19,2.32l-3.44,3.9Z" style="fill:#16a75c"/><path d="M545.06,328.59v4.05a14.64,14.64,0,0,1-.56,4.33,7.91,7.91,0,0,1-1.59,3,6.37,6.37,0,0,1-2.47,1.77,8.63,8.63,0,0,1-3.16.56,9,9,0,0,1-2.59-.36,6.56,6.56,0,0,1-2.17-1.11,6.89,6.89,0,0,1-1.64-1.9,9.48,9.48,0,0,1-1.07-2.72,16.18,16.18,0,0,1-.36-3.58v-4.05a15.33,15.33,0,0,1,.55-4.34,8.11,8.11,0,0,1,1.61-3,6.47,6.47,0,0,1,2.47-1.75,8.51,8.51,0,0,1,3.17-.56,8.84,8.84,0,0,1,2.58.36,6.66,6.66,0,0,1,2.17,1.11,6.55,6.55,0,0,1,1.64,1.89,9.08,9.08,0,0,1,1.05,2.72A15.36,15.36,0,0,1,545.06,328.59Zm-4.87,4.66V328a13.19,13.19,0,0,0-.14-2,6.35,6.35,0,0,0-.38-1.48,2.8,2.8,0,0,0-.59-1,2.13,2.13,0,0,0-.83-.54,2.51,2.51,0,0,0-1-.19A2.59,2.59,0,0,0,536,323a2.33,2.33,0,0,0-.93.89,4.7,4.7,0,0,0-.57,1.61,13.1,13.1,0,0,0-.19,2.45v5.3a15.4,15.4,0,0,0,.12,2.05,8.17,8.17,0,0,0,.38,1.5,3.26,3.26,0,0,0,.61,1,2.06,2.06,0,0,0,.83.54,2.79,2.79,0,0,0,1,.18,2.64,2.64,0,0,0,1.22-.27,2.41,2.41,0,0,0,.91-.89,4.62,4.62,0,0,0,.57-1.64A12.43,12.43,0,0,0,540.19,333.25Z" style="fill:#16a75c"/><path d="M552.69,328.55h2.48a3.63,3.63,0,0,0,1.75-.38,2.3,2.3,0,0,0,1-1.06,3.57,3.57,0,0,0,.35-1.61,3.09,3.09,0,0,0-.32-1.42,2.21,2.21,0,0,0-1-1,3.13,3.13,0,0,0-1.62-.37,3.3,3.3,0,0,0-1.38.3,2.57,2.57,0,0,0-1,.82,2.06,2.06,0,0,0-.4,1.28h-4.89a5.35,5.35,0,0,1,1-3.29,6.78,6.78,0,0,1,2.76-2.14,9.3,9.3,0,0,1,3.79-.77,10.62,10.62,0,0,1,4.14.75,6.05,6.05,0,0,1,2.78,2.19,6.15,6.15,0,0,1,1,3.56,4.64,4.64,0,0,1-.53,2.14,5.8,5.8,0,0,1-1.49,1.82,7.32,7.32,0,0,1-2.28,1.24,8.69,8.69,0,0,1-2.92.46h-3.28Zm0,3.67v-2.49H556a11.53,11.53,0,0,1,3.19.41,7.11,7.11,0,0,1,2.39,1.17,5.19,5.19,0,0,1,1.5,1.86,5.7,5.7,0,0,1,.51,2.44,6.34,6.34,0,0,1-.62,2.84,6,6,0,0,1-1.75,2.11,8.18,8.18,0,0,1-2.64,1.32,11.88,11.88,0,0,1-3.28.43,10.55,10.55,0,0,1-2.83-.39,8.06,8.06,0,0,1-2.55-1.19,6.18,6.18,0,0,1-1.83-2,6.09,6.09,0,0,1-.68-3h4.89a2.65,2.65,0,0,0,.4,1.44,3.09,3.09,0,0,0,1.14,1,3.58,3.58,0,0,0,1.6.36,3.77,3.77,0,0,0,1.75-.38,2.65,2.65,0,0,0,1.11-1.06,3.05,3.05,0,0,0,.39-1.55,3.68,3.68,0,0,0-.43-1.91,2.39,2.39,0,0,0-1.18-1.06,4.64,4.64,0,0,0-1.88-.34Z" style="fill:#16a75c"/><path d="M756.06,27.59v4.05A14.64,14.64,0,0,1,755.5,36a7.91,7.91,0,0,1-1.59,3,6.37,6.37,0,0,1-2.47,1.77,8.63,8.63,0,0,1-3.16.56,9,9,0,0,1-2.59-.36,6.56,6.56,0,0,1-2.17-1.11,6.89,6.89,0,0,1-1.64-1.9,9.48,9.48,0,0,1-1.07-2.72,16.18,16.18,0,0,1-.36-3.58V27.59a15.33,15.33,0,0,1,.55-4.34,8.11,8.11,0,0,1,1.61-3,6.47,6.47,0,0,1,2.47-1.75,8.51,8.51,0,0,1,3.17-.56,8.84,8.84,0,0,1,2.58.36A6.66,6.66,0,0,1,753,19.41a6.55,6.55,0,0,1,1.64,1.89A9.08,9.08,0,0,1,755.69,24,15.36,15.36,0,0,1,756.06,27.59Zm-4.87,4.66V27a13.19,13.19,0,0,0-.14-2,6.35,6.35,0,0,0-.38-1.48,2.8,2.8,0,0,0-.59-1,2.13,2.13,0,0,0-.83-.54,2.51,2.51,0,0,0-1-.19A2.59,2.59,0,0,0,747,22a2.33,2.33,0,0,0-.93.89,4.7,4.7,0,0,0-.57,1.61,13.1,13.1,0,0,0-.19,2.45v5.3a15.4,15.4,0,0,0,.12,2,8.17,8.17,0,0,0,.38,1.5,3.26,3.26,0,0,0,.61,1,2.06,2.06,0,0,0,.83.54,2.79,2.79,0,0,0,1,.18,2.64,2.64,0,0,0,1.22-.27,2.41,2.41,0,0,0,.91-.89,4.62,4.62,0,0,0,.57-1.64A12.43,12.43,0,0,0,751.19,32.25Z" style="fill:#16a75c"/><path d="M775.05,32.31v3.78H758.67l-.26-3,9.31-14.87h3.86l-4.19,6.94-4.23,7.12Zm-2.44-14.06V41h-4.88V18.25Z" style="fill:#16a75c"/><path d="M970.06,328.59v4.05a14.64,14.64,0,0,1-.56,4.33,7.91,7.91,0,0,1-1.59,3,6.37,6.37,0,0,1-2.47,1.77,8.63,8.63,0,0,1-3.16.56,9,9,0,0,1-2.59-.36,6.56,6.56,0,0,1-2.17-1.11,6.89,6.89,0,0,1-1.64-1.9,9.48,9.48,0,0,1-1.07-2.72,16.18,16.18,0,0,1-.36-3.58v-4.05a15.33,15.33,0,0,1,.55-4.34,8.11,8.11,0,0,1,1.61-3,6.47,6.47,0,0,1,2.47-1.75,8.51,8.51,0,0,1,3.17-.56,8.84,8.84,0,0,1,2.58.36,6.66,6.66,0,0,1,2.17,1.11,6.55,6.55,0,0,1,1.64,1.89,9.08,9.08,0,0,1,1.05,2.72A15.36,15.36,0,0,1,970.06,328.59Zm-4.87,4.66V328a13.19,13.19,0,0,0-.14-2,6.35,6.35,0,0,0-.38-1.48,2.8,2.8,0,0,0-.59-1,2.13,2.13,0,0,0-.83-.54,2.51,2.51,0,0,0-1-.19A2.59,2.59,0,0,0,961,323a2.33,2.33,0,0,0-.93.89,4.7,4.7,0,0,0-.57,1.61,13.1,13.1,0,0,0-.19,2.45v5.3a15.4,15.4,0,0,0,.12,2.05,8.17,8.17,0,0,0,.38,1.5,3.26,3.26,0,0,0,.61,1,2.06,2.06,0,0,0,.83.54,2.79,2.79,0,0,0,1,.18,2.64,2.64,0,0,0,1.22-.27,2.41,2.41,0,0,0,.91-.89,4.62,4.62,0,0,0,.57-1.64A12.43,12.43,0,0,0,965.19,333.25Z" style="fill:#16a75c"/><path d="M977.34,331.75l-3.87-.92,1.33-11.58h13v3.86h-9l-.55,4.8a6.85,6.85,0,0,1,1.33-.55,6.14,6.14,0,0,1,2-.31,8.11,8.11,0,0,1,3,.51,6,6,0,0,1,2.19,1.5,6.29,6.29,0,0,1,1.35,2.39,10.14,10.14,0,0,1,.47,3.24,8.6,8.6,0,0,1-.47,2.87,7.07,7.07,0,0,1-1.43,2.44,6.88,6.88,0,0,1-2.42,1.69,8.91,8.91,0,0,1-3.46.62,9.4,9.4,0,0,1-2.9-.45,8.22,8.22,0,0,1-2.53-1.31,6.62,6.62,0,0,1-1.77-2.13,6.16,6.16,0,0,1-.66-2.81h4.88a3.75,3.75,0,0,0,.45,1.56,2.65,2.65,0,0,0,1,1,3.05,3.05,0,0,0,1.48.35,2.82,2.82,0,0,0,1.38-.32,2.45,2.45,0,0,0,.89-.89,4.16,4.16,0,0,0,.5-1.31,8.23,8.23,0,0,0,.15-1.61,5.58,5.58,0,0,0-.2-1.59,3.27,3.27,0,0,0-.62-1.22,2.64,2.64,0,0,0-1.08-.78,3.83,3.83,0,0,0-1.55-.28,3.73,3.73,0,0,0-1.86.39A3.87,3.87,0,0,0,977.34,331.75Z" style="fill:#16a75c"/></svg>