<svg id="Layer_1" data-name="Layer 1" xmlns="http://www.w3.org/2000/svg" xmlns:xlink="http://www.w3.org/1999/xlink" viewBox="0 0 1090 361"><defs><clipPath id="clip-path"><rect x="724.5" y="126" width="67" height="50" style="fill:none"/></clipPath><clipPath id="clip-path-2"><rect x="726.5" y="130" width="65" height="46" style="fill:none"/></clipPath><clipPath id="clip-path-3"><rect x="514.5" y="126" width="62" height="50" style="fill:none"/></clipPath><clipPath id="clip-path-4"><rect x="546.5" y="144" width="32" height="32" style="fill:none"/></clipPath><clipPath id="clip-path-5"><rect x="514.5" y="129" width="47" height="47" style="fill:none"/></clipPath><clipPath id="clip-path-6"><rect x="301.5" y="126" width="62" height="50" style="fill:none"/></clipPath><clipPath id="clip-path-7"><rect x="939" y="126" width="62" height="50" style="fill:none"/></clipPath></defs><path d="M14.32,180.37C6.49,180.37.05,186.74,1,194.52a120.37,120.37,0,0,0,239.91-14.15h-.1a92,92,0,0,1,184,0h-.1a120.37,120.37,0,1,0,240.74,0h-.1a92,92,0,1,1,184,0h-.1a120.38,120.38,0,0,0,239.92,14.15c.92-7.78-5.52-14.15-13.35-14.15s-14.07,6.39-15.28,14.13a92,92,0,0,1-182.92-14.13h.1a120.38,120.38,0,0,0-240.75,0h.1a92,92,0,0,1-184,0h.1a120.38,120.38,0,0,0-240.75,0h.1A92,92,0,0,1,29.59,194.5C28.39,186.76,22.15,180.37,14.32,180.37Z" style="fill:#d9f4e3;fill-rule:evenodd"/><circle cx="120.5" cy="180.5" r="91.5" style="fill:#fff"/><circle cx="332.5" cy="180.5" r="91.5" style="fill:#fff"/><circle cx="545.5" cy="180.5" r="91.5" style="fill:#fff"/><circle cx="757.5" cy="180.5" r="91.5" style="fill:#fff"/><g style="clip-path:url(#clip-path)"><g style="clip-path:url(#clip-path-2)"><path d="M726.5,168h65a8,8,0,0,1-8,8h-49A8,8,0,0,1,726.5,168Z" style="fill:#1fb767"/><path d="M748.5,169h22a3,3,0,0,1-3,3h-16A3,3,0,0,1,748.5,169Z" style="fill:#001b3d"/><path d="M732.5,141a6,6,0,0,1,6-6h41a6,6,0,0,1,6,6v27h-53Z" style="fill:#001b3d"/><path d="M736.5,142a2,2,0,0,1,2-2h13a2,2,0,0,1,2,2v11.13a1.77,1.77,0,0,1-1.77,1.78,1.78,1.78,0,0,0-1.78,1.78v1.65l-4-3a2,2,0,0,0-1.22-.41H738.5a2,2,0,0,1-2-2Z" style="fill:#fff"/><line x1="740.78" y1="143.68" x2="749.27" y2="143.68" style="fill:none;stroke:#1e88e5;stroke-linecap:round;stroke-width:2px"/><line x1="740.78" y1="147.03" x2="749.27" y2="147.03" style="fill:none;stroke:#1e88e5;stroke-linecap:round;stroke-width:2px"/><line x1="740.78" y1="150.37" x2="749.27" y2="150.37" style="fill:none;stroke:#1e88e5;stroke-linecap:round;stroke-width:2px"/></g><path d="M782.11,126l2.58,1.62,3,0-1.62,2.58,0,3-2.58-1.62-3,0,1.62-2.57Z" style="fill:#ffa600"/><path d="M724.5,130a2,2,0,0,1,2-2h14.8a2,2,0,0,1,2,2v12.76a2,2,0,0,1-2,2H734a2,2,0,0,0-1.48.66l-3.71,4.08v-2.74a2,2,0,0,0-2-2h-.31a2,2,0,0,1-2-2Z" style="fill:#1fb767"/><path d="M739,133.45a.63.63,0,0,1,0,.91l-5,5a.64.64,0,0,1-.91-.91l5-5A.63.63,0,0,1,739,133.45Z" style="fill:#fff;fill-rule:evenodd"/><path d="M730,135.27a.65.65,0,0,1,.91,0l3.18,3.17a.64.64,0,1,1-.91.91L730,136.18A.65.65,0,0,1,730,135.27Z" style="fill:#fff;fill-rule:evenodd"/></g><path d="M713.6,208h-2.16V196.43h2.16Zm2.16,0v-8.21H717a.49.49,0,0,1,.5.36l.13.61a4.57,4.57,0,0,1,.44-.44,3.23,3.23,0,0,1,.51-.34,2.35,2.35,0,0,1,.57-.23,2.48,2.48,0,0,1,.68-.09,1.87,1.87,0,0,1,1.28.43,2.6,2.6,0,0,1,.75,1.11,2.71,2.71,0,0,1,.48-.7,2.92,2.92,0,0,1,.63-.48,3,3,0,0,1,.73-.27,3.46,3.46,0,0,1,.78-.09,3.23,3.23,0,0,1,1.21.21,2.32,2.32,0,0,1,.89.61,2.59,2.59,0,0,1,.54,1,4.08,4.08,0,0,1,.19,1.32V208h-2v-5.22a1.73,1.73,0,0,0-.34-1.18,1.25,1.25,0,0,0-1-.4,1.8,1.8,0,0,0-.57.1,1.55,1.55,0,0,0-.46.31,1.27,1.27,0,0,0-.3.49,1.76,1.76,0,0,0-.11.68V208h-2v-5.22a1.79,1.79,0,0,0-.33-1.2,1.19,1.19,0,0,0-1-.38,1.54,1.54,0,0,0-.81.22,2.75,2.75,0,0,0-.69.57v6Zm15.38-2.13a2,2,0,0,0,.73.58,2.2,2.2,0,0,0,.86.17,1.92,1.92,0,0,0,.81-.17,1.65,1.65,0,0,0,.61-.51,2.5,2.5,0,0,0,.39-.87,5,5,0,0,0,.14-1.24,5.2,5.2,0,0,0-.12-1.21,2.5,2.5,0,0,0-.33-.82,1.36,1.36,0,0,0-.53-.46,1.68,1.68,0,0,0-.7-.14,2,2,0,0,0-1,.26,3.24,3.24,0,0,0-.82.73Zm-.1-5a4.2,4.2,0,0,1,1.14-.92,3.13,3.13,0,0,1,1.5-.35,2.65,2.65,0,0,1,1.23.28,2.77,2.77,0,0,1,1,.82,3.63,3.63,0,0,1,.62,1.31,6.4,6.4,0,0,1,.23,1.78,5.84,5.84,0,0,1-.25,1.71,4.29,4.29,0,0,1-.71,1.36,3.38,3.38,0,0,1-1.12.9,3.25,3.25,0,0,1-1.45.32,2.7,2.7,0,0,1-2.05-.8v3.36h-2V199.79h1.21a.49.49,0,0,1,.51.36Zm9.22-4.8V208h-2V196.11Zm7.25,6.84a2.17,2.17,0,0,0-.11-.72,1.58,1.58,0,0,0-.32-.6,1.51,1.51,0,0,0-.55-.4,1.86,1.86,0,0,0-.77-.15,1.82,1.82,0,0,0-1.35.49,2.4,2.4,0,0,0-.62,1.38Zm-3.76,1.19a3.76,3.76,0,0,0,.22,1.1,2.37,2.37,0,0,0,.46.76,1.92,1.92,0,0,0,.68.45,2.75,2.75,0,0,0,.88.14,2.88,2.88,0,0,0,.83-.11,4.52,4.52,0,0,0,.61-.25l.45-.25a.86.86,0,0,1,.39-.11.39.39,0,0,1,.36.19l.57.72a3.39,3.39,0,0,1-.73.64,4.27,4.27,0,0,1-.86.42,5.38,5.38,0,0,1-.9.22,6.88,6.88,0,0,1-.89.06,4.36,4.36,0,0,1-1.59-.28A3.48,3.48,0,0,1,743,207a3.86,3.86,0,0,1-.86-1.38,5.29,5.29,0,0,1-.31-1.9,4.56,4.56,0,0,1,.27-1.58,3.74,3.74,0,0,1,2-2.16,4.15,4.15,0,0,1,1.65-.32,4.09,4.09,0,0,1,1.43.25,3.11,3.11,0,0,1,1.13.73,3.25,3.25,0,0,1,.74,1.17,4.27,4.27,0,0,1,.27,1.57,1.24,1.24,0,0,1-.1.61.39.39,0,0,1-.36.15Zm7,3.86v-8.21H752a.47.47,0,0,1,.5.36l.13.61a6.16,6.16,0,0,1,.45-.44,2.83,2.83,0,0,1,.51-.34,2.35,2.35,0,0,1,.57-.23,2.48,2.48,0,0,1,.68-.09,1.84,1.84,0,0,1,1.27.43,2.44,2.44,0,0,1,.75,1.11,2.51,2.51,0,0,1,.49-.7A2.92,2.92,0,0,1,758,200a3.13,3.13,0,0,1,.72-.27,3.61,3.61,0,0,1,.79-.09,3.27,3.27,0,0,1,1.21.21,2.32,2.32,0,0,1,.89.61,2.73,2.73,0,0,1,.54,1,4.08,4.08,0,0,1,.19,1.32V208h-2v-5.22a1.73,1.73,0,0,0-.35-1.18,1.24,1.24,0,0,0-1-.4,1.69,1.69,0,0,0-.56.1,1.33,1.33,0,0,0-.46.31,1.27,1.27,0,0,0-.3.49,1.76,1.76,0,0,0-.12.68V208h-2v-5.22a1.74,1.74,0,0,0-.34-1.2,1.19,1.19,0,0,0-1-.38,1.53,1.53,0,0,0-.8.22,2.44,2.44,0,0,0-.69.57v6Zm18.7-5.05a2.18,2.18,0,0,0-.12-.72,1.45,1.45,0,0,0-.32-.6,1.43,1.43,0,0,0-.55-.4,1.81,1.81,0,0,0-.76-.15,1.83,1.83,0,0,0-1.36.49,2.4,2.4,0,0,0-.62,1.38Zm-3.77,1.19a4.11,4.11,0,0,0,.22,1.1,2.39,2.39,0,0,0,.47.76,1.84,1.84,0,0,0,.68.45,2.71,2.71,0,0,0,.88.14,2.81,2.81,0,0,0,.82-.11,4,4,0,0,0,.61-.25l.46-.25a.82.82,0,0,1,.38-.11.41.41,0,0,1,.37.19l.57.72a3.44,3.44,0,0,1-.74.64,4,4,0,0,1-.86.42,5.38,5.38,0,0,1-.9.22,6.88,6.88,0,0,1-.89.06,4.36,4.36,0,0,1-1.59-.28,3.56,3.56,0,0,1-1.28-.84,4,4,0,0,1-.86-1.38,5.52,5.52,0,0,1-.31-1.9,4.56,4.56,0,0,1,.27-1.58,3.74,3.74,0,0,1,2-2.16,4.35,4.35,0,0,1,3.09-.07,3.15,3.15,0,0,1,1.12.73,3.25,3.25,0,0,1,.74,1.17,4.27,4.27,0,0,1,.27,1.57,1.4,1.4,0,0,1-.09.61.42.42,0,0,1-.37.15Zm8.87-3.34a5.53,5.53,0,0,1,.52-.46,3.58,3.58,0,0,1,.59-.36,3,3,0,0,1,.66-.23,3.13,3.13,0,0,1,.77-.09,2.78,2.78,0,0,1,1.19.24,2.15,2.15,0,0,1,.87.64,2.63,2.63,0,0,1,.52,1,3.87,3.87,0,0,1,.19,1.26V208h-2v-5.22a1.73,1.73,0,0,0-.34-1.16,1.28,1.28,0,0,0-1-.42,2.12,2.12,0,0,0-1,.23,3.82,3.82,0,0,0-.85.63V208h-2v-8.21h1.2a.49.49,0,0,1,.51.36Zm9.81,7.33a2.16,2.16,0,0,1-1.64-.6,2.35,2.35,0,0,1-.57-1.67v-4.59h-.84a.36.36,0,0,1-.27-.1.4.4,0,0,1-.12-.31v-.79l1.32-.21.42-2.24a.48.48,0,0,1,.15-.25.46.46,0,0,1,.29-.09h1v2.58h2.2v1.41h-2.2v4.45a.9.9,0,0,0,.19.6.68.68,0,0,0,.52.22,1.21,1.21,0,0,0,.3,0l.22-.1.17-.09a.24.24,0,0,1,.14-.05.2.2,0,0,1,.14.05.51.51,0,0,1,.12.13l.6,1a2.93,2.93,0,0,1-1,.54A3.48,3.48,0,0,1,784.38,208.13Zm7.56-3.63a8.86,8.86,0,0,0-1.44.15,4,4,0,0,0-.94.27,1.21,1.21,0,0,0-.5.39.86.86,0,0,0-.15.49.84.84,0,0,0,.3.74,1.36,1.36,0,0,0,.81.23,2.32,2.32,0,0,0,1.05-.22,3.39,3.39,0,0,0,.87-.67Zm-4.53-3.56a4.84,4.84,0,0,1,3.41-1.3,3.21,3.21,0,0,1,1.28.24,2.67,2.67,0,0,1,1.56,1.66,3.74,3.74,0,0,1,.2,1.28V208H793a1,1,0,0,1-.43-.08.61.61,0,0,1-.24-.34l-.18-.6a6.41,6.41,0,0,1-.61.5,3.1,3.1,0,0,1-.61.35,3.26,3.26,0,0,1-.69.22,3.94,3.94,0,0,1-.8.08,3.22,3.22,0,0,1-1-.14,2,2,0,0,1-.76-.42,2,2,0,0,1-.5-.7,2.59,2.59,0,0,1-.17-1,1.86,1.86,0,0,1,.1-.61,1.68,1.68,0,0,1,.34-.59,2.68,2.68,0,0,1,.61-.53,3.75,3.75,0,0,1,.92-.43,6.89,6.89,0,0,1,1.28-.3,11.47,11.47,0,0,1,1.67-.14v-.48a1.81,1.81,0,0,0-.35-1.22,1.29,1.29,0,0,0-1-.4,2.57,2.57,0,0,0-.8.11,3.13,3.13,0,0,0-.55.26l-.44.25a.9.9,0,0,1-.44.11.61.61,0,0,1-.35-.11,1.09,1.09,0,0,1-.23-.25Zm13.32.45a.64.64,0,0,1-.16.19.53.53,0,0,1-.23,0,.65.65,0,0,1-.31-.08l-.38-.17a3.87,3.87,0,0,0-.49-.19,2.46,2.46,0,0,0-.65-.08,1.55,1.55,0,0,0-.92.25.78.78,0,0,0-.33.65.66.66,0,0,0,.17.45,1.61,1.61,0,0,0,.46.31,5.71,5.71,0,0,0,.64.25c.24.07.49.14.73.23a5.21,5.21,0,0,1,.74.3,2.26,2.26,0,0,1,.64.41,1.89,1.89,0,0,1,.45.6,1.87,1.87,0,0,1,.18.85,2.7,2.7,0,0,1-.22,1.1,2.29,2.29,0,0,1-.62.86,3.09,3.09,0,0,1-1,.57,4.66,4.66,0,0,1-1.41.2,4.58,4.58,0,0,1-.83-.08,5,5,0,0,1-.78-.21,5.42,5.42,0,0,1-.69-.32,3.89,3.89,0,0,1-.55-.4l.46-.75a.7.7,0,0,1,.21-.21.56.56,0,0,1,.3-.07.59.59,0,0,1,.34.1l.39.23a3.39,3.39,0,0,0,.5.22,2.31,2.31,0,0,0,.75.1,1.82,1.82,0,0,0,.6-.08,1.32,1.32,0,0,0,.41-.22.87.87,0,0,0,.24-.31.84.84,0,0,0,.08-.38.68.68,0,0,0-.17-.47,1.63,1.63,0,0,0-.46-.32,4,4,0,0,0-.65-.24l-.74-.24a5.86,5.86,0,0,1-.75-.3,2.35,2.35,0,0,1-.64-.44,2,2,0,0,1-.46-.64,2.51,2.51,0,0,1,0-1.89,2.19,2.19,0,0,1,.59-.79,3,3,0,0,1,1-.55,4,4,0,0,1,1.35-.21,4.22,4.22,0,0,1,1.54.28,3.56,3.56,0,0,1,1.16.74Zm4.07-1.6V208h-2v-8.21Zm.28-2.39a1.13,1.13,0,0,1-.11.48,1.21,1.21,0,0,1-.28.39,1.13,1.13,0,0,1-.4.27,1.25,1.25,0,0,1-1,0,1.33,1.33,0,0,1-.66-.66,1.12,1.12,0,0,1-.1-.48,1.21,1.21,0,0,1,.1-.5,1.34,1.34,0,0,1,.27-.4,1.25,1.25,0,0,1,1.37-.26,1.11,1.11,0,0,1,.4.26,1.38,1.38,0,0,1,.28.4A1.22,1.22,0,0,1,805.08,197.4Z" style="fill:#008444"/><path d="M728.24,224.66a6.86,6.86,0,0,1-.25,2,4,4,0,0,1-.67,1.38,2.71,2.71,0,0,1-1,.81,3,3,0,0,1-1.26.27,2.91,2.91,0,0,1-1.26-.27,2.79,2.79,0,0,1-1-.81,4.22,4.22,0,0,1-.66-1.38,7.25,7.25,0,0,1-.24-2,7.12,7.12,0,0,1,.24-2,4,4,0,0,1,.66-1.38,2.6,2.6,0,0,1,1-.81,2.91,2.91,0,0,1,1.26-.27,3,3,0,0,1,1.26.27,2.53,2.53,0,0,1,1,.81,3.86,3.86,0,0,1,.67,1.38A6.74,6.74,0,0,1,728.24,224.66Zm-1.53,0a7.43,7.43,0,0,0-.14-1.56,3.14,3.14,0,0,0-.37-1,1.22,1.22,0,0,0-.53-.51,1.38,1.38,0,0,0-.62-.15,1.35,1.35,0,0,0-.62.15,1.21,1.21,0,0,0-.52.51,2.91,2.91,0,0,0-.37,1,9.43,9.43,0,0,0,0,3.12,3.06,3.06,0,0,0,.37,1,1.33,1.33,0,0,0,.52.51,1.35,1.35,0,0,0,.62.15,1.38,1.38,0,0,0,.62-.15,1.35,1.35,0,0,0,.53-.51,3.31,3.31,0,0,0,.37-1A7.43,7.43,0,0,0,726.71,224.66Zm7.71,3a.51.51,0,0,1,.38.14.44.44,0,0,1,.15.35V229h-6v-.49a1.13,1.13,0,0,1,.06-.31.81.81,0,0,1,.21-.3l2.63-2.64c.22-.23.42-.44.59-.65a3.82,3.82,0,0,0,.44-.6,3,3,0,0,0,.26-.61,2,2,0,0,0,.1-.65,1.55,1.55,0,0,0-.09-.55,1.11,1.11,0,0,0-.26-.4,1,1,0,0,0-.4-.24,1.37,1.37,0,0,0-.51-.08,1.53,1.53,0,0,0-.49.07,1.39,1.39,0,0,0-.4.21,1.47,1.47,0,0,0-.29.32,1.38,1.38,0,0,0-.18.39.65.65,0,0,1-.27.37.76.76,0,0,1-.47,0l-.77-.14a3.24,3.24,0,0,1,.34-1.09,2.53,2.53,0,0,1,.65-.79,2.58,2.58,0,0,1,.88-.47,3.49,3.49,0,0,1,1.08-.16,3.21,3.21,0,0,1,1.1.18,2.25,2.25,0,0,1,.85.5,2.09,2.09,0,0,1,.55.78,2.37,2.37,0,0,1,.2,1,2.56,2.56,0,0,1-.14.89,3.51,3.51,0,0,1-.38.78,5.28,5.28,0,0,1-.55.72l-.67.71-1.95,2a5.41,5.41,0,0,1,.55-.12,3.5,3.5,0,0,1,.54,0Zm9.15-1.9-1.06-2.88c0-.13-.1-.28-.16-.46l-.17-.57c0,.21-.1.4-.16.58s-.11.33-.16.46l-1.05,2.87Zm2.85,3.28h-1.25a.53.53,0,0,1-.34-.1.68.68,0,0,1-.2-.27l-.65-1.77h-3.59l-.65,1.77a.56.56,0,0,1-.18.26.58.58,0,0,1-.35.11H738l3.42-8.68H743Zm2.13-1.6a1.49,1.49,0,0,0,.55.44,1.75,1.75,0,0,0,.65.12,1.46,1.46,0,0,0,.6-.12,1.23,1.23,0,0,0,.46-.39,1.69,1.69,0,0,0,.29-.65,3.59,3.59,0,0,0,.11-.93,3.94,3.94,0,0,0-.09-.91,1.81,1.81,0,0,0-.25-.61.93.93,0,0,0-.4-.34,1.21,1.21,0,0,0-.52-.11,1.46,1.46,0,0,0-.78.2,2.56,2.56,0,0,0-.62.54Zm-.07-3.72a3.3,3.3,0,0,1,.85-.69,2.39,2.39,0,0,1,1.13-.26,2,2,0,0,1,1.64.82,2.94,2.94,0,0,1,.47,1,4.83,4.83,0,0,1,.17,1.33,4.35,4.35,0,0,1-.19,1.28,3.09,3.09,0,0,1-.53,1,2.39,2.39,0,0,1-1.93.92,2.13,2.13,0,0,1-.88-.16,2.06,2.06,0,0,1-.66-.44V231h-1.48v-8.17H748a.37.37,0,0,1,.38.27Zm6.81.23a2.62,2.62,0,0,1,.68-.86,1.49,1.49,0,0,1,.94-.32,1.1,1.1,0,0,1,.68.19L757.5,224a.27.27,0,0,1-.09.15.24.24,0,0,1-.15,0l-.27,0-.34,0a1.19,1.19,0,0,0-.44.08.84.84,0,0,0-.35.21,1.24,1.24,0,0,0-.27.32,3,3,0,0,0-.22.44V229h-1.48v-6.16h.87a.45.45,0,0,1,.32.09.46.46,0,0,1,.12.29Zm4.62-1.07V229h-1.49v-6.16Zm.2-1.79a.9.9,0,0,1-.29.65.81.81,0,0,1-.3.21.9.9,0,0,1-.37.07.94.94,0,0,1-.37-.07.86.86,0,0,1-.29-.21,1.27,1.27,0,0,1-.21-.29,1,1,0,0,1-.07-.36,1.11,1.11,0,0,1,.07-.37,1.14,1.14,0,0,1,.21-.3.84.84,0,0,1,.29-.2,1,1,0,0,1,.37-.08.91.91,0,0,1,.37.08.79.79,0,0,1,.3.2.81.81,0,0,1,.21.3A.91.91,0,0,1,760.11,221.05Zm2.81-1V229h-1.49v-8.92Zm9.54,7.54a.52.52,0,0,1,.38.14.44.44,0,0,1,.15.35V229h-6v-.49a.85.85,0,0,1,.06-.31.81.81,0,0,1,.21-.3l2.63-2.64c.22-.23.42-.44.59-.65a3.82,3.82,0,0,0,.44-.6,3,3,0,0,0,.26-.61,2,2,0,0,0,.1-.65,1.55,1.55,0,0,0-.09-.55,1.11,1.11,0,0,0-.26-.4,1,1,0,0,0-.4-.24,1.37,1.37,0,0,0-.51-.08,1.53,1.53,0,0,0-.49.07,1.39,1.39,0,0,0-.4.21,1.26,1.26,0,0,0-.29.32,1.38,1.38,0,0,0-.18.39.65.65,0,0,1-.27.37.76.76,0,0,1-.47,0l-.78-.14a3.25,3.25,0,0,1,.35-1.09,2.52,2.52,0,0,1,1.53-1.26,3.49,3.49,0,0,1,1.08-.16,3.21,3.21,0,0,1,1.1.18,2.25,2.25,0,0,1,.85.5,2.09,2.09,0,0,1,.55.78,2.37,2.37,0,0,1,.2,1,2.81,2.81,0,0,1-.14.89,3.51,3.51,0,0,1-.38.78,5.28,5.28,0,0,1-.55.72l-.67.71-2,2a5.41,5.41,0,0,1,.55-.12,3.5,3.5,0,0,1,.54,0Zm7.74-3a6.86,6.86,0,0,1-.25,2,4,4,0,0,1-.67,1.38,2.71,2.71,0,0,1-1,.81,3,3,0,0,1-1.26.27,2.94,2.94,0,0,1-1.26-.27,2.79,2.79,0,0,1-1-.81,4.22,4.22,0,0,1-.66-1.38,7.25,7.25,0,0,1-.24-2,7.12,7.12,0,0,1,.24-2,4,4,0,0,1,.66-1.38,2.6,2.6,0,0,1,1-.81,2.94,2.94,0,0,1,1.26-.27,3,3,0,0,1,1.26.27,2.53,2.53,0,0,1,1,.81,3.86,3.86,0,0,1,.67,1.38A6.74,6.74,0,0,1,780.2,224.66Zm-1.53,0a7.43,7.43,0,0,0-.14-1.56,2.91,2.91,0,0,0-.37-1,1.22,1.22,0,0,0-.53-.51,1.38,1.38,0,0,0-.62-.15,1.35,1.35,0,0,0-.62.15,1.21,1.21,0,0,0-.52.51,3.14,3.14,0,0,0-.37,1,9.43,9.43,0,0,0,0,3.12,3.31,3.31,0,0,0,.37,1,1.33,1.33,0,0,0,.52.51,1.35,1.35,0,0,0,.62.15,1.38,1.38,0,0,0,.62-.15,1.35,1.35,0,0,0,.53-.51,3.06,3.06,0,0,0,.37-1A7.43,7.43,0,0,0,778.67,224.66Zm7.72,3a.5.5,0,0,1,.37.14.44.44,0,0,1,.15.35V229H781v-.49a.85.85,0,0,1,.06-.31.69.69,0,0,1,.2-.3l2.63-2.64c.22-.23.42-.44.59-.65a3.82,3.82,0,0,0,.44-.6,2.49,2.49,0,0,0,.26-.61,2,2,0,0,0,.1-.65,1.55,1.55,0,0,0-.09-.55,1.11,1.11,0,0,0-.26-.4,1,1,0,0,0-.39-.24,1.46,1.46,0,0,0-.52-.08,1.53,1.53,0,0,0-.49.07,1.39,1.39,0,0,0-.4.21,1.47,1.47,0,0,0-.29.32,1.38,1.38,0,0,0-.18.39.65.65,0,0,1-.27.37.73.73,0,0,1-.46,0l-.78-.14a3.24,3.24,0,0,1,.34-1.09,2.67,2.67,0,0,1,.65-.79,2.58,2.58,0,0,1,.88-.47,3.49,3.49,0,0,1,1.08-.16,3.21,3.21,0,0,1,1.1.18,2.25,2.25,0,0,1,.85.5,2.23,2.23,0,0,1,.56.78,2.53,2.53,0,0,1,.19,1,2.56,2.56,0,0,1-.14.89,3.51,3.51,0,0,1-.38.78,4.58,4.58,0,0,1-.55.72c-.21.23-.43.47-.67.71l-1.95,2a5.59,5.59,0,0,1,.56-.12,3.27,3.27,0,0,1,.53,0Zm7,0a.5.5,0,0,1,.37.14.44.44,0,0,1,.15.35V229h-6v-.49a.85.85,0,0,1,.06-.31.69.69,0,0,1,.2-.3l2.64-2.64c.21-.23.41-.44.58-.65a3.82,3.82,0,0,0,.44-.6,2.49,2.49,0,0,0,.26-.61,2,2,0,0,0,.1-.65,1.55,1.55,0,0,0-.09-.55,1.06,1.06,0,0,0-.65-.64,1.46,1.46,0,0,0-.52-.08,1.57,1.57,0,0,0-.49.07,1.39,1.39,0,0,0-.4.21,1.47,1.47,0,0,0-.29.32,1.38,1.38,0,0,0-.18.39.69.69,0,0,1-.26.37.77.77,0,0,1-.47,0l-.78-.14a3.24,3.24,0,0,1,.34-1.09,2.67,2.67,0,0,1,.65-.79,2.53,2.53,0,0,1,.89-.47,3.4,3.4,0,0,1,1.08-.16,3.2,3.2,0,0,1,1.09.18,2.18,2.18,0,0,1,.85.5,2.11,2.11,0,0,1,.56.78,2.53,2.53,0,0,1,.19,1,2.56,2.56,0,0,1-.14.89,3.51,3.51,0,0,1-.38.78,4.58,4.58,0,0,1-.55.72c-.21.23-.43.47-.67.71l-2,2a5.59,5.59,0,0,1,.56-.12,3.38,3.38,0,0,1,.53,0Z" style="fill:#1a4373"/><g style="clip-path:url(#clip-path-3)"><g style="clip-path:url(#clip-path-4)"><circle cx="562.5" cy="152.89" r="8.89" style="fill:#001b3d"/><circle cx="562.5" cy="152.89" r="8.89" style="fill:#001b3d"/><path d="M548.28,176a10.67,10.67,0,0,1,10.66-10.67h7.12A10.67,10.67,0,0,1,576.72,176Z" style="fill:#001b3d"/></g><g style="clip-path:url(#clip-path-5)"><circle cx="538" cy="142.06" r="13.06" style="fill:#1fb767"/><circle cx="538" cy="142.06" r="13.06" style="fill:#1fb767"/><path d="M544.5,144.5a6.5,6.5,0,1,1-13,0h13Z" style="fill:#fff"/><path d="M517.11,174.33a14,14,0,0,1,14-14h13.78a14,14,0,0,1,14,14V176H517.11Z" style="fill:#1fb767"/><path d="M534.08,160.33h-3.91L532.78,176l3.91-10.44Z" style="fill:#fff;fill-rule:evenodd"/><path d="M545.83,160.33,543.22,176l-3.91-10.44,2.61-5.23Z" style="fill:#fff;fill-rule:evenodd"/><path d="M541.92,160.33h-7.84l2.61,5.23L532.78,176h10.44l-3.91-10.44Z" style="fill:#001b3d"/><path d="M518.86,149l3.09,2.72,4.12.1-2.72,3.1-.1,4.12-3.09-2.73-4.12-.1,2.72-3.09Z" style="fill:#ffa600"/></g><rect x="558.44" y="131.41" width="6.17" height="6.17" rx="1" transform="translate(-8.59 225.94) rotate(-22.58)" style="fill:#ef5350"/></g><path d="M522,203.63l-1.41-3.85c-.07-.17-.14-.37-.22-.6s-.15-.49-.22-.76c-.07.27-.14.52-.22.76s-.14.44-.21.62l-1.4,3.83Zm3.8,4.37h-1.67a.67.67,0,0,1-.45-.14.85.85,0,0,1-.27-.35l-.86-2.36h-4.79l-.87,2.36a.72.72,0,0,1-.25.34.68.68,0,0,1-.45.15h-1.68l4.55-11.57h2.19Zm7.77-8.21V208h-1.21a.47.47,0,0,1-.5-.36l-.13-.66a4.92,4.92,0,0,1-1.11.84,3.25,3.25,0,0,1-1.44.31,3,3,0,0,1-1.19-.23,2.4,2.4,0,0,1-.86-.64,2.79,2.79,0,0,1-.54-1,4.17,4.17,0,0,1-.18-1.26v-5.22h2V205a1.79,1.79,0,0,0,.35,1.17,1.29,1.29,0,0,0,1,.4,2.11,2.11,0,0,0,1-.22,3.53,3.53,0,0,0,.85-.63v-5.94Zm7.11,2.1a2,2,0,0,0-.74-.58,2.15,2.15,0,0,0-.85-.17,1.91,1.91,0,0,0-.8.17,1.68,1.68,0,0,0-.62.51,2.5,2.5,0,0,0-.39.87,5,5,0,0,0-.14,1.23,6,6,0,0,0,.11,1.22,2.5,2.5,0,0,0,.34.82,1.3,1.3,0,0,0,.53.46,1.73,1.73,0,0,0,.69.13,2,2,0,0,0,1-.25,3.45,3.45,0,0,0,.82-.73Zm2-5.78V208h-1.2a.47.47,0,0,1-.5-.36l-.17-.79a4.2,4.2,0,0,1-1.14.92,3.13,3.13,0,0,1-1.5.35,2.65,2.65,0,0,1-1.23-.28,2.88,2.88,0,0,1-1-.81,4,4,0,0,1-.62-1.32,6.5,6.5,0,0,1-.22-1.79,5.82,5.82,0,0,1,.25-1.7,4.29,4.29,0,0,1,.71-1.36,3.29,3.29,0,0,1,1.11-.89,3.2,3.2,0,0,1,1.46-.33,2.83,2.83,0,0,1,1.18.22,3.15,3.15,0,0,1,.87.58v-4.33Zm4,3.68V208h-2v-8.21Zm.27-2.39a1.12,1.12,0,0,1-.1.48,1.21,1.21,0,0,1-.28.39,1.13,1.13,0,0,1-.4.27,1.18,1.18,0,0,1-.5.1,1.12,1.12,0,0,1-.48-.1,1.3,1.3,0,0,1-.67-.66,1.28,1.28,0,0,1-.09-.48,1.39,1.39,0,0,1,.09-.5,1.56,1.56,0,0,1,.27-.4,1.31,1.31,0,0,1,.4-.26,1.12,1.12,0,0,1,.48-.1,1.18,1.18,0,0,1,.5.1,1.11,1.11,0,0,1,.4.26,1.38,1.38,0,0,1,.28.4A1.21,1.21,0,0,1,546.94,197.4Zm7,5.55a2.17,2.17,0,0,0-.11-.72,1.58,1.58,0,0,0-.32-.6,1.43,1.43,0,0,0-.55-.4,2.09,2.09,0,0,0-2.12.34,2.4,2.4,0,0,0-.62,1.38Zm-3.76,1.19a3.76,3.76,0,0,0,.22,1.1,2.23,2.23,0,0,0,.47.76,1.76,1.76,0,0,0,.68.45,2.71,2.71,0,0,0,.88.14,2.81,2.81,0,0,0,.82-.11,4.52,4.52,0,0,0,.61-.25c.17-.09.33-.17.45-.25a.86.86,0,0,1,.39-.11.38.38,0,0,1,.36.19l.57.72a3.39,3.39,0,0,1-.73.64,4,4,0,0,1-.86.42,5.38,5.38,0,0,1-.9.22,6.88,6.88,0,0,1-.89.06,4.36,4.36,0,0,1-1.59-.28,3.56,3.56,0,0,1-1.28-.84,3.86,3.86,0,0,1-.86-1.38,5.29,5.29,0,0,1-.31-1.9,4.56,4.56,0,0,1,.27-1.58,3.74,3.74,0,0,1,2-2.16,4.15,4.15,0,0,1,1.65-.32,4.09,4.09,0,0,1,1.43.25,3.11,3.11,0,0,1,1.13.73,3.25,3.25,0,0,1,.74,1.17,4.27,4.27,0,0,1,.27,1.57,1.4,1.4,0,0,1-.09.61.42.42,0,0,1-.37.15Zm8.87-3.34a5.53,5.53,0,0,1,.52-.46,3.58,3.58,0,0,1,.59-.36,2.71,2.71,0,0,1,.66-.23,3.07,3.07,0,0,1,.77-.09,2.81,2.81,0,0,1,1.19.24,2.12,2.12,0,0,1,.86.64,2.65,2.65,0,0,1,.53,1,4.16,4.16,0,0,1,.19,1.26V208h-2v-5.22a1.78,1.78,0,0,0-.34-1.16,1.28,1.28,0,0,0-1.05-.42,2.12,2.12,0,0,0-1,.23,3.82,3.82,0,0,0-.85.63V208h-2v-8.21h1.21a.49.49,0,0,1,.51.36Zm12.19.59a.53.53,0,0,1-.17.19.46.46,0,0,1-.22,0,.62.62,0,0,1-.31-.08l-.38-.17a3.87,3.87,0,0,0-.49-.19,2.46,2.46,0,0,0-.65-.08,1.55,1.55,0,0,0-.92.25.78.78,0,0,0-.33.65.66.66,0,0,0,.17.45,1.7,1.7,0,0,0,.45.31,6.82,6.82,0,0,0,.65.25c.24.07.49.14.73.23a5.21,5.21,0,0,1,.74.3,2.26,2.26,0,0,1,.64.41,1.89,1.89,0,0,1,.45.6,1.87,1.87,0,0,1,.18.85,2.7,2.7,0,0,1-.22,1.1,2.29,2.29,0,0,1-.62.86,3.09,3.09,0,0,1-1,.57,4.66,4.66,0,0,1-1.41.2,4.58,4.58,0,0,1-.83-.08,5,5,0,0,1-.78-.21,5.42,5.42,0,0,1-.69-.32,3.89,3.89,0,0,1-.55-.4l.46-.75a.81.81,0,0,1,.2-.21.67.67,0,0,1,.65,0l.39.23a3.39,3.39,0,0,0,.5.22,2.28,2.28,0,0,0,.74.1,1.74,1.74,0,0,0,.6-.08,1.27,1.27,0,0,0,.42-.22.87.87,0,0,0,.24-.31,1,1,0,0,0,.08-.38.64.64,0,0,0-.18-.47,1.44,1.44,0,0,0-.45-.32,4,4,0,0,0-.65-.24l-.74-.24a5.86,5.86,0,0,1-.75-.3,2.57,2.57,0,0,1-.65-.44,2.16,2.16,0,0,1-.45-.64,2.51,2.51,0,0,1,0-1.89,2.08,2.08,0,0,1,.59-.79,3,3,0,0,1,1-.55,4,4,0,0,1,1.35-.21,4.22,4.22,0,0,1,1.54.28,3.56,3.56,0,0,1,1.16.74Zm4.07-1.6V208h-2v-8.21Zm.28-2.39a1.13,1.13,0,0,1-.11.48,1.21,1.21,0,0,1-.28.39,1.13,1.13,0,0,1-.4.27,1.25,1.25,0,0,1-1,0,1.19,1.19,0,0,1-.39-.27,1.21,1.21,0,0,1-.28-.39,1.28,1.28,0,0,1-.09-.48,1.16,1.16,0,0,1,.37-.9,1.25,1.25,0,0,1,1.37-.26,1.11,1.11,0,0,1,.4.26,1.38,1.38,0,0,1,.28.4A1.22,1.22,0,0,1,575.62,197.4Z" style="fill:#069550"/><path d="M515.74,224.66a6.86,6.86,0,0,1-.25,2,4,4,0,0,1-.67,1.38,2.71,2.71,0,0,1-1,.81,3,3,0,0,1-1.26.27,2.91,2.91,0,0,1-1.26-.27,2.79,2.79,0,0,1-1-.81,4.22,4.22,0,0,1-.66-1.38,7.25,7.25,0,0,1-.24-2,7.12,7.12,0,0,1,.24-2,4,4,0,0,1,.66-1.38,2.6,2.6,0,0,1,1-.81,2.91,2.91,0,0,1,1.26-.27,3,3,0,0,1,1.26.27,2.53,2.53,0,0,1,1,.81,3.86,3.86,0,0,1,.67,1.38A6.74,6.74,0,0,1,515.74,224.66Zm-1.53,0a7.43,7.43,0,0,0-.14-1.56,3.14,3.14,0,0,0-.37-1,1.22,1.22,0,0,0-.53-.51,1.38,1.38,0,0,0-.62-.15,1.35,1.35,0,0,0-.62.15,1.21,1.21,0,0,0-.52.51,2.91,2.91,0,0,0-.37,1,9.43,9.43,0,0,0,0,3.12,3.06,3.06,0,0,0,.37,1,1.33,1.33,0,0,0,.52.51,1.35,1.35,0,0,0,.62.15,1.38,1.38,0,0,0,.62-.15,1.35,1.35,0,0,0,.53-.51,3.31,3.31,0,0,0,.37-1A7.43,7.43,0,0,0,514.21,224.66Zm7.71,3a.51.51,0,0,1,.38.14.44.44,0,0,1,.15.35V229h-6v-.49a1.13,1.13,0,0,1,.06-.31.81.81,0,0,1,.21-.3l2.63-2.64c.22-.23.42-.44.59-.65a3.82,3.82,0,0,0,.44-.6,3,3,0,0,0,.26-.61,2,2,0,0,0,.1-.65,1.55,1.55,0,0,0-.09-.55,1.11,1.11,0,0,0-.26-.4,1,1,0,0,0-.4-.24,1.37,1.37,0,0,0-.51-.08,1.53,1.53,0,0,0-.49.07,1.39,1.39,0,0,0-.4.21,1.47,1.47,0,0,0-.29.32,1.38,1.38,0,0,0-.18.39.65.65,0,0,1-.27.37.76.76,0,0,1-.47,0l-.77-.14a3.24,3.24,0,0,1,.34-1.09,2.53,2.53,0,0,1,.65-.79,2.58,2.58,0,0,1,.88-.47,3.49,3.49,0,0,1,1.08-.16,3.21,3.21,0,0,1,1.1.18,2.25,2.25,0,0,1,.85.5,2.09,2.09,0,0,1,.55.78,2.37,2.37,0,0,1,.2,1,2.56,2.56,0,0,1-.14.89,3.51,3.51,0,0,1-.38.78,5.28,5.28,0,0,1-.55.72l-.67.71-1.95,2a5.41,5.41,0,0,1,.55-.12,3.5,3.5,0,0,1,.54,0Zm9.15-1.9L530,222.84c0-.13-.1-.28-.16-.46l-.17-.57c0,.21-.1.4-.16.58s-.11.33-.16.46l-1.05,2.87Zm2.85,3.28h-1.25a.53.53,0,0,1-.34-.1.68.68,0,0,1-.2-.27l-.65-1.77h-3.59l-.65,1.77a.56.56,0,0,1-.18.26.58.58,0,0,1-.35.11h-1.26l3.42-8.68h1.64Zm2.13-1.6a1.49,1.49,0,0,0,.55.44,1.75,1.75,0,0,0,.65.12,1.46,1.46,0,0,0,.6-.12,1.23,1.23,0,0,0,.46-.39,1.69,1.69,0,0,0,.29-.65,3.59,3.59,0,0,0,.11-.93,3.94,3.94,0,0,0-.09-.91,1.81,1.81,0,0,0-.25-.61.93.93,0,0,0-.4-.34,1.21,1.21,0,0,0-.52-.11,1.46,1.46,0,0,0-.78.2,2.56,2.56,0,0,0-.62.54Zm-.07-3.72a3.3,3.3,0,0,1,.85-.69,2.39,2.39,0,0,1,1.13-.26,2,2,0,0,1,1.64.82,2.94,2.94,0,0,1,.47,1,4.83,4.83,0,0,1,.17,1.33,4.35,4.35,0,0,1-.19,1.28,3.09,3.09,0,0,1-.53,1,2.39,2.39,0,0,1-1.93.92,2.13,2.13,0,0,1-.88-.16,2.06,2.06,0,0,1-.66-.44V231h-1.48v-8.17h.91a.37.37,0,0,1,.38.27Zm6.81.23a2.62,2.62,0,0,1,.68-.86,1.49,1.49,0,0,1,.94-.32,1.1,1.1,0,0,1,.68.19L545,224a.27.27,0,0,1-.09.15.24.24,0,0,1-.15,0l-.27,0-.34,0a1.19,1.19,0,0,0-.44.08.84.84,0,0,0-.35.21,1.24,1.24,0,0,0-.27.32,3,3,0,0,0-.22.44V229h-1.48v-6.16h.87a.45.45,0,0,1,.32.09.46.46,0,0,1,.12.29Zm4.62-1.07V229h-1.49v-6.16Zm.2-1.79a.9.9,0,0,1-.29.65.81.81,0,0,1-.3.21.9.9,0,0,1-.37.07.94.94,0,0,1-.37-.07.86.86,0,0,1-.29-.21,1.27,1.27,0,0,1-.21-.29,1,1,0,0,1-.07-.36,1.11,1.11,0,0,1,.07-.37,1.14,1.14,0,0,1,.21-.3.84.84,0,0,1,.29-.2,1,1,0,0,1,.37-.08.91.91,0,0,1,.37.08.79.79,0,0,1,.3.2.81.81,0,0,1,.21.3A.91.91,0,0,1,547.61,221.05Zm2.81-1V229h-1.49v-8.92Zm9.54,7.54a.52.52,0,0,1,.38.14.44.44,0,0,1,.15.35V229h-6v-.49a.85.85,0,0,1,.06-.31.81.81,0,0,1,.21-.3l2.63-2.64c.22-.23.42-.44.59-.65a3.82,3.82,0,0,0,.44-.6,3,3,0,0,0,.26-.61,2,2,0,0,0,.1-.65,1.55,1.55,0,0,0-.09-.55,1.11,1.11,0,0,0-.26-.4,1,1,0,0,0-.4-.24,1.37,1.37,0,0,0-.51-.08,1.53,1.53,0,0,0-.49.07,1.39,1.39,0,0,0-.4.21,1.26,1.26,0,0,0-.29.32,1.38,1.38,0,0,0-.18.39.65.65,0,0,1-.27.37.76.76,0,0,1-.47,0l-.78-.14a3.25,3.25,0,0,1,.35-1.09,2.52,2.52,0,0,1,1.53-1.26,3.49,3.49,0,0,1,1.08-.16,3.21,3.21,0,0,1,1.1.18,2.25,2.25,0,0,1,.85.5,2.09,2.09,0,0,1,.55.78,2.37,2.37,0,0,1,.2,1,2.81,2.81,0,0,1-.14.89,3.51,3.51,0,0,1-.38.78,5.28,5.28,0,0,1-.55.72l-.67.71-2,2a5.41,5.41,0,0,1,.55-.12,3.5,3.5,0,0,1,.54,0Zm7.74-3a6.86,6.86,0,0,1-.25,2,4,4,0,0,1-.67,1.38,2.71,2.71,0,0,1-1,.81,3,3,0,0,1-1.26.27,2.94,2.94,0,0,1-1.26-.27,2.79,2.79,0,0,1-1-.81,4.22,4.22,0,0,1-.66-1.38,7.25,7.25,0,0,1-.24-2,7.12,7.12,0,0,1,.24-2,4,4,0,0,1,.66-1.38,2.6,2.6,0,0,1,1-.81,2.94,2.94,0,0,1,1.26-.27,3,3,0,0,1,1.26.27,2.53,2.53,0,0,1,1,.81,3.86,3.86,0,0,1,.67,1.38A6.74,6.74,0,0,1,567.7,224.66Zm-1.53,0a7.43,7.43,0,0,0-.14-1.56,2.91,2.91,0,0,0-.37-1,1.22,1.22,0,0,0-.53-.51,1.38,1.38,0,0,0-.62-.15,1.35,1.35,0,0,0-.62.15,1.21,1.21,0,0,0-.52.51,3.14,3.14,0,0,0-.37,1,9.43,9.43,0,0,0,0,3.12,3.31,3.31,0,0,0,.37,1,1.33,1.33,0,0,0,.52.51,1.35,1.35,0,0,0,.62.15,1.38,1.38,0,0,0,.62-.15,1.35,1.35,0,0,0,.53-.51,3.06,3.06,0,0,0,.37-1A7.43,7.43,0,0,0,566.17,224.66Zm7.72,3a.5.5,0,0,1,.37.14.44.44,0,0,1,.15.35V229h-5.95v-.49a.85.85,0,0,1,.06-.31.69.69,0,0,1,.2-.3l2.63-2.64c.22-.23.42-.44.59-.65a3.82,3.82,0,0,0,.44-.6,2.49,2.49,0,0,0,.26-.61,2,2,0,0,0,.1-.65,1.55,1.55,0,0,0-.09-.55,1.11,1.11,0,0,0-.26-.4,1,1,0,0,0-.39-.24,1.46,1.46,0,0,0-.52-.08,1.53,1.53,0,0,0-.49.07,1.39,1.39,0,0,0-.4.21,1.47,1.47,0,0,0-.29.32,1.38,1.38,0,0,0-.18.39.65.65,0,0,1-.27.37.73.73,0,0,1-.46,0l-.78-.14a3.24,3.24,0,0,1,.34-1.09,2.67,2.67,0,0,1,.65-.79,2.58,2.58,0,0,1,.88-.47,3.49,3.49,0,0,1,1.08-.16,3.21,3.21,0,0,1,1.1.18,2.25,2.25,0,0,1,.85.5,2.23,2.23,0,0,1,.56.78,2.53,2.53,0,0,1,.19,1,2.56,2.56,0,0,1-.14.89,3.51,3.51,0,0,1-.38.78,4.58,4.58,0,0,1-.55.72c-.21.23-.43.47-.67.71l-1.95,2a5.59,5.59,0,0,1,.56-.12,3.27,3.27,0,0,1,.53,0Zm7,0a.5.5,0,0,1,.37.14.44.44,0,0,1,.15.35V229h-6v-.49a.85.85,0,0,1,.06-.31.69.69,0,0,1,.2-.3l2.64-2.64c.21-.23.41-.44.58-.65a3.82,3.82,0,0,0,.44-.6,2.49,2.49,0,0,0,.26-.61,2,2,0,0,0,.1-.65,1.55,1.55,0,0,0-.09-.55,1.06,1.06,0,0,0-.65-.64,1.46,1.46,0,0,0-.52-.08,1.57,1.57,0,0,0-.49.07,1.39,1.39,0,0,0-.4.21,1.47,1.47,0,0,0-.29.32,1.38,1.38,0,0,0-.18.39.69.69,0,0,1-.26.37.77.77,0,0,1-.47,0l-.78-.14a3.24,3.24,0,0,1,.34-1.09,2.67,2.67,0,0,1,.65-.79,2.53,2.53,0,0,1,.89-.47,3.4,3.4,0,0,1,1.08-.16,3.2,3.2,0,0,1,1.09.18,2.18,2.18,0,0,1,.85.5,2.11,2.11,0,0,1,.56.78,2.53,2.53,0,0,1,.19,1,2.56,2.56,0,0,1-.14.89,3.51,3.51,0,0,1-.38.78,4.58,4.58,0,0,1-.55.72c-.21.23-.43.47-.67.71l-2,2a5.59,5.59,0,0,1,.56-.12,3.38,3.38,0,0,1,.53,0Z" style="fill:#1a4373"/><path d="M100,136h32a4,4,0,0,1,4,4v32a4,4,0,0,1-4,4H104a4,4,0,0,1-4-4Z" style="fill:#16a75c"/><circle cx="107" cy="147" r="3" style="fill:#fff"/><path d="M114,144h7a1,1,0,0,1,1,1h0a1,1,0,0,1-1,1h-7a1,1,0,0,1-1-1h0A1,1,0,0,1,114,144Z" style="fill:#fff"/><path d="M114,148h9a1,1,0,0,1,1,1h0a1,1,0,0,1-1,1h-9a1,1,0,0,1-1-1h0A1,1,0,0,1,114,148Z" style="fill:#9bdbb3"/><circle cx="107" cy="157" r="2.5" style="fill:none;stroke:#fff"/><path d="M114,154h4a1,1,0,0,1,1,1h0a1,1,0,0,1-1,1h-4a1,1,0,0,1-1-1h0A1,1,0,0,1,114,154Z" style="fill:#fff"/><path d="M114,158h9a1,1,0,0,1,1,1h0a1,1,0,0,1-1,1h-9a1,1,0,0,1-1-1h0A1,1,0,0,1,114,158Z" style="fill:#9bdbb3"/><path d="M100,167a1,1,0,0,1,1-1h39a1,1,0,0,1,1,1v3a6,6,0,0,1-6,6H106a6,6,0,0,1-6-6Z" style="fill:#4dc27e"/><path d="M100,166h9v5.5a4.5,4.5,0,0,1-9,0Z" style="fill:#16a75c"/><path d="M108,129.92l-2.39,1.54-.85,2.71-1.54-2.4-2.71-.85,2.39-1.53.86-2.71,1.53,2.39Z" style="fill:#9b27b0"/><rect x="96" y="136" width="4" height="4" style="fill:#16a75c"/><rect x="140.07" y="154.07" width="5.62" height="5.62" rx="1" transform="translate(-66.2 193.11) rotate(-57.51)" style="fill:#ffa600"/><path d="M93,139.5a3.5,3.5,0,0,1,7,0V148H94a1,1,0,0,1-1-1Z" style="fill:#069550"/><path d="M141.62,138.41a2,2,0,0,1,2.83,0l1.07,1.08a2,2,0,0,1,0,2.83l-13,13a2,2,0,0,1-.93.53l-3.84.95a.5.5,0,0,1-.61-.61l.95-3.84a2,2,0,0,1,.53-.94Z" style="fill:#001b3d"/><line x1="139.35" y1="140.65" x2="143.35" y2="144.65" style="fill:none;stroke:#e3e7ed"/><path d="M82.05,202.25a3.2,3.2,0,0,0,1-.15,2,2,0,0,0,.73-.42,1.78,1.78,0,0,0,.44-.67,2.77,2.77,0,0,0,.14-.89,2.47,2.47,0,0,0-.14-.84,1.76,1.76,0,0,0-.43-.64,1.91,1.91,0,0,0-.73-.4,3.27,3.27,0,0,0-1-.14H80.44v4.15Zm0-5.82a6.7,6.7,0,0,1,2,.27,4,4,0,0,1,1.4.76,3,3,0,0,1,.81,1.17,4.31,4.31,0,0,1,0,3,3,3,0,0,1-.84,1.2,3.88,3.88,0,0,1-1.4.79,6.16,6.16,0,0,1-2,.28H80.44V208H78.29V196.43ZM92.8,203a2.18,2.18,0,0,0-.12-.72,1.58,1.58,0,0,0-.32-.6,1.43,1.43,0,0,0-.55-.4,2.09,2.09,0,0,0-2.12.34,2.4,2.4,0,0,0-.62,1.38ZM89,204.14a3.76,3.76,0,0,0,.22,1.1,2.23,2.23,0,0,0,.47.76,1.76,1.76,0,0,0,.68.45,2.71,2.71,0,0,0,.88.14,2.81,2.81,0,0,0,.82-.11,4.52,4.52,0,0,0,.61-.25c.17-.09.33-.17.45-.25a.86.86,0,0,1,.39-.11.41.41,0,0,1,.37.19l.56.72a3.39,3.39,0,0,1-.73.64,4,4,0,0,1-.86.42,5.38,5.38,0,0,1-.9.22,6.88,6.88,0,0,1-.89.06,4.36,4.36,0,0,1-1.59-.28,3.56,3.56,0,0,1-1.28-.84,3.86,3.86,0,0,1-.86-1.38,5.29,5.29,0,0,1-.31-1.9,4.56,4.56,0,0,1,.27-1.58,3.74,3.74,0,0,1,2-2.16,4.35,4.35,0,0,1,3.09-.07,3.15,3.15,0,0,1,1.12.73,3.25,3.25,0,0,1,.74,1.17,4.27,4.27,0,0,1,.27,1.57,1.4,1.4,0,0,1-.09.61.42.42,0,0,1-.37.15Zm8.87-3.34a5.53,5.53,0,0,1,.52-.46A3.58,3.58,0,0,1,99,200a2.86,2.86,0,0,1,.66-.23,3.07,3.07,0,0,1,.77-.09,2.81,2.81,0,0,1,1.19.24,2.12,2.12,0,0,1,.86.64,2.65,2.65,0,0,1,.53,1,4.16,4.16,0,0,1,.19,1.26V208h-2v-5.22a1.78,1.78,0,0,0-.34-1.16,1.28,1.28,0,0,0-1-.42,2.12,2.12,0,0,0-1,.23,3.82,3.82,0,0,0-.85.63V208h-2v-8.21h1.21a.49.49,0,0,1,.51.36Zm12.34,1.09a2,2,0,0,0-.74-.58,2.15,2.15,0,0,0-.85-.17,1.88,1.88,0,0,0-.8.17,1.68,1.68,0,0,0-.62.51,2.5,2.5,0,0,0-.39.87,5,5,0,0,0-.14,1.23,6,6,0,0,0,.11,1.22,2.3,2.3,0,0,0,.34.82,1.3,1.3,0,0,0,.53.46,1.73,1.73,0,0,0,.69.13,2,2,0,0,0,1-.25,3.45,3.45,0,0,0,.82-.73Zm2-5.78V208H111a.46.46,0,0,1-.49-.36l-.17-.79a4.2,4.2,0,0,1-1.14.92,3.13,3.13,0,0,1-1.5.35,2.65,2.65,0,0,1-1.23-.28,2.88,2.88,0,0,1-1-.81,4,4,0,0,1-.62-1.32,6.5,6.5,0,0,1-.22-1.79,5.5,5.5,0,0,1,.25-1.7,4.1,4.1,0,0,1,.71-1.36,3.29,3.29,0,0,1,1.11-.89,3.2,3.2,0,0,1,1.46-.33,2.75,2.75,0,0,1,1.17.22,3.06,3.06,0,0,1,.88.58v-4.33Zm6.29,8.39a8.86,8.86,0,0,0-1.44.15,4,4,0,0,0-.94.27,1.21,1.21,0,0,0-.5.39.86.86,0,0,0-.15.49.84.84,0,0,0,.3.74,1.36,1.36,0,0,0,.81.23,2.29,2.29,0,0,0,1-.22,3.08,3.08,0,0,0,.87-.67ZM114,200.94a4.86,4.86,0,0,1,3.41-1.3,3.3,3.3,0,0,1,1.29.24,2.69,2.69,0,0,1,1.55,1.66,3.74,3.74,0,0,1,.21,1.28V208h-.9a1,1,0,0,1-.43-.08.61.61,0,0,1-.24-.34l-.18-.6a6.35,6.35,0,0,1-.6.5,3.5,3.5,0,0,1-.62.35,2.93,2.93,0,0,1-.69.22,3.94,3.94,0,0,1-.8.08,3.27,3.27,0,0,1-1-.14,2,2,0,0,1-.76-.42,1.85,1.85,0,0,1-.49-.7,2.4,2.4,0,0,1-.18-1,1.86,1.86,0,0,1,.1-.61,1.68,1.68,0,0,1,.34-.59,2.74,2.74,0,0,1,.62-.53,3.58,3.58,0,0,1,.92-.43,6.53,6.53,0,0,1,1.28-.3,11.32,11.32,0,0,1,1.66-.14v-.48a1.81,1.81,0,0,0-.35-1.22,1.29,1.29,0,0,0-1-.4,2.57,2.57,0,0,0-.8.11,3.13,3.13,0,0,0-.55.26l-.44.25a.89.89,0,0,1-.43.11.56.56,0,0,1-.35-.11.94.94,0,0,1-.24-.25Zm8.75,7.06v-6.72l-.71-.11a.9.9,0,0,1-.37-.16.4.4,0,0,1-.14-.34v-.81h1.22v-.6a3.64,3.64,0,0,1,.21-1.27,2.82,2.82,0,0,1,.61-1,2.74,2.74,0,0,1,1-.6,3.66,3.66,0,0,1,1.28-.21,3.51,3.51,0,0,1,1,.15l0,1a.28.28,0,0,1-.06.18.4.4,0,0,1-.15.1l-.21.05h-.26a2.47,2.47,0,0,0-.63.08,1.1,1.1,0,0,0-.46.26,1.24,1.24,0,0,0-.3.5,2.73,2.73,0,0,0-.09.76v.54h2.13v1.41H124.7V208Zm7.9.13a2.17,2.17,0,0,1-1.65-.6,2.35,2.35,0,0,1-.57-1.67v-4.59h-.84a.38.38,0,0,1-.27-.1.43.43,0,0,1-.11-.31v-.79l1.32-.21.41-2.24a.44.44,0,0,1,.16-.25.43.43,0,0,1,.28-.09h1v2.58h2.19v1.41h-2.19v4.45a.9.9,0,0,0,.18.6.68.68,0,0,0,.52.22,1.23,1.23,0,0,0,.31,0l.21-.1.17-.09a.3.3,0,0,1,.14-.05.25.25,0,0,1,.15.05.51.51,0,0,1,.12.13l.59,1a3,3,0,0,1-1,.54A3.53,3.53,0,0,1,130.62,208.13Zm7.55-3.63a8.86,8.86,0,0,0-1.44.15,4,4,0,0,0-.94.27,1.21,1.21,0,0,0-.5.39.86.86,0,0,0-.15.49.84.84,0,0,0,.3.74,1.36,1.36,0,0,0,.81.23,2.26,2.26,0,0,0,1.05-.22,3.08,3.08,0,0,0,.87-.67Zm-4.53-3.56a4.86,4.86,0,0,1,3.41-1.3,3.3,3.3,0,0,1,1.29.24,2.69,2.69,0,0,1,1.55,1.66,3.74,3.74,0,0,1,.21,1.28V208h-.9a1,1,0,0,1-.43-.08.61.61,0,0,1-.24-.34l-.18-.6a5.3,5.3,0,0,1-.6.5,3.18,3.18,0,0,1-.62.35,2.93,2.93,0,0,1-.69.22,3.87,3.87,0,0,1-.8.08,3.32,3.32,0,0,1-1-.14,2.09,2.09,0,0,1-.76-.42,1.85,1.85,0,0,1-.49-.7,2.4,2.4,0,0,1-.18-1,2.16,2.16,0,0,1,.1-.61,2.06,2.06,0,0,1,.34-.59,2.74,2.74,0,0,1,.62-.53,3.75,3.75,0,0,1,.92-.43,6.71,6.71,0,0,1,1.28-.3,11.32,11.32,0,0,1,1.66-.14v-.48a1.81,1.81,0,0,0-.35-1.22,1.26,1.26,0,0,0-1-.4,2.62,2.62,0,0,0-.8.11,3.13,3.13,0,0,0-.55.26l-.44.25a.89.89,0,0,1-.43.11.56.56,0,0,1-.35-.11.94.94,0,0,1-.24-.25Zm10.18.28a3.53,3.53,0,0,1,.92-1.16,1.92,1.92,0,0,1,1.24-.42,1.52,1.52,0,0,1,.92.25l-.13,1.48a.53.53,0,0,1-.12.21.39.39,0,0,1-.2,0,2,2,0,0,1-.36,0,3.73,3.73,0,0,0-.46,0,1.5,1.5,0,0,0-.58.1,1.34,1.34,0,0,0-.47.28,2,2,0,0,0-.36.43,5.24,5.24,0,0,0-.28.58V208h-2v-8.21h1.16a.64.64,0,0,1,.42.11.59.59,0,0,1,.16.39Zm8.34,3.28a8.74,8.74,0,0,0-1.44.15,3.83,3.83,0,0,0-.94.27,1.15,1.15,0,0,0-.5.39.8.8,0,0,0-.16.49.85.85,0,0,0,.31.74,1.34,1.34,0,0,0,.81.23,2.25,2.25,0,0,0,1-.22,3.27,3.27,0,0,0,.88-.67Zm-4.53-3.56a4.84,4.84,0,0,1,3.41-1.3,3.21,3.21,0,0,1,1.28.24,2.62,2.62,0,0,1,1,.66,2.78,2.78,0,0,1,.6,1,4,4,0,0,1,.2,1.28V208h-.89a1,1,0,0,1-.43-.08.53.53,0,0,1-.24-.34l-.18-.6a6.41,6.41,0,0,1-.61.5,3.42,3.42,0,0,1-.61.35,3.26,3.26,0,0,1-.69.22,3.94,3.94,0,0,1-.8.08,3.22,3.22,0,0,1-1-.14,1.94,1.94,0,0,1-.76-.42,1.87,1.87,0,0,1-.5-.7,2.4,2.4,0,0,1-.17-1,1.86,1.86,0,0,1,.1-.61,1.68,1.68,0,0,1,.34-.59,2.68,2.68,0,0,1,.61-.53,3.75,3.75,0,0,1,.92-.43,6.89,6.89,0,0,1,1.28-.3,11.47,11.47,0,0,1,1.67-.14v-.48a1.76,1.76,0,0,0-.36-1.22,1.25,1.25,0,0,0-1-.4,2.57,2.57,0,0,0-.8.11,3.13,3.13,0,0,0-.55.26l-.44.25a.93.93,0,0,1-.44.11.61.61,0,0,1-.35-.11,1.09,1.09,0,0,1-.23-.25Zm10.16-.14a5.53,5.53,0,0,1,.52-.46,3.58,3.58,0,0,1,.59-.36,2.86,2.86,0,0,1,.66-.23,3.07,3.07,0,0,1,.77-.09,2.81,2.81,0,0,1,1.19.24,2.12,2.12,0,0,1,.86.64,2.65,2.65,0,0,1,.53,1,3.87,3.87,0,0,1,.19,1.26V208h-2v-5.22a1.73,1.73,0,0,0-.34-1.16,1.28,1.28,0,0,0-1.05-.42,2.12,2.12,0,0,0-1,.23,3.82,3.82,0,0,0-.85.63V208h-2v-8.21h1.2a.49.49,0,0,1,.51.36Z" style="fill:#069550"/><path d="M90.74,224.66a6.86,6.86,0,0,1-.25,2,4,4,0,0,1-.67,1.38,2.71,2.71,0,0,1-1,.81,3,3,0,0,1-1.26.27,2.91,2.91,0,0,1-1.26-.27,2.79,2.79,0,0,1-1-.81,4.22,4.22,0,0,1-.66-1.38,7.25,7.25,0,0,1-.24-2,7.12,7.12,0,0,1,.24-2,4,4,0,0,1,.66-1.38,2.6,2.6,0,0,1,1-.81,2.91,2.91,0,0,1,1.26-.27,3,3,0,0,1,1.26.27,2.53,2.53,0,0,1,1,.81,3.86,3.86,0,0,1,.67,1.38A6.74,6.74,0,0,1,90.74,224.66Zm-1.53,0a7.43,7.43,0,0,0-.14-1.56,3.14,3.14,0,0,0-.37-1,1.22,1.22,0,0,0-.53-.51,1.38,1.38,0,0,0-.62-.15,1.35,1.35,0,0,0-.62.15,1.21,1.21,0,0,0-.52.51,2.91,2.91,0,0,0-.37,1,9.42,9.42,0,0,0,0,3.12,3.06,3.06,0,0,0,.37,1,1.33,1.33,0,0,0,.52.51,1.35,1.35,0,0,0,.62.15,1.38,1.38,0,0,0,.62-.15,1.35,1.35,0,0,0,.53-.51,3.31,3.31,0,0,0,.37-1A7.43,7.43,0,0,0,89.21,224.66Zm7.72,3a.5.5,0,0,1,.37.14.44.44,0,0,1,.15.35V229h-6v-.49a.85.85,0,0,1,.06-.31.69.69,0,0,1,.2-.3l2.63-2.64c.22-.23.42-.44.59-.65a3.82,3.82,0,0,0,.44-.6,2.49,2.49,0,0,0,.26-.61,2,2,0,0,0,.1-.65,1.55,1.55,0,0,0-.09-.55,1.11,1.11,0,0,0-.26-.4,1,1,0,0,0-.39-.24,1.46,1.46,0,0,0-.52-.08,1.53,1.53,0,0,0-.49.07,1.39,1.39,0,0,0-.4.21,1.47,1.47,0,0,0-.29.32,1.38,1.38,0,0,0-.18.39.65.65,0,0,1-.27.37.73.73,0,0,1-.46,0l-.78-.14a3.24,3.24,0,0,1,.34-1.09,2.67,2.67,0,0,1,.65-.79,2.58,2.58,0,0,1,.88-.47,3.49,3.49,0,0,1,1.08-.16,3.21,3.21,0,0,1,1.1.18,2.25,2.25,0,0,1,.85.5,2.23,2.23,0,0,1,.56.78,2.53,2.53,0,0,1,.19,1,2.56,2.56,0,0,1-.14.89,3.51,3.51,0,0,1-.38.78,4.58,4.58,0,0,1-.55.72c-.21.23-.43.47-.67.71l-2,2a5.59,5.59,0,0,1,.56-.12,3.27,3.27,0,0,1,.53,0Zm9.14-1.9L105,222.84c-.05-.13-.1-.28-.16-.46l-.17-.57c-.05.21-.1.4-.16.58s-.11.33-.16.46l-1,2.87Zm2.85,3.28h-1.25a.53.53,0,0,1-.34-.1.68.68,0,0,1-.2-.27l-.65-1.77h-3.59l-.65,1.77a.56.56,0,0,1-.18.26.58.58,0,0,1-.35.11h-1.26l3.42-8.68h1.64Zm2.13-1.6a1.49,1.49,0,0,0,.55.44,1.75,1.75,0,0,0,.65.12,1.46,1.46,0,0,0,.6-.12,1.23,1.23,0,0,0,.46-.39,1.69,1.69,0,0,0,.29-.65,3.59,3.59,0,0,0,.11-.93,3.94,3.94,0,0,0-.09-.91,1.81,1.81,0,0,0-.25-.61.93.93,0,0,0-.4-.34,1.21,1.21,0,0,0-.52-.11,1.46,1.46,0,0,0-.78.2,2.56,2.56,0,0,0-.62.54Zm-.07-3.72a3.3,3.3,0,0,1,.85-.69,2.39,2.39,0,0,1,1.13-.26,2,2,0,0,1,1.64.82,2.94,2.94,0,0,1,.47,1,4.83,4.83,0,0,1,.17,1.33,4.35,4.35,0,0,1-.19,1.28,3.09,3.09,0,0,1-.53,1,2.39,2.39,0,0,1-1.93.92,2.13,2.13,0,0,1-.88-.16,2.06,2.06,0,0,1-.66-.44V231h-1.48v-8.17h.91a.37.37,0,0,1,.38.27Zm6.81.23a2.62,2.62,0,0,1,.68-.86,1.49,1.49,0,0,1,.94-.32,1.1,1.1,0,0,1,.68.19L120,224a.27.27,0,0,1-.09.15.24.24,0,0,1-.15,0l-.27,0-.34,0a1.19,1.19,0,0,0-.44.08.84.84,0,0,0-.35.21,1.24,1.24,0,0,0-.27.32,3,3,0,0,0-.22.44V229h-1.48v-6.16h.87a.45.45,0,0,1,.32.09.46.46,0,0,1,.12.29Zm4.61-1.07V229h-1.48v-6.16Zm.21-1.79a.9.9,0,0,1-.29.65.81.81,0,0,1-.3.21,1,1,0,0,1-.74,0,.86.86,0,0,1-.29-.21.84.84,0,0,1-.2-.29.86.86,0,0,1-.08-.36.91.91,0,0,1,.08-.37.79.79,0,0,1,.2-.3.84.84,0,0,1,.29-.2.9.9,0,0,1,.74,0,.79.79,0,0,1,.3.2.81.81,0,0,1,.21.3A.91.91,0,0,1,122.61,221.05Zm2.81-1V229h-1.49v-8.92Zm9.54,7.54a.52.52,0,0,1,.38.14.44.44,0,0,1,.15.35V229h-6v-.49a.85.85,0,0,1,.06-.31.81.81,0,0,1,.21-.3l2.63-2.64c.22-.23.42-.44.59-.65a3.82,3.82,0,0,0,.44-.6,3,3,0,0,0,.26-.61,2,2,0,0,0,.1-.65,1.55,1.55,0,0,0-.09-.55,1.11,1.11,0,0,0-.26-.4,1,1,0,0,0-.4-.24,1.37,1.37,0,0,0-.51-.08,1.53,1.53,0,0,0-.49.07,1.39,1.39,0,0,0-.4.21,1.26,1.26,0,0,0-.29.32,1.38,1.38,0,0,0-.18.39.65.65,0,0,1-.27.37.76.76,0,0,1-.47,0l-.78-.14a3.25,3.25,0,0,1,.35-1.09,2.52,2.52,0,0,1,1.53-1.26,3.49,3.49,0,0,1,1.08-.16,3.21,3.21,0,0,1,1.1.18,2.25,2.25,0,0,1,.85.5,2.09,2.09,0,0,1,.55.78,2.37,2.37,0,0,1,.2,1,2.81,2.81,0,0,1-.14.89,3.51,3.51,0,0,1-.38.78,5.28,5.28,0,0,1-.55.72l-.67.71-1.95,2a5.41,5.41,0,0,1,.55-.12,3.5,3.5,0,0,1,.54,0Zm7.74-3a6.86,6.86,0,0,1-.25,2,4,4,0,0,1-.67,1.38,2.71,2.71,0,0,1-1,.81,3,3,0,0,1-1.26.27,2.91,2.91,0,0,1-1.26-.27,2.79,2.79,0,0,1-1-.81,4.22,4.22,0,0,1-.66-1.38,7.25,7.25,0,0,1-.24-2,7.12,7.12,0,0,1,.24-2,4,4,0,0,1,.66-1.38,2.6,2.6,0,0,1,1-.81,2.91,2.91,0,0,1,1.26-.27,3,3,0,0,1,1.26.27,2.53,2.53,0,0,1,1,.81,3.86,3.86,0,0,1,.67,1.38A6.74,6.74,0,0,1,142.7,224.66Zm-1.53,0a7.43,7.43,0,0,0-.14-1.56,2.91,2.91,0,0,0-.37-1,1.22,1.22,0,0,0-.53-.51,1.38,1.38,0,0,0-.62-.15,1.35,1.35,0,0,0-.62.15,1.21,1.21,0,0,0-.52.51,2.91,2.91,0,0,0-.37,1,9.42,9.42,0,0,0,0,3.12,3.06,3.06,0,0,0,.37,1,1.33,1.33,0,0,0,.52.51,1.35,1.35,0,0,0,.62.15,1.38,1.38,0,0,0,.62-.15,1.35,1.35,0,0,0,.53-.51,3.06,3.06,0,0,0,.37-1A7.43,7.43,0,0,0,141.17,224.66Zm7.72,3a.5.5,0,0,1,.37.14.44.44,0,0,1,.15.35V229h-5.95v-.49a.85.85,0,0,1,.06-.31.69.69,0,0,1,.2-.3l2.63-2.64c.22-.23.42-.44.59-.65a3.82,3.82,0,0,0,.44-.6,2.49,2.49,0,0,0,.26-.61,2,2,0,0,0,.1-.65,1.55,1.55,0,0,0-.09-.55,1.11,1.11,0,0,0-.26-.4,1,1,0,0,0-.39-.24,1.46,1.46,0,0,0-.52-.08,1.53,1.53,0,0,0-.49.07,1.39,1.39,0,0,0-.4.21,1.47,1.47,0,0,0-.29.32,1.38,1.38,0,0,0-.18.39.65.65,0,0,1-.27.37.73.73,0,0,1-.46,0l-.78-.14a3.24,3.24,0,0,1,.34-1.09,2.67,2.67,0,0,1,.65-.79,2.58,2.58,0,0,1,.88-.47,3.49,3.49,0,0,1,1.08-.16,3.21,3.21,0,0,1,1.1.18,2.25,2.25,0,0,1,.85.5,2.23,2.23,0,0,1,.56.78,2.53,2.53,0,0,1,.19,1,2.56,2.56,0,0,1-.14.89,3.51,3.51,0,0,1-.38.78,4.58,4.58,0,0,1-.55.72c-.21.23-.43.47-.67.71l-2,2a5.59,5.59,0,0,1,.56-.12,3.27,3.27,0,0,1,.53,0Zm7,0a.54.54,0,0,1,.38.14.47.47,0,0,1,.14.35V229h-6v-.49a.85.85,0,0,1,.06-.31.69.69,0,0,1,.2-.3l2.64-2.64c.22-.23.41-.44.58-.65a3.27,3.27,0,0,0,.44-.6,2.49,2.49,0,0,0,.26-.61,2,2,0,0,0,.1-.65,1.55,1.55,0,0,0-.09-.55,1.11,1.11,0,0,0-.26-.4,1,1,0,0,0-.39-.24,1.46,1.46,0,0,0-.52-.08,1.53,1.53,0,0,0-.49.07,1.39,1.39,0,0,0-.4.21,1.47,1.47,0,0,0-.29.32,1.38,1.38,0,0,0-.18.39.69.69,0,0,1-.26.37.77.77,0,0,1-.47,0l-.78-.14a3.24,3.24,0,0,1,.34-1.09,2.67,2.67,0,0,1,.65-.79,2.53,2.53,0,0,1,.89-.47,3.38,3.38,0,0,1,1.07-.16,3.17,3.17,0,0,1,1.1.18,2.3,2.3,0,0,1,.86.5,2.2,2.2,0,0,1,.55.78,2.53,2.53,0,0,1,.2,1,2.56,2.56,0,0,1-.15.89,3.51,3.51,0,0,1-.38.78,4.58,4.58,0,0,1-.55.72l-.66.71-2,2a5.59,5.59,0,0,1,.56-.12,3.27,3.27,0,0,1,.53,0Z" style="fill:#1a4373"/><g style="clip-path:url(#clip-path-6)"><path d="M302.51,165.52l2.75-2.82.3-3.94,2.82,2.76,3.94.3-2.76,2.82-.3,3.94-2.82-2.76Z" style="fill:#ffa600"/><rect x="354.49" y="132.99" width="5.39" height="5.39" rx="1.16" transform="translate(-19.58 199.29) rotate(-30.38)" style="fill:#1e88e5"/><path d="M330.68,127.6a3.28,3.28,0,0,0-4.48,1.2l-1.09,1.89-7.74-4.46a2,2,0,0,0-2.73.73L303,147.16a2,2,0,0,0,.73,2.74l7.74,4.47,1.09-1.9a3.28,3.28,0,1,1,5.68,3.28l-1.09,1.9,6.79,3.92a2,2,0,0,0,2.74-.74l3.73-6.46-2.54-1.46a4,4,0,0,1-1.47-5.48l.75-1.29a4,4,0,0,1,5.47-1.46l2.54,1.46,3.18-5.51a2,2,0,0,0-.73-2.74L330.79,134l1.09-1.89A3.27,3.27,0,0,0,330.68,127.6Z" style="fill:#1fb767;fill-rule:evenodd"/><path d="M329.22,152a3.28,3.28,0,1,1,3.28-5.68l1.89,1.1,3.92-6.79a2,2,0,0,1,2.74-.74l6.79,3.92-1.1,1.9a3.28,3.28,0,0,0,5.69,3.28l1.09-1.9,7.74,4.47a2,2,0,0,1,.73,2.74l-3.92,6.78-1.9-1.09a3.28,3.28,0,1,0-3.28,5.68l1.9,1.1-4.47,7.73a2,2,0,0,1-2.73.74l-7.74-4.47-1.09,1.89a3.28,3.28,0,0,1-5.68-3.28l1.09-1.89-6.79-3.92a2,2,0,0,1-.73-2.74l4.46-7.73Z" style="fill:#001b3d;fill-rule:evenodd"/></g><path d="M294,196.43V208h-1.9v-7.47c0-.3,0-.62.05-1l-3.5,6.57a.8.8,0,0,1-.76.47h-.3a.82.82,0,0,1-.76-.47l-3.54-6.59c0,.17,0,.34,0,.52s0,.32,0,.47V208h-1.9V196.43h1.88l.18,0a.4.4,0,0,1,.15.1.78.78,0,0,1,.14.2l3.46,6.42a5.12,5.12,0,0,1,.25.53c.08.18.16.37.23.56.08-.2.15-.39.23-.57s.17-.37.26-.54l3.42-6.4a.77.77,0,0,1,.13-.2.65.65,0,0,1,.15-.1l.2,0H294Zm6.4,8.07a8.86,8.86,0,0,0-1.44.15,4,4,0,0,0-.94.27,1.21,1.21,0,0,0-.5.39.86.86,0,0,0-.15.49.84.84,0,0,0,.3.74,1.36,1.36,0,0,0,.81.23,2.26,2.26,0,0,0,1-.22,3.08,3.08,0,0,0,.87-.67Zm-4.53-3.56a4.86,4.86,0,0,1,3.41-1.3,3.3,3.3,0,0,1,1.29.24,2.69,2.69,0,0,1,1.55,1.66,3.74,3.74,0,0,1,.21,1.28V208h-.9a1,1,0,0,1-.43-.08.61.61,0,0,1-.24-.34l-.18-.6a6.35,6.35,0,0,1-.6.5,3.5,3.5,0,0,1-.62.35,2.93,2.93,0,0,1-.69.22,3.94,3.94,0,0,1-.8.08,3.32,3.32,0,0,1-1-.14,2.09,2.09,0,0,1-.76-.42,1.85,1.85,0,0,1-.49-.7,2.4,2.4,0,0,1-.18-1,2.16,2.16,0,0,1,.1-.61,1.85,1.85,0,0,1,.34-.59,2.54,2.54,0,0,1,.62-.53,3.58,3.58,0,0,1,.92-.43,6.53,6.53,0,0,1,1.28-.3,11.32,11.32,0,0,1,1.66-.14v-.48a1.81,1.81,0,0,0-.35-1.22,1.29,1.29,0,0,0-1-.4,2.57,2.57,0,0,0-.8.11,3.13,3.13,0,0,0-.55.26l-.44.25a.89.89,0,0,1-.43.11.56.56,0,0,1-.35-.11.94.94,0,0,1-.24-.25Zm10.95,7.19a2.17,2.17,0,0,1-1.65-.6,2.35,2.35,0,0,1-.57-1.67v-4.59h-.84a.36.36,0,0,1-.27-.1.39.39,0,0,1-.11-.31v-.79l1.32-.21.41-2.24a.48.48,0,0,1,.15-.25.46.46,0,0,1,.29-.09h1v2.58h2.19v1.41h-2.19v4.45a.9.9,0,0,0,.18.6.68.68,0,0,0,.52.22,1.21,1.21,0,0,0,.3,0l.22-.1.17-.09a.27.27,0,0,1,.14-.05.25.25,0,0,1,.15.05l.12.13.59,1a3,3,0,0,1-1,.54A3.53,3.53,0,0,1,306.81,208.13Zm9-6.6a.94.94,0,0,1-.18.17.33.33,0,0,1-.24.07.52.52,0,0,1-.29-.09l-.35-.21a2.16,2.16,0,0,0-1.16-.3,2,2,0,0,0-.91.19,1.62,1.62,0,0,0-.65.54,2.56,2.56,0,0,0-.39.85,4.81,4.81,0,0,0-.13,1.13,4.58,4.58,0,0,0,.14,1.17,2.55,2.55,0,0,0,.41.86,1.72,1.72,0,0,0,.64.53,1.93,1.93,0,0,0,.85.18,2.05,2.05,0,0,0,.76-.12,2.78,2.78,0,0,0,.49-.25l.35-.26a.52.52,0,0,1,.33-.12.39.39,0,0,1,.36.19l.57.72a3.73,3.73,0,0,1-1.51,1.06,4.82,4.82,0,0,1-.85.22,6.33,6.33,0,0,1-.86.06,3.66,3.66,0,0,1-1.44-.28,3.43,3.43,0,0,1-1.17-.83,4,4,0,0,1-.8-1.33,5.61,5.61,0,0,1,0-3.47,3.75,3.75,0,0,1,.76-1.34,3.65,3.65,0,0,1,1.25-.89,4.38,4.38,0,0,1,1.71-.32,4,4,0,0,1,1.61.3,3.91,3.91,0,0,1,1.25.85Zm3.81-.86a4.66,4.66,0,0,1,1.06-.73,3.19,3.19,0,0,1,1.35-.28,2.86,2.86,0,0,1,1.2.24,2.19,2.19,0,0,1,.86.64,2.8,2.8,0,0,1,.53,1,4.17,4.17,0,0,1,.18,1.26V208h-2v-5.22a1.73,1.73,0,0,0-.35-1.16,1.28,1.28,0,0,0-1.05-.42,2.12,2.12,0,0,0-1,.23,3.82,3.82,0,0,0-.85.63V208h-2V196.11h2Zm7,1.67h4.14V204h-4.14Zm18.89-5.91V208h-1.9v-7.47a8.41,8.41,0,0,1,.05-1l-3.5,6.57a.81.81,0,0,1-.76.47h-.3a.81.81,0,0,1-.76-.47l-3.54-6.59c0,.17,0,.34,0,.52s0,.32,0,.47V208H333V196.43h1.87l.19,0a.4.4,0,0,1,.15.1.77.77,0,0,1,.13.2l3.47,6.42c.09.17.17.35.25.53s.15.37.23.56c.07-.2.15-.39.23-.57s.17-.37.26-.54l3.41-6.4a1.15,1.15,0,0,1,.14-.2.65.65,0,0,1,.15-.1l.19,0h1.88Zm6.4,8.07a8.86,8.86,0,0,0-1.44.15,4,4,0,0,0-.94.27,1.21,1.21,0,0,0-.5.39.87.87,0,0,0-.16.49.85.85,0,0,0,.31.74,1.36,1.36,0,0,0,.81.23,2.32,2.32,0,0,0,1.05-.22,3.39,3.39,0,0,0,.87-.67Zm-4.53-3.56a4.84,4.84,0,0,1,3.41-1.3,3.3,3.3,0,0,1,1.29.24,2.79,2.79,0,0,1,1,.66,2.76,2.76,0,0,1,.59,1,3.74,3.74,0,0,1,.2,1.28V208H353a1,1,0,0,1-.43-.08.61.61,0,0,1-.24-.34l-.18-.6a6.41,6.41,0,0,1-.61.5,3.1,3.1,0,0,1-.61.35,3.26,3.26,0,0,1-.69.22,3.94,3.94,0,0,1-.8.08,3.22,3.22,0,0,1-1-.14,2,2,0,0,1-.76-.42,2,2,0,0,1-.5-.7,2.59,2.59,0,0,1-.17-1,1.86,1.86,0,0,1,.1-.61,1.68,1.68,0,0,1,.34-.59,2.68,2.68,0,0,1,.61-.53,3.75,3.75,0,0,1,.92-.43,6.89,6.89,0,0,1,1.28-.3,11.47,11.47,0,0,1,1.67-.14v-.48a1.76,1.76,0,0,0-.36-1.22,1.25,1.25,0,0,0-1-.4,2.57,2.57,0,0,0-.8.11,3.13,3.13,0,0,0-.55.26l-.44.25a.89.89,0,0,1-.43.11.61.61,0,0,1-.36-.11,1.09,1.09,0,0,1-.23-.25Zm10.29-4.83v6.81h.37a.83.83,0,0,0,.31,0,.65.65,0,0,0,.24-.21l2-2.52a1,1,0,0,1,.28-.26.83.83,0,0,1,.41-.09h1.81l-2.55,3.05a2.19,2.19,0,0,1-.6.55,1.35,1.35,0,0,1,.3.28,3.18,3.18,0,0,1,.26.35l2.73,4h-1.78a1,1,0,0,1-.4-.07.63.63,0,0,1-.28-.28l-2.1-3.11a.49.49,0,0,0-.23-.24.84.84,0,0,0-.36-.06h-.45V208h-2V196.11Zm8.62,3.68V208h-2v-8.21Zm.27-2.39a1.12,1.12,0,0,1-.1.48,1.21,1.21,0,0,1-.28.39,1.23,1.23,0,0,1-.4.27,1.21,1.21,0,0,1-.5.1,1.12,1.12,0,0,1-.48-.1,1.3,1.3,0,0,1-.67-.66,1.28,1.28,0,0,1-.09-.48,1.39,1.39,0,0,1,.09-.5,1.56,1.56,0,0,1,.27-.4,1.31,1.31,0,0,1,.4-.26,1.12,1.12,0,0,1,.48-.1,1.31,1.31,0,0,1,.9.36,1.38,1.38,0,0,1,.28.4A1.21,1.21,0,0,1,366.59,197.4Zm3.59,3.4a5.53,5.53,0,0,1,.52-.46,3.58,3.58,0,0,1,.59-.36,2.86,2.86,0,0,1,.66-.23,3.13,3.13,0,0,1,.77-.09,2.78,2.78,0,0,1,1.19.24,2.05,2.05,0,0,1,.86.64,2.51,2.51,0,0,1,.53,1,3.87,3.87,0,0,1,.19,1.26V208h-2v-5.22a1.73,1.73,0,0,0-.34-1.16,1.28,1.28,0,0,0-1.05-.42,2.12,2.12,0,0,0-1,.23,3.82,3.82,0,0,0-.85.63V208h-2v-8.21h1.21a.49.49,0,0,1,.51.36Zm10.19,2.9a2,2,0,0,0,.64-.1,1.15,1.15,0,0,0,.44-.28,1.07,1.07,0,0,0,.28-.42,1.63,1.63,0,0,0,.09-.55,1.27,1.27,0,0,0-.37-1,1.47,1.47,0,0,0-1.08-.36,1.52,1.52,0,0,0-1.1.36,1.3,1.3,0,0,0-.36,1,1.61,1.61,0,0,0,.09.54,1.21,1.21,0,0,0,.27.43,1.32,1.32,0,0,0,.46.28A2,2,0,0,0,380.37,203.7Zm2.23,4.67a.53.53,0,0,0-.15-.39.93.93,0,0,0-.39-.24,2.28,2.28,0,0,0-.58-.12c-.22,0-.46-.05-.71-.06l-.76,0c-.27,0-.52,0-.77-.06a1.8,1.8,0,0,0-.54.43.88.88,0,0,0-.2.57.77.77,0,0,0,.11.4.9.9,0,0,0,.34.33,2.14,2.14,0,0,0,.62.21,4.69,4.69,0,0,0,.92.08,4.38,4.38,0,0,0,.95-.09,2.22,2.22,0,0,0,.66-.23,1,1,0,0,0,.38-.35A.83.83,0,0,0,382.6,208.37Zm2-8.3v.74c0,.23-.15.38-.43.43l-.73.14a2.58,2.58,0,0,1-.08,2,2.46,2.46,0,0,1-.68.83,3.2,3.2,0,0,1-1,.54,4.26,4.26,0,0,1-1.26.18l-.47,0-.44-.07c-.25.16-.38.33-.38.52a.39.39,0,0,0,.22.37,1.86,1.86,0,0,0,.61.16c.25,0,.54.05.86.06l1,.05a7.44,7.44,0,0,1,1,.15,2.59,2.59,0,0,1,.86.31,1.62,1.62,0,0,1,.6.59,1.69,1.69,0,0,1,.23.95,2.23,2.23,0,0,1-.27,1.06,2.74,2.74,0,0,1-.77.91,4,4,0,0,1-1.25.64,5.4,5.4,0,0,1-1.68.25,6,6,0,0,1-1.62-.19,3.32,3.32,0,0,1-1.14-.48,1.92,1.92,0,0,1-.68-.68,1.67,1.67,0,0,1-.23-.82,1.4,1.4,0,0,1,.35-1,2.32,2.32,0,0,1,1-.62,1.43,1.43,0,0,1-.52-.45,1.27,1.27,0,0,1-.19-.74,1.19,1.19,0,0,1,.06-.37,1.66,1.66,0,0,1,.2-.4,2.25,2.25,0,0,1,.34-.36,2.39,2.39,0,0,1,.47-.31,2.59,2.59,0,0,1-1-.89,2.5,2.5,0,0,1-.35-1.32,2.42,2.42,0,0,1,.24-1.09,2.52,2.52,0,0,1,.68-.84,3.16,3.16,0,0,1,1-.54,4.56,4.56,0,0,1,1.31-.18,4,4,0,0,1,1,.11,3.31,3.31,0,0,1,.85.31Z" style="fill:#069550"/><path d="M302.74,224.66a6.86,6.86,0,0,1-.25,2,4,4,0,0,1-.67,1.38,2.71,2.71,0,0,1-1,.81,3,3,0,0,1-1.26.27,2.91,2.91,0,0,1-1.26-.27,2.79,2.79,0,0,1-1-.81,4.22,4.22,0,0,1-.66-1.38,7.25,7.25,0,0,1-.24-2,7.12,7.12,0,0,1,.24-2,4,4,0,0,1,.66-1.38,2.6,2.6,0,0,1,1-.81,2.91,2.91,0,0,1,1.26-.27,3,3,0,0,1,1.26.27,2.53,2.53,0,0,1,1,.81,3.86,3.86,0,0,1,.67,1.38A6.74,6.74,0,0,1,302.74,224.66Zm-1.53,0a7.43,7.43,0,0,0-.14-1.56,3.14,3.14,0,0,0-.37-1,1.22,1.22,0,0,0-.53-.51,1.38,1.38,0,0,0-.62-.15,1.35,1.35,0,0,0-.62.15,1.21,1.21,0,0,0-.52.51,2.91,2.91,0,0,0-.37,1,9.42,9.42,0,0,0,0,3.12,3.06,3.06,0,0,0,.37,1,1.33,1.33,0,0,0,.52.51,1.35,1.35,0,0,0,.62.15,1.38,1.38,0,0,0,.62-.15,1.35,1.35,0,0,0,.53-.51,3.31,3.31,0,0,0,.37-1A7.43,7.43,0,0,0,301.21,224.66Zm7.71,3a.52.52,0,0,1,.38.14.44.44,0,0,1,.15.35V229h-6v-.49a1.13,1.13,0,0,1,.06-.31.81.81,0,0,1,.21-.3l2.63-2.64c.22-.23.42-.44.59-.65a3.82,3.82,0,0,0,.44-.6,2.49,2.49,0,0,0,.26-.61,2,2,0,0,0,.1-.65,1.55,1.55,0,0,0-.09-.55,1.11,1.11,0,0,0-.26-.4,1,1,0,0,0-.39-.24,1.46,1.46,0,0,0-.52-.08,1.53,1.53,0,0,0-.49.07,1.39,1.39,0,0,0-.4.21,1.47,1.47,0,0,0-.29.32,1.38,1.38,0,0,0-.18.39.65.65,0,0,1-.27.37.75.75,0,0,1-.47,0l-.78-.14a3.25,3.25,0,0,1,.35-1.09,2.67,2.67,0,0,1,.65-.79,2.49,2.49,0,0,1,.88-.47,3.49,3.49,0,0,1,1.08-.16,3.21,3.21,0,0,1,1.1.18,2.25,2.25,0,0,1,.85.5,2.23,2.23,0,0,1,.56.78,2.53,2.53,0,0,1,.19,1,2.56,2.56,0,0,1-.14.89,3.51,3.51,0,0,1-.38.78,5.28,5.28,0,0,1-.55.72c-.21.23-.43.47-.67.71l-1.95,2a5.59,5.59,0,0,1,.56-.12,3.27,3.27,0,0,1,.53,0Zm9.15-1.9L317,222.84c-.05-.13-.1-.28-.16-.46l-.17-.57c-.05.21-.1.4-.16.58s-.11.33-.16.46l-1.05,2.87Zm2.85,3.28h-1.25a.53.53,0,0,1-.34-.1.68.68,0,0,1-.2-.27l-.65-1.77h-3.59l-.65,1.77a.56.56,0,0,1-.18.26.58.58,0,0,1-.35.11h-1.26l3.42-8.68h1.64Zm2.13-1.6a1.49,1.49,0,0,0,.55.44,1.75,1.75,0,0,0,.65.12,1.46,1.46,0,0,0,.6-.12,1.23,1.23,0,0,0,.46-.39,1.69,1.69,0,0,0,.29-.65,3.59,3.59,0,0,0,.11-.93,3.94,3.94,0,0,0-.09-.91,1.81,1.81,0,0,0-.25-.61.93.93,0,0,0-.4-.34,1.21,1.21,0,0,0-.52-.11,1.46,1.46,0,0,0-.78.2,2.56,2.56,0,0,0-.62.54Zm-.07-3.72a3.3,3.3,0,0,1,.85-.69,2.39,2.39,0,0,1,1.13-.26,2,2,0,0,1,1.64.82,2.94,2.94,0,0,1,.47,1,4.83,4.83,0,0,1,.17,1.33,4.35,4.35,0,0,1-.19,1.28,3.09,3.09,0,0,1-.53,1,2.39,2.39,0,0,1-1.93.92,2.13,2.13,0,0,1-.88-.16,2.06,2.06,0,0,1-.66-.44V231h-1.48v-8.17h.91a.37.37,0,0,1,.38.27Zm6.81.23a2.62,2.62,0,0,1,.68-.86,1.49,1.49,0,0,1,.94-.32,1.1,1.1,0,0,1,.68.19L332,224a.27.27,0,0,1-.09.15.24.24,0,0,1-.15,0l-.27,0-.34,0a1.19,1.19,0,0,0-.44.08.84.84,0,0,0-.35.21,1.24,1.24,0,0,0-.27.32,3,3,0,0,0-.22.44V229h-1.48v-6.16h.87a.45.45,0,0,1,.32.09.46.46,0,0,1,.12.29Zm4.61-1.07V229h-1.48v-6.16Zm.21-1.79a.9.9,0,0,1-.29.65.81.81,0,0,1-.3.21,1,1,0,0,1-.74,0,.86.86,0,0,1-.29-.21.84.84,0,0,1-.2-.29.86.86,0,0,1-.08-.36.91.91,0,0,1,.08-.37.79.79,0,0,1,.2-.3.84.84,0,0,1,.29-.2.9.9,0,0,1,.74,0,.79.79,0,0,1,.3.2.81.81,0,0,1,.21.3A.91.91,0,0,1,334.61,221.05Zm2.81-1V229h-1.49v-8.92Zm9.54,7.54a.52.52,0,0,1,.38.14.44.44,0,0,1,.15.35V229h-6v-.49a.85.85,0,0,1,.06-.31.81.81,0,0,1,.21-.3l2.63-2.64c.22-.23.42-.44.59-.65a3.82,3.82,0,0,0,.44-.6,3,3,0,0,0,.26-.61,2,2,0,0,0,.1-.65,1.55,1.55,0,0,0-.09-.55,1.11,1.11,0,0,0-.26-.4,1,1,0,0,0-.4-.24,1.37,1.37,0,0,0-.51-.08,1.53,1.53,0,0,0-.49.07,1.39,1.39,0,0,0-.4.21,1.26,1.26,0,0,0-.29.32,1.38,1.38,0,0,0-.18.39.65.65,0,0,1-.27.37.76.76,0,0,1-.47,0l-.78-.14a3.25,3.25,0,0,1,.35-1.09,2.52,2.52,0,0,1,1.53-1.26,3.49,3.49,0,0,1,1.08-.16,3.21,3.21,0,0,1,1.1.18,2.25,2.25,0,0,1,.85.5,2.09,2.09,0,0,1,.55.78,2.37,2.37,0,0,1,.2,1,2.81,2.81,0,0,1-.14.89,3.51,3.51,0,0,1-.38.78,5.28,5.28,0,0,1-.55.72l-.67.71-2,2a5.41,5.41,0,0,1,.55-.12,3.5,3.5,0,0,1,.54,0Zm7.74-3a6.86,6.86,0,0,1-.25,2,4,4,0,0,1-.67,1.38,2.71,2.71,0,0,1-1,.81,3,3,0,0,1-1.26.27,2.94,2.94,0,0,1-1.26-.27,2.79,2.79,0,0,1-1-.81,4.22,4.22,0,0,1-.66-1.38,7.25,7.25,0,0,1-.24-2,7.12,7.12,0,0,1,.24-2,4,4,0,0,1,.66-1.38,2.6,2.6,0,0,1,1-.81,2.94,2.94,0,0,1,1.26-.27,3,3,0,0,1,1.26.27,2.53,2.53,0,0,1,1,.81,3.86,3.86,0,0,1,.67,1.38A6.74,6.74,0,0,1,354.7,224.66Zm-1.53,0a7.43,7.43,0,0,0-.14-1.56,2.91,2.91,0,0,0-.37-1,1.22,1.22,0,0,0-.53-.51,1.36,1.36,0,0,0-1.24,0,1.21,1.21,0,0,0-.52.51,2.91,2.91,0,0,0-.37,1,9.42,9.42,0,0,0,0,3.12,3.06,3.06,0,0,0,.37,1,1.33,1.33,0,0,0,.52.51,1.36,1.36,0,0,0,1.24,0,1.35,1.35,0,0,0,.53-.51,3.06,3.06,0,0,0,.37-1A7.43,7.43,0,0,0,353.17,224.66Zm7.72,3a.5.5,0,0,1,.37.14.44.44,0,0,1,.15.35V229h-6v-.49a.85.85,0,0,1,.06-.31.69.69,0,0,1,.2-.3l2.63-2.64c.22-.23.42-.44.59-.65a3.82,3.82,0,0,0,.44-.6,2.49,2.49,0,0,0,.26-.61,2,2,0,0,0,.1-.65,1.55,1.55,0,0,0-.09-.55,1.11,1.11,0,0,0-.26-.4,1,1,0,0,0-.39-.24,1.46,1.46,0,0,0-.52-.08,1.53,1.53,0,0,0-.49.07,1.39,1.39,0,0,0-.4.21,1.47,1.47,0,0,0-.29.32,1.38,1.38,0,0,0-.18.39.65.65,0,0,1-.27.37.73.73,0,0,1-.46,0l-.78-.14a3.24,3.24,0,0,1,.34-1.09,2.67,2.67,0,0,1,.65-.79,2.58,2.58,0,0,1,.88-.47,3.49,3.49,0,0,1,1.08-.16,3.21,3.21,0,0,1,1.1.18,2.25,2.25,0,0,1,.85.5,2.23,2.23,0,0,1,.56.78,2.53,2.53,0,0,1,.19,1,2.56,2.56,0,0,1-.14.89,3.51,3.51,0,0,1-.38.78,4.58,4.58,0,0,1-.55.72c-.21.23-.43.47-.67.71l-1.95,2a5.59,5.59,0,0,1,.56-.12,3.27,3.27,0,0,1,.53,0Zm7,0a.54.54,0,0,1,.38.14.47.47,0,0,1,.14.35V229h-5.95v-.49a.85.85,0,0,1,.06-.31.69.69,0,0,1,.2-.3l2.64-2.64c.22-.23.41-.44.58-.65a3.27,3.27,0,0,0,.44-.6,2.53,2.53,0,0,0,.27-.61,2.32,2.32,0,0,0,.09-.65,1.55,1.55,0,0,0-.09-.55,1.11,1.11,0,0,0-.26-.4,1,1,0,0,0-.39-.24,1.46,1.46,0,0,0-.52-.08,1.57,1.57,0,0,0-.49.07,1.39,1.39,0,0,0-.4.21,1.47,1.47,0,0,0-.29.32,1.38,1.38,0,0,0-.18.39.69.69,0,0,1-.26.37.77.77,0,0,1-.47,0l-.78-.14a3,3,0,0,1,.35-1.09,2.5,2.5,0,0,1,.64-.79,2.53,2.53,0,0,1,.89-.47,3.38,3.38,0,0,1,1.07-.16,3.21,3.21,0,0,1,1.1.18,2.38,2.38,0,0,1,.86.5,2.34,2.34,0,0,1,.55.78,2.53,2.53,0,0,1,.2,1,2.56,2.56,0,0,1-.15.89,3.51,3.51,0,0,1-.38.78,4.58,4.58,0,0,1-.55.72c-.21.23-.43.47-.67.71l-2,2a5.59,5.59,0,0,1,.56-.12,3.27,3.27,0,0,1,.53,0Z" style="fill:#1a4373"/><circle cx="969.5" cy="180.5" r="91.5" style="fill:#fff"/><g style="clip-path:url(#clip-path-7)"><rect x="967.97" y="145.8" width="31.75" height="23.47" rx="4" transform="translate(379.88 950) rotate(-61.78)" style="fill:#1fb767"/><rect x="956.87" y="133.55" width="40.65" height="30.04" rx="4" transform="translate(617.05 1069.05) rotate(-77.28)" style="fill:#001b3d"/><circle cx="988.54" cy="138.46" r="2.65" style="fill:#b9c3d3"/><rect x="978.56" y="129.29" width="1.77" height="10.6" rx="0.88" transform="translate(632.45 1060.35) rotate(-77.28)" style="fill:#b9c3d3"/><rect x="977.07" y="131.84" width="1.77" height="12.07" rx="0.88" transform="translate(628.08 1061.45) rotate(-77.28)" style="fill:#1a4373"/><circle cx="985.81" cy="150.52" r="2.65" style="fill:#b9c3d3"/><rect x="975.84" y="141.36" width="1.77" height="10.6" rx="0.88" transform="translate(618.55 1067.1) rotate(-77.28)" style="fill:#b9c3d3"/><rect x="978.08" y="148.58" width="1.77" height="4.42" rx="0.88" transform="translate(616.27 1072.5) rotate(-77.28)" style="fill:#1a4373"/><path d="M986.14,162l-3,1.73a.42.42,0,0,1-.55-.12l-2-2.86a.35.35,0,0,1,.11-.51.43.43,0,0,1,.56.13l1.44,2.09.94-4.18a.39.39,0,0,1,.48-.27.4.4,0,0,1,.31.45l-1,4.17,2.2-1.26a.43.43,0,0,1,.56.12A.35.35,0,0,1,986.14,162Z" style="fill:#b9c3d3;fill-rule:evenodd"/><rect x="951.33" y="156.25" width="5.96" height="3.54" transform="translate(167.77 721.08) rotate(-45)" style="fill:#001b3d"/><rect x="939" y="162.14" width="16.5" height="5.89" rx="2" transform="translate(160.71 718.16) rotate(-45)" style="fill:#1fb767"/><circle cx="966.83" cy="145.5" r="12.14" transform="translate(180.29 726.27) rotate(-45)" style="fill:#001b3d"/><path d="M955.58,156.75a15.91,15.91,0,1,0,0-22.5A15.92,15.92,0,0,0,955.58,156.75Zm2.91-2.91a11.79,11.79,0,1,0,0-16.68A11.79,11.79,0,0,0,958.49,153.84Z" style="fill:#1fb767;fill-rule:evenodd"/><path d="M971.32,140a6.34,6.34,0,0,0-9,0" style="fill:none;stroke:#fff;stroke-linecap:round;stroke-width:2px"/><rect x="943.84" y="126.84" width="5.47" height="5.47" rx="1" transform="translate(22.82 373.43) rotate(-22.58)" style="fill:#ef5350"/><path d="M955.86,167.57l1.73,2.29,2.7,1L958,172.6l-1,2.69-1.73-2.3-2.69-1,2.29-1.73Z" style="fill:#ff9500"/></g><path d="M944,196.43V208h-1.9v-7.47c0-.3,0-.62.05-1l-3.5,6.57a.81.81,0,0,1-.76.47h-.3a.81.81,0,0,1-.76-.47l-3.54-6.59c0,.17,0,.34,0,.52s0,.32,0,.47V208h-1.9V196.43h1.87l.19,0a.4.4,0,0,1,.15.1,1.15,1.15,0,0,1,.14.2l3.46,6.42c.09.17.17.35.25.53s.16.37.23.56c.08-.2.15-.39.23-.57s.17-.37.26-.54l3.41-6.4a1.15,1.15,0,0,1,.14-.2.65.65,0,0,1,.15-.1l.2,0H944Zm5.65,3.23a4.33,4.33,0,0,1,1.65.3,3.61,3.61,0,0,1,2.11,2.17,5.46,5.46,0,0,1,0,3.51,3.75,3.75,0,0,1-.83,1.34,3.44,3.44,0,0,1-1.28.84,4.33,4.33,0,0,1-1.65.3,4.44,4.44,0,0,1-1.67-.3,3.56,3.56,0,0,1-1.29-.84,4,4,0,0,1-.83-1.34,5.64,5.64,0,0,1,0-3.51,3.81,3.81,0,0,1,.83-1.33,3.7,3.7,0,0,1,1.29-.84A4.44,4.44,0,0,1,949.61,199.66Zm0,6.94a1.73,1.73,0,0,0,1.51-.69,3.43,3.43,0,0,0,.5-2,3.49,3.49,0,0,0-.5-2,1.73,1.73,0,0,0-1.51-.69,1.78,1.78,0,0,0-1.55.7,3.46,3.46,0,0,0-.49,2,3.43,3.43,0,0,0,.49,2A1.79,1.79,0,0,0,949.61,206.6Zm7.4-5.8a5.53,5.53,0,0,1,.52-.46,3.58,3.58,0,0,1,.59-.36,2.71,2.71,0,0,1,.66-.23,3.07,3.07,0,0,1,.77-.09,2.81,2.81,0,0,1,1.19.24,2.12,2.12,0,0,1,.86.64,2.65,2.65,0,0,1,.53,1,4.16,4.16,0,0,1,.19,1.26V208h-2v-5.22a1.78,1.78,0,0,0-.34-1.16,1.28,1.28,0,0,0-1-.42,2.12,2.12,0,0,0-1,.23,3.82,3.82,0,0,0-.85.63V208h-2v-8.21h1.21a.49.49,0,0,1,.51.36Zm9.23-1V208h-2v-8.21Zm.28-2.39a1.13,1.13,0,0,1-.11.48,1.21,1.21,0,0,1-.28.39,1.13,1.13,0,0,1-.4.27,1.18,1.18,0,0,1-.5.1,1.12,1.12,0,0,1-.48-.1,1.3,1.3,0,0,1-.67-.66,1.28,1.28,0,0,1-.09-.48,1.39,1.39,0,0,1,.09-.5,1.56,1.56,0,0,1,.27-.4,1.31,1.31,0,0,1,.4-.26,1.12,1.12,0,0,1,.48-.1,1.18,1.18,0,0,1,.5.1,1.11,1.11,0,0,1,.4.26,1.38,1.38,0,0,1,.28.4A1.22,1.22,0,0,1,966.52,197.4ZM971,208.13a2.2,2.2,0,0,1-1.65-.6,2.39,2.39,0,0,1-.56-1.67v-4.59h-.84a.4.4,0,0,1-.28-.1.43.43,0,0,1-.11-.31v-.79l1.32-.21.42-2.24a.48.48,0,0,1,.15-.25.46.46,0,0,1,.29-.09h1v2.58H973v1.41h-2.2v4.45a.9.9,0,0,0,.19.6.68.68,0,0,0,.52.22,1.21,1.21,0,0,0,.3,0l.22-.1.17-.09a.24.24,0,0,1,.14-.05.2.2,0,0,1,.14.05.51.51,0,0,1,.12.13l.6,1a2.93,2.93,0,0,1-1,.54A3.48,3.48,0,0,1,971,208.13Zm6.79-8.47a4.42,4.42,0,0,1,1.66.3,3.75,3.75,0,0,1,1.28.84,3.65,3.65,0,0,1,.82,1.33,5.46,5.46,0,0,1,0,3.51,3.87,3.87,0,0,1-.82,1.34,3.61,3.61,0,0,1-1.28.84,4.42,4.42,0,0,1-1.66.3,4.47,4.47,0,0,1-1.67-.3,3.65,3.65,0,0,1-1.29-.84,3.87,3.87,0,0,1-.82-1.34,5.46,5.46,0,0,1,0-3.51,3.65,3.65,0,0,1,.82-1.33,3.79,3.79,0,0,1,1.29-.84A4.47,4.47,0,0,1,977.78,199.66Zm0,6.94a1.72,1.72,0,0,0,1.51-.69,3.43,3.43,0,0,0,.5-2,3.49,3.49,0,0,0-.5-2,1.72,1.72,0,0,0-1.51-.69,1.76,1.76,0,0,0-1.54.7,3.46,3.46,0,0,0-.5,2,3.43,3.43,0,0,0,.5,2A1.77,1.77,0,0,0,977.78,206.6Zm7.42-5.38a3.64,3.64,0,0,1,.91-1.16,2,2,0,0,1,1.25-.42,1.49,1.49,0,0,1,.91.25l-.13,1.48a.29.29,0,0,1-.32.26,2,2,0,0,1-.36,0,3.42,3.42,0,0,0-.45,0,1.55,1.55,0,0,0-.59.1,1.3,1.3,0,0,0-.46.28,2,2,0,0,0-.36.43,5.22,5.22,0,0,0-.29.58V208h-2v-8.21h1.15a.65.65,0,0,1,.43.11.65.65,0,0,1,.16.39Zm6.15-1.43V208h-2v-8.21Zm.27-2.39a1.12,1.12,0,0,1-.1.48,1.21,1.21,0,0,1-.28.39,1.23,1.23,0,0,1-.4.27,1.21,1.21,0,0,1-.5.1,1.12,1.12,0,0,1-.48-.1,1.3,1.3,0,0,1-.67-.66,1.28,1.28,0,0,1-.09-.48,1.39,1.39,0,0,1,.09-.5,1.56,1.56,0,0,1,.27-.4,1.31,1.31,0,0,1,.4-.26,1.12,1.12,0,0,1,.48-.1,1.31,1.31,0,0,1,.9.36,1.38,1.38,0,0,1,.28.4A1.21,1.21,0,0,1,991.62,197.4Zm3.6,3.4a4.41,4.41,0,0,1,.51-.46,4.05,4.05,0,0,1,.59-.36,3,3,0,0,1,.66-.23,3.13,3.13,0,0,1,.77-.09,2.78,2.78,0,0,1,1.19.24,2.15,2.15,0,0,1,.87.64,2.63,2.63,0,0,1,.52,1,3.87,3.87,0,0,1,.19,1.26V208h-2v-5.22a1.73,1.73,0,0,0-.34-1.16,1.28,1.28,0,0,0-1.05-.42,2.12,2.12,0,0,0-1,.23,3.82,3.82,0,0,0-.85.63V208h-2v-8.21h1.21a.49.49,0,0,1,.5.36Zm10.18,2.9a2,2,0,0,0,.64-.1,1.28,1.28,0,0,0,.45-.28,1.17,1.17,0,0,0,.27-.42,1.63,1.63,0,0,0,.09-.55,1.3,1.3,0,0,0-.36-1,1.49,1.49,0,0,0-1.09-.36,1.52,1.52,0,0,0-1.1.36,1.3,1.3,0,0,0-.36,1,1.61,1.61,0,0,0,.09.54,1.21,1.21,0,0,0,.27.43,1.32,1.32,0,0,0,.46.28A2,2,0,0,0,1005.4,203.7Zm2.23,4.67a.56.56,0,0,0-.14-.39,1,1,0,0,0-.4-.24,2.28,2.28,0,0,0-.58-.12c-.22,0-.45-.05-.7-.06l-.77,0c-.26,0-.52,0-.77-.06a1.8,1.8,0,0,0-.54.43.88.88,0,0,0-.2.57.77.77,0,0,0,.11.4.9.9,0,0,0,.34.33,2.14,2.14,0,0,0,.62.21,4.77,4.77,0,0,0,.92.08,4.38,4.38,0,0,0,1-.09,2,2,0,0,0,.66-.23,1,1,0,0,0,.38-.35A.83.83,0,0,0,1007.63,208.37Zm2-8.3v.74c0,.23-.14.38-.43.43l-.73.14a2.58,2.58,0,0,1-.08,2,2.56,2.56,0,0,1-.67.83,3.25,3.25,0,0,1-1,.54,4.26,4.26,0,0,1-1.26.18l-.47,0-.44-.07c-.25.16-.38.33-.38.52a.39.39,0,0,0,.22.37,1.86,1.86,0,0,0,.61.16c.25,0,.54.05.86.06l1,.05a7.86,7.86,0,0,1,1,.15,2.53,2.53,0,0,1,.85.31,1.62,1.62,0,0,1,.6.59,1.69,1.69,0,0,1,.23.95,2.23,2.23,0,0,1-.27,1.06,2.74,2.74,0,0,1-.77.91,4,4,0,0,1-1.25.64,5.4,5.4,0,0,1-1.68.25,6,6,0,0,1-1.62-.19,3.32,3.32,0,0,1-1.14-.48,1.92,1.92,0,0,1-.68-.68,1.67,1.67,0,0,1-.23-.82,1.4,1.4,0,0,1,.35-1,2.32,2.32,0,0,1,1-.62,1.43,1.43,0,0,1-.52-.45,1.27,1.27,0,0,1-.19-.74,1.19,1.19,0,0,1,.06-.37,1.66,1.66,0,0,1,.2-.4,2.25,2.25,0,0,1,.34-.36,2.39,2.39,0,0,1,.47-.31,2.59,2.59,0,0,1-1-.89,2.5,2.5,0,0,1-.35-1.32,2.42,2.42,0,0,1,.24-1.09,2.52,2.52,0,0,1,.68-.84,3.26,3.26,0,0,1,1-.54,4.56,4.56,0,0,1,1.31-.18,4,4,0,0,1,1,.11,3.31,3.31,0,0,1,.85.31Z" style="fill:#008444"/><path d="M940.24,224.66a6.86,6.86,0,0,1-.25,2,4,4,0,0,1-.67,1.38,2.71,2.71,0,0,1-1,.81,3,3,0,0,1-1.26.27,2.91,2.91,0,0,1-1.26-.27,2.79,2.79,0,0,1-1-.81,4.22,4.22,0,0,1-.66-1.38,7.25,7.25,0,0,1-.24-2,7.12,7.12,0,0,1,.24-2,4,4,0,0,1,.66-1.38,2.6,2.6,0,0,1,1-.81,2.91,2.91,0,0,1,1.26-.27,3,3,0,0,1,1.26.27,2.53,2.53,0,0,1,1,.81,3.86,3.86,0,0,1,.67,1.38A6.74,6.74,0,0,1,940.24,224.66Zm-1.53,0a7.43,7.43,0,0,0-.14-1.56,3.14,3.14,0,0,0-.37-1,1.22,1.22,0,0,0-.53-.51,1.38,1.38,0,0,0-.62-.15,1.35,1.35,0,0,0-.62.15,1.21,1.21,0,0,0-.52.51,2.91,2.91,0,0,0-.37,1,9.43,9.43,0,0,0,0,3.12,3.06,3.06,0,0,0,.37,1,1.33,1.33,0,0,0,.52.51,1.35,1.35,0,0,0,.62.15,1.38,1.38,0,0,0,.62-.15,1.35,1.35,0,0,0,.53-.51,3.31,3.31,0,0,0,.37-1A7.43,7.43,0,0,0,938.71,224.66Zm7.71,3a.51.51,0,0,1,.38.14.44.44,0,0,1,.15.35V229h-6v-.49a1.13,1.13,0,0,1,.06-.31.81.81,0,0,1,.21-.3l2.63-2.64c.22-.23.42-.44.59-.65a3.82,3.82,0,0,0,.44-.6,3,3,0,0,0,.26-.61,2,2,0,0,0,.1-.65,1.55,1.55,0,0,0-.09-.55,1.11,1.11,0,0,0-.26-.4,1,1,0,0,0-.4-.24,1.37,1.37,0,0,0-.51-.08,1.53,1.53,0,0,0-.49.07,1.39,1.39,0,0,0-.4.21,1.47,1.47,0,0,0-.29.32,1.38,1.38,0,0,0-.18.39.65.65,0,0,1-.27.37.76.76,0,0,1-.47,0l-.77-.14a3.24,3.24,0,0,1,.34-1.09,2.53,2.53,0,0,1,.65-.79,2.58,2.58,0,0,1,.88-.47,3.49,3.49,0,0,1,1.08-.16,3.21,3.21,0,0,1,1.1.18,2.25,2.25,0,0,1,.85.5,2.09,2.09,0,0,1,.55.78,2.37,2.37,0,0,1,.2,1,2.56,2.56,0,0,1-.14.89,3.51,3.51,0,0,1-.38.78,5.28,5.28,0,0,1-.55.72l-.67.71-1.95,2a5.41,5.41,0,0,1,.55-.12,3.5,3.5,0,0,1,.54,0Zm9.15-1.9-1.06-2.88c0-.13-.1-.28-.16-.46l-.17-.57c0,.21-.1.4-.16.58s-.11.33-.16.46l-1.05,2.87Zm2.85,3.28h-1.25a.53.53,0,0,1-.34-.1.68.68,0,0,1-.2-.27l-.65-1.77h-3.59l-.65,1.77a.56.56,0,0,1-.18.26.58.58,0,0,1-.35.11H950l3.42-8.68H955Zm2.13-1.6a1.49,1.49,0,0,0,.55.44,1.75,1.75,0,0,0,.65.12,1.46,1.46,0,0,0,.6-.12,1.23,1.23,0,0,0,.46-.39,1.69,1.69,0,0,0,.29-.65,3.59,3.59,0,0,0,.11-.93,3.94,3.94,0,0,0-.09-.91,1.81,1.81,0,0,0-.25-.61.93.93,0,0,0-.4-.34,1.21,1.21,0,0,0-.52-.11,1.46,1.46,0,0,0-.78.2,2.56,2.56,0,0,0-.62.54Zm-.07-3.72a3.3,3.3,0,0,1,.85-.69,2.39,2.39,0,0,1,1.13-.26,2,2,0,0,1,1.64.82,2.94,2.94,0,0,1,.47,1,4.83,4.83,0,0,1,.17,1.33,4.35,4.35,0,0,1-.19,1.28,3.09,3.09,0,0,1-.53,1,2.39,2.39,0,0,1-1.93.92,2.13,2.13,0,0,1-.88-.16,2.06,2.06,0,0,1-.66-.44V231h-1.48v-8.17H960a.37.37,0,0,1,.38.27Zm6.81.23a2.62,2.62,0,0,1,.68-.86,1.49,1.49,0,0,1,.94-.32,1.1,1.1,0,0,1,.68.19L969.5,224a.27.27,0,0,1-.09.15.24.24,0,0,1-.15,0l-.27,0-.34,0a1.19,1.19,0,0,0-.44.08.84.84,0,0,0-.35.21,1.24,1.24,0,0,0-.27.32,3,3,0,0,0-.22.44V229h-1.48v-6.16h.87a.45.45,0,0,1,.32.09.46.46,0,0,1,.12.29Zm4.62-1.07V229h-1.49v-6.16Zm.2-1.79a.9.9,0,0,1-.29.65.81.81,0,0,1-.3.21.9.9,0,0,1-.37.07.94.94,0,0,1-.37-.07.86.86,0,0,1-.29-.21,1.27,1.27,0,0,1-.21-.29,1,1,0,0,1-.07-.36,1.11,1.11,0,0,1,.07-.37,1.14,1.14,0,0,1,.21-.3.84.84,0,0,1,.29-.2,1,1,0,0,1,.37-.08.91.91,0,0,1,.37.08.79.79,0,0,1,.3.2.81.81,0,0,1,.21.3A.91.91,0,0,1,972.11,221.05Zm2.81-1V229h-1.49v-8.92Zm9.54,7.54a.52.52,0,0,1,.38.14.44.44,0,0,1,.15.35V229h-6v-.49a.85.85,0,0,1,.06-.31.81.81,0,0,1,.21-.3l2.63-2.64c.22-.23.42-.44.59-.65a3.82,3.82,0,0,0,.44-.6,3,3,0,0,0,.26-.61,2,2,0,0,0,.1-.65,1.55,1.55,0,0,0-.09-.55,1.11,1.11,0,0,0-.26-.4,1,1,0,0,0-.4-.24,1.37,1.37,0,0,0-.51-.08,1.53,1.53,0,0,0-.49.07,1.39,1.39,0,0,0-.4.21,1.26,1.26,0,0,0-.29.32,1.38,1.38,0,0,0-.18.39.65.65,0,0,1-.27.37.76.76,0,0,1-.47,0l-.78-.14a3.25,3.25,0,0,1,.35-1.09,2.52,2.52,0,0,1,1.53-1.26,3.49,3.49,0,0,1,1.08-.16,3.21,3.21,0,0,1,1.1.18,2.25,2.25,0,0,1,.85.5,2.09,2.09,0,0,1,.55.78,2.37,2.37,0,0,1,.2,1,2.81,2.81,0,0,1-.14.89,3.51,3.51,0,0,1-.38.78,5.28,5.28,0,0,1-.55.72l-.67.71-2,2a5.41,5.41,0,0,1,.55-.12,3.5,3.5,0,0,1,.54,0Zm7.74-3a6.86,6.86,0,0,1-.25,2,4,4,0,0,1-.67,1.38,2.71,2.71,0,0,1-1,.81,3,3,0,0,1-1.26.27,2.94,2.94,0,0,1-1.26-.27,2.79,2.79,0,0,1-1-.81,4.22,4.22,0,0,1-.66-1.38,7.25,7.25,0,0,1-.24-2,7.12,7.12,0,0,1,.24-2,4,4,0,0,1,.66-1.38,2.6,2.6,0,0,1,1-.81,2.94,2.94,0,0,1,1.26-.27,3,3,0,0,1,1.26.27,2.53,2.53,0,0,1,1,.81,3.86,3.86,0,0,1,.67,1.38A6.74,6.74,0,0,1,992.2,224.66Zm-1.53,0a7.43,7.43,0,0,0-.14-1.56,2.91,2.91,0,0,0-.37-1,1.22,1.22,0,0,0-.53-.51,1.38,1.38,0,0,0-.62-.15,1.35,1.35,0,0,0-.62.15,1.21,1.21,0,0,0-.52.51,3.14,3.14,0,0,0-.37,1,9.43,9.43,0,0,0,0,3.12,3.31,3.31,0,0,0,.37,1,1.33,1.33,0,0,0,.52.51,1.35,1.35,0,0,0,.62.15,1.38,1.38,0,0,0,.62-.15,1.35,1.35,0,0,0,.53-.51,3.06,3.06,0,0,0,.37-1A7.43,7.43,0,0,0,990.67,224.66Zm7.72,3a.5.5,0,0,1,.37.14.44.44,0,0,1,.15.35V229H993v-.49a.85.85,0,0,1,.06-.31.69.69,0,0,1,.2-.3l2.63-2.64c.22-.23.42-.44.59-.65a3.82,3.82,0,0,0,.44-.6,2.49,2.49,0,0,0,.26-.61,2,2,0,0,0,.1-.65,1.55,1.55,0,0,0-.09-.55,1.11,1.11,0,0,0-.26-.4,1,1,0,0,0-.39-.24,1.46,1.46,0,0,0-.52-.08,1.53,1.53,0,0,0-.49.07,1.39,1.39,0,0,0-.4.21,1.47,1.47,0,0,0-.29.32,1.38,1.38,0,0,0-.18.39.65.65,0,0,1-.27.37.73.73,0,0,1-.46,0l-.78-.14a3.24,3.24,0,0,1,.34-1.09,2.67,2.67,0,0,1,.65-.79,2.58,2.58,0,0,1,.88-.47,3.49,3.49,0,0,1,1.08-.16,3.21,3.21,0,0,1,1.1.18,2.25,2.25,0,0,1,.85.5,2.23,2.23,0,0,1,.56.78,2.53,2.53,0,0,1,.19,1,2.56,2.56,0,0,1-.14.89,3.51,3.51,0,0,1-.38.78,4.58,4.58,0,0,1-.55.72c-.21.23-.43.47-.67.71l-1.95,2a5.59,5.59,0,0,1,.56-.12,3.27,3.27,0,0,1,.53,0Zm7,0a.5.5,0,0,1,.37.14.44.44,0,0,1,.15.35V229h-6v-.49a.85.85,0,0,1,.06-.31.69.69,0,0,1,.2-.3l2.63-2.64c.22-.23.42-.44.59-.65a3.82,3.82,0,0,0,.44-.6,2.49,2.49,0,0,0,.26-.61,2,2,0,0,0,.1-.65,1.55,1.55,0,0,0-.09-.55,1.11,1.11,0,0,0-.26-.4,1,1,0,0,0-.39-.24,1.46,1.46,0,0,0-.52-.08,1.53,1.53,0,0,0-.49.07,1.39,1.39,0,0,0-.4.21,1.47,1.47,0,0,0-.29.32,1.38,1.38,0,0,0-.18.39.65.65,0,0,1-.27.37.73.73,0,0,1-.46,0l-.78-.14a3.24,3.24,0,0,1,.34-1.09,2.67,2.67,0,0,1,.65-.79,2.58,2.58,0,0,1,.88-.47,3.49,3.49,0,0,1,1.08-.16,3.21,3.21,0,0,1,1.1.18,2.25,2.25,0,0,1,.85.5,2.23,2.23,0,0,1,.56.78,2.53,2.53,0,0,1,.19,1,2.56,2.56,0,0,1-.14.89,3.51,3.51,0,0,1-.38.78,4.58,4.58,0,0,1-.55.72c-.21.23-.43.47-.67.71l-2,2a5.59,5.59,0,0,1,.56-.12,3.27,3.27,0,0,1,.53,0Z" style="fill:#1a4373"/><path d="M120.06,328.59v4.05a14.64,14.64,0,0,1-.56,4.33,7.91,7.91,0,0,1-1.59,3,6.37,6.37,0,0,1-2.47,1.77,8.63,8.63,0,0,1-3.16.56,9,9,0,0,1-2.59-.36,6.56,6.56,0,0,1-2.17-1.11,6.89,6.89,0,0,1-1.64-1.9,9.48,9.48,0,0,1-1.07-2.72,16.18,16.18,0,0,1-.36-3.58v-4.05a15.33,15.33,0,0,1,.55-4.34,8.11,8.11,0,0,1,1.61-3,6.47,6.47,0,0,1,2.47-1.75,8.51,8.51,0,0,1,3.17-.56,8.84,8.84,0,0,1,2.58.36,6.66,6.66,0,0,1,2.17,1.11,6.55,6.55,0,0,1,1.64,1.89,9.08,9.08,0,0,1,1,2.72A15.36,15.36,0,0,1,120.06,328.59Zm-4.87,4.66V328a13.19,13.19,0,0,0-.14-2,6.35,6.35,0,0,0-.38-1.48,2.8,2.8,0,0,0-.59-1,2.13,2.13,0,0,0-.83-.54,2.51,2.51,0,0,0-1-.19A2.59,2.59,0,0,0,111,323a2.33,2.33,0,0,0-.93.89,4.7,4.7,0,0,0-.57,1.61,13.1,13.1,0,0,0-.19,2.45v5.3a15.4,15.4,0,0,0,.12,2.05,8.17,8.17,0,0,0,.38,1.5,3.46,3.46,0,0,0,.61,1,2.06,2.06,0,0,0,.83.54,2.79,2.79,0,0,0,1,.18,2.64,2.64,0,0,0,1.22-.27,2.41,2.41,0,0,0,.91-.89,4.62,4.62,0,0,0,.57-1.64A12.43,12.43,0,0,0,115.19,333.25Zm19.11-14V342h-4.89V324.8l-5.29,1.61v-3.79l9.69-3.39Z" style="fill:#16a75c"/><path d="M331.06,27.59v4.05A14.64,14.64,0,0,1,330.5,36a7.91,7.91,0,0,1-1.59,3,6.37,6.37,0,0,1-2.47,1.77,8.63,8.63,0,0,1-3.16.56,9,9,0,0,1-2.59-.36,6.56,6.56,0,0,1-2.17-1.11,6.89,6.89,0,0,1-1.64-1.9,9.48,9.48,0,0,1-1.07-2.72,16.18,16.18,0,0,1-.36-3.58V27.59a15.33,15.33,0,0,1,.55-4.34,8.11,8.11,0,0,1,1.61-3,6.47,6.47,0,0,1,2.47-1.75,8.51,8.51,0,0,1,3.17-.56,8.84,8.84,0,0,1,2.58.36A6.66,6.66,0,0,1,328,19.41a6.55,6.55,0,0,1,1.64,1.89A9.08,9.08,0,0,1,330.69,24,15.36,15.36,0,0,1,331.06,27.59Zm-4.87,4.66V27a13.19,13.19,0,0,0-.14-2,6.35,6.35,0,0,0-.38-1.48,2.8,2.8,0,0,0-.59-1,2.13,2.13,0,0,0-.83-.54,2.51,2.51,0,0,0-1-.19A2.59,2.59,0,0,0,322,22a2.33,2.33,0,0,0-.93.89,4.7,4.7,0,0,0-.57,1.61,13.1,13.1,0,0,0-.19,2.45v5.3a15.4,15.4,0,0,0,.12,2,8.17,8.17,0,0,0,.38,1.5,3.26,3.26,0,0,0,.61,1,2.06,2.06,0,0,0,.83.54,2.79,2.79,0,0,0,1,.18,2.64,2.64,0,0,0,1.22-.27,2.41,2.41,0,0,0,.91-.89,4.62,4.62,0,0,0,.57-1.64A12.43,12.43,0,0,0,326.19,32.25Zm23.51,5V41H334V37.78L341.33,30A22.67,22.67,0,0,0,343,27.91a8.17,8.17,0,0,0,.91-1.64,4.13,4.13,0,0,0,.28-1.38,4,4,0,0,0-.33-1.72,2.39,2.39,0,0,0-.92-1.08,2.79,2.79,0,0,0-1.49-.37,2.71,2.71,0,0,0-1.61.48,3.07,3.07,0,0,0-1,1.35,4.83,4.83,0,0,0-.36,1.92h-4.9A7.39,7.39,0,0,1,337.31,19a8.39,8.39,0,0,1,4.21-1,9.8,9.8,0,0,1,4.14.78,5.66,5.66,0,0,1,2.53,2.24,7.22,7.22,0,0,1,.48,5.73,9.41,9.41,0,0,1-1.05,2.14A18.61,18.61,0,0,1,346,31c-.65.73-1.38,1.5-2.19,2.32l-3.44,3.9Z" style="fill:#16a75c"/><path d="M545.06,328.59v4.05a14.64,14.64,0,0,1-.56,4.33,7.91,7.91,0,0,1-1.59,3,6.37,6.37,0,0,1-2.47,1.77,8.63,8.63,0,0,1-3.16.56,9,9,0,0,1-2.59-.36,6.56,6.56,0,0,1-2.17-1.11,6.89,6.89,0,0,1-1.64-1.9,9.48,9.48,0,0,1-1.07-2.72,16.18,16.18,0,0,1-.36-3.58v-4.05a15.33,15.33,0,0,1,.55-4.34,8.11,8.11,0,0,1,1.61-3,6.47,6.47,0,0,1,2.47-1.75,8.51,8.51,0,0,1,3.17-.56,8.84,8.84,0,0,1,2.58.36,6.66,6.66,0,0,1,2.17,1.11,6.55,6.55,0,0,1,1.64,1.89,9.08,9.08,0,0,1,1.05,2.72A15.36,15.36,0,0,1,545.06,328.59Zm-4.87,4.66V328a13.19,13.19,0,0,0-.14-2,6.35,6.35,0,0,0-.38-1.48,2.8,2.8,0,0,0-.59-1,2.13,2.13,0,0,0-.83-.54,2.51,2.51,0,0,0-1-.19A2.59,2.59,0,0,0,536,323a2.33,2.33,0,0,0-.93.89,4.7,4.7,0,0,0-.57,1.61,13.1,13.1,0,0,0-.19,2.45v5.3a15.4,15.4,0,0,0,.12,2.05,8.17,8.17,0,0,0,.38,1.5,3.26,3.26,0,0,0,.61,1,2.06,2.06,0,0,0,.83.54,2.79,2.79,0,0,0,1,.18,2.64,2.64,0,0,0,1.22-.27,2.41,2.41,0,0,0,.91-.89,4.62,4.62,0,0,0,.57-1.64A12.43,12.43,0,0,0,540.19,333.25Zm12.5-4.7h2.48a3.63,3.63,0,0,0,1.75-.38,2.3,2.3,0,0,0,1-1.06,3.57,3.57,0,0,0,.35-1.61,3.09,3.09,0,0,0-.32-1.42,2.21,2.21,0,0,0-1-1,3.13,3.13,0,0,0-1.62-.37,3.3,3.3,0,0,0-1.38.3,2.57,2.57,0,0,0-1,.82,2.06,2.06,0,0,0-.4,1.28h-4.89a5.35,5.35,0,0,1,1-3.29,6.78,6.78,0,0,1,2.76-2.14,9.3,9.3,0,0,1,3.79-.77,10.62,10.62,0,0,1,4.14.75,6.05,6.05,0,0,1,2.78,2.19,6.15,6.15,0,0,1,1,3.56,4.64,4.64,0,0,1-.53,2.14,5.8,5.8,0,0,1-1.49,1.82,7.32,7.32,0,0,1-2.28,1.24,8.69,8.69,0,0,1-2.92.46h-3.28Zm0,3.67v-2.49H556a11.53,11.53,0,0,1,3.19.41,7.11,7.11,0,0,1,2.39,1.17,5.19,5.19,0,0,1,1.5,1.86,5.7,5.7,0,0,1,.51,2.44,6.34,6.34,0,0,1-.62,2.84,6,6,0,0,1-1.75,2.11,8.18,8.18,0,0,1-2.64,1.32,11.88,11.88,0,0,1-3.28.43,10.55,10.55,0,0,1-2.83-.39,8.06,8.06,0,0,1-2.55-1.19,6.18,6.18,0,0,1-1.83-2,6.09,6.09,0,0,1-.68-3h4.89a2.65,2.65,0,0,0,.4,1.44,3.09,3.09,0,0,0,1.14,1,3.58,3.58,0,0,0,1.6.36,3.77,3.77,0,0,0,1.75-.38,2.65,2.65,0,0,0,1.11-1.06,3.05,3.05,0,0,0,.39-1.55,3.68,3.68,0,0,0-.43-1.91,2.39,2.39,0,0,0-1.18-1.06,4.64,4.64,0,0,0-1.88-.34Z" style="fill:#16a75c"/><path d="M756.06,27.59v4.05A14.64,14.64,0,0,1,755.5,36a7.91,7.91,0,0,1-1.59,3,6.37,6.37,0,0,1-2.47,1.77,8.63,8.63,0,0,1-3.16.56,9,9,0,0,1-2.59-.36,6.56,6.56,0,0,1-2.17-1.11,6.89,6.89,0,0,1-1.64-1.9,9.48,9.48,0,0,1-1.07-2.72,16.18,16.18,0,0,1-.36-3.58V27.59a15.33,15.33,0,0,1,.55-4.34,8.11,8.11,0,0,1,1.61-3,6.47,6.47,0,0,1,2.47-1.75,8.51,8.51,0,0,1,3.17-.56,8.84,8.84,0,0,1,2.58.36A6.66,6.66,0,0,1,753,19.41a6.55,6.55,0,0,1,1.64,1.89A9.08,9.08,0,0,1,755.69,24,15.36,15.36,0,0,1,756.06,27.59Zm-4.87,4.66V27a13.19,13.19,0,0,0-.14-2,6.35,6.35,0,0,0-.38-1.48,2.8,2.8,0,0,0-.59-1,2.13,2.13,0,0,0-.83-.54,2.51,2.51,0,0,0-1-.19A2.59,2.59,0,0,0,747,22a2.33,2.33,0,0,0-.93.89,4.7,4.7,0,0,0-.57,1.61,13.1,13.1,0,0,0-.19,2.45v5.3a15.4,15.4,0,0,0,.12,2,8.17,8.17,0,0,0,.38,1.5,3.26,3.26,0,0,0,.61,1,2.06,2.06,0,0,0,.83.54,2.79,2.79,0,0,0,1,.18,2.64,2.64,0,0,0,1.22-.27,2.41,2.41,0,0,0,.91-.89,4.62,4.62,0,0,0,.57-1.64A12.43,12.43,0,0,0,751.19,32.25Zm23.86.06v3.78H758.67l-.26-3,9.31-14.87h3.86l-4.19,6.94-4.23,7.12Zm-2.44-14.06V41h-4.88V18.25Z" style="fill:#16a75c"/><path d="M970.06,328.59v4.05a14.64,14.64,0,0,1-.56,4.33,7.91,7.91,0,0,1-1.59,3,6.37,6.37,0,0,1-2.47,1.77,8.63,8.63,0,0,1-3.16.56,9,9,0,0,1-2.59-.36,6.56,6.56,0,0,1-2.17-1.11,6.89,6.89,0,0,1-1.64-1.9,9.48,9.48,0,0,1-1.07-2.72,16.18,16.18,0,0,1-.36-3.58v-4.05a15.33,15.33,0,0,1,.55-4.34,8.11,8.11,0,0,1,1.61-3,6.47,6.47,0,0,1,2.47-1.75,8.51,8.51,0,0,1,3.17-.56,8.84,8.84,0,0,1,2.58.36,6.66,6.66,0,0,1,2.17,1.11,6.55,6.55,0,0,1,1.64,1.89,9.08,9.08,0,0,1,1.05,2.72A15.36,15.36,0,0,1,970.06,328.59Zm-4.87,4.66V328a13.19,13.19,0,0,0-.14-2,6.35,6.35,0,0,0-.38-1.48,2.8,2.8,0,0,0-.59-1,2.13,2.13,0,0,0-.83-.54,2.51,2.51,0,0,0-1-.19A2.59,2.59,0,0,0,961,323a2.33,2.33,0,0,0-.93.89,4.7,4.7,0,0,0-.57,1.61,13.1,13.1,0,0,0-.19,2.45v5.3a15.4,15.4,0,0,0,.12,2.05,8.17,8.17,0,0,0,.38,1.5,3.26,3.26,0,0,0,.61,1,2.06,2.06,0,0,0,.83.54,2.79,2.79,0,0,0,1,.18,2.64,2.64,0,0,0,1.22-.27,2.41,2.41,0,0,0,.91-.89,4.62,4.62,0,0,0,.57-1.64A12.43,12.43,0,0,0,965.19,333.25Zm12.15-1.5-3.87-.92,1.33-11.58h13v3.86h-9l-.55,4.8a6.85,6.85,0,0,1,1.33-.55,6.14,6.14,0,0,1,2-.31,8.11,8.11,0,0,1,3,.51,6,6,0,0,1,2.19,1.5,6.29,6.29,0,0,1,1.35,2.39,10.14,10.14,0,0,1,.47,3.24,8.6,8.6,0,0,1-.47,2.87,7.07,7.07,0,0,1-1.43,2.44,6.88,6.88,0,0,1-2.42,1.69,8.91,8.91,0,0,1-3.46.62,9.4,9.4,0,0,1-2.9-.45,8.22,8.22,0,0,1-2.53-1.31,6.62,6.62,0,0,1-1.77-2.13,6.16,6.16,0,0,1-.66-2.81h4.88a3.75,3.75,0,0,0,.45,1.56,2.65,2.65,0,0,0,1,1,3.05,3.05,0,0,0,1.48.35,2.82,2.82,0,0,0,1.38-.32,2.45,2.45,0,0,0,.89-.89,4.16,4.16,0,0,0,.5-1.31,8.23,8.23,0,0,0,.15-1.61,5.58,5.58,0,0,0-.2-1.59,3.27,3.27,0,0,0-.62-1.22,2.64,2.64,0,0,0-1.08-.78,3.83,3.83,0,0,0-1.55-.28,3.73,3.73,0,0,0-1.86.39A3.87,3.87,0,0,0,977.34,331.75Z" style="fill:#16a75c"/></svg>