<svg id="Layer_1" data-name="Layer 1" xmlns="http://www.w3.org/2000/svg" xmlns:xlink="http://www.w3.org/1999/xlink" viewBox="0 0 1280 424"><defs><clipPath id="clip-path"><rect width="1280" height="423.93" style="fill:none"/></clipPath><clipPath id="clip-path-2"><rect x="849.83" y="147.96" width="78.68" height="58.72" style="fill:none"/></clipPath><clipPath id="clip-path-3"><rect x="852.18" y="152.66" width="76.33" height="54.02" style="fill:none"/></clipPath><clipPath id="clip-path-4"><rect x="603.95" y="147.96" width="72.81" height="58.72" style="fill:none"/></clipPath><clipPath id="clip-path-5"><rect x="641.53" y="169.1" width="37.58" height="37.58" style="fill:none"/></clipPath><clipPath id="clip-path-6"><rect x="603.95" y="151.49" width="55.19" height="55.19" style="fill:none"/></clipPath><clipPath id="clip-path-7"><rect x="109.06" y="147.96" width="64.59" height="58.72" style="fill:none"/></clipPath><clipPath id="clip-path-8"><rect x="353.9" y="147.96" width="72.81" height="58.72" style="fill:none"/></clipPath><clipPath id="clip-path-9"><rect x="1103.98" y="147.96" width="72.81" height="58.72" style="fill:none"/></clipPath></defs><g style="clip-path:url(#clip-path)"><path d="M16.81,211.81c-9.19,0-16.75,7.49-15.67,16.62a141.35,141.35,0,0,0,281.73-16.62h-.12a108,108,0,1,1,216.09,0h-.12a141.36,141.36,0,1,0,282.71,0h-.11a108,108,0,0,1,216.09,0h-.12A141.35,141.35,0,0,0,1279,228.43c1.08-9.13-6.48-16.62-15.68-16.62s-16.52,7.51-17.93,16.59a108,108,0,0,1-214.81-16.58h.12a141.36,141.36,0,1,0-282.71,0h.11a108,108,0,0,1-216.09,0h.12a141.36,141.36,0,1,0-282.71,0h.12A108,108,0,0,1,34.75,228.4C33.34,219.32,26,211.81,16.81,211.81Z" style="fill:#d9f4e3;fill-rule:evenodd"/><circle cx="141.51" cy="211.96" r="107.45" style="fill:#fff"/><circle cx="390.46" cy="211.96" r="107.45" style="fill:#fff"/><circle cx="640.59" cy="211.96" r="107.45" style="fill:#fff"/><circle cx="889.54" cy="211.96" r="107.45" style="fill:#fff"/><g style="clip-path:url(#clip-path-2)"><g style="clip-path:url(#clip-path-3)"><path d="M852.18,197.28h76.33a9.4,9.4,0,0,1-9.4,9.4H861.57A9.4,9.4,0,0,1,852.18,197.28Z" style="fill:#1fb767"/><path d="M878,198.46h25.84a3.53,3.53,0,0,1-3.52,3.52H881.54A3.53,3.53,0,0,1,878,198.46Z" style="fill:#001b3d"/><path d="M859.22,165.58a7.05,7.05,0,0,1,7-7.05h48.15a7,7,0,0,1,7,7.05v31.7H859.22Z" style="fill:#001b3d"/><path d="M863.92,166.75a2.35,2.35,0,0,1,2.35-2.35h15.32a2.35,2.35,0,0,1,2.34,2.35v13.08a2.08,2.08,0,0,1-2.08,2.08,2.09,2.09,0,0,0-2.08,2.09v1.94l-4.65-3.54a2.31,2.31,0,0,0-1.42-.49h-7.43a2.35,2.35,0,0,1-2.35-2.35Z" style="fill:#fff"/><line x1="868.95" y1="168.73" x2="878.91" y2="168.73" style="fill:none;stroke:#1e88e5;stroke-linecap:round;stroke-width:2.3486199378967285px"/><line x1="868.95" y1="172.66" x2="878.91" y2="172.66" style="fill:none;stroke:#1e88e5;stroke-linecap:round;stroke-width:2.3486199378967285px"/><line x1="868.95" y1="176.59" x2="878.91" y2="176.59" style="fill:none;stroke:#1e88e5;stroke-linecap:round;stroke-width:2.3486199378967285px"/></g><path d="M917.48,148l3,1.9,3.57,0-1.9,3,0,3.57-3-1.9-3.57,0,1.9-3Z" style="fill:#ffa600"/><path d="M849.83,152.66a2.35,2.35,0,0,1,2.35-2.35h17.38a2.35,2.35,0,0,1,2.35,2.35v15a2.35,2.35,0,0,1-2.35,2.35H861a2.35,2.35,0,0,0-1.74.76l-4.36,4.8v-3.21a2.35,2.35,0,0,0-2.35-2.35h-.36a2.35,2.35,0,0,1-2.35-2.35Z" style="fill:#1fb767"/><path d="M866.9,156.72a.75.75,0,0,1,0,1.06L861,163.64a.75.75,0,0,1-1.06,0,.74.74,0,0,1,0-1.06l5.86-5.86A.75.75,0,0,1,866.9,156.72Z" style="fill:#fff;fill-rule:evenodd"/><path d="M856.23,158.85a.75.75,0,0,1,1.07,0l3.73,3.73a.74.74,0,0,1,0,1.06.75.75,0,0,1-1.06,0l-3.74-3.73A.75.75,0,0,1,856.23,158.85Z" style="fill:#fff;fill-rule:evenodd"/></g><path d="M837,244.47H834.5V230.88H837Zm2.53,0v-9.64H841a.57.57,0,0,1,.59.42l.15.72a6.47,6.47,0,0,1,.53-.52,4.47,4.47,0,0,1,.59-.41,3.68,3.68,0,0,1,.68-.26,2.87,2.87,0,0,1,.8-.1,2.24,2.24,0,0,1,1.49.5,2.82,2.82,0,0,1,.88,1.3,2.86,2.86,0,0,1,.57-.82,3.07,3.07,0,0,1,.74-.56,3.63,3.63,0,0,1,.85-.32,4.2,4.2,0,0,1,.93-.1,3.86,3.86,0,0,1,1.41.24,2.7,2.7,0,0,1,1,.72,3.16,3.16,0,0,1,.64,1.14,4.92,4.92,0,0,1,.22,1.55v6.14h-2.32v-6.14a2,2,0,0,0-.4-1.38,1.5,1.5,0,0,0-1.19-.47,1.8,1.8,0,0,0-.66.12,1.76,1.76,0,0,0-.54.36,1.59,1.59,0,0,0-.36.58,2.38,2.38,0,0,0-.13.79v6.14h-2.33v-6.14a2.12,2.12,0,0,0-.39-1.41,1.45,1.45,0,0,0-1.14-.44,1.89,1.89,0,0,0-.95.26,3,3,0,0,0-.81.67v7.06Zm18.07-2.5a2.33,2.33,0,0,0,.85.68,2.61,2.61,0,0,0,1,.19,2.27,2.27,0,0,0,1-.19,1.89,1.89,0,0,0,.71-.61,3,3,0,0,0,.46-1,5.72,5.72,0,0,0,.16-1.46,6.3,6.3,0,0,0-.14-1.42,2.67,2.67,0,0,0-.39-1,1.45,1.45,0,0,0-.62-.54,1.89,1.89,0,0,0-.81-.17,2.34,2.34,0,0,0-1.23.31,3.63,3.63,0,0,0-1,.86Zm-.12-5.83a5.14,5.14,0,0,1,1.34-1.08,3.66,3.66,0,0,1,1.76-.41,3.12,3.12,0,0,1,2.57,1.29,4.32,4.32,0,0,1,.73,1.54,7.38,7.38,0,0,1,.26,2.09,6.4,6.4,0,0,1-.29,2,4.76,4.76,0,0,1-.83,1.6,3.74,3.74,0,0,1-1.31,1.06,3.84,3.84,0,0,1-1.71.38,3.19,3.19,0,0,1-2.4-.94v4h-2.32V234.83h1.41a.58.58,0,0,1,.6.42Zm10.82-5.63v14H866v-14Zm8.53,8a2.66,2.66,0,0,0-.14-.85,2,2,0,0,0-.37-.7,1.73,1.73,0,0,0-.65-.47,2.13,2.13,0,0,0-.9-.18,2.18,2.18,0,0,0-1.59.57,2.84,2.84,0,0,0-.73,1.63Zm-4.43,1.4a5.16,5.16,0,0,0,.26,1.29,2.74,2.74,0,0,0,.55.89,2.2,2.2,0,0,0,.8.53,3.53,3.53,0,0,0,2,0,3.62,3.62,0,0,0,.71-.29c.21-.1.39-.2.54-.29a.89.89,0,0,1,.45-.13.48.48,0,0,1,.43.21l.67.85a3.9,3.9,0,0,1-.87.76,5.45,5.45,0,0,1-1,.49,5.63,5.63,0,0,1-1.06.25,7.65,7.65,0,0,1-1,.08,5.22,5.22,0,0,1-1.87-.33,4.31,4.31,0,0,1-1.5-1,4.68,4.68,0,0,1-1-1.61,6.19,6.19,0,0,1-.37-2.24,5.37,5.37,0,0,1,.32-1.85,4.32,4.32,0,0,1,2.37-2.54,5.15,5.15,0,0,1,3.62-.08,3.62,3.62,0,0,1,1.33.85,3.86,3.86,0,0,1,.86,1.38,4.85,4.85,0,0,1,.32,1.85,1.59,1.59,0,0,1-.11.71.47.47,0,0,1-.43.18Zm8.25,4.53v-9.64h1.42a.57.57,0,0,1,.59.42l.15.72a6.47,6.47,0,0,1,.53-.52A4.47,4.47,0,0,1,884,235a3.68,3.68,0,0,1,.68-.26,2.87,2.87,0,0,1,.8-.1,2.24,2.24,0,0,1,1.49.5,2.82,2.82,0,0,1,.88,1.3,2.86,2.86,0,0,1,.57-.82,3.07,3.07,0,0,1,.74-.56,3.63,3.63,0,0,1,.85-.32,4.2,4.2,0,0,1,.93-.1,3.86,3.86,0,0,1,1.41.24,2.78,2.78,0,0,1,1.05.72,3,3,0,0,1,.63,1.14,4.64,4.64,0,0,1,.23,1.55v6.14H891.9v-6.14a2,2,0,0,0-.4-1.38,1.5,1.5,0,0,0-1.19-.47,1.63,1.63,0,0,0-1.2.48,1.59,1.59,0,0,0-.36.58,2.15,2.15,0,0,0-.13.79v6.14h-2.33v-6.14a2.12,2.12,0,0,0-.39-1.41,1.45,1.45,0,0,0-1.14-.44,1.86,1.86,0,0,0-1,.26,3,3,0,0,0-.81.67v7.06Zm22-5.93a2.66,2.66,0,0,0-.14-.85,2,2,0,0,0-.37-.7,1.73,1.73,0,0,0-.65-.47,2.13,2.13,0,0,0-.9-.18,2.18,2.18,0,0,0-1.59.57,2.84,2.84,0,0,0-.73,1.63Zm-4.43,1.4a5.16,5.16,0,0,0,.26,1.29,2.74,2.74,0,0,0,.55.89,2.2,2.2,0,0,0,.8.53,3.53,3.53,0,0,0,2,0,3.62,3.62,0,0,0,.71-.29c.21-.1.39-.2.54-.29a.89.89,0,0,1,.45-.13.48.48,0,0,1,.43.21l.67.85a3.9,3.9,0,0,1-.87.76,5.45,5.45,0,0,1-1,.49,5.63,5.63,0,0,1-1.06.25,7.65,7.65,0,0,1-1.05.08,5.22,5.22,0,0,1-1.87-.33,4.31,4.31,0,0,1-1.5-1,4.53,4.53,0,0,1-1-1.61,6.19,6.19,0,0,1-.37-2.24,5.37,5.37,0,0,1,.32-1.85,4.32,4.32,0,0,1,2.37-2.54,5.15,5.15,0,0,1,3.62-.08,3.62,3.62,0,0,1,1.33.85,3.72,3.72,0,0,1,.86,1.38,5,5,0,0,1,.32,1.85,1.59,1.59,0,0,1-.11.71.47.47,0,0,1-.43.18ZM908.63,236a7.46,7.46,0,0,1,.61-.53,4.17,4.17,0,0,1,.69-.43,3.77,3.77,0,0,1,.78-.27,3.59,3.59,0,0,1,.9-.1,3.43,3.43,0,0,1,1.4.27,2.77,2.77,0,0,1,1,.75,3.31,3.31,0,0,1,.62,1.16,4.83,4.83,0,0,1,.21,1.47v6.14h-2.32v-6.14a2,2,0,0,0-.4-1.36,1.52,1.52,0,0,0-1.23-.49,2.34,2.34,0,0,0-1.13.28,4,4,0,0,0-1,.74v7h-2.32v-9.64h1.42a.57.57,0,0,1,.59.42Zm11.52,8.61a2.54,2.54,0,0,1-1.93-.71,2.73,2.73,0,0,1-.67-2v-5.38h-1a.47.47,0,0,1-.32-.12.54.54,0,0,1-.13-.37v-.92l1.55-.26.49-2.63a.52.52,0,0,1,.18-.29.53.53,0,0,1,.34-.1h1.2v3h2.58v1.66h-2.58v5.22a1,1,0,0,0,.22.7.77.77,0,0,0,.61.26,1.13,1.13,0,0,0,.35-.05,1.69,1.69,0,0,0,.26-.11l.2-.1a.27.27,0,0,1,.16-.06.24.24,0,0,1,.17.06.51.51,0,0,1,.14.15l.7,1.12a3.55,3.55,0,0,1-1.16.64A4.23,4.23,0,0,1,920.15,244.62Zm8.87-4.27a11.68,11.68,0,0,0-1.69.18,4.42,4.42,0,0,0-1.1.32,1.52,1.52,0,0,0-.59.46,1,1,0,0,0-.18.57,1,1,0,0,0,.36.88,1.62,1.62,0,0,0,.95.26,2.79,2.79,0,0,0,1.23-.25,3.8,3.8,0,0,0,1-.79Zm-5.31-4.18a5.72,5.72,0,0,1,4-1.52,3.8,3.8,0,0,1,1.51.28,3.11,3.11,0,0,1,1.82,1.95,4.25,4.25,0,0,1,.25,1.5v6.09h-1.06a1,1,0,0,1-.5-.1.66.66,0,0,1-.28-.4l-.21-.7a8.93,8.93,0,0,1-.72.59,4.3,4.3,0,0,1-.72.41,3.48,3.48,0,0,1-.81.25,3.87,3.87,0,0,1-.94.1,3.65,3.65,0,0,1-1.12-.16,2.47,2.47,0,0,1-.9-.5,2.22,2.22,0,0,1-.58-.82,2.81,2.81,0,0,1-.21-1.13,2,2,0,0,1,.13-.73,2.18,2.18,0,0,1,.39-.69,3.43,3.43,0,0,1,.72-.62,4.42,4.42,0,0,1,1.09-.51,9.8,9.8,0,0,1,1.5-.35,15.23,15.23,0,0,1,1.95-.17v-.56a2.14,2.14,0,0,0-.41-1.43,1.51,1.51,0,0,0-1.19-.47,3.08,3.08,0,0,0-.94.13,3.94,3.94,0,0,0-.65.3l-.52.3a1.07,1.07,0,0,1-.51.13.63.63,0,0,1-.41-.13,1,1,0,0,1-.27-.3Zm15.64.54a.66.66,0,0,1-.19.21.54.54,0,0,1-.27.06.87.87,0,0,1-.36-.09l-.45-.21a4.73,4.73,0,0,0-.58-.22,2.83,2.83,0,0,0-.76-.09,1.8,1.8,0,0,0-1.08.29.89.89,0,0,0-.38.76.77.77,0,0,0,.19.53,1.82,1.82,0,0,0,.54.36,5.47,5.47,0,0,0,.76.3c.28.08.57.17.85.27a6.58,6.58,0,0,1,.87.35,2.67,2.67,0,0,1,.75.48,2.23,2.23,0,0,1,.54.71,2.3,2.3,0,0,1,.2,1,3.19,3.19,0,0,1-.25,1.29,2.82,2.82,0,0,1-.73,1,3.56,3.56,0,0,1-1.22.66,5.12,5.12,0,0,1-1.65.24,4.59,4.59,0,0,1-1-.1,4.89,4.89,0,0,1-.91-.24,5,5,0,0,1-.81-.38,3.53,3.53,0,0,1-.64-.47l.53-.88a.71.71,0,0,1,.25-.24.63.63,0,0,1,.35-.09.69.69,0,0,1,.41.13l.45.26a4.15,4.15,0,0,0,.59.26,2.68,2.68,0,0,0,.87.12,2.45,2.45,0,0,0,.71-.09,1.73,1.73,0,0,0,.49-.26,1,1,0,0,0,.28-.37,1.15,1.15,0,0,0,.09-.44.78.78,0,0,0-.21-.56,1.66,1.66,0,0,0-.53-.37,4.18,4.18,0,0,0-.76-.28l-.88-.29c-.29-.1-.58-.21-.87-.34a3.3,3.3,0,0,1-.76-.52,2.31,2.31,0,0,1-.53-.76,2.59,2.59,0,0,1-.2-1.09,2.93,2.93,0,0,1,.23-1.13,2.63,2.63,0,0,1,.69-.93,3.34,3.34,0,0,1,1.13-.64,5.25,5.25,0,0,1,3.4.09,4.06,4.06,0,0,1,1.36.86Zm4.78-1.88v9.64H941.8v-9.64Zm.32-2.81a1.31,1.31,0,0,1-.12.56,1.39,1.39,0,0,1-.33.46,1.45,1.45,0,0,1-1.62.32,1.59,1.59,0,0,1-.78-.78,1.31,1.31,0,0,1-.12-.56,1.48,1.48,0,0,1,.44-1.05,1.33,1.33,0,0,1,.46-.31A1.5,1.5,0,0,1,944,231a1.43,1.43,0,0,1,.33.47A1.4,1.4,0,0,1,944.45,232Z" style="fill:#008444"/><path d="M825.68,265.64l-1.14-3.11c0-.14-.11-.3-.17-.49s-.12-.39-.18-.61c-.06.22-.11.42-.17.62s-.12.35-.18.5l-1.13,3.09Zm3.07,3.53h-1.34a.55.55,0,0,1-.37-.12.67.67,0,0,1-.22-.28l-.69-1.9h-3.87l-.7,1.9a.56.56,0,0,1-.2.27.57.57,0,0,1-.37.13h-1.35l3.67-9.34h1.77Zm3.14-3.48a1.56,1.56,0,0,0,.51-.08.92.92,0,0,0,.36-.22A.8.8,0,0,0,833,265a1,1,0,0,0,.08-.43,1,1,0,0,0-.3-.78,1.18,1.18,0,0,0-.87-.29,1.24,1.24,0,0,0-.89.29,1.06,1.06,0,0,0-.29.78,1.25,1.25,0,0,0,.07.43,1.15,1.15,0,0,0,.22.35,1,1,0,0,0,.37.22A1.62,1.62,0,0,0,831.89,265.69Zm1.8,3.77a.41.41,0,0,0-.12-.31.65.65,0,0,0-.31-.19,2,2,0,0,0-.48-.1,4.66,4.66,0,0,0-.56-.05l-.63,0-.62,0a1.5,1.5,0,0,0-.43.35.68.68,0,0,0-.16.46.59.59,0,0,0,.09.32.77.77,0,0,0,.27.27,1.82,1.82,0,0,0,.5.17,3.88,3.88,0,0,0,.74.06,3.43,3.43,0,0,0,.77-.07,1.64,1.64,0,0,0,.53-.19.78.78,0,0,0,.31-.28A.65.65,0,0,0,833.69,269.46Zm1.59-6.7v.6c0,.19-.12.3-.35.35l-.59.11a2.08,2.08,0,0,1-.06,1.64,2,2,0,0,1-.55.67,2.47,2.47,0,0,1-.82.43,3.4,3.4,0,0,1-1,.15l-.38,0-.35-.05c-.21.13-.31.26-.31.42a.33.33,0,0,0,.18.3,1.72,1.72,0,0,0,.49.13l.69.05a7.09,7.09,0,0,1,.79,0,6.7,6.7,0,0,1,.8.11,2.35,2.35,0,0,1,.69.25,1.38,1.38,0,0,1,.48.48,1.4,1.4,0,0,1,.19.77,1.74,1.74,0,0,1-.22.85,2.19,2.19,0,0,1-.63.74,3.25,3.25,0,0,1-1,.52,4.37,4.37,0,0,1-1.36.2,5,5,0,0,1-1.3-.15,3.34,3.34,0,0,1-.93-.39,1.63,1.63,0,0,1-.55-.56,1.28,1.28,0,0,1-.18-.65,1.16,1.16,0,0,1,.28-.78,1.94,1.94,0,0,1,.77-.5,1.22,1.22,0,0,1-.42-.36,1.09,1.09,0,0,1-.15-.6,1,1,0,0,1,0-.3,1.37,1.37,0,0,1,.16-.32,1.9,1.9,0,0,1,.28-.29,1.57,1.57,0,0,1,.38-.25,2.07,2.07,0,0,1-.8-.72,2.16,2.16,0,0,1-.09-1.95A2.12,2.12,0,0,1,830,263a2.62,2.62,0,0,1,.83-.43,3.62,3.62,0,0,1,1.06-.15,3.44,3.44,0,0,1,.8.09,2.89,2.89,0,0,1,.68.25Zm6.72-.22v6.63h-1a.38.38,0,0,1-.4-.3l-.11-.52a3.9,3.9,0,0,1-.9.67,2.57,2.57,0,0,1-1.15.25,2.42,2.42,0,0,1-1-.18,1.94,1.94,0,0,1-.7-.53,2.23,2.23,0,0,1-.43-.79,3.31,3.31,0,0,1-.15-1v-4.21h1.6v4.21a1.41,1.41,0,0,0,.28.94,1,1,0,0,0,.84.33,1.72,1.72,0,0,0,.78-.18,2.47,2.47,0,0,0,.68-.51v-4.79Zm5.62,1.29a.5.5,0,0,1-.13.15.34.34,0,0,1-.18,0,.56.56,0,0,1-.26-.07l-.3-.14a2.59,2.59,0,0,0-.4-.15,2,2,0,0,0-.52-.06,1.16,1.16,0,0,0-.74.2.62.62,0,0,0-.27.52.48.48,0,0,0,.14.36,1.1,1.1,0,0,0,.36.25,3.25,3.25,0,0,0,.53.21c.19.05.39.11.58.18a5.36,5.36,0,0,1,.6.24,1.82,1.82,0,0,1,.51.34,1.35,1.35,0,0,1,.37.48,1.47,1.47,0,0,1,.15.69,2.13,2.13,0,0,1-.18.88,1.92,1.92,0,0,1-.5.7,2.69,2.69,0,0,1-.84.46,3.8,3.8,0,0,1-1.13.16,3,3,0,0,1-.67-.07,3.23,3.23,0,0,1-.63-.16,4.79,4.79,0,0,1-.56-.26,3,3,0,0,1-.44-.33l.37-.6a.44.44,0,0,1,.16-.17.49.49,0,0,1,.25-.06.57.57,0,0,1,.28.08l.31.19a3.89,3.89,0,0,0,.4.18,2,2,0,0,0,.6.08,1.73,1.73,0,0,0,.49-.06,1,1,0,0,0,.33-.18.61.61,0,0,0,.2-.26.8.8,0,0,0,.06-.3.51.51,0,0,0-.14-.38,1.06,1.06,0,0,0-.37-.26,2.84,2.84,0,0,0-.52-.19l-.6-.2q-.3-.1-.6-.24a2.06,2.06,0,0,1-.52-.35,1.64,1.64,0,0,1-.37-.52,1.89,1.89,0,0,1-.14-.75,2.05,2.05,0,0,1,.16-.78,2,2,0,0,1,.47-.64,2.61,2.61,0,0,1,.79-.44,3.22,3.22,0,0,1,1.08-.17,3.35,3.35,0,0,1,1.25.23,2.76,2.76,0,0,1,.93.6Zm3.85,5.44a1.73,1.73,0,0,1-1.33-.49,1.86,1.86,0,0,1-.46-1.35v-3.7H849a.29.29,0,0,1-.31-.33v-.64l1.06-.17.34-1.81a.37.37,0,0,1,.12-.2.36.36,0,0,1,.24-.07h.82v2.09H853v1.13h-1.77v3.59a.74.74,0,0,0,.15.49.54.54,0,0,0,.42.17.9.9,0,0,0,.25,0l.17-.08.14-.07a.21.21,0,0,1,.11,0,.21.21,0,0,1,.12,0,.35.35,0,0,1,.09.11l.48.77a2.49,2.49,0,0,1-.8.44A2.92,2.92,0,0,1,851.47,269.27Zm8.3-6.73v6.63h-1a.37.37,0,0,1-.4-.3l-.11-.52a3.9,3.9,0,0,1-.9.67,2.61,2.61,0,0,1-1.16.25,2.42,2.42,0,0,1-1-.18,1.94,1.94,0,0,1-.7-.53,2.23,2.23,0,0,1-.43-.79,3.31,3.31,0,0,1-.14-1v-4.21h1.59v4.21a1.46,1.46,0,0,0,.28.94,1.06,1.06,0,0,0,.85.33,1.71,1.71,0,0,0,.77-.18,2.67,2.67,0,0,0,.69-.51v-4.79Zm5.63,1.29a.51.51,0,0,1-.14.15.34.34,0,0,1-.18,0,.5.5,0,0,1-.25-.07l-.3-.14a2.74,2.74,0,0,0-.41-.15,2,2,0,0,0-.52-.06,1.18,1.18,0,0,0-.74.2.62.62,0,0,0-.27.52.52.52,0,0,0,.14.36,1.14,1.14,0,0,0,.37.25,3.13,3.13,0,0,0,.52.21c.2.05.39.11.59.18a6.07,6.07,0,0,1,.59.24,1.87,1.87,0,0,1,.52.34,1.47,1.47,0,0,1,.37.48,1.6,1.6,0,0,1,.14.69,2.3,2.3,0,0,1-.17.88,2,2,0,0,1-.51.7,2.64,2.64,0,0,1-.83.46,3.92,3.92,0,0,1-1.14.16,3,3,0,0,1-.67-.07,3.42,3.42,0,0,1-.63-.16,4,4,0,0,1-.55-.26,2.61,2.61,0,0,1-.45-.33l.37-.6a.46.46,0,0,1,.17-.17.45.45,0,0,1,.24-.06.57.57,0,0,1,.28.08l.31.19a4.14,4.14,0,0,0,.41.18,2,2,0,0,0,.6.08,1.65,1.65,0,0,0,.48-.06,1.2,1.2,0,0,0,.34-.18.67.67,0,0,0,.19-.26.66.66,0,0,0,.07-.3.56.56,0,0,0-.14-.38,1.29,1.29,0,0,0-.37-.26,3,3,0,0,0-.53-.19l-.6-.2q-.3-.1-.6-.24a2.06,2.06,0,0,1-.52-.35,1.81,1.81,0,0,1-.37-.52,1.9,1.9,0,0,1-.13-.75,1.88,1.88,0,0,1,.16-.78,1.72,1.72,0,0,1,.47-.64,2.44,2.44,0,0,1,.78-.44,3.51,3.51,0,0,1,2.33.06,2.71,2.71,0,0,1,.94.6Zm4.72.77h3.35v1.33h-3.35Zm17.17-.11a5.15,5.15,0,0,1-.34,1.91,4.38,4.38,0,0,1-1,1.51,4.3,4.3,0,0,1-1.49,1,5.38,5.38,0,0,1-3.87,0,4.43,4.43,0,0,1-1.5-1,4.53,4.53,0,0,1-1-1.51,5.15,5.15,0,0,1-.34-1.91,5.08,5.08,0,0,1,.34-1.89,4.58,4.58,0,0,1,1-1.52,4.43,4.43,0,0,1,1.5-1,5,5,0,0,1,1.93-.36,5.23,5.23,0,0,1,1.34.17,4.34,4.34,0,0,1,1.15.47,3.86,3.86,0,0,1,.93.72,4.46,4.46,0,0,1,.72,1,4.81,4.81,0,0,1,.44,1.15A5.51,5.51,0,0,1,887.29,264.49Zm-1.78,0a4.16,4.16,0,0,0-.2-1.37,3,3,0,0,0-.59-1,2.48,2.48,0,0,0-.93-.65,3.17,3.17,0,0,0-1.23-.23,3.21,3.21,0,0,0-1.23.23,2.65,2.65,0,0,0-.93.65,2.86,2.86,0,0,0-.59,1,4.15,4.15,0,0,0-.21,1.37,4.27,4.27,0,0,0,.21,1.39,2.9,2.9,0,0,0,.59,1,2.65,2.65,0,0,0,.93.65,3.21,3.21,0,0,0,1.23.22,3.17,3.17,0,0,0,1.23-.22,2.48,2.48,0,0,0,.93-.65,3.05,3.05,0,0,0,.59-1A4.28,4.28,0,0,0,885.51,264.49Zm4.55-4.92v5.49h.29a.62.62,0,0,0,.26,0,.49.49,0,0,0,.19-.17l1.65-2a.86.86,0,0,1,.22-.21.67.67,0,0,1,.33-.07h1.46L892.4,265a1.7,1.7,0,0,1-.48.45.84.84,0,0,1,.24.22,1.86,1.86,0,0,1,.21.28l2.21,3.22h-1.44a.76.76,0,0,1-.32-.06.51.51,0,0,1-.23-.23l-1.69-2.51a.46.46,0,0,0-.19-.2.71.71,0,0,0-.29,0h-.36v3h-1.6v-9.6Zm7.51,9.7a1.73,1.73,0,0,1-1.33-.49,1.9,1.9,0,0,1-.46-1.35v-3.7h-.68a.32.32,0,0,1-.21-.08.34.34,0,0,1-.1-.25v-.64l1.07-.17.34-1.81a.37.37,0,0,1,.12-.2.35.35,0,0,1,.23-.07h.83v2.09h1.77v1.13h-1.77v3.59a.74.74,0,0,0,.15.49.54.54,0,0,0,.42.17.83.83,0,0,0,.24,0l.18-.08.13-.07a.28.28,0,0,1,.12,0,.18.18,0,0,1,.11,0,.27.27,0,0,1,.1.11l.48.77a2.49,2.49,0,0,1-.8.44A2.94,2.94,0,0,1,897.57,269.27Zm5.48-6.84a3.8,3.8,0,0,1,1.34.24,2.94,2.94,0,0,1,1,.68,3,3,0,0,1,.67,1.07,4.27,4.27,0,0,1,.23,1.42,4.23,4.23,0,0,1-.23,1.42,3.13,3.13,0,0,1-.67,1.08,2.81,2.81,0,0,1-1,.68,3.59,3.59,0,0,1-1.34.24,3.68,3.68,0,0,1-1.35-.24,2.93,2.93,0,0,1-1-.68,3.27,3.27,0,0,1-.66-1.08,4.32,4.32,0,0,1,0-2.84,3.12,3.12,0,0,1,.66-1.07,3.08,3.08,0,0,1,1-.68A3.9,3.9,0,0,1,903.05,262.43Zm0,5.61a1.4,1.4,0,0,0,1.22-.56,3.52,3.52,0,0,0,0-3.26,1.37,1.37,0,0,0-1.22-.56,1.46,1.46,0,0,0-1.25.56,3.52,3.52,0,0,0,0,3.26A1.46,1.46,0,0,0,903.05,268Zm6.08-.59a1.56,1.56,0,0,0,.59.46,1.72,1.72,0,0,0,.68.14,1.59,1.59,0,0,0,.66-.13,1.39,1.39,0,0,0,.5-.41,2.18,2.18,0,0,0,.32-.72,4.57,4.57,0,0,0,.11-1.05,2.57,2.57,0,0,0-.37-1.57,1.2,1.2,0,0,0-1-.5,1.53,1.53,0,0,0-.81.22,2.7,2.7,0,0,0-.65.59Zm0-4.1a3.12,3.12,0,0,1,.89-.66,2.48,2.48,0,0,1,2.15,0,2.24,2.24,0,0,1,.79.65,3.24,3.24,0,0,1,.5,1,4.71,4.71,0,0,1,.17,1.35,4.84,4.84,0,0,1-.2,1.47,3.25,3.25,0,0,1-.57,1.13,2.58,2.58,0,0,1-.89.72,2.51,2.51,0,0,1-1.17.26,2.47,2.47,0,0,1-.56-.06,2.09,2.09,0,0,1-.46-.17,2.11,2.11,0,0,1-.4-.26q-.17-.16-.33-.36l-.07.45a.35.35,0,0,1-.14.23.37.37,0,0,1-.25.08h-1.05v-9.6h1.59Zm10,1.74a1.81,1.81,0,0,0-.09-.58,1.34,1.34,0,0,0-.25-.49,1.36,1.36,0,0,0-.45-.32,1.7,1.7,0,0,0-1.71.27,2,2,0,0,0-.51,1.12Zm-3,1a3.59,3.59,0,0,0,.18.89,1.86,1.86,0,0,0,.38.61,1.46,1.46,0,0,0,.55.36,2,2,0,0,0,.71.12,2.1,2.1,0,0,0,.66-.09,2.91,2.91,0,0,0,.49-.2l.37-.2a.64.64,0,0,1,.31-.09.33.33,0,0,1,.3.15l.46.58a3,3,0,0,1-.6.52,3.32,3.32,0,0,1-1.42.51,5.78,5.78,0,0,1-.71.05,3.6,3.6,0,0,1-1.29-.22,3,3,0,0,1-1-.68,3,3,0,0,1-.69-1.11,4.32,4.32,0,0,1-.26-1.54,3.76,3.76,0,0,1,.22-1.27,3.12,3.12,0,0,1,.63-1,3,3,0,0,1,1-.71,3.37,3.37,0,0,1,1.34-.26,3.09,3.09,0,0,1,1.15.21,2.44,2.44,0,0,1,.92.58,2.69,2.69,0,0,1,.59.95,3.55,3.55,0,0,1,.22,1.27,1.08,1.08,0,0,1-.08.49.33.33,0,0,1-.3.12Zm7.18-2.36a2.72,2.72,0,0,1,.74-.93,1.53,1.53,0,0,1,1-.34,1.18,1.18,0,0,1,.74.2l-.1,1.19a.35.35,0,0,1-.1.17.25.25,0,0,1-.16,0l-.29,0-.37,0a1.16,1.16,0,0,0-.47.08,1.22,1.22,0,0,0-.38.22,2.08,2.08,0,0,0-.29.35,4.12,4.12,0,0,0-.23.47v4.09h-1.59v-6.63h.93a.48.48,0,0,1,.34.09.45.45,0,0,1,.13.31Zm11.73,4a.54.54,0,0,1,.4.15.46.46,0,0,1,.16.38v1h-6.41v-.53a.86.86,0,0,1,.07-.34.85.85,0,0,1,.21-.32l2.84-2.84c.24-.25.45-.48.63-.7a4.51,4.51,0,0,0,.48-.65,3.36,3.36,0,0,0,.28-.65,2.34,2.34,0,0,0,.1-.71,1.5,1.5,0,0,0-.1-.58,1.09,1.09,0,0,0-.7-.69,1.59,1.59,0,0,0-.55-.09,1.51,1.51,0,0,0-.53.08,1.37,1.37,0,0,0-.43.23,1.44,1.44,0,0,0-.32.33,1.52,1.52,0,0,0-.19.43.68.68,0,0,1-.28.39.81.81,0,0,1-.51.05l-.84-.15a3.48,3.48,0,0,1,.38-1.18,2.59,2.59,0,0,1,.69-.84,2.82,2.82,0,0,1,1-.51,3.72,3.72,0,0,1,1.17-.18,3.44,3.44,0,0,1,1.18.2,2.48,2.48,0,0,1,.91.53,2.31,2.31,0,0,1,.6.84,2.75,2.75,0,0,1,.21,1.09,2.93,2.93,0,0,1-.15,1,4.08,4.08,0,0,1-.41.84,6.06,6.06,0,0,1-.59.77l-.72.77-2.11,2.15a4.84,4.84,0,0,1,.61-.14,3.88,3.88,0,0,1,.57-.05Zm8.32-3.19a7.85,7.85,0,0,1-.26,2.13,4.32,4.32,0,0,1-.73,1.49,2.85,2.85,0,0,1-1.09.87,3.21,3.21,0,0,1-1.35.29,3.25,3.25,0,0,1-1.36-.29,3,3,0,0,1-1.08-.87,4.7,4.7,0,0,1-.72-1.49,9.16,9.16,0,0,1,0-4.25,4.54,4.54,0,0,1,.72-1.48,2.9,2.9,0,0,1,1.08-.88,3.25,3.25,0,0,1,1.36-.29,3.21,3.21,0,0,1,1.35.29,2.78,2.78,0,0,1,1.09.88,4.18,4.18,0,0,1,.73,1.48A7.83,7.83,0,0,1,943.32,264.49Zm-1.65,0a7.82,7.82,0,0,0-.14-1.67,3.46,3.46,0,0,0-.4-1.06,1.41,1.41,0,0,0-.57-.55,1.48,1.48,0,0,0-1.34,0,1.34,1.34,0,0,0-.56.55,3,3,0,0,0-.39,1.06,9.43,9.43,0,0,0,0,3.35,3,3,0,0,0,.39,1.06,1.43,1.43,0,0,0,.56.56,1.57,1.57,0,0,0,1.34,0,1.51,1.51,0,0,0,.57-.56,3.46,3.46,0,0,0,.4-1.06A7.86,7.86,0,0,0,941.67,264.49Zm8.31,3.19a.56.56,0,0,1,.41.15.49.49,0,0,1,.15.38v1h-6.4v-.53a1.06,1.06,0,0,1,.06-.34.87.87,0,0,1,.22-.32l2.84-2.84.63-.7a3.79,3.79,0,0,0,.47-.65,2.88,2.88,0,0,0,.29-.65,2.71,2.71,0,0,0,.1-.71,1.5,1.5,0,0,0-.1-.58,1,1,0,0,0-.28-.43.91.91,0,0,0-.42-.26,1.64,1.64,0,0,0-.56-.09,1.55,1.55,0,0,0-.53.08,1.22,1.22,0,0,0-.42.23,1.26,1.26,0,0,0-.32.33,1.28,1.28,0,0,0-.19.43.69.69,0,0,1-.29.39.77.77,0,0,1-.5.05l-.84-.15a3.48,3.48,0,0,1,.37-1.18,2.88,2.88,0,0,1,.69-.84,2.77,2.77,0,0,1,1-.51,3.66,3.66,0,0,1,1.16-.18,3.4,3.4,0,0,1,1.18.2,2.53,2.53,0,0,1,.92.53,2.43,2.43,0,0,1,.6.84,2.75,2.75,0,0,1,.21,1.09,2.69,2.69,0,0,1-.16,1,3.58,3.58,0,0,1-.4.84,5.34,5.34,0,0,1-.6.77c-.22.25-.46.51-.71.77l-2.11,2.15a4.34,4.34,0,0,1,.6-.14,4,4,0,0,1,.58-.05Zm7.49,0a.54.54,0,0,1,.41.15.5.5,0,0,1,.16.38v1h-6.41v-.53a.86.86,0,0,1,.07-.34.85.85,0,0,1,.21-.32l2.84-2.84c.24-.25.45-.48.63-.7a3.79,3.79,0,0,0,.47-.65,2.88,2.88,0,0,0,.29-.65,2.34,2.34,0,0,0,.1-.71,1.72,1.72,0,0,0-.09-.58,1.11,1.11,0,0,0-.28-.43,1,1,0,0,0-.43-.26,1.59,1.59,0,0,0-.55-.09,1.51,1.51,0,0,0-.53.08,1.27,1.27,0,0,0-.43.23,1.26,1.26,0,0,0-.32.33,1.52,1.52,0,0,0-.19.43.68.68,0,0,1-.28.39.81.81,0,0,1-.51.05l-.84-.15a3.48,3.48,0,0,1,.38-1.18,2.59,2.59,0,0,1,.69-.84,2.82,2.82,0,0,1,.95-.51,3.68,3.68,0,0,1,1.17-.18,3.44,3.44,0,0,1,1.18.2,2.61,2.61,0,0,1,.92.53,2.41,2.41,0,0,1,.59.84,2.75,2.75,0,0,1,.21,1.09,2.93,2.93,0,0,1-.15,1,4.08,4.08,0,0,1-.41.84,6.06,6.06,0,0,1-.59.77l-.72.77-2.11,2.15a5.13,5.13,0,0,1,.6-.14,4.13,4.13,0,0,1,.58-.05Z" style="fill:#1a4373"/><g style="clip-path:url(#clip-path-4)"><g style="clip-path:url(#clip-path-5)"><circle cx="660.32" cy="179.54" r="10.44" style="fill:#001b3d"/><circle cx="660.32" cy="179.54" r="10.44" style="fill:#001b3d"/><path d="M643.61,206.68a12.53,12.53,0,0,1,12.53-12.53h8.35A12.53,12.53,0,0,1,677,206.68Z" style="fill:#001b3d"/></g><g style="clip-path:url(#clip-path-6)"><circle cx="631.55" cy="166.82" r="15.33" style="fill:#1fb767"/><circle cx="631.55" cy="166.82" r="15.33" style="fill:#1fb767"/><path d="M639.18,169.69a7.64,7.64,0,0,1-15.27,0h15.27Z" style="fill:#fff"/><path d="M607,204.72a16.44,16.44,0,0,1,16.44-16.44h16.18a16.44,16.44,0,0,1,16.44,16.44v2H607Z" style="fill:#1fb767"/><path d="M627,188.28h-4.6l3.06,18.4,4.6-12.27Z" style="fill:#fff;fill-rule:evenodd"/><path d="M640.74,188.28l-3.06,18.4-4.6-12.27,3.07-6.13Z" style="fill:#fff;fill-rule:evenodd"/><path d="M636.15,188.28H627l3.06,6.13-4.6,12.27h12.27l-4.6-12.27Z" style="fill:#001b3d"/><path d="M609.07,175l3.63,3.2,4.84.11-3.2,3.64-.12,4.83-3.63-3.19-4.84-.12,3.2-3.63Z" style="fill:#ffa600"/></g><rect x="655.55" y="154.31" width="7.25" height="7.25" rx="1.17" transform="translate(-10.11 265.24) rotate(-22.58)" style="fill:#ef5350"/></g><path d="M612.78,239.34l-1.66-4.52c-.08-.2-.16-.44-.25-.71s-.17-.58-.26-.9c-.08.32-.17.62-.26.91s-.17.51-.25.72l-1.64,4.5Zm4.46,5.13h-2a.9.9,0,0,1-.53-.16,1,1,0,0,1-.31-.41l-1-2.78H607.8l-1,2.78a.87.87,0,0,1-.29.39.79.79,0,0,1-.53.18h-2l5.35-13.59h2.57Zm9.12-9.64v9.64H625a.55.55,0,0,1-.59-.43l-.16-.77a5.05,5.05,0,0,1-1.3,1,3.59,3.59,0,0,1-1.68.37,3.4,3.4,0,0,1-1.4-.27,2.76,2.76,0,0,1-1-.76,3.55,3.55,0,0,1-.63-1.15A5,5,0,0,1,618,241v-6.12h2.31V241a2.12,2.12,0,0,0,.41,1.38,1.54,1.54,0,0,0,1.23.47,2.44,2.44,0,0,0,1.13-.26,4,4,0,0,0,1-.74v-7Zm8.35,2.46a2.25,2.25,0,0,0-.86-.68,2.54,2.54,0,0,0-1-.19,2.19,2.19,0,0,0-.94.19,1.92,1.92,0,0,0-.73.6,3,3,0,0,0-.46,1,5.64,5.64,0,0,0-.16,1.45,7.2,7.2,0,0,0,.13,1.43,3,3,0,0,0,.4,1,1.52,1.52,0,0,0,.62.54,2.1,2.1,0,0,0,.82.16,2.39,2.39,0,0,0,1.23-.3,3.76,3.76,0,0,0,1-.86Zm2.32-6.78v14h-1.41A.55.55,0,0,1,635,244l-.19-.92a5,5,0,0,1-1.35,1.08,3.62,3.62,0,0,1-1.75.41,3.19,3.19,0,0,1-1.45-.33,3.34,3.34,0,0,1-1.14-.95,4.65,4.65,0,0,1-.73-1.55,7.85,7.85,0,0,1-.25-2.1,6.45,6.45,0,0,1,.29-2,4.81,4.81,0,0,1,.83-1.59A3.9,3.9,0,0,1,630.6,235a3.71,3.71,0,0,1,1.71-.39,3.19,3.19,0,0,1,2.4.94v-5.08Zm4.7,4.32v9.64H639.4v-9.64Zm.32-2.81a1.31,1.31,0,0,1-.12.56,1.39,1.39,0,0,1-.33.46,1.4,1.4,0,0,1-.47.32,1.43,1.43,0,0,1-.58.12,1.44,1.44,0,0,1-1-.44,1.72,1.72,0,0,1-.32-.46,1.47,1.47,0,0,1-.11-.56,1.58,1.58,0,0,1,.11-.58,1.77,1.77,0,0,1,.32-.47,1.44,1.44,0,0,1,.46-.31,1.47,1.47,0,0,1,.58-.12,1.43,1.43,0,0,1,.58.12,1.38,1.38,0,0,1,.47.31,1.43,1.43,0,0,1,.33.47A1.4,1.4,0,0,1,642.05,232Zm8.25,6.52a2.65,2.65,0,0,0-.13-.85,2,2,0,0,0-.37-.7,1.73,1.73,0,0,0-.65-.47,2.13,2.13,0,0,0-.9-.18,2.18,2.18,0,0,0-1.59.57,2.84,2.84,0,0,0-.73,1.63Zm-4.42,1.4a5.16,5.16,0,0,0,.26,1.29,2.74,2.74,0,0,0,.55.89,2.2,2.2,0,0,0,.8.53,3.53,3.53,0,0,0,2,0,3.62,3.62,0,0,0,.71-.29c.21-.1.39-.2.54-.29a.86.86,0,0,1,.45-.13.48.48,0,0,1,.43.21l.67.85a3.9,3.9,0,0,1-.87.76,5.45,5.45,0,0,1-1,.49,5.63,5.63,0,0,1-1.06.25,7.65,7.65,0,0,1-1.05.08,5.22,5.22,0,0,1-1.87-.33,4.31,4.31,0,0,1-1.5-1,4.68,4.68,0,0,1-1-1.61,6.19,6.19,0,0,1-.37-2.24,5.37,5.37,0,0,1,.32-1.85,4.32,4.32,0,0,1,2.37-2.54,5.15,5.15,0,0,1,3.62-.08,3.62,3.62,0,0,1,1.33.85,3.86,3.86,0,0,1,.86,1.38,5,5,0,0,1,.32,1.85,1.59,1.59,0,0,1-.11.71.47.47,0,0,1-.43.18ZM656.3,236a7.46,7.46,0,0,1,.61-.53,4.17,4.17,0,0,1,.69-.43,3.77,3.77,0,0,1,.78-.27,3.65,3.65,0,0,1,.9-.1,3.43,3.43,0,0,1,1.4.27,2.77,2.77,0,0,1,1,.75,3.31,3.31,0,0,1,.62,1.16,4.83,4.83,0,0,1,.21,1.47v6.14h-2.32v-6.14a2,2,0,0,0-.4-1.36,1.52,1.52,0,0,0-1.23-.49,2.31,2.31,0,0,0-1.13.28,4,4,0,0,0-1,.74v7h-2.32v-9.64h1.42a.57.57,0,0,1,.59.42Zm14.32.7a.58.58,0,0,1-.2.21.5.5,0,0,1-.26.06.91.91,0,0,1-.37-.09c-.12-.07-.27-.13-.44-.21a4.73,4.73,0,0,0-.58-.22,2.88,2.88,0,0,0-.76-.09,1.8,1.8,0,0,0-1.08.29.9.9,0,0,0-.39.76.78.78,0,0,0,.2.53,1.76,1.76,0,0,0,.53.36,6,6,0,0,0,.76.3c.29.08.57.17.86.27a7,7,0,0,1,.86.35,2.58,2.58,0,0,1,.76.48,2.2,2.2,0,0,1,.53.71,2.16,2.16,0,0,1,.21,1,3.2,3.2,0,0,1-.26,1.29,2.71,2.71,0,0,1-.73,1,3.51,3.51,0,0,1-1.21.66,5.21,5.21,0,0,1-1.65.24,4.53,4.53,0,0,1-1-.1,4.69,4.69,0,0,1-.91-.24,5,5,0,0,1-.81-.38,4,4,0,0,1-.65-.47l.54-.88a.78.78,0,0,1,.24-.24.72.72,0,0,1,.76,0l.45.26a4.31,4.31,0,0,0,.6.26,2.68,2.68,0,0,0,.87.12,2.38,2.38,0,0,0,.7-.09,1.61,1.61,0,0,0,.49-.26.89.89,0,0,0,.28-.37,1,1,0,0,0,.1-.44.78.78,0,0,0-.21-.56,1.66,1.66,0,0,0-.53-.37,4.47,4.47,0,0,0-.76-.28l-.88-.29c-.29-.1-.58-.21-.87-.34a3.1,3.1,0,0,1-.76-.52,2.49,2.49,0,0,1-.54-.76,2.91,2.91,0,0,1,0-2.22,2.49,2.49,0,0,1,.68-.93,3.49,3.49,0,0,1,1.14-.64,5.22,5.22,0,0,1,3.39.09,4.11,4.11,0,0,1,1.37.86Zm4.78-1.88v9.64h-2.33v-9.64Zm.32-2.81a1.31,1.31,0,0,1-.12.56,1.39,1.39,0,0,1-.33.46,1.4,1.4,0,0,1-.47.32,1.46,1.46,0,0,1-1.16,0,1.47,1.47,0,0,1-.46-.32,1.72,1.72,0,0,1-.32-.46,1.47,1.47,0,0,1-.11-.56,1.58,1.58,0,0,1,.11-.58,1.77,1.77,0,0,1,.32-.47,1.47,1.47,0,0,1,1.62-.31,1.38,1.38,0,0,1,.47.31,1.43,1.43,0,0,1,.33.47A1.4,1.4,0,0,1,675.72,232Z" style="fill:#069550"/><path d="M598.63,267.68a.54.54,0,0,1,.41.15.5.5,0,0,1,.16.38v1h-6.41v-.53a1.06,1.06,0,0,1,.06-.34.87.87,0,0,1,.22-.32l2.84-2.84c.24-.25.45-.48.63-.7a3.79,3.79,0,0,0,.47-.65,2.88,2.88,0,0,0,.29-.65,2.71,2.71,0,0,0,.1-.71,1.5,1.5,0,0,0-.1-.58,1.09,1.09,0,0,0-.7-.69,1.64,1.64,0,0,0-.56-.09,1.55,1.55,0,0,0-.53.08,1.22,1.22,0,0,0-.42.23,1.26,1.26,0,0,0-.32.33,1.28,1.28,0,0,0-.19.43.69.69,0,0,1-.29.39.77.77,0,0,1-.5.05l-.84-.15a3.48,3.48,0,0,1,.37-1.18,2.76,2.76,0,0,1,.7-.84,2.64,2.64,0,0,1,1-.51,3.66,3.66,0,0,1,1.16-.18,3.45,3.45,0,0,1,1.19.2,2.57,2.57,0,0,1,.91.53,2.43,2.43,0,0,1,.6.84,2.75,2.75,0,0,1,.21,1.09,2.93,2.93,0,0,1-.15,1,4.08,4.08,0,0,1-.41.84,5.34,5.34,0,0,1-.6.77c-.22.25-.46.51-.71.77l-2.11,2.15a4.34,4.34,0,0,1,.6-.14,4,4,0,0,1,.58-.05Zm7.5,0a.54.54,0,0,1,.4.15.46.46,0,0,1,.16.38v1h-6.41v-.53a.86.86,0,0,1,.07-.34.77.77,0,0,1,.22-.32l2.83-2.84c.24-.25.45-.48.63-.7a4.51,4.51,0,0,0,.48-.65,3.36,3.36,0,0,0,.28-.65,2.34,2.34,0,0,0,.1-.71,1.72,1.72,0,0,0-.09-.58,1.11,1.11,0,0,0-.28-.43,1,1,0,0,0-.43-.26,1.59,1.59,0,0,0-.55-.09,1.51,1.51,0,0,0-.53.08,1.37,1.37,0,0,0-.43.23,1.44,1.44,0,0,0-.32.33,1.52,1.52,0,0,0-.19.43.68.68,0,0,1-.28.39.81.81,0,0,1-.51.05l-.84-.15a3.48,3.48,0,0,1,.38-1.18,2.59,2.59,0,0,1,.69-.84,2.77,2.77,0,0,1,1-.51,3.62,3.62,0,0,1,1.16-.18,3.44,3.44,0,0,1,1.18.2,2.61,2.61,0,0,1,.92.53,2.41,2.41,0,0,1,.59.84,2.75,2.75,0,0,1,.21,1.09,2.93,2.93,0,0,1-.15,1,4.08,4.08,0,0,1-.41.84,5.26,5.26,0,0,1-.59.77l-.72.77-2.11,2.15a4.84,4.84,0,0,1,.61-.14,3.88,3.88,0,0,1,.57-.05Zm5-3.08h3.35v1.33h-3.35Zm13.56,3.08a.56.56,0,0,1,.41.15.49.49,0,0,1,.15.38v1h-6.4v-.53a1.06,1.06,0,0,1,.06-.34.87.87,0,0,1,.22-.32l2.83-2.84c.24-.25.45-.48.64-.7a4.42,4.42,0,0,0,.47-.65,2.84,2.84,0,0,0,.28-.65,2.35,2.35,0,0,0,.11-.71,1.5,1.5,0,0,0-.1-.58,1,1,0,0,0-.28-.43,1,1,0,0,0-.42-.26,1.64,1.64,0,0,0-.56-.09,1.55,1.55,0,0,0-.53.08,1.37,1.37,0,0,0-.43.23,1.22,1.22,0,0,0-.31.33,1.54,1.54,0,0,0-.2.43.64.64,0,0,1-.28.39.78.78,0,0,1-.5.05l-.84-.15a3.48,3.48,0,0,1,.37-1.18,2.88,2.88,0,0,1,.69-.84,2.77,2.77,0,0,1,1-.51,3.66,3.66,0,0,1,1.16-.18,3.4,3.4,0,0,1,1.18.2,2.53,2.53,0,0,1,.92.53,2.41,2.41,0,0,1,.59.84,2.59,2.59,0,0,1,.22,1.09,2.69,2.69,0,0,1-.16,1,4,4,0,0,1-.4.84,5.34,5.34,0,0,1-.6.77l-.72.77-2.1,2.15a4.34,4.34,0,0,1,.6-.14,3.88,3.88,0,0,1,.57-.05Zm3.29-5.05a1.62,1.62,0,0,0,.4,1.19,1.51,1.51,0,0,0,1.15.41,1.85,1.85,0,0,0,.69-.12,1.52,1.52,0,0,0,.51-.34,1.36,1.36,0,0,0,.31-.5,1.85,1.85,0,0,0,.11-.63,1.83,1.83,0,0,0-.12-.68,1.25,1.25,0,0,0-.33-.51,1.45,1.45,0,0,0-.51-.31,1.61,1.61,0,0,0-.63-.11,1.73,1.73,0,0,0-.66.12,1.56,1.56,0,0,0-.5.33,1.45,1.45,0,0,0-.31.51A1.87,1.87,0,0,0,628,262.63Zm2.12,2.91.2-.26.19-.26a2.39,2.39,0,0,1-.71.31,3.1,3.1,0,0,1-.81.11,2.8,2.8,0,0,1-1-.17,2.43,2.43,0,0,1-.83-.5,2.7,2.7,0,0,1-.59-.84,3.07,3.07,0,0,1-.22-1.18,2.85,2.85,0,0,1,.24-1.17,2.9,2.9,0,0,1,.65-1,3.08,3.08,0,0,1,1-.65,3.37,3.37,0,0,1,1.29-.24,3.49,3.49,0,0,1,1.29.23,2.72,2.72,0,0,1,1,.63,2.56,2.56,0,0,1,.62,1,3.34,3.34,0,0,1,.23,1.24,4.3,4.3,0,0,1-.08.82,4.61,4.61,0,0,1-.21.75,4.94,4.94,0,0,1-.33.7c-.13.23-.27.45-.43.68l-2.14,3.05a.81.81,0,0,1-.33.26,1.15,1.15,0,0,1-.5.11h-1.46Zm10.61.31a4.88,4.88,0,0,1-.19,1.42,3,3,0,0,1-.58,1.08,2.5,2.5,0,0,1-1,.68,3.43,3.43,0,0,1-1.33.24,5.21,5.21,0,0,1-.69,0,4.74,4.74,0,0,1-.7-.13c0-.17,0-.34,0-.51s0-.35,0-.52a.38.38,0,0,1,.11-.23.37.37,0,0,1,.27-.09,1.19,1.19,0,0,1,.28.05,2,2,0,0,0,.46,0,1.89,1.89,0,0,0,.65-.1,1.14,1.14,0,0,0,.47-.34,1.53,1.53,0,0,0,.29-.6,3.88,3.88,0,0,0,.1-.91v-6.05h1.73Zm7.28-3.31v6.63h-1a.38.38,0,0,1-.4-.3l-.11-.52a3.9,3.9,0,0,1-.9.67,2.57,2.57,0,0,1-1.15.25,2.42,2.42,0,0,1-1-.18,1.94,1.94,0,0,1-.7-.53,2.08,2.08,0,0,1-.43-.79,3.31,3.31,0,0,1-.15-1v-4.21h1.6v4.21a1.41,1.41,0,0,0,.28.94,1,1,0,0,0,.84.33,1.72,1.72,0,0,0,.78-.18,2.47,2.47,0,0,0,.68-.51v-4.79Zm3.19-3v9.6h-1.59v-9.6Zm3.25,3v6.63h-1.61v-6.63Zm.22-1.93a.85.85,0,0,1-.09.38,1,1,0,0,1-.22.32,1,1,0,0,1-.33.22,1.06,1.06,0,0,1-.4.08,1,1,0,0,1-.39-.08,1,1,0,0,1-.32-.22,1.21,1.21,0,0,1-.22-.32,1,1,0,0,1-.07-.38,1,1,0,0,1,.07-.4,1.12,1.12,0,0,1,.22-.33,1,1,0,0,1,.32-.21.88.88,0,0,1,.39-.08.9.9,0,0,1,.4.08.93.93,0,0,1,.33.21,1,1,0,0,1,.22.33A.87.87,0,0,1,654.68,260.61Zm10.09,7.07a.56.56,0,0,1,.41.15.49.49,0,0,1,.15.38v1h-6.4v-.53a1.06,1.06,0,0,1,.06-.34.87.87,0,0,1,.22-.32l2.84-2.84.63-.7a3.79,3.79,0,0,0,.47-.65,2.46,2.46,0,0,0,.28-.65,2.35,2.35,0,0,0,.11-.71,1.5,1.5,0,0,0-.1-.58,1,1,0,0,0-.28-.43.91.91,0,0,0-.42-.26,1.64,1.64,0,0,0-.56-.09,1.55,1.55,0,0,0-.53.08,1.22,1.22,0,0,0-.42.23,1.26,1.26,0,0,0-.32.33,1.28,1.28,0,0,0-.19.43.69.69,0,0,1-.29.39.77.77,0,0,1-.5.05l-.84-.15a3.48,3.48,0,0,1,.37-1.18,2.88,2.88,0,0,1,.69-.84,2.77,2.77,0,0,1,1-.51,3.66,3.66,0,0,1,1.16-.18,3.5,3.5,0,0,1,1.19.2,2.57,2.57,0,0,1,.91.53,2.43,2.43,0,0,1,.6.84,2.75,2.75,0,0,1,.21,1.09,2.69,2.69,0,0,1-.16,1,4,4,0,0,1-.4.84,5.34,5.34,0,0,1-.6.77c-.23.25-.46.51-.71.77l-2.11,2.15a4.34,4.34,0,0,1,.6-.14,4,4,0,0,1,.58-.05Zm8.33-3.19a7.45,7.45,0,0,1-.27,2.13,4.31,4.31,0,0,1-.72,1.49A2.92,2.92,0,0,1,671,269a3.25,3.25,0,0,1-1.36.29,3.21,3.21,0,0,1-1.35-.29,2.82,2.82,0,0,1-1.08-.87,4.31,4.31,0,0,1-.72-1.49,8.81,8.81,0,0,1,0-4.25,4.17,4.17,0,0,1,.72-1.48,2.75,2.75,0,0,1,1.08-.88,3.21,3.21,0,0,1,1.35-.29A3.25,3.25,0,0,1,671,260a2.86,2.86,0,0,1,1.09.88,4.17,4.17,0,0,1,.72,1.48A7.43,7.43,0,0,1,673.1,264.49Zm-1.65,0a7.75,7.75,0,0,0-.15-1.67,3.22,3.22,0,0,0-.4-1.06,1.3,1.3,0,0,0-.57-.55,1.42,1.42,0,0,0-1.9.55,3.47,3.47,0,0,0-.39,1.06,10.09,10.09,0,0,0,0,3.35,3.47,3.47,0,0,0,.39,1.06,1.46,1.46,0,0,0,1.9.56,1.39,1.39,0,0,0,.57-.56,3.22,3.22,0,0,0,.4-1.06A7.78,7.78,0,0,0,671.45,264.49Zm8.31,3.19a.52.52,0,0,1,.4.15.46.46,0,0,1,.16.38v1h-6.41v-.53a.86.86,0,0,1,.07-.34.87.87,0,0,1,.22-.32l2.83-2.84c.24-.25.45-.48.64-.7a5.3,5.3,0,0,0,.47-.65,2.84,2.84,0,0,0,.28-.65,2.35,2.35,0,0,0,.11-.71,1.72,1.72,0,0,0-.1-.58,1.11,1.11,0,0,0-.28-.43,1,1,0,0,0-.43-.26,1.55,1.55,0,0,0-.55-.09,1.51,1.51,0,0,0-.53.08,1.37,1.37,0,0,0-.43.23,1.22,1.22,0,0,0-.31.33,1.3,1.3,0,0,0-.2.43.68.68,0,0,1-.28.39.81.81,0,0,1-.51.05l-.83-.15a3.27,3.27,0,0,1,.37-1.18,2.73,2.73,0,0,1,.69-.84,2.77,2.77,0,0,1,1-.51,3.66,3.66,0,0,1,1.16-.18,3.44,3.44,0,0,1,1.18.2,2.61,2.61,0,0,1,.92.53,2.41,2.41,0,0,1,.59.84,2.75,2.75,0,0,1,.21,1.09,2.93,2.93,0,0,1-.15,1,3.62,3.62,0,0,1-.41.84,4.64,4.64,0,0,1-.59.77l-.72.77-2.1,2.15a4.34,4.34,0,0,1,.6-.14,3.88,3.88,0,0,1,.57-.05Zm7.49,0a.56.56,0,0,1,.41.15.49.49,0,0,1,.15.38v1h-6.4v-.53a1.06,1.06,0,0,1,.06-.34.87.87,0,0,1,.22-.32l2.84-2.84.63-.7a3.79,3.79,0,0,0,.47-.65,2.46,2.46,0,0,0,.28-.65,2.35,2.35,0,0,0,.11-.71,1.5,1.5,0,0,0-.1-.58,1,1,0,0,0-.28-.43.91.91,0,0,0-.42-.26,1.64,1.64,0,0,0-.56-.09,1.55,1.55,0,0,0-.53.08,1.22,1.22,0,0,0-.42.23,1.12,1.12,0,0,0-.32.33,1.28,1.28,0,0,0-.19.43.69.69,0,0,1-.29.39.78.78,0,0,1-.5.05l-.84-.15a3.48,3.48,0,0,1,.37-1.18,2.88,2.88,0,0,1,.69-.84,2.77,2.77,0,0,1,1-.51,3.66,3.66,0,0,1,1.16-.18,3.4,3.4,0,0,1,1.18.2,2.53,2.53,0,0,1,.92.53,2.57,2.57,0,0,1,.6.84,2.75,2.75,0,0,1,.21,1.09,2.69,2.69,0,0,1-.16,1,4,4,0,0,1-.4.84,5.34,5.34,0,0,1-.6.77l-.72.77-2.1,2.15a4.34,4.34,0,0,1,.6-.14,3.88,3.88,0,0,1,.57-.05Z" style="fill:#1a4373"/><g style="clip-path:url(#clip-path-7)"><path d="M117.28,159.71h37.58a4.69,4.69,0,0,1,4.69,4.69V202a4.7,4.7,0,0,1-4.69,4.7H122a4.7,4.7,0,0,1-4.7-4.7Z" style="fill:#16a75c"/><circle cx="125.5" cy="172.62" r="3.52" style="fill:#fff"/><path d="M133.72,169.1h8.22a1.17,1.17,0,0,1,1.17,1.18h0a1.17,1.17,0,0,1-1.17,1.17h-8.22a1.17,1.17,0,0,1-1.17-1.17h0A1.17,1.17,0,0,1,133.72,169.1Z" style="fill:#fff"/><path d="M133.72,173.8h10.57a1.17,1.17,0,0,1,1.17,1.17h0a1.17,1.17,0,0,1-1.17,1.18H133.72a1.17,1.17,0,0,1-1.17-1.18h0A1.17,1.17,0,0,1,133.72,173.8Z" style="fill:#9bdbb3"/><circle cx="125.5" cy="184.37" r="2.94" style="fill:none;stroke:#fff;stroke-width:1.1743099689483643px"/><path d="M133.72,180.84h4.7a1.17,1.17,0,0,1,1.17,1.18h0a1.17,1.17,0,0,1-1.17,1.17h-4.7a1.17,1.17,0,0,1-1.17-1.17h0A1.17,1.17,0,0,1,133.72,180.84Z" style="fill:#fff"/><path d="M133.72,185.54h10.57a1.17,1.17,0,0,1,1.17,1.18h0a1.17,1.17,0,0,1-1.17,1.17H133.72a1.17,1.17,0,0,1-1.17-1.17h0A1.17,1.17,0,0,1,133.72,185.54Z" style="fill:#9bdbb3"/><path d="M117.28,196.11a1.17,1.17,0,0,1,1.17-1.17h45.8a1.17,1.17,0,0,1,1.18,1.17v3.52a7.05,7.05,0,0,1-7.05,7.05h-34a7,7,0,0,1-7-7.05Z" style="fill:#4dc27e"/><path d="M117.28,194.94h10.57v6.45a5.29,5.29,0,1,1-10.57,0Z" style="fill:#16a75c"/><path d="M126.66,152.57l-2.81,1.8-1,3.18-1.8-2.81-3.18-1,2.81-1.8,1-3.18,1.8,2.81Z" style="fill:#9b27b0"/><rect x="112.58" y="159.71" width="4.7" height="4.7" style="fill:#16a75c"/><rect x="164.33" y="180.92" width="6.6" height="6.6" rx="1.17" transform="translate(-77.81 226.64) rotate(-57.51)" style="fill:#ffa600"/><path d="M109.06,163.82a4.11,4.11,0,0,1,8.22,0v10h-7a1.17,1.17,0,0,1-1.17-1.18Z" style="fill:#069550"/><path d="M166.15,162.54a2.35,2.35,0,0,1,3.33,0l1.26,1.26a2.34,2.34,0,0,1,0,3.32l-15.25,15.26a2.42,2.42,0,0,1-1.1.62l-4.51,1.12a.6.6,0,0,1-.72-.72l1.12-4.51a2.42,2.42,0,0,1,.62-1.1Z" style="fill:#001b3d"/><line x1="163.49" y1="165.16" x2="168.19" y2="169.86" style="fill:none;stroke:#e3e7ed;stroke-width:1.1743099689483643px"/></g><path d="M96.2,237.71a3.68,3.68,0,0,0,1.21-.17,2.33,2.33,0,0,0,.86-.49,2.07,2.07,0,0,0,.51-.79,3.17,3.17,0,0,0,.17-1,2.76,2.76,0,0,0-.17-1,1.79,1.79,0,0,0-.51-.75,2.06,2.06,0,0,0-.85-.47,3.71,3.71,0,0,0-1.22-.17H94.31v4.87Zm0-6.83a7.88,7.88,0,0,1,2.36.32,4.53,4.53,0,0,1,1.64.9,3.48,3.48,0,0,1,1,1.37,4.68,4.68,0,0,1,.32,1.74,4.87,4.87,0,0,1-.33,1.82,3.85,3.85,0,0,1-1,1.41,4.69,4.69,0,0,1-1.65.92,7.31,7.31,0,0,1-2.31.33H94.31v4.78H91.78V230.88Zm12.62,7.66a2.65,2.65,0,0,0-.13-.85,2,2,0,0,0-.38-.7,1.65,1.65,0,0,0-.65-.47,2.06,2.06,0,0,0-.9-.18,2.18,2.18,0,0,0-1.59.57,2.91,2.91,0,0,0-.73,1.63Zm-4.43,1.4a4.74,4.74,0,0,0,.27,1.29,2.72,2.72,0,0,0,.54.89,2.28,2.28,0,0,0,.8.53,3.53,3.53,0,0,0,2,0,3.72,3.72,0,0,0,.72-.29l.53-.29a.91.91,0,0,1,.45-.13.47.47,0,0,1,.43.21l.67.85a3.85,3.85,0,0,1-.86.76,5.54,5.54,0,0,1-1,.49,5.45,5.45,0,0,1-1.06.25,7.51,7.51,0,0,1-1,.08,5.18,5.18,0,0,1-1.87-.33,4.14,4.14,0,0,1-1.5-1,4.55,4.55,0,0,1-1-1.61,6.41,6.41,0,0,1-.37-2.24,5.37,5.37,0,0,1,.32-1.85,4.58,4.58,0,0,1,.91-1.51,4.39,4.39,0,0,1,1.46-1,5.18,5.18,0,0,1,3.63-.08,3.66,3.66,0,0,1,1.32.85,3.72,3.72,0,0,1,.86,1.38,4.85,4.85,0,0,1,.32,1.85,1.45,1.45,0,0,1-.11.71.46.46,0,0,1-.43.18ZM114.82,236a5.15,5.15,0,0,1,.61-.53,4.54,4.54,0,0,1,.68-.43,4.23,4.23,0,0,1,.78-.27,3.71,3.71,0,0,1,.9-.1,3.4,3.4,0,0,1,1.4.27,2.77,2.77,0,0,1,1,.75,3.31,3.31,0,0,1,.62,1.16,4.83,4.83,0,0,1,.21,1.47v6.14h-2.32v-6.14a2,2,0,0,0-.4-1.36,1.52,1.52,0,0,0-1.23-.49,2.34,2.34,0,0,0-1.13.28,3.76,3.76,0,0,0-1,.74v7h-2.32v-9.64h1.42a.58.58,0,0,1,.59.42Zm14.48,1.28a2.25,2.25,0,0,0-.86-.68,2.54,2.54,0,0,0-1-.19,2.27,2.27,0,0,0-1,.19,2,2,0,0,0-.72.6,3,3,0,0,0-.46,1,5.64,5.64,0,0,0-.16,1.45,6.52,6.52,0,0,0,.13,1.43,3,3,0,0,0,.4,1,1.5,1.5,0,0,0,.61.54,2.18,2.18,0,0,0,.82.16,2.34,2.34,0,0,0,1.23-.3,3.63,3.63,0,0,0,1-.86Zm2.32-6.78v14H130.2a.55.55,0,0,1-.58-.43l-.2-.92a4.83,4.83,0,0,1-1.34,1.08,3.66,3.66,0,0,1-1.76.41,3.17,3.17,0,0,1-1.44-.33,3.34,3.34,0,0,1-1.14-.95,4.65,4.65,0,0,1-.73-1.55,7.83,7.83,0,0,1-.26-2.1,6.76,6.76,0,0,1,.29-2,5,5,0,0,1,.84-1.59,3.81,3.81,0,0,1,1.31-1.05,3.65,3.65,0,0,1,1.71-.39,3.58,3.58,0,0,1,1.38.25,3.53,3.53,0,0,1,1,.69v-5.08Zm7.38,9.84a11.68,11.68,0,0,0-1.69.18,4.56,4.56,0,0,0-1.1.32,1.52,1.52,0,0,0-.59.46,1,1,0,0,0-.18.57,1,1,0,0,0,.36.88,1.62,1.62,0,0,0,.95.26,2.76,2.76,0,0,0,1.23-.25,3.8,3.8,0,0,0,1-.79Zm-5.31-4.18a5.72,5.72,0,0,1,4-1.52,3.8,3.8,0,0,1,1.51.28,3.11,3.11,0,0,1,1.13.77,3.23,3.23,0,0,1,.69,1.18,4.25,4.25,0,0,1,.25,1.5v6.09h-1.05a1,1,0,0,1-.51-.1.7.7,0,0,1-.28-.4l-.21-.7a8.86,8.86,0,0,1-.71.59,4.83,4.83,0,0,1-.73.41,3.55,3.55,0,0,1-.8.25,4,4,0,0,1-.94.1,3.67,3.67,0,0,1-1.13-.16,2.55,2.55,0,0,1-.9-.5,2.22,2.22,0,0,1-.58-.82,2.82,2.82,0,0,1-.2-1.13,2.28,2.28,0,0,1,.12-.73,2.18,2.18,0,0,1,.39-.69,3.26,3.26,0,0,1,.73-.62,4.17,4.17,0,0,1,1.08-.51,9.8,9.8,0,0,1,1.5-.35,15.23,15.23,0,0,1,1.95-.17v-.56a2.09,2.09,0,0,0-.41-1.43,1.5,1.5,0,0,0-1.19-.47,3.08,3.08,0,0,0-.94.13,3.94,3.94,0,0,0-.65.3l-.52.3a1.06,1.06,0,0,1-.5.13.66.66,0,0,1-.42-.13,1,1,0,0,1-.27-.3Zm10.27,8.3v-7.89l-.83-.13a1,1,0,0,1-.44-.19.51.51,0,0,1-.16-.4v-1H144v-.71a4.35,4.35,0,0,1,.25-1.49,3.26,3.26,0,0,1,.71-1.11,3.33,3.33,0,0,1,1.14-.71,4.41,4.41,0,0,1,1.5-.24,4.08,4.08,0,0,1,1.24.18l0,1.16a.39.39,0,0,1-.08.22.41.41,0,0,1-.18.12l-.24.06H148a2.86,2.86,0,0,0-.75.09,1.22,1.22,0,0,0-.54.31,1.39,1.39,0,0,0-.35.58,3.22,3.22,0,0,0-.11.89v.64h2.51v1.66h-2.43v7.9Zm9.28.15a2.57,2.57,0,0,1-1.94-.71,2.73,2.73,0,0,1-.67-2v-5.38h-1a.44.44,0,0,1-.32-.12.49.49,0,0,1-.13-.37v-.92l1.55-.26.48-2.63a.52.52,0,0,1,.18-.29.53.53,0,0,1,.34-.1H153v3h2.58v1.66H153v5.22a1,1,0,0,0,.22.7.77.77,0,0,0,.61.26,1.25,1.25,0,0,0,.36-.05l.25-.11.2-.1a.27.27,0,0,1,.17-.06.25.25,0,0,1,.17.06.69.69,0,0,1,.14.15l.69,1.12a3.46,3.46,0,0,1-1.16.64A4.17,4.17,0,0,1,153.24,244.62Zm8.86-4.27a11.68,11.68,0,0,0-1.69.18,4.33,4.33,0,0,0-1.09.32,1.49,1.49,0,0,0-.6.46,1,1,0,0,0-.18.57,1,1,0,0,0,.36.88,1.64,1.64,0,0,0,.95.26,2.73,2.73,0,0,0,1.23-.25,3.8,3.8,0,0,0,1-.79Zm-5.31-4.18a5.73,5.73,0,0,1,4-1.52,3.8,3.8,0,0,1,1.51.28,3.11,3.11,0,0,1,1.82,1.95,4.25,4.25,0,0,1,.25,1.5v6.09h-1.05a1,1,0,0,1-.51-.1.7.7,0,0,1-.28-.4l-.21-.7a8.86,8.86,0,0,1-.71.59,4.39,4.39,0,0,1-.73.41,3.55,3.55,0,0,1-.8.25,4,4,0,0,1-.94.1,3.67,3.67,0,0,1-1.13-.16,2.42,2.42,0,0,1-.89-.5,2.24,2.24,0,0,1-.59-.82,3,3,0,0,1-.2-1.13,2.28,2.28,0,0,1,.12-.73,2.18,2.18,0,0,1,.39-.69,3.26,3.26,0,0,1,.73-.62,4.17,4.17,0,0,1,1.08-.51,9.8,9.8,0,0,1,1.5-.35,15.23,15.23,0,0,1,1.95-.17v-.56a2.09,2.09,0,0,0-.41-1.43,1.5,1.5,0,0,0-1.19-.47,3.08,3.08,0,0,0-.94.13,4.37,4.37,0,0,0-.65.3l-.52.3a1.06,1.06,0,0,1-.5.13.66.66,0,0,1-.42-.13,1,1,0,0,1-.27-.3Zm12,.33a4.13,4.13,0,0,1,1.07-1.35,2.31,2.31,0,0,1,1.47-.5,1.83,1.83,0,0,1,1.07.29l-.15,1.74a.46.46,0,0,1-.14.24.34.34,0,0,1-.24.07,3.21,3.21,0,0,1-.42-.05,3.23,3.23,0,0,0-.53,0,1.85,1.85,0,0,0-.69.11,1.51,1.51,0,0,0-.54.33,2.19,2.19,0,0,0-.43.51,3.92,3.92,0,0,0-.33.68v5.94h-2.33v-9.64h1.37a.7.7,0,0,1,.49.13.68.68,0,0,1,.19.45Zm9.79,3.85a11.52,11.52,0,0,0-1.69.18,4.29,4.29,0,0,0-1.1.32,1.38,1.38,0,0,0-.59.46,1,1,0,0,0-.18.57,1,1,0,0,0,.35.88,1.64,1.64,0,0,0,1,.26,2.73,2.73,0,0,0,1.23-.25,3.84,3.84,0,0,0,1-.79Zm-5.32-4.18a5.73,5.73,0,0,1,4-1.52,3.8,3.8,0,0,1,1.51.28,3.11,3.11,0,0,1,1.13.77,3.25,3.25,0,0,1,.7,1.18,4.49,4.49,0,0,1,.24,1.5v6.09h-1a1,1,0,0,1-.51-.1.7.7,0,0,1-.28-.4l-.21-.7a8.86,8.86,0,0,1-.71.59,4.3,4.3,0,0,1-.72.41,3.63,3.63,0,0,1-.81.25,3.93,3.93,0,0,1-.94.1,3.67,3.67,0,0,1-1.13-.16,2.51,2.51,0,0,1-.89-.5,2.11,2.11,0,0,1-.58-.82,2.81,2.81,0,0,1-.21-1.13,2.28,2.28,0,0,1,.12-.73,2,2,0,0,1,.4-.69A3.19,3.19,0,0,1,174,240a4.17,4.17,0,0,1,1.08-.51,9.8,9.8,0,0,1,1.5-.35,15.24,15.24,0,0,1,2-.17v-.56a2.09,2.09,0,0,0-.42-1.43,1.5,1.5,0,0,0-1.19-.47,3.08,3.08,0,0,0-.94.13,4.37,4.37,0,0,0-.65.3l-.51.3a1.07,1.07,0,0,1-.51.13.63.63,0,0,1-.41-.13.89.89,0,0,1-.28-.3Zm11.94-.16a5.15,5.15,0,0,1,.61-.53,4.54,4.54,0,0,1,.68-.43,4.23,4.23,0,0,1,.78-.27,3.71,3.71,0,0,1,.9-.1,3.4,3.4,0,0,1,1.4.27,2.77,2.77,0,0,1,1,.75,3.31,3.31,0,0,1,.62,1.16,4.83,4.83,0,0,1,.22,1.47v6.14h-2.33v-6.14a2,2,0,0,0-.4-1.36,1.52,1.52,0,0,0-1.23-.49,2.34,2.34,0,0,0-1.13.28,3.76,3.76,0,0,0-1,.74v7H183v-9.64h1.42a.57.57,0,0,1,.59.42Z" style="fill:#069550"/><path d="M86.63,267.68a.52.52,0,0,1,.4.15.46.46,0,0,1,.16.38v1H80.78v-.53a.86.86,0,0,1,.07-.34.77.77,0,0,1,.22-.32l2.83-2.84c.24-.25.45-.48.64-.7a5.3,5.3,0,0,0,.47-.65,2.84,2.84,0,0,0,.28-.65,2.34,2.34,0,0,0,.1-.71,1.72,1.72,0,0,0-.09-.58,1.11,1.11,0,0,0-.28-.43,1,1,0,0,0-.43-.26,1.59,1.59,0,0,0-.55-.09,1.51,1.51,0,0,0-.53.08,1.37,1.37,0,0,0-.43.23,1.22,1.22,0,0,0-.31.33,1.3,1.3,0,0,0-.2.43.68.68,0,0,1-.28.39.81.81,0,0,1-.51.05l-.84-.15a3.48,3.48,0,0,1,.38-1.18,2.59,2.59,0,0,1,.69-.84,2.77,2.77,0,0,1,1-.51,3.62,3.62,0,0,1,1.16-.18,3.44,3.44,0,0,1,1.18.2,2.61,2.61,0,0,1,.92.53,2.41,2.41,0,0,1,.59.84,2.75,2.75,0,0,1,.21,1.09,2.93,2.93,0,0,1-.15,1,4.08,4.08,0,0,1-.41.84,5.26,5.26,0,0,1-.59.77l-.72.77-2.1,2.15a4.34,4.34,0,0,1,.6-.14,3.88,3.88,0,0,1,.57-.05Zm5.75-2v-3.05a8.51,8.51,0,0,1,.06-1l-2.9,4Zm2.57,0v.93a.35.35,0,0,1-.09.23.3.3,0,0,1-.24.09h-.85v2.28H92.38v-2.28H88.44a.48.48,0,0,1-.28-.1.51.51,0,0,1-.16-.25l-.16-.81,4.42-5.91h1.51v5.82Zm7.7.21a4.88,4.88,0,0,1-.19,1.42,3,3,0,0,1-.58,1.08,2.66,2.66,0,0,1-1,.68,3.45,3.45,0,0,1-1.34.24,5.06,5.06,0,0,1-.68,0,4.74,4.74,0,0,1-.7-.13c0-.17,0-.34,0-.51s0-.35.05-.52a.38.38,0,0,1,.11-.23.37.37,0,0,1,.27-.09,1.28,1.28,0,0,1,.28.05,2.35,2.35,0,0,0,1.11-.06,1.14,1.14,0,0,0,.47-.34,1.68,1.68,0,0,0,.29-.6,3.94,3.94,0,0,0,.09-.91v-6.05h1.74Zm7.28-3.31v6.63h-1a.38.38,0,0,1-.4-.3l-.11-.52a3.9,3.9,0,0,1-.9.67,2.6,2.6,0,0,1-1.15.25,2.43,2.43,0,0,1-1-.18,2.13,2.13,0,0,1-.7-.53,2.4,2.4,0,0,1-.43-.79,3.64,3.64,0,0,1-.14-1v-4.21h1.6v4.21a1.46,1.46,0,0,0,.27.94,1.07,1.07,0,0,0,.85.33,1.71,1.71,0,0,0,.77-.18,2.51,2.51,0,0,0,.69-.51v-4.79Zm3.07.81a5,5,0,0,1,.42-.37,3.31,3.31,0,0,1,.47-.29,2.45,2.45,0,0,1,.54-.18,2.33,2.33,0,0,1,.62-.08,2.42,2.42,0,0,1,1,.19,1.92,1.92,0,0,1,.7.52,2.21,2.21,0,0,1,.42.79,3.31,3.31,0,0,1,.15,1v4.22h-1.6V265a1.44,1.44,0,0,0-.27-.94,1.06,1.06,0,0,0-.85-.34,1.72,1.72,0,0,0-.77.19,3,3,0,0,0-.69.51v4.8h-1.59v-6.63h1a.4.4,0,0,1,.41.29Zm7.45-.81v6.63h-1.6v-6.63Zm.22-1.93a1,1,0,0,1-.08.38,1,1,0,0,1-.23.32,1,1,0,0,1-.32.22,1,1,0,0,1-.8,0,1,1,0,0,1-.31-.22,1,1,0,0,1-.22-.32,1,1,0,0,1-.08-.38,1,1,0,0,1,.08-.4,1,1,0,0,1,.22-.33,1,1,0,0,1,.31-.21,1,1,0,0,1,.8,0,1,1,0,0,1,.55.54A1,1,0,0,1,120.67,260.61Zm4.5,4h3.34v1.33h-3.34Zm14.39-.11a7.45,7.45,0,0,1-.27,2.13,4.31,4.31,0,0,1-.72,1.49,2.85,2.85,0,0,1-1.09.87,3.25,3.25,0,0,1-1.36.29,3.21,3.21,0,0,1-1.35-.29,2.82,2.82,0,0,1-1.08-.87,4.31,4.31,0,0,1-.72-1.49,8.81,8.81,0,0,1,0-4.25,4.17,4.17,0,0,1,.72-1.48,2.75,2.75,0,0,1,1.08-.88,3.21,3.21,0,0,1,1.35-.29,3.25,3.25,0,0,1,1.36.29,2.78,2.78,0,0,1,1.09.88,4.17,4.17,0,0,1,.72,1.48A7.43,7.43,0,0,1,139.56,264.49Zm-1.65,0a7.75,7.75,0,0,0-.15-1.67,3.22,3.22,0,0,0-.4-1.06,1.3,1.3,0,0,0-.57-.55,1.41,1.41,0,0,0-.67-.16,1.43,1.43,0,0,0-.66.16,1.34,1.34,0,0,0-.56.55,3.22,3.22,0,0,0-.4,1.06,10.09,10.09,0,0,0,0,3.35,3.22,3.22,0,0,0,.4,1.06,1.43,1.43,0,0,0,.56.56,1.55,1.55,0,0,0,.66.15,1.53,1.53,0,0,0,.67-.15,1.39,1.39,0,0,0,.57-.56,3.22,3.22,0,0,0,.4-1.06A7.78,7.78,0,0,0,137.91,264.49Zm5.72,3.53a2.08,2.08,0,0,0,.69-.11,1.57,1.57,0,0,0,.5-.31,1.37,1.37,0,0,0,.31-.48,1.72,1.72,0,0,0,.1-.6,1.52,1.52,0,0,0-.43-1.17,1.65,1.65,0,0,0-1.17-.39,1.7,1.7,0,0,0-1.18.39,1.55,1.55,0,0,0-.42,1.17,1.72,1.72,0,0,0,.1.6,1.5,1.5,0,0,0,.3.48,1.62,1.62,0,0,0,.51.31A2.08,2.08,0,0,0,143.63,268Zm0-7.1a1.58,1.58,0,0,0-.61.11,1.42,1.42,0,0,0-.44.3,1.27,1.27,0,0,0-.25.42,1.69,1.69,0,0,0-.08.5,2,2,0,0,0,.07.55,1.33,1.33,0,0,0,.23.46,1.18,1.18,0,0,0,.43.32,1.39,1.39,0,0,0,.65.13,1.42,1.42,0,0,0,.65-.13,1.18,1.18,0,0,0,.43-.32,1.15,1.15,0,0,0,.22-.46,2,2,0,0,0,.08-.55,1.43,1.43,0,0,0-.09-.5,1.12,1.12,0,0,0-.25-.42,1.38,1.38,0,0,0-.43-.3A1.58,1.58,0,0,0,143.63,260.92Zm1.58,3.38a2.37,2.37,0,0,1,1.25.85,2.27,2.27,0,0,1,.41,1.39,2.6,2.6,0,0,1-.24,1.13,2.39,2.39,0,0,1-.66.86,3.11,3.11,0,0,1-1,.55,4.68,4.68,0,0,1-2.64,0,3.11,3.11,0,0,1-1-.55,2.54,2.54,0,0,1-.67-.86,2.6,2.6,0,0,1-.23-1.13,2.33,2.33,0,0,1,.4-1.39,2.44,2.44,0,0,1,1.26-.85,2.2,2.2,0,0,1-1-.81,2.32,2.32,0,0,1-.33-1.26,2.26,2.26,0,0,1,.82-1.78,2.61,2.61,0,0,1,.92-.53,3.5,3.5,0,0,1,1.19-.2,3.44,3.44,0,0,1,1.18.2,2.66,2.66,0,0,1,.93.53,2.22,2.22,0,0,1,.6.79,2.43,2.43,0,0,1-.12,2.25A2.13,2.13,0,0,1,145.21,264.3Zm9.54,1.55a4.88,4.88,0,0,1-.19,1.42,3.11,3.11,0,0,1-.58,1.08,2.66,2.66,0,0,1-1,.68,3.45,3.45,0,0,1-1.34.24,5.06,5.06,0,0,1-.68,0,4.86,4.86,0,0,1-.71-.13c0-.17,0-.34.05-.51s0-.35,0-.52a.45.45,0,0,1,.11-.23.4.4,0,0,1,.27-.09,1.26,1.26,0,0,1,.29.05,1.92,1.92,0,0,0,.45,0,1.85,1.85,0,0,0,.65-.1,1.17,1.17,0,0,0,.48-.34,1.68,1.68,0,0,0,.29-.6,3.94,3.94,0,0,0,.09-.91v-6.05h1.74Zm7.27-3.31v6.63h-1a.37.37,0,0,1-.4-.3l-.11-.52a3.9,3.9,0,0,1-.9.67,2.61,2.61,0,0,1-1.16.25,2.42,2.42,0,0,1-1-.18,2,2,0,0,1-.7-.53,2.23,2.23,0,0,1-.43-.79,3.64,3.64,0,0,1-.14-1v-4.21h1.59v4.21a1.46,1.46,0,0,0,.28.94,1.06,1.06,0,0,0,.85.33,1.71,1.71,0,0,0,.77-.18,2.67,2.67,0,0,0,.69-.51v-4.79Zm3.2-3v9.6h-1.6v-9.6Zm3.24,3v6.63h-1.6v-6.63Zm.22-1.93a1,1,0,0,1-.08.38,1,1,0,0,1-.23.32,1,1,0,0,1-.32.22,1.1,1.1,0,0,1-.4.08,1,1,0,0,1-.39-.08.91.91,0,0,1-.32-.22,1,1,0,0,1-.22-.32,1,1,0,0,1-.08-.38,1,1,0,0,1,.08-.4,1,1,0,0,1,.22-.33.89.89,0,0,1,.32-.21.85.85,0,0,1,.39-.08.92.92,0,0,1,.4.08,1,1,0,0,1,.55.54A1,1,0,0,1,168.68,260.61Zm10.1,7.07a.52.52,0,0,1,.4.15.46.46,0,0,1,.16.38v1h-6.41v-.53a.86.86,0,0,1,.07-.34.77.77,0,0,1,.22-.32l2.83-2.84c.24-.25.45-.48.63-.7a3.87,3.87,0,0,0,.48-.65,2.84,2.84,0,0,0,.28-.65,2.34,2.34,0,0,0,.1-.71,1.72,1.72,0,0,0-.09-.58,1.11,1.11,0,0,0-.28-.43,1,1,0,0,0-.43-.26,1.55,1.55,0,0,0-.55-.09,1.51,1.51,0,0,0-.53.08,1.37,1.37,0,0,0-.43.23,1.22,1.22,0,0,0-.31.33,1.3,1.3,0,0,0-.2.43.68.68,0,0,1-.28.39.81.81,0,0,1-.51.05l-.84-.15a3.48,3.48,0,0,1,.38-1.18,2.59,2.59,0,0,1,.69-.84,2.77,2.77,0,0,1,1-.51,3.66,3.66,0,0,1,1.16-.18,3.44,3.44,0,0,1,1.18.2,2.61,2.61,0,0,1,.92.53,2.41,2.41,0,0,1,.59.84,2.75,2.75,0,0,1,.21,1.09,2.93,2.93,0,0,1-.15,1,4.08,4.08,0,0,1-.41.84,4.64,4.64,0,0,1-.59.77l-.72.77-2.1,2.15a4.34,4.34,0,0,1,.6-.14,3.88,3.88,0,0,1,.57-.05Zm8.32-3.19a7.48,7.48,0,0,1-.26,2.13,4.31,4.31,0,0,1-.72,1.49,2.88,2.88,0,0,1-1.1.87,3.21,3.21,0,0,1-1.35.29,3.25,3.25,0,0,1-1.36-.29,3,3,0,0,1-1.08-.87,4.49,4.49,0,0,1-.71-1.49,8.81,8.81,0,0,1,0-4.25,4.34,4.34,0,0,1,.71-1.48,2.9,2.9,0,0,1,1.08-.88,3.25,3.25,0,0,1,1.36-.29A3.21,3.21,0,0,1,185,260a2.81,2.81,0,0,1,1.1.88,4.17,4.17,0,0,1,.72,1.48A7.45,7.45,0,0,1,187.1,264.49Zm-1.64,0a7.75,7.75,0,0,0-.15-1.67,3.22,3.22,0,0,0-.4-1.06,1.41,1.41,0,0,0-.57-.55,1.48,1.48,0,0,0-1.34,0,1.34,1.34,0,0,0-.56.55,3.47,3.47,0,0,0-.39,1.06,9.43,9.43,0,0,0,0,3.35,3.47,3.47,0,0,0,.39,1.06,1.43,1.43,0,0,0,.56.56,1.57,1.57,0,0,0,1.34,0,1.51,1.51,0,0,0,.57-.56,3.22,3.22,0,0,0,.4-1.06A7.78,7.78,0,0,0,185.46,264.49Zm8.3,3.19a.54.54,0,0,1,.41.15.5.5,0,0,1,.16.38v1h-6.41v-.53a1.06,1.06,0,0,1,.06-.34.87.87,0,0,1,.22-.32l2.84-2.84c.24-.25.45-.48.63-.7a3.79,3.79,0,0,0,.47-.65,2.88,2.88,0,0,0,.29-.65,2.34,2.34,0,0,0,.1-.71,1.5,1.5,0,0,0-.1-.58,1.09,1.09,0,0,0-.7-.69,1.6,1.6,0,0,0-.56-.09,1.49,1.49,0,0,0-.52.08,1.27,1.27,0,0,0-.43.23,1.26,1.26,0,0,0-.32.33,1.52,1.52,0,0,0-.19.43.69.69,0,0,1-.29.39.77.77,0,0,1-.5.05l-.84-.15a3.48,3.48,0,0,1,.38-1.18,2.59,2.59,0,0,1,.69-.84,2.73,2.73,0,0,1,.95-.51,3.66,3.66,0,0,1,1.16-.18,3.45,3.45,0,0,1,1.19.2,2.57,2.57,0,0,1,.91.53,2.31,2.31,0,0,1,.6.84,2.75,2.75,0,0,1,.21,1.09,2.93,2.93,0,0,1-.15,1,4.08,4.08,0,0,1-.41.84,5.34,5.34,0,0,1-.6.77c-.22.25-.46.51-.71.77l-2.11,2.15a5.13,5.13,0,0,1,.6-.14,4.13,4.13,0,0,1,.58-.05Zm7.5,0a.52.52,0,0,1,.4.15.46.46,0,0,1,.16.38v1h-6.41v-.53a.86.86,0,0,1,.07-.34.77.77,0,0,1,.22-.32l2.83-2.84c.24-.25.45-.48.63-.7a4.51,4.51,0,0,0,.48-.65,2.84,2.84,0,0,0,.28-.65,2.34,2.34,0,0,0,.1-.71,1.72,1.72,0,0,0-.09-.58,1.11,1.11,0,0,0-.28-.43,1,1,0,0,0-.43-.26,1.59,1.59,0,0,0-.55-.09,1.51,1.51,0,0,0-.53.08,1.37,1.37,0,0,0-.43.23,1.22,1.22,0,0,0-.31.33,1.3,1.3,0,0,0-.2.43.68.68,0,0,1-.28.39.81.81,0,0,1-.51.05l-.84-.15a3.48,3.48,0,0,1,.38-1.18,2.59,2.59,0,0,1,.69-.84,2.77,2.77,0,0,1,1-.51,3.62,3.62,0,0,1,1.16-.18,3.44,3.44,0,0,1,1.18.2,2.61,2.61,0,0,1,.92.53,2.41,2.41,0,0,1,.59.84,2.75,2.75,0,0,1,.21,1.09,2.93,2.93,0,0,1-.15,1,4.08,4.08,0,0,1-.41.84,5.26,5.26,0,0,1-.59.77l-.72.77-2.1,2.15a4.34,4.34,0,0,1,.6-.14,3.88,3.88,0,0,1,.57-.05Z" style="fill:#1a4373"/><g style="clip-path:url(#clip-path-8)"><path d="M355.08,194.37l3.24-3.31.35-4.62,3.32,3.24,4.62.35-3.24,3.31L363,198l-3.32-3.23Z" style="fill:#ffa600"/><rect x="416.13" y="156.18" width="6.33" height="6.33" rx="1.36" transform="translate(-23.01 233.95) rotate(-30.38)" style="fill:#1e88e5"/><path d="M388.17,149.84a3.86,3.86,0,0,0-5.26,1.41l-1.28,2.22-9.09-5.24a2.35,2.35,0,0,0-3.21.86l-13.7,23.73a2.35,2.35,0,0,0,.86,3.21l9.09,5.25,1.28-2.23a3.85,3.85,0,0,1,6.67,3.85l-1.28,2.23,8,4.6a2.34,2.34,0,0,0,3.21-.86l4.39-7.59-3-1.72a4.71,4.71,0,0,1-1.72-6.43l.88-1.51a4.7,4.7,0,0,1,6.42-1.72l3,1.72,3.74-6.48a2.34,2.34,0,0,0-.86-3.21l-8-4.6,1.28-2.23A3.84,3.84,0,0,0,388.17,149.84Z" style="fill:#1fb767;fill-rule:evenodd"/><path d="M386.45,178.5a3.85,3.85,0,1,1,3.86-6.67l2.22,1.28,4.6-8a2.35,2.35,0,0,1,3.22-.86l8,4.6L407,171.11a3.86,3.86,0,0,0,6.68,3.85l1.28-2.23,9.08,5.25a2.36,2.36,0,0,1,.87,3.21l-4.61,8-2.22-1.28a3.85,3.85,0,1,0-3.85,6.67l2.22,1.29-5.24,9.08a2.36,2.36,0,0,1-3.22.86l-9.08-5.24-1.29,2.22a3.85,3.85,0,1,1-6.67-3.85l1.29-2.23-8-4.6a2.35,2.35,0,0,1-.87-3.21l5.25-9.08Z" style="fill:#001b3d;fill-rule:evenodd"/></g><path d="M345.08,230.88v13.59h-2.22v-8.78c0-.35,0-.73.05-1.13l-4.1,7.71a1,1,0,0,1-.9.55h-.35a.94.94,0,0,1-.89-.55l-4.16-7.74c0,.21,0,.41.05.61s0,.38,0,.55v8.78h-2.23V230.88h2.2a.79.79,0,0,1,.22.05.63.63,0,0,1,.18.12,1.14,1.14,0,0,1,.15.23l4.07,7.54a5,5,0,0,1,.29.62c.1.21.19.43.28.66a6.69,6.69,0,0,1,.27-.67,6.09,6.09,0,0,1,.3-.63l4-7.52a.84.84,0,0,1,.16-.23.63.63,0,0,1,.18-.12.79.79,0,0,1,.22-.05h2.2Zm7.52,9.47a11.68,11.68,0,0,0-1.69.18,4.42,4.42,0,0,0-1.1.32,1.52,1.52,0,0,0-.59.46,1,1,0,0,0-.18.57,1,1,0,0,0,.36.88,1.62,1.62,0,0,0,1,.26,2.79,2.79,0,0,0,1.23-.25,3.8,3.8,0,0,0,1-.79Zm-5.32-4.18a5.76,5.76,0,0,1,4-1.52,3.83,3.83,0,0,1,1.51.28,3.07,3.07,0,0,1,1.12.77,3.25,3.25,0,0,1,.7,1.18,4.49,4.49,0,0,1,.24,1.5v6.09h-1.05a1,1,0,0,1-.51-.1.75.75,0,0,1-.28-.4l-.2-.7c-.25.22-.49.42-.72.59a4.3,4.3,0,0,1-.72.41,3.48,3.48,0,0,1-.81.25,3.87,3.87,0,0,1-.94.1,3.72,3.72,0,0,1-1.13-.16,2.51,2.51,0,0,1-.89-.5,2.22,2.22,0,0,1-.58-.82,2.81,2.81,0,0,1-.21-1.13,2,2,0,0,1,.13-.73,2.18,2.18,0,0,1,.39-.69,3.43,3.43,0,0,1,.72-.62,4.51,4.51,0,0,1,1.08-.51,10.24,10.24,0,0,1,1.51-.35,15.23,15.23,0,0,1,2-.17v-.56a2.14,2.14,0,0,0-.41-1.43,1.54,1.54,0,0,0-1.2-.47,3.13,3.13,0,0,0-.94.13,3.82,3.82,0,0,0-.64.3l-.52.3a1.07,1.07,0,0,1-.51.13.63.63,0,0,1-.41-.13,1,1,0,0,1-.27-.3Zm12.85,8.45a2.56,2.56,0,0,1-1.93-.71,2.73,2.73,0,0,1-.67-2v-5.38h-1a.44.44,0,0,1-.32-.12.49.49,0,0,1-.13-.37v-.92l1.54-.26.49-2.63a.52.52,0,0,1,.18-.29.53.53,0,0,1,.34-.1h1.2v3h2.58v1.66h-2.58v5.22a1,1,0,0,0,.22.7.77.77,0,0,0,.61.26,1.25,1.25,0,0,0,.36-.05l.25-.11.2-.1a.27.27,0,0,1,.17-.06.25.25,0,0,1,.17.06.69.69,0,0,1,.14.15l.69,1.12a3.55,3.55,0,0,1-1.16.64A4.23,4.23,0,0,1,360.13,244.62Zm10.61-7.75a.94.94,0,0,1-.2.2.47.47,0,0,1-.28.08.64.64,0,0,1-.35-.1,4.37,4.37,0,0,0-.41-.25,2.69,2.69,0,0,0-.56-.24,2.31,2.31,0,0,0-.8-.11,2.41,2.41,0,0,0-1.07.22,2,2,0,0,0-.77.63,2.87,2.87,0,0,0-.45,1,5.35,5.35,0,0,0-.15,1.33,5.21,5.21,0,0,0,.16,1.37,3,3,0,0,0,.48,1,2.13,2.13,0,0,0,.75.62,2.43,2.43,0,0,0,1,.2,2.52,2.52,0,0,0,.9-.13,2.85,2.85,0,0,0,.58-.3c.16-.11.29-.21.4-.3a.65.65,0,0,1,.4-.14.46.46,0,0,1,.42.21l.67.85a4.25,4.25,0,0,1-.84.76,5,5,0,0,1-.94.49,4.79,4.79,0,0,1-1,.25,7,7,0,0,1-1,.08,4.34,4.34,0,0,1-1.68-.33,4,4,0,0,1-1.38-1,4.49,4.49,0,0,1-.94-1.56,6,6,0,0,1-.34-2.11,6.15,6.15,0,0,1,.3-2,4.58,4.58,0,0,1,.9-1.57,4.12,4.12,0,0,1,1.47-1,5,5,0,0,1,2-.37,4.5,4.5,0,0,1,3.35,1.34Zm4.48-1a5.16,5.16,0,0,1,1.24-.85,3.58,3.58,0,0,1,1.59-.33,3.43,3.43,0,0,1,1.4.27,2.65,2.65,0,0,1,1,.75,3.17,3.17,0,0,1,.63,1.16,4.83,4.83,0,0,1,.21,1.47v6.14H379v-6.14a2,2,0,0,0-.4-1.36,1.52,1.52,0,0,0-1.23-.49,2.34,2.34,0,0,0-1.13.28,4,4,0,0,0-1,.74v7H372.9v-14h2.32Zm8.21,2h4.87v1.93h-4.87Zm22.18-7v13.59h-2.22v-8.78c0-.35,0-.73.05-1.13l-4.1,7.71a1,1,0,0,1-.89.55h-.36a.94.94,0,0,1-.89-.55l-4.15-7.74c0,.21,0,.41,0,.61s0,.38,0,.55v8.78h-2.23V230.88h2.2a.71.71,0,0,1,.22.05.44.44,0,0,1,.18.12,1.14,1.14,0,0,1,.16.23l4.06,7.54c.11.2.21.41.3.62s.18.43.27.66c.09-.23.18-.46.27-.67a6.09,6.09,0,0,1,.3-.63l4-7.52a1.14,1.14,0,0,1,.16-.23.63.63,0,0,1,.18-.12.78.78,0,0,1,.23-.05h2.19Zm7.52,9.47a11.68,11.68,0,0,0-1.69.18,4.42,4.42,0,0,0-1.1.32,1.52,1.52,0,0,0-.59.46,1,1,0,0,0-.18.57,1,1,0,0,0,.36.88,1.62,1.62,0,0,0,.95.26,2.79,2.79,0,0,0,1.23-.25,3.8,3.8,0,0,0,1-.79Zm-5.31-4.18a5.72,5.72,0,0,1,4-1.52,3.8,3.8,0,0,1,1.51.28,3.11,3.11,0,0,1,1.82,1.95,4.25,4.25,0,0,1,.25,1.5v6.09h-1.06a1,1,0,0,1-.5-.1.71.71,0,0,1-.29-.4l-.2-.7a8.93,8.93,0,0,1-.72.59,4.3,4.3,0,0,1-.72.41,3.48,3.48,0,0,1-.81.25,3.87,3.87,0,0,1-.94.1,3.65,3.65,0,0,1-1.12-.16,2.47,2.47,0,0,1-.9-.5,2.22,2.22,0,0,1-.58-.82,2.82,2.82,0,0,1-.2-1.13,2,2,0,0,1,.12-.73,2.18,2.18,0,0,1,.39-.69,3.26,3.26,0,0,1,.73-.62,4.26,4.26,0,0,1,1.07-.51,10.24,10.24,0,0,1,1.51-.35,15.23,15.23,0,0,1,1.95-.17v-.56a2.14,2.14,0,0,0-.41-1.43,1.51,1.51,0,0,0-1.19-.47,3.08,3.08,0,0,0-.94.13,3.94,3.94,0,0,0-.65.3l-.52.3a1.07,1.07,0,0,1-.51.13.63.63,0,0,1-.41-.13,1,1,0,0,1-.27-.3Zm12.08-5.66v8h.43a1.18,1.18,0,0,0,.37-.05.75.75,0,0,0,.28-.26l2.4-3a1.15,1.15,0,0,1,.33-.3,1,1,0,0,1,.48-.1h2.12l-3,3.58a2.47,2.47,0,0,1-.69.65,1.72,1.72,0,0,1,.34.32c.11.13.21.27.31.41l3.21,4.68h-2.1a1.16,1.16,0,0,1-.47-.09.75.75,0,0,1-.33-.33l-2.46-3.65a.61.61,0,0,0-.27-.28.91.91,0,0,0-.42-.07h-.53v4.42h-2.32v-14ZM430,234.83v9.64h-2.33v-9.64Zm.32-2.81a1.31,1.31,0,0,1-.12.56,1.39,1.39,0,0,1-.33.46,1.45,1.45,0,0,1-1.62.32,1.59,1.59,0,0,1-.78-.78,1.31,1.31,0,0,1-.12-.56,1.48,1.48,0,0,1,.44-1.05,1.33,1.33,0,0,1,.46-.31,1.5,1.5,0,0,1,1.62.31,1.43,1.43,0,0,1,.33.47A1.4,1.4,0,0,1,430.34,232Zm4.22,4a6.09,6.09,0,0,1,.61-.53,4.17,4.17,0,0,1,.69-.43,3.77,3.77,0,0,1,.78-.27,3.59,3.59,0,0,1,.9-.1,3.46,3.46,0,0,1,1.4.27,2.81,2.81,0,0,1,1,.75,3.15,3.15,0,0,1,.62,1.16,4.54,4.54,0,0,1,.22,1.47v6.14h-2.32v-6.14a2,2,0,0,0-.41-1.36,1.52,1.52,0,0,0-1.23-.49,2.36,2.36,0,0,0-1.13.28,3.93,3.93,0,0,0-1,.74v7h-2.32v-9.64h1.42a.57.57,0,0,1,.59.42Zm12,3.4a2.12,2.12,0,0,0,.75-.11,1.49,1.49,0,0,0,.53-.33,1.18,1.18,0,0,0,.31-.5,1.61,1.61,0,0,0,.12-.63,1.51,1.51,0,0,0-.43-1.13,1.76,1.76,0,0,0-1.28-.42,1.79,1.79,0,0,0-1.29.42,1.5,1.5,0,0,0-.42,1.13,1.79,1.79,0,0,0,.1.62,1.48,1.48,0,0,0,.32.51,1.54,1.54,0,0,0,.54.33A2.15,2.15,0,0,0,446.52,239.41Zm2.62,5.49a.65.65,0,0,0-.17-.46,1,1,0,0,0-.46-.27,3,3,0,0,0-.69-.15c-.25,0-.53-.06-.82-.07l-.9,0a9.06,9.06,0,0,1-.91-.07,2.28,2.28,0,0,0-.63.51,1.07,1.07,0,0,0-.23.67.94.94,0,0,0,.12.47,1.1,1.1,0,0,0,.41.39,2.52,2.52,0,0,0,.72.24,5.37,5.37,0,0,0,1.08.1,5.24,5.24,0,0,0,1.12-.11,2.39,2.39,0,0,0,.77-.27,1.2,1.2,0,0,0,.45-.41A1,1,0,0,0,449.14,244.9Zm2.31-9.74V236c0,.28-.17.45-.5.51l-.86.16a2.94,2.94,0,0,1,.2,1.09,2.73,2.73,0,0,1-.3,1.29,2.68,2.68,0,0,1-.79,1,3.7,3.7,0,0,1-1.2.63,4.69,4.69,0,0,1-1.48.22,4.93,4.93,0,0,1-.55,0,4.17,4.17,0,0,1-.51-.08c-.31.19-.45.39-.45.61a.46.46,0,0,0,.26.44,2.1,2.1,0,0,0,.71.18,9.42,9.42,0,0,0,1,.08c.37,0,.76,0,1.15.06a7.37,7.37,0,0,1,1.16.17,3.13,3.13,0,0,1,1,.36,1.91,1.91,0,0,1,.71.7,2.09,2.09,0,0,1,.27,1.12,2.59,2.59,0,0,1-.32,1.23,3.19,3.19,0,0,1-.91,1.08,4.72,4.72,0,0,1-1.47.75,6.24,6.24,0,0,1-2,.29,7.19,7.19,0,0,1-1.9-.22,4.13,4.13,0,0,1-1.34-.56,2.37,2.37,0,0,1-.8-.81,2,2,0,0,1-.26-1,1.6,1.6,0,0,1,.4-1.12,2.82,2.82,0,0,1,1.13-.74,1.56,1.56,0,0,1-.61-.52,1.52,1.52,0,0,1-.23-.87,1.41,1.41,0,0,1,.08-.44,2.2,2.2,0,0,1,.23-.46,2.25,2.25,0,0,1,.4-.42,2.52,2.52,0,0,1,.55-.37,3,3,0,0,1-1.15-1.05,2.8,2.8,0,0,1-.42-1.54,2.85,2.85,0,0,1,.29-1.29,2.81,2.81,0,0,1,.79-1,3.53,3.53,0,0,1,1.22-.63,5,5,0,0,1,1.53-.22,4.79,4.79,0,0,1,1.16.13,3.5,3.5,0,0,1,1,.37Z" style="fill:#069550"/><path d="M350.51,268v1.2h-5.17V268h1.89v-5.45c0-.21,0-.43,0-.66L345.91,263a.73.73,0,0,1-.23.12h-.22a.49.49,0,0,1-.17-.06l-.12-.11-.5-.7,2.85-2.42h1.31V268Zm3.43-4.75a3.13,3.13,0,0,1,.59-.09,5.28,5.28,0,0,1,.55,0,3.73,3.73,0,0,1,1.3.22,2.68,2.68,0,0,1,.94.61,2.49,2.49,0,0,1,.58.91,3.18,3.18,0,0,1,.19,1.12,3.46,3.46,0,0,1-.26,1.35,3.19,3.19,0,0,1-.73,1.06,3.32,3.32,0,0,1-1.1.67,3.89,3.89,0,0,1-1.38.24,3.8,3.8,0,0,1-.84-.09,4.27,4.27,0,0,1-.74-.24,4.36,4.36,0,0,1-.64-.35,3.67,3.67,0,0,1-.52-.42l.49-.68a.49.49,0,0,1,.4-.22.62.62,0,0,1,.33.11l.38.22a3.66,3.66,0,0,0,.52.23,2.09,2.09,0,0,0,.71.1,2,2,0,0,0,.77-.14,1.51,1.51,0,0,0,.56-.4,1.6,1.6,0,0,0,.33-.6,2.39,2.39,0,0,0,.12-.77,1.55,1.55,0,0,0-.45-1.19,1.76,1.76,0,0,0-1.3-.43,4.15,4.15,0,0,0-1.36.24l-1-.28.78-4.53h4.61v.67a.73.73,0,0,1-.22.56,1,1,0,0,1-.72.21h-2.56Zm8.75,1.38H366v1.33h-3.34Zm10.41,3.08a.54.54,0,0,1,.41.15.5.5,0,0,1,.16.38v1h-6.41v-.53a1.06,1.06,0,0,1,.06-.34.87.87,0,0,1,.22-.32l2.84-2.84c.24-.25.45-.48.63-.7a3.79,3.79,0,0,0,.47-.65,2.88,2.88,0,0,0,.29-.65,2.34,2.34,0,0,0,.1-.71,1.5,1.5,0,0,0-.1-.58,1.09,1.09,0,0,0-.7-.69,1.6,1.6,0,0,0-.56-.09,1.59,1.59,0,0,0-.53.08,1.32,1.32,0,0,0-.42.23,1.26,1.26,0,0,0-.32.33,1.52,1.52,0,0,0-.19.43.65.65,0,0,1-.29.39.77.77,0,0,1-.5.05l-.84-.15a3.28,3.28,0,0,1,.38-1.18,2.59,2.59,0,0,1,.69-.84,2.73,2.73,0,0,1,.95-.51,3.68,3.68,0,0,1,1.17-.18,3.44,3.44,0,0,1,1.18.2,2.57,2.57,0,0,1,.91.53,2.31,2.31,0,0,1,.6.84,2.75,2.75,0,0,1,.21,1.09,2.93,2.93,0,0,1-.15,1,4.08,4.08,0,0,1-.41.84,6.06,6.06,0,0,1-.59.77l-.72.77-2.11,2.15a4.34,4.34,0,0,1,.6-.14,4.13,4.13,0,0,1,.58-.05Zm7.5,0a.54.54,0,0,1,.4.15.46.46,0,0,1,.16.38v1h-6.41v-.53a.86.86,0,0,1,.07-.34A.77.77,0,0,1,375,268l2.83-2.84c.24-.25.45-.48.64-.7a5.3,5.3,0,0,0,.47-.65,2.84,2.84,0,0,0,.28-.65,2.34,2.34,0,0,0,.1-.71,1.72,1.72,0,0,0-.09-.58,1.11,1.11,0,0,0-.28-.43,1,1,0,0,0-.43-.26,1.59,1.59,0,0,0-.55-.09,1.51,1.51,0,0,0-.53.08,1.37,1.37,0,0,0-.43.23,1.44,1.44,0,0,0-.32.33,1.52,1.52,0,0,0-.19.43.68.68,0,0,1-.28.39.81.81,0,0,1-.51.05l-.84-.15a3.48,3.48,0,0,1,.38-1.18,2.59,2.59,0,0,1,.69-.84,2.82,2.82,0,0,1,.95-.51,3.72,3.72,0,0,1,1.17-.18,3.44,3.44,0,0,1,1.18.2,2.61,2.61,0,0,1,.92.53,2.41,2.41,0,0,1,.59.84,2.75,2.75,0,0,1,.21,1.09,2.93,2.93,0,0,1-.15,1,4.08,4.08,0,0,1-.41.84,5.26,5.26,0,0,1-.59.77l-.72.77-2.1,2.15a4.34,4.34,0,0,1,.6-.14,3.88,3.88,0,0,1,.57-.05Zm8.53-1.83a4.87,4.87,0,0,1-.2,1.42,3,3,0,0,1-.58,1.08,2.54,2.54,0,0,1-1,.68,3.48,3.48,0,0,1-1.34.24,5.06,5.06,0,0,1-.68,0,4.86,4.86,0,0,1-.71-.13c0-.17,0-.34.05-.51s0-.35,0-.52a.38.38,0,0,1,.11-.23.4.4,0,0,1,.27-.09,1.26,1.26,0,0,1,.29.05,1.92,1.92,0,0,0,.45,0,1.89,1.89,0,0,0,.65-.1,1.08,1.08,0,0,0,.47-.34,1.53,1.53,0,0,0,.29-.6,3.42,3.42,0,0,0,.1-.91v-6.05h1.74Zm7.27-3.31v6.63h-1a.38.38,0,0,1-.41-.3l-.1-.52a4.13,4.13,0,0,1-.9.67,2.64,2.64,0,0,1-1.16.25,2.42,2.42,0,0,1-1-.18,1.94,1.94,0,0,1-.7-.53,2.23,2.23,0,0,1-.43-.79,3.31,3.31,0,0,1-.14-1v-4.21h1.59v4.21a1.46,1.46,0,0,0,.28.94,1.06,1.06,0,0,0,.85.33,1.71,1.71,0,0,0,.77-.18,2.67,2.67,0,0,0,.69-.51v-4.79Zm3.2-3v9.6H398v-9.6Zm3.24,3v6.63h-1.6v-6.63Zm.22-1.93a1,1,0,0,1-.08.38,1,1,0,0,1-.23.32,1,1,0,0,1-.32.22,1,1,0,0,1-.8,0,1,1,0,0,1-.31-.22,1,1,0,0,1-.22-.32,1,1,0,0,1-.08-.38,1,1,0,0,1,.08-.4,1,1,0,0,1,.22-.33,1,1,0,0,1,.31-.21,1,1,0,0,1,.8,0,1,1,0,0,1,.55.54A1,1,0,0,1,403.06,260.61Zm10.1,7.07a.54.54,0,0,1,.4.15.46.46,0,0,1,.16.38v1h-6.41v-.53a.86.86,0,0,1,.07-.34.77.77,0,0,1,.22-.32l2.83-2.84c.24-.25.45-.48.63-.7a4.51,4.51,0,0,0,.48-.65,3.36,3.36,0,0,0,.28-.65,2.34,2.34,0,0,0,.1-.71,1.72,1.72,0,0,0-.09-.58,1.11,1.11,0,0,0-.28-.43,1,1,0,0,0-.43-.26,1.59,1.59,0,0,0-.55-.09,1.51,1.51,0,0,0-.53.08,1.27,1.27,0,0,0-.43.23,1.26,1.26,0,0,0-.32.33,1.52,1.52,0,0,0-.19.43.68.68,0,0,1-.28.39.81.81,0,0,1-.51.05l-.84-.15a3.48,3.48,0,0,1,.38-1.18,2.59,2.59,0,0,1,.69-.84,2.82,2.82,0,0,1,.95-.51,3.72,3.72,0,0,1,1.17-.18,3.44,3.44,0,0,1,1.18.2,2.61,2.61,0,0,1,.92.53,2.41,2.41,0,0,1,.59.84,2.75,2.75,0,0,1,.21,1.09,2.93,2.93,0,0,1-.15,1,4.08,4.08,0,0,1-.41.84,5.26,5.26,0,0,1-.59.77l-.72.77-2.11,2.15a5.13,5.13,0,0,1,.6-.14,4.13,4.13,0,0,1,.58-.05Zm8.32-3.19a7.85,7.85,0,0,1-.26,2.13,4.32,4.32,0,0,1-.73,1.49,2.85,2.85,0,0,1-1.09.87,3.31,3.31,0,0,1-2.71,0,3,3,0,0,1-1.08-.87,4.5,4.5,0,0,1-.72-1.49,9.16,9.16,0,0,1,0-4.25,4.35,4.35,0,0,1,.72-1.48,2.9,2.9,0,0,1,1.08-.88,3.31,3.31,0,0,1,2.71,0,2.78,2.78,0,0,1,1.09.88,4.18,4.18,0,0,1,.73,1.48A7.83,7.83,0,0,1,421.48,264.49Zm-1.65,0a7.82,7.82,0,0,0-.14-1.67,3.46,3.46,0,0,0-.4-1.06,1.41,1.41,0,0,0-.57-.55,1.48,1.48,0,0,0-1.34,0,1.34,1.34,0,0,0-.56.55,3.22,3.22,0,0,0-.4,1.06,10.09,10.09,0,0,0,0,3.35,3.22,3.22,0,0,0,.4,1.06,1.43,1.43,0,0,0,.56.56,1.57,1.57,0,0,0,1.34,0,1.51,1.51,0,0,0,.57-.56,3.46,3.46,0,0,0,.4-1.06A7.86,7.86,0,0,0,419.83,264.49Zm8.31,3.19a.56.56,0,0,1,.41.15.49.49,0,0,1,.15.38v1h-6.4v-.53a1.06,1.06,0,0,1,.06-.34.87.87,0,0,1,.22-.32l2.84-2.84.63-.7a3.79,3.79,0,0,0,.47-.65,2.46,2.46,0,0,0,.28-.65,2.35,2.35,0,0,0,.11-.71,1.5,1.5,0,0,0-.1-.58,1,1,0,0,0-.28-.43.91.91,0,0,0-.42-.26,1.64,1.64,0,0,0-.56-.09,1.55,1.55,0,0,0-.53.08,1.22,1.22,0,0,0-.42.23,1.26,1.26,0,0,0-.32.33,1.28,1.28,0,0,0-.19.43.69.69,0,0,1-.29.39.77.77,0,0,1-.5.05l-.84-.15a3.48,3.48,0,0,1,.37-1.18,2.88,2.88,0,0,1,.69-.84,2.77,2.77,0,0,1,1-.51,3.66,3.66,0,0,1,1.16-.18,3.5,3.5,0,0,1,1.19.2,2.57,2.57,0,0,1,.91.53,2.43,2.43,0,0,1,.6.84,2.75,2.75,0,0,1,.21,1.09,2.69,2.69,0,0,1-.16,1,3.58,3.58,0,0,1-.4.84,5.34,5.34,0,0,1-.6.77c-.22.25-.46.51-.71.77l-2.11,2.15a4.34,4.34,0,0,1,.6-.14,4,4,0,0,1,.58-.05Zm7.5,0a.54.54,0,0,1,.4.15.5.5,0,0,1,.16.38v1h-6.41v-.53a.86.86,0,0,1,.07-.34.85.85,0,0,1,.21-.32l2.84-2.84c.24-.25.45-.48.63-.7a3.79,3.79,0,0,0,.47-.65,2.88,2.88,0,0,0,.29-.65,2.34,2.34,0,0,0,.1-.71,1.5,1.5,0,0,0-.1-.58,1.09,1.09,0,0,0-.7-.69,1.59,1.59,0,0,0-.55-.09,1.51,1.51,0,0,0-.53.08,1.27,1.27,0,0,0-.43.23,1.26,1.26,0,0,0-.32.33,1.52,1.52,0,0,0-.19.43.68.68,0,0,1-.28.39.81.81,0,0,1-.51.05l-.84-.15a3.48,3.48,0,0,1,.38-1.18,2.59,2.59,0,0,1,.69-.84,2.82,2.82,0,0,1,1-.51,3.68,3.68,0,0,1,1.17-.18,3.44,3.44,0,0,1,1.18.2,2.57,2.57,0,0,1,.91.53,2.31,2.31,0,0,1,.6.84,2.75,2.75,0,0,1,.21,1.09,2.93,2.93,0,0,1-.15,1,4.08,4.08,0,0,1-.41.84,6.06,6.06,0,0,1-.59.77l-.72.77-2.11,2.15a5.13,5.13,0,0,1,.6-.14,4.13,4.13,0,0,1,.58-.05Z" style="fill:#1a4373"/><circle cx="1138.5" cy="211.96" r="107.45" style="fill:#fff"/><g style="clip-path:url(#clip-path-9)"><rect x="1137.99" y="171.22" width="37.29" height="27.56" rx="4.7" transform="translate(446.78 1116.74) rotate(-61.78)" style="fill:#1fb767"/><rect x="1124.97" y="156.84" width="47.73" height="35.28" rx="4.7" transform="translate(725.62 1256.67) rotate(-77.28)" style="fill:#001b3d"/><circle cx="1162.15" cy="162.59" r="3.11" transform="translate(747.6 1260.4) rotate(-77.28)" style="fill:#b9c3d3"/><path d="M1146.64,155.9l10.12,2.28a1,1,0,0,1,.79,1.24h0a1,1,0,0,1-1.24.79l-10.12-2.29a1,1,0,0,1-.79-1.24h0A1,1,0,0,1,1146.64,155.9Z" style="fill:#b9c3d3"/><path d="M1144.05,159.57l11.8,2.66a1,1,0,0,1,.78,1.24h0a1,1,0,0,1-1.24.78l-11.79-2.66a1,1,0,0,1-.79-1.24h0A1,1,0,0,1,1144.05,159.57Z" style="fill:#1a4373"/><circle cx="1158.95" cy="176.76" r="3.11" transform="translate(731.29 1268.32) rotate(-77.28)" style="fill:#b9c3d3"/><path d="M1143.44,170.07l10.12,2.28a1,1,0,0,1,.79,1.24h0a1,1,0,0,1-1.24.79L1143,172.09a1,1,0,0,1-.79-1.24h0A1,1,0,0,1,1143.44,170.07Z" style="fill:#b9c3d3"/><path d="M1149.61,175.71l3,.69a1,1,0,0,1,.78,1.24h0a1,1,0,0,1-1.24.78l-3-.68a1,1,0,0,1-.79-1.24h0A1,1,0,0,1,1149.61,175.71Z" style="fill:#1a4373"/><path d="M1159.34,190.2l-3.54,2a.52.52,0,0,1-.65-.15l-2.31-3.35a.4.4,0,0,1,.13-.6.5.5,0,0,1,.65.14l1.7,2.46,1.1-4.9a.46.46,0,0,1,.56-.32.44.44,0,0,1,.36.52l-1.1,4.91,2.58-1.49a.5.5,0,0,1,.65.14A.42.42,0,0,1,1159.34,190.2Z" style="fill:#b9c3d3;fill-rule:evenodd"/><rect x="1118.46" y="183.49" width="6.99" height="4.15" transform="translate(197.4 847.69) rotate(-45)" style="fill:#001b3d"/><rect x="1103.98" y="190.4" width="19.38" height="6.92" rx="2.35" transform="translate(189.11 844.26) rotate(-45)" style="fill:#1fb767"/><circle cx="1136.66" cy="170.86" r="14.26" transform="translate(212.1 853.78) rotate(-45)" style="fill:#001b3d"/><path d="M1123.45,184.07a18.68,18.68,0,1,0,0-26.42A18.67,18.67,0,0,0,1123.45,184.07Zm3.42-3.42a13.85,13.85,0,1,0,0-19.58A13.84,13.84,0,0,0,1126.87,180.65Z" style="fill:#1fb767;fill-rule:evenodd"/><path d="M1141.93,164.37a7.3,7.3,0,0,0-2.42-1.62,7.51,7.51,0,0,0-2.85-.57,7.6,7.6,0,0,0-2.86.57,7.26,7.26,0,0,0-2.41,1.62" style="fill:none;stroke:#fff;stroke-linecap:round;stroke-width:2.3486199378967285px"/><rect x="1109.66" y="148.95" width="6.43" height="6.43" rx="1.17" transform="translate(26.89 439.02) rotate(-22.58)" style="fill:#ef5350"/><path d="M1123.78,196.77l2,2.7,3.17,1.18-2.7,2-1.17,3.17-2-2.7-3.17-1.17,2.7-2Z" style="fill:#ff9500"/></g><path d="M1105.81,230.88v13.59h-2.23v-8.78c0-.35,0-.73.06-1.13l-4.11,7.71a.94.94,0,0,1-.89.55h-.36a.94.94,0,0,1-.89-.55l-4.15-7.74c0,.21,0,.41,0,.61a5.34,5.34,0,0,1,0,.55v8.78h-2.22V230.88h2.19a.65.65,0,0,1,.22.05.44.44,0,0,1,.18.12.84.84,0,0,1,.16.23l4.07,7.54c.1.2.2.41.29.62l.27.66c.09-.23.18-.46.27-.67s.2-.43.3-.63l4-7.52a1.14,1.14,0,0,1,.15-.23.63.63,0,0,1,.18-.12.86.86,0,0,1,.23-.05h2.2Zm6.63,3.8a5.06,5.06,0,0,1,2,.35,4.2,4.2,0,0,1,1.5,1,4.43,4.43,0,0,1,1,1.56,6.44,6.44,0,0,1,0,4.13,4.43,4.43,0,0,1-1,1.56,4,4,0,0,1-1.5,1,5.25,5.25,0,0,1-2,.35,5.34,5.34,0,0,1-2-.35,4.12,4.12,0,0,1-1.51-1,4.43,4.43,0,0,1-1-1.56,6.44,6.44,0,0,1,0-4.13,4.43,4.43,0,0,1,1-1.56,4.33,4.33,0,0,1,1.51-1A5.14,5.14,0,0,1,1112.44,234.68Zm0,8.14a2.05,2.05,0,0,0,1.78-.8,4,4,0,0,0,.58-2.37,4.08,4.08,0,0,0-.58-2.38,2,2,0,0,0-1.78-.82,2.08,2.08,0,0,0-1.81.83,5.13,5.13,0,0,0,0,4.74A2.11,2.11,0,0,0,1112.44,242.82Zm8.7-6.81a5.15,5.15,0,0,1,.61-.53,4.54,4.54,0,0,1,.68-.43,4.23,4.23,0,0,1,.78-.27,3.73,3.73,0,0,1,.91-.1,3.38,3.38,0,0,1,1.39.27,2.77,2.77,0,0,1,1,.75,3.15,3.15,0,0,1,.62,1.16,4.83,4.83,0,0,1,.22,1.47v6.14h-2.32v-6.14a2,2,0,0,0-.41-1.36,1.52,1.52,0,0,0-1.23-.49,2.34,2.34,0,0,0-1.13.28,3.76,3.76,0,0,0-1,.74v7H1119v-9.64h1.42a.57.57,0,0,1,.59.42Zm10.84-1.18v9.64h-2.33v-9.64Zm.32-2.81a1.18,1.18,0,0,1-.13.56,1.55,1.55,0,0,1-.79.78,1.48,1.48,0,0,1-.59.12,1.39,1.39,0,0,1-.57-.12,1.47,1.47,0,0,1-.46-.32,1.52,1.52,0,0,1-.32-.46,1.47,1.47,0,0,1-.11-.56,1.42,1.42,0,0,1,.43-1.05,1.44,1.44,0,0,1,.46-.31,1.39,1.39,0,0,1,.57-.12,1.53,1.53,0,0,1,1.06.43,1.56,1.56,0,0,1,.32.47A1.27,1.27,0,0,1,1132.3,232Zm5.26,12.6a2.57,2.57,0,0,1-1.94-.71,2.77,2.77,0,0,1-.67-2v-5.38h-1a.45.45,0,0,1-.32-.12.49.49,0,0,1-.13-.37v-.92l1.55-.26.49-2.63a.56.56,0,0,1,.17-.29.53.53,0,0,1,.34-.1h1.2v3h2.58v1.66h-2.58v5.22a1,1,0,0,0,.22.7.77.77,0,0,0,.61.26,1.25,1.25,0,0,0,.36-.05l.25-.11.2-.1a.29.29,0,0,1,.17-.06.25.25,0,0,1,.17.06.69.69,0,0,1,.14.15l.69,1.12a3.46,3.46,0,0,1-1.16.64A4.17,4.17,0,0,1,1137.56,244.62Zm8-9.94a5,5,0,0,1,1.94.35,4.2,4.2,0,0,1,1.5,1,4.29,4.29,0,0,1,1,1.56,6.44,6.44,0,0,1,0,4.13,4.29,4.29,0,0,1-1,1.56,4,4,0,0,1-1.5,1,5.23,5.23,0,0,1-1.94.35,5.4,5.4,0,0,1-2-.35,4.12,4.12,0,0,1-1.51-1,4.58,4.58,0,0,1-1-1.56,6.44,6.44,0,0,1,0-4.13,4.58,4.58,0,0,1,1-1.56,4.33,4.33,0,0,1,1.51-1A5.19,5.19,0,0,1,1145.53,234.68Zm0,8.14a2,2,0,0,0,1.77-.8,4,4,0,0,0,.58-2.37,4.08,4.08,0,0,0-.58-2.38,2,2,0,0,0-1.77-.82,2.1,2.1,0,0,0-1.82.83,5.13,5.13,0,0,0,0,4.74A2.13,2.13,0,0,0,1145.53,242.82Zm8.71-6.32a4.13,4.13,0,0,1,1.07-1.35,2.27,2.27,0,0,1,1.46-.5,1.84,1.84,0,0,1,1.08.29l-.15,1.74a.47.47,0,0,1-.15.24.32.32,0,0,1-.23.07,3.21,3.21,0,0,1-.42-.05,3.27,3.27,0,0,0-.54,0,1.8,1.8,0,0,0-.68.11,1.55,1.55,0,0,0-.55.33,1.94,1.94,0,0,0-.42.51,4.78,4.78,0,0,0-.34.68v5.94h-2.32v-9.64h1.36a.71.71,0,0,1,.5.13.73.73,0,0,1,.19.45Zm7.22-1.67v9.64h-2.33v-9.64Zm.32-2.81a1.31,1.31,0,0,1-.12.56,1.39,1.39,0,0,1-.33.46,1.45,1.45,0,0,1-1.62.32,1.36,1.36,0,0,1-.46-.32,1.52,1.52,0,0,1-.32-.46,1.31,1.31,0,0,1-.12-.56,1.4,1.4,0,0,1,.12-.58,1.56,1.56,0,0,1,.32-.47,1.33,1.33,0,0,1,.46-.31,1.5,1.5,0,0,1,1.62.31,1.43,1.43,0,0,1,.33.47A1.4,1.4,0,0,1,1161.78,232Zm4.22,4a6.09,6.09,0,0,1,.61-.53,4.17,4.17,0,0,1,.69-.43,3.77,3.77,0,0,1,.78-.27,3.59,3.59,0,0,1,.9-.1,3.46,3.46,0,0,1,1.4.27,2.81,2.81,0,0,1,1,.75,3.15,3.15,0,0,1,.62,1.16,4.54,4.54,0,0,1,.22,1.47v6.14h-2.32v-6.14a2,2,0,0,0-.41-1.36,1.52,1.52,0,0,0-1.23-.49,2.3,2.3,0,0,0-1.12.28,3.65,3.65,0,0,0-1,.74v7h-2.32v-9.64h1.42a.57.57,0,0,1,.59.42Zm12,3.4a2.12,2.12,0,0,0,.75-.11,1.49,1.49,0,0,0,.53-.33,1.18,1.18,0,0,0,.31-.5,1.61,1.61,0,0,0,.12-.63,1.51,1.51,0,0,0-.43-1.13,1.76,1.76,0,0,0-1.28-.42,1.79,1.79,0,0,0-1.29.42,1.5,1.5,0,0,0-.42,1.13,1.79,1.79,0,0,0,.1.62,1.48,1.48,0,0,0,.32.51,1.45,1.45,0,0,0,.54.33A2.19,2.19,0,0,0,1178,239.41Zm2.62,5.49a.65.65,0,0,0-.17-.46,1,1,0,0,0-.46-.27,3,3,0,0,0-.69-.15c-.25,0-.53-.06-.82-.07l-.9,0a9.06,9.06,0,0,1-.91-.07,2.28,2.28,0,0,0-.63.51,1.07,1.07,0,0,0-.23.67.94.94,0,0,0,.12.47,1.15,1.15,0,0,0,.4.39,2.71,2.71,0,0,0,.73.24,5.37,5.37,0,0,0,1.08.1,5.24,5.24,0,0,0,1.12-.11,2.39,2.39,0,0,0,.77-.27,1.2,1.2,0,0,0,.45-.41A1,1,0,0,0,1180.58,244.9Zm2.31-9.74V236c0,.28-.17.45-.5.51l-.86.16a2.94,2.94,0,0,1,.2,1.09,2.73,2.73,0,0,1-.3,1.29,2.68,2.68,0,0,1-.79,1,3.6,3.6,0,0,1-1.2.63,4.73,4.73,0,0,1-1.48.22,4.93,4.93,0,0,1-.55,0,4.5,4.5,0,0,1-.51-.08c-.3.19-.45.39-.45.61a.46.46,0,0,0,.26.44,2.1,2.1,0,0,0,.71.18,9.42,9.42,0,0,0,1,.08c.37,0,.76,0,1.15.06a7.37,7.37,0,0,1,1.16.17,3.13,3.13,0,0,1,1,.36,1.91,1.91,0,0,1,.71.7,2.09,2.09,0,0,1,.27,1.12,2.59,2.59,0,0,1-.32,1.23,3.31,3.31,0,0,1-.91,1.08,4.61,4.61,0,0,1-1.47.75,6.24,6.24,0,0,1-2,.29,7.19,7.19,0,0,1-1.9-.22,4.23,4.23,0,0,1-1.34-.56,2.37,2.37,0,0,1-.8-.81,2,2,0,0,1-.26-1,1.6,1.6,0,0,1,.4-1.12,2.82,2.82,0,0,1,1.13-.74,1.56,1.56,0,0,1-.61-.52,1.52,1.52,0,0,1-.23-.87,1.41,1.41,0,0,1,.08-.44,2.2,2.2,0,0,1,.23-.46,2.25,2.25,0,0,1,.4-.42,2.78,2.78,0,0,1,.55-.37,3,3,0,0,1-1.15-1.05,2.8,2.8,0,0,1-.42-1.54,2.85,2.85,0,0,1,.29-1.29,2.81,2.81,0,0,1,.79-1,3.53,3.53,0,0,1,1.22-.63,5,5,0,0,1,1.53-.22,4.79,4.79,0,0,1,1.16.13,3.5,3.5,0,0,1,1,.37Z" style="fill:#008444"/><path d="M1188.75,233.15a2.79,2.79,0,0,1-.34.18,1.89,1.89,0,0,1-.34.09,1.66,1.66,0,0,1,.68.26l1.49.88-.54.94-1.5-.88-.32-.21a1.88,1.88,0,0,1-.24-.25,2,2,0,0,1,.12.72v1.72h-1.11v-1.72c0-.12,0-.24,0-.36a1.89,1.89,0,0,1,.09-.34,1.14,1.14,0,0,1-.25.24c-.09.07-.19.13-.3.2l-1.48.87-.56-.94,1.5-.87a2.1,2.1,0,0,1,.67-.26,2,2,0,0,1-.67-.27l-1.5-.88.55-.94,1.49.89.31.21a1.48,1.48,0,0,1,.26.24,1.76,1.76,0,0,1-.13-.71v-1.73h1.11V232a2.22,2.22,0,0,1,0,.37,1.3,1.3,0,0,1-.08.34,1.42,1.42,0,0,1,.25-.24l.3-.2,1.49-.87.55.94Z" style="fill:#f44336"/><path d="M1063,261.52a.74.74,0,0,1-.17.21.41.41,0,0,1-.21,0,.64.64,0,0,1-.3-.09l-.37-.23a2.8,2.8,0,0,0-.52-.22,2.34,2.34,0,0,0-1.32,0,1.12,1.12,0,0,0-.46.24.91.91,0,0,0-.27.37,1.19,1.19,0,0,0-.09.47.85.85,0,0,0,.18.55,1.6,1.6,0,0,0,.49.38,4.52,4.52,0,0,0,.69.27l.79.27a7,7,0,0,1,.8.32,2.55,2.55,0,0,1,.69.47,2,2,0,0,1,.48.68,2.27,2.27,0,0,1,.19,1,3.15,3.15,0,0,1-.22,1.19,2.76,2.76,0,0,1-.63,1,3,3,0,0,1-1,.65,3.86,3.86,0,0,1-1.37.23,4.31,4.31,0,0,1-.88-.09,4.44,4.44,0,0,1-.83-.25,4.06,4.06,0,0,1-.75-.38,4.43,4.43,0,0,1-.62-.51l.51-.83a.61.61,0,0,1,.17-.15.44.44,0,0,1,.22-.07.6.6,0,0,1,.35.14l.45.29a3.35,3.35,0,0,0,.6.3,2.54,2.54,0,0,0,.83.13,1.72,1.72,0,0,0,1.15-.35,1.3,1.3,0,0,0,.41-1,1,1,0,0,0-.19-.6,1.42,1.42,0,0,0-.48-.38,3.4,3.4,0,0,0-.7-.27l-.78-.24a7.61,7.61,0,0,1-.79-.31,2.38,2.38,0,0,1-.69-.48,2,2,0,0,1-.49-.72,2.83,2.83,0,0,1-.18-1.08,2.43,2.43,0,0,1,.2-1,2.41,2.41,0,0,1,.59-.86,2.9,2.9,0,0,1,1-.6,3.47,3.47,0,0,1,1.3-.23,4.37,4.37,0,0,1,1.52.26,3.3,3.3,0,0,1,1.19.72Zm6.11,3.57a1.81,1.81,0,0,0-.09-.58,1.36,1.36,0,0,0-.26-.49,1.26,1.26,0,0,0-.45-.32,1.46,1.46,0,0,0-.62-.12,1.5,1.5,0,0,0-1.09.39,1.94,1.94,0,0,0-.5,1.12Zm-3,1a2.86,2.86,0,0,0,.18.89,1.84,1.84,0,0,0,.37.61,1.54,1.54,0,0,0,.55.36,2,2,0,0,0,.71.12,2.22,2.22,0,0,0,.67-.09,3.31,3.31,0,0,0,.49-.2l.37-.2a.61.61,0,0,1,.31-.09.32.32,0,0,1,.29.15l.46.58a2.66,2.66,0,0,1-.59.52,3.32,3.32,0,0,1-1.42.51,6.09,6.09,0,0,1-.72.05,3.64,3.64,0,0,1-1.29-.22,3.13,3.13,0,0,1-1-.68,3.27,3.27,0,0,1-.69-1.11,4.33,4.33,0,0,1-.25-1.54,3.53,3.53,0,0,1,.22-1.27,2.94,2.94,0,0,1,.62-1,3.07,3.07,0,0,1,1-.71,3.32,3.32,0,0,1,1.33-.26,3.11,3.11,0,0,1,1.16.21,2.49,2.49,0,0,1,.91.58,2.69,2.69,0,0,1,.59.95,3.35,3.35,0,0,1,.22,1.27,1.12,1.12,0,0,1-.07.49.35.35,0,0,1-.3.12Zm7.27,1.4a1.53,1.53,0,0,0,.58.46,1.82,1.82,0,0,0,.7.14,1.51,1.51,0,0,0,.65-.14,1.22,1.22,0,0,0,.49-.41,2,2,0,0,0,.32-.7,4.19,4.19,0,0,0,.11-1,3.89,3.89,0,0,0-.1-1,2,2,0,0,0-.26-.66,1.08,1.08,0,0,0-.43-.37,1.25,1.25,0,0,0-.56-.12,1.65,1.65,0,0,0-.85.22,2.37,2.37,0,0,0-.65.59Zm-.09-4a3.61,3.61,0,0,1,.92-.74,2.5,2.5,0,0,1,1.22-.28,2.18,2.18,0,0,1,1,.22,2.11,2.11,0,0,1,.77.66,3.08,3.08,0,0,1,.51,1.06,5.25,5.25,0,0,1,.18,1.44,4.7,4.7,0,0,1-.2,1.38,3.44,3.44,0,0,1-.58,1.09,2.57,2.57,0,0,1-2.07,1,2.27,2.27,0,0,1-1-.17,2.21,2.21,0,0,1-.7-.47v2.71h-1.6v-8.79h1a.39.39,0,0,1,.4.29Zm8,5.83a1.74,1.74,0,0,1-1.33-.49,1.9,1.9,0,0,1-.46-1.35v-3.7h-.68a.32.32,0,0,1-.21-.08.34.34,0,0,1-.1-.25v-.64l1.07-.17.34-1.81a.37.37,0,0,1,.12-.2.35.35,0,0,1,.23-.07h.83v2.09h1.77v1.13H1081v3.59a.74.74,0,0,0,.15.49.54.54,0,0,0,.42.17.78.78,0,0,0,.24,0l.18-.08.13-.07a.28.28,0,0,1,.12,0,.18.18,0,0,1,.11,0,.36.36,0,0,1,.1.11l.48.77a2.49,2.49,0,0,1-.8.44A2.94,2.94,0,0,1,1081.21,269.27Zm6.82-4.18a1.81,1.81,0,0,0-.09-.58,1.2,1.2,0,0,0-.71-.81,1.46,1.46,0,0,0-.62-.12,1.5,1.5,0,0,0-1.09.39,1.94,1.94,0,0,0-.5,1.12Zm-3,1a2.86,2.86,0,0,0,.18.89,1.84,1.84,0,0,0,.37.61,1.54,1.54,0,0,0,.55.36,2,2,0,0,0,.71.12,2.22,2.22,0,0,0,.67-.09,3.31,3.31,0,0,0,.49-.2l.37-.2a.61.61,0,0,1,.31-.09.32.32,0,0,1,.29.15l.46.58a2.9,2.9,0,0,1-.59.52,3.32,3.32,0,0,1-1.42.51,6.09,6.09,0,0,1-.72.05,3.64,3.64,0,0,1-1.29-.22,3.13,3.13,0,0,1-1-.68,3.27,3.27,0,0,1-.69-1.11,4.33,4.33,0,0,1-.25-1.54,3.53,3.53,0,0,1,.22-1.27,2.94,2.94,0,0,1,.62-1,3.13,3.13,0,0,1,1-.71,3.41,3.41,0,0,1,1.34-.26,3.15,3.15,0,0,1,1.16.21,2.49,2.49,0,0,1,.91.58,2.69,2.69,0,0,1,.59.95,3.35,3.35,0,0,1,.22,1.27,1,1,0,0,1-.08.49.32.32,0,0,1-.29.12Zm5.67,3.12v-6.63h1a.39.39,0,0,1,.41.29l.1.49a4.17,4.17,0,0,1,.37-.36,2.55,2.55,0,0,1,.4-.27,2.4,2.4,0,0,1,1-.26,1.49,1.49,0,0,1,1,.35,1.9,1.9,0,0,1,.61.89,2,2,0,0,1,.39-.56,1.89,1.89,0,0,1,.51-.38,2,2,0,0,1,.59-.22,2.75,2.75,0,0,1,1.61.09,1.88,1.88,0,0,1,.71.49,2.1,2.1,0,0,1,.44.79A3.49,3.49,0,0,1,1100,265v4.22h-1.6V265a1.38,1.38,0,0,0-.28-.95,1,1,0,0,0-.81-.33,1.18,1.18,0,0,0-.46.09,1.15,1.15,0,0,0-.37.25,1.08,1.08,0,0,0-.24.39,1.55,1.55,0,0,0-.09.55v4.22h-1.6V265a1.42,1.42,0,0,0-.28-1,1,1,0,0,0-.78-.31,1.25,1.25,0,0,0-.65.18,2.19,2.19,0,0,0-.56.47v4.85Zm12.42-1.72a1.49,1.49,0,0,0,.59.46,1.71,1.71,0,0,0,.67.14,1.53,1.53,0,0,0,.66-.13,1.34,1.34,0,0,0,.51-.41,2.17,2.17,0,0,0,.31-.72,4.08,4.08,0,0,0,.11-1.05,2.65,2.65,0,0,0-.36-1.57,1.21,1.21,0,0,0-1-.5,1.52,1.52,0,0,0-.8.22,2.37,2.37,0,0,0-.65.59Zm0-4.1a3.08,3.08,0,0,1,.88-.66,2.4,2.4,0,0,1,1.12-.26,2.29,2.29,0,0,1,1,.23,2.16,2.16,0,0,1,.79.65,3.05,3.05,0,0,1,.51,1,5.09,5.09,0,0,1,.17,1.35,5.17,5.17,0,0,1-.2,1.47,3.26,3.26,0,0,1-.58,1.13,2.56,2.56,0,0,1-2,1,2.22,2.22,0,0,1-1-.23,2,2,0,0,1-.39-.26,3.89,3.89,0,0,1-.34-.36l-.07.45a.34.34,0,0,1-.13.23.39.39,0,0,1-.25.08h-1.06v-9.6h1.6Zm10,1.74a1.81,1.81,0,0,0-.09-.58,1.36,1.36,0,0,0-.26-.49,1.22,1.22,0,0,0-.44-.32,1.52,1.52,0,0,0-.62-.12,1.48,1.48,0,0,0-1.09.39,1.89,1.89,0,0,0-.51,1.12Zm-3,1a3.18,3.18,0,0,0,.18.89,1.84,1.84,0,0,0,.37.61,1.54,1.54,0,0,0,.55.36,2.08,2.08,0,0,0,.71.12,2.22,2.22,0,0,0,.67-.09,3.31,3.31,0,0,0,.49-.2l.37-.2a.64.64,0,0,1,.31-.09.34.34,0,0,1,.3.15l.45.58a2.66,2.66,0,0,1-.59.52,3.32,3.32,0,0,1-1.42.51,6.09,6.09,0,0,1-.72.05,3.55,3.55,0,0,1-1.28-.22,3.18,3.18,0,0,1-1-.68,3.27,3.27,0,0,1-.69-1.11,4.33,4.33,0,0,1-.25-1.54,3.53,3.53,0,0,1,.22-1.27,3,3,0,0,1,.63-1,3,3,0,0,1,1-.71,3.32,3.32,0,0,1,1.33-.26,3.11,3.11,0,0,1,1.16.21,2.41,2.41,0,0,1,.91.58,2.71,2.71,0,0,1,.6.95,3.56,3.56,0,0,1,.21,1.27,1.12,1.12,0,0,1-.07.49.33.33,0,0,1-.3.12Zm7.18-2.36a2.7,2.7,0,0,1,.73-.93,1.56,1.56,0,0,1,1-.34,1.2,1.2,0,0,1,.74.2l-.11,1.19a.34.34,0,0,1-.09.17.27.27,0,0,1-.16,0l-.3,0-.36,0a1.13,1.13,0,0,0-.47.08,1.11,1.11,0,0,0-.38.22,1.69,1.69,0,0,0-.29.35,4.12,4.12,0,0,0-.23.47v4.09h-1.6v-6.63h.94a.5.5,0,0,1,.34.09.45.45,0,0,1,.13.31Zm6.12.91h3.35v1.33h-3.35Zm16.14-4.77v9.34h-.89a.87.87,0,0,1-.35-.07.92.92,0,0,1-.27-.23l-4.87-6.23c0,.29,0,.55,0,.79v5.74h-1.53v-9.34h1.09a.33.33,0,0,1,.15,0,.28.28,0,0,1,.12.08l.13.14,4.89,6.26c0-.16,0-.3,0-.45s0-.28,0-.41v-5.67Zm4.56,2.6a3.75,3.75,0,0,1,1.33.24,3,3,0,0,1,1,.68,2.85,2.85,0,0,1,.66,1.07,4.32,4.32,0,0,1,0,2.84,3,3,0,0,1-.66,1.08,2.85,2.85,0,0,1-1,.68,3.54,3.54,0,0,1-1.33.24,3.61,3.61,0,0,1-1.35-.24,2.85,2.85,0,0,1-1-.68,3.13,3.13,0,0,1-.67-1.08,4.23,4.23,0,0,1-.23-1.42,4.27,4.27,0,0,1,.23-1.42,2.92,2.92,0,0,1,1.71-1.75A3.82,3.82,0,0,1,1144,262.43Zm0,5.61a1.4,1.4,0,0,0,1.22-.56,3.52,3.52,0,0,0,0-3.26,1.37,1.37,0,0,0-1.22-.56,1.45,1.45,0,0,0-1.25.56,3.52,3.52,0,0,0,0,3.26A1.45,1.45,0,0,0,1144,268Zm10.26-5.5-2.63,6.63h-1.45l-2.63-6.63h1.32a.56.56,0,0,1,.3.08.46.46,0,0,1,.16.21l1.28,3.55q.11.3.18.6c.05.2.09.4.13.6,0-.2.09-.4.14-.6s.12-.4.19-.6l1.31-3.55a.46.46,0,0,1,.16-.21.51.51,0,0,1,.28-.08Zm4.91,2.55a1.81,1.81,0,0,0-.09-.58,1.22,1.22,0,0,0-.7-.81,1.7,1.7,0,0,0-1.71.27,2,2,0,0,0-.51,1.12Zm-3,1a3.59,3.59,0,0,0,.18.89,1.86,1.86,0,0,0,.38.61,1.39,1.39,0,0,0,.55.36,2,2,0,0,0,.71.12,2.15,2.15,0,0,0,.66-.09,3.31,3.31,0,0,0,.49-.2l.37-.2a.64.64,0,0,1,.31-.09.34.34,0,0,1,.3.15l.46.58a3,3,0,0,1-.6.52,3.32,3.32,0,0,1-1.42.51,5.81,5.81,0,0,1-.72.05,3.55,3.55,0,0,1-1.28-.22,3.18,3.18,0,0,1-1-.68,3.27,3.27,0,0,1-.69-1.11,4.56,4.56,0,0,1-.25-1.54,3.76,3.76,0,0,1,.22-1.27,3.12,3.12,0,0,1,.63-1,3,3,0,0,1,1-.71,3.37,3.37,0,0,1,1.34-.26,3.09,3.09,0,0,1,1.15.21,2.33,2.33,0,0,1,.91.58,2.57,2.57,0,0,1,.6.95,3.55,3.55,0,0,1,.22,1.27,1.08,1.08,0,0,1-.08.49.33.33,0,0,1-.3.12Zm5.67,3.12v-6.63h1a.4.4,0,0,1,.41.29l.1.49q.18-.19.36-.36a2.63,2.63,0,0,1,.41-.27,1.83,1.83,0,0,1,.46-.18,1.92,1.92,0,0,1,.55-.08,1.53,1.53,0,0,1,1,.35,2.05,2.05,0,0,1,.61.89,2.21,2.21,0,0,1,.38-.56,2.25,2.25,0,0,1,.51-.38,2.1,2.1,0,0,1,.59-.22,2.72,2.72,0,0,1,.63-.08,2.68,2.68,0,0,1,1,.17,2,2,0,0,1,.72.49,2.25,2.25,0,0,1,.44.79,3.5,3.5,0,0,1,.15,1.07v4.22h-1.59V265a1.44,1.44,0,0,0-.28-.95,1,1,0,0,0-.82-.33,1.13,1.13,0,0,0-.45.09,1.15,1.15,0,0,0-.37.25,1,1,0,0,0-.25.39,1.55,1.55,0,0,0-.09.55v4.22h-1.6V265a1.42,1.42,0,0,0-.27-1,1,1,0,0,0-.78-.31,1.28,1.28,0,0,0-.66.18,2.15,2.15,0,0,0-.55.47v4.85Zm12.42-1.72a1.56,1.56,0,0,0,.59.46,1.76,1.76,0,0,0,.68.14,1.59,1.59,0,0,0,.66-.13,1.31,1.31,0,0,0,.5-.41,2.18,2.18,0,0,0,.32-.72,4.57,4.57,0,0,0,.11-1.05,2.65,2.65,0,0,0-.36-1.57,1.23,1.23,0,0,0-1-.5,1.53,1.53,0,0,0-.81.22,2.7,2.7,0,0,0-.65.59Zm0-4.1a3.12,3.12,0,0,1,.89-.66,2.48,2.48,0,0,1,2.15,0,2.24,2.24,0,0,1,.79.65,3,3,0,0,1,.5,1,4.71,4.71,0,0,1,.17,1.35,4.84,4.84,0,0,1-.2,1.47,3.25,3.25,0,0,1-.57,1.13,2.58,2.58,0,0,1-.89.72,2.72,2.72,0,0,1-1.73.2,2.29,2.29,0,0,1-.46-.17,2.48,2.48,0,0,1-.4-.26q-.16-.16-.33-.36l-.07.45a.35.35,0,0,1-.14.23.37.37,0,0,1-.25.08h-1v-9.6h1.59Zm10,1.74a1.81,1.81,0,0,0-.09-.58,1.53,1.53,0,0,0-.26-.49,1.36,1.36,0,0,0-.45-.32,1.7,1.7,0,0,0-1.71.27,1.94,1.94,0,0,0-.5,1.12Zm-3,1a3.59,3.59,0,0,0,.18.89,1.86,1.86,0,0,0,.38.61,1.46,1.46,0,0,0,.55.36,2,2,0,0,0,.71.12,2.1,2.1,0,0,0,.66-.09,2.91,2.91,0,0,0,.49-.2l.37-.2a.64.64,0,0,1,.31-.09.32.32,0,0,1,.3.15l.46.58a3,3,0,0,1-.6.52,3.68,3.68,0,0,1-.69.34,3.53,3.53,0,0,1-.73.17,5.78,5.78,0,0,1-.71.05,3.64,3.64,0,0,1-1.29-.22,3,3,0,0,1-1-.68,3,3,0,0,1-.69-1.11,4.32,4.32,0,0,1-.26-1.54,3.76,3.76,0,0,1,.22-1.27,3,3,0,0,1,1.63-1.75,3.37,3.37,0,0,1,1.34-.26,3.15,3.15,0,0,1,1.16.21,2.49,2.49,0,0,1,.91.58,2.69,2.69,0,0,1,.59.95,3.35,3.35,0,0,1,.22,1.27,1.08,1.08,0,0,1-.08.49.33.33,0,0,1-.3.12Zm7.18-2.36a2.72,2.72,0,0,1,.74-.93,1.54,1.54,0,0,1,1-.34,1.17,1.17,0,0,1,.73.2l-.1,1.19a.35.35,0,0,1-.1.17.25.25,0,0,1-.16,0l-.29,0-.37,0a1.16,1.16,0,0,0-.47.08,1.07,1.07,0,0,0-.37.22,1.72,1.72,0,0,0-.3.35c-.08.14-.15.3-.23.47v4.09h-1.59v-6.63h.93a.53.53,0,0,1,.35.09.5.5,0,0,1,.12.31Zm11.73,4a.54.54,0,0,1,.4.15.46.46,0,0,1,.16.38v1h-6.41v-.53a.86.86,0,0,1,.07-.34.77.77,0,0,1,.22-.32l2.83-2.84c.24-.25.45-.48.63-.7a4.51,4.51,0,0,0,.48-.65,2.84,2.84,0,0,0,.28-.65,2.34,2.34,0,0,0,.1-.71,1.72,1.72,0,0,0-.09-.58,1.11,1.11,0,0,0-.28-.43,1,1,0,0,0-.43-.26,1.59,1.59,0,0,0-.55-.09,1.51,1.51,0,0,0-.53.08,1.37,1.37,0,0,0-.43.23,1.44,1.44,0,0,0-.32.33,1.52,1.52,0,0,0-.19.43.68.68,0,0,1-.28.39.81.81,0,0,1-.51.05l-.84-.15a3.48,3.48,0,0,1,.38-1.18,2.59,2.59,0,0,1,.69-.84,2.82,2.82,0,0,1,1-.51,3.72,3.72,0,0,1,1.17-.18,3.44,3.44,0,0,1,1.18.2,2.61,2.61,0,0,1,.92.53,2.41,2.41,0,0,1,.59.84,2.75,2.75,0,0,1,.21,1.09,2.93,2.93,0,0,1-.15,1,4.08,4.08,0,0,1-.41.84,5.26,5.26,0,0,1-.59.77l-.72.77-2.1,2.15a4.34,4.34,0,0,1,.6-.14,3.88,3.88,0,0,1,.57-.05Zm8.32-3.19a7.48,7.48,0,0,1-.26,2.13,4.31,4.31,0,0,1-.72,1.49,2.88,2.88,0,0,1-1.1.87,3.21,3.21,0,0,1-1.35.29,3.25,3.25,0,0,1-1.36-.29,3,3,0,0,1-1.08-.87,4.49,4.49,0,0,1-.71-1.49,8.81,8.81,0,0,1,0-4.25,4.34,4.34,0,0,1,.71-1.48,2.9,2.9,0,0,1,1.08-.88,3.25,3.25,0,0,1,1.36-.29,3.21,3.21,0,0,1,1.35.29,2.81,2.81,0,0,1,1.1.88,4.17,4.17,0,0,1,.72,1.48A7.45,7.45,0,0,1,1208.45,264.49Zm-1.64,0a7.75,7.75,0,0,0-.15-1.67,3.22,3.22,0,0,0-.4-1.06,1.41,1.41,0,0,0-.57-.55,1.48,1.48,0,0,0-1.34,0,1.34,1.34,0,0,0-.56.55,3.47,3.47,0,0,0-.39,1.06,9.43,9.43,0,0,0,0,3.35,3.47,3.47,0,0,0,.39,1.06,1.43,1.43,0,0,0,.56.56,1.57,1.57,0,0,0,1.34,0,1.51,1.51,0,0,0,.57-.56,3.22,3.22,0,0,0,.4-1.06A7.78,7.78,0,0,0,1206.81,264.49Zm8.3,3.19a.54.54,0,0,1,.41.15.5.5,0,0,1,.16.38v1h-6.41v-.53a1.06,1.06,0,0,1,.06-.34.87.87,0,0,1,.22-.32l2.84-2.84c.23-.25.45-.48.63-.7a3.79,3.79,0,0,0,.47-.65,2.88,2.88,0,0,0,.29-.65,2.34,2.34,0,0,0,.1-.71,1.5,1.5,0,0,0-.1-.58,1.09,1.09,0,0,0-.7-.69,1.6,1.6,0,0,0-.56-.09,1.55,1.55,0,0,0-.53.08,1.22,1.22,0,0,0-.42.23,1.26,1.26,0,0,0-.32.33,1.28,1.28,0,0,0-.19.43.69.69,0,0,1-.29.39.77.77,0,0,1-.5.05l-.84-.15a3.48,3.48,0,0,1,.37-1.18,2.76,2.76,0,0,1,.7-.84,2.73,2.73,0,0,1,1-.51,3.66,3.66,0,0,1,1.16-.18,3.5,3.5,0,0,1,1.19.2,2.57,2.57,0,0,1,.91.53,2.43,2.43,0,0,1,.6.84,2.75,2.75,0,0,1,.21,1.09,2.93,2.93,0,0,1-.15,1,4.08,4.08,0,0,1-.41.84,5.34,5.34,0,0,1-.6.77c-.22.25-.46.51-.71.77l-2.11,2.15a4.34,4.34,0,0,1,.6-.14,4,4,0,0,1,.58-.05Zm7.5,0a.54.54,0,0,1,.4.15.46.46,0,0,1,.16.38v1h-6.41v-.53a.86.86,0,0,1,.07-.34.77.77,0,0,1,.22-.32l2.83-2.84c.24-.25.45-.48.63-.7a4.51,4.51,0,0,0,.48-.65,3.36,3.36,0,0,0,.28-.65,2.34,2.34,0,0,0,.1-.71,1.72,1.72,0,0,0-.09-.58,1.11,1.11,0,0,0-.28-.43,1,1,0,0,0-.43-.26,1.59,1.59,0,0,0-.55-.09,1.51,1.51,0,0,0-.53.08,1.37,1.37,0,0,0-.43.23,1.44,1.44,0,0,0-.32.33,1.52,1.52,0,0,0-.19.43.68.68,0,0,1-.28.39.81.81,0,0,1-.51.05l-.84-.15a3.48,3.48,0,0,1,.38-1.18,2.59,2.59,0,0,1,.69-.84,2.82,2.82,0,0,1,1-.51,3.72,3.72,0,0,1,1.17-.18,3.44,3.44,0,0,1,1.18.2,2.61,2.61,0,0,1,.92.53,2.41,2.41,0,0,1,.59.84,2.75,2.75,0,0,1,.21,1.09,2.93,2.93,0,0,1-.15,1,4.08,4.08,0,0,1-.41.84,5.26,5.26,0,0,1-.59.77l-.72.77-2.11,2.15a4.84,4.84,0,0,1,.61-.14,3.88,3.88,0,0,1,.57-.05Z" style="fill:#1a4373"/><path d="M141,385.87v4.75a17.47,17.47,0,0,1-.66,5.09,9.32,9.32,0,0,1-1.87,3.54,7.52,7.52,0,0,1-2.9,2.07,10,10,0,0,1-3.71.66,10.59,10.59,0,0,1-3-.42,7.69,7.69,0,0,1-2.55-1.3,8.43,8.43,0,0,1-1.93-2.24,11.42,11.42,0,0,1-1.25-3.19,19.17,19.17,0,0,1-.42-4.21v-4.75a18.1,18.1,0,0,1,.64-5.1,9.48,9.48,0,0,1,1.89-3.52,7.54,7.54,0,0,1,2.9-2.06,10.18,10.18,0,0,1,3.73-.66,10.45,10.45,0,0,1,3,.42,7.71,7.71,0,0,1,2.55,1.31,7.59,7.59,0,0,1,1.93,2.22,10.62,10.62,0,0,1,1.23,3.19A18.24,18.24,0,0,1,141,385.87Zm-5.72,5.47v-6.22a15,15,0,0,0-.17-2.39,7.35,7.35,0,0,0-.44-1.74,3.45,3.45,0,0,0-.7-1.16,2.61,2.61,0,0,0-1-.64,3.16,3.16,0,0,0-1.17-.22,3.1,3.1,0,0,0-1.45.33,2.8,2.8,0,0,0-1.09,1.05,5.65,5.65,0,0,0-.68,1.89,16.55,16.55,0,0,0-.22,2.88v6.22a16.73,16.73,0,0,0,.15,2.4,9.52,9.52,0,0,0,.44,1.77,4.16,4.16,0,0,0,.72,1.17,2.49,2.49,0,0,0,1,.64,3.34,3.34,0,0,0,1.19.2,3.1,3.1,0,0,0,1.43-.31,2.87,2.87,0,0,0,1.07-1,5.79,5.79,0,0,0,.68-1.93A15,15,0,0,0,135.27,391.34Z" style="fill:#16a75c"/><path d="M157.71,374.88v26.73H152v-20.2l-6.2,1.89v-4.44l11.38-4Z" style="fill:#16a75c"/><path d="M388.77,32.4v4.76a17.4,17.4,0,0,1-.66,5.08,9.32,9.32,0,0,1-1.87,3.54,7.52,7.52,0,0,1-2.9,2.07,10,10,0,0,1-3.71.66,10.59,10.59,0,0,1-3-.42,7.6,7.6,0,0,1-2.55-1.3,8.43,8.43,0,0,1-1.93-2.24,11.3,11.3,0,0,1-1.25-3.19,19.14,19.14,0,0,1-.42-4.2V32.4a17.74,17.74,0,0,1,.64-5.1A9.48,9.48,0,0,1,373,23.78a7.65,7.65,0,0,1,2.9-2.06,10.85,10.85,0,0,1,6.75-.23,7.51,7.51,0,0,1,2.55,1.3A7.7,7.7,0,0,1,387.1,25a10.72,10.72,0,0,1,1.23,3.19A18.36,18.36,0,0,1,388.77,32.4Zm-5.72,5.47V31.65a14.82,14.82,0,0,0-.17-2.38,7.31,7.31,0,0,0-.44-1.75,3.4,3.4,0,0,0-.7-1.15,2.52,2.52,0,0,0-1-.65,3.16,3.16,0,0,0-1.17-.22,3.13,3.13,0,0,0-1.45.33,2.87,2.87,0,0,0-1.09,1.05,5.61,5.61,0,0,0-.67,1.89,15.62,15.62,0,0,0-.22,2.88v6.22a17.1,17.1,0,0,0,.14,2.41,9.6,9.6,0,0,0,.44,1.76,4,4,0,0,0,.72,1.17,2.49,2.49,0,0,0,1,.64,3.31,3.31,0,0,0,1.19.21,3.11,3.11,0,0,0,1.43-.32,2.87,2.87,0,0,0,1.07-1,5.71,5.71,0,0,0,.68-1.93A14.91,14.91,0,0,0,383.05,37.87Z" style="fill:#16a75c"/><path d="M410.66,43.69v4.46H392.2V44.37l8.63-9.14a27.57,27.57,0,0,0,1.92-2.46,9.35,9.35,0,0,0,1.07-1.93,4.58,4.58,0,0,0,.33-1.61,4.69,4.69,0,0,0-.39-2,2.75,2.75,0,0,0-1.08-1.27,3.31,3.31,0,0,0-1.74-.44,3.12,3.12,0,0,0-1.89.57,3.68,3.68,0,0,0-1.22,1.58,5.73,5.73,0,0,0-.42,2.26h-5.76a8.66,8.66,0,0,1,4.46-7.65,9.72,9.72,0,0,1,4.94-1.21,11.49,11.49,0,0,1,4.86.91,6.6,6.6,0,0,1,3,2.63,7.92,7.92,0,0,1,1,4.11,8,8,0,0,1-.44,2.62,10.79,10.79,0,0,1-1.23,2.51,22,22,0,0,1-2,2.56c-.75.85-1.61,1.76-2.56,2.71l-4,4.59Z" style="fill:#16a75c"/><path d="M640.07,385.87v4.75a17.47,17.47,0,0,1-.66,5.09,9.32,9.32,0,0,1-1.87,3.54,7.45,7.45,0,0,1-2.9,2.07,10,10,0,0,1-3.7.66,10.66,10.66,0,0,1-3.05-.42,7.89,7.89,0,0,1-2.55-1.3,8.43,8.43,0,0,1-1.93-2.24,11.42,11.42,0,0,1-1.25-3.19,19.17,19.17,0,0,1-.42-4.21v-4.75a17.72,17.72,0,0,1,.65-5.1,9.48,9.48,0,0,1,1.89-3.52,7.43,7.43,0,0,1,2.89-2.06,10.18,10.18,0,0,1,3.73-.66,10.47,10.47,0,0,1,3,.42,7.72,7.72,0,0,1,2.55,1.31,7.56,7.56,0,0,1,1.92,2.22,10.62,10.62,0,0,1,1.23,3.19A17.7,17.7,0,0,1,640.07,385.87Zm-5.72,5.47v-6.22a15,15,0,0,0-.17-2.39,6.89,6.89,0,0,0-.44-1.74,3.43,3.43,0,0,0-.69-1.16,2.73,2.73,0,0,0-1-.64,3.29,3.29,0,0,0-2.62.11,2.71,2.71,0,0,0-1.08,1.05,5.44,5.44,0,0,0-.68,1.89,15.62,15.62,0,0,0-.22,2.88v6.22a18.48,18.48,0,0,0,.14,2.4,9.2,9.2,0,0,0,.44,1.76,4.08,4.08,0,0,0,.72,1.18,2.57,2.57,0,0,0,1,.64,3.36,3.36,0,0,0,1.2.2,3.16,3.16,0,0,0,1.43-.31,2.84,2.84,0,0,0,1.06-1,5.58,5.58,0,0,0,.68-1.93A15,15,0,0,0,634.35,391.34Z" style="fill:#16a75c"/><path d="M649,385.82H652a4.29,4.29,0,0,0,2-.44,2.76,2.76,0,0,0,1.21-1.25,4.18,4.18,0,0,0,.4-1.89,3.73,3.73,0,0,0-.36-1.67,2.72,2.72,0,0,0-1.12-1.16,3.72,3.72,0,0,0-1.91-.44,4,4,0,0,0-1.62.35,2.92,2.92,0,0,0-1.22,1,2.41,2.41,0,0,0-.48,1.51h-5.74a6.3,6.3,0,0,1,1.21-3.87,8,8,0,0,1,3.24-2.52,10.88,10.88,0,0,1,4.44-.9,12.63,12.63,0,0,1,4.87.88,6.88,6.88,0,0,1,4.44,6.76,5.37,5.37,0,0,1-.63,2.51,6.49,6.49,0,0,1-1.74,2.13,9,9,0,0,1-2.68,1.47,10.6,10.6,0,0,1-3.43.53H649Zm0,4.31v-2.92h3.85a13.36,13.36,0,0,1,3.74.48,8.28,8.28,0,0,1,2.81,1.37,5.91,5.91,0,0,1,1.76,2.19,6.52,6.52,0,0,1,.61,2.86,7.36,7.36,0,0,1-.74,3.34,7,7,0,0,1-2,2.48,9.78,9.78,0,0,1-3.1,1.54,14,14,0,0,1-3.86.51,12.25,12.25,0,0,1-3.32-.46,9.75,9.75,0,0,1-3-1.39,7.25,7.25,0,0,1-2.14-2.4,7.14,7.14,0,0,1-.81-3.49h5.74a3.11,3.11,0,0,0,.48,1.69,3.55,3.55,0,0,0,1.34,1.17,4.2,4.2,0,0,0,1.87.42,4.35,4.35,0,0,0,2.06-.44,3.14,3.14,0,0,0,1.3-1.25A3.58,3.58,0,0,0,656,394a4.4,4.4,0,0,0-.5-2.24,2.78,2.78,0,0,0-1.39-1.25,5.47,5.47,0,0,0-2.2-.4Z" style="fill:#16a75c"/><path d="M887.85,32.4v4.76a17.4,17.4,0,0,1-.66,5.08,9.32,9.32,0,0,1-1.87,3.54,7.45,7.45,0,0,1-2.9,2.07,10,10,0,0,1-3.7.66,10.66,10.66,0,0,1-3.05-.42,7.7,7.7,0,0,1-2.55-1.3,8.43,8.43,0,0,1-1.93-2.24A11,11,0,0,1,870,41.36a18.52,18.52,0,0,1-.43-4.2V32.4a18.1,18.1,0,0,1,.64-5.1,9.48,9.48,0,0,1,1.89-3.52,7.51,7.51,0,0,1,2.9-2.05,10,10,0,0,1,3.73-.67,10.46,10.46,0,0,1,3,.43A7.55,7.55,0,0,1,886.18,25a10.72,10.72,0,0,1,1.23,3.19A17.82,17.82,0,0,1,887.85,32.4Zm-5.72,5.47V31.65a14.82,14.82,0,0,0-.17-2.38,7.31,7.31,0,0,0-.44-1.75,3.38,3.38,0,0,0-.69-1.15,2.49,2.49,0,0,0-1-.64,2.94,2.94,0,0,0-1.17-.23,3,3,0,0,0-1.45.34,2.68,2.68,0,0,0-1.08,1,5.6,5.6,0,0,0-.68,1.89,15.62,15.62,0,0,0-.22,2.88v6.22a18.75,18.75,0,0,0,.14,2.41,8.81,8.81,0,0,0,.45,1.76,3.8,3.8,0,0,0,.71,1.17,2.57,2.57,0,0,0,1,.64,3.36,3.36,0,0,0,1.2.21,3.17,3.17,0,0,0,1.43-.32,2.84,2.84,0,0,0,1.06-1,5.5,5.5,0,0,0,.68-1.93A14.91,14.91,0,0,0,882.13,37.87Z" style="fill:#16a75c"/><path d="M910.15,38v4.44H890.92l-.32-3.49,10.94-17.47h4.53l-4.91,8.15-5,8.37Zm-2.87-16.52V48.15h-5.72V21.43Z" style="fill:#16a75c"/><path d="M1139.16,385.87v4.75a17.47,17.47,0,0,1-.66,5.09,9.34,9.34,0,0,1-1.88,3.54,7.37,7.37,0,0,1-2.9,2.07,10,10,0,0,1-3.7.66,10.66,10.66,0,0,1-3-.42,7.89,7.89,0,0,1-2.55-1.3,8.39,8.39,0,0,1-1.92-2.24,11.12,11.12,0,0,1-1.25-3.19,19.17,19.17,0,0,1-.42-4.21v-4.75a17.74,17.74,0,0,1,.64-5.1,9.48,9.48,0,0,1,1.89-3.52,7.47,7.47,0,0,1,2.9-2.06,10.09,10.09,0,0,1,3.72-.66,10.47,10.47,0,0,1,3,.42,7.91,7.91,0,0,1,2.55,1.31,7.59,7.59,0,0,1,1.93,2.22,11.17,11.17,0,0,1,1.23,3.19A18.24,18.24,0,0,1,1139.16,385.87Zm-5.73,5.47v-6.22a15.15,15.15,0,0,0-.16-2.39,7.86,7.86,0,0,0-.44-1.74,3.62,3.62,0,0,0-.7-1.16,2.69,2.69,0,0,0-1-.64A3.22,3.22,0,0,0,1130,379a3.13,3.13,0,0,0-1.45.33,2.71,2.71,0,0,0-1.08,1.05,5.65,5.65,0,0,0-.68,1.89,15.62,15.62,0,0,0-.22,2.88v6.22a16.73,16.73,0,0,0,.15,2.4,8.79,8.79,0,0,0,.44,1.77,3.92,3.92,0,0,0,.71,1.17,2.53,2.53,0,0,0,1,.64,3.27,3.27,0,0,0,1.19.2,3.13,3.13,0,0,0,1.43-.31,2.77,2.77,0,0,0,1.06-1,5.38,5.38,0,0,0,.68-1.93A15,15,0,0,0,1133.43,391.34Z" style="fill:#16a75c"/><path d="M1147.71,389.58l-4.55-1.08,1.56-13.6H1160v4.53h-10.61l-.64,5.63a8.62,8.62,0,0,1,1.56-.64,7.4,7.4,0,0,1,2.39-.37,9.43,9.43,0,0,1,3.48.61,6.74,6.74,0,0,1,2.57,1.76,7.38,7.38,0,0,1,1.6,2.81,12.31,12.31,0,0,1,.55,3.8,10.53,10.53,0,0,1-.55,3.37,8.34,8.34,0,0,1-1.69,2.87,8,8,0,0,1-2.85,2,10.28,10.28,0,0,1-4,.73,11.2,11.2,0,0,1-3.41-.53,9.81,9.81,0,0,1-3-1.54,7.81,7.81,0,0,1-2.07-2.5,7.29,7.29,0,0,1-.77-3.3h5.72a4.51,4.51,0,0,0,.54,1.84,3.11,3.11,0,0,0,1.19,1.17,3.6,3.6,0,0,0,1.74.4,3.34,3.34,0,0,0,1.62-.36,2.83,2.83,0,0,0,1-1.05,4.71,4.71,0,0,0,.59-1.54,9.47,9.47,0,0,0,.18-1.89,7.09,7.09,0,0,0-.23-1.87,3.74,3.74,0,0,0-.74-1.43,3.08,3.08,0,0,0-1.26-.92,4.55,4.55,0,0,0-1.82-.33,4.28,4.28,0,0,0-2.18.46A4.23,4.23,0,0,0,1147.71,389.58Z" style="fill:#16a75c"/></g></svg>