<svg id="Layer_1" data-name="Layer 1" xmlns="http://www.w3.org/2000/svg" xmlns:xlink="http://www.w3.org/1999/xlink" viewBox="0 0 669 259"><defs><clipPath id="clip-path"><rect width="669" height="259" style="fill:none"/></clipPath><clipPath id="clip-path-2"><rect y="-5.61" width="669" height="261.56" style="fill:none"/></clipPath><clipPath id="clip-path-3"><rect x="231" y="25" width="206.57" height="219.37" style="fill:none"/></clipPath><clipPath id="clip-path-4"><rect x="265.47" y="25.01" width="123.42" height="219.3" style="fill:none"/></clipPath></defs><g style="clip-path:url(#clip-path)"><g style="clip-path:url(#clip-path-2)"><path d="M675.16-.4H-6.15V255H675.16Z" style="fill:#32e6f9"/><path d="M.18,117.45S519.44,45.45,669,51.14V37.21S40.61,45.41.18,61.84Z" style="fill:#fff;opacity:0.11999999731779099;isolation:isolate"/><path d="M.18,75.09S102.49,57.45,170.73,62.47L.18,92.82Z" style="fill:#fff;opacity:0.14000000059604645;isolation:isolate"/><path d="M.18,228.25S519.44,168.8,669,174.48V148.06S151.54,143.12.18,172.68Z" style="fill:#fff;opacity:0.20000000298023224;isolation:isolate"/><path d="M197.83,184.92c-.12-.6-.68-.6-.81,0l-1.06,3.4.55.26c.13,0,.09.17,0,.17l-.59,0L193.24,197l1.23.56c.13.08.09.21-.09.17l-1.36-.09-1.7,5.45,10.39.51-2-9.79-.81,0c-.17,0-.17-.13,0-.17l.72-.35Z" style="fill:#23b781"/><path d="M191.57,191c-.12-.6-.68-.56-.8-.05l-1.07,3.41.56.26c.12,0,.08.17-.09.17l-.6,0L186.93,203l1.24.55c.13.08.08.21-.09.17l-1.36-.09-1.7,5.46,10.39.51-2-9.8-.77,0c-.17,0-.17-.13,0-.17l.72-.34Z" style="fill:#23b781"/><path d="M226.28,213.71a74.66,74.66,0,0,1-14.48,1.14,48.87,48.87,0,0,1-6.73-.68,29,29,0,0,1-5.92-1.83c-2-.81-4.55-.93-6.72-1.49a42.2,42.2,0,0,1-12.61-5.28c-1.06-.68-2.55-1.7-2.89-3-.34-1.15.89-2.39,1.91-2.81a2.63,2.63,0,0,1,3.54,1.49.92.92,0,0,1,1.66.13.68.68,0,0,1,.94.21.63.63,0,0,1,.08.3.81.81,0,0,1,.89-.64.49.49,0,0,1,.34.17,1.41,1.41,0,0,1-.08-2,1.36,1.36,0,0,1,1.66-.3,2.52,2.52,0,0,1,3.19-1.49,2.55,2.55,0,0,1,1.37,1.19,1,1,0,1,1,1.53-1.27l.08.08a1.43,1.43,0,0,1,1.07-1.74,1.47,1.47,0,0,1,1.66.76,5.09,5.09,0,0,1,1.32-3.49c1-.85,2.85-.6,3.07.64a1.68,1.68,0,0,1,1.32-.94c.55,0,1.1.6.89,1.11a1.36,1.36,0,0,1,1.92,1.92,1.08,1.08,0,0,1,1.49.46,1.11,1.11,0,0,1-.22,1.28.71.71,0,0,1,1.37.34,1.57,1.57,0,0,1,1.91-1.15,1.61,1.61,0,0,1,1.2,1.79.94.94,0,0,1,1-.89,1,1,0,0,1,.89.81,1.39,1.39,0,1,1,2.77-.3v.25a1,1,0,0,1,1.36.05.79.79,0,0,1,.21.34,2.45,2.45,0,0,1,4.9.29,1.14,1.14,0,0,1,1.83.9,1.49,1.49,0,1,1,2.94.47.47.47,0,0,1-.13.34.91.91,0,0,1,1.19.42,2.67,2.67,0,0,1,.09.26,1,1,0,0,1,1.75.42,1.45,1.45,0,0,1,1.53-1.27,1.31,1.31,0,0,1,1.23,1.15,2,2,0,0,1,2.26-1.83,2.05,2.05,0,0,1,1.41.76c-.22-.25.12-.64.42-.72a3.54,3.54,0,0,1,4,1.66,5.12,5.12,0,0,1,.13,4.47,9,9,0,0,1-3,3.49C234.54,212.13,230.32,213,226.28,213.71Z" style="fill:#179668"/><path d="M170.28,190.54c.17-.47.6-.43.68,0l.64,3-.46.17c-.09.05-.09.13,0,.17h.51l1.49,7.33-1.11.38c-.12,0-.08.17.05.17l1.14,0,1,4.73-8.85-.43,2.55-8.09.68.05c.13,0,.13-.09,0-.13l-.6-.38Z" style="fill:#0e8e5d"/><path d="M675.16,193.22S494.44,191,456.54,191.6C170.6,196.12,20,255,20,255H675.16Z" style="fill:#4edda3"/><path d="M70.45,184.75c-.09-.34-.43-.34-.51,0l-.55,2.17.34.13c.08,0,0,.13,0,.13H69.3l-1.36,5.32.81.3c.08,0,.08.12,0,.12h-.85l-.89,3.5h6.56l-1.58-6.09h-.51c-.09,0-.09-.09,0-.13l.42-.26Z" style="fill:#0e8e5d"/><path d="M62.44,174.74c-.21-.76-.89-.72-1.06,0l-1.19,4.6.76.3c.17,0,.13.25-.08.25h-.81l-2.9,11.2,1.67.68c.17.09.17.26-.09.26H56.91L55,199.31H68.79l-3.32-12.82h-1c-.22,0-.22-.17-.09-.25l.94-.51Z" style="fill:#23b781"/><path d="M48.52,181.6c.13-.47.6-.47.68,0l.77,2.94-.47.17c-.09,0-.09.17,0,.17h.51l1.88,7.19-1.07.43c-.13.08-.08.17,0,.17h1.14l1.24,4.68H44.43l2.13-8.22h.68c.13,0,.13-.08,0-.17l-.6-.34Z" style="fill:#0e8e5d"/><path d="M36.47,179.38c.21-.64.85-.59,1,0l1.11,3.92-.68.25c-.13,0-.09.22.08.22h.77l2.68,9.58-1.57.55c-.17.09-.13.22.08.22h1.71l1.78,6.26H30.55l3.11-10.95h1c.17,0,.21-.13.08-.21l-.85-.43Z" style="fill:#23b781"/><path d="M67.21,206.17a70.4,70.4,0,0,0,13,1.66,50.54,50.54,0,0,0,6.14-.34,26.67,26.67,0,0,0,5.4-1.41c1.88-.64,4.18-.64,6.14-1.06a37.82,37.82,0,0,0,11.58-4.26c1-.6,2.34-1.41,2.77-2.6.34-1-.73-2.21-1.62-2.64a2.41,2.41,0,0,0-3.28,1.19.87.87,0,0,0-1.53,0,.6.6,0,0,0-.85.17.51.51,0,0,0-.09.25.67.67,0,0,0-.77-.59.41.41,0,0,0-.3.12,1.25,1.25,0,0,0,.09-1.78,1.32,1.32,0,0,0-1.45-.35,2.24,2.24,0,0,0-2.81-1.49,2.18,2.18,0,0,0-1.28,1,.91.91,0,1,0-1.32-1.24L97,193a1.27,1.27,0,0,0-.9-1.62,1.31,1.31,0,0,0-1.53.64,4.85,4.85,0,0,0-1-3.2c-.81-.81-2.51-.68-2.77.43a1.56,1.56,0,0,0-1.15-.9.81.81,0,0,0-.85,1,1.27,1.27,0,0,0-1.75,0,1.18,1.18,0,0,0-.08,1.57,1,1,0,0,0-1.32.43,1,1,0,0,0,.13,1.11A.64.64,0,0,0,85,192a.66.66,0,0,0-.47.72,1.42,1.42,0,0,0-2.81.43.86.86,0,0,0-.93-.81A.85.85,0,0,0,80,193a1.27,1.27,0,0,0-1-1.49,1.26,1.26,0,0,0-1.49,1,.9.9,0,0,0,0,.34.82.82,0,0,0-1.19,0,1.32,1.32,0,0,0-.21.29,2.24,2.24,0,0,0-4.47,0,1,1,0,0,0-1.71.72,1.35,1.35,0,0,0-2.68.3.71.71,0,0,0,.09.34.84.84,0,0,0-1.11.34,1.33,1.33,0,0,1-.09.21c-.25-.72-1.61-.47-1.57.3a1.25,1.25,0,0,0-1.32-1.19,1.3,1.3,0,0,0-1.19,1,1.84,1.84,0,0,0-2-1.75,2,2,0,0,0-1.28.6c.21-.22-.08-.56-.38-.68a3.18,3.18,0,0,0-3.66,1.36,4.48,4.48,0,0,0-.3,4A8,8,0,0,0,57,202C59.85,204.38,63.59,205.4,67.21,206.17Z" style="fill:#179668"/><path d="M159,185.39c-.17-.56-.68-.56-.81,0l-.89,3.45.55.21c.13,0,.09.17,0,.17h-.59l-2.18,8.43,1.28.51c.13.09.13.21-.08.17h-1.37l-1.44,5.49h10.43l-2.51-9.66h-.77c-.17,0-.17-.13,0-.17l.68-.39Z" style="fill:#23b781"/><path d="M173.37,210.89a75,75,0,0,1-14.52.77,45.13,45.13,0,0,1-6.73-.9,25.78,25.78,0,0,1-5.83-2c-2-.85-4.56-1.06-6.69-1.66a43.13,43.13,0,0,1-12.47-5.62c-1.07-.72-2.51-1.74-2.81-3.06s.93-2.35,2-2.77c1.36-.51,3.19.17,3.49,1.57a.92.92,0,0,1,1.66.17.7.7,0,0,1,.94.26.66.66,0,0,1,.08.3.75.75,0,0,1,.9-.6.91.91,0,0,1,.34.17,1.41,1.41,0,0,1,0-2,1.36,1.36,0,0,1,1.66-.25,2.49,2.49,0,0,1,3.23-1.41,2.27,2.27,0,0,1,1.32,1.2,1,1,0,1,1,1.58-1.24l.08.09a1.49,1.49,0,0,1,1.11-1.75,1.46,1.46,0,0,1,1.62.81,5.32,5.32,0,0,1,1.4-3.45c1-.85,2.86-.55,3,.72a1.61,1.61,0,0,1,1.32-.89c.55,0,1.11.64.89,1.15a1.39,1.39,0,0,1,1.92.13,1.38,1.38,0,0,1,0,1.83,1.11,1.11,0,0,1,1.23,1.79.64.64,0,0,1,.85-.47.66.66,0,0,1,.47.85,1.57,1.57,0,0,1,2-1.11,1.61,1.61,0,0,1,1.15,1.83,1,1,0,0,1,1.11-.85,1,1,0,0,1,.85.85,1.39,1.39,0,0,1,1.28-1.53,1.37,1.37,0,0,1,1.53,1.28v.3a1,1,0,0,1,1.36,0,.79.79,0,0,1,.21.34,2.48,2.48,0,1,1,4.94.42,1.13,1.13,0,0,1,1.79.94,1.5,1.5,0,1,1,2.94.56c0,.12-.08.25-.13.38a.88.88,0,0,1,1.19.47.51.51,0,0,1,.09.25c.34-.76,1.83-.38,1.7.47a1.39,1.39,0,0,1,1.54-1.23,1.34,1.34,0,0,1,1.23,1.19,2.05,2.05,0,0,1,2.26-1.83,1.92,1.92,0,0,1,1.4.81c-.21-.26.13-.6.47-.73a3.56,3.56,0,0,1,3.92,1.79,5.15,5.15,0,0,1,0,4.47,9,9,0,0,1-3.07,3.41C181.68,209.53,177.46,210.34,173.37,210.89Z" style="fill:#179668"/><path d="M165,189.05c.12-.47.59-.47.68,0l.76,2.94-.46.17c-.09,0-.09.13,0,.13h.51l1.87,7.19-1.06.43c-.13.08-.09.17,0,.17h1.19l1.24,4.68h-8.9l2.13-8.22h.68c.13,0,.13-.08,0-.17l-.59-.34Z" style="fill:#0e8e5d"/><path d="M-6.32,255.09V195.44s487.31,3.1,608.37,59.65Z" style="fill:#3eba82"/><path d="M121.17,223.21l-9.84-4-2.81.13,7.24,3.88Z" style="fill:#179668;opacity:0.5;isolation:isolate"/><path d="M106,219.46l-8.77.55.55-.76,23.85-1.07,1.4.47Z" style="fill:#179668;opacity:0.5;isolation:isolate"/><path d="M115.76,223.2h5.41l-2-55h-1.45Z" style="fill:#fff"/><path d="M117.5,166.53h1.71a.76.76,0,0,1,.76.76v1.11a.76.76,0,0,1-.76.77H117.5a.76.76,0,0,1-.76-.77v-1.11A.79.79,0,0,1,117.5,166.53Z" style="fill:#c6d9f2"/><path d="M118.44,169.13l-2.17,54.08h-.68l2-54.08Z" style="fill:#c6d9f2"/><path d="M118,164.57l-1,.42-.56-1.36-1.87-.55-8.9-24.61a.61.61,0,0,1,0-.56l.13-.34a.33.33,0,0,1,.21-.21l.21-.09Z" style="fill:#fff"/><path d="M119.89,167.16l.21-1.06,1.45.26,1.53-1.2,25.34,6.43a.84.84,0,0,1,.43.3l.21.3a.3.3,0,0,1,0,.26l0,.25Z" style="fill:#fff"/><path d="M116.78,167.38l.89.64-.85,1.19.47,1.87-16.18,20.53a1,1,0,0,1-.47.3l-.34.08a.53.53,0,0,1-.26,0l-.21-.13Z" style="fill:#fff"/><path d="M118.36,168.15a2,2,0,1,0-2-2.05A2,2,0,0,0,118.36,168.15Z" style="fill:#eef8f5"/><path d="M80.88,206.3l-6.43-2.6-1.83,0,4.69,2.56Z" style="fill:#179668;opacity:0.5;isolation:isolate"/><path d="M71,203.87l-5.7.34.38-.47L81.18,203l.9.3Z" style="fill:#179668;opacity:0.5;isolation:isolate"/><path d="M77.31,206.3h3.58l-1.37-35.94h-.93Z" style="fill:#fff"/><path d="M78.76,169.34h.59a.76.76,0,0,1,.77.76v.22a.76.76,0,0,1-.77.76h-.59a.76.76,0,0,1-.77-.76v-.22A.76.76,0,0,1,78.76,169.34Z" style="fill:#c6d9f2"/><path d="M79.1,171,77.65,206.3h-.38L78.54,171Z" style="fill:#c6d9f2"/><path d="M78.8,168.06l-.64.3-.38-.9-1.2-.38L70.79,151a.49.49,0,0,1,0-.34l.09-.22a.18.18,0,0,1,.13-.12l.17-.09Z" style="fill:#fff"/><path d="M80,169.76l.13-.68.94.17,1-.76,16.52,4.17a.48.48,0,0,1,.3.21L99,173a.24.24,0,0,1,0,.17l0,.17Z" style="fill:#fff"/><path d="M78,169.89l.6.43-.56.76.3,1.24L67.81,185.69a.44.44,0,0,1-.3.17l-.21,0a.27.27,0,0,1-.17,0l-.13-.09Z" style="fill:#fff"/><path d="M79.05,170.36A1.32,1.32,0,1,0,77.73,169,1.32,1.32,0,0,0,79.05,170.36Z" style="fill:#eef8f5"/><path d="M169.48,214.09l-11.84.46a.27.27,0,0,1-.17,0l-5-5.53a.26.26,0,0,1,0-.35.21.21,0,0,1,.17-.08l11.84-.43a.24.24,0,0,1,.17,0l4.94,5.53a.22.22,0,0,1,0,.3C169.56,214,169.52,214,169.48,214.09Z" style="fill:#179668;opacity:0.5;isolation:isolate"/><path d="M160.66,212.94a.63.63,0,0,0,.39.08l-.26-.25Z" style="fill:#335860"/><path d="M160.71,206.72l.08,6a.29.29,0,0,0,.3.3h0l4.13-.47a.28.28,0,0,0,.26-.29v0l-1.19-5.92c-.05-.12-.17-.25-.3-.21l-3.07.34A.3.3,0,0,0,160.71,206.72Z" style="fill:#517d84"/><path d="M160.66,212.94l-1.91-1.62a.27.27,0,0,1,0-.39l.42-.51,1.58,1.28v1.19c.08.05,0,.09-.05.05Z" style="fill:#335860"/><path d="M159.17,210.47l1.58-.17,0,1.44Z" style="fill:#27454c"/><path d="M160.79,208.8l3.92-.38.25,1.19-4.21.47Z" style="fill:#335860"/><path d="M170.59,207.74l-.17.09-5.37-5.71a.27.27,0,0,0-.17,0l-13,.17s-.08,0-.08,0l-.17-.08,0,.68s0,.12.08.12l5.45,6.09a.24.24,0,0,0,.17.05l13-.51a.28.28,0,0,0,.26-.26Z" style="fill:#38606b"/><path d="M170.33,208l-13,.51a.28.28,0,0,1-.17,0l-5.45-6.09a.27.27,0,0,1,0-.34s.09-.09.13-.09l13-.51c.08,0,.13,0,.17,0l5.45,6.09a.27.27,0,0,1,0,.34C170.46,208,170.37,208,170.33,208Z" style="fill:#f2fafc"/><path d="M160.79,204.72l-5.92.21a.29.29,0,0,1-.25-.13l-1.83-2.08a.18.18,0,0,1,0-.26.12.12,0,0,1,.08,0l6.39-.26a.42.42,0,0,1,.3.13l1.45,1.83a.39.39,0,0,1,0,.51S160.88,204.72,160.79,204.72Z" style="fill:#66d7f2"/><path d="M163.3,207.1a.35.35,0,0,1-.08.51.29.29,0,0,1-.17.09l-5.66.21s-.09,0-.13,0L155.64,206a.35.35,0,0,1,0-.51.32.32,0,0,1,.22-.09l5.74-.21a.25.25,0,0,1,.26.13Z" style="fill:#66d7f2"/><path d="M166.37,204.5l-3.87.13a.37.37,0,0,1-.3-.13l-1.58-1.83a.35.35,0,0,1,0-.51.36.36,0,0,1,.22-.08l3.83-.13a.33.33,0,0,1,.17.08l1.75,1.92a.38.38,0,0,1,0,.51C166.54,204.46,166.46,204.5,166.37,204.5Z" style="fill:#66d7f2"/><path d="M169.22,207.4l-4.42.17a.37.37,0,0,1-.3-.13L163,205.65a.36.36,0,0,1,0-.51.31.31,0,0,1,.21-.08l4-.13a.46.46,0,0,1,.3.13l1.87,2a.19.19,0,0,1,0,.26S169.27,207.4,169.22,207.4Z" style="fill:#66d7f2"/><path d="M156.49,202.29l-.94,2.6,3-.13.77-2.6Z" style="fill:#9ae9f7;opacity:0.800000011920929;isolation:isolate"/><path d="M158.49,205.27l-.93,2.64,3-.13.81-2.59Z" style="fill:#9ae9f7;opacity:0.800000011920929;isolation:isolate"/><path d="M165.39,205l-.55,2.56,1.74,0,.43-2.6Z" style="fill:#9ae9f7;opacity:0.800000011920929;isolation:isolate"/><path d="M163.05,202l-.51,2.55,1.7,0,.47-2.56Z" style="fill:#9ae9f7;opacity:0.800000011920929;isolation:isolate"/><path d="M180.08,224.13l-11.84.47a.28.28,0,0,1-.17,0l-5-5.54a.27.27,0,0,1,0-.34.23.23,0,0,1,.17-.08l11.84-.43a.27.27,0,0,1,.17,0l4.94,5.54c.08.09.13.21,0,.3A.21.21,0,0,1,180.08,224.13Z" style="fill:#179668;opacity:0.5;isolation:isolate"/><path d="M171.27,223s.08.08.38.08l-.25-.25Z" style="fill:#335860"/><path d="M171.31,216.81l.09,6a.28.28,0,0,0,.29.3h.05l4.13-.47a.27.27,0,0,0,.25-.29v0l-1.19-5.92c0-.12-.17-.25-.3-.21l-3,.34C171.4,216.55,171.31,216.68,171.31,216.81Z" style="fill:#517d84"/><path d="M171.27,223l-1.92-1.62a.26.26,0,0,1,0-.38l.43-.52,1.57,1.28V223c0,.05,0,.05,0,.05Z" style="fill:#335860"/><path d="M169.78,220.51l1.57-.12v1.4Z" style="fill:#27454c"/><path d="M171.35,218.85l4-.38.26,1.19-4.22.47Z" style="fill:#335860"/><path d="M181.15,217.79l-.17.09-5.37-5.71a.27.27,0,0,0-.17,0l-13,.17s-.08,0-.08,0l-.18-.08,0,.68s0,.12.08.12l5.45,6.09a.24.24,0,0,0,.17,0l13-.52a.24.24,0,0,0,.22-.25Z" style="fill:#38606b"/><path d="M180.93,218.09l-13,.51a.28.28,0,0,1-.17,0l-5.45-6.09a.27.27,0,0,1,0-.34c.05,0,.09-.09.13-.09l13-.51a.27.27,0,0,1,.17,0l5.45,6.09a.25.25,0,0,1,0,.34S181,218.09,180.93,218.09Z" style="fill:#f2fafc"/><path d="M171.4,214.77l-5.92.21a.29.29,0,0,1-.26-.13l-1.83-2.08a.2.2,0,0,1,0-.26.14.14,0,0,1,.09,0l6.38-.26a.42.42,0,0,1,.3.13l1.45,1.83a.39.39,0,0,1,0,.51S171.48,214.77,171.4,214.77Z" style="fill:#66d7f2"/><path d="M173.91,217.15a.39.39,0,0,1,0,.51.32.32,0,0,1-.22.09L168,218s-.09,0-.13,0l-1.62-1.83a.36.36,0,0,1,0-.51.31.31,0,0,1,.21-.08l5.75-.22a.25.25,0,0,1,.25.13Z" style="fill:#66d7f2"/><path d="M177,214.55l-3.87.13a.38.38,0,0,1-.3-.13l-1.57-1.83a.35.35,0,0,1,0-.51.33.33,0,0,1,.21-.08l3.83-.13a.29.29,0,0,1,.17.09l1.75,1.91a.38.38,0,0,1,0,.51A.59.59,0,0,1,177,214.55Z" style="fill:#66d7f2"/><path d="M179.83,217.45l-4.43.17a.37.37,0,0,1-.3-.13l-1.53-1.78a.36.36,0,0,1,0-.52.33.33,0,0,1,.21-.08l4-.13a.44.44,0,0,1,.3.13l1.87,2c.09.09.05.17,0,.26A.15.15,0,0,1,179.83,217.45Z" style="fill:#66d7f2"/><path d="M167.1,212.34l-.94,2.6,3-.09.77-2.64Z" style="fill:#9ae9f7;opacity:0.800000011920929;isolation:isolate"/><path d="M169.1,215.36l-.94,2.6,3-.08.81-2.64Z" style="fill:#9ae9f7;opacity:0.800000011920929;isolation:isolate"/><path d="M176,215.07l-.51,2.59,1.7-.08.47-2.56Z" style="fill:#9ae9f7;opacity:0.800000011920929;isolation:isolate"/><path d="M173.65,212.09l-.51,2.59,1.7-.08.43-2.56Z" style="fill:#9ae9f7;opacity:0.800000011920929;isolation:isolate"/><path d="M148.74,214.09l-11.84.46a.28.28,0,0,1-.17,0l-5-5.53a.28.28,0,0,1,0-.35.23.23,0,0,1,.17-.08l11.84-.43s.13,0,.17,0l4.94,5.53a.2.2,0,0,1,0,.3S148.78,214,148.74,214.09Z" style="fill:#179668;opacity:0.5;isolation:isolate"/><path d="M139.93,212.94s.08.08.38.08l-.26-.25Z" style="fill:#335860"/><path d="M140,206.72l.08,6a.29.29,0,0,0,.3.3h.05l4.13-.47a.27.27,0,0,0,.25-.29v0l-1.19-5.92c0-.12-.17-.25-.3-.21l-3,.34C140.05,206.46,140,206.59,140,206.72Z" style="fill:#517d84"/><path d="M139.93,212.94,138,211.32a.27.27,0,0,1,0-.39l.42-.51L140,211.7v1.19a.14.14,0,0,1,0,.09S139.93,213,139.93,212.94Z" style="fill:#335860"/><path d="M138.44,210.47l1.57-.17v1.44Z" style="fill:#27454c"/><path d="M140,208.8l4-.38.21,1.19-4.17.47Z" style="fill:#335860"/><path d="M149.81,207.74l-.17.09-5.37-5.71a.27.27,0,0,0-.17,0l-13,.17s-.08,0-.08,0l-.18-.08.05.68s0,.12.08.12l5.45,6.09c0,.05.13.05.17.05l13-.51a.25.25,0,0,0,.22-.26Z" style="fill:#38606b"/><path d="M149.55,208l-13,.51a.27.27,0,0,1-.17,0l-5.45-6.09a.27.27,0,0,1,0-.34c.05,0,.09-.09.13-.09l13-.51a.23.23,0,0,1,.17,0l5.45,6.09a.27.27,0,0,1,0,.34C149.68,208,149.64,208,149.55,208Z" style="fill:#f2fafc"/><path d="M140.06,204.72l-5.92.21a.29.29,0,0,1-.26-.13l-1.83-2.08a.2.2,0,0,1,0-.26.12.12,0,0,1,.08,0l6.39-.26a.4.4,0,0,1,.3.13l1.45,1.83a.35.35,0,0,1,0,.51S140.14,204.72,140.06,204.72Z" style="fill:#66d7f2"/><path d="M142.57,207.1a.35.35,0,0,1-.09.51.29.29,0,0,1-.17.09l-5.66.21c-.05,0-.09,0-.13,0L134.9,206a.34.34,0,0,1,0-.51.28.28,0,0,1,.21-.09l5.75-.21a.25.25,0,0,1,.25.13Z" style="fill:#66d7f2"/><path d="M145.63,204.5l-3.87.13a.37.37,0,0,1-.3-.13l-1.58-1.83a.36.36,0,0,1,.05-.51.31.31,0,0,1,.21-.08L144,202a.33.33,0,0,1,.17.08l1.75,1.92a.38.38,0,0,1,0,.51C145.8,204.46,145.72,204.5,145.63,204.5Z" style="fill:#66d7f2"/><path d="M148.49,207.4l-4.43.17a.38.38,0,0,1-.3-.13l-1.53-1.79a.35.35,0,0,1,0-.51.33.33,0,0,1,.21-.08l4-.13a.44.44,0,0,1,.3.13l1.87,2a.19.19,0,0,1,0,.26S148.53,207.4,148.49,207.4Z" style="fill:#66d7f2"/><path d="M135.71,202.29l-.94,2.6,3-.13.81-2.6Z" style="fill:#9ae9f7;opacity:0.800000011920929;isolation:isolate"/><path d="M137.76,205.27l-.94,2.64,3-.13.77-2.59Z" style="fill:#9ae9f7;opacity:0.800000011920929;isolation:isolate"/><path d="M144.61,205l-.51,2.56,1.7,0,.43-2.6Z" style="fill:#9ae9f7;opacity:0.800000011920929;isolation:isolate"/><path d="M142.31,202l-.51,2.55,1.7,0,.43-2.56Z" style="fill:#9ae9f7;opacity:0.800000011920929;isolation:isolate"/><path d="M160,224.14l-11.79.46a.27.27,0,0,1-.17,0L143.08,219c-.09-.09-.13-.22,0-.3a.19.19,0,0,1,.17-.09l11.79-.42a.27.27,0,0,1,.17,0l5,5.53a.26.26,0,0,1,0,.35S160,224.14,160,224.14Z" style="fill:#179668;opacity:0.5;isolation:isolate"/><path d="M151.17,223s.08.08.38.08l-.25-.25Z" style="fill:#335860"/><path d="M151.21,216.81l.09,6a.28.28,0,0,0,.29.29h0l4.13-.46a.28.28,0,0,0,.25-.3l-1.19-5.92c0-.13-.17-.26-.3-.22l-3,.35A.28.28,0,0,0,151.21,216.81Z" style="fill:#517d84"/><path d="M151.17,223l-1.92-1.62a.26.26,0,0,1,0-.38l.43-.52,1.57,1.28V223c.09.05,0,.05,0,.05Z" style="fill:#335860"/><path d="M149.72,220.51l1.53-.12.05,1.4Z" style="fill:#27454c"/><path d="M151.3,218.85l3.91-.38.26,1.19-4.22.47Z" style="fill:#335860"/><path d="M161.09,217.79l-.17.09-5.37-5.71s-.12-.09-.17,0l-13,.17s-.08,0-.08,0l-.17-.08,0,.68s0,.12.09.12l5.45,6.09s.12.09.17,0l13-.52a.23.23,0,0,0,.21-.25Z" style="fill:#38606b"/><path d="M160.84,218.09l-13,.51a.25.25,0,0,1-.17,0l-5.45-6.09a.25.25,0,0,1,0-.34s.08-.09.12-.09l13-.51a.27.27,0,0,1,.17,0l5.45,6.09a.25.25,0,0,1,0,.34S160.88,218.09,160.84,218.09Z" style="fill:#f2fafc"/><path d="M151.34,214.77l-5.92.21a.32.32,0,0,1-.26-.13l-1.83-2.08a.21.21,0,0,1,0-.26.16.16,0,0,1,.09,0l6.39-.26a.26.26,0,0,1,.25.13l1.45,1.83a.34.34,0,0,1-.09.51C151.47,214.73,151.38,214.77,151.34,214.77Z" style="fill:#66d7f2"/><path d="M153.81,217.15a.39.39,0,0,1,0,.51.32.32,0,0,1-.22.09l-5.66.26s-.09,0-.13,0l-1.62-1.83a.36.36,0,0,1,.05-.51.33.33,0,0,1,.21-.08l5.75-.22a.42.42,0,0,1,.3.13Z" style="fill:#66d7f2"/><path d="M156.88,214.55l-3.88.13a.38.38,0,0,1-.3-.13l-1.57-1.83a.35.35,0,0,1,0-.51.33.33,0,0,1,.21-.08l3.83-.13s.13,0,.13.09l1.79,1.91a.38.38,0,0,1,0,.51A.55.55,0,0,1,156.88,214.55Z" style="fill:#66d7f2"/><path d="M159.77,217.45l-4.43.17a.38.38,0,0,1-.3-.13l-1.53-1.78a.36.36,0,0,1,0-.52.36.36,0,0,1,.22-.08l4-.13a.42.42,0,0,1,.29.13l1.88,2c.08.09,0,.17,0,.26A.17.17,0,0,1,159.77,217.45Z" style="fill:#66d7f2"/><path d="M147,212.34l-.94,2.6,3-.09.81-2.64Z" style="fill:#9ae9f7;opacity:0.800000011920929;isolation:isolate"/><path d="M149,215.36l-.9,2.6,3-.08.81-2.64Z" style="fill:#9ae9f7;opacity:0.800000011920929;isolation:isolate"/><path d="M155.9,215.07l-.52,2.59,1.71-.08.42-2.56Z" style="fill:#9ae9f7;opacity:0.800000011920929;isolation:isolate"/><path d="M153.55,212.09l-.51,2.59,1.71-.08.46-2.56Z" style="fill:#9ae9f7;opacity:0.800000011920929;isolation:isolate"/><path d="M441,218.72a4.5,4.5,0,0,1,2.07-4,4,4,0,0,1,4.31.4,6,6,0,0,1,3.59-4.95,5.37,5.37,0,0,1,5.75,1.44,2.84,2.84,0,0,1,3-1.12,3.3,3.3,0,0,1,2.39,2.48,5.47,5.47,0,0,1,6.47-1.12,6.74,6.74,0,0,1,3.27,6.23C461.2,218.09,450.58,218.72,441,218.72Z" style="fill:#179668"/><path d="M513.38,199.33H479.47v19.95h33.91Z" style="fill:#d3ebef"/><path d="M512.66,199.89H480v18.75h32.63Z" style="fill:#40a0be"/><path d="M512.27,200.93H480.51V208h31.76Z" style="fill:#4ab3cd"/><path d="M493.27,214.73v-.24a.08.08,0,0,0-.08-.08v-.07l-.08-.08-.07-.08-.09-.08h-.15l-.08-.09-.08-.07a.08.08,0,0,1-.08-.08h0l.08-.08c.08,0,.08-.08.16-.16l.08-.08V213a.08.08,0,0,0-.08-.08l-.08-.08a.08.08,0,0,0-.08-.08,1.7,1.7,0,0,0-.72-.56,4.83,4.83,0,0,0,.48-1.52v-.56c-.08-.15-.08-.31-.24-.47s-.24-.24-.32-.32a1.53,1.53,0,0,0-1-.16.63.63,0,0,0,.08-.64c-.16-.24-.4-.32-.56-.16V208a.15.15,0,0,0-.24-.08H490a1.61,1.61,0,0,0-.88-1.68,2.1,2.1,0,0,0-1.91.24c-.08-.16-.24-.31-.4-.24a.34.34,0,0,0-.08-.39h-.08a.59.59,0,0,0-.48.16,2.84,2.84,0,0,1-.16-.8.42.42,0,0,0-.16-.32.36.36,0,0,0-.4,0l-.16.08h-.08l-.07.08h-.09l-.07.08-.09.08-.07.08-.08.08-.08.08-.08.08-.08.08-.08.08-.08.08-.08.08a2.69,2.69,0,0,0-.64,1.27c0,.08-.08.24-.08.32a.29.29,0,0,1-.08.24l-.16.16a.35.35,0,0,0-.08.4.81.81,0,0,0-.32.56,1.67,1.67,0,0,0-.32-.48l-.08-.08h-.64l-.08.08-.16.16v.08l-.16.16-.08.16c-.31.64.16,1.44.16,2.23-.08-.08-.16.16-.16.24s.16.24.08.4a.28.28,0,0,0-.39.16V212c0-.16-.24-.16-.32-.08s-.16.24-.08.4a3.89,3.89,0,0,0,.08,1,.29.29,0,0,0,.08.24.32.32,0,0,0,.07.24.26.26,0,0,0,.08.23c0,.09.09.17.09.25v.08l.07.15c.09.08.08.16.16.16l.16.16a.3.3,0,0,0,0,.48c-.08-.16-.39-.08-.48.16a.73.73,0,0,0,.25.56,2.59,2.59,0,0,0,2.79.72c-.08.08-.16.16-.16.24a1.54,1.54,0,0,0,1.19,0,1.36,1.36,0,0,0,.56.08,3.28,3.28,0,0,0,.88-.08,1.67,1.67,0,0,1,.32.48c-.08.4-.4.71-.64.71h1.28a3.81,3.81,0,0,1-.4-1c.08-.16.08-.24.16-.4a3.89,3.89,0,0,0,1,.08c.16,0,.4-.08.56-.08a6.8,6.8,0,0,0,3.35.4c.16,0,.24-.08.4-.16a.35.35,0,0,0,.08-.4l-.08-.08-.08-.08h-.08l-.64-.16a2.4,2.4,0,0,0,.64-.32c.08-.08.16-.08.24-.16l.24-.24a1,1,0,0,0,.31-.48v-.16C493.59,214.57,493.27,214.73,493.27,214.73ZM485.61,217l-.32-.08c.24-.08.4-.16.64-.24l.16.08a.61.61,0,0,0,.32.16A2.47,2.47,0,0,1,485.61,217Zm.72-.48-.08-.08c.16-.08.4-.16.56-.24v.16c0,.16.08.4.08.56A2.43,2.43,0,0,1,486.33,216.49Zm.72.16c0-.16-.08-.32-.08-.48h.08l.48.08a3.48,3.48,0,0,0-.48.56Zm1.2,0a2.72,2.72,0,0,1-.8-.08l.24-.24a7.43,7.43,0,0,1,1,.32Z" style="fill:#178ea6"/><path d="M491.6,208.51c.32.48.8-.8.8-.8S491.28,208,491.6,208.51Z" style="fill:#178ea6"/><path d="M491.44,207.87c.48.16.24-1.12.24-1.12S490.8,207.63,491.44,207.87Z" style="fill:#178ea6"/><path d="M487.45,205.72c.48.24.32-1.12.32-1.12S486.81,205.4,487.45,205.72Z" style="fill:#178ea6"/><path d="M487,205.16c.48-.16-.32-1.12-.32-1.12S486.33,205.32,487,205.16Z" style="fill:#178ea6"/><path d="M482.26,207.47c.48-.16-.24-1.12-.24-1.12S481.62,207.63,482.26,207.47Z" style="fill:#178ea6"/><path d="M483.3,206.75s-1,.48-.48,1S483.3,206.75,483.3,206.75Z" style="fill:#178ea6"/><path d="M481.7,207.87c.24-.56-1-.32-1-.32S481.38,208.75,481.7,207.87Z" style="fill:#178ea6"/><path d="M508,215.85v-.24l-.08-.08-.08-.08h0l.08-.08.16-.08a.08.08,0,0,1,.08-.08v-.48l-.08-.08a.94.94,0,0,0-.48-.4,2.64,2.64,0,0,0,.4-1.11v-.32a.42.42,0,0,0-.16-.32l-.24-.24a1.13,1.13,0,0,0-.72-.08.38.38,0,0,0,.08-.48.29.29,0,0,0-.4-.16v-.24c-.08-.08-.16-.16-.16-.08a1.08,1.08,0,0,0-.64-1.2,1.66,1.66,0,0,0-1.35.16c0-.16-.16-.23-.32-.16.08-.07,0-.23-.08-.23h-.08a.48.48,0,0,0-.32.08l-.08-.56c0-.08-.08-.16-.08-.24a.15.15,0,0,0-.24,0c-.08,0-.16.08-.24.08l-.08.08c-.08,0-.08.08-.16.08l-.08.08-.16.08-.08.08-.08.08-.08.08-.08.08-.08.08L502,210v.15a.08.08,0,0,1-.08.08l-.08.16-.08.16c0,.08-.08.16-.08.24s0,.08-.08.16-.08.08-.16.08a.24.24,0,0,0,0,.32.44.44,0,0,0-.24.4c-.08-.16-.08-.24-.16-.32l-.08-.08h-.23l-.09.08-.07.08-.08.08-.08.16c-.08.08-.16.16-.16.24-.24.48.08,1,0,1.6a.17.17,0,0,0-.16.16c0,.07.08.15,0,.23-.08-.08-.24,0-.32.08v.08a.15.15,0,0,0-.24-.08c-.08.08-.08.16-.08.32v1a.29.29,0,0,0,.08.24c0,.08,0,.08.08.16v.08c0,.08.08.08.08.16v.08c.08.08.08.16.16.16a.24.24,0,0,0,0,.32c-.08-.16-.24-.08-.32.08a20,20,0,0,1-.56-2.08v-.16c-.08-.32-.08-.64-.16-.95v-5a5.51,5.51,0,0,0,1-.88H500a.86.86,0,0,0,.72-.64h.23a.08.08,0,0,0,.08-.08l.08-.08v-.32a.64.64,0,0,0,.8-.16.74.74,0,0,0,.16-.79c.16-.08.24-.08.32-.16s.24-.16.32-.24l.16-.16a1.67,1.67,0,0,0,.32-.48.17.17,0,0,1,.16-.16c.08,0,.16-.08.24-.08a.91.91,0,0,0,.64-.24.8.8,0,0,0,.32-.4c0-.08.08-.08.08-.16a1.29,1.29,0,0,0-.48-1.28.71.71,0,0,0,.32-.63,3.28,3.28,0,0,0,.08-.88,1.48,1.48,0,0,0-.16-.56H493a4,4,0,0,0-.23.56c0,.08-.09.16-.09.24v.72l.17.16c.07.07.07.15.15.15s.08.16.08.24a.29.29,0,0,0,.08.24c0,.08,0,.08.08.16a.08.08,0,0,0,.08.08c.08,0,.08.08.16.08-.08.08-.08.08-.08.16v.08a.08.08,0,0,0,.08.08c-.16,0-.24.32-.16.48a1.14,1.14,0,0,0,.16.48l.08.08.08.08c.08,0,.08.08.16.08h.08a.28.28,0,0,1,.08.16v.08a.28.28,0,0,1-.08.16l-.08.08a1.56,1.56,0,0,0,0,1.2,1,1,0,0,0,1,.63c0,.16.24.24.48.16.08,0,.16,0,.16-.08v.08h1l.16-.08.07-.08c.17-.08.33-.24.33-.39h.15a5.37,5.37,0,0,1,1.36,2.23c0,.48.08,1.2.08,1.91v3.83c0,.08.08.16.08.32v2.4c0,.08,0,.16-.08.16-.4,1-.8.64-.8,1.19h3.35l-.16-.08h-.07l-.16-.07h-.09l-.15-.08-.4-.17a.61.61,0,0,1-.32-.31c-.08-.16-.08-.32-.16-.48v-.4c0,.08.08.08.08.16a1.86,1.86,0,0,0,2,.56c-.08,0-.08.08-.16.16a1.64,1.64,0,0,0,.88,0c.16,0,.24.08.4.08a1.76,1.76,0,0,0,.64-.08c.08.08.16.23.24.31-.08.25-.32.56-.48.56h1l-.24-.71c0-.08.08-.16.16-.24h.63a.7.7,0,0,0,.4-.08,5.42,5.42,0,0,0,2.24.32h.16a.61.61,0,0,0,.32-.16c.08-.08.08-.16.08-.32l-.08-.08a.28.28,0,0,0-.16-.08l-.48-.16.48-.24.16-.16.16-.16c.08-.08.16-.24.24-.32v-.08C508.12,215.77,508,215.85,508,215.85Zm-9.74-8.46L497,206.12,497,206a.45.45,0,0,1,.4-.25.6.6,0,0,0,.64.48,1,1,0,0,0,.08.48v.08A1.56,1.56,0,0,1,498.22,207.39Zm.24-.32.24.16a1.14,1.14,0,0,0,.48.16,3.24,3.24,0,0,1-.72.4Zm4,10.46h-.24l.48-.24.16.08.16.16A.68.68,0,0,1,502.45,217.53Zm.48-.24a.42.42,0,0,1,.32-.16v.16a3.7,3.7,0,0,1,.08.39A1,1,0,0,0,502.93,217.29Zm.48.16V217h.08l.32.08A1,1,0,0,1,503.41,217.45Zm.88-.08a1.36,1.36,0,0,1-.56-.08c.08-.08.08-.16.16-.24l.72.24C504.53,217.37,504.45,217.37,504.29,217.37Z" style="fill:#178ea6"/><path d="M513,200H480v.48h33Z" style="fill:#178ea6"/><path d="M513,218.24H480v.48h33Z" style="fill:#178ea6"/><path d="M486,200.21h-.48v18.91H486Z" style="fill:#178ea6"/><path d="M491,199.89h-.48v18.75H491Z" style="fill:#178ea6"/><path d="M495.91,199.89h-.8v18h.8Z" style="fill:#007c8d;opacity:0.33000001311302185;isolation:isolate"/><path d="M491.36,199.57h-.48v19.55h.48Z" style="fill:#d3ebef"/><path d="M491.36,201.49l-.48.08v17.55h.48Z" style="fill:#96c0c7"/><path d="M503.49,199.57H503v19.55h.48Z" style="fill:#d3ebef"/><path d="M479.47,199.33l-9.1-10.61h-1.51l-7.59,10.61v19.95h18.2Z" style="fill:#b3d4db"/><path d="M504.21,188.72H470.29l9.18,10.69h33.91Z" style="fill:#d3ebef"/><path d="M478.83,199.73l-8.78-10h-1l-7.19,10v18.91h17Z" style="fill:#178ea6"/><path d="M479.39,216h0v-.4l-.08-.08-.08-.08h0l.08-.08c.08,0,.08-.08.16-.08l.08-.08v-.56a.08.08,0,0,0-.08-.08l-.08-.08a2.12,2.12,0,0,0-.48-.4,2.75,2.75,0,0,0,.4-1v-.32a.42.42,0,0,0-.16-.32l-.24-.24a1.13,1.13,0,0,0-.72-.08.38.38,0,0,0,.08-.48.29.29,0,0,0-.4-.16v-.24c0-.08-.08-.08-.16-.08a1.11,1.11,0,0,0-.63-1.19,1.65,1.65,0,0,0-1.36.15c0-.15-.16-.23-.32-.15a.15.15,0,0,0-.08-.24h-.08a.48.48,0,0,0-.32.08c0-.17-.08-.4-.08-.56s-.08-.16-.08-.24h-.24c-.08,0-.16.08-.24.08l-.08.08c-.08,0-.08.08-.16.08l-.08.08-.16.08-.08.08-.08.08v.07l-.08.09v.16l-.08.08v.15a.08.08,0,0,1-.08.08v.16c0,.08-.08.08-.08.16s-.08.16-.08.24,0,.08-.07.16a.32.32,0,0,1-.16.08c-.09.08-.09.16-.09.32a.45.45,0,0,0-.23.4c-.08-.16-.08-.24-.16-.32l-.08-.08h-.24l-.08.08-.08.08-.08.08-.08.16c-.08.08-.16.16-.16.24-.24.48.08,1,0,1.6-.08-.08-.16.08-.16.16s.08.15,0,.23c-.08-.08-.24,0-.32.08v.08A.15.15,0,0,0,471,214c-.08.08-.08.16-.08.32v1a.4.4,0,0,0,.08.24h0c0,.08.08.08.08.16v.08c0,.08.08.08.08.16l.08.08.16.16a.24.24,0,0,0,0,.32c-.08-.16-.24,0-.32.08a15.79,15.79,0,0,1-.56-2.08v-.16c-.08-.32-.08-.64-.16-.95v-4.63a5.51,5.51,0,0,0,1-.88h.16a.85.85,0,0,0,.72-.64h.24a.08.08,0,0,0,.08-.08l.08-.08a.08.08,0,0,1,.08-.08v-.16a.75.75,0,0,0,.79-.16,1,1,0,0,0,.16-.79c.16-.08.24-.08.32-.17s.24-.16.32-.23l.16-.16a1.67,1.67,0,0,0,.32-.48.17.17,0,0,1,.16-.16h.24a.91.91,0,0,0,.64-.24.8.8,0,0,0,.32-.4c0-.08,0-.08.08-.16a1.33,1.33,0,0,0-.48-1.28.73.73,0,0,0,.32-.64,1.55,1.55,0,0,0,.08-.87,1.48,1.48,0,0,0-.16-.56l-.24-.24c-.08-.08-.16-.08-.24-.16l-.08-.08c0-.08-.08-.16-.08-.24v-.08l-.08-.64v-.08c0-.08,0-.16-.08-.16a.08.08,0,0,0-.08-.08h-.64a.17.17,0,0,0-.16-.16h-.08v-.48l-.08-.23v-.56c0-.08-.08-.16-.08-.24V197a.08.08,0,0,0-.08-.08v-.24l-.08-.08-.08-.08v-.08c-.08-.08-.08-.16-.16-.16s-.16-.16-.24-.16a1.58,1.58,0,0,0-1.67-.08c-.08,0-.08.08-.16.08h-.08l-.08-.08h-.16c.08-.16-.08-.32-.24-.4a1.14,1.14,0,0,0-.48-.16h-.16a.61.61,0,0,0-.32.16v.08c0,.08-.08.16-.16.24s-.48.16-.64.32a1.19,1.19,0,0,1-.31.24.72.72,0,0,1-.4.08.22.22,0,0,0-.16.32,1.58,1.58,0,0,0-1.44.32,2.85,2.85,0,0,0-.8,1.19c0,.08-.08.16-.08.24v.24c0,.08.08.16.08.24a.29.29,0,0,1,.08.24c0,.16-.08.4-.24.4l-.08-.08-.08-.08h-.24c-.08,0-.08,0-.16.08l-.16.08a2.06,2.06,0,0,0-.32.4,1.59,1.59,0,0,0-.31.64c0,.08-.08.16-.08.24v.71l.16.16c.07.08.07.16.16.16s.07.16.07.24a.27.27,0,0,0,.09.24c0,.08,0,.08.07.16l.08.08c.08,0,.08.08.16.08-.08,0-.08.08-.08.16v.08a.08.08,0,0,0,.08.08c-.16,0-.24.32-.16.48a1.14,1.14,0,0,0,.16.48l.08.08.08.08c.08,0,.08.08.16.08h.08a.28.28,0,0,1,.08.16v.08a.28.28,0,0,1-.08.16l-.08.08a1.34,1.34,0,0,0,0,1.11,1.39,1.39,0,0,0,1,.64.36.36,0,0,0,.48.16l.16-.08v.08h1l.16-.08.08-.08a.8.8,0,0,0,.32-.4h.24a5.07,5.07,0,0,1,1.35,2.24,17.2,17.2,0,0,0,.08,1.91v3.75c0,.08.08.16.08.32v2.4s0,.16-.08.16c-.4.95-.8.63-.8,1.11h3.35l-.16-.08h-.07l-.16-.08h-.08l-.16-.07-.4-.17a.64.64,0,0,1-.32-.31c-.08-.16-.08-.32-.16-.48v-.48c0,.08.08.08.08.16a1.86,1.86,0,0,0,2,.56c-.08,0-.08.08-.16.16a1.64,1.64,0,0,0,.88,0c.16,0,.24.08.4.08a1.76,1.76,0,0,0,.64-.08c.08.08.16.23.24.31-.08.25-.24.56-.48.56h1l-.24-.71c.08-.08.08-.16.16-.24h.64a.74.74,0,0,0,.4-.08,5.35,5.35,0,0,0,2.23.32h.16a.61.61,0,0,0,.32-.16c.08-.08.08-.16.08-.32l-.08-.08c-.08,0-.08-.08-.16-.08l-.48-.16.48-.24.16-.16.24-.16a1.1,1.1,0,0,0,.24-.32v-.08Zm-9.58-8v-.72l.24.16a1.14,1.14,0,0,0,.48.16C470.37,207.71,470.13,207.87,469.81,208Zm-1.43-1.6c.16-.16.32-.32.48-.32a.59.59,0,0,0,.63.48,1,1,0,0,0,.08.48h.08v.56C469.25,207.23,468.86,206.83,468.38,206.43Zm5.5,11.1h-.24a1.14,1.14,0,0,1,.48-.16l.16.08c.08.08.16.08.16.15A1.34,1.34,0,0,1,473.88,217.53Zm.48-.32.32-.16v.16c0,.16.08.24.08.39Zm.48.16v-.32h.08l.32.08a.8.8,0,0,0-.32.4Zm.88,0a1.36,1.36,0,0,1-.56-.08c.08-.08.16-.16.16-.24l.72.24C476,217.37,475.88,217.37,475.72,217.37Z" style="fill:#007c8d"/><path d="M478.43,211.54c.24.32.64-.56.64-.56S478.19,211.14,478.43,211.54Z" style="fill:#007c8d"/><path d="M478.35,211.06c.32.16.16-.8.16-.8S477.87,210.9,478.35,211.06Z" style="fill:#007c8d"/><path d="M475.56,209.47c.32.16.24-.8.24-.8S475.08,209.31,475.56,209.47Z" style="fill:#007c8d"/><path d="M475.24,209.15c.4-.08-.24-.8-.24-.8S474.76,209.23,475.24,209.15Z" style="fill:#007c8d"/><path d="M471.81,210.74c.32-.08-.16-.79-.16-.79S471.33,210.9,471.81,210.74Z" style="fill:#007c8d"/><path d="M472.13,210.9c.24.24.4-.72.4-.72S471.81,210.58,472.13,210.9Z" style="fill:#007c8d"/><path d="M470.61,210.82s.48.88.72.24C471.49,210.66,470.61,210.82,470.61,210.82Z" style="fill:#007c8d"/><path d="M469,217.85h.15c.08,0,.16-.09.24-.09a.26.26,0,0,0,.08-.23l-.08-.08h-.08l-.4-.16c.17-.08.24-.08.32-.16l.16-.08c.08,0,.08-.08.16-.16s.16-.16.16-.24v-.48l-.08-.08-.08-.08h.08l.08-.08.08-.08v-.64l-.08-.08c-.16-.16-.32-.32-.4-.32a2.4,2.4,0,0,0,.32-.8v-.47c0-.08-.08-.16-.08-.24s-.08-.16-.16-.16a1.14,1.14,0,0,0-.55-.08.67.67,0,0,0,.07-.4c-.07-.08-.23-.16-.31-.08v-.16c0-.08-.08-.08-.16,0a.82.82,0,0,0-.48-1,1.2,1.2,0,0,0-1,.08c0-.08-.16-.16-.24-.16s0-.16-.08-.16a.29.29,0,0,0-.24.08,3.46,3.46,0,0,0-.08-.4c0-.08,0-.16-.08-.16h-.16l-.16.08h-.08l-.16.08-.08.08-.08.08-.08.08-.08.08-.08.08v.08l-.08.08-.07.08v.24l-.09.16c0,.08,0,.08-.07.08s-.09,0-.09.08a.16.16,0,0,0,0,.24.44.44,0,0,0-.15.32c0-.08-.08-.16-.16-.24h-.32l-.08.08-.08.08-.08.08-.08.08c-.16.4.08.8,0,1.19-.08,0-.08.08-.08.17s.08.15,0,.23c-.08-.08-.16,0-.24.08v.08c0-.08-.08-.08-.16-.08a.29.29,0,0,0-.08.24v1c0,.08,0,.08.08.16s0,.08.08.16V216l.08.08c0,.08.08.08.08.16a.15.15,0,0,0,0,.24.15.15,0,0,0-.24.08.48.48,0,0,0,.08.32,1.51,1.51,0,0,0,1.51.4c-.07,0-.07.08-.07.16a.85.85,0,0,0,.63,0,.6.6,0,0,1,.32.08,1,1,0,0,0,.48-.08c.08.08.16.16.16.24-.08.24-.24.4-.4.4h.72a1.48,1.48,0,0,1-.16-.56.17.17,0,0,1,.16-.16h.56a.48.48,0,0,0,.32-.08C468.22,217.53,468.62,217.69,469,217.85Zm-3.44-.09h-.16l.32-.15.08.08.16.07Zm.4-.23.24-.16v.08c0,.08.08.16.08.31A.94.94,0,0,1,466,217.53Zm.32.08v-.24h.08l.24.08a1.19,1.19,0,0,0-.24.31C466.38,217.69,466.38,217.61,466.3,217.61Zm.72,0h-.48l.16-.16.56.16Z" style="fill:#007c8d"/><path d="M469.1,213.14c.15.24.47-.4.47-.4S468.86,212.82,469.1,213.14Z" style="fill:#007c8d"/><path d="M469,212.82c.23.08.15-.64.15-.64S468.62,212.66,469,212.82Z" style="fill:#007c8d"/><path d="M466.86,211.62c.24.16.16-.64.16-.64S466.54,211.46,466.86,211.62Z" style="fill:#007c8d"/><path d="M466.62,211.3c.32-.08-.16-.64-.16-.64S466.22,211.38,466.62,211.3Z" style="fill:#007c8d"/><path d="M464,212.58c.24-.08-.08-.64-.08-.64S463.59,212.66,464,212.58Z" style="fill:#007c8d"/><path d="M464.55,212.18s-.56.24-.32.56S464.55,212.18,464.55,212.18Z" style="fill:#007c8d"/><path d="M463.59,212.82c.16-.32-.56-.16-.56-.16S463.43,213.22,463.59,212.82Z" style="fill:#007c8d"/><path d="M474.12,198.13c.16.24.48-.39.48-.39S474,197.82,474.12,198.13Z" style="fill:#007c8d"/><path d="M474,197.74c.24.08.16-.64.16-.64S473.72,197.66,474,197.74Z" style="fill:#007c8d"/><path d="M470.77,195.9c.24.08.16-.56.16-.56S470.37,195.74,470.77,195.9Z" style="fill:#007c8d"/><path d="M470.45,195.66c.24-.08-.16-.56-.16-.56S470.13,195.74,470.45,195.66Z" style="fill:#007c8d"/><path d="M467.66,196.3c.24-.16-.32-.48-.32-.48S467.34,196.54,467.66,196.3Z" style="fill:#007c8d"/><path d="M468,196.38c.24.08.16-.56.16-.56S467.58,196.22,468,196.38Z" style="fill:#007c8d"/><path d="M467.5,196.62c0-.32-.64,0-.64,0S467.5,197,467.5,196.62Z" style="fill:#007c8d"/><path d="M464.79,199.57c.23-.16-.48-.4-.48-.4S464.47,199.81,464.79,199.57Z" style="fill:#007c8d"/><path d="M465.11,199.49c.31.08,0-.64,0-.64S464.71,199.49,465.11,199.49Z" style="fill:#007c8d"/><path d="M474.44,200.21H474v18.43h.48Z" style="fill:#007c8d"/><path d="M466.7,199.81h-.48v18.83h.48Z" style="fill:#007c8d"/><path d="M472.85,199.81h-.48v18.83h.48Z" style="fill:#007c8d"/><path d="M469,189.68l-7.19,10v18.91h.72V199.73l7.1-10Z" style="fill:#007c8d"/><path d="M462.07,199.41h16.52l-.64-.72h-15.4Z" style="fill:#007c8d"/><path d="M503.81,189.2H471.57l8.3,9.73h32.24Z" style="fill:#2bb3cf"/><path d="M480,198.62l-8-9.42h-.48l8.3,9.73h32.24l-.24-.31Z" style="fill:#178ea6"/><path d="M503.89,189.2H472.21a3,3,0,0,0,.56.48c3.27,2.07,12.12,4.31,22.74,5.5a119.35,119.35,0,0,0,14.12.8Z" style="fill:#44c6de"/><path d="M511.63,198.93h.48l-8.3-9.73h-.48Z" style="fill:#178ea6"/><path d="M486.49,198.85l8.22-9.65h-.48L486,198.85Z" style="fill:#178ea6"/><path d="M482.26,189.2,477,195.34l.24.32,5.51-6.46Z" style="fill:#178ea6"/><path d="M481.94,189.2l8.22,9.57h.48l-8.14-9.57Z" style="fill:#178ea6"/><path d="M494.07,189.2l8.14,9.57h.48l-8.14-9.57Z" style="fill:#178ea6"/><path d="M495.59,198.93h.8l6.94-9.73h-.8Z" style="fill:#178ea6"/><path d="M504.61,198a1.48,1.48,0,0,0-.16-.56l-.24-.24c-.08-.08-.16-.08-.24-.16s-.08-.16-.08-.24v-.08l-.08-.64v-.24a.08.08,0,0,0-.08-.08h-.64c0-.08,0-.16-.08-.16s-.16-.08-.16,0v-.48l-.08-.24a.25.25,0,0,0-.08-.16v-.08c0-.08-.08-.16-.08-.24v-.08l-.08-.07V194l-.08-.08-.08-.08-.16-.16-.24-.16a1.58,1.58,0,0,0-1.67-.08c-.08,0-.08.08-.16.08h-.08l-.08-.08h-.16c.08-.16-.08-.32-.24-.4a1.14,1.14,0,0,0-.48-.16h-.72a.61.61,0,0,0-.32.16v.08c0,.08-.08.16-.16.24s-.48.16-.64.32-.15.24-.31.24-.24.08-.4.08-.24.24-.16.31a1.61,1.61,0,0,0-1.44.32,2.88,2.88,0,0,0-.8,1.2c0,.08-.08.16-.08.24v.24c0,.08.08.16.08.24a.29.29,0,0,1,.08.24c0,.16-.08.4-.24.4l-.08-.08h-.32c-.08,0-.08,0-.16.08l-.16.08a2.52,2.52,0,0,0-.32.4,1.69,1.69,0,0,0-.31.63c0,.08-.08.16-.08.24v.56h11.65V199A1.09,1.09,0,0,0,504.61,198Z" style="fill:#178ea6"/><path d="M503.09,195.26c.16.24.48-.4.48-.4S502.85,195,503.09,195.26Z" style="fill:#178ea6"/><path d="M502.93,194.94c.24.08.16-.56.16-.56S502.61,194.86,502.93,194.94Z" style="fill:#178ea6"/><path d="M499.66,193c.24.08.16-.56.16-.56S499.34,193,499.66,193Z" style="fill:#178ea6"/><path d="M499.42,192.79c.24-.08-.16-.56-.16-.56S499,192.87,499.42,192.79Z" style="fill:#178ea6"/><path d="M496.55,193.51c.24-.16-.32-.48-.32-.48S496.23,193.67,496.55,193.51Z" style="fill:#178ea6"/><path d="M496.86,193.51c.24.08.16-.56.16-.56S496.55,193.43,496.86,193.51Z" style="fill:#178ea6"/><path d="M496.39,193.83c0-.32-.64,0-.64,0S496.39,194.15,496.39,193.83Z" style="fill:#178ea6"/><path d="M493.67,196.78c.24-.16-.48-.4-.48-.4S493.43,197,493.67,196.78Z" style="fill:#178ea6"/><path d="M494,196.7c.32.08,0-.64,0-.64S493.59,196.62,494,196.7Z" style="fill:#178ea6"/><path d="M478.83,199.81H461.91v.56h16.92Z" style="fill:#007c8d"/><path d="M478.83,218.09H461.91v.55h16.92Z" style="fill:#007c8d"/><path d="M479.07,199.41H461.51V200h17.56Z" style="fill:#b3d4db"/><path d="M466.3,199.81h-.48V219h.48Z" style="fill:#b3d4db"/><path d="M472.45,199.81H472V219h.48Z" style="fill:#b3d4db"/><path d="M482.66,189h-.48L491,199.33h.48Z" style="fill:#d3ebef"/><path d="M494.79,189h-.48l8.86,10.37h.48Z" style="fill:#d3ebef"/><path d="M506.68,214.49a.46.46,0,0,1,.48.48v.88a.48.48,0,0,1-1,0V215A.52.52,0,0,1,506.68,214.49Z" style="fill:#30393d"/><path d="M504.21,199.65a1,1,0,0,1,1,1V205a1,1,0,0,1-.95,1h-.08a1,1,0,0,1-1-1v-4.39A1,1,0,0,1,504.21,199.65Z" style="fill:#f5eedb;opacity:0.5600000023841858;isolation:isolate"/><path d="M504.21,206.91a1,1,0,0,1,1,1v.72a1,1,0,0,1-.95,1h-.08a1,1,0,0,1-1-1v-.72A1,1,0,0,1,504.21,206.91Z" style="fill:#f5eedb;opacity:0.5600000023841858;isolation:isolate"/><path d="M520.72,217.93H482.66v1.35h38.06Z" style="fill:#b3d4db"/><path d="M476,196.54l-2,2.31h.48l1.76-2.07Z" style="fill:#007c8d"/><path d="M472.13,213.14h-.88v.24h.88Z" style="fill:#b3d4db"/><path d="M472.13,207.07h-.88v.24h.88Z" style="fill:#b3d4db"/><path d="M471.49,206.67h-.32v7h.32Z" style="fill:#b3d4db"/><path d="M525,165.74h-14l-10.85,12.44.16.4h14Z" style="fill:#c0b3a4"/><path d="M542.43,194.46l-29.6-28.64-9.42,11.33v42h39Z" style="fill:#bd2424"/><path d="M542.43,204.12l-39-17.32v32.4h39Z" style="fill:#cb2828"/><path d="M615.77,219.12H570.36s15.24-17,33.92-16.44S650,219,650,219Z" style="fill:#fcaf44"/><path d="M579.7,194.38H542v24.74H579.7Z" style="fill:#ed4040"/><path d="M579.7,194.38H542l.08,5.43H579.7Z" style="fill:#ce2b2b"/><path d="M559.51,165.74H512.19l29.84,29,44.45-.32Z" style="fill:#dcd8ce"/><path d="M555,165.74H528.78l16.52,29,24.66-.32Z" style="fill:#edebe3"/><path d="M542.11,194.46l-29.6-28.72h-.88l30.24,29.36H586.4l.08-.64Z" style="fill:#c0b3a4"/><path d="M522.88,193.59h-2.79V219h2.79Z" style="fill:#561a1a"/><path d="M520.17,193.67h-.48V219h.48Z" style="fill:#782626"/><path d="M534.05,193.67h-.32V219h.32Z" style="fill:#782626"/><path d="M563.58,206.59h-8.46V210h8.46Z" style="fill:#edebe3"/><path d="M577.06,206.59H568.6V210h8.46Z" style="fill:#edebe3"/><path d="M556.79,169.49H521.2l22.51,21.86h33.11Z" style="fill:#41859a"/><path d="M556.64,170H522.32L544,191H576Z" style="fill:#1f4e59"/><path d="M556.4,170.29H522.64L544,191h31.36Z" style="fill:#41a7c0"/><path d="M555.68,170.36H545L550.57,191H562.3Z" style="fill:#56c0d7"/><path d="M543.23,170.36h-2.64l3.6,20.67h3.67Z" style="fill:#56c0d7"/><path d="M529.66,169.81h-.48l20.27,21.3h.48Z" style="fill:#41859a"/><path d="M536.45,169.81H536l20.27,21.3h.48Z" style="fill:#41859a"/><path d="M543.23,169.81h-.48L563,191.11h.48Z" style="fill:#41859a"/><path d="M550,169.81h-.48l20.27,21.3h.48Z" style="fill:#41859a"/><path d="M562.86,176.35l-.4-.4H528.15l.39.4Z" style="fill:#41859a"/><path d="M569.8,183.61l-.4-.32H535.73l.4.32Z" style="fill:#41859a"/><path d="M563.1,207.07h-7.5v2.48h7.5Z" style="fill:#882e2e"/><path d="M576.58,207.15h-7.42v2.32h7.42Z" style="fill:#882e2e"/><path d="M534.53,193.43h-26V194h26Z" style="fill:#561a1a"/><path d="M534.69,203.16h-.56v10.06h.56Z" style="fill:#561a1a"/><path d="M534.69,214.65h-.56V219h.56Z" style="fill:#561a1a"/><path d="M534.69,198.29h-.56v3.59h.56Z" style="fill:#561a1a"/><path d="M534.69,193.35h-.56v3.59h.56Z" style="fill:#561a1a"/><path d="M508.92,203.16h-.56v10.06h.56Z" style="fill:#561a1a"/><path d="M508.92,214.65h-.56V219h.56Z" style="fill:#561a1a"/><path d="M508.92,198.29h-.56v3.59h.56Z" style="fill:#561a1a"/><path d="M508.92,193.27h-.56v3.59h.56Z" style="fill:#561a1a"/><path d="M507.88,193v26.25h27.29V193ZM534.53,219h-26V193.59h26Z" style="fill:#d6ccbe"/><path d="M520.8,182.49h-3.43v1.2h3.43Z" style="fill:#561a1a"/><path d="M514.18,182.49h-3.43v1.2h3.43Z" style="fill:#561a1a"/><path d="M519.77,220a5.39,5.39,0,0,1,2.55-4.79,4.59,4.59,0,0,1,5.11.48,7,7,0,0,1,4.31-5.9,6.47,6.47,0,0,1,6.94,1.75,3.67,3.67,0,0,1,3.67-1.36,4.24,4.24,0,0,1,2.87,3,6.68,6.68,0,0,1,7.74-1.36,7.94,7.94,0,0,1,3.91,7.5C544.11,219.2,531.34,220,519.77,220Z" style="fill:#23b781"/><path d="M674.86,254.67V217.84S249.64,204.25-6.45,254.67Z" style="fill:#3ecc8e"/><path d="M128.24,255.24v.35H79.61l-.14.35H-6.14V185.21a15.43,15.43,0,0,1,20.77,5.31A13.2,13.2,0,0,1,31.06,196a18.12,18.12,0,0,1,28.62,21.26,13.2,13.2,0,0,1,10.18,12.09,15.55,15.55,0,0,1,11.52,7.22A13.2,13.2,0,0,1,97.81,242a18.12,18.12,0,0,1,25.6.84A18.33,18.33,0,0,1,128.24,255.24Z" style="fill:#00707a"/><path d="M91.26,255.85H-6.41V211.3a12.12,12.12,0,0,1,24.23-.49v.44a12.38,12.38,0,0,1-.22,2.22,10.9,10.9,0,0,1,2.52,3,14.21,14.21,0,0,1,20.07.71,13.89,13.89,0,0,1,3.67,7.88,12.13,12.13,0,0,1,10,14,14.87,14.87,0,0,1-.53,2,9.52,9.52,0,0,1,2.92,3.28,14.18,14.18,0,0,1,20,1.46,14.54,14.54,0,0,1,2,3.1A12.38,12.38,0,0,1,91.26,255.85Z" style="fill:#33cb93"/><path d="M675.16,255.1h-158a11.12,11.12,0,0,1,15.61-6.81,22.7,22.7,0,0,1,21.58-16.63,19.27,19.27,0,0,1,12.82,4.91,28.61,28.61,0,0,1,26.81-19,29,29,0,0,1,6.62.79,7.27,7.27,0,0,1-.09-1.39,9.26,9.26,0,0,1,9.17-9.31,9.08,9.08,0,0,1,4.86,1.43A27.16,27.16,0,0,1,640.2,190.5c10.92,0,19.54,6.11,23.84,15.56.93-5.6,5.74-9.22,11.16-9.54V255.1Z" style="fill:#00707a"/><path d="M675.16,255.1H582.08a7.66,7.66,0,0,1,7.32-5.38,7.49,7.49,0,0,1,3.33.79,14.73,14.73,0,0,1,12.64-11.16,13.25,13.25,0,0,1,10.79,3.15,19.48,19.48,0,0,1,18.25-13,18.4,18.4,0,0,1,4.49.55,6.26,6.26,0,0,1,6.16-7.32,5.9,5.9,0,0,1,3.28,1,18.52,18.52,0,0,1,17.46-12.69,17.78,17.78,0,0,1,9.31,2.55Z" style="fill:#33cb93"/><g style="clip-path:url(#clip-path-3)"><path d="M323.58,32.88l1.45-.07A28.39,28.39,0,0,1,354.11,58c1.51,13.66,3,28.76,3.22,36.11.26,15.24-14.84,18.06-14.84,18.06l.4,6.17A18.49,18.49,0,0,1,306,120.73L302.05,64.2C300.21,48.51,307.82,34.32,323.58,32.88Z" style="fill:#ffbf9d"/><path d="M342.62,112.2A36.54,36.54,0,0,1,322.53,107s5.06,10.77,20.16,8.93Z" style="fill:#ff9a6c"/><path d="M347.35,71.22a2.16,2.16,0,0,1-2,2.23,2,2,0,0,1-2.3-1.9,2.16,2.16,0,0,1,2-2.23A2,2,0,0,1,347.35,71.22Z" style="fill:#1d394f"/><path d="M351.09,65.58c-.26.26-2-.85-4.26-.79s-4,1.31-4.27,1,.13-.65.85-1.18a6,6,0,0,1,3.42-1.18,5.56,5.56,0,0,1,3.41,1C351,64.92,351.23,65.45,351.09,65.58Z" style="fill:#1d394f"/><path d="M326.8,72a2.17,2.17,0,0,1-2,2.23,2,2,0,0,1-2.29-1.9,2.16,2.16,0,0,1,2-2.23A2.09,2.09,0,0,1,326.8,72Z" style="fill:#1d394f"/><path d="M328.11,66.7c-.26.26-2-.86-4.27-.79s-4,1.31-4.26,1,.13-.66.85-1.18a6,6,0,0,1,3.41-1.19,5.57,5.57,0,0,1,3.42,1C328,66.1,328.24,66.56,328.11,66.7Z" style="fill:#1d394f"/><path d="M337.17,83.77a14.12,14.12,0,0,1,3.75-.79c.59-.07,1.18-.2,1.24-.66a2.87,2.87,0,0,0-.46-1.77c-.59-1.44-1.24-2.89-1.9-4.47-2.63-6.36-4.6-11.68-4.33-11.75s2.62,5,5.25,11.36c.66,1.58,1.25,3.09,1.84,4.53a3.56,3.56,0,0,1,.39,2.37,1.53,1.53,0,0,1-1,.91,6.63,6.63,0,0,1-1,.2A17.72,17.72,0,0,1,337.17,83.77Z" style="fill:#c97355"/><path d="M328.44,57.57c-.2.66-2.56.39-5.25.85s-4.93,1.25-5.32.66c-.2-.26.2-.85,1.05-1.51a8.75,8.75,0,0,1,3.87-1.51,9,9,0,0,1,4.14.33C328.05,56.78,328.57,57.24,328.44,57.57Z" style="fill:#1d394f"/><path d="M350,58.82c-.39.52-2,.07-3.94.07s-3.54.45-3.94-.07c-.19-.26.07-.79.79-1.31a5.47,5.47,0,0,1,3.22-1,5.67,5.67,0,0,1,3.22,1C350,58,350.17,58.56,350,58.82Z" style="fill:#1d394f"/><path d="M352.47,51.07s-4.33-9.39-9-11.49c-5.65-2.49-7.88,3.68-13.2,2.36s-10.7-3.74-16,.53c-5.78,4.66-2.89,7.75-3.09,14.51-.66,27.38-5.38,35.33-7.22,22.46-.2-1.38-4.14-2.43-4.93-8.34-1-7.69-1.57-17.07-.06-22.66,1.31-4.66,3.87-7.94,8.47-11.62C314.72,31,325,30.58,332,31S352.73,39.12,352.47,51.07Z" style="fill:#1d394f"/><path d="M304.93,79a4.07,4.07,0,0,0-4.59-3.8c-2.82.32-5.91,2.1-5.58,7.94.65,10.37,11,7.62,11,7.29S305.26,83.37,304.93,79Z" style="fill:#ffbf9d"/><path d="M303.23,86.59c-.07,0-.2.14-.46.33a2.14,2.14,0,0,1-1.38.13c-1.12-.32-2.17-2-2.3-3.87a7.08,7.08,0,0,1,.33-2.63,2,2,0,0,1,1.25-1.44.94.94,0,0,1,1.11.46,1.22,1.22,0,0,1,.14.52.7.7,0,0,0,.13-.59,1.38,1.38,0,0,0-.46-.65,1.28,1.28,0,0,0-1-.2,2.69,2.69,0,0,0-1.77,1.71,7,7,0,0,0-.46,3c.2,2.1,1.38,4,2.95,4.34a2.05,2.05,0,0,0,1.64-.4C303.23,86.86,303.29,86.59,303.23,86.59Z" style="fill:#c97355"/><path d="M355,39.9c-1.58-1.24-3.74-1.44-5.32-2.75-2.82-2.3-2.82-7.29-6.17-8.74-2-.85-4.27.07-6.44-.19-3.48-.46-4.73-3.09-10-3.29-6.83-.19-9.19,4.86-9.19,4.86a7.79,7.79,0,0,0-7.88.53c-3.15,2-3.48,6.17-3.48,6.17s-1.05-.59-4.4,1.9C300,40,298.17,43.52,297.38,46c-1.24,3.74.33,7.81,1.84,11.49.86,2,1.84,4.14,3.88,4.93,2.42.92,5.25-1,6.23-3.35s2.63-4.8,3.88-7.09c2.16-4,4.33-7.75,2.69-10.38a11.58,11.58,0,0,1,7.29.13c2.36.86,4.4,2.43,6.76,3.35s5.32.92,7-1a5.12,5.12,0,0,0,7.74,1.9c1.78,3.09,6.11,4.66,9.26,2.89S357.73,42.14,355,39.9Z" style="fill:#1d394f"/><path d="M298.24,55.2a16.06,16.06,0,0,1,1.11,2.43A5.08,5.08,0,0,0,301,59.8a4.41,4.41,0,0,0,3.22.46A8,8,0,0,0,307.36,59a14.75,14.75,0,0,0,2.1-1.9,11.75,11.75,0,0,1,1.78-2,9.44,9.44,0,0,1-1.45,2.23,12.19,12.19,0,0,1-2.1,2.1,8,8,0,0,1-3.35,1.38,4.88,4.88,0,0,1-3.61-.59A5.13,5.13,0,0,1,299,57.83,11.63,11.63,0,0,1,298.24,55.2Z" style="fill:#455a64"/><path d="M298.43,63.21a7.15,7.15,0,0,0,2,1.19,5,5,0,0,0,2.49.26,7.22,7.22,0,0,0,2.89-1,13.43,13.43,0,0,0,4-4,13,13,0,0,1,1.44-1.91,8.2,8.2,0,0,1-1.11,2.17,12.32,12.32,0,0,1-4.07,4.27,7.31,7.31,0,0,1-3.16,1,5.58,5.58,0,0,1-2.69-.46C298.83,64.13,298.37,63.21,298.43,63.21Z" style="fill:#455a64"/><path d="M298.63,69.19a9.09,9.09,0,0,0,2,.92,6.31,6.31,0,0,0,5-1,14.46,14.46,0,0,0,3.74-3.8,8.73,8.73,0,0,1,1.38-1.78,7.68,7.68,0,0,1-1,2A12.42,12.42,0,0,1,306,69.65a7.59,7.59,0,0,1-2.88,1.12,6.31,6.31,0,0,1-2.56-.2A4.49,4.49,0,0,1,298.63,69.19Z" style="fill:#455a64"/><path d="M330.48,87.44a12.13,12.13,0,0,0-.66,3.48A3.89,3.89,0,0,0,330.87,94a4.36,4.36,0,0,0,3.35,1.64h.06a4.8,4.8,0,0,0,4.86-4l.46-2.56C337.11,88.36,330.61,87.64,330.48,87.44Z" style="fill:#ff9a6c"/><path d="M336.65,95c0-.06-.33,0-.86.07a6.21,6.21,0,0,1-2.16-.07A4.21,4.21,0,0,1,331,93.35a5.62,5.62,0,0,1-1-3.67,5.19,5.19,0,0,1,.59-2.11l-.33.14,5.84,1a7.21,7.21,0,0,0,2.37.2,8.62,8.62,0,0,0-2.3-.59c-1.45-.33-3.48-.73-5.78-1.19l-.2-.06-.13.2a5.81,5.81,0,0,0-.72,2.36,5.71,5.71,0,0,0,1.12,4.07,4.76,4.76,0,0,0,3,1.71,6.07,6.07,0,0,0,2.29-.13A4.35,4.35,0,0,0,336.65,95Z" style="fill:#c97355"/><path d="M306,120.8s17.47,12.74,20.29,12,16.42-12,16.42-12l22.78,22.13L374.14,244H290.42l2.3-84.37Z" style="fill:#f5f5f5"/><path d="M405.2,127.56l-1.25,5s-26.07-8.53-30.21-8.14-6.63,24.1-6.63,24.1,13.2,18.51,13.73,18.38,24.88-2.82,36-5,18.06-5.58,19.83-14.52,0-15.42-.65-15.95-4.4-2.36-4.4-2.36Z" style="fill:#455a64"/><path d="M234.28,201.69s-3.28,4-3.28,7.22,0,11.36,2.63,17.34,1.51,6.63,6.17,8.73a21.17,21.17,0,0,0,9.39,1.84s13.26-5,16-11.95S275,203.53,275,203.53V129.2s-14.57,5.26-18.32,17.86-12.14,45.18-12.14,45.18Z" style="fill:#455a64"/><path d="M305.85,113.84l-7.42,8.4L275,129.34l-1.05,73.47L272,244h33.81s1.58-10.37,4.14-26,4.92-28.63,5.32-37,3.74-17.07,0-27.25-9.39-25.67-8.8-30.93A24.13,24.13,0,0,0,305.85,113.84Z" style="fill:#455a64"/><path d="M313.6,168.4v-.13c0-.13.07-.26.07-.39.06-.4.13-.92.26-1.58a25.41,25.41,0,0,0,0-6,23.76,23.76,0,0,0-2.69-8.47,43.28,43.28,0,0,0-2.89-4.47A11.4,11.4,0,0,1,307,144.9a6.56,6.56,0,0,1-.53-3l.2.2a5.27,5.27,0,0,1-2.63-.53,4.78,4.78,0,0,1-2.56-3.28l.27.13a15.53,15.53,0,0,0-4.67,4.79l-.32.6.06-.66c.53-5.84,1-10.84,1.25-14.38q.3-2.66.39-4.14c.07-.46.07-.85.14-1.11a1,1,0,0,1,.06-.4v.4c0,.26-.06.65-.06,1.11-.07,1-.2,2.37-.33,4.14-.27,3.54-.66,8.54-1.12,14.38l-.26-.07a16.93,16.93,0,0,1,4.79-4.92l.2-.13.06.26a4.73,4.73,0,0,0,2.37,3.09,4.66,4.66,0,0,0,2.43.52h.19v.2a7.15,7.15,0,0,0,.46,2.82,11.15,11.15,0,0,0,1.38,2.43c.53.79,1.05,1.51,1.58,2.23.26.4.46.73.72,1.12s.46.79.66,1.12a24.53,24.53,0,0,1,2.62,8.6,25.43,25.43,0,0,1-.06,6,10.37,10.37,0,0,1-.33,1.57c-.07.2-.07.33-.13.4C313.6,168.34,313.6,168.4,313.6,168.4Z" style="fill:#263238"/><path d="M386.88,193.88c0-.79-3.15-44.06-3.15-44.06l-9-25.54s-22.52-2.89-22.91-2.89-7.36-7.62-7.36-7.62-7.61,14.45-8.86,22.59-1.78,13.33,0,22.13,9.91,34.93,11.49,43.92,8.27,35.13,8.93,42l33.81-.33C388.72,234.52,386.88,194.67,386.88,193.88Z" style="fill:#455a64"/><path d="M382.08,138.92a4.26,4.26,0,0,1,.14.59c.06.39.13.92.26,1.64s.26,1.58.39,2.56.27,2.17.46,3.42c.59,5.05,1.25,12,1.84,19.76s1,14.77,1.25,19.83c.13,2.5.19,4.53.26,6,0,.66.07,1.25.07,1.64V195a1.88,1.88,0,0,1-.07-.59c0-.39-.07-.92-.13-1.64-.07-1.44-.26-3.48-.4-6-.32-5.06-.78-12.08-1.37-19.83s-1.18-14.71-1.71-19.77c-.13-1.24-.26-2.43-.4-3.41s-.19-1.84-.32-2.56-.13-1.25-.2-1.64A5,5,0,0,1,382.08,138.92Z" style="fill:#263238"/><path d="M352.27,122.5v.14c0,.13-.06.26-.06.39-.07.39-.2.92-.33,1.58-.26,1.38-.66,3.41-1.05,5.9s-.85,5.52-1.38,8.87-1.18,7.09-2,11l-.07.32-.2-.26a15,15,0,0,0-2-2,15.45,15.45,0,0,0-6.31-3l.2-.13a63.47,63.47,0,0,0,.59,17.14c.4,2.1.79,3.81,1,4.92.13.53.27,1,.33,1.31a2.46,2.46,0,0,0,.13.46,2.46,2.46,0,0,1-.13-.46c-.06-.26-.26-.72-.39-1.31-.33-1.11-.73-2.82-1.12-4.92a62.82,62.82,0,0,1-.72-17.21V145h.2a14,14,0,0,1,6.43,3,15.43,15.43,0,0,1,2.1,2.1l-.33.06c.86-3.87,1.51-7.55,2-10.9s1.05-6.36,1.51-8.86.85-4.53,1.12-5.91a9.18,9.18,0,0,1,.39-1.58c.06-.13.06-.32.13-.39C352.21,122.57,352.27,122.5,352.27,122.5Z" style="fill:#263238"/><path d="M274.47,162.1a2.27,2.27,0,0,0,.06.46c0,.33.07.79.07,1.38.06,1.24.13,2.95.2,5.18.13,4.34.19,10.38.13,17s-.27,12.67-.46,17c-.13,2.16-.2,3.94-.27,5.12-.06.59-.06,1.05-.13,1.38a1.29,1.29,0,0,1-.06.46v-.46a12.82,12.82,0,0,1,.06-1.38c.07-1.25.13-3,.2-5.19.13-4.33.33-10.37.39-17s0-12.68-.06-17c-.07-2.17-.07-3.88-.07-5.19v-1.38C274.4,162.23,274.4,162.1,274.47,162.1Z" style="fill:#263238"/><path d="M425.42,145.09h-1.05a23.2,23.2,0,0,1-2.89-.39,34.48,34.48,0,0,1-8.93-3.28,42,42,0,0,1-4.53-2.63,9.72,9.72,0,0,1-3.15-3,6.47,6.47,0,0,1-1-2.69v-.79a.38.38,0,0,1,.07-.26c.07,0,0,.4.07,1a6.11,6.11,0,0,0,1.05,2.63,10.78,10.78,0,0,0,3.08,2.82q2.07,1.29,4.53,2.56a37.41,37.41,0,0,0,8.8,3.35,23.79,23.79,0,0,0,2.82.46C425,145,425.42,145.09,425.42,145.09Z" style="fill:#263238"/><path d="M413,149.16s-.27-.13-.73-.32c-.26-.14-.52-.27-.85-.46a7.49,7.49,0,0,1-1.05-.73,17.81,17.81,0,0,1-2.5-2.16,18.45,18.45,0,0,1-2.43-3.22,20.29,20.29,0,0,1-1.7-3.68,13.76,13.76,0,0,1-.73-3.21c-.06-.47-.06-.92-.13-1.25a2.71,2.71,0,0,1,0-1c0-.52,0-.79.07-.79s0,1.19.33,3a17.64,17.64,0,0,0,.79,3.15,21.82,21.82,0,0,0,1.7,3.61,20.38,20.38,0,0,0,2.37,3.15,16.51,16.51,0,0,0,2.36,2.17C412,148.57,413,149.1,413,149.16Z" style="fill:#263238"/><g style="opacity:0.30000001192092896"><path d="M265.8,143.25c-3.68-.19-7.22,2-9.52,4.86s-3.55,6.5-4.53,10a92.54,92.54,0,0,0-1,45.63l9.66,5.85c4.79-10.64-.86-23.31,1.9-34.67.92-3.81,2.82-7.36,4.66-10.84,1.45-2.69,2.82-5.38,4.27-8.07a13,13,0,0,0,2-5.91C273.09,146.47,269.54,143.45,265.8,143.25Z"/></g><path d="M243.41,165.71a64,64,0,0,1,1.44-9.19c1.05-4.6,4.73-21.47,5.58-23.05s2.11-3.68,5.65-2.69,9.78,2,10.84,3.28a5.35,5.35,0,0,1,1.18,2.5s2.49,1.9,2.62,3.08a5.64,5.64,0,0,1,0,1.77s1.78-.19,1.51,2.11-.72,1.83-.72,1.83,2.1.46,1.51,2.24a12.08,12.08,0,0,1-3.67,4.73c-1.32,1.05-4,.32-4,.32a44,44,0,0,1-3.41,8.15,14.22,14.22,0,0,1-4.27,5H243.41Z" style="fill:#ffbf9d"/><path d="M271.25,145a7.68,7.68,0,0,1-1.38-.2c-.46-.13-1-.2-1.51-.33l-.85-.2a2.94,2.94,0,0,1-1-.32,1.75,1.75,0,0,1-.66-.86c-.13-.33-.19-.52-.32-.78a3.86,3.86,0,0,0-1-1.05,10.5,10.5,0,0,0-1.25-.6,2.78,2.78,0,0,1,1.38.33,3.34,3.34,0,0,1,1.12,1c.39.46.39,1.25.92,1.51a4.65,4.65,0,0,0,.85.27c.33.06.59.13.86.19.52.13,1,.26,1.44.4A15,15,0,0,1,271.25,145Z" style="fill:#c97355"/><path d="M270.66,141a8,8,0,0,0-1.71-1.18,13,13,0,0,0-2.17-.59,10.45,10.45,0,0,1-2.69-.66,11.34,11.34,0,0,0-2.56-1,6.38,6.38,0,0,0-2.23-.13,7.41,7.41,0,0,0-2,.52,1.44,1.44,0,0,1,.46-.26,8.74,8.74,0,0,1,1.51-.46,5.64,5.64,0,0,1,2.3.06,11.87,11.87,0,0,1,2.63,1,11.69,11.69,0,0,0,2.62.66,8.46,8.46,0,0,1,2.17.65,3.44,3.44,0,0,1,1.25.92C270.59,140.82,270.66,141,270.66,141Z" style="fill:#c97355"/><path d="M267.44,136.43c-.06.06-.72-.47-2-1a10.51,10.51,0,0,0-2.37-.59,9.52,9.52,0,0,0-1.44-.07,3.54,3.54,0,0,1-1.58-.39c-.46-.26-.85-.66-1.31-.92a3.26,3.26,0,0,0-1.32-.46,5.38,5.38,0,0,0-2.36.2c-1.31.39-2.1.85-2.1.78l.53-.32A6.54,6.54,0,0,1,255,133a5.79,5.79,0,0,1,2.49-.26,4.11,4.11,0,0,1,1.44.52c.46.27.86.59,1.32.86.85.52,2,.33,2.89.46a10.93,10.93,0,0,1,2.43.65A9.53,9.53,0,0,1,267,136,1.49,1.49,0,0,1,267.44,136.43Z" style="fill:#c97355"/><path d="M269.87,151.13a1.66,1.66,0,0,1-1,.13,1.78,1.78,0,0,1-1-.52,1.87,1.87,0,0,1-.59-1.25h.33c-.07.26-.13.59-.2.86a2.12,2.12,0,0,1-1.05,1.18,1.34,1.34,0,0,1-1.31-.13l.19-.2a1.72,1.72,0,0,1,.27,1.05,2.71,2.71,0,0,1-.13.39v-.39a1.46,1.46,0,0,0-.33-.92l-.46-.59.59.39a1,1,0,0,0,1.05,0,1.59,1.59,0,0,0,.85-1,4,4,0,0,0,.2-.79l.2-1.25.13,1.25a2,2,0,0,0,.52,1,3.21,3.21,0,0,0,.79.53A1.67,1.67,0,0,0,269.87,151.13Z" style="fill:#c97355"/><path d="M260.09,209.51s-5.19-34.41-2.37-43.8l-3.08-3.94-11.23,3.94s-9,34.93-9.13,42.09c0,0-1,8.66,10.38,8.66S260.09,209.51,260.09,209.51Z" style="fill:#ffbf9d"/><g style="opacity:0.30000001192092896"><path d="M352.08,123.29c-1.91,7.88-3,19.18-4.86,27.06-2.3-2.17-5-4.4-8.47-5.06.07,1.44-.46,2.63-.33,4.14l.85,13.06a42.72,42.72,0,0,1,1.45-12.21c2.69,2.3,5.32,4.66,8,7l2.89-9.32c.2-.73.39-1.45.59-2.17C353.46,139.71,352.93,129.4,352.08,123.29Z"/></g><g style="opacity:0.30000001192092896"><path d="M352,147.13c-.13.26-.19.52-.33.79s-.06.19-.06.32A5.38,5.38,0,0,1,352,147.13Z"/></g><path d="M376.5,55.79s-3.15,0-1.24,4,2.1,3.81,2.95,4.27,6,1.84,6,1.84,1.84,3.54,7.69,3.41l11.75-9.78s-7.55-9.65-9.39-13.79-3.68-7.09-5.84-6.7c0,0-3.15-.46-4.21,1.45s-6.5,5.64-7.74,7.09-2.56,3.74-2.43,4.86S376.5,55.79,376.5,55.79Z" style="fill:#ffbf9d"/><path d="M387.4,66.76a2.57,2.57,0,0,1-.59-.46,4.76,4.76,0,0,1-1.05-1.77,12.24,12.24,0,0,1-.59-3,12.63,12.63,0,0,0-.72-3.61c-.46-1.19-1.18-2.3-1.58-3.35a5.7,5.7,0,0,1-.46-3,3,3,0,0,1,.92-1.84,1.61,1.61,0,0,1,.46-.33.48.48,0,0,1,.2-.07,3.28,3.28,0,0,0-.53.53,3.1,3.1,0,0,0-.72,1.84,5.36,5.36,0,0,0,.53,2.89c.39,1.05,1.11,2.1,1.57,3.35a12.74,12.74,0,0,1,.72,3.67,12.52,12.52,0,0,0,.46,3A4.91,4.91,0,0,0,387.4,66.76Z" style="fill:#c97355"/><path d="M384.71,58a3,3,0,0,1-1.18.52,7.9,7.9,0,0,1-1.38.13,8,8,0,0,1-1.64-.32,6.84,6.84,0,0,1-2.69-1.45,3.36,3.36,0,0,1-.86-1c.07-.07.4.33,1,.79A8.39,8.39,0,0,0,380.57,58a7,7,0,0,0,3,.33C384.25,58.16,384.64,58,384.71,58Z" style="fill:#c97355"/><path d="M379.59,49.16a2.09,2.09,0,0,1,.72.73,3.8,3.8,0,0,1,.59,2.43l-.06-.14a2,2,0,0,1,.26.33,1.77,1.77,0,0,1,.13,1.78l-.2-.2a2,2,0,0,1,1.58.13c.33.2.53.33.46.39s-.2-.06-.53-.19a2.12,2.12,0,0,0-1.44,0l-.33.13.13-.33a1.43,1.43,0,0,0-.13-1.44c-.06-.07-.13-.2-.19-.27l-.07-.06v-.07a4,4,0,0,0-.4-2.3C379.79,49.49,379.52,49.16,379.59,49.16Z" style="fill:#c97355"/><path d="M382.54,52.58c0,.06-.06.13-.26.19a1.26,1.26,0,0,1-.72,0,2.12,2.12,0,0,1-.59-.46c-.13-.19-.13-.26-.07-.32s.33.32.79.46S382.54,52.51,382.54,52.58Z" style="fill:#c97355"/><path d="M385.3,60.78a4.31,4.31,0,0,1,.33,1.45v.39a.24.24,0,0,1-.07.2.43.43,0,0,1-.26.13c-.13,0-.26.07-.46.07a1,1,0,0,1-.46-.13,8,8,0,0,1-1.57-1.12,14.93,14.93,0,0,1-2.24-2.69,14.21,14.21,0,0,1-.72-1.25,4.92,4.92,0,0,1,.92,1.12A18.39,18.39,0,0,0,383,61.57a7.63,7.63,0,0,0,1.51,1.12,1.35,1.35,0,0,0,.33.13c.07,0,.27-.07.4-.07s.13-.26.19-.46C385.37,61.31,385.24,60.78,385.3,60.78Z" style="fill:#c97355"/><path d="M379.92,63.74c-.07-.07.52-.85.85-2a20.56,20.56,0,0,0,.26-2.1,3.25,3.25,0,0,1,.14,2.17A3.37,3.37,0,0,1,379.92,63.74Z" style="fill:#c97355"/><path d="M390.23,42.34a4.42,4.42,0,0,0-1-1.91c-.85-.85-2-.79-1.9-.92s.26-.13.65-.06a3,3,0,0,1,1.51.72,2.86,2.86,0,0,1,.79,1.44C390.29,42.07,390.29,42.34,390.23,42.34Z" style="fill:#c97355"/><path d="M403.62,59.47S417,82.32,422,93.48c8.2,18.45,12,41.9,12,41.9s-.46,3.61-7.42,2.62-20.29-2-21.27-9.85,0-16-3.22-29.35-10.24-29.54-10.24-29.54l6.5-9.59Z" style="fill:#ffbf9d"/><g style="clip-path:url(#clip-path-4)"><path d="M377.34,79.83,378,82a3.1,3.1,0,0,0,2.17,2.17l2.16.65-2.16.86a2.93,2.93,0,0,0-2,2L377.34,90l-.86-2.38a4.38,4.38,0,0,0-2-2L372.36,85l2.17-.64a3.52,3.52,0,0,0,2-1.95Z" style="fill:#fff9e1"/><path d="M355.44,25l.39,1.32a1.89,1.89,0,0,0,1.32,1.32l1.33.4-1.33.53A1.82,1.82,0,0,0,356,29.77l-.52,1.45-.53-1.45a2.59,2.59,0,0,0-1.19-1.19l-1.33-.4,1.33-.4a2.11,2.11,0,0,0,1.19-1.19Z" style="fill:#fff9e1"/><path d="M269.79,186.11l.57,1.88a2.7,2.7,0,0,0,1.87,1.88l1.88.56-1.88.75a2.55,2.55,0,0,0-1.69,1.69l-.75,2.07-.75-2.07a3.69,3.69,0,0,0-1.69-1.69l-1.88-.56,1.88-.57a2.93,2.93,0,0,0,1.69-1.69Z" style="fill:#fff9e1"/><path d="M362.14,153.23l.53,1.79a2.58,2.58,0,0,0,1.8,1.79l1.79.54-1.79.72a2.42,2.42,0,0,0-1.62,1.61l-.71,2-.72-2a3.54,3.54,0,0,0-1.61-1.61l-1.8-.54,1.8-.54a2.86,2.86,0,0,0,1.61-1.61Z" style="fill:#fff9e1"/><path d="M372.71,27.68l1.06,3.42A4.74,4.74,0,0,0,377,34.27l3.42,1.06-3.51,1.23a4.79,4.79,0,0,0-3,3l-1.22,3.5-1.39-3.66a4.9,4.9,0,0,0-3-2.94l-3.34-1.14,3.26-1.14a5.19,5.19,0,0,0,3-2.85Z" style="fill:#fff9e1"/><path d="M297.72,208.43l1,3.42A4.8,4.8,0,0,0,302,215l3.42,1.06-3.5,1.22a4.81,4.81,0,0,0-3,3l-1.23,3.5-1.38-3.67a4.9,4.9,0,0,0-3-2.93l-3.33-1.14,3.25-1.14a5.21,5.21,0,0,0,3-2.85Z" style="fill:#fff9e1"/><path d="M278.56,62l.71,2.42a3.33,3.33,0,0,0,2.28,2.27l2.55.71-2.55.85a3.2,3.2,0,0,0-2.13,2.13l-.86,2.56-1-2.7a3.56,3.56,0,0,0-2.13-2.13L273,67.25l2.42-.85a3.73,3.73,0,0,0,2.13-2Z" style="fill:#fff9e1"/><path d="M323.07,207.91l.4,1.39a1.92,1.92,0,0,0,1.31,1.3l1.46.41-1.46.49a1.85,1.85,0,0,0-1.23,1.22l-.48,1.46-.58-1.54a2,2,0,0,0-1.22-1.23l-1.38-.48,1.38-.49a2.11,2.11,0,0,0,1.22-1.14Z" style="fill:#fff9e1"/></g></g></g><path d="M82.93,242.05c-30.2,0-72.24-6.9-82.93-16.47v26.48H669V227.81c0,1.56-13.75,8.2-41.35,12.24-47.15,6.9-67.83,6.94-133.57,5.78-46.92-.83-204.88-18-272-13.35S120.82,242.05,82.93,242.05Z" style="fill:#73e7bd"/><path d="M82.46,247.92c-30.19,0-59.23-3.22-82.46-22.34V256H669V227.88c0,1.62-21.14,12-44.83,16.12-46,8.05-66.75,7.67-129.36,6.52l-4-.07c-46.92-.86-206.27-22.33-273.4-17.5S120.35,247.92,82.46,247.92Z" style="fill:#fff"/></g></svg>