<svg width="62" height="50" viewBox="0 0 62 50" fill="none" xmlns="http://www.w3.org/2000/svg">
<g clip-path="url(#clip0_5692_290484)">
<rect x="42.0131" y="12" width="23.4706" height="31.7543" rx="4" transform="rotate(28.2154 42.0131 12)" fill="#1FB767"/>
<rect x="28.0176" y="-0.555664" width="30.0427" height="40.646" rx="4" transform="rotate(12.723 28.0176 -0.555664)" fill="#001B3D"/>
<circle cx="49.5378" cy="12.4559" r="2.65082" transform="rotate(12.723 49.5378 12.4559)" fill="#B9C3D3"/>
<rect x="35.4691" y="6.56177" width="10.6033" height="1.76722" rx="0.883608" transform="rotate(12.723 35.4691 6.56177)" fill="#B9C3D3"/>
<rect x="33.2636" y="9.68701" width="12.0663" height="1.76722" rx="0.883608" transform="rotate(12.723 33.2636 9.68701)" fill="#627798"/>
<circle cx="46.8134" cy="24.5221" r="2.65082" transform="rotate(12.723 46.8134 24.5221)" fill="#B9C3D3"/>
<rect x="32.7447" y="18.6279" width="10.6033" height="1.76722" rx="0.883608" transform="rotate(12.723 32.7447 18.6279)" fill="#B9C3D3"/>
<rect x="37.9996" y="23.4377" width="4.41804" height="1.76722" rx="0.883608" transform="rotate(12.723 37.9996 23.4377)" fill="#627798"/>
<path fill-rule="evenodd" clip-rule="evenodd" d="M47.1429 35.9711L44.1337 37.7019C43.949 37.8082 43.7012 37.7522 43.5801 37.5769L41.6064 34.7211C41.4853 34.5459 41.5368 34.3177 41.7215 34.2115C41.9062 34.1053 42.154 34.1612 42.2752 34.3365L43.7193 36.4263L44.662 32.2512C44.7069 32.0522 44.9186 31.9304 45.1348 31.9792C45.3511 32.028 45.4899 32.229 45.445 32.428L44.5023 36.603L46.7043 35.3365C46.889 35.2303 47.1368 35.2863 47.2579 35.4615C47.3791 35.6368 47.3275 35.8649 47.1429 35.9711Z" fill="#B9C3D3"/>
<rect x="16.1628" y="28.667" width="3.53554" height="5.95576" transform="rotate(45 16.1628 28.667)" fill="#001B3D"/>
<rect x="11.998" y="31.165" width="5.89256" height="16.5019" rx="2" transform="rotate(45 11.998 31.165)" fill="#1FB767"/>
<circle cx="27.8293" cy="19.5003" r="12.1415" transform="rotate(45 27.8293 19.5003)" fill="#001B3D"/>
<path fill-rule="evenodd" clip-rule="evenodd" d="M16.5793 30.75C22.7925 36.9633 32.8661 36.9633 39.0794 30.75C45.2926 24.5368 45.2926 14.4632 39.0794 8.25002C32.8661 2.0368 22.7925 2.0368 16.5793 8.25002C10.3661 14.4632 10.3661 24.5368 16.5793 30.75ZM19.494 27.8355C24.0975 32.439 31.5612 32.439 36.1647 27.8355C40.7681 23.2321 40.7681 15.7684 36.1647 11.1649C31.5612 6.56144 24.0975 6.56144 19.494 11.1649C14.8906 15.7684 14.8906 23.2321 19.494 27.8355Z" fill="#1FB767"/>
<path d="M32.3173 13.9679C31.7279 13.3786 31.0283 12.9111 30.2582 12.5921C29.4882 12.2731 28.6628 12.109 27.8293 12.109C26.9959 12.109 26.1705 12.2731 25.4005 12.5921C24.6304 12.9111 23.9308 13.3786 23.3414 13.9679" stroke="white" stroke-width="2" stroke-linecap="round"/>
<rect x="4" y="2.10132" width="5.47233" height="5.47233" rx="1" transform="rotate(-22.5822 4 2.10132)" fill="#EF5350"/>
<path d="M16.8631 41.5659L18.5948 43.8631L21.2922 44.8631L18.995 46.5948L17.995 49.2922L16.2633 46.9949L13.5659 45.995L15.8632 44.2633L16.8631 41.5659Z" fill="#FF9500"/>
</g>
<defs>
<clipPath id="clip0_5692_290484">
<rect width="62" height="50" fill="white"/>
</clipPath>
</defs>
</svg>
