<svg width="62" height="50" viewBox="0 0 62 50" fill="none" xmlns="http://www.w3.org/2000/svg">
<g clip-path="url(#clip0_5685_289992)">
<g clip-path="url(#clip1_5685_289992)">
<circle cx="48" cy="26.8889" r="8.88889" fill="#001B3D"/>
<circle cx="48" cy="26.8889" r="8.88889" fill="#001B3D"/>
<path d="M33.7778 50.0002C33.7778 44.1091 38.5534 39.3335 44.4444 39.3335H51.5556C57.4466 39.3335 62.2222 44.1091 62.2222 50.0002H33.7778Z" fill="#001B3D"/>
</g>
<g clip-path="url(#clip2_5685_289992)">
<circle cx="23.5" cy="16.0556" r="13.0556" fill="#1FB767"/>
<circle cx="23.5" cy="16.0556" r="13.0556" fill="#1FB767"/>
<path d="M30 18.5C30 20.2239 29.3152 21.8772 28.0962 23.0962C26.8772 24.3152 25.2239 25 23.5 25C21.7761 25 20.1228 24.3152 18.9038 23.0962C17.6848 21.8772 17 20.2239 17 18.5L23.5 18.5H30Z" fill="white"/>
<path d="M2.61111 48.3335C2.61111 40.6015 8.87913 34.3335 16.6111 34.3335H30.3889C38.1209 34.3335 44.3889 40.6015 44.3889 48.3335V50.0002H2.61111V48.3335Z" fill="#1FB767"/>
<path fill-rule="evenodd" clip-rule="evenodd" d="M19.5833 34.3335H15.6667L18.2778 50.0002L22.1944 39.5557L19.5833 34.3335Z" fill="white"/>
<path fill-rule="evenodd" clip-rule="evenodd" d="M31.3333 34.3335L28.7222 50.0002L24.8055 39.5557L27.4167 34.3335H31.3333Z" fill="white"/>
<path d="M27.4167 34.3335H19.5833L22.1944 39.5557L18.2778 50.0002H28.7222L24.8055 39.5557L27.4167 34.3335Z" fill="#001B3D"/>
<path d="M4.35997 23.0292L7.45352 25.7526L11.5739 25.8531L8.85038 28.9467L8.7499 33.067L5.65636 30.3435L1.53601 30.243L4.25949 27.1495L4.35997 23.0292Z" fill="#FFA600"/>
</g>
<rect x="42.9955" y="6.82812" width="6.17275" height="6.17275" rx="1" transform="rotate(-22.5822 42.9955 6.82812)" fill="#EF5350"/>
</g>
<defs>
<clipPath id="clip0_5685_289992">
<rect width="62" height="50" fill="white"/>
</clipPath>
<clipPath id="clip1_5685_289992">
<rect width="32" height="32" fill="white" transform="translate(32 18)"/>
</clipPath>
<clipPath id="clip2_5685_289992">
<rect width="47" height="47" fill="white" transform="translate(0 3)"/>
</clipPath>
</defs>
</svg>
