<svg width="67" height="50" viewBox="0 0 67 50" fill="none" xmlns="http://www.w3.org/2000/svg">
<g clip-path="url(#clip0_5685_289974)">
<path d="M2 42H67C67 46.4183 63.4183 50 59 50H10C5.58172 50 2 46.4183 2 42Z" fill="#1FB767"/>
<path d="M24 43H46C46 44.6569 44.6569 46 43 46H27C25.3431 46 24 44.6569 24 43Z" fill="#001B3D"/>
<path d="M8 15C8 11.6863 10.6863 9 14 9H55C58.3137 9 61 11.6863 61 15V42H8V15Z" fill="#001B3D"/>
<path d="M12 16C12 14.8954 12.8954 14 14 14H27.0423C28.1468 14 29.0423 14.8954 29.0423 16V27.1351C29.0423 28.1155 28.2475 28.9103 27.267 28.9103C26.2866 28.9103 25.4918 29.7051 25.4918 30.6855V32.3421L21.5376 29.3211C21.1889 29.0546 20.7623 28.9103 20.3234 28.9103H14C12.8954 28.9103 12 28.0149 12 26.9103V16Z" fill="white"/>
<line x1="16.2773" y1="17.6833" x2="24.7649" y2="17.6833" stroke="#1E88E5" stroke-width="2" stroke-linecap="round"/>
<line x1="16.2773" y1="21.0286" x2="24.7649" y2="21.0286" stroke="#1E88E5" stroke-width="2" stroke-linecap="round"/>
<line x1="16.2773" y1="24.3738" x2="24.7649" y2="24.3738" stroke="#1E88E5" stroke-width="2" stroke-linecap="round"/>
<path d="M57.6086 0.0133143L60.186 1.6343L63.2306 1.60866L61.6096 4.186L61.6352 7.23061L59.0579 5.60962L56.0133 5.63526L57.6343 3.05792L57.6086 0.0133143Z" fill="#FFA600"/>
<path d="M0 4C0 2.89543 0.895431 2 2 2H16.8023C17.9069 2 18.8023 2.89543 18.8023 4V16.7627C18.8023 17.8673 17.9069 18.7627 16.8023 18.7627H9.50216C8.93885 18.7627 8.40166 19.0003 8.02263 19.417L4.30887 23.5V20.7627C4.30887 19.6582 3.41344 18.7627 2.30887 18.7627H2C0.89543 18.7627 0 17.8673 0 16.7627V4Z" fill="#1FB767"/>
<path fill-rule="evenodd" clip-rule="evenodd" d="M14.5348 7.45364C14.7856 7.70415 14.7856 8.1103 14.5348 8.36081L9.54043 13.3502C9.28967 13.6007 8.88311 13.6007 8.63235 13.3502C8.38159 13.0997 8.38159 12.6936 8.63235 12.4431L13.6268 7.45364C13.8775 7.20314 14.2841 7.20314 14.5348 7.45364Z" fill="white"/>
<path fill-rule="evenodd" clip-rule="evenodd" d="M5.45404 9.26804C5.7048 9.01753 6.11136 9.01753 6.36212 9.26804L9.54038 12.4431C9.79114 12.6936 9.79114 13.0998 9.54038 13.3503C9.28962 13.6008 8.88307 13.6008 8.63231 13.3503L5.45404 10.1752C5.20329 9.9247 5.20329 9.51854 5.45404 9.26804Z" fill="white"/>
</g>
<defs>
<clipPath id="clip0_5685_289974">
<rect width="67" height="50" fill="white"/>
</clipPath>
</defs>
</svg>
