<svg width="62" height="50" viewBox="0 0 62 50" fill="none" xmlns="http://www.w3.org/2000/svg">
<g clip-path="url(#clip0_5710_290415)">
<path d="M1.00503 39.5207L3.76165 36.6986L4.06185 32.765L6.88399 35.5216L10.8176 35.8218L8.06099 38.6439L7.76079 42.5775L4.93864 39.8209L1.00503 39.5207Z" fill="#FFA600"/>
<rect x="56.6534" y="6" width="5.39413" height="5.39413" rx="1.15864" transform="rotate(59.618 56.6534 6)" fill="#1E88E5"/>
<path fill-rule="evenodd" clip-rule="evenodd" d="M29.1836 1.59668C27.6146 0.690774 25.6082 1.22838 24.7023 2.79745L23.6087 4.69166L15.8734 0.225713C14.9152 -0.3275 13.69 0.000798727 13.1368 0.958992L1.4711 21.1646C0.917892 22.1228 1.24619 23.348 2.20439 23.9012L9.93946 28.3671L11.0331 26.4727C11.939 24.9037 13.9454 24.3661 15.5145 25.272C17.0836 26.1779 17.6212 28.1842 16.7153 29.7533L15.6216 31.6476L22.41 35.5669C23.3682 36.1201 24.5934 35.7918 25.1466 34.8336L28.8774 28.3716L26.3385 26.9058C24.4221 25.7994 23.7655 23.3489 24.8719 21.4325L25.6165 20.1428C26.723 18.2264 29.1734 17.5698 31.0898 18.6763L33.6288 20.1421L36.8123 14.628C37.3655 13.6699 37.0372 12.4446 36.079 11.8914L29.2908 7.97223L30.3844 6.07803C31.2903 4.50895 30.7527 2.50259 29.1836 1.59668Z" fill="#1FB767"/>
<path fill-rule="evenodd" clip-rule="evenodd" d="M27.7188 26.0042C26.1497 25.0983 25.6121 23.0919 26.518 21.5228C27.4239 19.9538 29.4303 19.4162 30.9994 20.3221L32.8933 21.4156L36.8127 14.6269C37.366 13.6688 38.5912 13.3405 39.5494 13.8937L46.3379 17.813L45.2441 19.7074C44.3382 21.2765 44.8758 23.2829 46.4449 24.1888C48.0139 25.0947 50.0203 24.5571 50.9262 22.988L52.02 21.0936L59.755 25.5594C60.7132 26.1126 61.0415 27.3378 60.4882 28.296L56.569 35.0844L54.6749 33.9908C53.1058 33.0849 51.0994 33.6225 50.1935 35.1916C49.2876 36.7607 49.8252 38.767 51.3943 39.6729L53.2884 40.7665L48.8226 48.5016C48.2693 49.4598 47.0441 49.7881 46.0859 49.2349L38.3507 44.7689L37.2571 46.6631C36.3512 48.2321 34.3448 48.7698 32.7758 47.8638C31.2067 46.9579 30.6691 44.9516 31.575 43.3825L32.6686 41.4884L25.8803 37.5692C24.9221 37.0159 24.5938 35.7907 25.147 34.8325L29.6128 27.0977L27.7188 26.0042Z" fill="#001B3D"/>
</g>
<defs>
<clipPath id="clip0_5710_290415">
<rect width="62" height="50" fill="white"/>
</clipPath>
</defs>
</svg>
