<svg id="Layer_1" data-name="Layer 1" xmlns="http://www.w3.org/2000/svg" xmlns:xlink="http://www.w3.org/1999/xlink" viewBox="0 0 298 136"><defs><clipPath id="clip-path"><rect width="298" height="136" style="fill:none"/></clipPath><clipPath id="clip-path-2"><rect x="31.9" y="9.35" width="194.1" height="127" style="fill:none"/></clipPath></defs><g style="clip-path:url(#clip-path)"><rect width="298" height="136" style="fill:#fff"/><path d="M298,0H0V136H298Z" style="fill:#32e6f9"/><path d="M297.76,43.65C274.42,26.18,258.9,13,224,7,169-2.35,110.31,88.35,76.34,83,38.85,77,0,54.55,0,54.55v61.74H297.76Z" style="fill:#37d9f4"/><path d="M224.93,7a52.68,52.68,0,0,0-31.17,9.08C179,26.46,189.93,43.36,206,43S228.8,40.57,238.34,47,229,59.69,219.26,61.44s-11.61,20.92,35.16,21.42c40.81.4,43.34,4.21,43.34,4.21V43.65C272,21.55,244.74,8.19,224.93,7Z" style="fill:#34e0f7;opacity:0.8999999761581421;isolation:isolate"/><path d="M297.93,146.27H0V93.67s66-4.6,133.21-.41C189.73,96.78,298,99.51,298,99.51Z" style="fill:#23b781"/><path d="M216,135.84v.43l30-.2.08.2h52.82V92.64a9.52,9.52,0,0,0-12.81,3.28,8.11,8.11,0,0,0-7.16.44,8.15,8.15,0,0,0-3,2.91,11.14,11.14,0,0,0-17.63,13.14,8.15,8.15,0,0,0-6.28,7.47,9.57,9.57,0,0,0-7.12,4.45,8.18,8.18,0,0,0-10.13,3.36A11.14,11.14,0,0,0,216,135.87Z" style="fill:#00707a"/><path d="M232.2,136.27h66.62V105.86a8.27,8.27,0,1,0-16.53,0,7.92,7.92,0,0,0,.14,1.53,6.8,6.8,0,0,0-1.72,2,9.65,9.65,0,0,0-4.66-2.42,9.55,9.55,0,0,0-5.24.37,9.66,9.66,0,0,0-6.3,7.92,8.3,8.3,0,0,0-5.76,4,8.34,8.34,0,0,0-.67,7,6.89,6.89,0,0,0-2,2.23,9.52,9.52,0,0,0-10-1.61,9.69,9.69,0,0,0-5,4.7,8.32,8.32,0,0,0-5.23.86,8.24,8.24,0,0,0-3.64,3.85Z" style="fill:#33cb93"/><g style="clip-path:url(#clip-path-2)"><path d="M211.29,133.62H43.38A5.63,5.63,0,0,1,37.76,128V20.75a5.62,5.62,0,0,1,5.62-5.62H211.29a5.62,5.62,0,0,1,5.62,5.62V128A5.61,5.61,0,0,1,211.29,133.62Z" style="fill:#455a64"/><path d="M219.14,136.35H38.76a6.87,6.87,0,0,1-6.86-6.86V126H226v3.5A6.87,6.87,0,0,1,219.14,136.35Z" style="fill:#455a64"/><path d="M109.67,124.87l2.43,3.81H146l2.23-3.81Z" style="fill:#263238"/><path d="M215.37,124.87c0,.08-39.75.12-88.79.12s-88.79,0-88.79-.12,39.76-.12,88.79-.12S215.37,124.79,215.37,124.87Z" style="fill:#263238"/><path d="M209.82,121.71H44.15a1.28,1.28,0,0,1-1.27-1.27V23.22A1.28,1.28,0,0,1,44.15,22H209.82a1.28,1.28,0,0,1,1.27,1.27v97.22A1.28,1.28,0,0,1,209.82,121.71Z" style="fill:#ebebeb"/><path d="M210.9,121.87H42.72l.16-92.45h168Z" style="fill:#fff"/><path d="M56.71,25.84a1.35,1.35,0,1,1-1.35-1.35A1.34,1.34,0,0,1,56.71,25.84Z" style="fill:#263238"/><path d="M48.54,25.84a1.35,1.35,0,1,1-1.35-1.35A1.32,1.32,0,0,1,48.54,25.84Z" style="fill:#263238"/><path d="M52.47,25.84a1.35,1.35,0,1,1-1.35-1.35A1.34,1.34,0,0,1,52.47,25.84Z" style="fill:#263238"/><path d="M211.09,112.93H42.72v8.94H211.09Z" style="fill:#263238"/><path d="M49.08,118.44v.27H47.73v-.23l.73-.7a.4.4,0,0,0,.2-.38c0-.16-.12-.27-.35-.27a.56.56,0,0,0-.42.19l-.24-.19a.87.87,0,0,1,.7-.31c.38,0,.65.19.65.54a.68.68,0,0,1-.31.58l-.5.46h.89Z" style="fill:#fff"/><path d="M49.27,117.55a.23.23,0,0,1,.23-.23.22.22,0,0,1,.23.23.21.21,0,0,1-.23.23C49.35,117.75,49.27,117.67,49.27,117.55Zm0,1a.23.23,0,0,1,.23-.23.24.24,0,0,1,0,.47A.21.21,0,0,1,49.27,118.51Z" style="fill:#fff"/><path d="M50.54,116.9v1.81H50.2v-1.54h-.39v-.27Z" style="fill:#fff"/><path d="M52.51,118.32H52.2v.43h-.31v-.43h-1v-.23l.89-1.15h.34l-.84,1.11h.57v-.38h.31v.38h.31v.27Z" style="fill:#fff"/><path d="M193.45,117.59h-138v.62h138Z" style="fill:#fff"/><path d="M98.5,116.9H55.4v1.69H98.5Z" style="fill:#ff725e"/><path d="M99.89,117.9a2.12,2.12,0,1,1-2.12-2.12A2.12,2.12,0,0,1,99.89,117.9Z" style="fill:#ff725e"/><path d="M197,117.86a.61.61,0,0,1-.66.58c-.5,0-.77-.31-.77-.89a.86.86,0,0,1,.89-1,.89.89,0,0,1,.46.11l-.12.27a.6.6,0,0,0-.34-.07.55.55,0,0,0-.58.61.69.69,0,0,1,.5-.19A.57.57,0,0,1,197,117.86Zm-.35,0a.32.32,0,0,0-.35-.31c-.23,0-.38.12-.38.31a.35.35,0,0,0,.38.31C196.49,118.21,196.61,118.09,196.61,117.9Z" style="fill:#fff"/><path d="M197.11,117.24a.23.23,0,0,1,.23-.23.23.23,0,1,1-.23.23Zm0,1a.23.23,0,0,1,.23-.24.22.22,0,0,1,.23.24.23.23,0,0,1-.23.23A.26.26,0,0,1,197.11,118.25Z" style="fill:#fff"/><path d="M197.76,117.55c0-.61.31-.92.78-.92a.82.82,0,0,1,.77.92c0,.62-.31.93-.77.93S197.76,118.13,197.76,117.55Zm1.16,0c0-.42-.15-.65-.42-.65s-.43.19-.43.65.16.66.43.66S198.92,118,198.92,117.55Z" style="fill:#fff"/><path d="M199.5,117.55c0-.61.31-.92.77-.92a.82.82,0,0,1,.77.92c0,.62-.31.93-.77.93A.82.82,0,0,1,199.5,117.55Zm1.19,0c0-.42-.15-.65-.42-.65s-.42.19-.42.65.15.66.42.66S200.69,118,200.69,117.55Z" style="fill:#fff"/><path d="M204,117.44h-.62v-1.85h1.81v.65H204Z" style="fill:#fff"/><path d="M205.16,119.79h-1.81V118H204v1.19h1.19Z" style="fill:#fff"/><path d="M208.05,119.79h-1.81v-.62h1.16V118h.65Z" style="fill:#fff"/><path d="M208.05,117.4h-.65v-1.16h-1.16v-.65h1.81Z" style="fill:#fff"/><path d="M65.76,34.93h-9.9l-5,8.59,5,8.55h9.9l5-8.55Z" style="fill:#ebebeb"/><path d="M56.67,45.17a9.14,9.14,0,0,1-1.2-1.58,3.26,3.26,0,0,1-.42-1.88,5.72,5.72,0,0,0,.23-1.12c0-.54-.19-1.08,0-1.58.31-.77,1.35-.89,2-1.43s.73-1.07,1.27-1.46a2.38,2.38,0,0,1,1.65-.23,6.12,6.12,0,0,0,1.7.15c.38,0,.77-.23,1.15-.3a1.61,1.61,0,0,1,1.2.07.78.78,0,0,1,.31,1,1.27,1.27,0,0,1,1.65.89,1.92,1.92,0,0,1-.73,1.89,4.54,4.54,0,0,1-2,.81,8.15,8.15,0,0,1-5.86-.93" style="fill:#263238"/><path d="M65.87,47.29c-.07-1.23-.42-3.73-.73-6a4.72,4.72,0,0,0-5-4H59.9c-2.62.34-3.81,2.77-3.43,5.39l.78,9.44h6.43l-.16-1.66A3.11,3.11,0,0,0,65.87,47.29Z" style="fill:#ffbe9d"/><path d="M63.49,50.37a6,6,0,0,1-3.39-.73A3.18,3.18,0,0,0,63.52,51Z" style="fill:#eb996e"/><path d="M64.29,43.44a.35.35,0,0,1-.3.39.33.33,0,0,1-.39-.31.35.35,0,0,1,.31-.39A.38.38,0,0,1,64.29,43.44Z" style="fill:#263238"/><path d="M64.64,42.55s-.35-.15-.73-.11-.66.23-.69.19,0-.11.15-.19a1,1,0,0,1,.58-.23,1.15,1.15,0,0,1,.58.15C64.64,42.44,64.68,42.52,64.64,42.55Z" style="fill:#263238"/><path d="M60.6,43.71a.34.34,0,0,1-.31.38.33.33,0,0,1-.39-.3.36.36,0,0,1,.31-.39C60.4,43.4,60.6,43.52,60.6,43.71Z" style="fill:#263238"/><path d="M60.83,42.9s-.35-.12-.73-.12-.66.24-.7.2,0-.12.16-.2a1,1,0,0,1,.57-.23,1.08,1.08,0,0,1,.58.16A.32.32,0,0,1,60.83,42.9Z" style="fill:#263238"/><path d="M62.45,45.67a2.48,2.48,0,0,1,.61-.15c.12,0,.19,0,.19-.12a1.05,1.05,0,0,0-.07-.3c-.12-.24-.23-.5-.35-.74A12.8,12.8,0,0,1,62,42.44a16.63,16.63,0,0,1,1,1.89c.11.27.23.5.34.73a.6.6,0,0,1,.08.38c0,.08-.08.16-.16.16a.26.26,0,0,1-.15,0C62.68,45.67,62.45,45.71,62.45,45.67Z" style="fill:#263238"/><path d="M60.83,41.36c0,.11-.43.08-.89.15s-.81.23-.88.16,0-.16.15-.27a1.43,1.43,0,0,1,.66-.27,1.28,1.28,0,0,1,.69,0C60.75,41.21,60.83,41.28,60.83,41.36Z" style="fill:#263238"/><path d="M64.45,41.44c-.08.07-.35,0-.66,0s-.57.12-.65,0,0-.15.11-.23a1.67,1.67,0,0,1,.54-.19,1.05,1.05,0,0,1,.54.15A.44.44,0,0,1,64.45,41.44Z" style="fill:#263238"/><path d="M56.78,44.52s-1.77-.39-1.61,1.35,2,1.15,2,1.11S56.78,44.52,56.78,44.52Z" style="fill:#ffbe9d"/><path d="M56.44,46.37a.14.14,0,0,1-.08,0,.45.45,0,0,1-.23,0c-.19,0-.39-.3-.42-.65a.82.82,0,0,1,0-.42.45.45,0,0,1,.2-.27.14.14,0,0,1,.19.07.12.12,0,0,1,0,.08s0,0,0-.12,0-.07-.08-.11a.23.23,0,0,0-.15,0,.58.58,0,0,0-.31.31,1,1,0,0,0,0,.5.77.77,0,0,0,.5.69.3.3,0,0,0,.27-.07C56.44,46.44,56.44,46.41,56.44,46.37Z" style="fill:#eb996e"/><path d="M65,38.9c-.12.69-1.5,1.3-2.7,1.27a5.52,5.52,0,0,1-2.39-.93,1.29,1.29,0,0,0-1.15-.11c-.54.07-.81.73-1.12,1.19a7,7,0,0,1,.12,4.08.86.86,0,0,1-.2.43.55.55,0,0,1-.69-.12,2.35,2.35,0,0,1-.54-1.12,6.84,6.84,0,0,1-.15-2.81,5.14,5.14,0,0,1,1.15-2.54,4.48,4.48,0,0,1,3.16-1.43,5.42,5.42,0,0,1,3.35,1A3.12,3.12,0,0,1,65,38.9Z" style="fill:#263238"/><path d="M62.68,46.56l-.89-.42a.21.21,0,0,0-.15,0,.17.17,0,0,0-.16.11.83.83,0,0,0-.11.89.73.73,0,0,0,.84.31A.85.85,0,0,0,62.68,46.56Z" style="fill:#eb996e"/><path d="M62.25,47.48a.5.5,0,0,1-.5,0,.74.74,0,0,1-.46-.38.94.94,0,0,1-.08-.73.64.64,0,0,1,.23-.31A.55.55,0,0,1,61.6,46a.24.24,0,0,1,.23,0,2.8,2.8,0,0,1,.46.31c.27.15.43.31.39.31s-.2,0-.47-.19l-.46-.23h-.07s-.08,0-.12.07a.56.56,0,0,0-.15.27.78.78,0,0,0,0,.58,1.17,1.17,0,0,0,.35.35A2.56,2.56,0,0,0,62.25,47.48Z" style="fill:#263238"/><path d="M62,43.52s0-.16-.07-.43a2,2,0,0,0-.66-1,1.73,1.73,0,0,0-1.65-.23,1.69,1.69,0,0,0-1.12,1.62,1.73,1.73,0,0,0,2.77,1.38,1.91,1.91,0,0,0,.66-1c0-.27,0-.42.07-.42v.11A1.68,1.68,0,0,1,62,44a1.82,1.82,0,0,1-.66,1,1.87,1.87,0,0,1-1.77.31,1.9,1.9,0,0,1-1.27-1.77,1.87,1.87,0,0,1,1.27-1.78A1.88,1.88,0,0,1,62,43.13a1.73,1.73,0,0,1,0,.35Z" style="fill:#263238"/><path d="M66.3,43.32s0-.15-.08-.42a1.75,1.75,0,0,0-.65-.92A1.59,1.59,0,0,0,64,41.75a1.63,1.63,0,0,0-1.08,1.57A1.73,1.73,0,0,0,64,44.9a1.6,1.6,0,0,0,1.58-.23,1.75,1.75,0,0,0,.65-.92c0-.27,0-.43.08-.43v.12a.94.94,0,0,1,0,.31,1.6,1.6,0,0,1-.66,1,1.67,1.67,0,0,1-1.73.27,1.91,1.91,0,0,1-1.23-1.73,1.84,1.84,0,0,1,3-1.47,1.93,1.93,0,0,1,.66,1,1.23,1.23,0,0,1,0,.31Z" style="fill:#263238"/><path d="M62.75,42.94s-.19-.08-.42-.08-.38.12-.42.08.11-.27.42-.27S62.83,42.9,62.75,42.94Z" style="fill:#263238"/><path d="M58.44,43.25s-.31.34-.77.69a2.64,2.64,0,0,1-.89.54,2.89,2.89,0,0,1,.77-.69A2.75,2.75,0,0,1,58.44,43.25Z" style="fill:#263238"/><path d="M94.19,43.4s-4.47.12-9.94.12-9.94,0-9.94-.12,4.47-.11,9.94-.11S94.19,43.36,94.19,43.4Z" style="fill:#263238"/><path d="M85,45.48s-2.35.12-5.28.12a52.52,52.52,0,0,1-5.28-.12s2.35-.11,5.28-.11S85,45.44,85,45.48Z" style="fill:#263238"/><path d="M153.85,58.81A15.3,15.3,0,0,1,161,68.05c1.88,6.67,7.55,24,7.55,24s3.23,3.82,3.58,6.67-.35,9.66-1.39,11a3,3,0,0,1-2.54,1.08l-13.67-1.31-5.4-36.09Z" style="fill:#da9b61"/><path d="M108.59,58.19s-9.78,3.08-12.21,5.74l8,37.29L104.28,113h46.38c0-.58.42-39.06.42-39.06l2.77-15.1-16.48-2.89-3.24-2.54-18.33.92L113,57.08Z" style="fill:#da9b61"/><g style="opacity:0.30000001192092896"><path d="M112.29,90.51c-.15-.31-.35-.65-.69-.73-.58-.12-.93.54-1.12,1.08a49,49,0,0,1-6.09,11.9l-.11,5.74a29.83,29.83,0,0,0,7.09-7.78C113.1,97.6,113.75,93.75,112.29,90.51Z" style="opacity:0.30000001192092896;isolation:isolate"/></g><path d="M96.34,63.93a54.39,54.39,0,0,0-4.54,7.28c-1.35,2.85-12.44,27-13.1,29.47S76.31,111,81.4,112.81H91.84l10.47-21.14.54-24.58Z" style="fill:#da9b61"/><path d="M92.45,97.48a5.78,5.78,0,0,0-.69-.46,8.42,8.42,0,0,0-2.2-.81A9.81,9.81,0,0,0,88,96a5.62,5.62,0,0,0-1.81.12,6.79,6.79,0,0,0-3.5,2.19,9.67,9.67,0,0,0-2,3.7,15.73,15.73,0,0,0-.62,3.43c-.12,1-.12,1.77-.15,2.35,0,.27,0,.46,0,.65a.5.5,0,0,1,0,.23v-.88c0-.54,0-1.35.11-2.35a19.42,19.42,0,0,1,.58-3.47,9.74,9.74,0,0,1,2-3.77,6.79,6.79,0,0,1,3.63-2.24A6.42,6.42,0,0,1,88,95.83a9.77,9.77,0,0,1,1.62.27,8.58,8.58,0,0,1,2.2.84,2.16,2.16,0,0,1,.5.39A1,1,0,0,0,92.45,97.48Z" style="fill:#263238"/><path d="M87.52,93.28a1.6,1.6,0,0,1,.35,0,3.8,3.8,0,0,1,1,0,6.63,6.63,0,0,1,1.43.19,7.25,7.25,0,0,1,1.65.58,7.14,7.14,0,0,1,1.51.92,10.22,10.22,0,0,1,1,1c.27.31.46.58.61.77l.19.31s-.3-.38-.88-1a6.4,6.4,0,0,0-1.08-.92,10.09,10.09,0,0,0-1.46-.89,7.74,7.74,0,0,0-1.62-.58,7.29,7.29,0,0,0-1.39-.23C88,93.28,87.52,93.32,87.52,93.28Z" style="fill:#263238"/><path d="M97,92.13a4.33,4.33,0,0,1-.5,0c-.31,0-.77-.08-1.31-.12a24.76,24.76,0,0,0-4.32.08,20.5,20.5,0,0,0-4.19.93,9.6,9.6,0,0,0-1.24.42,2.78,2.78,0,0,1-.46.15,4.43,4.43,0,0,0,.43-.23c.26-.11.69-.31,1.23-.5a19.57,19.57,0,0,1,8.59-1c.54.08,1,.12,1.31.19A2.56,2.56,0,0,0,97,92.13Z" style="fill:#263238"/><path d="M126.62,71.52l-.12-.11a3.1,3.1,0,0,0-.27-.39c-.27-.35-.61-.85-1-1.46-.88-1.27-2.15-3-3.62-5.13l.16,0c-.58,1.65-1.2,3.46-1.85,5.39l0,.11-.12-.07a1,1,0,0,1-.23-.16,11.32,11.32,0,0,1-2.27-1.92,13,13,0,0,1-1.62-2.24,18.64,18.64,0,0,1-1.77-4.31c-.35-1.27-.54-2.35-.69-3.08-.08-.35-.12-.62-.16-.85s0-.15,0-.23a.16.16,0,0,0,0-.08,4.77,4.77,0,0,1,.3,1.12c.16.73.35,1.77.74,3a19.71,19.71,0,0,0,1.81,4.28,12.26,12.26,0,0,0,3.85,4.08,1,1,0,0,1,.23.15l-.15,0c.65-1.92,1.27-3.73,1.85-5.39l.07-.15.12.15c1.46,2.12,2.69,3.89,3.58,5.16l1,1.46c.12.16.19.31.27.39A1.62,1.62,0,0,1,126.62,71.52Z" style="fill:#263238"/><g style="opacity:0.30000001192092896"><path d="M138.71,89.32a21.26,21.26,0,0,0,2.7,12.52,21.5,21.5,0,0,0,9.25,8.89c.11-3.81,0-8.32.07-12.17Z" style="opacity:0.30000001192092896;isolation:isolate"/></g><path d="M138.29,84.31s-1.69.46-.42,3.93,1.69,3.23,2.54,6.47,1.81,6.16,3.31,8,6.94,5.55,6.94,5.55l4.93-4.62a23.88,23.88,0,0,1-.62-5.82c.19-2.35.69-8.09.62-9.09a16.55,16.55,0,0,0-1.12-3.35V83.77L151.93,76s-1.39-.62-1.89,1.62l-.85-2.39s-1.35-.23-1.69,2.54a28.07,28.07,0,0,0,.27,6.55l-.7,4.78-1,3.23-.92.16s-1.39-.39-2.12-3S140.18,83.73,138.29,84.31Z" style="fill:#ffbe9d"/><path d="M153.89,96.52a.61.61,0,0,0,0-.19c0-.12,0-.31,0-.5,0-.47-.07-1.12-.11-1.93-.08-1.69-.19-4-.31-6.74l0,0a1,1,0,0,0-1-.27,1.47,1.47,0,0,0-.93.65,6.27,6.27,0,0,0-.57,2.47c-.27,2-.54,3.85-.78,5.55a22.16,22.16,0,0,1-.42,2.42,12.34,12.34,0,0,1-.61,2,11.71,11.71,0,0,0-.54,1.66,5.48,5.48,0,0,0-.16,1.31,4.52,4.52,0,0,0,.19,1.12l-.11-.27a3.36,3.36,0,0,1-.15-.85,4.11,4.11,0,0,1,.11-1.31c.12-.5.31-1.08.5-1.69a14,14,0,0,0,.58-2c.15-.73.27-1.54.38-2.38.23-1.7.47-3.59.74-5.55.07-.42.11-.89.19-1.31a3.66,3.66,0,0,1,.42-1.23,1.56,1.56,0,0,1,1-.74,1.25,1.25,0,0,1,1.2.31l0,0v0c.08,2.73.2,5,.24,6.74,0,.81,0,1.46,0,1.93v.5A.36.36,0,0,1,153.89,96.52Z" style="fill:#eb996e"/><path d="M151.23,87.66l-.19-.42c-.11-.31-.27-.73-.42-1.27a11.36,11.36,0,0,1-.35-1.93,5.63,5.63,0,0,1,0-1.16,2.27,2.27,0,0,1,.43-1.19,1.89,1.89,0,0,1,.88-.69l.08,0,0,.08c.69,1.27,1.35,2.35,1.77,3.15.19.39.38.7.5.93a3.45,3.45,0,0,1,.15.35,2.5,2.5,0,0,0-.23-.31,10.26,10.26,0,0,1-.54-.93c-.46-.77-1.11-1.88-1.81-3.12l.12,0a1.54,1.54,0,0,0-.81.62,2.31,2.31,0,0,0-.38,1.11,5.24,5.24,0,0,0,0,1.12,18.43,18.43,0,0,0,.3,1.93c.12.54.27,1,.35,1.27A2.94,2.94,0,0,0,151.23,87.66Z" style="fill:#eb996e"/><path d="M150,88.28a2.1,2.1,0,0,1,0-.46c0-.35,0-.74,0-1.24,0-1-.08-2.46-.08-4a33.74,33.74,0,0,1,.08-4.05,6.1,6.1,0,0,1,.27-1.19c.08-.27.16-.42.2-.42a7.82,7.82,0,0,0-.31,1.61c-.12,1,0,2.47,0,4s0,3,0,4v1.24C150.08,88.12,150,88.28,150,88.28Z" style="fill:#eb996e"/><path d="M145.88,101.22a12.14,12.14,0,0,1,.65-1,7.79,7.79,0,0,0,.58-1.19,6.77,6.77,0,0,0,.43-1.58,8.64,8.64,0,0,0,.15-1.62,6.16,6.16,0,0,0-.12-1.31,7.62,7.62,0,0,0-.27-1.2,2,2,0,0,1,.16.31c.08.2.15.5.27.89a7.41,7.41,0,0,1,.15,1.35,14,14,0,0,1-.11,1.65,8.17,8.17,0,0,1-.47,1.58,8.85,8.85,0,0,1-.61,1.2,4.76,4.76,0,0,1-.54.73C146,101.14,145.88,101.26,145.88,101.22Z" style="fill:#eb996e"/><path d="M154.51,98.83l4.27,1.46s4.09-2.11,6.9,0,5.24,7.67,4.47,9.9c0,0-1.93,2.39-3.43,2.74s-7.21-1-9.59-1.54-6.51-3.16-6.51-3.16Z" style="fill:#ffbe9d"/><path d="M155.05,105.11a1.29,1.29,0,0,1,0-.39c0-.26,0-.61-.08-1,0-.88-.11-2.07-.11-3.39a23.49,23.49,0,0,1,.11-3.42c0-.43.08-.77.12-1l.07-.39s0,.54-.07,1.43-.08,2.08,0,3.39,0,2.46.08,3.39v1A3.2,3.2,0,0,0,155.05,105.11Z" style="fill:#eb996e"/><path d="M169.11,100.14a14.79,14.79,0,0,0-1.43-1.27,7.91,7.91,0,0,0-4.24-1.54,7.57,7.57,0,0,0-4.39,1.08,8.86,8.86,0,0,0-1.54,1.11s.12-.15.35-.38a6.51,6.51,0,0,1,1.12-.85,8.14,8.14,0,0,1,4.46-1.15,7.94,7.94,0,0,1,4.32,1.61c.46.39.81.74,1,1S169.11,100.14,169.11,100.14Z" style="fill:#263238"/><path d="M168.57,96.56a7.42,7.42,0,0,0-1.78-1,7.88,7.88,0,0,0-4.81-.16,10.73,10.73,0,0,0-2.47,1,13,13,0,0,0-1.8,1.27c-.47.43-.85.77-1.08,1a3.64,3.64,0,0,0-.39.39l.35-.42a12,12,0,0,1,1-1.08,10,10,0,0,1,1.81-1.31,11.16,11.16,0,0,1,2.5-1.08,7.59,7.59,0,0,1,4.89.19,6.35,6.35,0,0,1,1.31.73,2.55,2.55,0,0,1,.31.27Z" style="fill:#263238"/><path d="M168.61,93.48s-.77-.2-2-.35a16.61,16.61,0,0,0-2.19-.15,15.86,15.86,0,0,0-2.66.23,15.13,15.13,0,0,0-2.58.69,12.79,12.79,0,0,0-2,.89c-1.11.57-1.73,1-1.77,1s.16-.12.43-.35a3.38,3.38,0,0,1,.54-.35c.23-.11.46-.3.73-.42a15.3,15.3,0,0,1,2-.92,15.78,15.78,0,0,1,2.62-.7,17.89,17.89,0,0,1,2.7-.23,12.31,12.31,0,0,1,2.19.19c.31,0,.58.12.85.16s.46.11.62.15A4.41,4.41,0,0,0,168.61,93.48Z" style="fill:#263238"/><path d="M135.9,55.77a3.81,3.81,0,0,1,.31,1.11,11.31,11.31,0,0,1-.15,3.32c-.12.69-.31,1.46-.54,2.31a20.82,20.82,0,0,1-1.12,2.58c-.92,1.77-2.08,3.7-3.43,5.78l-.15.23V66.55l.15.08-3.58,2.89,0,0a37.83,37.83,0,0,0-1.62,8.63A99.7,99.7,0,0,0,126,91.36c.2,4.08.31,7.74.43,10.82s.23,5.59.31,7.28c0,.85.07,1.5.11,2,0,.23,0,.38,0,.5v.19a.61.61,0,0,0,0-.19c0-.12,0-.31,0-.5,0-.47-.11-1.12-.15-2-.12-1.73-.23-4.2-.39-7.28s-.3-6.74-.5-10.82a93.36,93.36,0,0,1-.15-13.25,38.22,38.22,0,0,1,1.62-8.71v0h0c1.23-1,2.46-2,3.62-2.89l.15-.11v4.47l-.15,0c2.65-4.12,4.81-7.67,5.12-10.56a10,10,0,0,0,.19-3.27,7.76,7.76,0,0,0-.15-.85Z" style="fill:#263238"/><path d="M129,105.46h-.16a1.08,1.08,0,1,0,1.12,1.15A1.14,1.14,0,0,0,129,105.46Z" style="fill:#fff"/><path d="M129,90.63h-.16A1.08,1.08,0,1,0,130,91.78,1.09,1.09,0,0,0,129,90.63Z" style="fill:#fff"/><path d="M128.85,77.34a1.08,1.08,0,0,0,.16-2.16h-.16a1.12,1.12,0,0,0-1,1.08A1.16,1.16,0,0,0,128.85,77.34Z" style="fill:#fff"/><path d="M112.21,38.39a28.06,28.06,0,0,1-3.7-4.77,8.94,8.94,0,0,1-1.23-5.82,34.56,34.56,0,0,0,.77-3.43c.12-1.61-.58-3.31,0-4.81.89-2.39,4.09-2.74,6-4.39,1.51-1.27,2.24-3.35,3.89-4.43a7.45,7.45,0,0,1,5-.7,19.28,19.28,0,0,0,5.12.43,29.11,29.11,0,0,0,3.55-1,4.8,4.8,0,0,1,3.58.24,2.29,2.29,0,0,1,1,3.12c2-.93,4.51.61,5.05,2.73A5.88,5.88,0,0,1,139,21.37a12.91,12.91,0,0,1-6,2.43c-6,1.15-12.64.5-17.88-2.78" style="fill:#263238"/><path d="M133.55,58.77c-.31-2.31-.54-4.2-.54-4.47,0,0,7.67-1.73,7.24-9.47-.19-3.74-1.27-11.44-2.27-18.38a14.5,14.5,0,0,0-15.29-12.32l-.73,0c-8,1-11.67,8.39-10.44,16.4l4.35,26.85s1.85,5.93,5.82,7l5,7.13.81-3.08,3.74-3.24a15.14,15.14,0,0,0,1.85-2.73A6.13,6.13,0,0,0,133.55,58.77Z" style="fill:#ffbe9d"/><path d="M133,54.23A17.93,17.93,0,0,1,122.73,52s2.77,5.43,10.44,4.2Z" style="fill:#eb996e"/><path d="M135.48,33.12a1.11,1.11,0,0,1-1,1.19,1,1,0,0,1-1.2-.92,1.12,1.12,0,0,1,1-1.2A1.09,1.09,0,0,1,135.48,33.12Z" style="fill:#263238"/><path d="M136.56,30.38c-.12.15-1-.42-2.2-.35s-2,.74-2.15.62,0-.35.42-.62a2.94,2.94,0,0,1,1.73-.65,3.21,3.21,0,0,1,1.77.42C136.48,30,136.64,30.3,136.56,30.38Z" style="fill:#263238"/><path d="M124.23,33.93a1.1,1.1,0,0,1-1,1.19A1,1,0,0,1,122,34.2a1.11,1.11,0,0,1,1-1.2A1.07,1.07,0,0,1,124.23,33.93Z" style="fill:#263238"/><path d="M124.85,31.38c-.12.16-1-.42-2.2-.34s-2,.73-2.15.61,0-.34.42-.61a2.85,2.85,0,0,1,1.73-.66,3.15,3.15,0,0,1,1.77.43C124.77,31.08,124.93,31.31,124.85,31.38Z" style="fill:#263238"/><path d="M129.78,39.93a8.52,8.52,0,0,1,1.92-.46c.31,0,.58-.11.62-.34a1.54,1.54,0,0,0-.27-.89c-.35-.73-.69-1.46-1-2.27A43,43,0,0,1,128.58,30a39.21,39.21,0,0,1,2.89,5.7c.35.81.7,1.54,1,2.27a1.77,1.77,0,0,1,.24,1.19.71.71,0,0,1-.47.47,3.82,3.82,0,0,1-.5.11A10.34,10.34,0,0,1,129.78,39.93Z" style="fill:#263238"/><path d="M124.85,26.68c-.08.35-1.31.27-2.7.5s-2.5.74-2.69.43c-.08-.12.07-.46.5-.81a4.42,4.42,0,0,1,2-.85,4.2,4.2,0,0,1,2.12.12C124.62,26.3,124.89,26.53,124.85,26.68Z" style="fill:#263238"/><path d="M135.9,27c-.19.27-1,.08-2,.12s-1.81.31-2,0,0-.43.38-.7a2.71,2.71,0,0,1,1.62-.54,3,3,0,0,1,1.66.43C135.83,26.53,136,26.8,135.9,27Z" style="fill:#263238"/><path d="M112.52,36.31c-.15,0-5.43-1.23-4.89,4.09s6.24,3.58,6.24,3.43S112.52,36.31,112.52,36.31Z" style="fill:#ffbe9d"/><path d="M111.52,42.05s-.08.08-.23.16a1,1,0,0,1-.69.07,2.31,2.31,0,0,1-1.28-1.92,3.17,3.17,0,0,1,.12-1.35,1.11,1.11,0,0,1,.62-.77.47.47,0,0,1,.57.19.55.55,0,0,1,.08.27.28.28,0,0,0,0-.31.61.61,0,0,0-.23-.3A.83.83,0,0,0,110,38a1.29,1.29,0,0,0-.89.92,3.85,3.85,0,0,0-.19,1.51,2.4,2.4,0,0,0,1.58,2.15.94.94,0,0,0,.85-.23C111.52,42.17,111.52,42.05,111.52,42.05Z" style="fill:#eb996e"/><path d="M137.56,19.21c-.35,2.12-4.62,4.05-8.17,3.93-3.27-.08-4.89-1.73-7.24-2.85-1.5-.73-1.5-.73-3.54-.39-1.66.27-2.51,2.2-3.43,3.59,1.77,3.85,1,8.32.31,12.48a2.19,2.19,0,0,1-.54,1.27c-.58.54-1.54.19-2.16-.31a6.55,6.55,0,0,1-1.65-3.35A22.06,22.06,0,0,1,110.6,25a15,15,0,0,1,3.58-7.78,14.13,14.13,0,0,1,9.63-4.39,17,17,0,0,1,10.24,2.92A9.5,9.5,0,0,1,137.56,19.21Z" style="fill:#263238"/><path d="M130.55,42.59c-.89-.42-1.81-.84-2.7-1.27a.69.69,0,0,0-1,.19,2.6,2.6,0,0,0-.31,2.78,2.12,2.12,0,0,0,2.54.92,2.85,2.85,0,0,0,1.51-2.54Z" style="fill:#eb996e"/><path d="M129.2,45.4s-.11.12-.38.16a2.41,2.41,0,0,1-1.16-.08,2.62,2.62,0,0,1-1.35-1.12,2.35,2.35,0,0,1-.15-2.11,2.51,2.51,0,0,1,.61-.93c.16-.11.27-.23.43-.35l.31-.11a.66.66,0,0,1,.3.08,1.69,1.69,0,0,1,.43.23c.11.07.23.15.38.23s.47.27.66.42a7.29,7.29,0,0,1,1.27.89,4.89,4.89,0,0,1-1.39-.66c-.23-.11-.42-.23-.69-.38a1,1,0,0,0-.39-.19,1.74,1.74,0,0,0-.38-.2.3.3,0,0,0-.31,0,3.69,3.69,0,0,0-.35.27,2.35,2.35,0,0,0-.54.81,2.26,2.26,0,0,0,.12,1.81,2.38,2.38,0,0,0,1.12,1,3.07,3.07,0,0,0,1,.19A3.2,3.2,0,0,1,129.2,45.4Z" style="fill:#263238"/><path d="M128.35,33.27a12,12,0,0,0-.19-1.35,5.7,5.7,0,0,0-2-3,5.3,5.3,0,0,0-2.31-1,5.51,5.51,0,0,0-2.85.23,4.63,4.63,0,0,0-1.39.73,5.38,5.38,0,0,0-2.2,4.39,5.42,5.42,0,0,0,1,3.2,4.69,4.69,0,0,0,1.16,1.15,4.89,4.89,0,0,0,1.39.74,5.73,5.73,0,0,0,2.85.23,5.64,5.64,0,0,0,2.31-1,5.49,5.49,0,0,0,2-3,12.23,12.23,0,0,0,.19-1.31v.35a2.18,2.18,0,0,1,0,.42,4.64,4.64,0,0,1-.12.58,4.31,4.31,0,0,1-.62,1.5,5.17,5.17,0,0,1-1.38,1.58,6.07,6.07,0,0,1-2.35,1.08,5.75,5.75,0,0,1-3-.23,4.94,4.94,0,0,1-1.42-.77,4.89,4.89,0,0,1-1.2-1.2,5.58,5.58,0,0,1-1.08-3.31A5.51,5.51,0,0,1,118.26,30a5.06,5.06,0,0,1,1.2-1.2,5.43,5.43,0,0,1,1.42-.77,5.75,5.75,0,0,1,3-.23,5.21,5.21,0,0,1,2.35,1.08,6.63,6.63,0,0,1,1.42,1.58,6.05,6.05,0,0,1,.62,1.5,3.36,3.36,0,0,1,.11.58,1.64,1.64,0,0,1,0,.42v.27A.12.12,0,0,0,128.35,33.27Z" style="fill:#263238"/><path d="M141.57,32.73s0-.46-.2-1.31a5.4,5.4,0,0,0-4.2-3.93,5.21,5.21,0,0,0-4.12,1,4.87,4.87,0,0,0-1.11,1.11,5.33,5.33,0,0,0-1,3.12,5.09,5.09,0,0,0,1,3.12,4.92,4.92,0,0,0,1.11,1.12,6.57,6.57,0,0,0,1.35.73,5.22,5.22,0,0,0,2.77.23,5.4,5.4,0,0,0,4.2-3.93,10.15,10.15,0,0,0,.2-1.23v.35a1.64,1.64,0,0,1,0,.42,4.64,4.64,0,0,1-.12.58,5.47,5.47,0,0,1-2,3,5.37,5.37,0,0,1-5.16.81,4.63,4.63,0,0,1-1.39-.73A4.87,4.87,0,0,1,131.74,36a5.6,5.6,0,0,1-1.08-3.24,5.33,5.33,0,0,1,1.08-3.24,5.73,5.73,0,0,1,1.16-1.15,4.63,4.63,0,0,1,1.39-.73,5.6,5.6,0,0,1,2.88-.23,5.06,5.06,0,0,1,2.28,1,5.47,5.47,0,0,1,2,3,3,3,0,0,1,.12.58,1.64,1.64,0,0,1,0,.42Z" style="fill:#263238"/><path d="M130.78,31.54s-.15-.08-.38-.2a2.35,2.35,0,0,0-1-.23,2.3,2.3,0,0,0-1,.23c-.23.12-.35.24-.39.2a1.24,1.24,0,0,1,.31-.35,1.9,1.9,0,0,1,2.08,0C130.7,31.34,130.82,31.5,130.78,31.54Z" style="fill:#263238"/><path d="M117.64,32.46a18.76,18.76,0,0,1-2.42,1.93,27.08,27.08,0,0,1-2.54,1.77,20.83,20.83,0,0,1,2.42-1.93C116.49,33.23,117.61,32.42,117.64,32.46Z" style="fill:#263238"/><g style="opacity:0.30000001192092896"><path d="M113.1,57.54a15.47,15.47,0,0,0,5.66,13.9c.35.24.73.5,1.12.35a1.3,1.3,0,0,0,.58-.62,10.19,10.19,0,0,0,1.23-6.7c-.66,1.74-1.23,3.47-1.89,5.28C116.14,67.55,113.87,62.85,113.1,57.54Z" style="opacity:0.30000001192092896;isolation:isolate"/></g><path d="M127.27,69.44l3.09-1.12.5,5.2s3.31-6,4.7-8.82.65-7.62.65-7.62.5,4.23-2.85,9.66l-2.5,4.09V66.55Z" style="opacity:0.30000001192092896;isolation:isolate"/><g style="opacity:0.30000001192092896"><path d="M91.49,95.87A9.47,9.47,0,0,0,82.59,97a5,5,0,0,0-1.92,4.2l.15,0c1.08-2.89,3.2-5,6-5.28a9,9,0,0,1,7.32,3A3.93,3.93,0,0,0,91.49,95.87Z" style="opacity:0.30000001192092896;isolation:isolate"/></g><g style="opacity:0.30000001192092896"><path d="M169.3,98.83a7.05,7.05,0,0,0-4-2A8.8,8.8,0,0,0,157.94,99l.57-.47a9.38,9.38,0,0,1,4.93-1.34,7,7,0,0,1,4.7,1.88,12.46,12.46,0,0,1,2.51,4A5,5,0,0,0,169.3,98.83Z" style="opacity:0.30000001192092896;isolation:isolate"/></g><path d="M149.46,74.68a3.19,3.19,0,0,1,.16-.42c.11-.31.26-.7.42-1.12.39-1,.89-2.24,1.42-3.7s1-2.77,1.35-3.74c.16-.46.31-.8.39-1.11a3.57,3.57,0,0,0,.15-.43s0,.16-.08.43-.19.65-.34,1.15c-.31,1-.73,2.31-1.27,3.78s-1.08,2.73-1.47,3.7c-.19.46-.38.84-.5,1.07S149.46,74.68,149.46,74.68Z" style="fill:#263238"/><path d="M100.89,75.07s-.46-1.82-.93-4.09a38.34,38.34,0,0,1-.73-4.12s.46,1.81.93,4.08A34.38,34.38,0,0,1,100.89,75.07Z" style="fill:#263238"/><path d="M100.19,98c.12.08-1.42-12-1.42-12s1-9.17,1.5-9.6V73.14s1.51-.93,1.89.54c0,0,1.31-1.16,1.54,1.58s.27,5.54.27,5.54l3,7.4.5.23a56.91,56.91,0,0,1,1-6.62c.38-.85.62-2.93,2-2.62s1.5,1.46,1.27,3.35a26,26,0,0,0-.46,5,36.3,36.3,0,0,1,.5,6,11.92,11.92,0,0,1-2.58,6c-1.23,1.58-3.58,4.86-4.85,5.82C104,105.84,100.19,98,100.19,98Z" style="fill:#ffbe9d"/><path d="M101.66,88.16v-.5c0-.38.08-.85.11-1.39.08-1.19.24-2.81.39-4.62.08-.88.15-1.77.23-2.54a3.25,3.25,0,0,0,0-1.08,1.59,1.59,0,0,0-.38-.85,1.68,1.68,0,0,0-1.2-.54,1.4,1.4,0,0,0-.5.08.5.5,0,0,1,.12-.08.94.94,0,0,1,.38-.07,1.64,1.64,0,0,1,1.31.5,1.43,1.43,0,0,1,.42.88,3.51,3.51,0,0,1,0,1.12l-.23,2.54c-.15,1.81-.3,3.43-.46,4.63-.08.57-.11,1-.15,1.38S101.7,88.16,101.66,88.16Z" style="fill:#eb996e"/><path d="M103.28,83.23a5.07,5.07,0,0,0-.54,1,19.86,19.86,0,0,0-.5,2.62c-.16,1-.31,2-.43,2.62a4.73,4.73,0,0,1-.23,1.08,3.9,3.9,0,0,1,.12-1.12c.07-.69.23-1.61.38-2.65a12.7,12.7,0,0,1,.54-2.62,2.23,2.23,0,0,1,.43-.7C103.16,83.27,103.24,83.19,103.28,83.23Z" style="fill:#eb996e"/><path d="M102.16,73.56s0,.12.12.39.11.61.19,1c.15.88.31,2.12.42,3.5S103,81.11,103,82c0,.46,0,.81,0,1.08a1.25,1.25,0,0,1,0,.38,11,11,0,0,1-.08-1.46c0-.89-.07-2.16-.15-3.51s-.23-2.62-.35-3.5S102.16,73.56,102.16,73.56Z" style="fill:#eb996e"/><path d="M110.71,84.85a1,1,0,0,1-1,.08c-.58-.16-.85-.62-.77-.62a7.59,7.59,0,0,0,.85.42A2.43,2.43,0,0,0,110.71,84.85Z" style="fill:#eb996e"/><path d="M100.35,96.48l-7.82,3.28H87.87s-4.58,1.42-5.32,5.74-.81,6.54,1.24,7a26.07,26.07,0,0,0,10.55-.34c2.85-.93,10.25-6.94,10.25-6.94l.73-4.31Z" style="fill:#ffbe9d"/><path d="M102.16,101.22a2.17,2.17,0,0,0-.23-.19,3.84,3.84,0,0,1-.5-.66,8.61,8.61,0,0,1-1.08-2.46,11.32,11.32,0,0,1-.46-2.66,6,6,0,0,1,0-1.12,5.46,5.46,0,0,1,.15,1.12,19.16,19.16,0,0,0,.54,2.62,11,11,0,0,0,1,2.46C101.93,100.91,102.2,101.22,102.16,101.22Z" style="fill:#eb996e"/><path d="M105.59,102.61a8.28,8.28,0,0,0,.46-1.66A4.92,4.92,0,0,0,106,99.1a5.13,5.13,0,0,0-1-2c-.46-.66-1-1.23-1.46-1.81a7.6,7.6,0,0,1-1-1.58,4.42,4.42,0,0,1-.39-1.23c0-.31,0-.46,0-.46a5.78,5.78,0,0,0,.54,1.65,8.26,8.26,0,0,0,1.08,1.54A19.13,19.13,0,0,1,105.2,97a5.36,5.36,0,0,1,1,2.12,4.68,4.68,0,0,1,0,1.93,4.83,4.83,0,0,1-.34,1.23l-.16.31C105.59,102.57,105.59,102.61,105.59,102.61Z" style="fill:#eb996e"/></g></g></svg>