<svg id="Layer_1" data-name="Layer 1" xmlns="http://www.w3.org/2000/svg" xmlns:xlink="http://www.w3.org/1999/xlink" viewBox="0 0 625 126"><defs><clipPath id="clip-path"><rect width="625" height="126" style="fill:none"/></clipPath></defs><g style="clip-path:url(#clip-path)"><rect width="625" height="126" style="fill:#fff"/><path d="M625,0H0V126H625Z" style="fill:#32e6f9"/><path d="M-11.93,99.79a5.22,5.22,0,0,1,.75-2.69,5.28,5.28,0,0,1,2-1.92,4.76,4.76,0,0,1,2.66-.38A4.65,4.65,0,0,1-4.07,96,7,7,0,0,1,.58,90.34a6.48,6.48,0,0,1,6.75,2.15A3.61,3.61,0,0,1,9,91.36a3.67,3.67,0,0,1,2.05,0,4.1,4.1,0,0,1,2.64,3.16,6.52,6.52,0,0,1,7.78-.81,7.82,7.82,0,0,1,3.43,7.66C12.26,100.43-.46,100.41-11.93,99.79Z" style="fill:#38be83"/><path d="M35.37,82.61c.1-.51.56-.53.71-.06l1.07,3-.48.24c-.1,0-.05.16.06.15l.54-.06,2.61,7.28-1.07.53c-.13.08-.1.19.06.16l1.22-.11,1.69,4.74-9.18.81,1.45-8.71h.7c.13,0,.13-.13,0-.17l-.66-.29Z" style="fill:#0e8e5d"/><path d="M22.93,75.65c.19-.83,1-.86,1.31-.11l1.84,4.79-.86.37c-.18.08-.11.27.1.25l1-.09,4.48,11.75-2,.88c-.21.12-.16.31.12.26l2.13-.22L34,101.2l-16.18,1.43,2.68-14.14,1.21-.09c.24,0,.24-.19.08-.27l-1.14-.46Z" style="fill:#23b781"/><path d="M548.84,109.21a9.7,9.7,0,0,1,5-8.56,8.58,8.58,0,0,1,9.36,1.27,12.87,12.87,0,0,1,8.36-10.46A11.89,11.89,0,0,1,584,95.2a6.63,6.63,0,0,1,3.11-2.12,6.51,6.51,0,0,1,3.76-.08,7.46,7.46,0,0,1,4.94,5.72A12,12,0,0,1,610.09,97a14.42,14.42,0,0,1,6.53,14C593.3,109.64,569.94,110,548.84,109.21Z" style="fill:#179668"/><path d="M625,126H0V97.67c83.07-1.34,166.29-.67,249.14,2C377.52,104,625,104.32,625,104.32Z" style="fill:#23b781"/><path d="M280.33,109.64l9.15.34.07,0,.06,0,3.86-4.29a.19.19,0,0,0,0-.09.34.34,0,0,0,0-.1.16.16,0,0,0-.06-.08.17.17,0,0,0-.1,0l-9.22-.33a.24.24,0,0,0-.12,0l-3.86,4.29a.18.18,0,0,0,0,.1.2.2,0,0,0,0,.11.16.16,0,0,0,.09.07.14.14,0,0,0,.11,0Z" style="fill:#179668;opacity:0.5;isolation:isolate"/><path d="M287.15,108.77h-.29l.21-.21Z" style="fill:#335860"/><path d="M287.13,104v4.66a.15.15,0,0,1,0,.09l-.05.07a.2.2,0,0,1-.08,0h-.09l-3.22-.34-.09,0s-.05,0-.06-.06a.12.12,0,0,1,0-.08.28.28,0,0,1,0-.09l.92-4.59a.18.18,0,0,1,.09-.13.2.2,0,0,1,.15,0l2.36.25a.31.31,0,0,1,.11.09A.24.24,0,0,1,287.13,104Z" style="fill:#517d84"/><path d="M287.15,108.77l1.48-1.24a.2.2,0,0,0,.05-.15.19.19,0,0,0-.05-.14l-.35-.41-1.23,1v.92Z" style="fill:#335860"/><path d="M288.31,106.83l-1.21-.12,0,1.11Z" style="fill:#27454c"/><path d="M287.08,105.55l-3.06-.29-.19.92,3.27.37Z" style="fill:#335860"/><path d="M279.49,104.72l.12.09,4.15-4.42a.15.15,0,0,1,.13,0l10.11.13h.11v.53a.2.2,0,0,1,0,.11l-4.24,4.72a.1.1,0,0,1-.07,0,.08.08,0,0,1-.07,0l-10.09-.37a.16.16,0,0,1-.13-.06.19.19,0,0,1-.05-.13h0Z" style="fill:#38606b"/><path d="M279.67,105l10.09.39h.13l4.24-4.73a.2.2,0,0,0,.06-.09.14.14,0,0,0,0-.11.15.15,0,0,0-.06-.09.15.15,0,0,0-.11,0l-10.09-.39a.13.13,0,0,0-.12,0l-4.24,4.72a.21.21,0,0,0-.06.1.2.2,0,0,0,0,.11.2.2,0,0,0,.07.09.18.18,0,0,0,.1,0Z" style="fill:#f2fafc"/><path d="M287.05,102.37l4.58.16a.2.2,0,0,0,.11,0l.1-.07,1.4-1.62s0,0,0-.07a.06.06,0,0,0,0-.07.1.1,0,0,0,0-.06.11.11,0,0,0-.08,0l-5-.2a.27.27,0,0,0-.12,0,.2.2,0,0,0-.09.07l-1.11,1.42a.25.25,0,0,0-.06.14.26.26,0,0,0,0,.15.23.23,0,0,0,.09.11A.24.24,0,0,0,287.05,102.37Z" style="fill:#66d7f2"/><path d="M285.12,104.22a.27.27,0,0,0-.07.14.39.39,0,0,0,0,.15.29.29,0,0,0,.1.12.34.34,0,0,0,.14.05l4.38.17a.24.24,0,0,0,.12,0l1.24-1.43a.26.26,0,0,0,.08-.13.29.29,0,0,0,0-.16.29.29,0,0,0-.1-.12.26.26,0,0,0-.15,0l-4.46-.18-.12,0a.24.24,0,0,0-.09.08Z" style="fill:#66d7f2"/><path d="M282.73,102.23l3,.09a.39.39,0,0,0,.23-.09l1.22-1.44a.18.18,0,0,0,.06-.14.23.23,0,0,0,0-.14.29.29,0,0,0-.1-.12.24.24,0,0,0-.14,0l-3-.1h-.11l-1.39,1.6a.5.5,0,0,0,0,.12.56.56,0,0,0,0,.12.39.39,0,0,0,.08.1l.11,0Z" style="fill:#66d7f2"/><path d="M280.51,104.47l3.45.13a.27.27,0,0,0,.12,0,.23.23,0,0,0,.1-.07l1.2-1.37a.35.35,0,0,0,.06-.14.26.26,0,0,0,0-.15.26.26,0,0,0-.1-.11.24.24,0,0,0-.14,0l-3.08-.12a.27.27,0,0,0-.12,0,.23.23,0,0,0-.1.07l-1.47,1.61a.13.13,0,0,0,0,.06.14.14,0,0,0,0,.06l0,0,.06,0Z" style="fill:#66d7f2"/><path d="M290.4,100.49l.73,2-2.34-.08-.61-2Z" style="fill:#9ae9f7;opacity:0.800000011920929;isolation:isolate"/><path d="M288.84,102.82l.73,2-2.34-.08-.61-2Z" style="fill:#9ae9f7;opacity:0.800000011920929;isolation:isolate"/><path d="M283.51,102.61l.4,2-1.32,0-.34-2Z" style="fill:#9ae9f7;opacity:0.800000011920929;isolation:isolate"/><path d="M285.31,100.31l.4,2-1.32-.05-.35-2Z" style="fill:#9ae9f7;opacity:0.800000011920929;isolation:isolate"/><path d="M267.71,109.64l9.17.34H277l3.86-4.29a.22.22,0,0,0,0-.08.16.16,0,0,0,0-.1.09.09,0,0,0-.05-.08.12.12,0,0,0-.09,0l-9.17-.36a.15.15,0,0,0-.13,0l-3.85,4.29a.16.16,0,0,0-.07.09.21.21,0,0,0,0,.11.22.22,0,0,0,.07.09A.2.2,0,0,0,267.71,109.64Z" style="fill:#179668;opacity:0.5;isolation:isolate"/><path d="M274.55,108.77a.42.42,0,0,1-.31,0l.21-.21Z" style="fill:#335860"/><path d="M274.46,104v4.66a.28.28,0,0,1,0,.09s0,0-.06.07a.2.2,0,0,1-.08,0h-.09l-3.22-.34a.23.23,0,0,1-.14-.09.25.25,0,0,1,0-.17l.91-4.59a.2.2,0,0,1,.08-.13.22.22,0,0,1,.16,0l2.35.25a.31.31,0,0,1,.11.09.24.24,0,0,1,0,.14Z" style="fill:#517d84"/><path d="M274.55,108.77l1.46-1.24a.2.2,0,0,0,.06-.15.2.2,0,0,0-.06-.14l-.35-.41-1.23,1v.92S274.46,108.8,274.55,108.77Z" style="fill:#335860"/><path d="M275.69,106.83l-1.21-.12,0,1.11Z" style="fill:#27454c"/><path d="M274.46,105.55l-3.06-.29-.17.92,3.25.37Z" style="fill:#335860"/><path d="M266.87,104.72l.12.09,4.15-4.42h.15l10.09.13h.21v.64l-4.24,4.72a.07.07,0,0,1-.06,0,.08.08,0,0,1-.07,0l-10.09-.37a.21.21,0,0,1-.19-.19h0Z" style="fill:#38606b"/><path d="M267.05,105l10.09.39h.15l4.22-4.73a.15.15,0,0,0,.06-.09.14.14,0,0,0,0-.11.15.15,0,0,0-.06-.09.15.15,0,0,0-.11,0l-10.09-.39a.13.13,0,0,0-.12,0l-4.24,4.72a.21.21,0,0,0-.06.1.2.2,0,0,0,0,.11.2.2,0,0,0,.07.09.18.18,0,0,0,.1,0Z" style="fill:#f2fafc"/><path d="M274.46,102.37l4.58.16a.25.25,0,0,0,.12,0,.31.31,0,0,0,.09-.07l1.42-1.62a.14.14,0,0,0,0-.06.11.11,0,0,0,0-.08.1.1,0,0,0,0-.05.09.09,0,0,0-.07,0l-5-.2a.2.2,0,0,0-.11,0,.23.23,0,0,0-.1.07l-1.11,1.42a.34.34,0,0,0,0,.14.34.34,0,0,0,0,.14.31.31,0,0,0,.09.11.38.38,0,0,0,.13.06Z" style="fill:#66d7f2"/><path d="M272.5,104.22a.24.24,0,0,0-.05.14.22.22,0,0,0,0,.14.27.27,0,0,0,.09.12.31.31,0,0,0,.13.06l4.39.17h.11l1.26-1.43a.35.35,0,0,0,.06-.14.26.26,0,0,0,0-.15.26.26,0,0,0-.1-.11.24.24,0,0,0-.14,0l-4.45-.18a.25.25,0,0,0-.22.1Z" style="fill:#66d7f2"/><path d="M270.13,102.23l3,.09a.36.36,0,0,0,.23-.09l1.22-1.44a.23.23,0,0,0,.07-.14.32.32,0,0,0,0-.14.29.29,0,0,0-.1-.12.24.24,0,0,0-.14,0l-3-.11,0,0-.06,0-1.37,1.48a.25.25,0,0,0-.1.15.31.31,0,0,0,0,.19.41.41,0,0,0,.12.14A.37.37,0,0,0,270.13,102.23Z" style="fill:#66d7f2"/><path d="M267.9,104.47l3.45.13a.37.37,0,0,0,.23-.1l1.18-1.37a.35.35,0,0,0,.06-.14.26.26,0,0,0,0-.15.26.26,0,0,0-.1-.11.24.24,0,0,0-.14,0l-3.08-.12a.37.37,0,0,0-.22.1l-1.47,1.61s0,0,0,.07,0,0,0,.06a.1.1,0,0,0,.05,0S267.88,104.46,267.9,104.47Z" style="fill:#66d7f2"/><path d="M277.8,100.49l.71,2-2.34-.08-.61-2Z" style="fill:#9ae9f7;opacity:0.800000011920929;isolation:isolate"/><path d="M276.22,102.82l.73,2-2.34-.08-.61-2Z" style="fill:#9ae9f7;opacity:0.800000011920929;isolation:isolate"/><path d="M270.89,102.61l.4,2-1.32,0-.34-2Z" style="fill:#9ae9f7;opacity:0.800000011920929;isolation:isolate"/><path d="M272.69,100.31l.4,2-1.32-.05-.34-2Z" style="fill:#9ae9f7;opacity:0.800000011920929;isolation:isolate"/><path d="M258.9,117.44l9.17.35a.11.11,0,0,0,.11,0l3.85-4.28a.19.19,0,0,0,.05-.09.17.17,0,0,0,0-.1.16.16,0,0,0-.06-.08.19.19,0,0,0-.09,0l-9.17-.34h-.12l-3.86,4.29a.19.19,0,0,0,0,.09.28.28,0,0,0,0,.09.2.2,0,0,0,.06.07A.13.13,0,0,0,258.9,117.44Z" style="fill:#179668;opacity:0.5;isolation:isolate"/><path d="M265.73,116.59h-.31l.21-.2Z" style="fill:#335860"/><path d="M265.7,111.77v4.66a.19.19,0,0,1,0,.08.16.16,0,0,1-.06.08l-.07,0a.17.17,0,0,1-.1,0l-3.22-.35a.11.11,0,0,1-.08,0,.12.12,0,0,1-.06-.06.2.2,0,0,1,0-.08V116l.91-4.58a.19.19,0,0,1,0-.07.17.17,0,0,1,.06-.06.2.2,0,0,1,.08,0h.08l2.35.27a.2.2,0,0,1,.11.09.23.23,0,0,1,0,.14Z" style="fill:#517d84"/><path d="M265.73,116.59l1.47-1.24a.27.27,0,0,0,.05-.15.22.22,0,0,0-.05-.14l-.36-.42-1.22,1v.9Z" style="fill:#335860"/><path d="M266.87,114.64l-1.2-.12,0,1.12Z" style="fill:#27454c"/><path d="M265.65,113.36l-3.06-.29-.18.92,3.26.36Z" style="fill:#335860"/><path d="M258.06,112.54h.11l4.16-4.42a.33.33,0,0,1,.14,0l10.09.15h.21v.52a.2.2,0,0,1,0,.11l-4.24,4.72a.17.17,0,0,1-.14,0l-10.07-.39a.19.19,0,0,1-.2-.19Z" style="fill:#38606b"/><path d="M258.23,112.75l10.09.39a.38.38,0,0,0,.15,0l4.22-4.71a.2.2,0,0,0,.08-.1.24.24,0,0,0,0-.12.23.23,0,0,0-.07-.1.18.18,0,0,0-.12,0l-10.09-.37a.08.08,0,0,0-.07,0,.07.07,0,0,0-.06,0l-4.24,4.72a.15.15,0,0,0,0,.09.17.17,0,0,0,0,.1.19.19,0,0,0,.15.13Z" style="fill:#f2fafc"/><path d="M265.62,110.19l4.57.14a.3.3,0,0,0,.21-.08l1.4-1.61a.08.08,0,0,0,.05,0,.13.13,0,0,0,0-.14.08.08,0,0,0-.05,0l-5-.19a.21.21,0,0,0-.12,0,.24.24,0,0,0-.09.08l-1.12,1.42a.22.22,0,0,0-.05.12.19.19,0,0,0,0,.13.34.34,0,0,0,.06.12l.11.08Z" style="fill:#66d7f2"/><path d="M263.68,112a.29.29,0,0,0-.05.13.59.59,0,0,0,0,.14.27.27,0,0,0,.09.12.35.35,0,0,0,.14.06l4.38.17h.11l1.26-1.43a.35.35,0,0,0,.06-.14.26.26,0,0,0,0-.15.27.27,0,0,0-.09-.12.35.35,0,0,0-.14-.06l-4.45-.18a.28.28,0,0,0-.13,0,.28.28,0,0,0-.1.09Z" style="fill:#66d7f2"/><path d="M261.31,110l3,.09a.25.25,0,0,0,.12,0l.1-.07,1.23-1.42a.35.35,0,0,0,.06-.14.26.26,0,0,0,0-.15.31.31,0,0,0-.09-.11.27.27,0,0,0-.15,0l-3-.12a.24.24,0,0,0-.12,0l-1.37,1.49a.25.25,0,0,0-.11.15.31.31,0,0,0,0,.19.35.35,0,0,0,.13.14A.31.31,0,0,0,261.31,110Z" style="fill:#66d7f2"/><path d="M259.09,112.27l3.45.14a.31.31,0,0,0,.22-.09l1.18-1.39a.35.35,0,0,0,.06-.14.26.26,0,0,0,0-.15.31.31,0,0,0-.09-.11.24.24,0,0,0-.14,0l-3.08-.1a.22.22,0,0,0-.11,0,.25.25,0,0,0-.12,0L259,112a.15.15,0,0,0-.08.08.13.13,0,0,0,0,.12.15.15,0,0,0,.08.08A.2.2,0,0,0,259.09,112.27Z" style="fill:#66d7f2"/><path d="M269,108.3l.71,2-2.33-.08-.62-2Z" style="fill:#9ae9f7;opacity:0.800000011920929;isolation:isolate"/><path d="M267.42,110.64l.71,2-2.34-.08-.61-2Z" style="fill:#9ae9f7;opacity:0.800000011920929;isolation:isolate"/><path d="M262.07,110.41l.4,2-1.32,0-.34-2Z" style="fill:#9ae9f7;opacity:0.800000011920929;isolation:isolate"/><path d="M263.88,108.11l.4,2-1.32,0-.34-2Z" style="fill:#9ae9f7;opacity:0.800000011920929;isolation:isolate"/><path d="M271.52,117.44l9.15.35a.15.15,0,0,0,.13,0l3.85-4.28a.41.41,0,0,0,.05-.09.17.17,0,0,0,0-.1.27.27,0,0,0-.07-.08.11.11,0,0,0-.09,0l-9.16-.34h-.13l-3.85,4.29a.19.19,0,0,0,0,.09.28.28,0,0,0,0,.09.13.13,0,0,0,.06.07.13.13,0,0,0,.09,0Z" style="fill:#179668;opacity:0.5;isolation:isolate"/><path d="M278.33,116.59H278l.21-.2Z" style="fill:#335860"/><path d="M278.32,111.77v4.66a.19.19,0,0,1,0,.08.16.16,0,0,1-.06.08.2.2,0,0,1-.08,0,.14.14,0,0,1-.09,0l-3.22-.35a.11.11,0,0,1-.08,0s0,0-.07-.06a.2.2,0,0,1,0-.08.14.14,0,0,1,0-.09l.92-4.58a.19.19,0,0,1,0-.07.17.17,0,0,1,.06-.06l.07,0h.09l2.35.27a.2.2,0,0,1,.11.09.23.23,0,0,1,0,.14Z" style="fill:#517d84"/><path d="M278.33,116.59l1.49-1.24a.3.3,0,0,0,.05-.15.24.24,0,0,0-.05-.14l-.36-.42-1.22,1v.9S278.3,116.62,278.33,116.59Z" style="fill:#335860"/><path d="M279.49,114.64l-1.21-.12v1.12Z" style="fill:#27454c"/><path d="M278.27,113.36l-3.06-.29-.2.92,3.27.36Z" style="fill:#335860"/><path d="M270.68,112.54h.11l4.16-4.42a.29.29,0,0,1,.13,0l10.1.15h.12v.52a.43.43,0,0,1,0,0s0,0,0,.06l-4.23,4.72a.17.17,0,0,1-.14,0l-10.09-.39h-.07l-.06,0a.16.16,0,0,1,0-.07.15.15,0,0,1,0-.07h0Z" style="fill:#38606b"/><path d="M270.85,112.75l10.06.37a.15.15,0,0,0,.13,0l4.24-4.7a.16.16,0,0,0,.05-.1.24.24,0,0,0,0-.12.18.18,0,0,0-.06-.09.24.24,0,0,0-.1,0l-10.09-.37-.07,0-.06,0-4.24,4.72a.21.21,0,0,0-.06.1.16.16,0,0,0,0,.12.21.21,0,0,0,.19.12Z" style="fill:#f2fafc"/><path d="M278.24,110.19l4.57.14a.32.32,0,0,0,.21-.08l1.4-1.61a.16.16,0,0,0,0-.07.19.19,0,0,0,0-.08.1.1,0,0,0-.05-.06.09.09,0,0,0-.07,0l-5-.11a.27.27,0,0,0-.12,0,.18.18,0,0,0-.09.08L278,109.82a.27.27,0,0,0,0,.13.31.31,0,0,0,.05.12.28.28,0,0,0,.1.09A.28.28,0,0,0,278.24,110.19Z" style="fill:#66d7f2"/><path d="M276.3,112a.26.26,0,0,0,0,.28.27.27,0,0,0,.09.12.34.34,0,0,0,.14,0l4.39.17h.1l1.25-1.43a.29.29,0,0,0,.08-.14.38.38,0,0,0,0-.15.41.41,0,0,0-.1-.13.25.25,0,0,0-.15,0l-4.46-.18-.12,0a.23.23,0,0,0-.09.08Z" style="fill:#66d7f2"/><path d="M273.92,110l3,.09a.31.31,0,0,0,.22-.09l1.23-1.42a.35.35,0,0,0,.06-.14.26.26,0,0,0,0-.15.31.31,0,0,0-.09-.11.3.3,0,0,0-.15,0l-3-.12a.24.24,0,0,0-.12,0l-1.37,1.49a.26.26,0,0,0-.11.14.31.31,0,0,0,0,.19.25.25,0,0,0,.12.13.27.27,0,0,0,.18,0Z" style="fill:#66d7f2"/><path d="M271.69,112.27l3.45.14a.3.3,0,0,0,.13,0l.1-.07,1.19-1.39a.35.35,0,0,0,.06-.14.26.26,0,0,0,0-.15.31.31,0,0,0-.09-.11.24.24,0,0,0-.14,0l-3.1-.1a.19.19,0,0,0-.1,0,.2.2,0,0,0-.11,0L271.6,112a.18.18,0,0,0-.09.08.14.14,0,0,0,0,.11.18.18,0,0,0,.07.08.14.14,0,0,0,.11,0Z" style="fill:#66d7f2"/><path d="M281.59,108.3l.72,2-2.33-.08-.62-2Z" style="fill:#9ae9f7;opacity:0.800000011920929;isolation:isolate"/><path d="M280,110.64l.73,2-2.34-.08-.61-2Z" style="fill:#9ae9f7;opacity:0.800000011920929;isolation:isolate"/><path d="M274.69,110.41l.4,2-1.32,0-.34-2Z" style="fill:#9ae9f7;opacity:0.800000011920929;isolation:isolate"/><path d="M276.48,108.11l.4,2-1.3,0-.36-2Z" style="fill:#9ae9f7;opacity:0.800000011920929;isolation:isolate"/><path d="M292.53,109.9l9.17.35h.11l3.86-4.29a.22.22,0,0,0,.05-.08.12.12,0,0,0,0-.1.14.14,0,0,0,0-.08.18.18,0,0,0-.09,0l-9.17-.34-.07,0-.06,0-3.84,4.29a.22.22,0,0,0-.05.08.17.17,0,0,0,0,.1.16.16,0,0,0,.06.08A.14.14,0,0,0,292.53,109.9Z" style="fill:#179668;opacity:0.5;isolation:isolate"/><path d="M299.36,109s0,.08-.3,0l.21-.19Z" style="fill:#335860"/><path d="M299.33,104.14v4.66a.15.15,0,0,1,0,.09.18.18,0,0,1-.05.07.12.12,0,0,1-.08,0,.14.14,0,0,1-.09,0l-3.22-.35a.32.32,0,0,1-.09,0,.13.13,0,0,1-.07-.06.2.2,0,0,1,0-.08v-.09l.91-4.58a.22.22,0,0,1,.08-.13.24.24,0,0,1,.16,0l2.35.28a.2.2,0,0,1,.12.08.23.23,0,0,1,0,.14Z" style="fill:#517d84"/><path d="M299.36,109l1.47-1.24a.2.2,0,0,0,.06-.14.2.2,0,0,0-.06-.15l-.35-.42-1.23,1v.9S299.33,109,299.36,109Z" style="fill:#335860"/><path d="M300.51,107l-1.21-.11,0,1.11Z" style="fill:#27454c"/><path d="M299.28,105.74l-3.06-.29-.18.92,3.26.35Z" style="fill:#335860"/><path d="M291.69,104.92h.13L296,100.5a.38.38,0,0,1,.15,0l10.1.15h.13v.53a.21.21,0,0,1,0,.11L302.1,106a.13.13,0,0,1-.12,0l-10.09-.38a.26.26,0,0,1-.13-.06.19.19,0,0,1-.07-.12h0Z" style="fill:#38606b"/><path d="M291.87,105.06l10.09.39h.14l4.24-4.71a.17.17,0,0,0,.06-.1.2.2,0,0,0,0-.11.18.18,0,0,0-.08-.09.21.21,0,0,0-.11,0L296.12,100a.13.13,0,0,0-.12,0l-4.24,4.7a.21.21,0,0,0-.06.1.21.21,0,0,0,0,.11.16.16,0,0,0,.07.09.13.13,0,0,0,.1,0Z" style="fill:#f2fafc"/><path d="M299.27,102.57l4.58.14.09,0,.1,0,1.42-1.61a.11.11,0,0,0,0-.07.11.11,0,0,0,0-.08.12.12,0,0,0-.05-.07l-.07,0-5-.18a.25.25,0,0,0-.12,0,.23.23,0,0,0-.09.08l-1.11,1.41a.25.25,0,0,0,0,.12.27.27,0,0,0,0,.12.3.3,0,0,0,.08.08.24.24,0,0,0,.11.06Z" style="fill:#66d7f2"/><path d="M297.32,104.4a.24.24,0,0,0-.05.14.22.22,0,0,0,0,.14.24.24,0,0,0,.09.11.22.22,0,0,0,.13.06l4.35.21.06,0,.06,0,1.25-1.43a.25.25,0,0,0,.06-.14.26.26,0,0,0,0-.15.27.27,0,0,0-.09-.12.35.35,0,0,0-.14-.06l-4.45-.18a.35.35,0,0,0-.23.12Z" style="fill:#66d7f2"/><path d="M295,102.4l3,.1a.27.27,0,0,0,.13,0,.25.25,0,0,0,.1-.08l1.24-1.41a.42.42,0,0,0,.06-.14.29.29,0,0,0,0-.16.27.27,0,0,0-.1-.11.3.3,0,0,0-.15,0l-3-.11h-.12l-1.38,1.48a.29.29,0,0,0-.12.15.25.25,0,0,0,0,.19.27.27,0,0,0,.32.16Z" style="fill:#66d7f2"/><path d="M292.72,104.64l3.45.15a.33.33,0,0,0,.23-.1l1.19-1.37a.25.25,0,0,0,.06-.14.26.26,0,0,0,0-.15.29.29,0,0,0-.1-.12.42.42,0,0,0-.15,0l-3.08-.11a.25.25,0,0,0-.12,0,.23.23,0,0,0-.1.07l-1.47,1.61a.13.13,0,0,0,0,.06s0,0,0,.06a.12.12,0,0,0,.05.05Z" style="fill:#66d7f2"/><path d="M302.62,100.68l.73,2-2.36-.1-.61-2Z" style="fill:#9ae9f7;opacity:0.800000011920929;isolation:isolate"/><path d="M301.06,103l.71,2-2.34-.1-.61-2Z" style="fill:#9ae9f7;opacity:0.800000011920929;isolation:isolate"/><path d="M295.72,102.79l.4,2-1.32-.05-.35-2Z" style="fill:#9ae9f7;opacity:0.800000011920929;isolation:isolate"/><path d="M297.51,100.49l.4,2-1.32,0-.34-2Z" style="fill:#9ae9f7;opacity:0.800000011920929;isolation:isolate"/><path d="M283.8,117.63,293,118a.29.29,0,0,0,.13,0l3.85-4.29a.13.13,0,0,0,.05-.09.17.17,0,0,0,0-.1.27.27,0,0,0-.07-.08.25.25,0,0,0-.09,0l-9.16-.35a.13.13,0,0,0-.12,0l-3.86,4.29a.19.19,0,0,0-.05.09.17.17,0,0,0,0,.1.16.16,0,0,0,.06.08.17.17,0,0,0,.1,0Z" style="fill:#179668;opacity:0.5;isolation:isolate"/><path d="M290.58,116.76s0,.08-.29,0l.21-.19Z" style="fill:#335860"/><path d="M290.58,111.94v4.66a.24.24,0,0,1-.24.23l-3.22-.36a.16.16,0,0,1-.09,0l-.07,0a.32.32,0,0,1,0-.09.22.22,0,0,1,0-.09l.92-4.59a.27.27,0,0,1,.09-.12.28.28,0,0,1,.15,0l2.36.28a.19.19,0,0,1,.11.07.16.16,0,0,1,0,.13Z" style="fill:#517d84"/><path d="M290.58,116.76l1.48-1.24a.2.2,0,0,0,.06-.14.2.2,0,0,0-.06-.15l-.35-.4-1.23,1v.92Z" style="fill:#335860"/><path d="M291.77,114.83l-1.2-.11,0,1.09Z" style="fill:#27454c"/><path d="M290.55,113.54l-3.06-.29-.18.92,3.26.37Z" style="fill:#335860"/><path d="M283,112.72l.11.08,4.16-4.42h.13l10.1.13h.12V109s0,0,0,.06,0,0,0,.06l-4.23,4.72a.33.33,0,0,1-.14,0l-10.09-.39a.2.2,0,0,1-.13-.06.21.21,0,0,1-.05-.13h0Z" style="fill:#38606b"/><path d="M283.14,112.94l10.08.39a.15.15,0,0,0,.13,0l4.24-4.72a.21.21,0,0,0,.06-.1.2.2,0,0,0,0-.11.16.16,0,0,0-.07-.09.18.18,0,0,0-.1,0l-10.09-.39h-.13L283,112.61a.15.15,0,0,0-.06.09.14.14,0,0,0,0,.11.15.15,0,0,0,.06.09A.15.15,0,0,0,283.14,112.94Z" style="fill:#f2fafc"/><path d="M290.58,110.36l4.58.17a.2.2,0,0,0,.11,0,.23.23,0,0,0,.1-.07l1.4-1.61a.16.16,0,0,0,0-.07.11.11,0,0,0,0-.08.1.1,0,0,0-.05-.06l-.08,0-5-.19a.25.25,0,0,0-.12,0,.23.23,0,0,0-.09.08l-1.11,1.41a.2.2,0,0,0-.06.14.26.26,0,0,0,0,.15.29.29,0,0,0,.1.12.23.23,0,0,0,.14,0Z" style="fill:#66d7f2"/><path d="M288.58,112.22a.35.35,0,0,0-.06.14.22.22,0,0,0,0,.14.27.27,0,0,0,.09.12.3.3,0,0,0,.15,0l4.38.18h.1l1.25-1.44a.26.26,0,0,0,.07-.29.28.28,0,0,0-.1-.12.23.23,0,0,0-.14,0l-4.47-.18a.2.2,0,0,0-.11,0,.23.23,0,0,0-.1.07Z" style="fill:#66d7f2"/><path d="M286.2,110.22l3,.1a.32.32,0,0,0,.22-.1l1.23-1.43a.35.35,0,0,0,.06-.14.26.26,0,0,0,0-.15.27.27,0,0,0-.09-.12.38.38,0,0,0-.15,0l-3-.09a.13.13,0,0,0-.12,0L286,109.7a.29.29,0,0,0-.09.15.28.28,0,0,0,0,.18.4.4,0,0,0,.11.14.31.31,0,0,0,.18,0Z" style="fill:#66d7f2"/><path d="M284,112.46l3.45.13a.2.2,0,0,0,.13,0,.19.19,0,0,0,.1-.08l1.19-1.37a.31.31,0,0,0,.06-.13.24.24,0,0,0,0-.15.27.27,0,0,0-.09-.12.24.24,0,0,0-.14,0l-3.1-.11-.11,0-.1.07-1.46,1.62a.14.14,0,0,0,0,.06.13.13,0,0,0,0,.06l0,0,.06,0Z" style="fill:#66d7f2"/><path d="M293.87,108.48l.72,2-2.33-.08-.62-2Z" style="fill:#9ae9f7;opacity:0.800000011920929;isolation:isolate"/><path d="M292.3,110.82l.73,2-2.34-.08-.61-2Z" style="fill:#9ae9f7;opacity:0.800000011920929;isolation:isolate"/><path d="M287,110.61l.4,2-1.32,0-.34-2Z" style="fill:#9ae9f7;opacity:0.800000011920929;isolation:isolate"/><path d="M288.78,108.3l.4,2-1.32,0-.36-2Z" style="fill:#9ae9f7;opacity:0.800000011920929;isolation:isolate"/><path d="M464.83,103l4.56-1.87,1.33.06L467.35,103Z" style="fill:#179668;opacity:0.5;isolation:isolate"/><path d="M471.86,101.26l4.06.26-.26-.34-11-.52-.64.23Z" style="fill:#179668;opacity:0.5;isolation:isolate"/><path d="M467.35,103h-2.52l.95-25.53h.68Z" style="fill:#fff"/><path d="M466,78h.29a.59.59,0,0,0,.6-.59v0a.59.59,0,0,0-.6-.59H466a.58.58,0,0,0-.59.59v0A.58.58,0,0,0,466,78Z" style="fill:#c6d9f2"/><path d="M466.11,77.94l1,25.06h.29l-.93-25.06Z" style="fill:#c6d9f2"/><path d="M465.41,76.47l.13-.48-.66-.18-.39-.8-11.87-2.45a.33.33,0,0,0-.24,0l-.15.08-.08.09v.1Z" style="fill:#fff"/><path d="M466.73,77.16l-.46.17.21.64-.45.77L470.67,90a.27.27,0,0,0,.06.1.23.23,0,0,0,.1.07l.14.08a.15.15,0,0,0,.13,0h.11Z" style="fill:#fff"/><path d="M466.62,75.73l.34.35.5-.45h.89l8.33-8.8a.39.39,0,0,0,.11-.22v-.16a.24.24,0,0,0,0-.12l-.08-.09Z" style="fill:#fff"/><path d="M466.14,77.47a.94.94,0,1,0-.94-.93A.93.93,0,0,0,466.14,77.47Z" style="fill:#eef8f5"/><path d="M420,112.41l6.69-2.72,1.93.08-4.91,2.64Z" style="fill:#179668;opacity:0.5;isolation:isolate"/><path d="M430.3,109.86l5.94.38-.37-.5L419.69,109l-1,.33Z" style="fill:#179668;opacity:0.5;isolation:isolate"/><path d="M423.69,112.41H420L421.38,75h1Z" style="fill:#fff"/><path d="M421.69,75.7h.4a.88.88,0,1,0,0-1.76h-.4a.88.88,0,1,0,0,1.76Z" style="fill:#c6d9f2"/><path d="M421.85,75.7l1.48,36.71h.44L422.4,75.7Z" style="fill:#c6d9f2"/><path d="M422.14,72.59l.68.29.4-.92,1.24-.4,6.05-16.7a.58.58,0,0,0,0-.19.57.57,0,0,0,0-.18l-.09-.21a.18.18,0,0,0,0-.09l-.08-.06h-.17Z" style="fill:#fff"/><path d="M420.85,74.34l-.13-.71-1,.18-1-.8-17.22,4.35a.36.36,0,0,0-.17.07.44.44,0,0,0-.13.14l-.15.17a.34.34,0,0,0,0,.2v.16Z" style="fill:#fff"/><path d="M423,74.44l-.59.42.56.82L422.61,77l11,13.94a.6.6,0,0,0,.3.19h.24l.09,0,.09,0,.15-.1Z" style="fill:#fff"/><path d="M421.9,75a1.37,1.37,0,1,0-1.37-1.37A1.37,1.37,0,0,0,421.9,75Z" style="fill:#eef8f5"/><path d="M505.05,58.72H464.39a9.45,9.45,0,0,0-9.45,9.45v40.66a9.45,9.45,0,0,0,9.45,9.45h40.66a9.45,9.45,0,0,0,9.45-9.45V68.17A9.45,9.45,0,0,0,505.05,58.72Z" style="fill:#fff1e1"/><path d="M459.09,96.19c.24-.42,4.58-27.56,11.67-30,6.92-2.42.37,34.46.37,34.46s-2.23,1.87-7,.06S459.09,96.19,459.09,96.19Z" style="fill:#e23b5b;fill-rule:evenodd"/><path d="M502.36,70.38s-9.18-6.87-19.76-6.87c-8.52,0-12,3.22-12,3.22l-5.73,40.8,33.67.53Z" style="fill:#ff4964"/><path d="M490,64.55a11.66,11.66,0,0,1-.76,2.07c-.7,1.54-4.79,7.4-10.68,6.58s-3.35-6.15-2.85-7.21c.41-.86,1.52-2.26,2.35-2.26,1.67,0,8.23-.37,10.76.43C489.38,64.32,490,64.55,490,64.55Z" style="fill:#f9ae83"/><path d="M489.26,83.48a1.18,1.18,0,1,0-1.4,1A1.21,1.21,0,0,0,489.26,83.48Z" style="fill:#e7f1f2"/><path d="M492.35,65.57c.28-.88,4.58,1.4,4.58,1.4s-6.62,15.72-5.66,20.91c.76,4.09,8.58,6.42,9.3.22.28-2.49-2,30.18-2,30.18h-35s1.85-42.47,7.09-52.2c.34-.64,3.41-1.46,3.26-1.12-1.69,3.89-4.87,11.41-3,16.59,1,2.68,8.47,5.74,13.91.41C487,79.82,491.15,69.3,492.35,65.57Z" style="fill:#0a96ad"/><path d="M491,84.49a7.54,7.54,0,0,1-1.8,1.53,2.73,2.73,0,0,1-1,.33,2.66,2.66,0,0,1-1.05-.09,2.29,2.29,0,0,1-.88-.51,2.94,2.94,0,0,1-.59-.89,7.08,7.08,0,0,1-.45-2.32,4.38,4.38,0,0,0-.11,2.51,3,3,0,0,0,.63,1.2,2.73,2.73,0,0,0,2.53.81,3,3,0,0,0,1.25-.54A4.47,4.47,0,0,0,491,84.49Z" style="fill:#0b7189"/><path d="M487.92,84.48a1.23,1.23,0,0,0,.87-.23,1.21,1.21,0,0,0,.47-.77,1.21,1.21,0,0,0-.92-1.45.86.86,0,0,0-.39,0H488a1.18,1.18,0,0,1,.43.19,1.15,1.15,0,0,1,.32.34,1.25,1.25,0,0,1,.16.92,1.22,1.22,0,0,1-1,1Z" style="fill:#c2c6c6"/><path d="M487.86,84.47h.06a1.22,1.22,0,0,0,1-1,1.24,1.24,0,0,0,0-.47,1.12,1.12,0,0,0-.17-.44,1.07,1.07,0,0,0-.32-.35A1.18,1.18,0,0,0,488,82H488a1.22,1.22,0,0,0-1,1,1.06,1.06,0,0,0,0,.47,1.12,1.12,0,0,0,.17.44,1.07,1.07,0,0,0,.32.35,1.34,1.34,0,0,0,.44.19Z" style="fill:#e7f1f2"/><path d="M470,80.64a2.44,2.44,0,0,1-.55.93,1.42,1.42,0,0,1-.41.28,1.32,1.32,0,0,1-.48.09,1,1,0,0,1-.48-.06,1,1,0,0,1-.41-.25,1.65,1.65,0,0,1-.34-1,1.24,1.24,0,0,0-.09.6,1.37,1.37,0,0,0,.19.58,1.07,1.07,0,0,0,.51.4,1.49,1.49,0,0,0,.63.1,1.38,1.38,0,0,0,.62-.15,1.46,1.46,0,0,0,.48-.41,1.75,1.75,0,0,0,.33-1.11Z" style="fill:#0b7189"/><path d="M468.51,80.87a.79.79,0,0,0,.9-.67.88.88,0,0,0-.54-1.07.53.53,0,0,0-.25,0h0a.86.86,0,0,1,.47.43,1,1,0,0,1-.16,1.07A.85.85,0,0,1,468.51,80.87Z" style="fill:#c2c6c6"/><path d="M468.47,80.82a.95.95,0,0,0,.62-1.32.86.86,0,0,0-.47-.43h0a.8.8,0,0,0-.45.24.85.85,0,0,0-.23.45.91.91,0,0,0,.05.63.88.88,0,0,0,.48.43Z" style="fill:#e7f1f2"/><path d="M486.92,94.34s-14.08,2.22-19.45-2.88l-1.26,18.14s1.42,4.7,8.16,5.51,11.18-4.39,11.18-4.39Z" style="fill:#0b7189"/><path d="M485.37,96.56l.09-1h-.24l-.75.1,0,.38L485,96l-.05.52Z" style="fill:#0e9ea5"/><path d="M479.34,96.4h.82V96h-1.45v.38Zm-2.1-.06V96a8.57,8.57,0,0,1-1.44-.12v.38C476.25,96.27,476.74,96.31,477.24,96.34Zm4.37,0,1.46-.1v-.38c-.43,0-.92.07-1.44.1ZM474.33,96l.07-.38c-.49-.08-1-.18-1.41-.29l-.09.37a13.93,13.93,0,0,0,1.43.29Zm-2.84-.72.13-.36a11.67,11.67,0,0,1-1.31-.55l-.18.34a12.52,12.52,0,0,0,1.36.56Z" style="fill:#0e9ea5"/><path d="M468.54,94.07V93.7l.31.24.23-.3a6.57,6.57,0,0,1-.57-.48l-.29-.28-.08,1.17Z" style="fill:#0e9ea5"/><path d="M475.3,114v-.38a4,4,0,0,1-.91-.07,6,6,0,0,1-.61-.09l-.06.38.62.09C474.66,114,475,114,475.3,114Zm1.58-.07a11.81,11.81,0,0,0,1.55-.31l-.1-.37a9.72,9.72,0,0,1-1.5.3Zm-4.69-.46.12-.36a8.7,8.7,0,0,1-1.41-.58l-.17.34a9.33,9.33,0,0,0,1.46.6Zm7.73-.38a13.37,13.37,0,0,0,1.41-.72l-.2-.33a11.64,11.64,0,0,1-1.36.7Zm-10.54-1.07.24-.3a6.77,6.77,0,0,1-1.09-1.05l-.29.25a7.92,7.92,0,0,0,1.14,1.1Zm13.26-.53a14,14,0,0,0,1.19-1l-.27-.27a10,10,0,0,1-1.16,1Zm-15.28-1.91.34-.17c-.11-.23-.17-.4-.2-.46l.07-.95h-.38l-.07,1a3.23,3.23,0,0,0,.24.58Zm17-.66.13-1.55h-.39L484,109Zm-16.66-2.47.1-1.55h-.38l-.1,1.55Zm16.91-.67.13-1.55h-.38l-.15,1.55Zm-16.7-2.48.11-1.55h-.38l-.11,1.55Zm17-.62.13-1.55h-.38l-.13,1.55Zm-16.74-2.48.11-1.55h-.39l-.1,1.55Zm17-.62.13-1.55h-.38l-.13,1.55Zm-16.79-2.48.11-1.55h-.38L468,97.14Z" style="fill:#0e9ea5"/><path d="M506.7,52.61c1.31-5.53-10-12.92-25.22-16.52s-28.64-2-30,3.51,10,12.93,25.23,16.52S505.4,58.15,506.7,52.61Z" style="fill:#9e7b57"/><path d="M476,30c-3-1-7.76.44-8.68,7.47-.69,5.26.14,11.56,3.11,12.52s6.34-4.08,8-9.12S479,31,476,30Z" style="fill:#1d394f"/><path d="M482.79,68.16h.36a4.8,4.8,0,0,0,4.9-4.67l.16-7a4.78,4.78,0,0,0-4.66-4.89h-.37a4.79,4.79,0,0,0-4.89,4.67l-.16,7A4.77,4.77,0,0,0,482.79,68.16Z" style="fill:#f9ae83"/><path d="M475.9,62.59a13.06,13.06,0,0,0,13.85-9.71l2.64-9.46c.61-6.77-2-13.9-10.87-14.68A12.26,12.26,0,0,0,468.34,40l-.42,9.49C468,56.88,470.61,62.12,475.9,62.59Z" style="fill:#f9ae83"/><path d="M488.13,47.18c-.16-.67-1.16,3.06-1.37,2.19-.35-1.44-1.29-2.08-1-4.48a9.33,9.33,0,0,0-.1-2.74c-2.92-3.68-14.45-5.59-17.35-1.8,0,0-.31-13.29,12.56-12.1,13.68,1.26,11.8,12,11.51,15.17-.38,4.29-2,12.62-4.27,13.19C488.12,56.61,489.46,53,488.13,47.18Z" style="fill:#1d394f"/><path d="M493.23,49.62c.42-2.16-.53-4.16-2.12-4.46s-3.21,1.19-3.63,3.35S488,52.67,489.6,53,492.82,51.78,493.23,49.62Z" style="fill:#f9ae83"/><path d="M492.28,46.92a2.44,2.44,0,0,0-1.62-.14,3,3,0,0,0-1.43.88,4.19,4.19,0,0,0-.83,1.43c-.07.27-.14.53-.19.79a5.29,5.29,0,0,0-.06.8q.18-.36.33-.72c.11-.23.23-.46.33-.69a6,6,0,0,1,.84-1.22,3.4,3.4,0,0,1,1.19-.86,3.36,3.36,0,0,1,1.44-.27Z" style="fill:#c97355"/><path d="M491.31,48.91a1.28,1.28,0,0,0-.77-.56,1.56,1.56,0,0,0-1,.07,2.06,2.06,0,0,0-.77.6,3.34,3.34,0,0,0-.25.4,4,4,0,0,0-.16.45,3.28,3.28,0,0,0,.38-.27l.34-.26a3.57,3.57,0,0,1,.68-.4,2.18,2.18,0,0,1,1.55,0Z" style="fill:#c97355"/><path d="M473.37,37.11s1.95,4.77,6.26,5.64a.23.23,0,0,0,.14,0,.31.31,0,0,0,.11-.09.32.32,0,0,0,0-.14.21.21,0,0,0-.05-.13,5.37,5.37,0,0,1-1.19-3.85C479,36.1,473.37,37.11,473.37,37.11Z" style="fill:#1d394f"/><path d="M467.88,40.06c.5,1.2,2.6,3.17,7.51,4.24a.2.2,0,0,0,.13,0,.14.14,0,0,0,.09-.08.17.17,0,0,0,0-.12.25.25,0,0,0,0-.12,7,7,0,0,1-1.44-5.15c.46-2.7-5.54.4-6.12.94C468,39.87,467.82,39.93,467.88,40.06Z" style="fill:#1d394f"/><path d="M474.61,48.5a9.43,9.43,0,0,0-1.13,1.6,6.82,6.82,0,0,0-.79,1.84,1.69,1.69,0,0,0-.06.55.87.87,0,0,0,.06.32.64.64,0,0,0,.24.32,2,2,0,0,0,.52.21,2.18,2.18,0,0,0,.51.09,5.41,5.41,0,0,0,2-.19,15,15,0,0,1-1.9-.24l-.43-.13a1.22,1.22,0,0,1-.36-.18.43.43,0,0,1-.06-.22,1.84,1.84,0,0,1,.05-.41,12,12,0,0,1,.64-1.77C474.12,49.7,474.38,49.11,474.61,48.5Z" style="fill:#c97355"/><path d="M472.38,56.5a4.06,4.06,0,0,0,1.83.79,6.1,6.1,0,0,0,2,0,8.84,8.84,0,0,0,1.94-.52c.31-.13.6-.28.9-.43a6.56,6.56,0,0,0,.83-.54c-.32.08-.63.18-.94.29l-.93.26c-.32.06-.62.17-.93.22l-.47.1-.47.06a9.83,9.83,0,0,1-1.88.08A7,7,0,0,1,472.38,56.5Z" style="fill:#c97355"/><path d="M473.77,58.39a1.1,1.1,0,0,0,.54.5A1.79,1.79,0,0,0,475,59a2.17,2.17,0,0,0,.71-.13,1.83,1.83,0,0,0,.6-.39,4,4,0,0,0-.69,0h-1.22a4.53,4.53,0,0,1-.66-.13Z" style="fill:#c97355"/><path d="M484,46.07a12.09,12.09,0,0,0-1.65-.51,12.63,12.63,0,0,0-1.72-.3,4.84,4.84,0,0,0-1.78,0,2.49,2.49,0,0,0-1.51,1h0a5.5,5.5,0,0,1,1.6-.38,15.26,15.26,0,0,1,1.66-.06,11.83,11.83,0,0,1,1.68.09,16,16,0,0,1,1.69.25Z" style="fill:#1d394f"/><path d="M468.71,45.41a8.34,8.34,0,0,1,1,0,4.92,4.92,0,0,1,1,.2,7.36,7.36,0,0,1,.85.41,7.56,7.56,0,0,1,.86.52h.06a1.58,1.58,0,0,0-.17-.56,1.43,1.43,0,0,0-.37-.44,2.11,2.11,0,0,0-1.11-.38,3.51,3.51,0,0,0-1.12,0,4.79,4.79,0,0,0-1.06.24Z" style="fill:#1d394f"/><path d="M479.31,49.11c0-.67-.27-1.23-.63-1.24s-.68.53-.69,1.21.27,1.22.63,1.23S479.29,49.78,479.31,49.11Z" style="fill:#1d394f"/><path d="M471.62,48.92c0-.67-.27-1.22-.64-1.23s-.67.53-.68,1.2.26,1.23.63,1.24S471.6,49.6,471.62,48.92Z" style="fill:#1d394f"/><path d="M478.15,62.63s5.75-1.32,7.78-3.26c0,0-4.76,8.56-7.65,5.63C477.91,64.63,478.15,62.63,478.15,62.63Z" style="fill:#f58a69"/><path d="M451.54,41.35c1.3-5.53,14.71-7.1,29.94-3.51,13.69,3.24,24.2,9.54,25.23,14.79,1.31-5.52-10-12.92-25.21-16.52s-28.64-2-29.94,3.51A3.89,3.89,0,0,0,451.54,41.35Z" style="fill:#d8aa73"/><path d="M500.13,104.37c2.56,6.37-1.9,8.19-6.95,8S465.42,107,465.42,107l-.71-4.36C474.08,102.5,496.93,96.39,500.13,104.37Z" style="fill:#2b4060;fill-rule:evenodd;opacity:0.30000001192092896;isolation:isolate"/><path d="M495.53,101.64s-.8-34.32,6.68-31.33c8.41,3.37,7.22,34.12,7.22,34.12s-2.21,2.23-7.74,1.07S495.53,101.64,495.53,101.64Z" style="fill:#ff4964;fill-rule:evenodd"/><path d="M494.5,102.38c15.7-17.06,26.86,18,4.12,8.41Z" style="fill:#e23b5b;fill-rule:evenodd"/><path d="M473.2,100.33l.12-.65c-5.06-4.61-4.69-2.23-8-4.93-1.8-1.44-1.47,2,.08,3.21C467.45,98.67,473.2,100.33,473.2,100.33Z" style="fill:#f58a69;fill-rule:evenodd"/><path d="M506.77,102.58c5.09,6.47-1.59,8.24-6.07,8s-27.35-4.81-27.35-4.81l.53-5.82C482.17,99.92,501.68,96.11,506.77,102.58Z" style="fill:#f9ae83;fill-rule:evenodd"/><path d="M506.77,102.58c5.09,6.47-1.59,8.24-6.07,8l-1.14-.11c2.26-.32,4.49-1.11,5.3-2.92,1.22-2.71-.76-5.79-2.27-7.6a8.6,8.6,0,0,1,4.18,2.63Z" style="fill:#f58a69;fill-rule:evenodd"/><path d="M466.26,99.38l-.89-1.66-5.49,3.16,2.05,5.56,4.95-.56Z" style="fill:#ea8678;fill-rule:evenodd"/><path d="M475.13,100.82l-1.29-1-8.47-2.09s-.1,4.93,1.51,8.16c0,0,4,.89,6.47-.12Z" style="fill:#f9ae83;fill-rule:evenodd"/><path d="M500.86,70.18a3.28,3.28,0,0,0-1.26.77,4.42,4.42,0,0,0-.53.53,4.51,4.51,0,0,0-.47.59,10.36,10.36,0,0,0-.79,1.27c-.24.44-.42.91-.64,1.36a26.1,26.1,0,0,0-1.45,5.77,43.25,43.25,0,0,0-.4,5.91c0,1,0,2,.07,3s.13,2,.23,2.94c.07-1,.1-2,.13-2.94V87.86l.09-1.46c0-1,.14-2,.22-2.92l.06-.73a6.06,6.06,0,0,1,.09-.73l.18-1.45a34.39,34.39,0,0,1,1.26-5.67c.18-.44.34-.9.53-1.34a9.78,9.78,0,0,1,.66-1.29,3.51,3.51,0,0,1,.39-.61,4,4,0,0,1,.44-.56l.25-.27.27-.24a2.41,2.41,0,0,1,.67-.41Z" style="fill:#e23b5b"/><path d="M435,84.49a1,1,0,0,0,0,.71l6.28,18.54a1.07,1.07,0,0,0,.28.41,1,1,0,0,0,.46.23l29.34,5.34h.13l-.23.32.7-.42H472a1,1,0,0,0,.39-1.15L465.5,89.7a1,1,0,0,0-.29-.41,1.09,1.09,0,0,0-.45-.21L436.05,84a1.72,1.72,0,0,0-.9.29l-.73.43Z" style="fill:#a0a0a0"/><path d="M463.83,89.82,435.12,84.7a1,1,0,0,0-.48.06,1,1,0,0,0-.4.28,1,1,0,0,0-.21.43.91.91,0,0,0,0,.49l6.27,18.54a1.07,1.07,0,0,0,.28.42,1.09,1.09,0,0,0,.46.22l29.34,5.35a1,1,0,0,0,.49-.06.93.93,0,0,0,.39-.29,1.08,1.08,0,0,0,.22-.44,1,1,0,0,0,0-.49l-6.86-18.76a.93.93,0,0,0-.31-.42,1,1,0,0,0-.47-.21Z" style="fill:#cdcdd3"/><path d="M434,85.76l.1.32,32.74,23.57,3.51.64a1,1,0,0,0,.49-.06.93.93,0,0,0,.39-.29,1.08,1.08,0,0,0,.22-.44,1,1,0,0,0,0-.49l-6.86-18.78a1,1,0,0,0-.29-.41,1,1,0,0,0-.45-.21L435.16,84.5a1.06,1.06,0,0,0-.5,0,1.15,1.15,0,0,0-.41.28,1.1,1.1,0,0,0-.23.44,1.05,1.05,0,0,0,0,.5Z" style="fill:#cdcdd3"/><path d="M434,85.76l.1.32,32.74,23.57,3.51.64a1,1,0,0,0,.49-.06.93.93,0,0,0,.39-.29,1.08,1.08,0,0,0,.22-.44,1,1,0,0,0,0-.49l-6.86-18.78a1,1,0,0,0-.29-.41,1,1,0,0,0-.45-.21L435.16,84.5a1.06,1.06,0,0,0-.5,0,1.15,1.15,0,0,0-.41.28,1.1,1.1,0,0,0-.23.44,1.05,1.05,0,0,0,0,.5Z" style="fill:#d8d8d8"/><path d="M448.77,99.34a2.27,2.27,0,0,0,3,1,1.92,1.92,0,0,0,.59-.58,1.94,1.94,0,0,0,.32-.77,1.89,1.89,0,0,0,0-.82,2,2,0,0,0-.36-.75c-.72-1.14-2.19-1.8-3.13-1.21a2.25,2.25,0,0,0-.83,1.48,2.22,2.22,0,0,0,.44,1.65Z" style="fill:#e2e2e2"/><path d="M442.1,103.37s-.49.81-1.18.8a10.39,10.39,0,0,1-2-.38,1.36,1.36,0,0,1-.3-.52,1.32,1.32,0,0,1-.07-.59,4.3,4.3,0,0,1,.31-1,.74.74,0,0,1-.27.16.85.85,0,0,1-.32,0,.81.81,0,0,1-.29-.12.91.91,0,0,1-.2-.24,7,7,0,0,1-.82-2,2.89,2.89,0,0,1-1-.87,3.71,3.71,0,0,1-.3-1.13,1.35,1.35,0,0,1-.36-.65,1.3,1.3,0,0,1,0-.73,1.81,1.81,0,0,1,.42-.67,1.73,1.73,0,0,1,.68-.4s2.77-1.33,3-1,.79.77-.23,1.38l-1.66,1,.29.71s2.69-1.18,3.06-1,1,.28.64.82a15.62,15.62,0,0,1-2.93,1.83l.09,1s2.9-1.26,3.27-.9.72.56.19,1a17.92,17.92,0,0,1-2.66,1.52l.63.85S442,102.25,442.1,103.37Z" style="fill:#f9ae83"/><path d="M506.11,49.35s-3.24-7.84-26.38-12.76c0,0-21.13-5.64-27.68,1.93.66-1.19,4.47-3.43,5.74-3.93L482,25.11a1.55,1.55,0,0,1,.85-.09,1.62,1.62,0,0,1,.78.37l16.95,17.34c1.12,1,5.57,5.14,5.55,6.62Z" style="fill:#f9d07d"/><path d="M367.28,33.59h-44A9.45,9.45,0,0,0,313.85,43V87a9.45,9.45,0,0,0,9.45,9.45h44A9.45,9.45,0,0,0,376.73,87V43A9.45,9.45,0,0,0,367.28,33.59Z" style="fill:#e0f4fc"/><path d="M292.28,48.4,293,48a2.65,2.65,0,0,1,1-.37,2.55,2.55,0,0,1,2.64,1.3c1.1,2,2.45,4.79,2.45,4.79l-2.87,4.55h-1c-1,.67-3.49-.68-5.14-1.69s-.84-2-.84-2c-1-1.43.39-2,.39-2a1.45,1.45,0,0,1-.24-.57,1.4,1.4,0,0,1,0-.61,1.59,1.59,0,0,1,.23-.57,1.63,1.63,0,0,1,.44-.43" style="fill:#f9ae83"/><path d="M290.8,34,270,38l5.58,29.12,20.8-4Z" style="fill:#fff"/><path d="M273.47,44.65c0-.07,3.42-.79,7.67-1.6s7.7-1.42,7.71-1.35-3.42.78-7.67,1.59S273.48,44.73,273.47,44.65Z" style="fill:#bcbcbc"/><path d="M273.86,46.72c0-.07,3.42-.78,7.67-1.59s7.7-1.42,7.71-1.36-3.42.79-7.66,1.6S273.88,46.79,273.86,46.72Z" style="fill:#bcbcbc"/><path d="M274.28,48.78c0-.07,3.42-.78,7.66-1.6s7.7-1.42,7.72-1.35-3.42.78-7.67,1.6S274.28,48.84,274.28,48.78Z" style="fill:#bcbcbc"/><path d="M274.65,50.83c0-.06,3.42-.78,7.67-1.59s7.7-1.42,7.71-1.35-3.42.78-7.67,1.59S274.66,50.9,274.65,50.83Z" style="fill:#bcbcbc"/><path d="M275,52.89c0-.07,3.42-.78,7.67-1.59s7.7-1.42,7.72-1.36-3.42.78-7.67,1.6S275.06,53,275,52.89Z" style="fill:#bcbcbc"/><path d="M275.44,55c0-.07,3.42-.78,7.67-1.6s7.7-1.42,7.71-1.35-3.42.78-7.67,1.59S275.45,55,275.44,55Z" style="fill:#bcbcbc"/><path d="M275.83,57c0-.06,3.42-.78,7.67-1.59s7.7-1.42,7.71-1.35-3.42.78-7.66,1.59S275.85,57.07,275.83,57Z" style="fill:#bcbcbc"/><path d="M276.28,59.06c0-.07,3.42-.78,7.66-1.6s7.71-1.42,7.72-1.35-3.42.78-7.67,1.6S276.28,59.13,276.28,59.06Z" style="fill:#bcbcbc"/><path d="M276.62,61.12c0-.07,3.42-.79,7.67-1.6S292,58.1,292,58.17s-3.42.78-7.67,1.59S276.63,61.18,276.62,61.12Z" style="fill:#bcbcbc"/><path d="M294.12,47.58c-.16,0-6.32,1-6.32,1-.11.57.22,1.37,1.68,1.39s2.61-.09,2.61-.09,1.53,3.18,3,3.53.76-3,.76-3Z" style="fill:#f9ae83"/><path d="M364.73,27.51a10.73,10.73,0,0,0,1.13-3.86,3.68,3.68,0,0,0-.36-2,3.59,3.59,0,0,0-1.32-1.49c-1.08-.57-2.42-.31-3.57-.72a5.86,5.86,0,0,1-1.84-1.37,5.76,5.76,0,0,1-1.16-2c-.63-1.41.25-1.92-.82-3-1.41-1.45-2.33-1.66-4.12-.77a22.54,22.54,0,0,0-7.05-2.61c-1.91-.06-4.09.1-5.42,1.47-1,1.06-1.7,2.41-3,3.18-1.75,1.06-4,.16-6,.23a1.25,1.25,0,0,0-.6.1,1.21,1.21,0,0,0-.47.4,1.25,1.25,0,0,0,0,.51,1.37,1.37,0,0,0,.18.49c.53,1.09,1,2.19,1.58,3.29a3.12,3.12,0,0,1-2.73-.07,9.33,9.33,0,0,0,2.42,5.84.68.68,0,0,0-.31-.08.7.7,0,0,0-.32.05.84.84,0,0,0-.28.18,1.06,1.06,0,0,0-.18.27,2.06,2.06,0,0,0,0,1.3,9.57,9.57,0,0,0,13,6.29l11.25.85a3.1,3.1,0,0,0,.75,1.14,2.92,2.92,0,0,0,1.19.66c1.26-.93,1.46-1.45,1.46-1.45.78.57.17.28.78.57a2.76,2.76,0,0,0,1.13.24,2.81,2.81,0,0,0,1.14-.24,2.69,2.69,0,0,0,.93-.68,2.63,2.63,0,0,0,.57-1,3.29,3.29,0,0,1,.81-1.65,5.87,5.87,0,0,1,1.64-.91,4.62,4.62,0,0,0,2.06-2.11,3.44,3.44,0,0,1-1.34-.3,3.6,3.6,0,0,1-1.11-.82Z" style="fill:#1d394f"/><path d="M356.77,22.65l.29,23.22c.05,4-.69,9.77-6.93,9.56-5.41-.59-6.85-5.71-6.89-9.39,0-1.75,0-3.21-.05-3.39,0,0-5.92-.48-6.42-6.33-.24-2.83-.27-8.69-.23-14a10.95,10.95,0,0,1,10.14-10.76h.57C353.36,11.43,356.85,16.57,356.77,22.65Z" style="fill:#f9ae83"/><path d="M343.19,42.65a14.2,14.2,0,0,0,7.45-2.81s-1.54,4.41-7.42,4.31Z" style="fill:#f58a69"/><path d="M346.54,24.77c.12.12.79-.43,1.77-.45s1.71.45,1.82.33-.07-.28-.39-.5a2.44,2.44,0,0,0-1.46-.41,2.34,2.34,0,0,0-1.41.51C346.58,24.49,346.48,24.72,346.54,24.77Z" style="fill:#1d394f"/><path d="M346.36,27a.84.84,0,0,0,.26.53.85.85,0,0,0,.56.21.77.77,0,0,0,.3-.06.85.85,0,0,0,.25-.17.6.6,0,0,0,.16-.25.72.72,0,0,0,.06-.29.75.75,0,0,0-.26-.54.77.77,0,0,0-.56-.21.72.72,0,0,0-.29.06.73.73,0,0,0-.26.17.82.82,0,0,0-.16.25A.77.77,0,0,0,346.36,27Z" style="fill:#1d394f"/><path d="M344.09,31.58a6.1,6.1,0,0,0-1.48-.15c-.23,0-.46,0-.51-.19a1.3,1.3,0,0,1,.11-.7c.17-.57.36-1.17.55-1.79A30.41,30.41,0,0,0,344,24.06a30.63,30.63,0,0,0-1.56,4.59c-.19.63-.36,1.23-.53,1.8a1.49,1.49,0,0,0-.05.91.55.55,0,0,0,.17.2.7.7,0,0,0,.23.11,1.34,1.34,0,0,0,.4,0A6.08,6.08,0,0,0,344.09,31.58Z" style="fill:#c97355"/><path d="M347,21.09c.09.21.88.05,1.82.1s1.71.25,1.82,0-.1-.3-.42-.49a3,3,0,0,0-1.38-.39,2.8,2.8,0,0,0-1.39.28C347.08,20.79,346.92,21,347,21.09Z" style="fill:#1d394f"/><path d="M337.65,22.9c.11.18.87,0,1.8,0s1.69.09,1.79-.09-.11-.25-.43-.39a3.19,3.19,0,0,0-1.37-.23,3.25,3.25,0,0,0-1.36.34C337.76,22.65,337.61,22.82,337.65,22.9Z" style="fill:#1d394f"/><path d="M356.61,27.06c.1,0,3.93-1.49,4.1,2.52s-3.9,3.35-3.91,3.24S356.61,27.06,356.61,27.06Z" style="fill:#f9ae83"/><path d="M358,31.25a.38.38,0,0,1,.2.09.8.8,0,0,0,.26.05.75.75,0,0,0,.26-.05,1.7,1.7,0,0,0,.74-1.58,2.17,2.17,0,0,0-.24-1,.8.8,0,0,0-.55-.52.34.34,0,0,0-.24,0,.4.4,0,0,0-.16.18v.2s-.09-.06-.07-.23a.61.61,0,0,1,.15-.26.54.54,0,0,1,.38-.12,1,1,0,0,1,.46.2.92.92,0,0,1,.3.4,2.23,2.23,0,0,1,.29,1.1,1.85,1.85,0,0,1-.95,1.78.91.91,0,0,1-.33,0,.76.76,0,0,1-.32-.11C358,31.34,358,31.26,358,31.25Z" style="fill:#c97355"/><path d="M345,34.36a6.27,6.27,0,0,0,1.3-1.07,4.87,4.87,0,0,0,.55-1c.12-.29.21-.48.25-.46s0,.21,0,.52a2.91,2.91,0,0,1-.52,1.18,2.48,2.48,0,0,1-1,.78A1.15,1.15,0,0,1,345,34.36Z" style="fill:#c97355"/><path d="M361.94,20.56a20.23,20.23,0,0,1-1.48-4.68c-.46-1.57-1.34-3.21-2.89-3.76a4.29,4.29,0,0,0-2.18-.37,4.22,4.22,0,0,0-2.07.77,5.46,5.46,0,0,0-4.14-4.27,13.66,13.66,0,0,0-7.25.57,14.9,14.9,0,0,0-4.74,3.68,19.91,19.91,0,0,0-2,2.48l-1.77,5.46a2.37,2.37,0,0,0-.5.5.9.9,0,0,0-.2.34,1,1,0,0,0-.07.39,1.07,1.07,0,0,0,.33.71,1.06,1.06,0,0,0,.74.27,1,1,0,0,0,.7-.33h0a8,8,0,0,1,.46.93h0v.06c.09.19.19.39.3.58l1.37,6c.09-1.65,0-7.38.05-9a9.14,9.14,0,0,0,6.54-3c.9-1,1.61-2.24,2.81-2.83,1.55-.77,3.4-.21,5,.35l-.07-.06A7,7,0,0,1,353.14,17a22.93,22.93,0,0,0,1,9.66c.15.46.57,1.42,1,1.6.9.35,1.14-.57,1.68-1.05a2.4,2.4,0,0,1,1.64-.41,35.39,35.39,0,0,0,1.1-4.16,3.59,3.59,0,0,0,1.69.11c-.18-.41-.35-.82-.52-1.24a2,2,0,0,0,.72.33.65.65,0,0,0,.39,0,.64.64,0,0,0,.29-.25C362.33,21.21,362.12,20.86,361.94,20.56Z" style="fill:#1d394f"/><path d="M337.61,25.14c.12.12.79-.43,1.77-.45s1.71.45,1.82.32-.08-.27-.39-.49a2.43,2.43,0,0,0-2.87.1C337.65,24.86,337.55,25.08,337.61,25.14Z" style="fill:#1d394f"/><path d="M338.16,27.08a.84.84,0,0,0,.26.53.85.85,0,0,0,.56.21.77.77,0,0,0,.3-.06.82.82,0,0,0,.25-.16.9.9,0,0,0,.17-.26.58.58,0,0,0,.05-.29.79.79,0,0,0-.26-.54.8.8,0,0,0-.56-.2.93.93,0,0,0-.29.05.74.74,0,0,0-.25.17.7.7,0,0,0-.17.25A.8.8,0,0,0,338.16,27.08Z" style="fill:#1d394f"/><path d="M333.72,48.8,312.57,62.65,299.68,52.59l-4,6.36s7.51,8.69,10.29,11.64,4.63,4.52,6.82,4.24,20.49-7.4,20.49-7.4L336.06,48l-1.16.28a3.74,3.74,0,0,0-1.18.51Z" style="fill:#ffbc4f"/><path d="M357.33,44.07c-4.73,3-9.5,4.1-14.33,2.17l-7.26,1.85-3.53,6.14a5.62,5.62,0,0,0-.73,3.19l1.39,23.49-4.28,14.92,41.9.37-2.07-11.09-5.14-39.84Z" style="fill:#ffbc4f"/><path d="M363.74,63.15l-1.31-18s9.86.91,13.12,7.87c2.75,5.86,11,22.91,11.82,25.32,2.38,7.08-2,17.41-17.36,16.85l-1.73-9.62Z" style="fill:#ffbc4f"/><path d="M371.61,78.12a6,6,0,0,0,.25.71c.17.43.42,1,.71,1.66l.74,1.65c.1.23.2.45.32.67a2.9,2.9,0,0,0-.24-.7c-.17-.43-.42-1-.71-1.67l-.74-1.64a4.27,4.27,0,0,0-.33-.68Z" style="fill:#bf7811"/><path d="M366.16,64s.06-1.14.06-2.55a19.31,19.31,0,0,0-.06-2.55,19.31,19.31,0,0,0-.06,2.55C366.1,62.83,366.13,64,366.16,64Z" style="fill:#bf7811"/><path d="M367.61,56.31a1.61,1.61,0,0,0,.09-.29c.05-.18.13-.45.23-.77a13.92,13.92,0,0,1,1.1-2.42,12.25,12.25,0,0,1,1.58-2.13c.23-.25.43-.45.57-.58l.2-.22-.24.18a6.69,6.69,0,0,0-.59.56,11.62,11.62,0,0,0-1.62,2.13,12,12,0,0,0-1.08,2.46c-.09.32-.16.59-.2.78s0,.2,0,.3Z" style="fill:#bf7811"/><path d="M332.82,55.2a1.61,1.61,0,0,1,.05.58v1.61c0,1.36-.15,3.23-.32,5.28s-.24,3.93-.21,5.28a10,10,0,0,0,.07,1.59,2.91,2.91,0,0,1,0,.59,2.29,2.29,0,0,1-.11-.58c-.06-.37-.11-.92-.15-1.6a42.59,42.59,0,0,1,.13-5.3c.17-2.06.34-3.92.4-5.27,0-.67.05-1.22.06-1.6a2.8,2.8,0,0,1,.08-.58Z" style="fill:#bf7811"/><path d="M377.9,81.43a5,5,0,0,1-.68.38c-.44.23-1.06.58-1.83,1s-1.66,1-2.71,1.56c-.53.27-1.09.54-1.68.8l-1.83.76-.56.23.07-.14c.41,2.55.75,4.83,1,6.48l.27,1.94a3.45,3.45,0,0,1,.07.72,5.47,5.47,0,0,1-.16-.7c-.09-.5-.2-1.15-.34-1.94-.29-1.64-.66-3.91-1.07-6.46V86h.09l.57-.23,1.83-.75c.59-.26,1.14-.52,1.66-.78,1-.53,2-1.08,2.74-1.51s1.42-.77,1.87-1l.53-.22C377.83,81.45,377.89,81.42,377.9,81.43Z" style="fill:#bf7811"/><path d="M380.13,78.35s-.5.14-1.26.42a10.27,10.27,0,0,0-2.76,1.59,9.75,9.75,0,0,0-2.08,2.4c-.43.7-.62,1.18-.66,1.16a1.4,1.4,0,0,1,.1-.35,5.53,5.53,0,0,1,.41-.89,8.68,8.68,0,0,1,4.93-4,5,5,0,0,1,1-.23C380,78.34,380.13,78.33,380.13,78.35Z" style="fill:#bf7811"/><path d="M364.17,96l10.3-24.83a1.32,1.32,0,0,0,.19-.72,1.38,1.38,0,0,0-.21-.72,1.4,1.4,0,0,0-.56-.49,1.34,1.34,0,0,0-.74-.13h-2.07a1.53,1.53,0,0,1-.52,0,1.42,1.42,0,0,1-.47-.25,1.29,1.29,0,0,1-.33-.4,1.33,1.33,0,0,1-.16-.5l-.07-.91a1.08,1.08,0,0,0-.15-.5,1.2,1.2,0,0,0-.33-.41,1.31,1.31,0,0,0-.47-.24,1.28,1.28,0,0,0-.52,0h-9.84a3.39,3.39,0,0,0-2.28,1l-.8.78a3.48,3.48,0,0,1-2.28,1H340.33a3.45,3.45,0,0,0-1.78.6,3.58,3.58,0,0,0-1.22,1.45L327.13,96Z" style="fill:#ff725e"/><path d="M364.17,96l10.3-24.83a1.32,1.32,0,0,0,.19-.72,1.38,1.38,0,0,0-.21-.72,1.4,1.4,0,0,0-.56-.49,1.34,1.34,0,0,0-.74-.13h-2.07a1.53,1.53,0,0,1-.52,0,1.42,1.42,0,0,1-.47-.25,1.29,1.29,0,0,1-.33-.4,1.33,1.33,0,0,1-.16-.5l-.07-.91a1.08,1.08,0,0,0-.15-.5,1.2,1.2,0,0,0-.33-.41,1.31,1.31,0,0,0-.47-.24,1.28,1.28,0,0,0-.52,0h-9.84a3.39,3.39,0,0,0-2.28,1l-.8.78a3.48,3.48,0,0,1-2.28,1H340.33a3.45,3.45,0,0,0-1.78.6,3.58,3.58,0,0,0-1.22,1.45L327.13,96Z" style="fill:#e23b5b"/><path d="M365.87,87.57l3.89-15a1.43,1.43,0,0,0,.07-.68,1.59,1.59,0,0,0-.23-.64,1.57,1.57,0,0,0-.49-.47,1.51,1.51,0,0,0-.65-.21H338a1.38,1.38,0,0,0-.84.33,1.43,1.43,0,0,0-.45.79l-5.66,22.59c-.24,1,.15,1.59,1,1.57H362.7a1.44,1.44,0,0,0,.84-.33,1.37,1.37,0,0,0,.44-.78Z" style="fill:#e0e0e0"/><path d="M363.77,95.32l1.65-23.67a1.32,1.32,0,0,0-.08-.59,1.52,1.52,0,0,0-.3-.5,1.61,1.61,0,0,0-.48-.34,1.43,1.43,0,0,0-.58-.12H332.45V95.29Z" style="fill:#ececec"/><path d="M364.12,95.86l-3.75-24.37a1.7,1.7,0,0,0-.61-1,1.75,1.75,0,0,0-1.1-.38h-31.9a1.58,1.58,0,0,0-.82.2,1.65,1.65,0,0,0-.63.57,1.71,1.71,0,0,0-.16,1.64L332,94.84Z" style="fill:#fafafa"/><path d="M364.17,96l-7.73-22.82a2.3,2.3,0,0,0-2.16-1.59H321.4a1.68,1.68,0,0,0-.72.19,1.65,1.65,0,0,0-.55.5,1.76,1.76,0,0,0-.27.7,1.69,1.69,0,0,0,.07.74L327.13,96Z" style="fill:#ff4964"/><g style="opacity:0.30000001192092896"><path d="M348.28,92.17l1.82.1a17,17,0,0,0,8-1.42,3,3,0,0,0,1.09-.63,3.08,3.08,0,0,0,.73-1,2.64,2.64,0,0,0-.17-1.39,2.54,2.54,0,0,0-.88-1.09A21,21,0,0,1,356.65,85a2.09,2.09,0,0,1-.61-1.24,2.12,2.12,0,0,1,.31-1.35l.17.13c.44,1.12,1.68,1.67,2.71,2.31a9.5,9.5,0,0,1,4,5.25,4.13,4.13,0,0,1,.29,1.81,4.2,4.2,0,0,1-.54,1.76A4.49,4.49,0,0,1,360.81,95a22.39,22.39,0,0,1-7.8,1H349.6c-.81-.22-1.07-.64-1.56-1.33a2.16,2.16,0,0,1-.29-1.31,2.14,2.14,0,0,1,.53-1.23Z" style="opacity:0.30000001192092896;isolation:isolate"/></g><path d="M348.28,92.17l8.58-1.29L360.19,89a1.55,1.55,0,0,0,.54-.51,1.44,1.44,0,0,0,.22-.7h0a1.46,1.46,0,0,0-.25-.88,1.41,1.41,0,0,0-.7-.57c-1.05-.45-2.73-1-3.44-2.29-1-1.8,0-2.17,0-2.17l7.16,2.8,5.07,3.45,1,5.76-7.07,2.31s-7.88.44-10.06.2-2.17-1.26-2.17-1.26a2.13,2.13,0,0,1-.79-.58,2.05,2.05,0,0,1-.42-.88c-1.06-1-1-1.46-1-1.46" style="fill:#f9ae83"/><path d="M359.28,94.65a1.12,1.12,0,0,0-.35.06c-.22.06-.55.13-1,.21a21.34,21.34,0,0,1-3.2.38,20.29,20.29,0,0,1-3.21-.13,5.83,5.83,0,0,1-1-.13,1.09,1.09,0,0,0-.36,0,2.25,2.25,0,0,0,.35.09,8.75,8.75,0,0,0,1,.18,17.46,17.46,0,0,0,3.23.18,18.22,18.22,0,0,0,3.21-.43c.4-.09.72-.18.94-.25a1.68,1.68,0,0,0,.39-.16Z" style="fill:#eb996e"/><path d="M358.46,93.32a1.53,1.53,0,0,0-.36.07l-1,.21a20.71,20.71,0,0,1-3.24.35,22.18,22.18,0,0,1-3.26-.15l-1-.13a1.09,1.09,0,0,0-.36,0,2.25,2.25,0,0,0,.35.09c.23.06.56.12,1,.19a19.94,19.94,0,0,0,3.27.19,18.74,18.74,0,0,0,3.26-.4c.41-.1.74-.18,1-.26A2.68,2.68,0,0,0,358.46,93.32Z" style="fill:#eb996e"/><path d="M210.89,43.67H161.45A9.45,9.45,0,0,0,152,53.12v49.44a9.45,9.45,0,0,0,9.45,9.44h49.44a9.45,9.45,0,0,0,9.45-9.44V53.12A9.45,9.45,0,0,0,210.89,43.67Z" style="fill:#fff"/><path d="M197.87,28.72a5.42,5.42,0,0,0-2.28-3.32c-.56-.33-1.2-.51-1.77-.82a20.4,20.4,0,0,1-1.92-1.39,6.76,6.76,0,0,0-2.66-1.09,6.9,6.9,0,0,0-2.86.11,6.8,6.8,0,0,0-4.38,3.5c-1.34-1-3.66-.59-5.24,0a6,6,0,0,0-3.29,4.1l7.38,2.25a20,20,0,0,0,5.07,4.17,10.38,10.38,0,0,0,6.36,1.29,7,7,0,0,0,5.23-3.6,7.36,7.36,0,0,0,.36-5.2Z" style="fill:#1d394f"/><path d="M203.14,53.3a4.45,4.45,0,0,0,.93-6.11c-.41-.54-1-1-1.08-1.71a3.3,3.3,0,0,1,.18-1.25,7.33,7.33,0,0,0-2.69-7.46c0-1.52-.9-4.74-2.83-6l-8.77,1.29q.6,13.86-.08,27.74a6.86,6.86,0,0,0,.65,4.13c1.1,1.68,3.39,2,5.4,2.08a16.16,16.16,0,0,0,5.7-.67,7,7,0,0,0,4.24-3.66C206,58.94,204.75,55.78,203.14,53.3Z" style="fill:#1d394f"/><path d="M176.38,34.6l-.27-2,11.58-3.54c3.61-.8,8,2.4,8.63,6a65.4,65.4,0,0,1,1.31,12.09c-.26,6.22-4.85,7.54-4.85,7.54l.47,3.68a6.85,6.85,0,0,1-5.9,7.62h0a6.82,6.82,0,0,1-7.61-5.87Z" style="fill:#ffbe9d"/><path d="M195.52,39.63a.79.79,0,0,1-.15.57.88.88,0,0,1-.51.31.61.61,0,0,1-.3,0,1,1,0,0,1-.28-.11,1.1,1.1,0,0,1-.21-.22.94.94,0,0,1-.1-.28.81.81,0,0,1,.15-.57.82.82,0,0,1,.51-.3.61.61,0,0,1,.3,0,.66.66,0,0,1,.27.12.63.63,0,0,1,.21.22A.69.69,0,0,1,195.52,39.63Z" style="fill:#1d394f"/><path d="M195.32,37.8c-.08.11-.73-.26-1.57-.16s-1.41.59-1.51.5,0-.23.27-.46a2.13,2.13,0,0,1,2.49-.27C195.26,37.58,195.37,37.75,195.32,37.8Z" style="fill:#1d394f"/><path d="M187.66,40.7a.78.78,0,0,1-.16.57.85.85,0,0,1-.51.31,1,1,0,0,1-.3,0,.77.77,0,0,1-.28-.12.8.8,0,0,1-.2-.21.82.82,0,0,1-.11-.28.81.81,0,0,1,.16-.58.74.74,0,0,1,.51-.29.61.61,0,0,1,.3,0,.66.66,0,0,1,.27.12.63.63,0,0,1,.21.22.69.69,0,0,1,.11.28Z" style="fill:#1d394f"/><path d="M187.06,38.91c-.09.11-.73-.26-1.57-.16s-1.41.59-1.52.5,0-.23.28-.46a2.06,2.06,0,0,1,1.19-.53,2.09,2.09,0,0,1,1.27.26C187,38.69,187.1,38.86,187.06,38.91Z" style="fill:#1d394f"/><path d="M190.84,44.81a4.94,4.94,0,0,1,1.34-.41c.21,0,.41-.11.43-.26a1.14,1.14,0,0,0-.22-.62L191.56,42a28.54,28.54,0,0,1-1.92-4.12,28.5,28.5,0,0,1,2.25,4l.8,1.58a1.27,1.27,0,0,1,.21.83.45.45,0,0,1-.12.21.48.48,0,0,1-.2.14,2.42,2.42,0,0,1-.36.1,6.38,6.38,0,0,1-1.38.12Z" style="fill:#c97355"/><path d="M192.77,54.69a16.18,16.18,0,0,1-8.63-1.23s2.55,4,8.81,2.75Z" style="fill:#eb996e"/><path d="M190.71,46.88a1.44,1.44,0,0,0-.66-.39,1.51,1.51,0,0,0-.76,0,1.26,1.26,0,0,0-.52.22,1.36,1.36,0,0,0-.38.41.88.88,0,0,0-.16.5.93.93,0,0,0,.16.5,1.08,1.08,0,0,0,.54.25,1.09,1.09,0,0,0,.59-.1,3.27,3.27,0,0,0,1-.77,1.09,1.09,0,0,0,.21-.27.32.32,0,0,0,0-.16.27.27,0,0,0,0-.16" style="fill:#eb996e"/><path d="M188.42,45.68c.14,0,.25.89,1.1,1.45s1.82.34,1.85.47-.2.2-.61.26a2.41,2.41,0,0,1-1.53-.34,2,2,0,0,1-.87-1.22C188.28,45.92,188.36,45.68,188.42,45.68Z" style="fill:#c97355"/><path d="M186.9,35.58c-.06.24-.91.23-1.89.46s-1.74.6-1.9.41,0-.32.34-.58a3.25,3.25,0,0,1,1.37-.67,3,3,0,0,1,1.52,0C186.72,35.31,186.92,35.47,186.9,35.58Z" style="fill:#1d394f"/><path d="M194.73,35.4c-.12.21-.73.08-1.43.15s-1.27.27-1.43.09,0-.29.24-.51a1.93,1.93,0,0,1,1.12-.44,1.91,1.91,0,0,1,1.19.25C194.68,35.11,194.79,35.3,194.73,35.4Z" style="fill:#1d394f"/><path d="M177.69,28.47c-1.2.4-2.55,3.67-2.2,4.89a3.8,3.8,0,0,0,1,1.55,3.71,3.71,0,0,0,1.66.85,7.2,7.2,0,0,0,3.74-.24c1.71-.52,3.51-1.7,3.63-3.48a7.06,7.06,0,0,0,3,1.73,6.92,6.92,0,0,0,3.5.06c2.29-.59,4-4.09,4.63-6.37Z" style="fill:#1d394f"/><path d="M242.52,52.11a1.26,1.26,0,0,0,.36-.24,1,1,0,0,0,.24-.36,1.09,1.09,0,0,0,.08-.43,1,1,0,0,0-.09-.42l-3.76,1.13a14.8,14.8,0,0,0,3-1.64c1-.84.51-1.57.51-1.57L239,50.06l-2.19,1.29-5.49,8.38s4.29,2.1,5.05,1.49c1.34-1.06,2.07-3.43,2.36-4.64a17.4,17.4,0,0,0,2.69-1,2.61,2.61,0,0,0,.81-.91l-3,.57a16.76,16.76,0,0,0,3.42-1.41c.39-.6.15-.86.15-.86l-3.76.58.39-.28Z" style="fill:#ffbe9d"/><path d="M228.69,60.83,216.06,72.4c-1.57-.37-20.8-11.86-20.8-11.86l-3,14.79s19.68,9,25.1,8a4.92,4.92,0,0,0,3.25-1.46c4.29-5.62,13.49-19.4,13.49-19.4Z" style="fill:#ffbe9d"/><path d="M237.27,60.25,235,59.15l1.64-3,1.29-2.73,2-3.72-3.05,1.16a2.46,2.46,0,0,0-.92.71l-5,6.93-2.22,2.27,2.15,5.77,2.52-3.93,1.48-.35A4.52,4.52,0,0,0,237.27,60.25Z" style="fill:#ffbe9d"/><path d="M233.61,55.56a18.33,18.33,0,0,1,3.27-1.28,2.67,2.67,0,0,1,1.12-.15.94.94,0,0,1,.53.2,1,1,0,0,1,.33.47,1.15,1.15,0,0,1-.09.63,1.08,1.08,0,0,1-.43.47,4.39,4.39,0,0,1-1.23.43,2.18,2.18,0,0,0-1.14.6,3.52,3.52,0,0,0-.47,1.13,4.09,4.09,0,0,1-1.14,1.62,4,4,0,0,1-1.77.88" style="fill:#ffbe9d"/><path d="M232.59,60.55s.2-.06.55-.2a4,4,0,0,0,1.31-.86,3.92,3.92,0,0,0,.67-.85,5.5,5.5,0,0,0,.46-1.16,1.88,1.88,0,0,1,.34-.64,1.58,1.58,0,0,1,.62-.43c.47-.21,1-.26,1.44-.44a1.58,1.58,0,0,0,.58-.41.84.84,0,0,0,.22-.6.94.94,0,0,0-.3-.54.87.87,0,0,0-.58-.2,3.07,3.07,0,0,0-1.2.21,9.77,9.77,0,0,0-1,.33c-.64.23-1.15.43-1.49.58a5.25,5.25,0,0,1-.55.22,1.76,1.76,0,0,1,.51-.3c.34-.17.84-.4,1.47-.64.32-.13.67-.25,1-.37a3.49,3.49,0,0,1,1.28-.19,1.1,1.1,0,0,1,.69.25.75.75,0,0,1,.27.29A.89.89,0,0,1,239,55a1.37,1.37,0,0,1-.27.75,1.41,1.41,0,0,1-.66.47c-.51.21-1,.25-1.44.44a1.28,1.28,0,0,0-.55.37,1.76,1.76,0,0,0-.31.57,5.77,5.77,0,0,1-.49,1.18,4,4,0,0,1-.72.88,4.16,4.16,0,0,1-1.39.82l-.43.11Z" style="fill:#eb996e"/><path d="M193.83,102.15H167.94a66.58,66.58,0,0,0-6.35,9.84l36.91.15C199.22,110.94,193.83,102.15,193.83,102.15Z" style="fill:#1d394f"/><path d="M201.48,78.62a70.16,70.16,0,0,0-3.75-18.87l-4.48-1.38c-.68,3-5.51,3.94-8.26,2.65l-2.91-1.52c-9.33-1.4-8.85-.63-11,.67-1.87,1.12-1.7,9.53-1.7,9.53s-4.65,21.91-4.4,25.42,3,7,3,7h25.85c2.6,0,3.35-5.88,3.17-8S201.77,82.43,201.48,78.62Z" style="fill:#23b781"/><path d="M176.9,85.92a2.21,2.21,0,0,0,.43.37,8.16,8.16,0,0,0,3.55,1.44,7.86,7.86,0,0,0,2.82-.12,9.33,9.33,0,0,0,4.4-2.55,12.35,12.35,0,0,0,1-1.17,2.41,2.41,0,0,0,.3-.48A18.65,18.65,0,0,1,188,84.92a9.62,9.62,0,0,1-4.32,2.42,7.89,7.89,0,0,1-4.89-.45C177.56,86.39,176.93,85.87,176.9,85.92Z" style="fill:#263238"/><g style="opacity:0.30000001192092896"><path d="M189,84a7.55,7.55,0,0,1-2.68,5.06,6.26,6.26,0,0,1-2.62,1.26,6.4,6.4,0,0,1-2.92,0,5.48,5.48,0,0,1-2.46-1.51A5.37,5.37,0,0,1,177,86.19a16.31,16.31,0,0,0,4.13,1.43,8.22,8.22,0,0,0,4.56-.69,8.11,8.11,0,0,0,3.44-3.07l-.21.22" style="opacity:0.30000001192092896;isolation:isolate"/></g><path d="M159.43,78.06l13,6.12s5.32-11.77,5.78-13.38,1.89-4.15.42-7.51-5.41-4.58-7.6-3.15C166.19,63.36,159.43,78.06,159.43,78.06Z" style="fill:#23b781"/><path d="M200.45,78.71c.61,0,7.61,3.66,7.61,3.66l4-13.19c-6-4-10.83-8.49-14.31-9.43l1.83,10.9Z" style="fill:#23b781"/><path d="M159.43,78.06a.79.79,0,0,1,.26.08l.72.32L163,79.65l8.66,4,1.06.49-.16,0c1.5-3.09,2.82-5.87,3.76-7.87.45-1,.81-1.78,1.09-2.38.11-.26.21-.47.29-.63a1,1,0,0,1,.12-.23,1.35,1.35,0,0,1-.08.24c-.05.15-.13.37-.25.67-.23.57-.57,1.39-1,2.4-.89,2-2.19,4.8-3.69,7.92v.11h-.11l-1.06-.49-8.63-4-2.6-1.25-.71-.35C159.51,78.14,159.42,78.06,159.43,78.06Z" style="fill:#263238"/><path d="M199.25,67.88a5.79,5.79,0,0,1,.27.8c.18.57.41,1.32.69,2.24a26.62,26.62,0,0,1,1.43,7.55,16.7,16.7,0,0,1-.7,4.21c-.36,1.25-.78,2.35-1.14,3.26s-.67,1.66-.88,2.17a8.53,8.53,0,0,1-.35.78.74.74,0,0,1,0-.21l.21-.61c.2-.56.48-1.29.81-2.18s.74-2,1.08-3.28a16.06,16.06,0,0,0,.67-4.14A28.7,28.7,0,0,0,200,71c-.27-1-.48-1.71-.61-2.25-.07-.27-.11-.47-.14-.61a.81.81,0,0,1,0-.22Z" style="fill:#263238"/><path d="M188.22,65.25a8.55,8.55,0,0,0-2.57-5.06A4.62,4.62,0,0,1,184,57.88c-.17-1.23.89-2.38.72-3.61-.22-1.53-2.14-2.19-2.82-3.58-.92-1.87.68-4.3-.31-6.13-.59-1.1-2-1.69-2.3-2.92-.18-.79,1.32-1.94,1.67-3.65.79-3.86,1.19-6.85-2.55-9.09l-2.19-3a8.1,8.1,0,0,0-4.56,6.7c0,1.33.66,2.67.09,3.86-.81,1.67-2.69,2.7-3.26,4.47-.82,2.53,1.42,5.36.45,7.83-.58,1.45-2.1,2.28-3,3.52a5.4,5.4,0,0,0,.32,6.78,6.75,6.75,0,0,0-2.52,3.38,6.84,6.84,0,0,0,0,4.22,3.17,3.17,0,0,0,.89,1.54,3.27,3.27,0,0,0,1.59.81c1.73.09,2.71-1.86,4-3a5.36,5.36,0,0,1,7.28.19c1.33,1.38,1.86,3.45,3.41,4.58a4.5,4.5,0,0,0,2.74.73,4.57,4.57,0,0,0,2.64-1,6,6,0,0,0,2-5.25Z" style="fill:#1d394f"/><path d="M171.19,83.38c-2.47,4.06-4.19,6.39-4.19,6.39l22.16,13.49-2.58,6L157.84,97.43S155,94.52,156,91.27l4.59-12.65Z" style="fill:#ffbe9d"/><path d="M161.61,91.83a12.26,12.26,0,0,1,5.56-2.06,7.2,7.2,0,0,0-5.56,2.06Z" style="fill:#eb996e"/><path d="M206.35,107.38l-5.53-2.66L190,103.88l-.88-.62-2.58,6a17.68,17.68,0,0,0,4.3,1.49l9.16-.29,4.74.5Z" style="fill:#ffbe9d"/><path d="M237.44,86.06l-31.09.25a2,2,0,0,0-2.13,1.48l-3.39,22.65h-16a1,1,0,0,0-.6.31.95.95,0,0,0,0,1.26,1,1,0,0,0,.6.31H236l3.5-23.92a1.91,1.91,0,0,0-.05-.89,2,2,0,0,0-.42-.78,2.08,2.08,0,0,0-.72-.52,2,2,0,0,0-.87-.15Z" style="fill:#d8d8d8"/><path d="M220.58,100.88a1.95,1.95,0,1,0-2-1.95A2,2,0,0,0,220.58,100.88Z" style="fill:#fff"/><path d="M202.09,112.14s1-5.76,2.21-12.89,2.09-12.9,2-12.92-1,5.77-2.21,12.89S202,112.12,202.09,112.14Z" style="fill:#263238"/></g></svg>