<svg id="Layer_1" data-name="Layer 1" xmlns="http://www.w3.org/2000/svg" xmlns:xlink="http://www.w3.org/1999/xlink" viewBox="0 0 298 136"><defs><clipPath id="clip-path"><rect width="298" height="136" style="fill:none"/></clipPath></defs><g style="clip-path:url(#clip-path)"><rect width="298" height="136" style="fill:#fff"/><path d="M298,0H0V136H298Z" style="fill:#32e6f9"/><path d="M297.76,43.65C274.42,26.18,258.9,13,224,7,169-2.35,110.31,88.35,76.34,83,38.85,77,0,54.55,0,54.55v61.74H297.76Z" style="fill:#37d9f4"/><path d="M80.08,93.79a6.41,6.41,0,0,1,3.38-5.6,5.61,5.61,0,0,1,3.23-.46,5.75,5.75,0,0,1,3,1.4,8.48,8.48,0,0,1,5.65-6.83,7.87,7.87,0,0,1,8.2,2.62,4.37,4.37,0,0,1,4.57-1.38A5,5,0,0,1,110.19,85a4.94,4.94,0,0,1,1.07,2.36,7.95,7.95,0,0,1,9.47-1,9.53,9.53,0,0,1,4.16,9.31C109.48,94.57,94,94.54,80.08,93.79Z" style="fill:#38be83"/><path d="M99,96.6,90.62,64a1.4,1.4,0,0,0-.22-.44,1.3,1.3,0,0,0-.83-.48,1.15,1.15,0,0,0-.49,0h0l-3.22,1a1.33,1.33,0,0,0-.46.27,1.07,1.07,0,0,0-.31.42l-1.65,3.47h-2L75,56.62a2.83,2.83,0,0,0-1.25-1.17A2.74,2.74,0,0,0,72,55.22l-11.57,2a3.69,3.69,0,0,1-3.65-2.4C55.62,52.38,48,33.2,46.51,28.47a1.8,1.8,0,0,0-.42-.7,1.73,1.73,0,0,0-.7-.42L40.2,25.67a1.68,1.68,0,0,0-1.17,0,1.77,1.77,0,0,0-.89.77c-1.45,2.6-4.84,8.46-6.16,8.86a28.12,28.12,0,0,1-5.64.51L21.61,20.61a1.69,1.69,0,0,0-.3-.6,1.78,1.78,0,0,0-.51-.44,1.84,1.84,0,0,0-.65-.21,1.69,1.69,0,0,0-.67.05l-.27.1L-11.93,33.18a1.28,1.28,0,0,0-.45.35,1,1,0,0,0-.24.52,71.9,71.9,0,0,1-1.6,7.27c-.42,1-9.7,6.65-13.22,8.77a4.65,4.65,0,0,0-1.88,2.29L-47,93.37Z" style="fill:#8d8183"/><path d="M72,55.19,67.58,67.06a11.19,11.19,0,0,0-.68,3.07L64.71,93.39l-12.65,0,.3-22.17a15.13,15.13,0,0,1,1.44-5.1l6.65-8.88Z" style="fill:#6b6162"/><path d="M67.55,66.65l-2.3,28.62-2.08,0L63,66.65Z" style="fill:#635a5c"/><path d="M67.51,66.64H52.66a4,4,0,0,0-2,1.52,4,4,0,0,0-.73,2.43V95.32H64.61V70.6S64.5,66.78,67.51,66.64Z" style="fill:#32e6f9"/><path d="M64.63,70.34c0-.87.34-3.58,2.88-3.69H52.66a4,4,0,0,0-1.95,1.42,4,4,0,0,0-.8,2.27Z" style="fill:#b6fcff"/><path d="M58.18,66.68s-1.25.2-1.25,3.51V88.84a1.21,1.21,0,0,0,.09.53,1.25,1.25,0,0,0,.31.44,1.3,1.3,0,0,0,.41.24,1.39,1.39,0,0,0,.46.07,1.08,1.08,0,0,0,.49-.15,1,1,0,0,0,.37-.34,1.39,1.39,0,0,0,.25-.81V70.19s0-3.52,1.43-3.54Z" style="fill:#b6fcff"/><path d="M59.25,70.34v-.15s0-3.52,1.44-3.54H58.16s-1.26.21-1.26,3.52v.14Z" style="fill:#fff"/><path d="M52.87,66.68s-1.15.2-1.15,3.51V83.11a1.34,1.34,0,0,0,.37,1,.89.89,0,0,0,.34.23,1,1,0,0,0,.41.07.86.86,0,0,0,.46-.14.93.93,0,0,0,.33-.35,1.34,1.34,0,0,0,.22-.78V70.19s0-3.52,1.29-3.54Z" style="fill:#b6fcff"/><path d="M53.85,70.34v-.15s0-3.52,1.29-3.54H52.87s-1.15.21-1.15,3.52v.14Z" style="fill:#fff"/><path d="M-29.37,52.35a.84.84,0,0,1,.18-.28.8.8,0,0,1,.28-.2.73.73,0,0,1,.33-.08,1,1,0,0,1,.33.06.81.81,0,0,1,.36.25c1.73,2,6.06,2,13,3.09,5,.77,8.07,1.32,9.86,1.67a1.79,1.79,0,0,1,1.17.78A1.88,1.88,0,0,1-3.57,59a2.76,2.76,0,0,1-.08.27C-4.6,62-6,66.52-4.85,67.13c1.61.87,21.39,8.35,24.3,10.76s4.21,15.59,4.21,15.59L-47,93.42Z" style="fill:#6b6162"/><path d="M40.25,25.67a1.71,1.71,0,0,0-1.18,0,1.77,1.77,0,0,0-.89.77c-.72,1.29-3,5-3,5S33.09,35,32,35.31s4.45,0,4.45,0Z" style="fill:#6b6162"/><path d="M224.93,7a52.68,52.68,0,0,0-31.17,9.08C179,26.46,189.93,43.36,206,43S228.8,40.57,238.34,47,229,59.69,219.26,61.44s-11.61,20.92,35.16,21.42c40.81.4,43.34,4.21,43.34,4.21V43.65C272,21.55,244.74,8.19,224.93,7Z" style="fill:#34e0f7;opacity:0.8999999761581421;isolation:isolate"/><path d="M279.36,75.61c.11-.51.57-.53.72-.06l1.07,3-.48.24c-.1,0-.05.16.06.15l.54-.06,2.61,7.28-1.07.53c-.13.08-.1.19.06.16l1.22-.11,1.69,4.74-9.18.81,1.45-8.71h.69c.14,0,.14-.13,0-.17l-.65-.29Z" style="fill:#0e8e5d"/><path d="M266.93,68.65c.19-.83,1-.86,1.31-.11l1.84,4.79-.86.37c-.18.08-.11.27.1.25l1-.09,4.48,11.75-1.95.88c-.21.12-.16.31.12.26l2.13-.22L278,94.2l-16.18,1.43,2.68-14.14,1.21-.09c.24,0,.24-.19.08-.27l-1.14-.46Z" style="fill:#23b781"/><path d="M298.09,89.83s-98.5,8.62-155.44,45.46l155.43.42Z" style="fill:#38be84"/><path d="M298,136H0V87s57.14.77,118.79,5.83C189.84,98.66,298,136,298,136Z" style="fill:#23b781"/><path d="M0,136.25V123.09s188.85-5.28,298,9.36v3.8Z" style="fill:#3ecc8e"/><path d="M78.66,128.74a9.23,9.23,0,0,1,4.42-7.93,7.2,7.2,0,0,1,8.23,1.07,5.55,5.55,0,0,1,9.4.65c5.24-6,15.12-5,19.37,1.94a6.15,6.15,0,0,1,4-5.23,5.2,5.2,0,0,1,5.72,2.37c.89-5.33,5.6-9.49,10.36-9.13s8.92,5.13,9.24,10.54a9.55,9.55,0,0,1,12.89,2.29,6.32,6.32,0,0,1,8.21-3.49l.46.21c3.11,1.56,5,5.29,5.72,9s.29,7.7-.1,11.53c-33.44-4-63.76-3.43-97.35-1.43C80.52,137.6,78.65,137.48,78.66,128.74Z" style="fill:#00707a"/><path d="M247.67,65.47H174.48V96.2h73.19Z" style="fill:#fceae8"/><path d="M174.47,65.47,206.35,96.2l-63.78,5.64V96.2Z" style="fill:#9c2740"/><path d="M247.66,65.47,279.54,96.2H215.76Z" style="fill:#fceae8"/><path d="M279.54,96.2H199.3v40.67h80.24Z" style="fill:#94214f"/><path d="M142.57,100.9v36h63.78V101.32L174.47,71.2Z" style="fill:#d4375c"/><path d="M237.36,68.05H197.44l25.21,24.52H259.8Z" style="fill:#41859a"/><path d="M237.17,68.55H198.68L223,92.19h35.82Z" style="fill:#1f4e59"/><path d="M236.91,68.93H199.07L223,92.18H258.2Z" style="fill:#41a7c0"/><path d="M236,69h-12l6.29,23.18h13.15Z" style="fill:#56c0d7"/><path d="M222.16,69h-2.94l4,23.18h4.14Z" style="fill:#56c0d7"/><path d="M206.94,68.43h-.53L229.1,92.32h.53Z" style="fill:#41859a"/><path d="M214.55,68.43H214L236.7,92.32h.54Z" style="fill:#41859a"/><path d="M222.15,68.43h-.53l22.69,23.89h.53Z" style="fill:#41859a"/><path d="M229.76,68.43h-.53l22.69,23.89h.54Z" style="fill:#41859a"/><path d="M244.1,75.77l-.4-.42H205.21l.43.42Z" style="fill:#41859a"/><path d="M251.87,83.94l-.38-.43H213.72l.44.43Z" style="fill:#41859a"/><path d="M256.21,99.06h-13.1v17.3h13.1Z" style="fill:#271329"/><path d="M177.42,79.81h-6.26V90.25h6.26Z" style="fill:#fceae8"/><path d="M176.68,81.05h-4.76v8h4.76Z" style="fill:#271329"/><path d="M315.21,141.7a10.52,10.52,0,0,0-5.11-9.44,9.24,9.24,0,0,0-5.24-1,9.34,9.34,0,0,0-4.93,2.08,14,14,0,0,0-8.72-11.63,12.94,12.94,0,0,0-13.67,3.67,7.13,7.13,0,0,0-7.37-2.62,8.1,8.1,0,0,0-5.53,6.06,13,13,0,0,0-15.4-2.39c-5,2.72-8.15,9-7.52,14.93C267,140.69,292.33,141.9,315.21,141.7Z" style="fill:#179668"/><path d="M187.37,47.84h.92v16.9h-.92Z" style="fill:#178ea6"/><path d="M187.37,48.06h.92V54l-.92-1.35Z" style="fill:#006776"/><path d="M187,63.18h1.76a1.47,1.47,0,0,1,1.05.43,1.49,1.49,0,0,1,.44,1V75.15l-4.74-4.64V64.65A1.49,1.49,0,0,1,187,63.18Z" style="fill:#41a7c0"/><path d="M189.42,48a1.63,1.63,0,0,1-.27.88,1.55,1.55,0,0,1-.71.58,1.57,1.57,0,0,1-.91.09,1.55,1.55,0,0,1-.81-.44,1.57,1.57,0,0,1-.43-.8,1.61,1.61,0,0,1,.09-.92,1.58,1.58,0,0,1,.58-.7,1.55,1.55,0,0,1,.88-.27A1.57,1.57,0,0,1,189.42,48Z" style="fill:#fff"/><path d="M187,63.18h1.81v.12c0,2.48-1.22,4.51-2.71,4.51a1.71,1.71,0,0,1-.59-.11v-3a1.49,1.49,0,0,1,.44-1,1.45,1.45,0,0,1,1.05-.43Z" style="fill:#56c0d7"/><path d="M189.1,40.84a6.57,6.57,0,0,1,5.12,5.1,7.27,7.27,0,0,1,.14,2.08A3.09,3.09,0,0,1,191,50.75h0a4.72,4.72,0,0,0,1.3-4.24,4.7,4.7,0,0,0-2.81-3.44,4.6,4.6,0,0,0-2.26-.34,4.69,4.69,0,0,0-2.16.77,4.7,4.7,0,0,0-2.1,3.91v.35a3.09,3.09,0,0,1-.82-.87,3.16,3.16,0,0,1-.42-1.12,3.23,3.23,0,0,1,0-1.2,3.07,3.07,0,0,1,.51-1.08,6.7,6.7,0,0,1,6.83-2.65Z" style="fill:#fff"/><path d="M187.66,34.85A12.56,12.56,0,0,1,200.21,47.4a2.61,2.61,0,0,1-.5,1.48,2.66,2.66,0,0,1-1.26.93l-.6.2a10.15,10.15,0,0,0,.34-2.63,10.52,10.52,0,0,0-19.95-4.68,3.38,3.38,0,0,1,.49-4.09,12.52,12.52,0,0,1,8.93-3.76Z" style="fill:#fff"/><path d="M205.4,45.06c-.14.16-.29.33-.45.49a17.38,17.38,0,0,0-29.16-10.86V33.9a3.56,3.56,0,0,1,.48-1.74,3.52,3.52,0,0,1,1.28-1.29A19.19,19.19,0,0,1,187.68,28a19.5,19.5,0,0,1,18.57,13.65,3.58,3.58,0,0,1,0,1.81,3.64,3.64,0,0,1-.87,1.6Z" style="fill:#fff"/></g></svg>