<svg id="Layer_1" data-name="Layer 1" xmlns="http://www.w3.org/2000/svg" xmlns:xlink="http://www.w3.org/1999/xlink" viewBox="0 0 298 136"><defs><clipPath id="clip-path"><rect width="298" height="136" style="fill:none"/></clipPath></defs><g style="clip-path:url(#clip-path)"><rect width="298" height="136" style="fill:#fff"/><path d="M298,0H0V136H298Z" style="fill:#32e6f9"/><path d="M297.76,43.65C274.42,26.18,258.9,13,224,7,169-2.35,110.31,88.35,76.34,83,38.85,77,0,54.55,0,54.55v61.74H297.76Z" style="fill:#37d9f4"/><path d="M-11.93,86.79a5.22,5.22,0,0,1,.75-2.69,5.28,5.28,0,0,1,2-1.92,4.76,4.76,0,0,1,2.66-.38A4.65,4.65,0,0,1-4.07,83,7,7,0,0,1,.58,77.34a6.48,6.48,0,0,1,6.75,2.15A3.61,3.61,0,0,1,9,78.36a3.67,3.67,0,0,1,2.05,0,4.1,4.1,0,0,1,2.64,3.16,6.52,6.52,0,0,1,7.78-.81,7.82,7.82,0,0,1,3.43,7.66C12.26,87.43-.46,87.41-11.93,86.79Z" style="fill:#38be83"/><path d="M224.93,7a52.68,52.68,0,0,0-31.17,9.08C179,26.46,189.93,43.36,206,43S228.8,40.57,238.34,47,229,59.69,219.26,61.44s-11.61,20.92,35.16,21.42c40.81.4,43.34,4.21,43.34,4.21V43.65C272,21.55,244.74,8.19,224.93,7Z" style="fill:#34e0f7;opacity:0.8999999761581421;isolation:isolate"/><path d="M49.37,75.61c.1-.51.56-.53.71-.06l1.07,3-.48.24c-.1,0-.05.16.06.15l.54-.06,2.61,7.28-1.07.53c-.13.08-.1.19.06.16l1.22-.11,1.69,4.74-9.18.81,1.45-8.71h.7c.13,0,.13-.13,0-.17l-.66-.29Z" style="fill:#0e8e5d"/><path d="M36.93,68.65c.19-.83,1-.86,1.31-.11l1.84,4.79-.86.37c-.18.08-.11.27.1.25l1-.09,4.48,11.75-1.95.88c-.21.12-.16.31.12.26l2.13-.22L48,94.2,31.81,95.63l2.68-14.14,1.21-.09c.24,0,.24-.19.08-.27l-1.14-.46Z" style="fill:#23b781"/><path d="M298.09,89.83s-98.5,8.62-155.44,45.46l155.43.42Z" style="fill:#38be84"/><path d="M298,136H0V87s57.14.77,118.79,5.83C189.84,98.66,298,136,298,136Z" style="fill:#23b781"/><path d="M0,136.25V123.09s188.85-5.28,298,9.36v3.8Z" style="fill:#3ecc8e"/><path d="M23,136.72a9.78,9.78,0,0,1,4.51-8.67,8.79,8.79,0,0,1,9.37.87,13,13,0,0,1,7.8-10.75,11.63,11.63,0,0,1,12.49,3.12,6.21,6.21,0,0,1,6.59-2.43,7.12,7.12,0,0,1,5.2,5.38,11.89,11.89,0,0,1,14-2.43,14.61,14.61,0,0,1,7.11,13.53C66.89,135.34,43.83,136.72,23,136.72Z" style="fill:#179668"/><path d="M159.26,102.14H98.77v35.58h60.49Z" style="fill:#d3ebef"/><path d="M158,103.14H99.77v33.44H158Z" style="fill:#40a0be"/><path d="M157.26,105H100.62v12.66h56.64Z" style="fill:#4ab3cd"/><path d="M123.39,129.61v-.43a.14.14,0,0,0-.14-.14v-.14l-.14-.15-.14-.14-.15-.14h-.28l-.14-.14-.15-.15a.14.14,0,0,1-.14-.14h0l.14-.14c.15,0,.15-.14.29-.29l.14-.14v-1h0s0-.15-.14-.15l-.14-.14a.14.14,0,0,0-.15-.14,3,3,0,0,0-1.28-1,8.37,8.37,0,0,0,.86-2.7v-1c-.14-.28-.14-.57-.43-.85s-.43-.43-.57-.57a2.7,2.7,0,0,0-1.85-.29,1.07,1.07,0,0,0,.14-1.13c-.28-.43-.71-.57-1-.29v-.57a.28.28,0,0,0-.43-.14h-.14a2.87,2.87,0,0,0-1.57-3,3.64,3.64,0,0,0-3.41.43c-.15-.29-.43-.57-.71-.43a.62.62,0,0,0-.15-.71h-.14a1,1,0,0,0-.85.28,4.73,4.73,0,0,1-.29-1.42.75.75,0,0,0-.28-.57.64.64,0,0,0-.71,0l-.29.14H109l-.14.15h-.14l-.15.14-.14.14-.14.14-.14.15-.15.14-.14.14-.14.14-.14.15-.15.14-.14.14a5,5,0,0,0-1.14,2.28c0,.14-.14.42-.14.57a.51.51,0,0,1-.14.42l-.29.29a.63.63,0,0,0-.14.71,1.45,1.45,0,0,0-.57,1,2.94,2.94,0,0,0-.57-.85l-.14-.14H103l-.14.14-.29.29v.14l-.28.28-.14.29c-.57,1.14.28,2.56.28,4-.14-.14-.28.29-.28.43s.28.43.14.71a.52.52,0,0,0-.71.29v.14c0-.29-.43-.29-.57-.14s-.29.42-.14.71a6.94,6.94,0,0,0,.14,1.7.52.52,0,0,0,.14.43.53.53,0,0,0,.14.43.52.52,0,0,0,.15.43c0,.14.14.28.14.42v.15l.14.28c.14.14.14.28.29.28l.28.29a.54.54,0,0,0,0,.85c-.14-.28-.71-.14-.85.29a1.28,1.28,0,0,0,.42,1,4.64,4.64,0,0,0,5,1.28c-.15.15-.29.29-.29.43a2.74,2.74,0,0,0,2.14,0,2.43,2.43,0,0,0,1,.14,6,6,0,0,0,1.57-.14,3.29,3.29,0,0,1,.57.86c-.15.71-.72,1.28-1.14,1.28H113a7.26,7.26,0,0,1-.71-1.85c.14-.29.14-.43.29-.72a6.6,6.6,0,0,0,1.71.15c.28,0,.71-.15,1-.15a12.17,12.17,0,0,0,6,.72c.28,0,.43-.15.71-.29a.63.63,0,0,0,.14-.71l-.14-.14-.14-.14h-.14l-1.14-.29a4.19,4.19,0,0,0,1.14-.57c.14-.14.28-.14.42-.28l.43-.43a1.83,1.83,0,0,0,.57-.85v-.29C124,129.32,123.39,129.61,123.39,129.61Zm-13.66,4-.57-.14c.43-.14.71-.29,1.14-.43l.28.14a1.07,1.07,0,0,0,.57.29A4.41,4.41,0,0,1,109.73,133.59Zm1.28-.85-.14-.14c.28-.15.71-.29,1-.43v.28c0,.29.14.71.14,1A4.4,4.4,0,0,1,111,132.74Zm1.28.28c0-.28-.14-.57-.14-.85h.14l.86.14a6.35,6.35,0,0,0-.86,1Zm2.14,0a5,5,0,0,1-1.43-.14c.15-.14.29-.28.43-.43a15,15,0,0,1,1.85.57Z" style="fill:#178ea6"/><path d="M120.4,118.51c.57.85,1.43-1.43,1.43-1.43S119.84,117.51,120.4,118.51Z" style="fill:#178ea6"/><path d="M120.12,117.37c.85.28.43-2,.43-2S119,116.94,120.12,117.37Z" style="fill:#178ea6"/><path d="M113,113.53c.86.42.57-2,.57-2S111.86,113,113,113.53Z" style="fill:#178ea6"/><path d="M112.15,112.53c.85-.29-.57-2-.57-2S111,112.81,112.15,112.53Z" style="fill:#178ea6"/><path d="M103.75,116.66c.86-.29-.42-2-.42-2S102.61,116.94,103.75,116.66Z" style="fill:#178ea6"/><path d="M105.6,115.38s-1.7.85-.85,1.7S105.6,115.38,105.6,115.38Z" style="fill:#178ea6"/><path d="M102.76,117.37c.42-1-1.85-.57-1.85-.57S102.19,118.93,102.76,117.37Z" style="fill:#178ea6"/><path d="M149.58,131.6v-.43l-.14-.14-.15-.14h0l.15-.14.28-.15a.14.14,0,0,1,.15-.14v-.85l-.15-.15a1.69,1.69,0,0,0-.85-.71,4.85,4.85,0,0,0,.71-2v-.57a.73.73,0,0,0-.29-.57l-.42-.42a2,2,0,0,0-1.28-.15.67.67,0,0,0,.14-.85.51.51,0,0,0-.71-.28v-.43c-.14-.14-.29-.29-.29-.14a1.91,1.91,0,0,0-1.13-2.14,2.87,2.87,0,0,0-2.42.29c0-.29-.29-.43-.57-.29a.28.28,0,0,0-.15-.43h-.14a.84.84,0,0,0-.57.15l-.14-1c0-.14-.14-.29-.14-.43a.27.27,0,0,0-.43,0c-.14,0-.28.14-.43.14l-.14.15c-.14,0-.14.14-.28.14l-.15.14-.28.14-.14.15-.14.14-.15.14-.14.14-.14.15-.14.14v.28a.15.15,0,0,1-.15.15l-.14.28-.14.29c0,.14-.14.28-.14.42s0,.14-.14.29c-.15,0-.15.14-.29.14a.44.44,0,0,0,0,.57.78.78,0,0,0-.43.71c-.14-.28-.14-.43-.28-.57l-.14-.14h-.43l-.14.14-.15.14-.14.15-.14.28c-.14.14-.29.28-.29.43-.42.85.15,1.85,0,2.84a.3.3,0,0,0-.28.29c0,.14.14.28,0,.42-.14-.14-.43,0-.57.15v.14a.27.27,0,0,0-.43-.14c-.14.14-.14.28-.14.57v1.85a.51.51,0,0,0,.14.42c0,.15,0,.15.15.29v.14c0,.14.14.14.14.28V132c.14.14.14.28.28.28a.44.44,0,0,0,0,.57c-.14-.28-.42-.14-.57.14a36.18,36.18,0,0,1-1-3.7V129c-.14-.57-.14-1.14-.29-1.71v-9a9.27,9.27,0,0,0,1.85-1.56h.29a1.51,1.51,0,0,0,1.28-1.14h.43a.14.14,0,0,0,.14-.14l.14-.14v-.57a1.13,1.13,0,0,0,1.42-.29,1.35,1.35,0,0,0,.29-1.42c.28-.14.43-.14.57-.29s.42-.28.57-.42l.28-.29a2.82,2.82,0,0,0,.57-.85.31.31,0,0,1,.28-.29c.15,0,.29-.14.43-.14a1.59,1.59,0,0,0,1.14-.43,1.35,1.35,0,0,0,.57-.71c0-.14.14-.14.14-.28a2.26,2.26,0,0,0-.85-2.28,1.28,1.28,0,0,0,.57-1.14,5.89,5.89,0,0,0,.14-1.56,2.69,2.69,0,0,0-.28-1H123a6.09,6.09,0,0,0-.43,1c0,.14-.14.28-.14.42v1.28l.28.29c.14.14.14.28.29.28,0,.15.14.29.14.43a.53.53,0,0,0,.14.43c0,.14,0,.14.14.28s.15.14.15.14.14.15.28.15c-.14.14-.14.14-.14.28v.14s0,.15.14.15c-.28,0-.43.57-.28.85a2,2,0,0,0,.28.85l.14.15.15.14c.14,0,.14.14.28.14h.14a.49.49,0,0,1,.14.29v.14a.49.49,0,0,1-.14.28l-.14.15a2.81,2.81,0,0,0,0,2.13A1.85,1.85,0,0,0,126.1,115c0,.28.42.43.85.28.14,0,.29,0,.29-.14v.14h1.7l.29-.14.14-.14a1,1,0,0,0,.57-.71h.29a9.73,9.73,0,0,1,2.41,4c0,.86.15,2.14.15,3.42v6.83c0,.14.14.28.14.57v4.27c0,.14,0,.28-.14.28-.72,1.85-1.43,1.14-1.43,2.14h6l-.28-.14h-.15l-.28-.15h-.14l-.29-.14-.71-.28a1.17,1.17,0,0,1-.57-.57c-.14-.29-.14-.57-.28-.86v-.71c0,.14.14.14.14.28a3.33,3.33,0,0,0,3.56,1c-.15,0-.14.14-.29.29a3,3,0,0,0,1.57,0c.28,0,.42.14.71.14a3.19,3.19,0,0,0,1.14-.14c.14.14.28.42.43.57-.15.42-.57,1-.86,1h1.71c-.14-.42-.29-.85-.43-1.28,0-.14.14-.28.29-.43h1.13a1.33,1.33,0,0,0,.72-.14,9.33,9.33,0,0,0,4,.57h.29a1.06,1.06,0,0,0,.56-.28c.15-.15.15-.29.15-.57l-.15-.14a.48.48,0,0,0-.28-.15l-.85-.28.85-.43.28-.28.29-.29c.14-.14.29-.43.43-.57v-.14C149.87,131.46,149.72,131.6,149.58,131.6Zm-17.36-15.09-2.28-2.27.14-.14a.79.79,0,0,1,.71-.43,1.08,1.08,0,0,0,1.14.85,1.86,1.86,0,0,0,.14.86v.14A2.61,2.61,0,0,1,132.22,116.51Zm.42-.57.43.29a2.07,2.07,0,0,0,.86.28,6,6,0,0,1-1.29.72Zm7.12,18.65h-.43l.86-.43.28.14.29.29A1.23,1.23,0,0,1,139.76,134.59Zm.85-.43a.77.77,0,0,1,.57-.28v.28a6.32,6.32,0,0,1,.14.71A1.65,1.65,0,0,0,140.61,134.16Zm.86.29v-.86h.14l.57.15A1.8,1.8,0,0,1,141.47,134.45Zm1.56-.15a2.43,2.43,0,0,1-1-.14c.14-.14.14-.28.28-.42l1.28.42C143.46,134.3,143.32,134.3,143,134.3Z" style="fill:#178ea6"/><path d="M158.55,103.28H99.77v.85h58.78Z" style="fill:#178ea6"/><path d="M158.55,135.87H99.77v.85h58.78Z" style="fill:#178ea6"/><path d="M110.44,103.71h-.85v33.72h.85Z" style="fill:#178ea6"/><path d="M119.27,103.14h-.86v33.44h.86Z" style="fill:#178ea6"/><path d="M128.09,103.14h-1.42v32h1.42Z" style="fill:#007c8d;opacity:0.33000001311302185;isolation:isolate"/><path d="M120,102.57h-.86v34.86H120Z" style="fill:#d3ebef"/><path d="M120,106l-.86.14v31.31H120Z" style="fill:#96c0c7"/><path d="M141.61,102.57h-.85v34.86h.85Z" style="fill:#d3ebef"/><path d="M98.77,102.14,82.55,83.21H79.84L66.32,102.14v35.58H98.77Z" style="fill:#b3d4db"/><path d="M142.89,83.21H82.41l16.36,19.07h60.49Z" style="fill:#d3ebef"/><path d="M97.63,102.85,82,84.92H80.13L67.32,102.85v33.73H97.63Z" style="fill:#178ea6"/><path d="M98.63,131.88h0v-.71l-.14-.14-.14-.14h0l.14-.14c.14,0,.14-.15.28-.15l.14-.14v-1a.14.14,0,0,0-.14-.14l-.14-.14a3.81,3.81,0,0,0-.85-.71,5,5,0,0,0,.71-1.85v-.57a.71.71,0,0,0-.29-.57l-.42-.43a2,2,0,0,0-1.28-.14.67.67,0,0,0,.14-.85.52.52,0,0,0-.71-.29v-.42c0-.15-.15-.15-.29-.15a2,2,0,0,0-1.14-2.13,2.88,2.88,0,0,0-2.42.28c0-.28-.28-.42-.57-.28a.27.27,0,0,0-.14-.43h-.14a.87.87,0,0,0-.57.14c0-.28-.14-.71-.14-1s-.14-.29-.14-.43H90c-.14,0-.29.14-.43.14l-.14.14c-.14,0-.14.15-.29.15l-.14.14-.28.14-.14.14-.15.15v.14l-.14.14v.29l-.14.14v.28s0,.15-.14.15v.28c0,.14-.15.14-.15.28s-.14.29-.14.43,0,.14-.14.29a.49.49,0,0,1-.29.14c-.14.14-.14.28-.14.57a.78.78,0,0,0-.42.71c-.15-.28-.15-.43-.29-.57l-.14-.14h-.43l-.14.14-.14.14-.15.15-.14.28c-.14.14-.28.28-.28.43-.43.85.14,1.85,0,2.84-.14-.14-.29.14-.29.29s.15.28,0,.42c-.14-.14-.42,0-.57.15v.14a.26.26,0,0,0-.42-.14c-.15.14-.15.28-.15.57v1.85a.66.66,0,0,0,.15.42h0c0,.15.14.15.14.29v.14c0,.14.14.14.14.28l.14.15.29.28a.44.44,0,0,0,0,.57c-.14-.28-.43,0-.57.14a28.54,28.54,0,0,1-1-3.7V129c-.14-.57-.14-1.14-.28-1.71v-8.25a10,10,0,0,0,1.85-1.57h.28A1.51,1.51,0,0,0,86,116.37h.43a.14.14,0,0,0,.14-.14l.15-.14s0-.15.14-.15v-.28a1.37,1.37,0,0,0,1.42-.28,1.76,1.76,0,0,0,.29-1.43c.28-.14.42-.14.56-.28s.43-.29.57-.43L90,113a3.05,3.05,0,0,0,.57-.86.3.3,0,0,1,.28-.28h.43a1.6,1.6,0,0,0,1.14-.43,1.5,1.5,0,0,0,.57-.71c0-.14,0-.14.14-.29a2.36,2.36,0,0,0-.85-2.27,1.31,1.31,0,0,0,.56-1.14,2.79,2.79,0,0,0,.15-1.57,2.49,2.49,0,0,0-.29-1l-.42-.43c-.15-.14-.29-.14-.43-.28l-.14-.15c0-.14-.15-.28-.15-.42V103l-.14-1.13v-.15c0-.14,0-.28-.14-.28a.14.14,0,0,0-.14-.14H90a.3.3,0,0,0-.29-.29h-.14v-.85l-.14-.43v-1c0-.14-.14-.28-.14-.42V98a.14.14,0,0,0-.15-.14v-.43L89,97.3l-.14-.14V97c-.14-.15-.14-.29-.28-.29s-.29-.28-.43-.28a2.86,2.86,0,0,0-3-.15c-.14,0-.14.15-.28.15h-.15l-.14-.15h-.28c.14-.28-.15-.56-.43-.71a2.07,2.07,0,0,0-.86-.28h-.28a1.09,1.09,0,0,0-.57.28v.15c0,.14-.14.28-.28.42-.29.29-.86.29-1.14.57a2,2,0,0,1-.57.43,1.31,1.31,0,0,1-.71.14.39.39,0,0,0-.29.57,2.83,2.83,0,0,0-2.56.57,5.09,5.09,0,0,0-1.42,2.13c0,.15-.14.29-.14.43v.43c0,.14.14.28.14.43a.51.51,0,0,1,.14.42c0,.29-.14.71-.43.71l-.14-.14-.14-.14h-.43c-.14,0-.14,0-.28.14l-.29.14a3.54,3.54,0,0,0-.57.72,3,3,0,0,0-.57,1.13c0,.15-.14.29-.14.43v1.28l.29.29c.14.14.14.28.28.28s.14.29.14.43a.51.51,0,0,0,.14.42c0,.15,0,.15.15.29l.14.14c.14,0,.14.14.28.14-.14,0-.14.15-.14.29V109a.14.14,0,0,0,.14.14c-.28,0-.42.57-.28.86a2,2,0,0,0,.28.85l.15.14.14.15c.14,0,.14.14.28.14h.15a.49.49,0,0,1,.14.28v.15a.49.49,0,0,1-.14.28l-.15.14a2.49,2.49,0,0,0,0,2A2.51,2.51,0,0,0,76,115.23a.64.64,0,0,0,.86.29l.28-.14v.14h1.71l.28-.14.14-.15a1.35,1.35,0,0,0,.57-.71h.43a8.9,8.9,0,0,1,2.42,4,31.49,31.49,0,0,0,.14,3.41v6.69c0,.14.14.29.14.57v4.27s0,.29-.14.29c-.71,1.7-1.42,1.13-1.42,2h6l-.29-.14H87l-.28-.15h-.15l-.28-.14-.71-.29a1.08,1.08,0,0,1-.57-.56c-.14-.29-.14-.57-.29-.86v-.85c0,.14.15.14.15.28a3.32,3.32,0,0,0,3.55,1c-.14,0-.14.14-.28.28a2.75,2.75,0,0,0,1.56,0c.29,0,.43.15.72.15a2.94,2.94,0,0,0,1.13-.15c.15.15.29.43.43.57-.14.43-.43,1-.85,1h1.7l-.42-1.28c.14-.14.14-.29.28-.43h1.14a1.28,1.28,0,0,0,.71-.14,9.36,9.36,0,0,0,4,.57h.28a1,1,0,0,0,.57-.29c.14-.14.14-.28.14-.56l-.14-.15c-.14,0-.14-.14-.28-.14l-.86-.29.86-.42.28-.29.43-.28a2.21,2.21,0,0,0,.43-.57v-.14ZM81.55,117.65v-1.28l.43.29a2,2,0,0,0,.85.28C82.55,117.08,82.12,117.37,81.55,117.65ZM79,114.81c.28-.29.57-.57.85-.57a1.08,1.08,0,0,0,1.14.85,1.8,1.8,0,0,0,.14.85h.15v1C80.56,116.23,79.84,115.52,79,114.81Zm9.82,19.78h-.43a2.09,2.09,0,0,1,.86-.29l.28.15c.14.14.29.14.29.28A2.14,2.14,0,0,1,88.81,134.59Zm.85-.57.57-.28V134c0,.28.15.43.15.71Zm.86.28v-.56h.14l.57.14a1.35,1.35,0,0,0-.57.71Zm1.56,0a2.43,2.43,0,0,1-1-.14c.14-.14.28-.28.28-.42l1.28.42C92.51,134.3,92.37,134.3,92.08,134.3Z" style="fill:#007c8d"/><path d="M96.92,123.91c.43.57,1.14-1,1.14-1S96.5,123.2,96.92,123.91Z" style="fill:#007c8d"/><path d="M96.78,123.06c.57.29.28-1.42.28-1.42S95.93,122.78,96.78,123.06Z" style="fill:#007c8d"/><path d="M91.8,120.21c.57.29.43-1.42.43-1.42S90.94,119.93,91.8,120.21Z" style="fill:#007c8d"/><path d="M91.23,119.64c.71-.14-.43-1.42-.43-1.42S90.38,119.79,91.23,119.64Z" style="fill:#007c8d"/><path d="M85.11,122.49c.57-.14-.28-1.42-.28-1.42S84.26,122.78,85.11,122.49Z" style="fill:#007c8d"/><path d="M85.68,122.78c.43.42.71-1.28.71-1.28S85.11,122.21,85.68,122.78Z" style="fill:#007c8d"/><path d="M83,122.63s.85,1.57,1.28.43C84.54,122.35,83,122.63,83,122.63Z" style="fill:#007c8d"/><path d="M80.13,135.16h.28c.15,0,.29-.15.43-.15a.51.51,0,0,0,.14-.42l-.14-.14H80.7l-.71-.29c.28-.14.42-.14.57-.28l.28-.15c.14,0,.14-.14.28-.28s.29-.29.29-.43v-.85l-.14-.14-.15-.15h.15l.14-.14.14-.14v-1.14l-.14-.14c-.29-.29-.57-.57-.71-.57a4.54,4.54,0,0,0,.57-1.42v-.86c0-.14-.15-.28-.15-.43s-.14-.28-.28-.28a2.14,2.14,0,0,0-1-.14c.15-.14.15-.43.15-.71s-.43-.29-.57-.15v-.28c0-.14-.15-.14-.29,0a1.46,1.46,0,0,0-.85-1.71,2.16,2.16,0,0,0-1.85.14c0-.14-.29-.28-.43-.28s0-.28-.14-.28a.53.53,0,0,0-.43.14,5.88,5.88,0,0,0-.14-.71c0-.15,0-.29-.14-.29h-.29l-.28.14h-.14l-.29.15-.14.14-.14.14-.15.14-.14.15-.14.14v.14l-.14.14-.15.14v.43l-.14.29c0,.14,0,.14-.14.14a.14.14,0,0,0-.14.14.27.27,0,0,0,0,.43.74.74,0,0,0-.29.57c0-.15-.14-.29-.28-.43h-.57l-.14.14-.15.14-.14.15-.14.14c-.28.71.14,1.42,0,2.13-.14,0-.14.15-.14.29s.14.28,0,.43c-.14-.15-.29,0-.43.14v.14c0-.14-.14-.14-.28-.14a.49.49,0,0,0-.15.42v1.71c0,.15,0,.15.15.29,0,.14,0,.14.14.28v.14l.14.15c0,.14.14.14.14.28a.27.27,0,0,0,0,.43.27.27,0,0,0-.42.14.87.87,0,0,0,.14.57,2.7,2.7,0,0,0,2.7.71c-.14,0-.14.14-.14.29a1.59,1.59,0,0,0,1.14,0,1.11,1.11,0,0,1,.57.14,1.82,1.82,0,0,0,.85-.14c.14.14.29.28.29.42-.15.43-.43.71-.72.71h1.29a2.49,2.49,0,0,1-.29-1,.31.31,0,0,1,.29-.29h1a.87.87,0,0,0,.57-.14C78.71,134.59,79.42,134.87,80.13,135.16ZM74,135h-.29l.57-.28.15.14.28.14Zm.71-.42.43-.29v.15c0,.14.14.28.14.56A1.86,1.86,0,0,1,74.72,134.59Zm.57.14v-.43h.14l.43.15a1.94,1.94,0,0,0-.43.56C75.43,134.87,75.43,134.73,75.29,134.73Zm1.28,0h-.85l.28-.28,1,.28Z" style="fill:#007c8d"/><path d="M80.27,126.76c.29.43.85-.71.85-.71S79.84,126.19,80.27,126.76Z" style="fill:#007c8d"/><path d="M80.13,126.19c.43.14.28-1.14.28-1.14S79.42,125.91,80.13,126.19Z" style="fill:#007c8d"/><path d="M76.29,124.06c.42.28.28-1.14.28-1.14S75.72,123.77,76.29,124.06Z" style="fill:#007c8d"/><path d="M75.86,123.49c.57-.14-.29-1.14-.29-1.14S75.15,123.63,75.86,123.49Z" style="fill:#007c8d"/><path d="M71.16,125.76c.43-.14-.14-1.13-.14-1.13S70.45,125.91,71.16,125.76Z" style="fill:#007c8d"/><path d="M72.16,125.05s-1,.43-.57,1S72.16,125.05,72.16,125.05Z" style="fill:#007c8d"/><path d="M70.45,126.19c.29-.57-1-.28-1-.28S70.17,126.9,70.45,126.19Z" style="fill:#007c8d"/><path d="M89.24,100c.28.43.85-.71.85-.71S89,99.44,89.24,100Z" style="fill:#007c8d"/><path d="M89.1,99.29c.42.15.28-1.14.28-1.14S88.53,99.15,89.1,99.29Z" style="fill:#007c8d"/><path d="M83.26,96c.43.14.28-1,.28-1S82.55,95.74,83.26,96Z" style="fill:#007c8d"/><path d="M82.69,95.59c.43-.14-.28-1-.28-1S82.12,95.74,82.69,95.59Z" style="fill:#007c8d"/><path d="M77.71,96.73c.43-.28-.57-.85-.57-.85S77.14,97.16,77.71,96.73Z" style="fill:#007c8d"/><path d="M78.28,96.87c.43.15.28-1,.28-1S77.57,96.59,78.28,96.87Z" style="fill:#007c8d"/><path d="M77.42,97.3c0-.57-1.13,0-1.13,0S77.42,98,77.42,97.3Z" style="fill:#007c8d"/><path d="M72.59,102.57c.42-.29-.86-.71-.86-.71S72,103,72.59,102.57Z" style="fill:#007c8d"/><path d="M73.16,102.43c.56.14,0-1.14,0-1.14S72.44,102.43,73.16,102.43Z" style="fill:#007c8d"/><path d="M89.81,103.71H89v32.87h.86Z" style="fill:#007c8d"/><path d="M76,103h-.85v33.59H76Z" style="fill:#007c8d"/><path d="M87,103h-.85v33.59H87Z" style="fill:#007c8d"/><path d="M80.13,84.92,67.32,102.85v33.73H68.6V102.85L81.27,84.92Z" style="fill:#007c8d"/><path d="M67.75,102.28H97.21L96.07,101H68.6Z" style="fill:#007c8d"/><path d="M142.18,84.06H84.68l14.8,17.37H157Z" style="fill:#2bb3cf"/><path d="M99.77,100.86,85.54,84.06h-.86l14.8,17.37H157l-.43-.57Z" style="fill:#178ea6"/><path d="M142.32,84.06H85.82a5.1,5.1,0,0,0,1,.86c5.83,3.7,21.63,7.68,40.56,9.82a212.59,212.59,0,0,0,25.19,1.42Z" style="fill:#44c6de"/><path d="M156.13,101.43H157l-14.8-17.37h-.85Z" style="fill:#178ea6"/><path d="M111.3,101.29,126,84.06h-.86l-14.66,17.23Z" style="fill:#178ea6"/><path d="M103.75,84.06,94.36,95l.43.57,9.82-11.53Z" style="fill:#178ea6"/><path d="M103.18,84.06l14.66,17.08h.86L104.18,84.06Z" style="fill:#178ea6"/><path d="M124.82,84.06l14.51,17.08h.86L125.67,84.06Z" style="fill:#178ea6"/><path d="M127.52,101.43h1.42l12.38-17.37H139.9Z" style="fill:#178ea6"/><path d="M143.6,99.72a2.74,2.74,0,0,0-.28-1l-.43-.42c-.14-.15-.28-.15-.43-.29,0-.14-.14-.28-.14-.42v-.15l-.14-1.14v-.42a.14.14,0,0,0-.14-.14H140.9c0-.15,0-.29-.14-.29s-.29-.14-.29,0V94.6l-.14-.43a.43.43,0,0,0-.14-.28v-.15c0-.14-.15-.28-.15-.42v-.15L139.9,93V92.6l-.14-.14-.14-.14-.29-.28-.42-.29a2.84,2.84,0,0,0-3-.14c-.15,0-.15.14-.29.14h-.14l-.14-.14h-.29c.15-.29-.14-.57-.42-.71a2,2,0,0,0-.86-.29H132.5a1,1,0,0,0-.57.29V91c0,.14-.14.28-.28.43-.29.28-.86.28-1.14.57s-.28.42-.57.42-.43.14-.71.14a.39.39,0,0,0-.29.57,2.83,2.83,0,0,0-2.56.57A5.12,5.12,0,0,0,125,95.88c0,.14-.14.28-.14.42v.43c0,.14.14.29.14.43a.52.52,0,0,1,.14.43c0,.28-.14.71-.42.71l-.15-.15H124c-.14,0-.14,0-.28.15l-.29.14a3.44,3.44,0,0,0-.57.71,3.06,3.06,0,0,0-.57,1.14c0,.14-.14.28-.14.43v1h20.78v-.14A2,2,0,0,0,143.6,99.72Z" style="fill:#178ea6"/><path d="M140.9,94.88c.28.43.85-.71.85-.71S140.47,94.45,140.9,94.88Z" style="fill:#178ea6"/><path d="M140.61,94.31c.43.14.29-1,.29-1S140,94.17,140.61,94.31Z" style="fill:#178ea6"/><path d="M134.78,90.9c.43.14.28-1,.28-1S134.21,90.75,134.78,90.9Z" style="fill:#178ea6"/><path d="M134.35,90.47c.43-.14-.28-1-.28-1S133.64,90.61,134.35,90.47Z" style="fill:#178ea6"/><path d="M129.23,91.75c.42-.28-.57-.85-.57-.85S128.66,92,129.23,91.75Z" style="fill:#178ea6"/><path d="M129.8,91.75c.43.14.28-1,.28-1S129.23,91.61,129.8,91.75Z" style="fill:#178ea6"/><path d="M128.94,92.32c0-.57-1.13,0-1.13,0S128.94,92.89,128.94,92.32Z" style="fill:#178ea6"/><path d="M124.11,97.59c.42-.29-.86-.72-.86-.72S123.68,98,124.11,97.59Z" style="fill:#178ea6"/><path d="M124.67,97.44c.57.15,0-1.14,0-1.14S124,97.3,124.67,97.44Z" style="fill:#178ea6"/><path d="M97.63,103H67.46v1H97.63Z" style="fill:#007c8d"/><path d="M97.63,135.59H67.46v1H97.63Z" style="fill:#007c8d"/><path d="M98.06,102.28H66.75v1H98.06Z" style="fill:#b3d4db"/><path d="M75.29,103h-.85v34.16h.85Z" style="fill:#b3d4db"/><path d="M86.25,103h-.86v34.16h.86Z" style="fill:#b3d4db"/><path d="M104.46,83.64h-.85l15.8,18.5h.85Z" style="fill:#d3ebef"/><path d="M126.1,83.64h-.86l15.8,18.5h.86Z" style="fill:#d3ebef"/><path d="M147.3,129.18a.83.83,0,0,1,.86.86v1.56a.86.86,0,0,1-1.71,0V130A.92.92,0,0,1,147.3,129.18Z" style="fill:#30393d"/><path d="M142.89,102.71a1.76,1.76,0,0,1,1.85,1.71v7.82A1.73,1.73,0,0,1,143,114h-.14a1.73,1.73,0,0,1-1.71-1.71v-7.82A1.84,1.84,0,0,1,142.89,102.71Z" style="fill:#f5eedb;opacity:0.5600000023841858;isolation:isolate"/><path d="M142.89,115.66a1.76,1.76,0,0,1,1.85,1.71v1.28a1.73,1.73,0,0,1-1.71,1.71h-.14a1.74,1.74,0,0,1-1.71-1.71v-1.28A1.84,1.84,0,0,1,142.89,115.66Z" style="fill:#f5eedb;opacity:0.5600000023841858;isolation:isolate"/><path d="M172.35,135.3H104.46v2.42h67.89Z" style="fill:#b3d4db"/><path d="M92.65,97.16l-3.56,4.13H90l3.13-3.7Z" style="fill:#007c8d"/><path d="M85.68,126.76H84.11v.43h1.57Z" style="fill:#b3d4db"/><path d="M85.68,115.94H84.11v.43h1.57Z" style="fill:#b3d4db"/><path d="M84.54,115.23H84v12.53h.57Z" style="fill:#b3d4db"/><path d="M180,42.22H155.13L135.77,64.43l.29.71h25.05Z" style="fill:#c0b3a4"/><path d="M211.06,93.46l-52.8-51.09L141.47,62.58v75h69.59Z" style="fill:#bd2424"/><path d="M211.06,110.68,141.47,79.8v57.78h69.59Z" style="fill:#cb2828"/><path d="M341.85,137.43h-81s27.19-30.31,60.49-29.31,81.55,29,81.55,29Z" style="fill:#fcaf44"/><path d="M277.52,93.32H210.35v44.11h67.17Z" style="fill:#ed4040"/><path d="M277.52,93.32H210.21l.14,9.67h67.17Z" style="fill:#ce2b2b"/><path d="M241.52,42.22h-84.4L210.35,94l79.27-.57Z" style="fill:#dcd8ce"/><path d="M233.41,42.22H186.73L216.18,94l44-.57Z" style="fill:#edebe3"/><path d="M210.49,93.46l-52.8-51.24h-1.56L210.07,94.6h79.41l.14-1.14Z" style="fill:#c0b3a4"/><path d="M176.19,91.89h-5v45.26h5Z" style="fill:#561a1a"/><path d="M171.35,92h-.85v45.25h.85Z" style="fill:#782626"/><path d="M196.12,92h-.57v45.25h.57Z" style="fill:#782626"/><path d="M248.78,115.09H233.69v6.12h15.09Z" style="fill:#edebe3"/><path d="M272.83,115.09H257.74v6.12h15.09Z" style="fill:#edebe3"/><path d="M236.68,48.91H173.21l40.13,39H272.4Z" style="fill:#41859a"/><path d="M236.39,49.77H175.2l38.71,37.57h56.92Z" style="fill:#1f4e59"/><path d="M236,50.34h-60.2l38.14,37h55.93Z" style="fill:#41a7c0"/><path d="M234.69,50.48H215.62l10,36.86H246.5Z" style="fill:#56c0d7"/><path d="M212.49,50.48h-4.7l6.4,36.86h6.55Z" style="fill:#56c0d7"/><path d="M188.29,49.48h-.85l36.15,38h.85Z" style="fill:#41859a"/><path d="M200.39,49.48h-.86l36.15,38h.86Z" style="fill:#41859a"/><path d="M212.49,49.48h-.86l36.15,38h.85Z" style="fill:#41859a"/><path d="M224.58,49.48h-.85l36.15,38h.85Z" style="fill:#41859a"/><path d="M247.49,61.15l-.71-.71H185.59l.71.71Z" style="fill:#41859a"/><path d="M259.88,74.1l-.71-.57H199.11l.71.57Z" style="fill:#41859a"/><path d="M247.92,115.94H234.54v4.42h13.38Z" style="fill:#882e2e"/><path d="M272,116.09H258.74v4.12H272Z" style="fill:#882e2e"/><path d="M197,91.61H150.58v1H197Z" style="fill:#561a1a"/><path d="M197.26,109h-1V126.9h1Z" style="fill:#561a1a"/><path d="M197.26,129.46h-1v7.83h1Z" style="fill:#561a1a"/><path d="M197.26,100.29h-1v6.4h1Z" style="fill:#561a1a"/><path d="M197.26,91.47h-1v6.4h1Z" style="fill:#561a1a"/><path d="M151.29,109h-1V126.9h1Z" style="fill:#561a1a"/><path d="M151.29,129.46h-1v7.83h1Z" style="fill:#561a1a"/><path d="M151.29,100.29h-1v6.4h1Z" style="fill:#561a1a"/><path d="M151.29,91.32h-1v6.41h1Z" style="fill:#561a1a"/><path d="M149.44,90.9v46.82h48.67V90.9ZM197,137.15H150.58V91.89H197Z" style="fill:#d6ccbe"/><path d="M166.73,139a8.16,8.16,0,0,1,3.88-7.27,7,7,0,0,1,7.76.73,10.69,10.69,0,0,1,6.54-9,9.82,9.82,0,0,1,10.55,2.66,5.57,5.57,0,0,1,5.57-2.06,6.48,6.48,0,0,1,4.37,4.61,10.16,10.16,0,0,1,11.75-2.06A12.06,12.06,0,0,1,223.09,138C203.7,137.79,184.31,139,166.73,139Z" style="fill:#23b781"/><rect x="149" y="76" width="39" height="11" rx="2.64" style="fill:#ebe3d9"/><path d="M154.1,83.93a1.16,1.16,0,0,0,.49-.09.76.76,0,0,0,.32-.22.87.87,0,0,0,.17-.33,1.36,1.36,0,0,0,0-.41,1.19,1.19,0,0,0,0-.39.71.71,0,0,0-.19-.31.78.78,0,0,0-.32-.19,1.29,1.29,0,0,0-.47-.07h-1v2Zm-1-4.87v2h.83a1.19,1.19,0,0,0,.81-.24.93.93,0,0,0,.27-.75,1,1,0,0,0-.25-.76,1.11,1.11,0,0,0-.77-.23Zm.89-1a3.25,3.25,0,0,1,.94.12,1.66,1.66,0,0,1,.64.37,1.34,1.34,0,0,1,.37.57,2.29,2.29,0,0,1,.12.76,1.7,1.7,0,0,1-.06.46,1.57,1.57,0,0,1-.18.42,1.41,1.41,0,0,1-.31.34,2,2,0,0,1-.45.27,1.44,1.44,0,0,1,1.16,1.52,2.38,2.38,0,0,1-.14.81,1.9,1.9,0,0,1-.39.64,2,2,0,0,1-.65.41,2.33,2.33,0,0,1-.87.15H152V78.08Z" style="fill:#022b55"/><path d="M159.38,83.9a1.16,1.16,0,0,0,1-.47,1.68,1.68,0,0,0,.25-.54,2.6,2.6,0,0,0,.09-.71v-4.1h1v4.1a3.72,3.72,0,0,1-.16,1.13,2.59,2.59,0,0,1-.46.89,2.09,2.09,0,0,1-.73.59,2.24,2.24,0,0,1-1,.21,2.19,2.19,0,0,1-1-.21,2.22,2.22,0,0,1-.74-.59,2.78,2.78,0,0,1-.46-.89,3.72,3.72,0,0,1-.16-1.13v-4.1h1v4.09a3,3,0,0,0,.08.71,1.87,1.87,0,0,0,.25.55,1.21,1.21,0,0,0,.41.34A1.08,1.08,0,0,0,159.38,83.9Z" style="fill:#022b55"/><path d="M169,78.08v6.84h-.92V80.5q0-.27,0-.57l-1.7,3.89a.41.41,0,0,1-.37.28h-.15a.4.4,0,0,1-.37-.28l-1.72-3.91c0,.11,0,.21,0,.31s0,.2,0,.28v4.42h-.92V78.08h.9l.1,0,.07.07a.72.72,0,0,1,.07.11l1.68,3.8.12.32a2.55,2.55,0,0,1,.11.33l.12-.34a3,3,0,0,1,.12-.32l1.66-3.79a.23.23,0,0,1,.07-.11l.07-.07.09,0H169Z" style="fill:#022b55"/><path d="M175.24,81.5a4.34,4.34,0,0,1-.2,1.38,3.44,3.44,0,0,1-.58,1.09,2.55,2.55,0,0,1-.9.7,2.64,2.64,0,0,1-1.17.25h-2.14V78.08h2.14a2.64,2.64,0,0,1,1.17.25,2.58,2.58,0,0,1,.9.71,3.28,3.28,0,0,1,.58,1.08A4.34,4.34,0,0,1,175.24,81.5Zm-1.07,0a3.89,3.89,0,0,0-.12-1,2.14,2.14,0,0,0-.36-.76,1.59,1.59,0,0,0-.56-.47,1.61,1.61,0,0,0-.74-.17H171.3v4.82h1.09a1.52,1.52,0,0,0,1.3-.64,2.14,2.14,0,0,0,.36-.76A3.89,3.89,0,0,0,174.17,81.5Z" style="fill:#022b55"/><path d="M177.22,79.09V81h2v1h-2v1.94h2.49v1h-3.54V78.08h3.54v1Z" style="fill:#022b55"/><path d="M183.64,79.32a.48.48,0,0,1-.1.15.2.2,0,0,1-.13,0,.27.27,0,0,1-.18-.07l-.23-.17a1.49,1.49,0,0,0-.31-.16,1,1,0,0,0-.41-.07,1,1,0,0,0-.38.06.8.8,0,0,0-.28.18.74.74,0,0,0-.16.27,1,1,0,0,0-.06.35.72.72,0,0,0,.11.4,1,1,0,0,0,.3.28,3.13,3.13,0,0,0,.41.2l.48.19q.24.11.48.24a1.7,1.7,0,0,1,.42.34,1.88,1.88,0,0,1,.29.5,2.24,2.24,0,0,1,.11.73,2.73,2.73,0,0,1-.13.87,2.42,2.42,0,0,1-.38.71,1.88,1.88,0,0,1-.61.47,2,2,0,0,1-.83.17,1.88,1.88,0,0,1-.53-.07,2.52,2.52,0,0,1-1-.46,1.85,1.85,0,0,1-.37-.37l.3-.61a.52.52,0,0,1,.1-.11.27.27,0,0,1,.14,0,.4.4,0,0,1,.21.1,3.28,3.28,0,0,0,.26.22,2.57,2.57,0,0,0,.37.21,1.09,1.09,0,0,0,.5.1.9.9,0,0,0,.69-.26A1,1,0,0,0,183,83a.74.74,0,0,0-.12-.44,1,1,0,0,0-.29-.29,2.22,2.22,0,0,0-.41-.19l-.48-.18a2.92,2.92,0,0,1-.47-.23,1.53,1.53,0,0,1-.42-.34,1.79,1.79,0,0,1-.3-.53,2.62,2.62,0,0,1-.1-.79,2,2,0,0,1,.12-.73,1.93,1.93,0,0,1,.35-.63,1.69,1.69,0,0,1,.58-.44,1.79,1.79,0,0,1,.78-.17,2.13,2.13,0,0,1,.92.19,2.11,2.11,0,0,1,.72.53Z" style="fill:#022b55"/></g></svg>