<svg xmlns="http://www.w3.org/2000/svg" xmlns:xlink="http://www.w3.org/1999/xlink" viewBox="0 0 298 136.27"><defs><clipPath id="clip-path"><rect width="298" height="136" style="fill:none"/></clipPath></defs><g id="Layer_2" data-name="Layer 2"><g id="Layer_1-2" data-name="Layer 1"><g style="clip-path:url(#clip-path)"><rect width="298" height="136" style="fill:#fff"/><path d="M298,0H0V136H298Z" style="fill:#32e6f9"/><path d="M297.76,43.65C274.42,26.18,258.9,13,224,7,169-2.35,110.31,88.35,76.34,83,38.85,77,0,54.55,0,54.55v61.74H297.76Z" style="fill:#37d9f4"/><path d="M25.26,65.35c.12-.56.62-.58.79-.06l1.18,3.27-.53.25c-.12,0-.06.18.06.17l.59-.07,2.87,8L29,77.49c-.14.09-.1.21.07.18l1.33-.13,1.87,5.2-10.08.9,1.59-9.57h.76c.15,0,.15-.13,0-.18l-.71-.32Z" style="fill:#0e8e5d"/><path d="M11.62,57.72c.21-.92,1.11-.95,1.44-.13l2,5.26-.95.4c-.2.1-.12.3.12.28l1-.1,4.92,12.9-2.14,1c-.23.14-.18.34.13.29l2.34-.24,3.22,8.41L6,87.32,8.94,71.81l1.33-.11c.26,0,.26-.21.09-.29l-1.25-.5Z" style="fill:#23b781"/><path d="M189.05,87.23a4.15,4.15,0,0,1,.59-2.09,4.08,4.08,0,0,1,1.57-1.49,3.69,3.69,0,0,1,2.07-.3,3.63,3.63,0,0,1,1.88.9,5.38,5.38,0,0,1,1.19-2.69,5.53,5.53,0,0,1,2.42-1.68,5,5,0,0,1,2.87.06A5.08,5.08,0,0,1,204,81.56a2.79,2.79,0,0,1,2.92-.89,3.17,3.17,0,0,1,1.36,1,3.21,3.21,0,0,1,.69,1.51,5.07,5.07,0,0,1,6-.63,6,6,0,0,1,2.2,2.59,6.15,6.15,0,0,1,.47,3.36C207.85,87.73,198,87.71,189.05,87.23Z" style="fill:#00707a"/><path d="M224.93,7a52.68,52.68,0,0,0-31.17,9.08C179,26.46,189.93,43.36,206,43S228.8,40.57,238.34,47,229,59.69,219.26,61.44s-11.61,20.92,35.16,21.42c40.81.4,43.34,4.21,43.34,4.21V43.65C272,21.55,244.74,8.19,224.93,7Z" style="fill:#34e0f7;opacity:0.8999999761581421;isolation:isolate"/><path d="M297.93,136.27H0V83.67s66-4.6,133.21-.41C189.73,86.78,298,89.51,298,89.51Z" style="fill:#ffbc4f"/><path d="M177.32,135.65v.62L221,136l.11.3h76.84V72.81a13.85,13.85,0,0,0-18.64,4.77,11.73,11.73,0,0,0-4.57-.92,12,12,0,0,0-5.86,1.56,11.79,11.79,0,0,0-4.32,4.24,16.21,16.21,0,0,0-25.65,19.1,11.9,11.9,0,0,0-9.13,10.86,14,14,0,0,0-10.35,6.49,11.88,11.88,0,0,0-14.74,4.88,16.2,16.2,0,0,0-27.35,11.89Z" style="fill:#00707a"/><path d="M200.88,136.27h96.89V92a12,12,0,1,0-24,0,11.75,11.75,0,0,0,.2,2.22,9.83,9.83,0,0,0-2.49,3,14.08,14.08,0,0,0-6.79-3.53,14,14,0,0,0-16.78,12.07,12,12,0,0,0-4.83,2,12.09,12.09,0,0,0-4.53,13.93,10.15,10.15,0,0,0-2.9,3.25,14.06,14.06,0,0,0-21.84,4.49,12,12,0,0,0-12.89,6.85Z" style="fill:#33cb93"/><path d="M109.83,83.44s4.2,7.73,6,6.18,15.69-14.7,15.69-14.7l8,3.32s-20.14,28.41-27.81,26.69-12.9-13.78-12.9-13.78Z" style="fill:#f9ae83"/><path d="M138.71,79.37c2.16-.61,5.88-4,7.34-5.28,3.06-2.64,2.82-2.92,2.45-3.22-1-.82-5.54,4.44-5.22,2.75s6.33-5.79,5.28-6.6c-1.4-1-6.07,4.54-6.5,5s-1.08-.17-.68-.55C142,70.92,148,65,146.66,64c-.76-.58-1.68.87-1.68.87s-5.27,5.92-5.87,5.41,2.33-4.11,3.42-5.25,1-2.09.08-2.15c-.61,0-4,3.35-5.06,4.51s-3.87,4.36-3.77,1.65-.84-4.83-1.49-5.23-1.44.37-1.13,1.15a10,10,0,0,1,.43,2.7,6.48,6.48,0,0,1-.25,2.19l-.29.93c-.45,1.36.67,4.13-.43,5" style="fill:#f9ae83"/><path d="M139.49,75.76s-.12-.43-.68-.83a2.92,2.92,0,0,0-2.56-.42l.24.36a3.87,3.87,0,0,0,.85-2.46c0-.67-.19-1-.25-1a8.91,8.91,0,0,0-.07,1,4.15,4.15,0,0,1-.88,2.18h0l-.42.57.67-.21a3,3,0,0,1,2.26.26C139.2,75.49,139.45,75.81,139.49,75.76Z" style="fill:#eaa27d"/><path d="M113.76,89.08c-.44-.35-16.69-27.68-25.36-27.33C79.93,62.11,102.7,99,102.7,99s3.21,1.06,7.58-2.93S113.76,89.08,113.76,89.08Z" style="fill:#e23b5b;fill-rule:evenodd"/><path d="M55.74,68.66s10.86-8.15,23.37-8.15c10.07,0,14.19,3.83,14.19,3.83l6.78,48.25-39.8.62Z" style="fill:#ff4964"/><path d="M70.33,61.76a12.36,12.36,0,0,0,.89,2.45C72.05,66,76.89,73,83.85,72s4-7.27,3.36-8.52c-.48-1-1.8-2.68-2.78-2.68-2,0-9.72-.43-12.73.51C71.1,61.49,70.33,61.76,70.33,61.76Z" style="fill:#f9ae83"/><path d="M72.89,85.32a1.47,1.47,0,1,0-1.65-1.17A1.43,1.43,0,0,0,72.89,85.32Z" style="fill:#e7f1f2"/><path d="M67.57,63c-.34-1-5.42,1.66-5.42,1.66S70,83.21,68.87,89.35c-.91,4.84-10.15,7.59-11,.27-.34-3,2.31,46.62,2.31,46.62h41.47s-2.2-61.13-8.39-72.67c-.41-.75-4-1.72-3.84-1.32,2,4.6,5.75,13.5,3.55,19.61-1.16,3.18-10,6.8-16.45.48C73.93,79.83,69,67.38,67.57,63Z" style="fill:#0a96ad"/><path d="M69.17,85.34a8.35,8.35,0,0,0,2.12,1.81,3.15,3.15,0,0,0,1.19.39,3.05,3.05,0,0,0,1.24-.11,2.69,2.69,0,0,0,1-.6,3.19,3.19,0,0,0,.69-1A8.55,8.55,0,0,0,76,83a5.19,5.19,0,0,1,.13,3,3.61,3.61,0,0,1-.74,1.41,3.41,3.41,0,0,1-1.4.87,3.56,3.56,0,0,1-1.62.1,4,4,0,0,1-1.44-.65,5.2,5.2,0,0,1-1.76-2.4Z" style="fill:#0b7189"/><path d="M72.84,85.33a1.45,1.45,0,0,1-1-.32,1.5,1.5,0,0,1-.53-.9,1.48,1.48,0,0,1,.21-1,1.44,1.44,0,0,1,.84-.63,1.29,1.29,0,0,1,.48,0h-.07a1.45,1.45,0,0,0-1.08,1.72,1.5,1.5,0,0,0,.39.76,1.41,1.41,0,0,0,.76.4Z" style="fill:#c2c6c6"/><path d="M72.89,85.32h-.07a1.48,1.48,0,0,1-.1-2.89h.06a1.43,1.43,0,0,1,.78.4,1.53,1.53,0,0,1,.22,1.86,1.4,1.4,0,0,1-.89.63Z" style="fill:#e7f1f2"/><path d="M94,80.79a2.92,2.92,0,0,0,.65,1.1,1.5,1.5,0,0,0,1.06.44,1.33,1.33,0,0,0,.56-.07,1.3,1.3,0,0,0,.49-.3,2.06,2.06,0,0,0,.4-1.17,1.54,1.54,0,0,1,.11.71,1.65,1.65,0,0,1-.22.68,1.26,1.26,0,0,1-.61.48,1.89,1.89,0,0,1-.74.12A1.79,1.79,0,0,1,95,82.6a1.7,1.7,0,0,1-.58-.48A2.12,2.12,0,0,1,94,80.79Z" style="fill:#0b7189"/><path d="M95.77,81.06a.95.95,0,0,1-1.06-.79A1,1,0,0,1,95.34,79a.77.77,0,0,1,.3,0h0A1,1,0,0,0,95,80.25a1,1,0,0,0,.28.53A.92.92,0,0,0,95.77,81.06Z" style="fill:#c2c6c6"/><path d="M95.81,81.05h0a1,1,0,0,1-.53-.27,1.09,1.09,0,0,1-.28-.53,1.11,1.11,0,0,1,.07-.76A1.06,1.06,0,0,1,95.6,79h0a1,1,0,0,1,.81.81,1.06,1.06,0,0,1-.07.76,1,1,0,0,1-.57.5Z" style="fill:#e7f1f2"/><path d="M74,97s16.65,2.62,23-3.4L98.51,115s-1.68,5.56-9.65,6.51-13.24-5.21-13.24-5.21Z" style="fill:#0b7189"/><path d="M75.83,99.62l-.1-1.18.28,0,.89.12-.06.44L76.23,99l0,.61Z" style="fill:#0e9ea5"/><path d="M83,99.42H82V99h1.71v.45Zm2.49-.06V98.9c.58,0,1.15-.08,1.69-.14l.06.45C86.62,99.27,86,99.32,85.45,99.36Zm-5.17,0c-.63,0-1.21-.08-1.72-.13l0-.45c.51,0,1.08.09,1.7.12ZM88.91,99l-.08-.45c.58-.1,1.14-.21,1.67-.35l.11.45c-.56.12-1.14.24-1.73.34Zm3.35-.85-.14-.43a11,11,0,0,0,1.54-.66l.21.41a14.11,14.11,0,0,1-1.62.66Z" style="fill:#0e9ea5"/><path d="M95.74,96.68l0-.44-.36.29-.28-.36a7.22,7.22,0,0,0,.68-.56l.34-.34.1,1.39Z" style="fill:#0e9ea5"/><path d="M87.74,120.29v-.46a8,8,0,0,0,1.09-.08l.71-.1.08.45c-.24,0-.48.08-.74.1A10.94,10.94,0,0,1,87.74,120.29Zm-1.87-.09a12.62,12.62,0,0,1-1.83-.37l.12-.43a11.79,11.79,0,0,0,1.77.35Zm5.55-.54-.14-.43a11.47,11.47,0,0,0,1.67-.68l.2.4a11.24,11.24,0,0,1-1.73.71Zm-9.14-.44a15.42,15.42,0,0,1-1.67-.85l.23-.39a14.33,14.33,0,0,0,1.61.82ZM94.74,118l-.27-.36a8.82,8.82,0,0,0,1.28-1.24l.35.29a9.2,9.2,0,0,1-1.36,1.29Zm-15.67-.66a18.12,18.12,0,0,1-1.41-1.22l.32-.32a14,14,0,0,0,1.37,1.18ZM97.14,115l-.4-.19a3.76,3.76,0,0,0,.23-.55l-.08-1.13.48,0,.08,1.2v0a5.16,5.16,0,0,1-.32.67Zm-20.08-.76-.15-1.83.44,0,.16,1.83Zm19.7-2.92-.13-1.84.45,0,.13,1.83Zm-20-.74-.16-1.83.46,0,.15,1.83Zm19.75-2.94-.13-1.83.45,0,.13,1.83ZM76.44,107l-.15-1.83.45,0,.15,1.83ZM96.25,104l-.13-1.84.45,0L96.7,104Zm-20.12-.73L76,101.46l.45,0,.16,1.83ZM96,100.35l-.12-1.84.45,0,.13,1.83Z" style="fill:#0e9ea5"/><path d="M104.53,102.15c-8-1.37,8.33-19.37,11.29-12.53.18.4-1.33,4.31-1.53,4.71-1.44,2.7-3.07,10.07-3.07,10.07C109.89,106,107.13,102.6,104.53,102.15Z" style="fill:#d1375c;fill-rule:evenodd"/><path d="M86,51.83c18-4.24,31.36-13,29.82-19.53s-17.4-8.4-35.41-4.16S49,41.14,50.58,47.68,68,56.08,86,51.83Z" style="fill:#9e7b57"/><path d="M86.87,20.93c3.51-1.15,9.18.51,10.26,8.83C98,36,97,43.42,93.46,44.56S86,39.75,84,33.79,83.36,22.07,86.87,20.93Z" style="fill:#1d394f"/><path d="M79.68,46.42l-2.92.07a4.4,4.4,0,0,0-4.3,4.5l.26,10.81a4.4,4.4,0,0,0,4.5,4.3L80.14,66a4.41,4.41,0,0,0,4.3-4.51l-.25-10.8A4.41,4.41,0,0,0,79.68,46.42Z" style="fill:#f9ae83"/><path d="M87,59.44A15.43,15.43,0,0,1,70.66,48L67.53,36.78c-.72-8,2.43-16.44,12.86-17.37A14.53,14.53,0,0,1,96,32.69l.48,11.21C96.34,52.7,93.27,58.89,87,59.44Z" style="fill:#f9ae83"/><path d="M72.58,41.22c.17-.78,1.36,3.62,1.61,2.59.41-1.7,1.52-2.46,1.17-5.28a10.82,10.82,0,0,1,.12-3.24c3.45-4.36,17.09-6.61,20.51-2.13,0,0,.37-15.72-14.84-14.31C65,20.35,67.19,33.06,67.53,36.8c.45,5.06,2.4,14.91,5,15.59C72.58,52.38,71,48.13,72.58,41.22Z" style="fill:#1d394f"/><path d="M70.85,48.07c1.88-.36,3-2.73,2.51-5.28s-2.42-4.33-4.3-4-3,2.73-2.51,5.28S69,48.43,70.85,48.07Z" style="fill:#f9ae83"/><path d="M67.67,40.92a2.8,2.8,0,0,1,1.91-.17,3.53,3.53,0,0,1,1.7,1,5,5,0,0,1,1,1.7c.08.31.17.61.23.93a7.45,7.45,0,0,1,.07.95c-.15-.28-.27-.57-.39-.85s-.28-.55-.4-.82a7.09,7.09,0,0,0-1-1.44,3.9,3.9,0,0,0-3.09-1.34Z" style="fill:#c97355"/><path d="M68.81,43.27a1.54,1.54,0,0,1,.91-.67,1.83,1.83,0,0,1,1.2.09,2.38,2.38,0,0,1,.92.71,5.6,5.6,0,0,1,.3.48,4.72,4.72,0,0,1,.18.53,3.61,3.61,0,0,1-.44-.33c-.14-.11-.28-.2-.41-.31a5.4,5.4,0,0,0-.81-.48A2.62,2.62,0,0,0,68.81,43.27Z" style="fill:#c97355"/><path d="M90,29.32S87.72,35,82.63,36a.27.27,0,0,1-.29-.13.29.29,0,0,1,0-.16.3.3,0,0,1,0-.16A6.38,6.38,0,0,0,83.76,31C83.39,28.12,90,29.32,90,29.32Z" style="fill:#1d394f"/><path d="M96.52,32.81c-.6,1.44-3.08,3.74-8.89,5a.26.26,0,0,1-.15,0,.23.23,0,0,1-.12-.1.33.33,0,0,1,0-.14.3.3,0,0,1,.05-.15,8.2,8.2,0,0,0,1.71-6.07c-.54-3.2,6.55.48,7.24,1.12C96.44,32.58,96.59,32.65,96.52,32.81Z" style="fill:#1d394f"/><path d="M88.55,42.79a11.32,11.32,0,0,1,1.35,1.88,8.61,8.61,0,0,1,.94,2.18,3.49,3.49,0,0,1,.06.65,1.22,1.22,0,0,1-.07.38.81.81,0,0,1-.28.38,2.37,2.37,0,0,1-.62.25,4.21,4.21,0,0,1-.6.11A6.6,6.6,0,0,1,87,48.39a15.39,15.39,0,0,0,2.25-.29,4.44,4.44,0,0,0,.52-.15,1.65,1.65,0,0,0,.42-.21.27.27,0,0,0,.06-.12.33.33,0,0,0,0-.14,2,2,0,0,0-.06-.48,15.78,15.78,0,0,0-.75-2.09C89.14,44.2,88.83,43.51,88.55,42.79Z" style="fill:#c97355"/><path d="M91.19,52.24a4.74,4.74,0,0,1-2.16.95,7.38,7.38,0,0,1-2.39.06,10,10,0,0,1-2.29-.63c-.37-.15-.72-.34-1.07-.51a5.73,5.73,0,0,1-1-.64c.39.1.75.22,1.12.34l1.1.32c.37.07.72.2,1.1.25l.55.12.56.07a11,11,0,0,0,2.23.1,8.32,8.32,0,0,0,2.21-.43Z" style="fill:#c97355"/><path d="M89.55,54.49a1.29,1.29,0,0,1-.64.58,2.09,2.09,0,0,1-.85.18,2.15,2.15,0,0,1-.83-.16,1.72,1.72,0,0,1-.71-.48,5.43,5.43,0,0,1,.81,0h1.44A5.9,5.9,0,0,0,89.55,54.49Z" style="fill:#c97355"/><path d="M77.44,39.91a19.13,19.13,0,0,1,2-.61,15.52,15.52,0,0,1,2-.35,5.76,5.76,0,0,1,2.11,0,3,3,0,0,1,1.78,1.18l0,.06a7.16,7.16,0,0,0-1.89-.46c-.63-.09-1.27-.16-1.91-.19a16.47,16.47,0,0,0-2,.1c-.67.07-1.34.18-2,.3Z" style="fill:#1d394f"/><path d="M95.54,39.15a8.56,8.56,0,0,0-1.24,0,5.87,5.87,0,0,0-1.18.23,9.18,9.18,0,0,0-1,.48,9.48,9.48,0,0,0-1,.61l-.07,0a1.77,1.77,0,0,1,.19-.68,1.64,1.64,0,0,1,.45-.56A2.56,2.56,0,0,1,93,38.78a4.86,4.86,0,0,1,1.32,0,6.75,6.75,0,0,1,1.26.28Z" style="fill:#1d394f"/><path d="M83.85,44.92c.43,0,.77-.67.75-1.47S84.21,42,83.78,42s-.76.67-.74,1.47S83.42,44.93,83.85,44.92Z" style="fill:#1d394f"/><path d="M93,44.7c.43,0,.76-.67.75-1.47s-.39-1.44-.82-1.43-.77.67-.75,1.47S92.52,44.71,93,44.7Z" style="fill:#1d394f"/><path d="M84.38,59.49s-6.8-1.55-9.21-3.84c0,0,5.64,10.13,9,6.66C84.66,61.86,84.38,59.49,84.38,59.49Z" style="fill:#f58a69"/><path d="M115.84,34.35C114.3,27.82,98.45,26,80.43,30.2,64.24,34,51.82,41.48,50.6,47.7c-1.55-6.54,11.8-15.29,29.81-19.54s33.87-2.4,35.41,4.15A4.84,4.84,0,0,1,115.84,34.35Z" style="fill:#d8aa73"/><path d="M63,108.14c-3,7.54,2.16,8.38,8.12,8.2s22.41-5.44,22.41-5.44l.9-4.29C83.36,106.37,66.78,98.7,63,108.14Z" style="fill:#2b4060;fill-rule:evenodd;opacity:0.30000001192092896;isolation:isolate"/><path d="M58.69,106.5s6.86-40-2.4-37.81C45.87,71.17,42,107.35,42,107.35s2.2,3,8.88,2.59S58.69,106.5,58.69,106.5Z" style="fill:#ff4964;fill-rule:evenodd"/><path d="M59.77,107.53c-15.43-22.66-34.52,16.36-6.27,9.11Z" style="fill:#e23b5b;fill-rule:evenodd"/><path d="M57.89,68.77a4,4,0,0,1,1.34,1.12,5.24,5.24,0,0,1,.53.71,5.35,5.35,0,0,1,.45.77A15.58,15.58,0,0,1,60.92,73c.19.56.33,1.13.5,1.7a31.09,31.09,0,0,1,.7,7,52.53,52.53,0,0,1-.55,7c-.18,1.15-.33,2.31-.59,3.45s-.48,2.27-.78,3.4c.09-1.16.23-2.32.36-3.47l.1-.86.07-.87.15-1.72c.13-1.15.18-2.31.25-3.46l0-.86v-.87l0-1.72a39.37,39.37,0,0,0-.48-6.86c-.13-.55-.24-1.11-.38-1.66a15.44,15.44,0,0,0-.55-1.62,5.77,5.77,0,0,0-.35-.76,6.08,6.08,0,0,0-.42-.74l-.24-.36-.28-.33a2.71,2.71,0,0,0-.63-.59Z" style="fill:#e23b5b"/><path d="M69,121.33l21.84-2.17a1.39,1.39,0,0,0,.87-.39,1.42,1.42,0,0,0,.43-.86l3.78-26.42a1.52,1.52,0,0,0-.06-.67,1.66,1.66,0,0,0-.34-.57A1.4,1.4,0,0,0,95,89.9a1.47,1.47,0,0,0-.66-.08l-23,2.72a1.45,1.45,0,0,0-.88.43,1.47,1.47,0,0,0-.41.88L67.4,119.74a1.55,1.55,0,0,0,.08.64,1.58,1.58,0,0,0,.35.53,1.46,1.46,0,0,0,.54.34,1.5,1.5,0,0,0,.63.08Z" style="fill:#e4dbe2"/><path d="M78.18,91.67l.33-.76,2-.27s.43-1.33,3.25-1.64c2.53-.27,2.71,1,2.71,1l1.37-.09,0,.62Z" style="fill:#403336"/><path d="M86.89,101.91,59.42,103l-12.35.8c-1.35.08-4.15,1.57-4.66,4-.41,2,.11,5.41,1.47,7,1.84,2.17,7.5,2.46,10.3,2L60,116l28.33-6.15" style="fill:#f9ae83"/><path d="M94.42,100a.75.75,0,0,0,0-.26.7.7,0,0,0-.13-.24.65.65,0,0,0-.21-.16.58.58,0,0,0-.26-.06,34.11,34.11,0,0,0-5.64.31c-1.43.4-6.76,2.65-6.76,2.65l2.2,8.31,8.15.13s3-1.35,3-1.94a10.34,10.34,0,0,0-.07-1.11l.91-.48c1.34-.85.48-2.48.48-2.48a2.07,2.07,0,0,0,.64-.61,1.9,1.9,0,0,0,.31-.83,1.43,1.43,0,0,0-.71-1.38s.38-1.32-.31-1.67a2.79,2.79,0,0,0-1.85.09A.51.51,0,0,0,94.42,100Z" style="fill:#f9ae83"/><path d="M94.87,100.17a.73.73,0,0,1-.25.08,5.59,5.59,0,0,1-.71.15c-.59.11-1.43.19-2.35.28a20.94,20.94,0,0,0-2.34.34c-.58.14-.91.32-.93.3s.08-.07.23-.15a5,5,0,0,1,.68-.26,14.29,14.29,0,0,1,2.34-.39c.92-.09,1.76-.16,2.36-.23A6.69,6.69,0,0,1,94.87,100.17Z" style="fill:#eb996e"/><path d="M96.39,101.84a1.71,1.71,0,0,1-.57.29,7.67,7.67,0,0,1-1.49.42c-.59.13-1.13.2-1.52.25a2.35,2.35,0,0,1-.65,0,19.85,19.85,0,0,1,2.14-.45c.59-.12,1.11-.26,1.48-.37a4.76,4.76,0,0,1,.61-.19Z" style="fill:#eb996e"/><path d="M96.15,104.73a8.36,8.36,0,0,1-3.56.79s.81-.14,1.79-.36S96.13,104.69,96.15,104.73Z" style="fill:#eb996e"/><path d="M95.64,107.19a6.07,6.07,0,0,1-2.77.66,12.4,12.4,0,0,1,1.38-.32,13.41,13.41,0,0,1,1.39-.34Z" style="fill:#eb996e"/><path d="M91.39,105.7a.54.54,0,0,1-.25.09,1,1,0,0,1-.62-.18.93.93,0,0,1-.36-.53.45.45,0,0,1,0-.26,1.58,1.58,0,0,0,.46.66A1.72,1.72,0,0,0,91.39,105.7Z" style="fill:#eb996e"/><path d="M91.2,108.27s-.32.07-.59-.19-.3-.57-.26-.57a3.78,3.78,0,0,0,.36.46C91,108.18,91.21,108.23,91.2,108.27Z" style="fill:#eb996e"/><path d="M90.28,103s-.21.11-.41,0-.2-.4-.16-.39.1.15.25.26S90.28,103,90.28,103Z" style="fill:#eb996e"/><path d="M81.4,102.27l.07,0,.19-.09.76-.33c.66-.28,1.63-.7,2.88-1.19.61-.24,1.28-.51,2-.78a6.84,6.84,0,0,1,1.17-.35,11.53,11.53,0,0,1,1.3-.16c.89-.07,1.84-.09,2.82-.1h1.13a.75.75,0,0,1,.41.09.61.61,0,0,1,.3.31.58.58,0,0,1,0,.43.31.31,0,0,1-.09.11l-.09,0-.19.09a3,3,0,0,1-.39.13h-.06s0,0,0,0,0,0,0,0a.07.07,0,0,1,0-.06.08.08,0,0,1,0,0,9.29,9.29,0,0,1,1-.22,3.56,3.56,0,0,1,1.08,0,1,1,0,0,1,.53.23,1,1,0,0,1,.25.52,2.65,2.65,0,0,1-.07,1.12l0-.09a1.48,1.48,0,0,1,.73,1.09,1.59,1.59,0,0,1-.06.75,2.11,2.11,0,0,1-1,1.1l0-.1a2.63,2.63,0,0,1,.25,1.44,1.72,1.72,0,0,1-.26.66,1.65,1.65,0,0,1-.52.5h0l-.9.48,0-.08c0,.22,0,.43.05.64v.49a.49.49,0,0,1-.06.17,2,2,0,0,1-.48.44l-.51.34c-.66.38-1.34.73-2,1.05h0l-5.94-.13-1.64,0h1.64l5.94.07h0c.69-.32,1.36-.67,2-1,.16-.11.33-.21.48-.33a2,2,0,0,0,.42-.41l0-.1v-.47a3.36,3.36,0,0,0-.06-.63.09.09,0,0,1,0,0s0,0,0,0l.9-.48a1.35,1.35,0,0,0,.47-.45,1.47,1.47,0,0,0,.23-.6,2.35,2.35,0,0,0-.24-1.33s0,0,0,0,0,0,0,0a0,0,0,0,1,0,0l0,0a2,2,0,0,0,.86-1,1.38,1.38,0,0,0,0-.94,1.42,1.42,0,0,0-.59-.73.08.08,0,0,1,0,0,0,0,0,0,1,0-.05,2.66,2.66,0,0,0,.07-1,.9.9,0,0,0-.21-.44.91.91,0,0,0-.44-.19,3.55,3.55,0,0,0-1,0c-.34.06-.67.13-1,.22l0-.15.36-.12.18-.08s.1-.08.12-.08a.51.51,0,0,0,0-.32.53.53,0,0,0-.23-.24.65.65,0,0,0-.34-.07H92.58c-1,0-1.92,0-2.82.09a10.89,10.89,0,0,0-1.28.14,6.7,6.7,0,0,0-1.16.34c-.74.26-1.41.53-2,.77l-2.87,1.14-.77.31-.2.07Z" style="fill:#eb996e"/><path d="M51.31,43.78s3.84-9.26,31.2-15.08c0,0,25-6.67,32.73,2.29-.78-1.41-5.27-4.07-6.8-4.65L79.78,15.12a1.94,1.94,0,0,0-1.91.33L57.87,36C56.54,37.09,51.29,42,51.31,43.78Z" style="fill:#f9d07d"/></g></g></g></svg>