<svg id="Layer_1" data-name="Layer 1" xmlns="http://www.w3.org/2000/svg" xmlns:xlink="http://www.w3.org/1999/xlink" viewBox="0 0 298 136"><defs><clipPath id="clip-path"><rect width="298" height="136" style="fill:none"/></clipPath></defs><g style="clip-path:url(#clip-path)"><rect width="298" height="136" style="fill:#fff"/><path d="M298,0H0V136H298Z" style="fill:#32e6f9"/><path d="M297.76,43.65C274.42,26.18,258.9,13,224,7,169-2.35,110.31,88.35,76.34,83,38.85,77,0,54.55,0,54.55v61.74H297.76Z" style="fill:#37d9f4"/><path d="M45.26,75.35c.12-.56.62-.58.79-.06l1.18,3.27-.53.25c-.12,0-.06.18.06.17l.59-.07,2.87,8L49,87.49c-.14.09-.1.21.07.18l1.33-.13,1.87,5.2-10.08.9,1.59-9.57h.76c.15,0,.15-.13,0-.18l-.71-.32Z" style="fill:#0e8e5d"/><path d="M31.62,67.72c.21-.92,1.11-1,1.44-.13l2,5.26-.95.4c-.2.1-.12.3.12.28l1-.1,4.92,12.9-2.14,1c-.23.14-.18.34.13.29l2.34-.24,3.22,8.41L26,97.32l2.94-15.51,1.33-.11c.26,0,.26-.21.09-.29l-1.25-.5Z" style="fill:#23b781"/><path d="M178.05,97.23a4.15,4.15,0,0,1,.59-2.09,4.08,4.08,0,0,1,1.57-1.49,3.69,3.69,0,0,1,2.07-.3,3.63,3.63,0,0,1,1.88.9,5.38,5.38,0,0,1,1.19-2.69,5.53,5.53,0,0,1,2.42-1.68,5,5,0,0,1,2.87.06A5.08,5.08,0,0,1,193,91.56a2.79,2.79,0,0,1,2.92-.89,3.17,3.17,0,0,1,1.36,1,3.21,3.21,0,0,1,.69,1.51,5.07,5.07,0,0,1,6-.63,6,6,0,0,1,2.2,2.59,6.15,6.15,0,0,1,.47,3.36C196.85,97.73,187,97.71,178.05,97.23Z" style="fill:#00707a"/><path d="M224.93,7a52.68,52.68,0,0,0-31.17,9.08C179,26.46,189.93,43.36,206,43S228.8,40.57,238.34,47,229,59.69,219.26,61.44s-11.61,20.92,35.16,21.42c40.81.4,43.34,4.21,43.34,4.21V43.65C272,21.55,244.74,8.19,224.93,7Z" style="fill:#34e0f7;opacity:0.8999999761581421;isolation:isolate"/><path d="M297.93,146.27H0V93.67s66-4.6,133.21-.41C189.73,96.78,298,99.51,298,99.51Z" style="fill:#23b781"/><path d="M69.81,145a15.24,15.24,0,0,0-5.68-14.43,13.22,13.22,0,0,0-14.71-.21,20.36,20.36,0,0,0-2.69-10.57A20.14,20.14,0,0,0,39,112.18a18.45,18.45,0,0,0-20.08,2.92,10.25,10.25,0,0,0-10.08-5,11.58,11.58,0,0,0-5.51,2.65,11.73,11.73,0,0,0-3.42,5.09,18.64,18.64,0,0,0-9.8-6.62,18.51,18.51,0,0,0-11.78.61,22.37,22.37,0,0,0-9.55,8.13A22.74,22.74,0,0,0-35,132C1.23,135.34,37.13,141.3,69.81,145Z" style="fill:#179668"/><path d="M249,136.79l-14.42-5.9-4.15.19,10.6,5.71Z" style="fill:#179668;opacity:0.5;isolation:isolate"/><path d="M226.81,131.28l-12.83.8.82-1.07,34.85-1.6,2.06.71Z" style="fill:#179668;opacity:0.5;isolation:isolate"/><path d="M241,136.79a15,15,0,0,0,4.25.66c3.05,0,3.72-.66,3.72-.66l-3-80.71h-2.14Z" style="fill:#fff"/><path d="M245.86,53.73h-2a1.37,1.37,0,0,0-1.37,1.38v1a1.37,1.37,0,0,0,1.37,1.38h2a1.38,1.38,0,0,0,1.38-1.38v-1A1.38,1.38,0,0,0,245.86,53.73Z" style="fill:#c6d9f2"/><path d="M245,57.53,241.87,137l-1-.23,3-79.26Z" style="fill:#c6d9f2"/><path d="M243.16,54.55l1.2,1L243,57.21l.42,2.8L216.9,87.53a1.26,1.26,0,0,1-.7.35l-.5.05a.5.5,0,0,1-.21,0,.66.66,0,0,1-.19-.09l-.28-.25Z" style="fill:#fff"/><path d="M245.35,50.38l-1.53.43-.56-2.07-2.61-1.21-7.9-37.41a1.14,1.14,0,0,1,.1-.77l.24-.45a.4.4,0,0,1,.13-.16.5.5,0,0,1,.19-.1l.35-.1Z" style="fill:#fff"/><path d="M247.63,54.31l.24-1.56,2.11.32,2.16-1.82,37.36,8a1.2,1.2,0,0,1,.66.42l.31.39a.49.49,0,0,1,.11.4l-.06.37Z" style="fill:#fff"/><path d="M244.94,56a3,3,0,1,0-3-3A3,3,0,0,0,244.94,56Z" style="fill:#eef8f5"/><path d="M136.05,123c34.22,0,61.95-1.07,61.95-2.4s-27.73-2.4-61.95-2.4-61.94,1.08-61.94,2.4S101.84,123,136.05,123Z" style="fill:#38a076"/><path d="M88.5,90.87a.24.24,0,0,1-.16-.07.28.28,0,0,1-.08-.15,24.69,24.69,0,0,1,.8-5.19,28.37,28.37,0,0,0,.79-4.57.21.21,0,0,1,.05-.2.16.16,0,0,1,.08-.06.2.2,0,0,1,.1,0,.22.22,0,0,1,.11,0,.16.16,0,0,1,.08.06.21.21,0,0,1,0,.2,27.47,27.47,0,0,1-.8,4.67,24,24,0,0,0-.79,5.06.28.28,0,0,1,0,.09.22.22,0,0,1,0,.08l-.07.06-.09,0Z" style="fill:#403d54"/><path d="M88.4,80.1H86.63V94.9H88.4Z" style="fill:#5b5a75"/><path d="M86.75,90.5h1.59a.94.94,0,0,1,1,1V96H85.78V91.43a1,1,0,0,1,1-1Z" style="fill:#46435d"/><path d="M88.17,90.5h-.93a1.14,1.14,0,0,1,.8.33,1.1,1.1,0,0,1,.34.8V96h.93V91.63a1.14,1.14,0,0,0-.33-.8,1.16,1.16,0,0,0-.81-.33Z" style="fill:#403d54"/><path d="M91.15,98.54c-.1,2-1.13,3.61-3.63,3.64a3.6,3.6,0,0,1-3.64-3.64,3.64,3.64,0,1,1,7.27,0Z" style="fill:#e4dbe2"/><path d="M89.25,98.54a1.49,1.49,0,0,1-.1.69,1.79,1.79,0,0,1-.37.58,1.69,1.69,0,0,1-.58.37,1.6,1.6,0,0,1-.68.11,1.73,1.73,0,0,1-1.62-1.07,1.75,1.75,0,0,1-.11-1,1.8,1.8,0,0,1,.48-.9,1.73,1.73,0,0,1,.89-.48,1.66,1.66,0,0,1,1,.1,1.71,1.71,0,0,1,.79.64,1.78,1.78,0,0,1,.29,1Z" style="fill:#84829b"/><path d="M88.4,80.1H86.63v3.14H88.4Z" style="fill:#403d54"/><path d="M120.67,90.87a.26.26,0,0,1-.16-.09.23.23,0,0,1-.06-.16,19.08,19.08,0,0,0-1-5.05,22,22,0,0,1-1-4.68.21.21,0,0,1,.05-.2.16.16,0,0,1,.08-.06.16.16,0,0,1,.1,0,.18.18,0,0,1,.1,0,.16.16,0,0,1,.08.06.21.21,0,0,1,0,.2,23,23,0,0,0,1,4.56,19.44,19.44,0,0,1,1,5.21.21.21,0,0,1-.09.15.27.27,0,0,1-.17.06Z" style="fill:#403d54"/><path d="M122.33,80.1h-1.77V94.9h1.77Z" style="fill:#5b5a75"/><path d="M120.67,90.5h1.59a1,1,0,0,1,.67.28.93.93,0,0,1,.28.67V96h-3.52V91.43a1,1,0,0,1,.08-.37.93.93,0,0,1,.22-.3.79.79,0,0,1,.31-.2.78.78,0,0,1,.37-.06Z" style="fill:#46435d"/><path d="M122.11,90.5h-.94a1.11,1.11,0,0,1,.44.08,1.27,1.27,0,0,1,.37.25,1.2,1.2,0,0,1,.33.8V96h.94V91.63a1.14,1.14,0,0,0-1.14-1.13Z" style="fill:#403d54"/><path d="M125.08,98.54c-.1,2-1.12,3.61-3.63,3.64a3.64,3.64,0,0,1,0-7.28,3.64,3.64,0,0,1,3.63,3.64Z" style="fill:#bdaeb7"/><path d="M123.19,98.54a1.61,1.61,0,0,1-.1.69,1.5,1.5,0,0,1-.38.58,1.62,1.62,0,0,1-.58.38,1.76,1.76,0,0,1-.68.1,1.66,1.66,0,0,1-1-.3,1.71,1.71,0,0,1-.65-.78,1.83,1.83,0,0,1-.1-1,1.76,1.76,0,0,1,1.38-1.37,1.76,1.76,0,0,1,1.79.74,1.78,1.78,0,0,1,.29,1Z" style="fill:#84829b"/><path d="M122.33,80.1h-1.77v3.14h1.77Z" style="fill:#403d54"/><path d="M129,78.23H80.31v2.66H129Z" style="fill:#5b5a75"/><path d="M89.94,79.56a.54.54,0,0,1,0,.22.39.39,0,0,1-.12.19.52.52,0,0,1-.19.12.41.41,0,0,1-.22,0A.55.55,0,0,1,89,80a.56.56,0,0,1,.4-1,.41.41,0,0,1,.22,0,.44.44,0,0,1,.19.12.54.54,0,0,1,.16.4Z" style="fill:#403d54"/><path d="M105.22,79.56a.78.78,0,0,1,0,.22.62.62,0,0,1-.12.19.76.76,0,0,1-.19.12.42.42,0,0,1-.22,0,.41.41,0,0,1-.22,0,.55.55,0,0,1-.19-.12.57.57,0,0,1-.12-.18.78.78,0,0,1,0-.22.56.56,0,0,1,.17-.4.58.58,0,0,1,.4-.16.55.55,0,0,1,.39.16.56.56,0,0,1,.17.4Z" style="fill:#403d54"/><path d="M120.49,79.56a.41.41,0,0,1,0,.22.51.51,0,0,1-.31.31.42.42,0,0,1-.22,0,.55.55,0,0,1-.4-.16.56.56,0,0,1,.4-1,.43.43,0,0,1,.22,0,.36.36,0,0,1,.18.12.46.46,0,0,1,.13.18.56.56,0,0,1,0,.22Z" style="fill:#403d54"/><path d="M129,80H80.31v.89H129Z" style="fill:#828199"/><path d="M84,80H80.31v.89H84Z" style="fill:#9f9fb8"/><path d="M129,80H87l.79.91H129Z" style="fill:#5b5a75"/><path d="M87.67,58.15h36.51a.89.89,0,0,1,.9.9V80H86.76V59.05a.83.83,0,0,1,.07-.34.81.81,0,0,1,.49-.49.84.84,0,0,1,.35-.07Z" style="fill:#5d9ea9"/><path d="M129.24,52.53a2.63,2.63,0,0,0,.42-1,2.75,2.75,0,0,0,0-1.07l-.29.06a2.85,2.85,0,0,1-.34,1.81Z" style="fill:#a7a765"/><path d="M132.58,55.79A3.5,3.5,0,0,1,128.4,59a3.59,3.59,0,0,1-1.4-.4,3.47,3.47,0,0,1-1.13-.92,3.54,3.54,0,0,1-.67-1.29,3.6,3.6,0,0,1-.1-1.46,2.94,2.94,0,0,1,4.16-2.56,2.77,2.77,0,0,1,1.4.07,2.82,2.82,0,0,1,1.2.74,3,3,0,0,1,.7,1.23,2.93,2.93,0,0,1,0,1.41Z" style="fill:#c6c67d"/><path d="M130.45,52.32a2.7,2.7,0,0,1,1,2.67,3.12,3.12,0,0,1-3.75,2.83,2.92,2.92,0,0,1-1.38-.41,3,3,0,0,1-1.06-1,3.46,3.46,0,0,0,1.17,1.76,3.37,3.37,0,0,0,2,.74,3.49,3.49,0,0,0,4.18-3.18,2.88,2.88,0,0,0-2.09-3.42Z" style="fill:#b7b771"/><path d="M116.05,51.53a2.87,2.87,0,0,1,1.1-2.39l.3.28a3.19,3.19,0,0,0-1,2.11Z" style="fill:#a7a765"/><path d="M120.41,55.65c-.42,2.45-2,4.25-5.16,3.91a4.43,4.43,0,0,1-4.08-5c.19-2.58,2.93-4.36,5.15-3.18A3.52,3.52,0,0,1,120.41,55.65Z" style="fill:#e86b7b"/><path d="M117.83,51.4a3.3,3.3,0,0,1,1.06,1.48,3.38,3.38,0,0,1,.13,1.81,3.88,3.88,0,0,1-4.64,3.52,3.83,3.83,0,0,1-1.71-.52,3.74,3.74,0,0,1-1.3-1.23,4.25,4.25,0,0,0,1.44,2.18,4.83,4.83,0,0,0,7.6-3,3.54,3.54,0,0,0-2.58-4.25Z" style="fill:#c05666"/><path d="M93.26,53.61A2.85,2.85,0,0,1,93.83,51l.35.22a3.16,3.16,0,0,0-.52,2.24Z" style="fill:#a7a765"/><path d="M97.44,57.67c-.43,2.48-2,4.29-5.21,4a4.47,4.47,0,0,1-4.11-5.07c.2-2.61,2.95-4.41,5.19-3.18A3.5,3.5,0,0,1,97.44,57.67Z" style="fill:#c6c67d"/><path d="M94.84,53.39a3.38,3.38,0,0,1,1.22,3.32c-.39,2.23-1.78,3.85-4.68,3.54a3.84,3.84,0,0,1-3-1.76,4.27,4.27,0,0,0,3.92,3.13c3.22.34,4.76-1.47,5.2-4A3.53,3.53,0,0,0,97,55a3.57,3.57,0,0,0-2.19-1.59Z" style="fill:#b7b771"/><path d="M134.16,54.27a2.7,2.7,0,0,1,.25-1.22,2.75,2.75,0,0,1,.77-1l.28.26a2.9,2.9,0,0,0-.91,1.88Z" style="fill:#a7a765"/><path d="M138.13,58a4,4,0,0,1-4.76,3.6,4.16,4.16,0,0,1-1.59-.45,4.11,4.11,0,0,1-1.29-1,4.17,4.17,0,0,1-.76-1.48,4,4,0,0,1-.11-1.65,3.37,3.37,0,0,1,4.76-2.92A3.21,3.21,0,0,1,138.13,58Z" style="fill:#e86b7b"/><path d="M135.79,54.12a3.08,3.08,0,0,1,1,1.36,3.16,3.16,0,0,1,.12,1.67,3.57,3.57,0,0,1-4.27,3.23,3.52,3.52,0,0,1-2.77-1.59,4,4,0,0,0,1.32,2,3.91,3.91,0,0,0,2.25.84,4,4,0,0,0,4.76-3.59,3.4,3.4,0,0,0,.06-1.27,3.35,3.35,0,0,0-.44-1.19,3.21,3.21,0,0,0-2-1.47Z" style="fill:#c05666"/><path d="M94.76,57.88A2.66,2.66,0,0,1,95,56.67a2.72,2.72,0,0,1,.78-1l.27.26a2.88,2.88,0,0,0-.91,1.92Z" style="fill:#a7a765"/><path d="M98.78,61.64C98.39,63.9,97,65.56,94,65.24a4.09,4.09,0,0,1-3.76-4.63A3.39,3.39,0,0,1,95,57.7,3.22,3.22,0,0,1,98.78,61.64Z" style="fill:#e86b7b"/><path d="M96.41,57.74a3,3,0,0,1,1,1.36,3,3,0,0,1,.12,1.67A3.52,3.52,0,0,1,93.24,64a3.51,3.51,0,0,1-2.77-1.58A3.9,3.9,0,0,0,94,65.26c2.94.32,4.36-1.34,4.77-3.6a3.19,3.19,0,0,0,0-1.27,3.24,3.24,0,0,0-.44-1.19,3.28,3.28,0,0,0-.85-.93A3.34,3.34,0,0,0,96.41,57.74Z" style="fill:#c05666"/><path d="M94.59,58.85c.44.79.52,1.52-.6,2.56a2,2,0,0,1-2.62-.16c-.62-.69-.25-1.79.6-2.55A1.77,1.77,0,0,1,94.59,58.85Z" style="fill:#ff8197"/><path d="M101.54,52a3.17,3.17,0,0,1,1.16-2.67l.34.3A3.58,3.58,0,0,0,102,52Z" style="fill:#a7a765"/><path d="M106.43,56.5c-.47,2.74-2.19,4.76-5.77,4.37a4.94,4.94,0,0,1-4.55-5.63c.22-2.89,3.27-4.87,5.75-3.53A3.91,3.91,0,0,1,106.43,56.5Z" style="fill:#e86b7b"/><path d="M103.54,51.76a3.57,3.57,0,0,1,1.19,1.65,3.66,3.66,0,0,1,.15,2c-.43,2.47-2,4.27-5.18,3.93a4.3,4.3,0,0,1-1.91-.58,4.17,4.17,0,0,1-1.45-1.38,4.71,4.71,0,0,0,4.32,3.47c3.58.38,5.3-1.63,5.77-4.37a4,4,0,0,0-2.89-4.74Z" style="fill:#c05666"/><path d="M98.65,48a3.6,3.6,0,0,1,1.36.42,3.48,3.48,0,0,1,1.08.94,3.29,3.29,0,0,1,.62,1.29,3.4,3.4,0,0,1,.06,1.42S98.26,52.32,98.65,48Z" style="fill:#b7b771"/><path d="M125.93,49.62a3.53,3.53,0,0,1-.08,1.41,3.8,3.8,0,0,1-.64,1.27,3.5,3.5,0,0,1-1.09.9,3.66,3.66,0,0,1-1.36.39S121.71,50.24,125.93,49.62Z" style="fill:#b7b771"/><path d="M122.77,53.56a3.31,3.31,0,0,0-.29-2.59l-.32.18a3.59,3.59,0,0,1,.28,2.26Z" style="fill:#a7a765"/><path d="M126.69,57.57c-.43,2.46-2,4.27-5.19,4a4.46,4.46,0,0,1-4.1-5.06c.2-2.6,2.94-4.38,5.17-3.17A3.48,3.48,0,0,1,126.69,57.57Z" style="fill:#c6c67d"/><path d="M124.09,53.31a3.34,3.34,0,0,1,1.2,3.31,4.37,4.37,0,0,1-6.38,3,4,4,0,0,1-1.31-1.23,4.29,4.29,0,0,0,1.45,2.19,4.23,4.23,0,0,0,2.45.92c3.18.34,4.76-1.47,5.19-4a3.55,3.55,0,0,0-2.6-4.22Z" style="fill:#b7b771"/><path d="M109.37,53.7a2.52,2.52,0,0,0,.42-1,2.75,2.75,0,0,0,0-1.07l-.29.06a2.9,2.9,0,0,1-.34,1.8Z" style="fill:#a7a765"/><path d="M112.67,57a3.51,3.51,0,0,1-4.19,3.17A3.56,3.56,0,0,1,106,58.83a3.83,3.83,0,0,1-.67-1.3,3.55,3.55,0,0,1-.09-1.45,3,3,0,0,1,4.16-2.57,2.77,2.77,0,0,1,1.4.08,2.82,2.82,0,0,1,1.2.74,2.84,2.84,0,0,1,.72,2.64Z" style="fill:#c6c67d"/><path d="M110.57,53.54a2.7,2.7,0,0,1,1,2.66A3.13,3.13,0,0,1,107.78,59a3.07,3.07,0,0,1-1.38-.41,3.21,3.21,0,0,1-1.05-1,3.79,3.79,0,0,0,7.32-.68,2.87,2.87,0,0,0-.35-2.14,2.8,2.8,0,0,0-1.75-1.27Z" style="fill:#b7b771"/><path d="M101.78,58.15H138.3a.86.86,0,0,1,.63.26.91.91,0,0,1,.27.64V80H100.89V59.05a.82.82,0,0,1,.06-.34,1,1,0,0,1,.19-.29.83.83,0,0,1,.3-.2.8.8,0,0,1,.34-.07Z" style="fill:#7cbbc3"/><path d="M86.76,58.78V80h14.42V58.78a.62.62,0,0,0-.63-.63H87.39a.63.63,0,0,0-.44.18.64.64,0,0,0-.19.45Zm9,3.32h-4.3a1.21,1.21,0,0,1-.84-.35,1.2,1.2,0,0,1,0-1.69,1.21,1.21,0,0,1,.84-.35h4.3a1.2,1.2,0,1,1,0,2.39Z" style="fill:#acd9e2"/><path d="M139.05,64.66H101.2a.23.23,0,0,1-.17-.07.24.24,0,0,1-.07-.17.28.28,0,0,1,.07-.17.27.27,0,0,1,.17-.06h37.85a.22.22,0,0,1,.24.23.24.24,0,0,1-.24.24Z" style="fill:#5d9ea9"/><path d="M139.05,68.73h-38a.15.15,0,0,1-.09,0,.31.31,0,0,1-.07-.09.3.3,0,0,1,0-.1.36.36,0,0,1,0-.1.27.27,0,0,1,.07-.08l.09,0a.17.17,0,0,1,.1,0h37.85a.21.21,0,0,1,.11,0l.09,0a.16.16,0,0,1,.06.08.19.19,0,0,1,0,.1.17.17,0,0,1,0,.1.19.19,0,0,1-.15.13Z" style="fill:#5d9ea9"/><path d="M139.05,72.8H101.2a.23.23,0,0,1-.17-.07.24.24,0,0,1-.07-.17.25.25,0,0,1,.08-.16.2.2,0,0,1,.16-.07h37.85a.21.21,0,0,1,.17.07.24.24,0,0,1,.07.16.24.24,0,0,1-.24.24Z" style="fill:#5d9ea9"/><path d="M139.05,76.87h-38a.15.15,0,0,1-.09,0,.31.31,0,0,1-.07-.09.3.3,0,0,1,0-.1.36.36,0,0,1,0-.1.27.27,0,0,1,.07-.08l.09,0a.17.17,0,0,1,.1,0h37.85a.21.21,0,0,1,.11,0l.09,0a.16.16,0,0,1,.06.08.19.19,0,0,1,0,.1.17.17,0,0,1,0,.1.19.19,0,0,1-.15.13Z" style="fill:#5d9ea9"/><path d="M101.2,64.66H86.79a.24.24,0,0,1-.24-.24.22.22,0,0,1,.24-.23H101.2a.25.25,0,0,1,.17.06.23.23,0,0,1,.07.17.21.21,0,0,1-.07.17.22.22,0,0,1-.17.07Z" style="fill:#7cbbc3"/><path d="M101.2,68.73H86.79a.22.22,0,0,1-.14-.08.25.25,0,0,1-.06-.16.25.25,0,0,1,.2-.23H101.2a.21.21,0,0,1,.11,0l.09,0a.16.16,0,0,1,.06.08.18.18,0,0,1,0,.1.16.16,0,0,1,0,.1.19.19,0,0,1-.15.13Z" style="fill:#7cbbc3"/><path d="M101.2,72.8H86.79s-.07,0-.09,0l-.08,0a.22.22,0,0,1-.05-.08.13.13,0,0,1,0-.09.23.23,0,0,1,.06-.16.22.22,0,0,1,.17-.07H101.2a.22.22,0,0,1,.17.07.2.2,0,0,1,.07.16.16.16,0,0,1,0,.1.18.18,0,0,1,0,.07.24.24,0,0,1-.08.06Z" style="fill:#7cbbc3"/><path d="M101.2,76.87H86.79a.22.22,0,0,1-.14-.08.25.25,0,0,1-.06-.16.25.25,0,0,1,.2-.23H101.2a.21.21,0,0,1,.11,0l.09,0a.16.16,0,0,1,.06.08.18.18,0,0,1,0,.1.16.16,0,0,1,0,.1.19.19,0,0,1-.15.13Z" style="fill:#7cbbc3"/><path d="M95.86,112.22c0-3.3-1.78-6-4.29-6.86l1.12-.26H90c-3.29,0-5.82,3.18-5.82,7.15s2.17,7.15,5.82,7.15h2.65l-1-.22C94.33,118.3,95.86,115.52,95.86,112.22Z" style="fill:#403d54"/><path d="M98.51,112.22c0,4-2.17,7.14-5.82,7.14s-5.82-3.17-5.82-7.14,2.54-7.15,5.82-7.15S98.51,108.29,98.51,112.22Z" style="fill:#46435d"/><path d="M96.2,112.37a3.15,3.15,0,1,1-3.11-3.67A3.42,3.42,0,0,1,96.2,112.37Z" style="fill:#403d54"/><path d="M95.26,112.22c0,1.77-1.1,3.17-2.47,3.17s-2.46-1.43-2.46-3.17,1.1-3.18,2.46-3.18S95.26,110.45,95.26,112.22Z" style="fill:#bdaeb7"/><path d="M90.42,108.29c-.85.74-1.46,1.38-1.81,1.08s-.09-1.2.68-2,1.69-1.36,2.15-.93S91.24,107.56,90.42,108.29Z" style="fill:#828199"/><path d="M88.71,111c-.09.51-.38.9-.65.86s-.39-.51-.29-1,.4-.91.66-.86S88.82,110.49,88.71,111Z" style="fill:#828199"/><path d="M124.85,112.22c0-3.3-1.78-6-4.29-6.86l1.12-.26H119c-3.28,0-5.82,3.18-5.82,7.15s2.17,7.15,5.82,7.15h2.65l-1-.22C123.31,118.3,124.85,115.52,124.85,112.22Z" style="fill:#403d54"/><path d="M127.5,112.22c0,4-2.17,7.14-5.82,7.14s-5.82-3.17-5.82-7.14,2.53-7.15,5.82-7.15S127.5,108.29,127.5,112.22Z" style="fill:#46435d"/><path d="M122.08,116a3.72,3.72,0,1,0-3.1-3.67A3.42,3.42,0,0,0,122.08,116Z" style="fill:#403d54"/><path d="M124.26,112.22c0,1.77-1.11,3.17-2.47,3.17s-2.46-1.43-2.46-3.17,1.1-3.18,2.46-3.18S124.26,110.45,124.26,112.22Z" style="fill:#bdaeb7"/><path d="M119.41,108.29c-.85.74-1.47,1.38-1.81,1.08s-.1-1.2.68-2,1.69-1.36,2.14-.93S120.22,107.56,119.41,108.29Z" style="fill:#828199"/><path d="M117.71,111c-.11.51-.4.9-.66.86s-.39-.51-.29-1,.39-.91.65-.86S117.81,110.49,117.71,111Z" style="fill:#828199"/><path d="M105,90.87a.27.27,0,0,1-.17-.06.26.26,0,0,1-.07-.16,24.68,24.68,0,0,1,.79-5.19,28.39,28.39,0,0,0,.8-4.57.25.25,0,0,1,0-.09.24.24,0,0,1,.06-.08.18.18,0,0,1,.07,0,.15.15,0,0,1,.09,0,.24.24,0,0,1,.17.07.21.21,0,0,1,.07.17,28.66,28.66,0,0,1-.79,4.67,24,24,0,0,0-.79,5.06.28.28,0,0,1,0,.09.35.35,0,0,1,0,.08l-.07.06-.09,0Z" style="fill:#5b5a75"/><path d="M104.93,80.1h-1.77V94.9h1.77Z" style="fill:#828199"/><path d="M103.28,90.5h1.59a1,1,0,0,1,.67.28.93.93,0,0,1,.28.67V96h-3.49V91.43a1,1,0,0,1,1-1Z" style="fill:#5b5a75"/><path d="M104.7,90.5h-.92a1.15,1.15,0,0,1,.8.33,1.14,1.14,0,0,1,.33.8V96h.94V91.63a1,1,0,0,0-.09-.43,1.17,1.17,0,0,0-.62-.62,1.11,1.11,0,0,0-.44-.08Z" style="fill:#403d54"/><path d="M107.68,98.54c-.1,2-1.13,3.61-3.64,3.64A3.64,3.64,0,0,1,101.47,96a3.62,3.62,0,0,1,5.14,0A3.61,3.61,0,0,1,107.68,98.54Z" style="fill:#ccbfc8"/><path d="M105.79,98.54a1.61,1.61,0,0,1-.1.69,1.5,1.5,0,0,1-.38.58,1.62,1.62,0,0,1-.58.38,1.78,1.78,0,0,1-.69.1,1.71,1.71,0,0,1-1-.3,1.74,1.74,0,0,1-.74-1.79,1.77,1.77,0,0,1,.48-.89,1.69,1.69,0,0,1,.89-.48,1.75,1.75,0,0,1,1,.1,1.71,1.71,0,0,1,.79.64,1.78,1.78,0,0,1,.29,1Z" style="fill:#84829b"/><path d="M104.93,80.1h-1.77v3.14h1.77Z" style="fill:#5b5a75"/><path d="M138.87,80.1h-1.78V94.9h1.78Z" style="fill:#828199"/><path d="M137.21,90.5h1.59a1,1,0,0,1,.67.28.93.93,0,0,1,.28.67V96h-3.51V91.43a1,1,0,0,1,.27-.68,1,1,0,0,1,.68-.28Z" style="fill:#5b5a75"/><path d="M138.64,90.5h-.93a1.15,1.15,0,0,1,.8.33,1.14,1.14,0,0,1,.33.8V96h.94V91.63a1.14,1.14,0,0,0-.33-.8,1.18,1.18,0,0,0-.81-.33Z" style="fill:#403d54"/><path d="M141.62,98.54c-.11,2-1.13,3.61-3.64,3.64a3.51,3.51,0,0,1-3.63-3.64,3.64,3.64,0,0,1,7.27,0Z" style="fill:#ccbfc8"/><path d="M139.72,98.54a1.63,1.63,0,0,1-.1.69,1.59,1.59,0,0,1-1,1,1.64,1.64,0,0,1-.69.11,1.78,1.78,0,0,1-1-.29,1.83,1.83,0,0,1-.65-.78,1.75,1.75,0,0,1-.1-1,1.72,1.72,0,0,1,.48-.9,1.69,1.69,0,0,1,.89-.48,1.67,1.67,0,0,1,1,.1,1.72,1.72,0,0,1,1.08,1.61Z" style="fill:#84829b"/><path d="M137.2,90.87a.24.24,0,0,1-.22-.25,19.5,19.5,0,0,0-1-5.05,21.8,21.8,0,0,1-1-4.66.28.28,0,0,1,.07-.17.24.24,0,0,1,.17-.07.28.28,0,0,1,.17.07.27.27,0,0,1,.06.17,22.86,22.86,0,0,0,1,4.56,19.42,19.42,0,0,1,1,5.21.17.17,0,0,1-.07.13A.22.22,0,0,1,137.2,90.87Z" style="fill:#5b5a75"/><path d="M138.87,80.1h-1.78v3.14h1.78Z" style="fill:#5b5a75"/><path d="M97.29,80H93.15v.89h4.14Z" style="fill:#9f9fb8"/><path d="M145.54,78.23H96.84v2.66h48.7Z" style="fill:#5b5a75"/><path d="M106.47,79.56a.41.41,0,0,1,0,.22.51.51,0,0,1-.31.31.41.41,0,0,1-.22,0,.43.43,0,0,1-.22,0,.44.44,0,0,1-.18-.12.57.57,0,0,1-.12-.18.54.54,0,0,1,0-.22.57.57,0,0,1,1-.4.55.55,0,0,1,.16.4Z" style="fill:#403d54"/><path d="M121.75,79.56a.54.54,0,0,1,0,.22.39.39,0,0,1-.12.19.57.57,0,0,1-.18.12.46.46,0,0,1-.23,0,.56.56,0,0,1-.31-.09.64.64,0,0,1-.21-.25.62.62,0,0,1,0-.33.56.56,0,0,1,.16-.29.48.48,0,0,1,.28-.15.61.61,0,0,1,.33,0,.51.51,0,0,1,.25.21A.57.57,0,0,1,121.75,79.56Z" style="fill:#403d54"/><path d="M137,79.56a.53.53,0,0,1,0,.22.62.62,0,0,1-.12.19.76.76,0,0,1-.19.12.42.42,0,0,1-.22,0,.41.41,0,0,1-.22,0,.44.44,0,0,1-.18-.12.46.46,0,0,1-.13-.18.78.78,0,0,1,0-.22.56.56,0,0,1,.17-.4.58.58,0,0,1,.4-.16.55.55,0,0,1,.56.56Z" style="fill:#403d54"/><path d="M84.72,98.46h39.87a4.42,4.42,0,0,1,4.41,4.42v9.76H80.31v-9.76a4.42,4.42,0,0,1,4.41-4.42Z" style="fill:#e4dbe2"/><path d="M101.26,98.46h39.87a4.42,4.42,0,0,1,4.41,4.42v9.76H96.85v-9.76a4.42,4.42,0,0,1,4.41-4.42Z" style="fill:#ccbfc8"/><path d="M84.94,100.76c-1.53,0-2.63,0-2.7-.65s1.2-.93,2.73-1c1.38,0,2.9.11,2.84.8S86.58,100.76,84.94,100.76Z" style="fill:#f2ecf1"/><path d="M89.44,100.58c-.42,0-1-.14-.94-.61s.43-.63,1-.67,1,.23,1,.65S90,100.56,89.44,100.58Z" style="fill:#f2ecf1"/><path d="M93.75,111.32h-9a.41.41,0,0,1-.11,0l-.09,0a.16.16,0,0,1-.06-.08.22.22,0,0,1,0-.11.2.2,0,0,1,0-.1.21.21,0,0,1,.06-.08.18.18,0,0,1,.09,0h9.22a.13.13,0,0,1,.09,0L94,111a.44.44,0,0,1,0,.1.43.43,0,0,1,0,.11.27.27,0,0,1-.07.08.19.19,0,0,1-.09,0,.34.34,0,0,1-.1,0Z" style="fill:#ccbfc8"/><path d="M118,100H102.6l-.09,0-.08,0a.22.22,0,0,1-.05-.08.21.21,0,0,1,0-.18.22.22,0,0,1,.05-.08l.08,0,.09,0H118l.09,0,.08,0a.35.35,0,0,1,0,.08.29.29,0,0,1,0,.09.24.24,0,0,1-.24.24Z" style="fill:#e4dbe2"/><path d="M124.59,100h-4.35l-.09,0-.08,0a.22.22,0,0,1,0-.08.21.21,0,0,1,0-.18.22.22,0,0,1,0-.08l.08,0,.09,0h4.35l.09,0,.08,0a.22.22,0,0,1,0,.08.21.21,0,0,1,0,.18.22.22,0,0,1,0,.08l-.08,0-.09,0Z" style="fill:#e4dbe2"/><path d="M144.3,102a.21.21,0,0,1-.16-.08.24.24,0,0,1-.06-.17,1.88,1.88,0,0,0-.47-1.3,1.85,1.85,0,0,0-1.23-.65.29.29,0,0,1-.14-.08.27.27,0,0,1-.05-.15.3.3,0,0,1,.05-.16.29.29,0,0,1,.14-.08,2.4,2.4,0,0,1,1.55.8,2.35,2.35,0,0,1,.59,1.64.25.25,0,0,1-.06.16.24.24,0,0,1-.16.07Z" style="fill:#e4dbe2"/><path d="M126.74,111.32h-8.12a.34.34,0,0,1-.1,0,.31.31,0,0,1-.1,0l-.06-.08a.43.43,0,0,1,0-.11.44.44,0,0,1,0-.1l.06-.08a.18.18,0,0,1,.1,0h8.22a.22.22,0,0,1,.14.08.24.24,0,0,1,.06.15.25.25,0,0,1-.06.16.22.22,0,0,1-.14.08Z" style="fill:#e4dbe2"/><path d="M112.4,112.22c0-3.3-1.79-6-4.3-6.86l1.12-.26h-2.64c-3.29,0-5.83,3.18-5.83,7.15s2.18,7.15,5.83,7.15h2.65l-1-.22C110.86,118.3,112.4,115.52,112.4,112.22Z" style="fill:#46435d"/><path d="M115.05,112.22c0,4-2.18,7.14-5.83,7.14s-5.82-3.17-5.82-7.14,2.54-7.15,5.82-7.15S115.05,108.29,115.05,112.22Z" style="fill:#5b5a75"/><path d="M109.62,116a3.72,3.72,0,1,0-3.1-3.67A3.43,3.43,0,0,0,109.62,116Z" style="fill:#403d54"/><path d="M111.8,112.22c0,1.77-1.1,3.17-2.46,3.17s-2.47-1.43-2.47-3.17S108,109,109.34,109,111.8,110.45,111.8,112.22Z" style="fill:#e4dbe2"/><path d="M109.45,111.42c-.36.64-1,1-1.4.79s-.45-.9-.09-1.53,1-1,1.39-.8S109.81,110.78,109.45,111.42Z" style="fill:#f2ecf1"/><path d="M107,108.29c-.85.74-1.47,1.38-1.81,1.08s-.11-1.2.68-2,1.68-1.36,2.14-.93S107.78,107.56,107,108.29Z" style="fill:#828199"/><path d="M105.25,111c-.1.51-.4.9-.66.86s-.39-.51-.28-1,.39-.91.65-.86S105.36,110.49,105.25,111Z" style="fill:#828199"/><path d="M110.63,109.5a3.65,3.65,0,0,1,.5,1.88c0,1.66-1,3-2.3,3a2.19,2.19,0,0,1-1.1-.37,2.07,2.07,0,0,1-.76-.87,2.62,2.62,0,0,0,.78,1.57,2.7,2.7,0,0,0,1.6.74c1.36,0,2.46-1.44,2.46-3.18a3.44,3.44,0,0,0-.28-1.51,3.51,3.51,0,0,0-.9-1.25Z" style="fill:#bdaeb7"/><path d="M111.43,109.07a.09.09,0,0,1-.07,0,2.86,2.86,0,0,0-1.12-.58,2.73,2.73,0,0,0-1.27,0h0l-.05,0,0,0,0,0a.1.1,0,0,1,0-.09.11.11,0,0,1,.07-.06,3,3,0,0,1,2.58.65l0,0s0,0,0,0,0,0,0,0l0,0Z" style="fill:#403d54"/><path d="M109,116.41a2.5,2.5,0,0,1-1.39-.63.36.36,0,0,1,0-.09.18.18,0,0,1,0-.09.11.11,0,0,1,.08,0,.14.14,0,0,1,.09,0,2.17,2.17,0,0,0,1.24.58.12.12,0,0,1,.08,0,.16.16,0,0,1,0,.09v0l0,0,0,0Z" style="fill:#403d54"/><path d="M113.7,116.23h-.06a.12.12,0,0,1,0-.07.1.1,0,0,1,0-.09,7.26,7.26,0,0,0,.49-1.19.05.05,0,0,1,0,0s0,0,0,0l0,0h0a.18.18,0,0,1,.07,0,.28.28,0,0,1,0,.09,6.77,6.77,0,0,1-.52,1.24.1.1,0,0,1,0,0Z" style="fill:#403d54"/><path d="M109.74,119a.09.09,0,0,1-.07,0,.12.12,0,0,1,0-.07.09.09,0,0,1,0-.05.08.08,0,0,1,0,0l0,0,0,0a5.55,5.55,0,0,0,3.37-2,.11.11,0,0,1,.19.08.16.16,0,0,1,0,.09,5.82,5.82,0,0,1-3.52,2.09Z" style="fill:#403d54"/><path d="M141.38,112.22c0-3.3-1.78-6-4.29-6.86l1.12-.26h-2.65c-3.29,0-5.82,3.18-5.82,7.15s2.17,7.15,5.82,7.15h2.65l-1-.22C139.84,118.3,141.38,115.52,141.38,112.22Z" style="fill:#46435d"/><path d="M144,112.22c0,4-2.16,7.14-5.82,7.14s-5.82-3.17-5.82-7.14,2.54-7.15,5.82-7.15S144,108.29,144,112.22Z" style="fill:#5b5a75"/><path d="M141.72,112.37a3.15,3.15,0,1,1-3.11-3.67A3.42,3.42,0,0,1,141.72,112.37Z" style="fill:#403d54"/><path d="M140.79,112.22c0,1.77-1.1,3.17-2.47,3.17s-2.47-1.43-2.47-3.17S137,109,138.32,109,140.79,110.45,140.79,112.22Z" style="fill:#e4dbe2"/><path d="M138.44,111.42c-.36.64-1,1-1.39.79s-.46-.9-.11-1.53,1-1,1.39-.8S138.79,110.78,138.44,111.42Z" style="fill:#f2ecf1"/><path d="M135.94,108.29c-.85.74-1.46,1.38-1.81,1.08s-.09-1.2.69-2,1.68-1.36,2.14-.93S136.76,107.56,135.94,108.29Z" style="fill:#828199"/><path d="M134.24,111c-.1.51-.39.9-.65.86s-.4-.51-.3-1,.4-.91.66-.86S134.34,110.49,134.24,111Z" style="fill:#828199"/><path d="M139.61,109.5a3.65,3.65,0,0,1,.52,1.88c0,1.66-1,3-2.31,3a2.17,2.17,0,0,1-1.86-1.24,2.62,2.62,0,0,0,.78,1.57,2.7,2.7,0,0,0,1.6.74c1.37,0,2.47-1.44,2.47-3.18a3.54,3.54,0,0,0-1.2-2.76Z" style="fill:#bdaeb7"/><path d="M140.43,109.07a.11.11,0,0,1-.08,0,2.71,2.71,0,0,0-1.12-.57,2.56,2.56,0,0,0-1.26,0,.15.15,0,0,1-.15-.09.24.24,0,0,1,0-.09.16.16,0,0,1,.08-.06,3,3,0,0,1,1.36,0,2.93,2.93,0,0,1,1.21.63.12.12,0,0,1,0,.16Z" style="fill:#403d54"/><path d="M137.94,116.41a2.47,2.47,0,0,1-1.38-.63l0,0s0,0,0,0a.09.09,0,0,1,0,0,.05.05,0,0,1,0,0,.05.05,0,0,1,0,0h.1l0,0a2.17,2.17,0,0,0,1.25.58h0l0,0s0,0,0,0v0a.06.06,0,0,1,0,0l0,0,0,0Z" style="fill:#403d54"/><path d="M142.68,116.23h-.05a.13.13,0,0,1-.06-.07.14.14,0,0,1,0-.09,5.85,5.85,0,0,0,.49-1.19.11.11,0,0,1,.06-.07.1.1,0,0,1,.09,0,.05.05,0,0,1,0,0s0,0,0,0,0,0,0,.05a.06.06,0,0,1,0,0,6.11,6.11,0,0,1-.51,1.24l0,0Z" style="fill:#403d54"/><path d="M138.73,119a.11.11,0,0,1-.08,0,.1.1,0,0,1,0-.07v-.05s0,0,0,0l0,0,0,0a5.51,5.51,0,0,0,3.39-2,.16.16,0,0,1,.09,0,.11.11,0,0,1,.08.19,5.75,5.75,0,0,1-3.53,2.09Z" style="fill:#403d54"/><path d="M167,101.91h24.16a1.5,1.5,0,0,1,1.5,1.5V119.7a1.5,1.5,0,0,1-1.5,1.5h-21.3a2.83,2.83,0,0,1-2.83-2.83V101.91Z" style="fill:#c05666"/><path d="M156.51,101.91h13.23V121.2H156.51a1,1,0,0,1-1-1V102.89a1,1,0,0,1,1-1Z" style="fill:#e86b7b"/><path d="M168.3,119.68h-.07l-.06,0-11.58-16a.17.17,0,0,1,0-.22l.06,0h.06l.06,0a.08.08,0,0,1,0,0l11.59,16a.18.18,0,0,1,0,.1.21.21,0,0,1,0,.11.17.17,0,0,1-.1,0Z" style="fill:#c05666"/><path d="M156.75,119.68h-.1a.16.16,0,0,1,0-.21l11.65-16a.17.17,0,0,1,.22,0,.15.15,0,0,1,0,.22l-11.67,16a.19.19,0,0,1-.1,0Z" style="fill:#c05666"/><path d="M190.63,119.68a.27.27,0,0,1-.17-.06l-16.17-16a.14.14,0,0,1,.05-.22.45.45,0,0,1,.16,0,.26.26,0,0,1,.15.07l16.17,16,0,0a.09.09,0,0,1,0,.07s0,0,0,.06l-.06,0a.28.28,0,0,1-.13,0Z" style="fill:#ac4d5a"/><path d="M174.48,119.68h-.14a.09.09,0,0,1-.05,0,.09.09,0,0,1,0-.06.09.09,0,0,1,0-.07l0,0,16.3-16a.42.42,0,0,1,.16,0,.37.37,0,0,1,.15,0,.14.14,0,0,1,0,.23l-16.3,15.88a.27.27,0,0,1-.17.06Z" style="fill:#ac4d5a"/><path d="M168.67,103h-7.06v4.57h7.06Z" style="fill:#e4dbe2"/><path d="M166.89,104.42h-4a.43.43,0,0,1-.11-.11.17.17,0,0,1,0-.07.2.2,0,0,1,.06-.14.19.19,0,0,1,.13,0h4s0,0,.06,0l0,.06a.24.24,0,0,1,0,.08.19.19,0,0,1,0,.07s0,0,0,.06,0,0-.06,0Z" style="fill:#ccbfc8"/><path d="M164.25,105.28H163a.11.11,0,0,1-.08,0s-.05,0-.08,0a.18.18,0,0,1,0-.07.24.24,0,0,1,0-.08.29.29,0,0,1,0-.09l0-.06.08,0h1.35l.07,0a.07.07,0,0,1,.06,0,.21.21,0,0,1,0,.06.09.09,0,0,1,0,.07.15.15,0,0,1-.05.13A.19.19,0,0,1,164.25,105.28Z" style="fill:#ccbfc8"/><path d="M166.71,105.24h-1.65a.11.11,0,0,1-.08,0s0,0-.08,0a.18.18,0,0,1-.05-.07.24.24,0,0,1,0-.08.19.19,0,0,1,0-.08.18.18,0,0,1,.05-.07l.08,0a.22.22,0,0,1,.08,0h1.65a.27.27,0,0,1,.09,0l.07,0a.2.2,0,0,1,.06.07.19.19,0,0,1,0,.08.22.22,0,0,1,0,.08.2.2,0,0,1-.06.07l-.07,0A.14.14,0,0,1,166.71,105.24Z" style="fill:#ccbfc8"/><path d="M166.71,106.51h-3.82a.09.09,0,0,1-.07,0,.2.2,0,0,1-.06-.07.17.17,0,0,1,0-.16.2.2,0,0,1,.06-.07.09.09,0,0,1,.07,0h3.91a.11.11,0,0,1,.07,0,.18.18,0,0,1,0,.07.17.17,0,0,1,0,.16.18.18,0,0,1,0,.07.11.11,0,0,1-.07,0Z" style="fill:#ccbfc8"/><path d="M168.21,107.12h-6.12l-.05,0a.08.08,0,0,1,0,0v-3.58a.05.05,0,0,1,0,0s0,0,.05,0h6.16l0,0v3.62s0,0,0,0h0Zm-6.06-.13h6v-3.45h-6Z" style="fill:#ccbfc8"/><path d="M187.46,120H176.6c-.11,0-.21-.08-.21-.16s.1-.15.21-.15h10.86c.13,0,.23.07.23.15S187.59,120,187.46,120Z" style="fill:#ac4d5a"/><path d="M191.12,118.28c-.11,0-.21-.07-.21-.16v-6.57c0-.09.1-.16.21-.16s.23.07.23.16v6.57C191.32,118.24,191.25,118.28,191.12,118.28Z" style="fill:#ac4d5a"/></g></svg>