<svg id="Layer_1" data-name="Layer 1" xmlns="http://www.w3.org/2000/svg" xmlns:xlink="http://www.w3.org/1999/xlink" viewBox="0 0 298 136"><defs><clipPath id="clip-path"><rect width="298" height="136" style="fill:none"/></clipPath></defs><g style="clip-path:url(#clip-path)"><rect width="298" height="136" style="fill:#fff"/><path d="M298,0H0V136H298Z" style="fill:#32e6f9"/><path d="M297.76,43.65C274.42,26.18,258.9,13,224,7,169-2.35,110.31,88.35,76.34,83,38.85,77,0,54.55,0,54.55v61.74H297.76Z" style="fill:#37d9f4"/><path d="M-2.95,95.23a4.15,4.15,0,0,1,.59-2.09A4,4,0,0,1-.79,91.65a3.69,3.69,0,0,1,2.07-.3,3.63,3.63,0,0,1,1.88.9,5.47,5.47,0,0,1,1.19-2.69,5.53,5.53,0,0,1,2.42-1.68A5.05,5.05,0,0,1,12,89.56a2.79,2.79,0,0,1,2.92-.89,3.17,3.17,0,0,1,1.36,1A3.31,3.31,0,0,1,17,91.13a5.07,5.07,0,0,1,6-.63,6,6,0,0,1,2.2,2.59,6.15,6.15,0,0,1,.47,3.36C15.84,95.73,6,95.71-2.95,95.23Z" style="fill:#00707a"/><path d="M224.93,7a52.68,52.68,0,0,0-31.17,9.08C179,26.46,189.93,43.36,206,43S228.8,40.57,238.34,47,229,59.69,219.26,61.44s-11.61,20.92,35.16,21.42c40.81.4,43.34,4.21,43.34,4.21V43.65C272,21.55,244.74,8.19,224.93,7Z" style="fill:#34e0f7;opacity:0.8999999761581421;isolation:isolate"/><path d="M297.93,146.27H0V93.67s66-4.6,133.21-.41C189.73,96.78,298,99.51,298,99.51Z" style="fill:#23b781"/><path d="M56.81,145a15.24,15.24,0,0,0-5.68-14.43,13.22,13.22,0,0,0-14.71-.21,20.36,20.36,0,0,0-2.69-10.57A20.14,20.14,0,0,0,26,112.18,18.45,18.45,0,0,0,5.88,115.1a10.31,10.31,0,0,0-4.3-4,10.22,10.22,0,0,0-5.78-1,11.58,11.58,0,0,0-5.51,2.65,11.73,11.73,0,0,0-3.42,5.09,18.64,18.64,0,0,0-9.8-6.62,18.51,18.51,0,0,0-11.78.61,22.37,22.37,0,0,0-9.55,8.13A22.74,22.74,0,0,0-48,132C-11.77,135.34,24.13,141.3,56.81,145Z" style="fill:#179668"/><path d="M73.66,119.93a56.68,56.68,0,0,0-1.23,16.58c.27,3.52-1.92,19.83-1.92,19.83H92.8l3.31-10.46,1.32.29,7.13,10.17H125l-5.48-24.67-2-15.26Z" style="fill:#455a64"/><path d="M98.64,136.55a3.29,3.29,0,0,1-.66.37,7.85,7.85,0,0,1-2,.7,4.09,4.09,0,0,1-1.48,0,3.08,3.08,0,0,1-1.54-.74,3.65,3.65,0,0,1-.91-1.64,16.93,16.93,0,0,1-.43-1.93c-.52-2.64-.86-5.06-1.06-6.81-.1-.91-.17-1.59-.21-2.07a3.3,3.3,0,0,1,0-.77,3.32,3.32,0,0,1,.15.75c.08.56.19,1.24.31,2.06.27,1.74.65,4.14,1.16,6.78.26,1.29.43,2.62,1.24,3.4a3.54,3.54,0,0,0,1.29.67,3.42,3.42,0,0,0,1.46.05,9.09,9.09,0,0,0,2-.58,2.9,2.9,0,0,1,.7-.24Z" style="fill:#263238"/><path d="M93.82,124.13a.65.65,0,0,1,.33-.1,1.42,1.42,0,0,1,.91.29,1.47,1.47,0,0,1,.48.54,1.53,1.53,0,0,1,.2.69,1.49,1.49,0,0,1-.3.86,1.43,1.43,0,0,1-.73.52,1.51,1.51,0,0,1-.89.09,1.5,1.5,0,0,1-1.1-1.82,1.44,1.44,0,0,1,.5-.82c.17-.13.3-.15.31-.13a1.84,1.84,0,0,0-.57,1,1.52,1.52,0,0,0,0,.6,1.57,1.57,0,0,0,.27.53,1.38,1.38,0,0,0,.63.31,1.36,1.36,0,0,0,1.27-.48,1.39,1.39,0,0,0,.27-.65,1.59,1.59,0,0,0-.14-.57,1.43,1.43,0,0,0-.38-.47A1.78,1.78,0,0,0,93.82,124.13Z" style="fill:#263238"/><path d="M119.24,130.73a2.53,2.53,0,0,1-.55.09,12.51,12.51,0,0,1-1.5,0,14.66,14.66,0,0,1-9-3.79,13.31,13.31,0,0,1-1-1.09c-.22-.29-.34-.44-.32-.46s.56.56,1.52,1.36a16.18,16.18,0,0,0,8.87,3.74C118.45,130.72,119.24,130.67,119.24,130.73Z" style="fill:#263238"/><path d="M81.36,123.9a7.26,7.26,0,0,1-.84,1.64,18,18,0,0,1-6.26,6.13,6.81,6.81,0,0,1-1.66.78s.6-.37,1.53-1a22.8,22.8,0,0,0,6.24-6.09A15.89,15.89,0,0,1,81.36,123.9Z" style="fill:#263238"/><path d="M92.15,12.34h.64a12.39,12.39,0,0,1,13,10.64c.82,5.95,1.66,12.53,1.83,15.73.29,6.65-6.29,8.06-6.29,8.06l.24,2.74a8.11,8.11,0,0,1-1.89,5.9,7.85,7.85,0,0,1-2.47,2,8,8,0,0,1-3,.87h0a8.09,8.09,0,0,1-8.7-7.31L83.08,26.26C82.1,19.44,85.26,13.15,92.15,12.34Z" style="fill:#f9ae83"/><path d="M101.35,46.76a16.18,16.18,0,0,1-8.85-2s2.32,4.66,8.91,3.65Z" style="fill:#eb996e"/><path d="M103.93,29.15a.88.88,0,0,1,0,.36,1,1,0,0,1-.47.55,1.06,1.06,0,0,1-.36.09.88.88,0,0,1-.36,0,1.07,1.07,0,0,1-.32-.16.88.88,0,0,1-.24-.27,1.35,1.35,0,0,1-.11-.34.92.92,0,0,1,.22-.69,1,1,0,0,1,.29-.23,1.06,1.06,0,0,1,.35-.09.89.89,0,0,1,.68.18,1,1,0,0,1,.24.27.89.89,0,0,1,.11.35Z" style="fill:#1d394f"/><path d="M104.53,26.3c-.11.13-.86-.35-1.89-.3s-1.73.62-1.82.51.05-.29.36-.54a2.52,2.52,0,0,1,1.48-.55,2.46,2.46,0,0,1,1.5.38C104.46,26,104.58,26.26,104.53,26.3Z" style="fill:#1d394f"/><path d="M95.09,29.78a.89.89,0,0,1,0,.36,1,1,0,0,1-.47.55.86.86,0,0,1-.35.09.88.88,0,0,1-.36,0,1.07,1.07,0,0,1-.32-.16,1.18,1.18,0,0,1-.23-.27.85.85,0,0,1-.11-.34.87.87,0,0,1,0-.36.92.92,0,0,1,.18-.32,1.18,1.18,0,0,1,.28-.22,1.06,1.06,0,0,1,.35-.09.91.91,0,0,1,1,.78Z" style="fill:#1d394f"/><path d="M94.51,27.07c-.11.13-.86-.35-1.88-.3s-1.74.62-1.83.5,0-.28.37-.54a2.6,2.6,0,0,1,1.47-.55,2.52,2.52,0,0,1,1.51.39C94.45,26.8,94.57,27,94.51,27.07Z" style="fill:#1d394f"/><path d="M98.65,34.43a6.08,6.08,0,0,1,1.63-.4c.26,0,.5-.1.54-.29a1.37,1.37,0,0,0-.22-.76L99.68,31a33.28,33.28,0,0,1-2-5.09,34.3,34.3,0,0,1,2.46,4.88l.86,2a1.5,1.5,0,0,1,.21,1,.58.58,0,0,1-.15.25.82.82,0,0,1-.25.16,3.12,3.12,0,0,1-.44.09,7.44,7.44,0,0,1-1.7.1Z" style="fill:#c97355"/><path d="M94.55,23.06c-.09.28-1.12.21-2.3.42s-2.14.6-2.31.36.07-.39.44-.68a4.16,4.16,0,0,1,1.69-.68,4.27,4.27,0,0,1,1.81.12C94.35,22.72,94.58,22.92,94.55,23.06Z" style="fill:#1d394f"/><path d="M104,23.37c-.17.25-.92,0-1.74.08s-1.54.25-1.72,0,0-.34.32-.58a2.43,2.43,0,0,1,1.37-.47,2.51,2.51,0,0,1,1.41.4C103.93,23,104.05,23.25,104,23.37Z" style="fill:#1d394f"/><path d="M105,20s-2-4.05-4-4.9c-2.46-1-3.37,1.69-5.74,1.15s-4.73-1.51-7,.41C85.7,18.73,87,20,87,23c0,12-1.94,15.47-2.89,9.88-.1-.61-1.82-1-2.24-3.59-.52-3.35-.92-7.45-.28-9.89a9.57,9.57,0,0,1,3.57-5.18c3.12-2.61,7.59-2.92,10.65-2.78S104.93,14.75,105,20Z" style="fill:#1d394f"/><path d="M84.53,32.7a1.86,1.86,0,0,0-.22-.69,1.77,1.77,0,0,0-.47-.55,1.7,1.7,0,0,0-.64-.33,1.75,1.75,0,0,0-.72-.06c-1.23.2-2.57,1-2.34,3.53.4,4.57,4.87,3.19,4.86,3S84.75,34.59,84.53,32.7Z" style="fill:#ffbe9d"/><path d="M83.83,36.05l-.2.12a1,1,0,0,1-.29.1.75.75,0,0,1-.3,0,1.85,1.85,0,0,1-.74-.7,1.94,1.94,0,0,1-.3-1,2.81,2.81,0,0,1,.12-1.15,1,1,0,0,1,.19-.39.92.92,0,0,1,.35-.27.45.45,0,0,1,.28,0,.37.37,0,0,1,.21.18c.07.12,0,.21.08.22s.09-.08,0-.28a.59.59,0,0,0-.26-.3.53.53,0,0,0-.39,0,1.07,1.07,0,0,0-.77.77,2.71,2.71,0,0,0-.15,1.29A2,2,0,0,0,82,35.72a2.08,2.08,0,0,0,.94.72,1,1,0,0,0,.38,0,.8.8,0,0,0,.33-.17C83.83,36.15,83.89,36.05,83.83,36.05Z" style="fill:#eb996e"/><path d="M105.92,15.06c-.7-.53-1.66-.61-2.35-1.14-1.26-1-1.32-3.16-2.8-3.73-.91-.34-1.83.08-2.79,0-1.52-.16-2.11-1.3-4.41-1.31a4.19,4.19,0,0,0-3.95,2.22,3.44,3.44,0,0,0-1.76-.3,3.37,3.37,0,0,0-1.68.62,3.77,3.77,0,0,0-1.43,2.74s-.48-.24-1.91.92a7.42,7.42,0,0,0-2,3.39c-.49,1.66.23,3.41.92,5a3.39,3.39,0,0,0,.65,1.23,3.55,3.55,0,0,0,1.09.87,2.37,2.37,0,0,0,1.67-.25A2.3,2.3,0,0,0,86.24,24c.42-1.06,1.09-2.13,1.61-3.15.92-1.77,1.83-3.43,1.05-4.57a5.3,5.3,0,0,1,3.2,0c1,.35,2,1,3,1.38a2.74,2.74,0,0,0,1.6.19,2.72,2.72,0,0,0,1.42-.74,2.25,2.25,0,0,0,.63.77,2.24,2.24,0,0,0,1.89.41,2.25,2.25,0,0,0,.89-.44,3.17,3.17,0,0,0,1.81,1.38,3.11,3.11,0,0,0,2.26-.23,2.51,2.51,0,0,0,.78-.81,2.46,2.46,0,0,0,.35-1.08,2.54,2.54,0,0,0-.79-2.06Z" style="fill:#1d394f"/><path d="M95.76,36.09a5.71,5.71,0,0,0-.26,1.53,1.77,1.77,0,0,0,.1.72,2,2,0,0,0,1.86,1.3h0a2.12,2.12,0,0,0,2.1-1.83l.18-1.13C98.68,36.42,95.83,36.16,95.76,36.09Z" style="fill:#eb996e"/><path d="M98.54,39.32h-.35a3.54,3.54,0,0,1-.92,0,1.84,1.84,0,0,1-1.17-.68,2.35,2.35,0,0,1-.45-1.6,2.19,2.19,0,0,1,.23-.91l-.13.06c1,.16,1.91.28,2.55.36a5,5,0,0,0,1,.07,4.88,4.88,0,0,0-1-.25c-.63-.11-1.51-.28-2.54-.44h-.09l0,.09a2.56,2.56,0,0,0-.28,1.44,2.6,2.6,0,0,0,.53,1.36,2.08,2.08,0,0,0,1.34.72,2.87,2.87,0,0,0,1-.1A1.48,1.48,0,0,0,98.54,39.32Z" style="fill:#c97355"/><path d="M84,33.22a.84.84,0,0,0-.22-.31.94.94,0,0,0-.32-.19,1,1,0,0,0-.38,0,.89.89,0,0,0-.36.11c-.52.29-.62.71-.76,1.28a1.44,1.44,0,0,0,0,.62,1.72,1.72,0,0,0,.2.59,1,1,0,0,0,.47.4,1.09,1.09,0,0,0,.62,0,1.6,1.6,0,0,0,.52-.41,1.38,1.38,0,0,0,.28-.6,2,2,0,0,0,0-1.5Z" style="fill:#455a64"/><path d="M92.06,41.11A9.78,9.78,0,0,1,88,40.19a9.9,9.9,0,0,1-3.33-2.51,10.1,10.1,0,0,1-2-3.66l.75-.22A9,9,0,0,0,95.8,39.48l.33.71a9.75,9.75,0,0,1-4.07.92Z" style="fill:#455a64"/><path d="M96.66,38.62,94.84,39a1.17,1.17,0,0,0-.91,1.36l0,.23a1.16,1.16,0,0,0,1.35.91l1.82-.36a1.15,1.15,0,0,0,.91-1.35l0-.24A1.14,1.14,0,0,0,96.66,38.62Z" style="fill:#455a64"/><path d="M83.93,34a4.07,4.07,0,0,0,.92-1.33,1.84,1.84,0,0,0,.12-.8,1.79,1.79,0,0,0-.22-.78,2.3,2.3,0,0,0-1.12-.82,2.92,2.92,0,0,0-1.2-.23,1.67,1.67,0,0,0-.58.16,1.53,1.53,0,0,0-.48.39.54.54,0,0,0-.13.3.45.45,0,0,0,.07.32c.16.2.47.15.71.09a2.81,2.81,0,0,1,1-.13,1.19,1.19,0,0,1,.52.14,1.12,1.12,0,0,1,.4.35,1.19,1.19,0,0,1,.15.58,1.13,1.13,0,0,1-.15.57,3.4,3.4,0,0,1-.77.92" style="fill:#455a64"/><path d="M68.71,58.08c-.39,0-6,2.25-7.49,7.77s-5.49,25.74-5.49,25.74l-4.32,5.94s1.39,10.84,9.28,8.78a6.19,6.19,0,0,0,6.93-4.42c1.68-5.34,4.94-21.25,4.94-21.25Z" style="fill:#2a4d70"/><path d="M85.12,48.83l-3,4.5L68.71,58.08l3.85,39-1.45,20.4a4.73,4.73,0,0,0,.25,1.9,4.56,4.56,0,0,0,1,1.62A4.73,4.73,0,0,0,74,122a4.68,4.68,0,0,0,1.89.33l42.2-1.25c1.06,0,1.54-1.37,1.73-2.8a9.93,9.93,0,0,0-.34-3.87l-2.23-7.77c.33,4.85-1.12-29-1.18-30.21L119.28,59,104,52.84l-2.37-3.66L94.8,54.42Z" style="fill:#2a4d70"/><path d="M119.28,59s3.07,2.74,3.59,4.76,11.55,26,11.55,26l5.49,1.48,1.46,3A8.48,8.48,0,0,1,139,104.7a5.57,5.57,0,0,1-.59.4,9.31,9.31,0,0,1-11.4-2c-2.95-3.46-11.56-15.95-11.56-15.95V72Z" style="fill:#2a4d70"/><path d="M137.27,92.19l7.9-4.66,3.8,4.66-.79,2.26L138,102a6.8,6.8,0,0,1-2.36-4.09C135.17,95.08,137.27,92.19,137.27,92.19Z" style="fill:#f9ae83"/><path d="M134.77,89.78a11.56,11.56,0,0,0-1.66.34,7.32,7.32,0,0,0-3.28,2.27,14.78,14.78,0,0,0-2.08,3.5,11.18,11.18,0,0,1-.75,1.56,5.71,5.71,0,0,1,.48-1.67,12.26,12.26,0,0,1,2-3.65A6.79,6.79,0,0,1,133,89.85a3.12,3.12,0,0,1,1.74-.07Z" style="fill:#051e28"/><path d="M145.05,90.12a6.23,6.23,0,0,1,1.9-5.69,21.86,21.86,0,0,1,6.23-3.58c1.39-.61,4.27-3,4.78-2.44a1.89,1.89,0,0,1,0,2.52c-.73,1.06-4.91,2.65-4.32,4,.24.55,1.55.64,1.55.64s5,.33,7.15.15,4,.22,3.9.91-.51,1.12-2.27,1.27-4.57,0-4.73.44.43.66,1.45.58,5.83-.07,6.16.48a1.2,1.2,0,0,1,.15.45,1.08,1.08,0,0,1-.07.47,1,1,0,0,1-.25.4,1.12,1.12,0,0,1-.4.25l-1.14.39s.66.92.11,1.43-1.82.33-1.82.33l-6.4-.19s-.37.39-.18.65,5.18-.1,5.21.45.48.8-1,1.16a19.76,19.76,0,0,1-6.6,0,65.48,65.48,0,0,0-7-.61Z" style="fill:#f9ae83"/><path d="M58.35,93l-7.41-6.14L46.7,91.66,47.22,94l9.23,8.69a6.34,6.34,0,0,0,2.89-3.54C60.29,96.52,58.35,93,58.35,93Z" style="fill:#f9ae83"/><path d="M50.88,90.06A6.11,6.11,0,0,0,51,87a6.18,6.18,0,0,0-1.38-2.78,21.34,21.34,0,0,0-5.78-4.28c-1.29-.77-3.88-3.5-4.46-3a1.91,1.91,0,0,0-.61,1.2,1.87,1.87,0,0,0,.32,1.3c.61,1.14,3.47,2.47,3.37,3.92a1,1,0,0,1-.11.41.93.93,0,0,1-.26.33.85.85,0,0,1-.37.21,1,1,0,0,1-.42,0s-5-.26-7.11-.68-4-.26-4,.48.38,1.18,2.09,1.53,4.57.57,4.66,1-.51.6-1.51.41-5.79-.75-6.18-.25a1,1,0,0,0-.19.43,1,1,0,0,0,.21.9,1.07,1.07,0,0,0,.37.3l1.08.53s-.76.83-.27,1.39,1.73.54,1.73.54l6.4.56s.32.43.1.67-5.13-.71-5.23-.17-.56.74.92,1.28A20.39,20.39,0,0,0,41,94a65.76,65.76,0,0,1,7,.2Z" style="fill:#f9ae83"/><path d="M103.61,54a8.62,8.62,0,0,1-1.32,1.38c-.84.83-2,2-3.21,3.29l-.75.83-.16.17L98,59.44c-.94-1.2-1.76-2.3-2.31-3a6.15,6.15,0,0,1-.91-1.35,7.17,7.17,0,0,1,1.06,1.14c.63.74,1.49,1.83,2.44,3H98l.75-.83a44.79,44.79,0,0,1,3.37-3.24,9,9,0,0,1,1.5-1.17Z" style="fill:#051e28"/><path d="M69.59,68.41a3.8,3.8,0,0,1,.21.82c.12.54.26,1.32.42,2.29.31,1.93.64,4.62.91,7.59s.48,5.66.63,7.62L72,89a3.1,3.1,0,0,1,0,.86,3.9,3.9,0,0,1-.16-.84c-.09-.54-.19-1.32-.3-2.29-.22-2-.47-4.65-.74-7.61s-.57-5.65-.81-7.6c-.11-.91-.2-1.66-.28-2.29a3.06,3.06,0,0,1-.07-.85Z" style="fill:#051e28"/><path d="M116.27,67.05a6.06,6.06,0,0,1,.15,1c.06.67.13,1.64.2,2.84.13,2.4.2,5.73.21,9.39V92.56a6.14,6.14,0,0,1,0,1,5.17,5.17,0,0,1-.11-1c0-.67-.1-1.65-.13-2.84-.08-2.42-.12-5.73-.12-9.41s0-7-.09-9.38c0-1.13-.06-2.09-.07-2.84a5.27,5.27,0,0,1,0-1Z" style="fill:#051e28"/><path d="M63.52,101.49a18.64,18.64,0,0,1-.41-2.08,16.26,16.26,0,0,0-1.59-4.74,8.8,8.8,0,0,0-3.46-3.54,13.29,13.29,0,0,0-1.93-.75,1.37,1.37,0,0,1,.57,0,6.33,6.33,0,0,1,1.49.48,8.39,8.39,0,0,1,3.66,3.56,14.09,14.09,0,0,1,1.54,4.94,8,8,0,0,1,.13,2.13Z" style="fill:#051e28"/><path d="M65.44,93.42a15.15,15.15,0,0,0-3.2-1.77,15.58,15.58,0,0,0-3.65-.56,5.65,5.65,0,0,1,3.74.18,5.63,5.63,0,0,1,3.11,2.15Z" style="fill:#051e28"/><path d="M95.71,121.15c0-.22,0-.44,0-.67v-1.91c0-1.7-.08-4.09-.14-7-.14-6-.33-14.17-.54-23.21s-.33-17.27-.32-23.22c0-3,0-5.37.06-7a16.94,16.94,0,0,1,.06-1.91,3,3,0,0,1,0-.67c0,.22,0,.44,0,.67v1.91c0,1.69,0,4.09,0,7,.06,5.94.24,14.15.44,23.21s.38,17.27.43,23.21v9A3.74,3.74,0,0,1,95.71,121.15Z" style="fill:#051e28"/><path d="M58,92.77a3.25,3.25,0,0,1,1.08,1.39A7,7,0,0,1,59.69,96a7.78,7.78,0,0,1,0,2.36,6.72,6.72,0,0,1-.69,2.27,4.71,4.71,0,0,1-1.26,1.48,2.56,2.56,0,0,1-1.66.6,6.6,6.6,0,0,0,1.49-.83,4.65,4.65,0,0,0,1.13-1.4,6.67,6.67,0,0,0,.63-2.15,8.33,8.33,0,0,0,0-2.23,7.92,7.92,0,0,0-.53-1.78A13.38,13.38,0,0,0,58,92.77Z" style="fill:#263238"/><path d="M139.49,102.85a1.28,1.28,0,0,1-.5-.15,5.55,5.55,0,0,1-1.19-.72,6.47,6.47,0,0,1-1.63-8.42,5.37,5.37,0,0,1,.85-1.11c.24-.24.38-.34.4-.32a11.86,11.86,0,0,0-1,1.57,6.55,6.55,0,0,0-.64,4.3,6.64,6.64,0,0,0,2.19,3.76C138.84,102.51,139.57,102.78,139.49,102.85Z" style="fill:#263238"/><path d="M109.33,85a5.34,5.34,0,0,1-1,.59c-.67.37-1.65.87-2.87,1.47-2.43,1.22-5.84,2.82-9.66,4.43s-7.31,3-9.9,3.86c-1.28.45-2.32.8-3,1a6.4,6.4,0,0,1-1.14.31,6.14,6.14,0,0,1,1.09-.46l3-1.16c2.54-1,6-2.34,9.85-4s7.22-3.17,9.69-4.31l2.92-1.36A6.83,6.83,0,0,1,109.33,85Z" style="fill:#051e28"/><path d="M154.64,83.17a9.11,9.11,0,0,1-.74.91,2.72,2.72,0,0,0-.5,1.11c-.1.46-.09,1-.16,1.59a4.07,4.07,0,0,1-.51,1.44,3.8,3.8,0,0,1-1,1.13,2,2,0,0,1-1.14.49c0-.07.42-.23,1-.72a4,4,0,0,0,1.3-2.4c.08-.54.08-1.1.21-1.61a2.78,2.78,0,0,1,.64-1.21C154.19,83.38,154.61,83.13,154.64,83.17Z" style="fill:#c97355"/><path d="M39.58,89.44a19.39,19.39,0,0,1-4.44.09A19.19,19.19,0,0,1,30.73,89a31.26,31.26,0,0,1,4.43.11,31.07,31.07,0,0,1,4.42.31Z" style="fill:#c97355"/><path d="M44.09,89.11a1.7,1.7,0,0,1-1-.52,3.31,3.31,0,0,1-.85-1.14A3.25,3.25,0,0,1,41.94,86a7.65,7.65,0,0,1,.27-1.49,4.71,4.71,0,0,0,.16-1.17,3.85,3.85,0,0,0-.26-1,1.33,1.33,0,0,1,.54,1,3.81,3.81,0,0,1-.07,1.26,11.69,11.69,0,0,0-.24,1.44,3.31,3.31,0,0,0,.91,2.32C43.72,88.87,44.12,89,44.09,89.11Z" style="fill:#c97355"/><path d="M155.78,90.51a28.76,28.76,0,0,1,4.73.19,28.64,28.64,0,0,1,4.7.6,28.88,28.88,0,0,1-4.74-.19,27.49,27.49,0,0,1-4.69-.6Z" style="fill:#c97355"/><path d="M94.35,54.68A15.23,15.23,0,0,1,93.43,57L93,58.13a10.78,10.78,0,0,1-.63,1.33.89.89,0,0,1-.84.42,2,2,0,0,1-.79-.42l-1.41-.91c-1.91-1.32-3.65-2.55-4.88-3.44a15.38,15.38,0,0,1-2-1.53,14.81,14.81,0,0,1,2.12,1.29c1.28.84,3,2,5,3.34l1.38.94a2,2,0,0,0,.63.36.5.5,0,0,0,.3,0,.52.52,0,0,0,.22-.22c.44-.82.83-1.7,1.16-2.37a13.74,13.74,0,0,1,1.13-2.19Z" style="fill:#051e28"/><path d="M206,86.53s-4.21,7.83-6.08,6.23S184,77.86,184,77.86l-8.14,3.39s20.48,28.85,28.24,27.1,13.1-14,13.1-14Z" style="fill:#f9ae83"/><path d="M176.64,82.39c-2.19-.63-6-4.09-7.46-5.35-3.1-2.67-2.86-3-2.49-3.27,1-.82,5.64,4.51,5.35,2.79s-6.43-5.87-5.35-6.69c1.42-1.07,6.16,4.61,6.6,5.06s1.11-.16.69-.56c-.6-.55-6.74-6.53-5.35-7.6.77-.59,1.71.89,1.71.89s5.34,6,6,5.5-2.37-4.17-3.47-5.34-1-2.12-.08-2.18c.62,0,4.08,3.42,5.15,4.58s3.91,4.46,3.81,1.68.9-4.91,1.52-5.35,1.47.39,1.14,1.17a10.25,10.25,0,0,0-.43,2.75,6.57,6.57,0,0,0,.26,2.21c.11.34.2.65.3.95.46,1.38-.68,4.19.43,5.12" style="fill:#f9ae83"/><path d="M175.83,78.73a2,2,0,0,1,.68-.89,3.08,3.08,0,0,1,1.26-.51,2.94,2.94,0,0,1,1.35.08l-.24.36a4,4,0,0,1-.9-2.49c0-.68.21-1.07.26-1.06a9.52,9.52,0,0,1,.07,1,4.47,4.47,0,0,0,.89,2.22h0l.43.57-.67-.21a3.06,3.06,0,0,0-2.3.26C176.14,78.45,175.94,78.77,175.83,78.73Z" style="fill:#eaa27d"/><path d="M202,92.25c.46-.35,16.92-28.11,25.77-27.74,8.61.36-14.53,37.8-14.53,37.8s-3.25,1.08-7.69-3S202,92.25,202,92.25Z" style="fill:#e23b5b;fill-rule:evenodd"/><path d="M260.92,71.51s-11-8.26-23.74-8.26c-10.24,0-14.41,3.87-14.41,3.87l-6.89,49,40.45.63Z" style="fill:#ff4964"/><path d="M246.1,64.5a13.67,13.67,0,0,1-.89,2.49c-.84,1.84-5.76,8.91-12.83,7.9s-4-7.39-3.42-8.66c.49-1,1.78-2.67,2.83-2.67,2,0,9.87-.44,12.92.51Z" style="fill:#f9ae83"/><path d="M245.18,87.25a1.42,1.42,0,1,0-1.68,1.18A1.46,1.46,0,0,0,245.18,87.25Z" style="fill:#e7f1f2"/><path d="M248.89,65.73c.34-1,5.5,1.68,5.5,1.68s-7.95,18.88-6.8,25.11c.89,4.92,10.31,7.71,11.17.28.35-3-2.35,47.35-2.35,47.35H214.28S216.51,78,222.8,66.34c.41-.77,4.09-1.78,3.92-1.34-2,4.66-5.86,13.7-3.61,19.92,1.18,3.23,10.17,6.9,16.71.5C242.44,82.85,247.44,70.21,248.89,65.73Z" style="fill:#0a96ad"/><path d="M247.27,88.44a8.28,8.28,0,0,1-2.15,1.85,3.2,3.2,0,0,1-1.21.4,3,3,0,0,1-1.26-.12,2.61,2.61,0,0,1-1.06-.6,3.63,3.63,0,0,1-.71-1.07,8.8,8.8,0,0,1-.54-2.78,5.32,5.32,0,0,0-.14,3,3.54,3.54,0,0,0,.76,1.43,3.31,3.31,0,0,0,3.07,1,3.67,3.67,0,0,0,1.48-.66,5.19,5.19,0,0,0,1.76-2.44Z" style="fill:#0b7189"/><path d="M243.61,88.44a1.49,1.49,0,0,0,1.69-1.21,1.49,1.49,0,0,0-1.18-1.72,1.85,1.85,0,0,0-.47,0h.07a1.34,1.34,0,0,1,.53.24,1.46,1.46,0,0,1,.4.42,1.54,1.54,0,0,1,.2.54,1.87,1.87,0,0,1,0,.58,1.56,1.56,0,0,1-.43.76A1.42,1.42,0,0,1,243.61,88.44Z" style="fill:#c2c6c6"/><path d="M243.5,88.43h.11a1.46,1.46,0,0,0,.79-.4,1.53,1.53,0,0,0,.42-.79,1.89,1.89,0,0,0,0-.58,1.47,1.47,0,0,0-.2-.54,1.64,1.64,0,0,0-.4-.43,1.48,1.48,0,0,0-.53-.23h-.07a1.47,1.47,0,0,0-.79.41,1.44,1.44,0,0,0-.41.79,1.41,1.41,0,0,0,.16,1.1,1.38,1.38,0,0,0,.89.67Z" style="fill:#e7f1f2"/><path d="M222,83.86a3,3,0,0,1-.66,1.13,1.63,1.63,0,0,1-.49.33,1.5,1.5,0,0,1-.59.1,1.23,1.23,0,0,1-.57-.06,1.41,1.41,0,0,1-.49-.31,2,2,0,0,1-.41-1.19,1.47,1.47,0,0,0-.1.72,1.56,1.56,0,0,0,.22.69,1.22,1.22,0,0,0,.61.49,2,2,0,0,0,.76.12,1.59,1.59,0,0,0,.74-.18,1.74,1.74,0,0,0,.59-.49,2.1,2.1,0,0,0,.39-1.35Z" style="fill:#0b7189"/><path d="M220.26,84.11a1.15,1.15,0,0,0,.37,0,1,1,0,0,0,.33-.17.89.89,0,0,0,.37-.62,1,1,0,0,0-.07-.77,1.07,1.07,0,0,0-.57-.52.76.76,0,0,0-.3,0h.07a1.07,1.07,0,0,1,.57.52,1,1,0,0,1,.07.77,1,1,0,0,1-.29.53,1.11,1.11,0,0,1-.55.28Z" style="fill:#c2c6c6"/><path d="M220.21,84.1h0a1,1,0,0,0,.53-.29.92.92,0,0,0,.28-.53,1,1,0,0,0-.06-.77,1,1,0,0,0-.58-.51h0a1,1,0,0,0-.54.27,1,1,0,0,0-.28.54,1,1,0,0,0,.06.77,1.06,1.06,0,0,0,.58.52Z" style="fill:#e7f1f2"/><path d="M242.37,100.28S225.45,103,219,96.83l-1.52,21.76s1.71,5.64,9.8,6.61,13.43-5.27,13.43-5.27Z" style="fill:#0b7189"/><path d="M240.51,103l.1-1.21h-.28l-.89.12.05.45.62-.07-.05.62Z" style="fill:#0e9ea5"/><path d="M233.27,102.75h1v-.46h-1.73v.45Zm-2.53-.07v-.45a13.58,13.58,0,0,1-1.72-.15l-.06.46C229.55,102.6,230.14,102.65,230.74,102.68Zm5.25,0c.63,0,1.22-.07,1.78-.12v-.46c-.52.05-1.1.09-1.78.13Zm-8.73-.37.07-.46c-.59-.09-1.16-.21-1.7-.34l-.1.44c.54.13,1.16.25,1.73.35Zm-3.42-.89L224,101a12.91,12.91,0,0,1-1.58-.67l-.17.47a14.94,14.94,0,0,0,1.6.66Z" style="fill:#0e9ea5"/><path d="M220.29,100v-.45l.37.29.27-.37c-.23-.18-.46-.37-.67-.57l-.36-.34-.1,1.4Z" style="fill:#0e9ea5"/><path d="M228.41,123.93v-.46a5,5,0,0,1-1.09-.08l-.73-.1-.07.44.74.12A5.61,5.61,0,0,0,228.41,123.93Zm1.9-.09a13,13,0,0,0,1.86-.38L232,123a12.17,12.17,0,0,1-1.78.35Zm-5.63-.54.14-.44a11.39,11.39,0,0,1-1.69-.71l-.2.41a10.85,10.85,0,0,0,1.75.75Zm9.28-.47a13.62,13.62,0,0,0,1.69-.89l-.23-.39a16.88,16.88,0,0,1-1.64.84Zm-12.61-1.26.29-.37a8.17,8.17,0,0,1-1.31-1.25l-.36.29a10.2,10.2,0,0,0,1.38,1.33Zm15.91-.64a17.22,17.22,0,0,0,1.45-1.24l-.33-.33a14.41,14.41,0,0,1-1.39,1.2Zm-18.34-2.29.41-.21a4.56,4.56,0,0,1-.24-.55l.08-1.14h-.46l-.08,1.23a4.17,4.17,0,0,0,.25.67Zm20.39-.79.15-1.86H239l-.16,1.86Zm-20-3,.13-1.86H219l-.13,1.87Zm20.32-.75.15-1.86h-.45l-.16,1.87Zm-20.06-3,.13-1.87h-.46l-.13,1.86Zm20.37-.75.16-1.86h-.46l-.16,1.86Zm-20.11-3,.12-1.86h-.45l-.13,1.87Zm20.43-.74.15-1.86h-.46l-.16,1.87Zm-20.17-3,.12-1.86h-.45l-.14,1.86Z" style="fill:#0e9ea5"/><path d="M211.36,105.52c8.17-1.39-8.46-19.68-11.47-12.72-.18.4,1.35,4.4,1.56,4.78,1.48,2.74,3.11,10.24,3.11,10.24C205.92,109.41,208.71,106,211.36,105.52Z" style="fill:#d1375c;fill-rule:evenodd"/><path d="M266.13,50.18c1.57-6.64-12-15.53-30.29-19.84s-34.39-2.43-36,4.22,12,15.52,30.29,19.84S264.56,56.82,266.13,50.18Z" style="fill:#9e7b57"/><path d="M229.3,23c-3.56-1.16-9.32.52-10.42,9-.83,6.31.16,13.88,3.73,15s7.62-4.9,9.59-11S232.87,24.19,229.3,23Z" style="fill:#1d394f"/><path d="M237,68.83l1.37,0a5.28,5.28,0,0,0,5.39-5.15l.22-9.37a5.27,5.27,0,0,0-5.14-5.4l-1.37,0a5.27,5.27,0,0,0-5.4,5.14l-.22,9.38A5.27,5.27,0,0,0,237,68.83Z" style="fill:#f9ae83"/><path d="M229.12,62.15a15.69,15.69,0,0,0,16.64-11.67L249,39.13c.71-8.14-2.49-16.72-13.08-17.61A14.73,14.73,0,0,0,220.05,35l-.48,11.39C219.7,55.29,222.79,61.59,229.12,62.15Z" style="fill:#f9ae83"/><path d="M243.82,43.63c-.19-.79-1.39,3.68-1.64,2.68-.42-1.73-1.55-2.51-1.19-5.35a11,11,0,0,0-.13-3.29c-3.5-4.45-17.35-6.72-20.83-2.16,0,0-.37-16,15.08-14.54,16.44,1.44,14.18,14.36,13.85,18.16-.47,5.14-2.43,15.14-5.14,15.84C243.81,55,245.39,50.65,243.82,43.63Z" style="fill:#1d394f"/><path d="M250,46.57c.5-2.59-.64-5-2.56-5.37s-3.86,1.44-4.37,4,.65,5,2.56,5.36S249.46,49.16,250,46.57Z" style="fill:#f9ae83"/><path d="M248.8,43.32a2.85,2.85,0,0,0-2-.16,3.52,3.52,0,0,0-1.71,1.06,4.86,4.86,0,0,0-1,1.72c-.09.31-.17.62-.23.94a7.77,7.77,0,0,0-.08,1,7.83,7.83,0,0,0,.4-.89c.13-.32.28-.56.41-.84a7.51,7.51,0,0,1,1-1.44,4,4,0,0,1,1.43-1,4,4,0,0,1,1.73-.33Z" style="fill:#c97355"/><path d="M247.64,45.72a1.52,1.52,0,0,0-.89-.68,1.83,1.83,0,0,0-1.22.09,2.31,2.31,0,0,0-.89.72c-.11.16-.22.32-.31.48a4.88,4.88,0,0,0-.18.54l.44-.32a4.71,4.71,0,0,0,.42-.33,6.07,6.07,0,0,1,.82-.48,2.74,2.74,0,0,1,1.81,0Z" style="fill:#c97355"/><path d="M226.09,31.54s2.35,5.73,7.51,6.78a.32.32,0,0,0,.17,0,.28.28,0,0,0,.13-.11.29.29,0,0,0,0-.16.3.3,0,0,0-.05-.16,6.49,6.49,0,0,1-1.43-4.62C232.83,30.33,226.09,31.54,226.09,31.54Z" style="fill:#1d394f"/><path d="M219.5,35.09c.6,1.44,3.12,3.81,9,5.09a.26.26,0,0,0,.15,0,.29.29,0,0,0,.12-.1.24.24,0,0,0,0-.15.23.23,0,0,0,0-.14,8.35,8.35,0,0,1-1.74-6.16c.55-3.26-6.65.47-7.35,1.13C219.57,34.88,219.43,34.93,219.5,35.09Z" style="fill:#1d394f"/><path d="M227.58,45.23a12.25,12.25,0,0,0-1.36,1.91,8.49,8.49,0,0,0-.95,2.21,3,3,0,0,0-.07.67,1.59,1.59,0,0,0,.07.38.74.74,0,0,0,.29.38,2.15,2.15,0,0,0,.63.26,4.1,4.1,0,0,0,.61.11,6.54,6.54,0,0,0,2.37-.23,14.52,14.52,0,0,1-2.28-.3,2.63,2.63,0,0,1-.53-.15,1.65,1.65,0,0,1-.42-.21.5.5,0,0,1-.08-.27,2.76,2.76,0,0,1,.07-.49,13.38,13.38,0,0,1,.76-2.15C227,46.67,227.3,46,227.58,45.23Z" style="fill:#c97355"/><path d="M224.91,54.83a4.84,4.84,0,0,0,2.2,1,8.24,8.24,0,0,0,2.43.05,10,10,0,0,0,2.32-.63c.36-.14.72-.34,1.08-.51a7,7,0,0,0,1-.65c-.39.1-.75.22-1.13.34l-1.11.32c-.38.08-.74.21-1.12.27l-.56.11-.56.08a11.54,11.54,0,0,1-2.27.09,7.93,7.93,0,0,1-2.27-.43Z" style="fill:#c97355"/><path d="M226.58,57.14a1.23,1.23,0,0,0,.65.6,2.42,2.42,0,0,0,1.78,0,2.14,2.14,0,0,0,.72-.47,4.57,4.57,0,0,0-.83,0h-1.47a6.15,6.15,0,0,1-.85-.1Z" style="fill:#c97355"/><path d="M238.88,42.31a17.66,17.66,0,0,0-2-.63,16,16,0,0,0-2.07-.34,5.5,5.5,0,0,0-2.14,0,3,3,0,0,0-1.78,1.19l0,.06a7,7,0,0,1,1.92-.45c.64-.1,1.3-.17,1.95-.21a15.26,15.26,0,0,1,2,.11c.68.07,1.36.18,2,.3Z" style="fill:#1d394f"/><path d="M220.46,41.51a9,9,0,0,1,1.27,0,6.13,6.13,0,0,1,1.19.24,9.55,9.55,0,0,1,1,.49,9.77,9.77,0,0,1,1,.63h.08a1.88,1.88,0,0,0-.2-.7,1.78,1.78,0,0,0-.45-.57,2.64,2.64,0,0,0-1.27-.49,5,5,0,0,0-1.34,0,7,7,0,0,0-1.28.29Z" style="fill:#1d394f"/><path d="M233.22,46c0-.81-.32-1.48-.76-1.49s-.81.64-.82,1.45.32,1.48.75,1.49S233.2,46.76,233.22,46Z" style="fill:#1d394f"/><path d="M224,45.73c0-.81-.32-1.48-.75-1.49s-.81.64-.83,1.45.32,1.48.76,1.49S224,46.54,224,45.73Z" style="fill:#1d394f"/><path d="M231.83,62.19s6.9-1.58,9.35-3.92c0,0-5.72,10.3-9.2,6.78C231.55,64.6,231.83,62.19,231.83,62.19Z" style="fill:#f58a69"/><path d="M199.87,36.66c1.57-6.64,17.67-8.53,36-4.21,16.44,3.89,29.06,11.45,30.27,17.76,1.57-6.64-12-15.52-30.27-19.84s-34.4-2.43-36,4.22a4.82,4.82,0,0,0,0,2.07Z" style="fill:#d8aa73"/><path d="M253.53,111.6c3.06,7.67-2.19,8.52-8.25,8.33s-22.76-5.54-22.76-5.54l-.89-4.34C232.87,109.81,249.7,102,253.53,111.6Z" style="fill:#2b4060;fill-rule:evenodd;opacity:0.30000001192092896;isolation:isolate"/><path d="M257.92,109.94s-7-40.65,2.44-38.41c10.58,2.53,14.57,39.28,14.57,39.28s-2.23,3-9,2.63S257.92,109.94,257.92,109.94Z" style="fill:#ff4964;fill-rule:evenodd"/><path d="M256.83,111c15.66-23,35.06,16.62,6.37,9.27Z" style="fill:#e23b5b;fill-rule:evenodd"/><path d="M258.75,71.61a4.17,4.17,0,0,0-1.36,1.14,4.68,4.68,0,0,0-.53.73,5.14,5.14,0,0,0-.46.78,12.68,12.68,0,0,0-.72,1.65c-.2.56-.34,1.15-.52,1.72a32.19,32.19,0,0,0-.71,7.13,54.8,54.8,0,0,0,.56,7.12c.19,1.17.34,2.34.6,3.5s.51,2.31.79,3.45c-.09-1.18-.22-2.35-.36-3.56l-.1-.89-.07-.89-.16-1.78c-.13-1.17-.17-2.34-.24-3.51l-.07-.89V84.64a41.37,41.37,0,0,1,.5-7c.14-.57.25-1.14.39-1.71a13.69,13.69,0,0,1,.57-1.63,4.73,4.73,0,0,1,.35-.8,6,6,0,0,1,.43-.74l.24-.37.28-.34a3.94,3.94,0,0,1,.59-.49Z" style="fill:#e23b5b"/><path d="M247.44,125l-22.17-2.2a1.51,1.51,0,0,1-1.33-1.28l-3.83-26.84a1.53,1.53,0,0,1,.06-.67,1.44,1.44,0,0,1,.35-.58,1.42,1.42,0,0,1,.57-.36,1.38,1.38,0,0,1,.67-.08l23.35,2.76a1.45,1.45,0,0,1,.88.43,1.48,1.48,0,0,1,.42.9l2.67,26.28a1.44,1.44,0,0,1-.08.65,1.33,1.33,0,0,1-.35.55,1.48,1.48,0,0,1-1.21.44Z" style="fill:#e4dbe2"/><path d="M238.12,94.88l-.33-.77-2-.27s-.43-1.35-3.3-1.67c-2.56-.28-2.75,1-2.75,1l-1.39-.09,0,.63Z" style="fill:#403336"/><path d="M229.28,105.28l27.89,1.11,12.55.81c1.37.09,4.22,1.6,4.73,4.09.41,2-.12,5.5-1.5,7.13-1.86,2.2-7.61,2.49-10.46,2l-5.88-.93-28.79-6.23" style="fill:#f9ae83"/><path d="M221.65,103.37a.66.66,0,0,1,0-.28.7.7,0,0,1,.13-.24.6.6,0,0,1,.22-.16.5.5,0,0,1,.27,0A32.23,32.23,0,0,1,228,103c1.45.4,6.86,2.67,6.86,2.67l-2.24,8.51-8.29.14s-3-1.38-3.08-2a10.73,10.73,0,0,1,.08-1.13l-.89-.48a1.93,1.93,0,0,1-.51-2.52,2.1,2.1,0,0,1-.67-.62,1.94,1.94,0,0,1-.33-.85,1.51,1.51,0,0,1,.16-.81,1.54,1.54,0,0,1,.57-.59s-.38-1.33.31-1.7a2.82,2.82,0,0,1,1.88.09A.51.51,0,0,1,221.65,103.37Z" style="fill:#f9ae83"/><path d="M221.17,103.51a1.14,1.14,0,0,0,.26.09c.16,0,.41.1.71.15.61.11,1.46.19,2.4.29a21.13,21.13,0,0,1,2.37.34c.59.14.89.32.94.3a1.14,1.14,0,0,0-.23-.15,3.38,3.38,0,0,0-.69-.26,13.63,13.63,0,0,0-2.37-.39c-.95-.1-1.78-.17-2.4-.25S221.18,103.45,221.17,103.51Z" style="fill:#eb996e"/><path d="M219.62,105.23a1.86,1.86,0,0,0,.58.29,8.82,8.82,0,0,0,1.52.44c.6.11,1.15.19,1.54.25a3.53,3.53,0,0,0,.65,0,17.65,17.65,0,0,0-2.16-.46,14,14,0,0,1-1.5-.38,4.42,4.42,0,0,0-.63-.14Z" style="fill:#eb996e"/><path d="M219.87,108.15a7,7,0,0,0,1.78.59,6.52,6.52,0,0,0,1.86.21s-.81-.14-1.82-.37S219.89,108.1,219.87,108.15Z" style="fill:#eb996e"/><path d="M220.4,110.65a6.33,6.33,0,0,0,2.8.66,106.28,106.28,0,0,1-2.8-.66Z" style="fill:#eb996e"/><path d="M224.71,109.13a.56.56,0,0,0,.26.09,1,1,0,0,0,.62-.18,1,1,0,0,0,.37-.53.54.54,0,0,0,0-.28,1.77,1.77,0,0,1-.47.68,1.79,1.79,0,0,1-.78.22Z" style="fill:#eb996e"/><path d="M224.91,111.75a.62.62,0,0,0,.61-.2c.27-.26.3-.59.26-.58s-.13.25-.37.46S224.91,111.7,224.91,111.75Z" style="fill:#eb996e"/><path d="M225.8,106.42a.39.39,0,0,0,.42,0c.21-.17.21-.4.16-.39s-.1.15-.26.26S225.8,106.38,225.8,106.42Z" style="fill:#eb996e"/><path d="M234.85,105.64h-.06l-.2-.09-.77-.34c-.68-.28-1.66-.7-2.9-1.2-.62-.25-1.3-.53-2-.79a7.24,7.24,0,0,0-1.2-.37q-.64-.1-1.32-.15c-.89-.07-1.86-.1-2.86-.11h-1.15a1,1,0,0,0-.41.09.64.64,0,0,0-.31.32.74.74,0,0,0-.05.44.32.32,0,0,0,.1.1l.1.06.19.09a2.23,2.23,0,0,0,.39.13s0,0,.06,0a.1.1,0,0,0,0,0,.13.13,0,0,0,0-.06.1.1,0,0,0-.05,0,9.15,9.15,0,0,0-1-.22,3.32,3.32,0,0,0-1.09,0,1,1,0,0,0-.54.24,1,1,0,0,0-.27.52,2.91,2.91,0,0,0,.08,1.14l0-.12a1.5,1.5,0,0,0-.46.41,1.59,1.59,0,0,0-.23,1.48,2.16,2.16,0,0,0,1,1.13v-.11a2.49,2.49,0,0,0-.25,1.44,1.53,1.53,0,0,0,.26.68,1.66,1.66,0,0,0,.52.5h0l.89.48v-.08c0,.22,0,.44,0,.66a3.19,3.19,0,0,0,0,.32.48.48,0,0,0,0,.17.64.64,0,0,0,.06.18,2,2,0,0,0,.47.44c.18.13.35.23.53.34a22.14,22.14,0,0,0,2,1.07h0l6-.14,1.69-.07h-1.67l-6,.07a19.72,19.72,0,0,1-2-1.06l-.5-.33a1.92,1.92,0,0,1-.44-.46.21.21,0,0,1,0-.11v-.47a3.48,3.48,0,0,1,.05-.65,0,0,0,0,0,0,0s0,0,0,0l-.89-.49a1.47,1.47,0,0,1-.47-.46,1.62,1.62,0,0,1-.24-.61,2.51,2.51,0,0,1,.24-1.35s0,0,0,0a.14.14,0,0,0,0-.06,2,2,0,0,1-.89-1,1.35,1.35,0,0,1-.06-.69,1.41,1.41,0,0,1,.27-.64,1.16,1.16,0,0,1,.4-.36.09.09,0,0,0,0,0,.07.07,0,0,0,0-.05,2.58,2.58,0,0,1-.07-1.07.68.68,0,0,1,.21-.44.73.73,0,0,1,.45-.19,3.69,3.69,0,0,1,1.05,0,8.62,8.62,0,0,1,1,.21v-.15a2.65,2.65,0,0,1-.37-.12l-.17-.08c-.06,0-.11-.08-.14-.08a.7.7,0,0,1,.06-.32.49.49,0,0,1,.24-.25.65.65,0,0,1,.34-.07h1.14c1,0,2,0,2.86.09a7.72,7.72,0,0,1,1.3.14,8,8,0,0,1,1.18.34c.75.27,1.43.54,2.06.79l2.91,1.22.77.31.21.08Z" style="fill:#eb996e"/><path d="M265.41,46.24s-3.88-9.41-31.68-15.32c0,0-25.37-6.77-33.25,2.32.8-1.43,5.34-4.13,6.91-4.72l29.1-11.39a2,2,0,0,1,1-.1,1.93,1.93,0,0,1,.94.43l20.29,20.83c1.35,1.15,6.69,6.18,6.66,8Z" style="fill:#f9d07d"/></g></svg>