<svg width="32" height="40" viewBox="0 0 32 40" fill="none" xmlns="http://www.w3.org/2000/svg">
<g clip-path="url(#clip0_874:55133)">
<g clip-path="url(#clip1_874:55133)">
<ellipse cx="16.1026" cy="15.3846" rx="14.2308" ry="13.8462" fill="white"/>
<path fill-rule="evenodd" clip-rule="evenodd" d="M10.1628 6.15385L19.0717 11.303C21.5342 12.7325 21.5342 15.0534 19.0717 16.4829L10.1628 21.6167V6.15385Z" fill="#FFCB05"/>
<path fill-rule="evenodd" clip-rule="evenodd" d="M14.2721 8.52092L20.9695 12.3943C24.1221 14.2234 24.1221 17.3898 20.9695 19.2035L14.2721 23.0769V8.52092Z" fill="#00C1F3"/>
<path fill-rule="evenodd" clip-rule="evenodd" d="M14.2721 8.52092L19.0716 11.2876C21.5341 12.7171 21.5341 15.0381 19.0716 16.4675L14.2721 19.2342V8.52092Z" fill="#00A651"/>
</g>
<path d="M16.1764 0C7.42867 0 0.333313 6.95238 0.333313 15.5238C0.333313 16.1714 0.372192 16.819 0.449949 17.4286C1.61278 26.1535 11.4296 35.7354 14.937 38.9113C15.6493 39.5564 16.7063 39.5594 17.4221 38.9183C20.9398 35.7679 30.7652 26.2718 31.8639 17.581C31.9611 16.8952 32 16.2095 32 15.5048C32 6.95238 24.9241 0 16.1764 0ZM16.0209 28.1714C8.55615 28.1714 2.49108 22.2286 2.49108 14.9143C2.49108 7.6 8.55615 1.65714 16.0209 1.65714C23.4856 1.65714 29.5506 7.6 29.5506 14.9143C29.5506 22.2286 23.4856 28.1714 16.0209 28.1714Z" fill="#1E88E5"/>
</g>
<defs>
<clipPath id="clip0_874:55133">
<rect width="31.6667" height="40" fill="white" transform="translate(0.333313)"/>
</clipPath>
<clipPath id="clip1_874:55133">
<rect width="28.4615" height="27.6923" fill="white" transform="translate(1.87177 1.53847)"/>
</clipPath>
</defs>
</svg>
