<svg width="32" height="40" viewBox="0 0 32 40" fill="none" xmlns="http://www.w3.org/2000/svg">
<g clip-path="url(#clip0_496:48768)">
<g clip-path="url(#clip1_496:48768)">
<ellipse cx="15.7693" cy="15.3846" rx="14.2308" ry="13.8462" fill="white"/>
<path fill-rule="evenodd" clip-rule="evenodd" d="M9.82947 6.15385L18.7384 11.303C21.2009 12.7325 21.2009 15.0534 18.7384 16.4829L9.82947 21.6167V6.15385Z" fill="#FFCB05"/>
<path fill-rule="evenodd" clip-rule="evenodd" d="M13.9388 8.52092L20.6362 12.3943C23.7888 14.2234 23.7888 17.3898 20.6362 19.2035L13.9388 23.0769V8.52092Z" fill="#00C1F3"/>
<path fill-rule="evenodd" clip-rule="evenodd" d="M13.9388 8.52092L18.7383 11.2876C21.2008 12.7171 21.2008 15.0381 18.7383 16.4675L13.9388 19.2342V8.52092Z" fill="#00A651"/>
</g>
<path d="M15.8431 0C7.09536 0 0 6.95238 0 15.5238C0 16.1714 0.0388787 16.819 0.116636 17.4286C1.27946 26.1535 11.0963 35.7354 14.6036 38.9113C15.316 39.5564 16.373 39.5594 17.0888 38.9183C20.6065 35.7679 30.4318 26.2718 31.5306 17.581C31.6278 16.8952 31.6667 16.2095 31.6667 15.5048C31.6667 6.95238 24.5908 0 15.8431 0ZM15.6875 28.1714C8.22284 28.1714 2.15777 22.2286 2.15777 14.9143C2.15777 7.6 8.22284 1.65714 15.6875 1.65714C23.1522 1.65714 29.2173 7.6 29.2173 14.9143C29.2173 22.2286 23.1522 28.1714 15.6875 28.1714Z" fill="#E53935"/>
</g>
<defs>
<clipPath id="clip0_496:48768">
<rect width="31.6667" height="40" fill="white"/>
</clipPath>
<clipPath id="clip1_496:48768">
<rect width="28.4615" height="27.6923" fill="white" transform="translate(1.53845 1.53847)"/>
</clipPath>
</defs>
</svg>
