<svg width="33" height="40" viewBox="0 0 33 40" fill="none" xmlns="http://www.w3.org/2000/svg">
<g clip-path="url(#clip0_874:55132)">
<g clip-path="url(#clip1_874:55132)">
<ellipse cx="16.436" cy="15.3846" rx="14.2308" ry="13.8462" fill="white"/>
<path fill-rule="evenodd" clip-rule="evenodd" d="M10.4962 6.15385L19.4051 11.303C21.8676 12.7325 21.8676 15.0534 19.4051 16.4829L10.4962 21.6167V6.15385Z" fill="#FFCB05"/>
<path fill-rule="evenodd" clip-rule="evenodd" d="M14.6055 8.52092L21.3029 12.3943C24.4555 14.2234 24.4555 17.3898 21.3029 19.2035L14.6055 23.0769V8.52092Z" fill="#00C1F3"/>
<path fill-rule="evenodd" clip-rule="evenodd" d="M14.6055 8.52092L19.405 11.2876C21.8675 12.7171 21.8675 15.0381 19.405 16.4675L14.6055 19.2342V8.52092Z" fill="#00A651"/>
</g>
<path d="M16.5097 0C7.76204 0 0.666687 6.95238 0.666687 15.5238C0.666687 16.1714 0.705566 16.819 0.783323 17.4286C1.94615 26.1535 11.763 35.7354 15.2703 38.9113C15.9827 39.5564 17.0397 39.5594 17.7555 38.9183C21.2732 35.7679 31.0985 26.2718 32.1973 17.581C32.2945 16.8952 32.3334 16.2095 32.3334 15.5048C32.3334 6.95238 25.2574 0 16.5097 0ZM16.3542 28.1714C8.88952 28.1714 2.82445 22.2286 2.82445 14.9143C2.82445 7.6 8.88952 1.65714 16.3542 1.65714C23.8189 1.65714 29.884 7.6 29.884 14.9143C29.884 22.2286 23.8189 28.1714 16.3542 28.1714Z" fill="#FFA600"/>
</g>
<defs>
<clipPath id="clip0_874:55132">
<rect width="31.6667" height="40" fill="white" transform="translate(0.666687)"/>
</clipPath>
<clipPath id="clip1_874:55132">
<rect width="28.4615" height="27.6923" fill="white" transform="translate(2.20514 1.53847)"/>
</clipPath>
</defs>
</svg>
