<svg width="15" height="14" viewBox="0 0 15 14" fill="none" xmlns="http://www.w3.org/2000/svg">
<path fill-rule="evenodd" clip-rule="evenodd" d="M7.75 14C11.616 14 14.75 10.866 14.75 7C14.75 3.13401 11.616 0 7.75 0C3.88401 0 0.75 3.13401 0.75 7C0.75 10.866 3.88401 14 7.75 14ZM10.9937 5.86872C11.3354 5.52701 11.3354 4.97299 10.9937 4.63128C10.652 4.28957 10.098 4.28957 9.75628 4.63128L6.875 7.51256L5.74372 6.38128C5.40201 6.03957 4.84799 6.03957 4.50628 6.38128C4.16457 6.72299 4.16457 7.27701 4.50628 7.61872L6.25628 9.36872C6.59799 9.71043 7.15201 9.71043 7.49372 9.36872L10.9937 5.86872Z" fill="white"/>
</svg>
