<svg width="17" height="16" viewBox="0 0 17 16" fill="none" xmlns="http://www.w3.org/2000/svg">
<g clip-path="url(#clip0_4887:58694)">
<path fill-rule="evenodd" clip-rule="evenodd" d="M8.5 15C12.366 15 15.5 11.866 15.5 8C15.5 4.13401 12.366 1 8.5 1C4.63401 1 1.5 4.13401 1.5 8C1.5 11.866 4.63401 15 8.5 15ZM11.7437 6.86872C12.0854 6.52701 12.0854 5.97299 11.7437 5.63128C11.402 5.28957 10.848 5.28957 10.5063 5.63128L7.625 8.51256L6.49372 7.38128C6.15201 7.03957 5.59799 7.03957 5.25628 7.38128C4.91457 7.72299 4.91457 8.27701 5.25628 8.61872L7.00628 10.3687C7.34799 10.7104 7.90201 10.7104 8.24372 10.3687L11.7437 6.86872Z" fill="white"/>
</g>
<defs>
<clipPath id="clip0_4887:58694">
<rect width="16.5" height="16" fill="white"/>
</clipPath>
</defs>
</svg>
