<svg width="20" height="20" viewBox="0 0 20 20" fill="none" xmlns="http://www.w3.org/2000/svg">
<path fill-rule="evenodd" clip-rule="evenodd" d="M10 3C10.3713 3 10.7274 3.1475 10.9899 3.41005C11.2525 3.6726 11.4 4.0287 11.4 4.4V8.6H15.6C15.9713 8.6 16.3274 8.7475 16.5899 9.01005C16.8525 9.2726 17 9.6287 17 10C17 10.3713 16.8525 10.7274 16.5899 10.9899C16.3274 11.2525 15.9713 11.4 15.6 11.4H11.4V15.6C11.4 15.9713 11.2525 16.3274 10.9899 16.5899C10.7274 16.8525 10.3713 17 10 17C9.6287 17 9.2726 16.8525 9.01005 16.5899C8.7475 16.3274 8.6 15.9713 8.6 15.6V11.4H4.4C4.0287 11.4 3.6726 11.2525 3.41005 10.9899C3.1475 10.7274 3 10.3713 3 10C3 9.6287 3.1475 9.2726 3.41005 9.01005C3.6726 8.7475 4.0287 8.6 4.4 8.6H8.6V4.4C8.6 4.0287 8.7475 3.6726 9.01005 3.41005C9.2726 3.1475 9.6287 3 10 3Z" fill="white"/>
</svg>
