<svg width="20" height="20" viewBox="0 0 20 20" fill="none" xmlns="http://www.w3.org/2000/svg">
<path d="M10 11C10.5523 11 11 10.5523 11 10C11 9.44772 10.5523 9 10 9C9.44772 9 9 9.44772 9 10C9 10.5523 9.44772 11 10 11Z" fill="white" stroke="white" stroke-width="2" stroke-linecap="round" stroke-linejoin="round"/>
<path fill-rule="evenodd" clip-rule="evenodd" d="M9.99996 1.66675C10.4602 1.66675 10.8333 2.03984 10.8333 2.50008V3.38499C13.8489 3.76103 16.239 6.15115 16.615 9.16675H17.5C17.9602 9.16675 18.3333 9.53984 18.3333 10.0001C18.3333 10.4603 17.9602 10.8334 17.5 10.8334H16.615C16.239 13.849 13.8489 16.2391 10.8333 16.6152V17.5001C10.8333 17.9603 10.4602 18.3334 9.99996 18.3334C9.53972 18.3334 9.16663 17.9603 9.16663 17.5001V16.6152C6.15103 16.2391 3.76091 13.849 3.38487 10.8334H2.49996C2.03972 10.8334 1.66663 10.4603 1.66663 10.0001C1.66663 9.53984 2.03972 9.16675 2.49996 9.16675H3.38487C3.76091 6.15115 6.15103 3.76103 9.16663 3.38499V2.50008C9.16663 2.03984 9.53972 1.66675 9.99996 1.66675ZM9.99996 5.00008C7.23854 5.00008 4.99996 7.23866 4.99996 10.0001C4.99996 12.7615 7.23854 15.0001 9.99996 15.0001C12.7614 15.0001 15 12.7615 15 10.0001C15 7.23866 12.7614 5.00008 9.99996 5.00008Z" fill="white"/>
</svg>
