<svg width="16" height="16" viewBox="0 0 15 15" fill="none" xmlns="http://www.w3.org/2000/svg">
<path fill-rule="evenodd" clip-rule="evenodd" d="M2.51508 1.11508C2.9089 0.721249 3.44305 0.5 4 0.5H11C11.557 0.5 12.0911 0.721249 12.4849 1.11508C12.8788 1.5089 13.1 2.04305 13.1 2.6V13.1H13.8C14.1866 13.1 14.5 13.4134 14.5 13.8C14.5 14.1866 14.1866 14.5 13.8 14.5H1.2C0.813401 14.5 0.5 14.1866 0.5 13.8C0.5 13.4134 0.813401 13.1 1.2 13.1H1.9V2.6C1.9 2.04305 2.12125 1.5089 2.51508 1.11508ZM3.3 13.1H5.4V10.3C5.4 9.9287 5.5475 9.5726 5.81005 9.31005C6.0726 9.0475 6.4287 8.9 6.8 8.9H8.2C8.5713 8.9 8.9274 9.0475 9.18995 9.31005C9.4525 9.5726 9.6 9.9287 9.6 10.3V13.1H11.7V2.6C11.7 2.41435 11.6263 2.2363 11.495 2.10503C11.3637 1.97375 11.1857 1.9 11 1.9H4C3.81435 1.9 3.6363 1.97375 3.50503 2.10503C3.37375 2.2363 3.3 2.41435 3.3 2.6V13.1ZM6.8 13.1H8.2V10.3H6.8V13.1ZM4.7 4C4.7 3.6134 5.0134 3.3 5.4 3.3H6.1C6.4866 3.3 6.8 3.6134 6.8 4C6.8 4.3866 6.4866 4.7 6.1 4.7H5.4C5.0134 4.7 4.7 4.3866 4.7 4ZM8.2 4C8.2 3.6134 8.5134 3.3 8.9 3.3H9.6C9.9866 3.3 10.3 3.6134 10.3 4C10.3 4.3866 9.9866 4.7 9.6 4.7H8.9C8.5134 4.7 8.2 4.3866 8.2 4ZM4.7 6.8C4.7 6.4134 5.0134 6.1 5.4 6.1H6.1C6.4866 6.1 6.8 6.4134 6.8 6.8C6.8 7.1866 6.4866 7.5 6.1 7.5H5.4C5.0134 7.5 4.7 7.1866 4.7 6.8ZM8.2 6.8C8.2 6.4134 8.5134 6.1 8.9 6.1H9.6C9.9866 6.1 10.3 6.4134 10.3 6.8C10.3 7.1866 9.9866 7.5 9.6 7.5H8.9C8.5134 7.5 8.2 7.1866 8.2 6.8Z" fill="#616161"/>
</svg>
