<svg width="20" height="20" viewBox="0 0 20 20" fill="none" xmlns="http://www.w3.org/2000/svg">
<path d="M4 12.1818C3.45 12.1818 3 12.5909 3 13.0909V15.8182C3 16.3182 3.45 16.7273 4 16.7273H7C7.55 16.7273 8 16.3182 8 15.8182C8 15.3182 7.55 14.9091 7 14.9091H5V13.0909C5 12.5909 4.55 12.1818 4 12.1818ZM4 8.54545C4.55 8.54545 5 8.13636 5 7.63636V5.81818H7C7.55 5.81818 8 5.40909 8 4.90909C8 4.40909 7.55 4 7 4H4C3.45 4 3 4.40909 3 4.90909V7.63636C3 8.13636 3.45 8.54545 4 8.54545ZM15 14.9091H13C12.45 14.9091 12 15.3182 12 15.8182C12 16.3182 12.45 16.7273 13 16.7273H16C16.55 16.7273 17 16.3182 17 15.8182V13.0909C17 12.5909 16.55 12.1818 16 12.1818C15.45 12.1818 15 12.5909 15 13.0909V14.9091ZM12 4.90909C12 5.40909 12.45 5.81818 13 5.81818H15V7.63636C15 8.13636 15.45 8.54545 16 8.54545C16.55 8.54545 17 8.13636 17 7.63636V4.90909C17 4.40909 16.55 4 16 4H13C12.45 4 12 4.40909 12 4.90909Z" fill="white"/>
</svg>
