<svg width="100" height="82" viewBox="0 0 100 82" fill="none" xmlns="http://www.w3.org/2000/svg">
<g clip-path="url(#clip0_258:25253)">
<path opacity="0.8" d="M99.454 56.7547C99.3623 47.7593 92.2005 37.9297 83.4042 37.3682C83.2497 37.3584 83.0936 37.3499 82.936 37.3427C70.328 36.7685 69.5315 53.0712 58.1484 54.9535C46.7653 56.8358 37.965 47.5893 24.383 53.6968C12.1847 59.182 9.17281 89.7512 45.1864 90.8374C74.0004 91.7065 99.7273 83.5929 99.454 56.7547Z" fill="#EFEFEF"/>
<g clip-path="url(#clip1_258:25253)">
<path d="M61.9387 41.5418H52.4635V81.4286H61.9387V41.5418Z" fill="#8E4F24"/>
<path d="M58.3871 49.6217H52.5674V81.4286H58.3871V49.6217Z" fill="#B0632B"/>
<path d="M66.8658 70.0372V81.4286H58.5276V78.3156C58.5276 76.1201 59.4061 74.0144 60.9698 72.4619C62.5336 70.9094 64.6544 70.0372 66.8658 70.0372Z" fill="#27AE69"/>
<path d="M53.032 81.4286H44.6938V73.1502C46.9052 73.1502 49.0261 74.0224 50.5898 75.5749C52.1535 77.1274 53.032 79.233 53.032 81.4286Z" fill="#27AE69"/>
<path d="M17.5116 24.1783H14.1686C14.0023 24.1783 13.8429 24.1128 13.7253 23.9961C13.6078 23.8794 13.5417 23.7211 13.5417 23.556C13.5417 23.391 13.6078 23.2327 13.7253 23.116C13.8429 22.9993 14.0023 22.9337 14.1686 22.9337H17.5116C17.6779 22.9337 17.8373 22.9993 17.9548 23.116C18.0724 23.2327 18.1384 23.391 18.1384 23.556C18.1384 23.7211 18.0724 23.8794 17.9548 23.9961C17.8373 24.1128 17.6779 24.1783 17.5116 24.1783Z" fill="#FE4E4E"/>
<path d="M21.0636 20.3408C20.8973 20.3408 20.7379 20.2752 20.6204 20.1585C20.5028 20.0418 20.4368 19.8835 20.4368 19.7184V16.3993C20.4368 16.2342 20.5028 16.0759 20.6204 15.9592C20.7379 15.8425 20.8973 15.7769 21.0636 15.7769C21.2298 15.7769 21.3893 15.8425 21.5068 15.9592C21.6244 16.0759 21.6904 16.2342 21.6904 16.3993V19.7183C21.6904 19.8001 21.6742 19.881 21.6427 19.9565C21.6112 20.032 21.5651 20.1007 21.5069 20.1585C21.4486 20.2162 21.3795 20.2621 21.3035 20.2934C21.2274 20.3247 21.1459 20.3408 21.0636 20.3408Z" fill="#FE4E4E"/>
<path d="M18.5541 21.3885C18.4228 21.3886 18.2948 21.3476 18.1884 21.2712L14.9668 18.9681C14.8319 18.8717 14.7411 18.726 14.7144 18.563C14.6877 18.4001 14.7272 18.2334 14.8244 18.0994C14.9215 17.9655 15.0683 17.8753 15.2324 17.8488C15.3964 17.8223 15.5644 17.8616 15.6993 17.958L18.9209 20.2612C19.0286 20.3381 19.1088 20.447 19.1502 20.5721C19.1916 20.6972 19.1919 20.8322 19.1511 20.9575C19.1104 21.0828 19.0306 21.192 18.9233 21.2695C18.816 21.347 18.6868 21.3886 18.5541 21.3885H18.5541Z" fill="#FE4E4E"/>
<path d="M41.19 6.1705H73.2122C76.9068 6.1705 80.4501 7.62765 83.0626 10.2214C85.6751 12.8152 87.1428 16.333 87.1428 20.0012V41.5418H27.2594V20.0012C27.2594 16.333 28.7271 12.8152 31.3396 10.2214C33.9521 7.62765 37.4954 6.1705 41.19 6.1705Z" fill="#FDBE12"/>
<path d="M84.1477 11.4386H52.0845V18.0236H86.9987C86.651 15.6171 85.6673 13.345 84.1477 11.4386Z" fill="#F9AE16"/>
<path d="M41.19 6.1705C44.8846 6.1705 48.4279 7.62765 51.0404 10.2214C53.6529 12.8152 55.1206 16.333 55.1206 20.0012V41.5418H27.2594V20.0012C27.2594 16.333 28.7271 12.8152 31.3396 10.2214C33.9521 7.62765 37.4954 6.1705 41.19 6.1705Z" fill="#FAAF18"/>
<path d="M41.188 7.67566C44.4298 7.67566 47.5387 8.9542 49.831 11.23C52.1233 13.5058 53.411 16.5925 53.411 19.811V40.2248H28.965V19.811C28.965 16.5925 30.2527 13.5058 32.545 11.23C34.8373 8.9542 37.9462 7.67566 41.188 7.67566Z" fill="#535044"/>
<path d="M29.0006 18.9295C28.9795 19.221 28.965 19.5142 28.965 19.811V40.2248H53.411V28.4495L29.0006 18.9295Z" fill="#766B60"/>
<path d="M60.47 28.7479C61.9876 28.7479 63.2178 27.5265 63.2178 26.0198C63.2178 24.5131 61.9876 23.2917 60.47 23.2917C58.9525 23.2917 57.7222 24.5131 57.7222 26.0198C57.7222 27.5265 58.9525 28.7479 60.47 28.7479Z" fill="#535044"/>
<path d="M65.7288 0.714286H61.7492H59.4752V3.91275V27.2428H61.7492V3.91275H65.7288L64.5918 2.29151L65.7288 0.714286Z" fill="#535044"/>
<path d="M60.4701 27.4779C61.2812 27.4779 61.9387 26.8251 61.9387 26.0198C61.9387 25.2145 61.2812 24.5617 60.4701 24.5617C59.6589 24.5617 59.0014 25.2145 59.0014 26.0198C59.0014 26.8251 59.6589 27.4779 60.4701 27.4779Z" fill="white"/>
<path d="M17.1209 41.5418H55.1165V42.8588H17.1209C16.945 42.8588 16.7763 42.7894 16.6519 42.6659C16.5275 42.5425 16.4576 42.375 16.4576 42.2003C16.4576 42.0257 16.5275 41.8582 16.6519 41.7347C16.7763 41.6112 16.945 41.5418 17.1209 41.5418Z" fill="#FDBE12"/>
<path d="M54.3585 43.7995C55.6145 43.7995 56.6326 42.7887 56.6326 41.5418C56.6326 40.2949 55.6145 39.284 54.3585 39.284C53.1026 39.284 52.0845 40.2949 52.0845 41.5418C52.0845 42.7887 53.1026 43.7995 54.3585 43.7995Z" fill="#535044"/>
<path d="M54.3585 42.7835C55.0493 42.7835 55.6092 42.2276 55.6092 41.5418C55.6092 40.856 55.0493 40.3 54.3585 40.3C53.6678 40.3 53.1078 40.856 53.1078 41.5418C53.1078 42.2276 53.6678 42.7835 54.3585 42.7835Z" fill="#766B60"/>
<path d="M44.9245 22.7943H23.3976C21.7019 22.7943 20.3272 24.1591 20.3272 25.8427V38.5582C20.3272 40.2418 21.7019 41.6066 23.3976 41.6066H44.9245C46.6202 41.6066 47.9948 40.2418 47.9948 38.5582V25.8427C47.9948 24.1591 46.6202 22.7943 44.9245 22.7943Z" fill="#DA3845"/>
<path d="M34.161 36.8372L47.9948 27.8473V25.7254C47.9948 25.581 47.9662 25.4379 47.9105 25.3045C47.8549 25.1711 47.7733 25.0498 47.6704 24.9477C47.5675 24.8456 47.4454 24.7646 47.311 24.7093C47.1766 24.6541 47.0326 24.6256 46.8871 24.6256H21.4349C21.2895 24.6256 21.1454 24.6541 21.011 24.7093C20.8766 24.7646 20.7545 24.8456 20.6517 24.9477C20.5488 25.0498 20.4672 25.1711 20.4115 25.3045C20.3559 25.4379 20.3272 25.581 20.3272 25.7254V27.8473L34.161 36.8372Z" fill="#BB2E3F"/>
<path d="M34.161 35.0059L47.9948 26.0159V25.4916C47.9948 24.7763 47.7086 24.0902 47.1991 23.5844C46.6896 23.0785 45.9986 22.7943 45.278 22.7943H23.044C22.3235 22.7943 21.6324 23.0785 21.1229 23.5844C20.6134 24.0902 20.3272 24.7763 20.3272 25.4916V26.016L34.161 35.0059Z" fill="#FE4E4E"/>
</g>
<path d="M21 71C21 72.6569 19.6569 74 18 74C16.3431 74 15 72.6569 15 71C15 69.3431 16.3431 68 18 68C19.6569 68 21 69.3431 21 71Z" fill="#FAAF18"/>
<path d="M100 21C100 22.6569 98.6569 24 97 24C95.3431 24 94 22.6569 94 21C94 19.3431 95.3431 18 97 18C98.6569 18 100 19.3431 100 21Z" fill="#27AE69"/>
<path d="M7 38.5C7 40.433 5.433 42 3.5 42C1.567 42 0 40.433 0 38.5C0 36.567 1.567 35 3.5 35C5.433 35 7 36.567 7 38.5Z" fill="#00A2DE"/>
</g>
<defs>
<clipPath id="clip0_258:25253">
<rect width="100" height="81.4286" fill="white"/>
</clipPath>
<clipPath id="clip1_258:25253">
<rect width="74.2857" height="80.7143" fill="white" transform="translate(12.8571 0.714286)"/>
</clipPath>
</defs>
</svg>
