<svg width="27" height="32" viewBox="0 0 27 32" fill="none" xmlns="http://www.w3.org/2000/svg">
<path d="M0 4.26088C0 2.31587 1.57674 0.739136 3.52174 0.739136H17.6087L22.3044 5.43479L27 10.1304V27.7391C27 29.6841 25.4233 31.2609 23.4783 31.2609H3.52174C1.57674 31.2609 0 29.6841 0 27.7391V4.26088Z" fill="#EF5350"/>
<path d="M21.5919 15.1779C21.9846 15.1779 22.1768 14.8449 22.1768 14.5222C22.1768 14.188 21.9763 13.8652 21.5919 13.8652H19.3558C18.9186 13.8652 18.6749 14.2176 18.6749 14.6065V19.9542C18.6749 20.4309 18.9538 20.6955 19.3312 20.6955C19.7062 20.6955 19.9864 20.4309 19.9864 19.9542V18.4864H21.3388C21.7584 18.4864 21.9682 18.1522 21.9682 17.8204C21.9682 17.4954 21.7584 17.1726 21.3388 17.1726H19.9864V15.1779H21.5919ZM14.0338 13.8652H12.3977C11.9535 13.8652 11.6382 14.1618 11.6382 14.6019V19.9588C11.6382 20.505 12.0917 20.6761 12.4163 20.6761H14.1333C16.1655 20.6761 17.5074 19.3749 17.5074 17.3664C17.5063 15.2429 16.243 13.8652 14.0338 13.8652ZM14.1124 19.3555H13.1149V15.1859H14.0139C15.3746 15.1859 15.9664 16.0744 15.9664 17.3004C15.9664 18.4477 15.385 19.3555 14.1124 19.3555ZM8.11879 13.8652H6.49795C6.03969 13.8652 5.78418 14.1594 5.78418 14.6065V19.9542C5.78418 20.4309 6.07716 20.6955 6.47091 20.6955C6.86466 20.6955 7.15764 20.4309 7.15764 19.9542V18.3929H8.17372C9.42773 18.3929 10.4626 17.5283 10.4626 16.1381C10.4627 14.7776 9.46423 13.8652 8.11879 13.8652ZM8.09187 17.1385H7.15776V15.1209H8.09187C8.66849 15.1209 9.03532 15.5588 9.03532 16.1302C9.0341 16.7005 8.66849 17.1385 8.09187 17.1385Z" fill="white"/>
<path d="M19.9552 10.1297C18.6586 10.1297 17.6074 9.07858 17.6074 7.78191L17.6074 0.740095L26.9981 10.1297L19.9552 10.1297Z" fill="#D32F2F"/>
</svg>
