<svg width="22" height="22" viewBox="0 0 22 22" fill="none" xmlns="http://www.w3.org/2000/svg">
<path d="M11 12.5C12.6545 12.5 14 11.1545 14 9.5C14 7.8455 12.6545 6.5 11 6.5C9.3455 6.5 8 7.8455 8 9.5C8 11.1545 9.3455 12.5 11 12.5ZM11 8C11.8273 8 12.5 8.67275 12.5 9.5C12.5 10.3273 11.8273 11 11 11C10.1728 11 9.5 10.3273 9.5 9.5C9.5 8.67275 10.1728 8 11 8Z" fill="white"/>
<path d="M10.565 18.3605C10.6919 18.4512 10.844 18.4999 11 18.4999C11.156 18.4999 11.3081 18.4512 11.435 18.3605C11.663 18.1993 17.0218 14.33 17 9.5C17 6.19175 14.3083 3.5 11 3.5C7.69175 3.5 5 6.19175 5 9.49625C4.97825 14.33 10.337 18.1993 10.565 18.3605ZM11 5C13.4818 5 15.5 7.01825 15.5 9.50375C15.5158 12.8323 12.209 15.821 11 16.8013C9.79175 15.8203 6.48425 12.8308 6.50001 9.5C6.50001 7.01825 8.51825 5 11 5Z" fill="white"/>
</svg>
