<svg width="22" height="24" viewBox="0 0 22 24" fill="none" xmlns="http://www.w3.org/2000/svg">
<path d="M16 18.5H15.915C6.09 17.935 4.695 9.645 4.5 7.115C4.48429 6.91829 4.50755 6.72041 4.56844 6.53271C4.62933 6.345 4.72666 6.17115 4.85486 6.02113C4.98306 5.8711 5.13959 5.74784 5.31551 5.65842C5.49142 5.569 5.68325 5.51516 5.88 5.5H8.635C8.83528 5.49981 9.031 5.55976 9.19682 5.67208C9.36263 5.78441 9.4909 5.94394 9.565 6.13L10.325 8C10.3982 8.18177 10.4163 8.38104 10.3772 8.57305C10.3381 8.76505 10.2435 8.94134 10.105 9.08L9.04 10.155C9.20636 11.1004 9.65909 11.9718 10.3369 12.6515C11.0148 13.3311 11.8851 13.7862 12.83 13.955L13.915 12.88C14.0557 12.7431 14.2337 12.6506 14.4266 12.6142C14.6196 12.5777 14.819 12.5989 15 12.675L16.885 13.43C17.0683 13.5064 17.2246 13.6357 17.3341 13.8013C17.4437 13.967 17.5014 14.1614 17.5 14.36V17C17.5 17.3978 17.342 17.7794 17.0607 18.0607C16.7794 18.342 16.3978 18.5 16 18.5ZM6 6.5C5.86739 6.5 5.74022 6.55268 5.64645 6.64645C5.55268 6.74022 5.5 6.86739 5.5 7V7.04C5.73 10 7.205 17 15.97 17.5C16.0357 17.5041 16.1015 17.4951 16.1638 17.4737C16.226 17.4522 16.2833 17.4187 16.3326 17.375C16.3818 17.3314 16.422 17.2784 16.4507 17.2192C16.4794 17.16 16.4962 17.0957 16.5 17.03V14.36L14.615 13.605L13.18 15.03L12.94 15C8.59 14.455 8 10.105 8 10.06L7.97 9.82L9.39 8.385L8.64 6.5H6Z" fill="white"/>
</svg>
