<svg width="21" height="20" viewBox="0 0 21 20" fill="none" xmlns="http://www.w3.org/2000/svg">
<path d="M16.1226 4.32349C14.6195 2.82605 12.62 2.00085 10.4919 2C8.36865 2 6.36597 2.82446 4.85303 4.32153C3.3374 5.82117 2.50195 7.81409 2.5 9.9259V9.92834V9.92981C2.50024 11.208 2.83606 12.4974 3.47351 13.6744L2.52185 18L6.89722 17.0048C8.00537 17.5632 9.24182 17.8577 10.4889 17.8582H10.4921C12.615 17.8582 14.6177 17.0336 16.1309 15.5364C17.6478 14.0355 18.4836 12.0452 18.4846 9.93201C18.4852 7.83374 17.6465 5.84192 16.1226 4.32349ZM10.4919 16.6094H10.4891C9.36938 16.6089 8.25989 16.3278 7.28076 15.7961L7.07385 15.6838L4.16443 16.3456L4.79639 13.4735L4.67456 13.2634C4.06885 12.2189 3.74878 11.0658 3.74878 9.92847C3.7511 6.24719 6.77576 3.24878 10.4917 3.24878C12.2869 3.24951 13.9736 3.94543 15.2412 5.20813C16.528 6.49036 17.2363 8.16785 17.2357 9.93164C17.2343 13.6138 14.209 16.6094 10.4919 16.6094Z" fill="white"/>
<path d="M7.97766 7H7.62732C7.50537 7 7.30737 7.04565 7.13989 7.22791C6.97229 7.41028 6.5 7.85107 6.5 8.74756C6.5 9.64404 7.15515 10.5103 7.24646 10.632C7.33789 10.7535 8.51111 12.652 10.3693 13.3823C11.9136 13.9893 12.2279 13.8685 12.563 13.8381C12.8982 13.8079 13.6447 13.3975 13.797 12.972C13.9493 12.5466 13.9493 12.1819 13.9037 12.1057C13.8579 12.0298 13.736 11.9843 13.5532 11.8932C13.3704 11.802 12.4744 11.3538 12.3068 11.2928C12.1392 11.2322 12.0173 11.2018 11.8954 11.3843C11.7734 11.5664 11.4144 11.9878 11.3077 12.1094C11.2012 12.2311 11.0945 12.2463 10.9116 12.1552C10.7288 12.0637 10.146 11.8679 9.44763 11.2473C8.90405 10.7643 8.52686 10.1483 8.42017 9.96594C8.3136 9.78369 8.40881 9.68506 8.50049 9.59412C8.58264 9.51257 8.6936 9.401 8.78503 9.29468C8.87634 9.18823 8.90234 9.1123 8.96338 8.99072C9.02429 8.86914 8.99377 8.7627 8.94812 8.67163C8.90234 8.58044 8.55151 7.67944 8.38892 7.31909H8.38904C8.25208 7.01562 8.10791 7.00537 7.97766 7Z" fill="white"/>
</svg>
