<svg width="40" height="44" viewBox="0 0 40 44" fill="none" xmlns="http://www.w3.org/2000/svg">
<path d="M4.90986 43.3337C2.77091 39.8321 1.33684 36.1626 0.607657 32.3252C-0.121531 28.4399 -0.19445 24.6025 0.3889 20.8131C0.97225 17.0237 2.21187 13.4022 4.10776 9.94861C6.05226 6.49499 8.62872 3.40111 11.8371 0.666992L16.2852 3.32916C17.063 3.8568 17.4033 4.50435 17.3061 5.27183C17.2088 5.99133 16.9415 6.59092 16.504 7.07059C15.3373 8.5096 14.2921 10.3084 13.3684 12.4669C12.4934 14.5774 11.9101 16.8798 11.6184 19.3741C11.3267 21.8684 11.4239 24.4586 11.9101 27.1448C12.3962 29.8309 13.4171 32.4691 14.9727 35.0594C15.6532 36.1626 15.8477 37.1459 15.556 38.0093C15.2643 38.8727 14.6324 39.4963 13.6601 39.88L4.90986 43.3337ZM27.5876 43.3337C25.4487 39.8321 24.0146 36.1626 23.2854 32.3252C22.5562 28.4399 22.4833 24.6025 23.0666 20.8131C23.65 17.0237 24.8896 13.4022 26.7855 9.94861C28.73 6.49499 31.3065 3.40111 34.5149 0.666992L38.9629 3.32916C39.7407 3.8568 40.081 4.50435 39.9838 5.27183C39.8866 5.99133 39.6192 6.59092 39.1817 7.07059C38.015 8.5096 36.9698 10.3084 36.0462 12.4669C35.1712 14.5774 34.5878 16.8798 34.2961 19.3741C34.0045 21.8684 34.1017 24.4586 34.5878 27.1448C35.0739 29.8309 36.0948 32.4691 37.6504 35.0594C38.331 36.1626 38.5254 37.1459 38.2337 38.0093C37.9421 38.8727 37.3101 39.4963 36.3379 39.88L27.5876 43.3337Z" fill="#16A75C"/>
</svg>
