<svg width="320" height="200" viewBox="0 0 320 200" fill="none" xmlns="http://www.w3.org/2000/svg">
<path d="M319.88 0H0V200H319.88V0Z" fill="#32E6F9"/>
<path d="M319.7 77.9999C294.64 59.2499 277.976 45.0599 240.49 38.6599C181.482 28.6099 118.436 126 81.9693 120.22C41.7144 113.81 0 89.7099 0 89.7099V156H319.7V77.9999Z" fill="#37D9F4"/>
<path opacity="0.9" d="M241.499 38.7C229.599 38.3443 217.89 41.7565 208.042 48.45C192.218 59.55 203.924 77.69 221.157 77.34C238.391 76.99 245.658 74.7 255.904 81.57C266.15 88.44 245.908 95.23 235.422 97.1C224.936 98.97 222.956 119.57 273.168 120.1C316.981 120.53 319.7 124.62 319.7 124.62V78C292.081 54.27 262.771 39.93 241.499 38.7Z" fill="#34E0F7"/>
<path d="M144.626 147.65C144.571 146.658 144.786 145.669 145.247 144.789C145.708 143.909 146.398 143.17 147.245 142.65C148.087 142.196 149.045 142 149.998 142.087C150.951 142.174 151.857 142.541 152.603 143.14C152.715 141.798 153.193 140.512 153.987 139.424C154.78 138.335 155.858 137.487 157.101 136.97C158.348 136.546 159.69 136.493 160.966 136.818C162.242 137.143 163.396 137.831 164.288 138.8C164.723 138.215 165.318 137.769 166.001 137.517C166.685 137.264 167.427 137.217 168.137 137.38C168.871 137.585 169.537 137.984 170.064 138.535C170.592 139.085 170.962 139.767 171.136 140.51C172.154 139.44 173.492 138.729 174.948 138.484C176.404 138.239 177.901 138.472 179.213 139.15C180.56 139.925 181.658 141.069 182.377 142.448C183.096 143.826 183.406 145.381 183.271 146.93C169.936 146.79 156.651 147.57 144.626 147.65Z" fill="#179668"/>
<path d="M224.326 149.26C224.264 148.069 224.523 146.884 225.078 145.828C225.632 144.772 226.46 143.885 227.475 143.26C228.487 142.713 229.637 142.477 230.783 142.582C231.928 142.687 233.017 143.128 233.912 143.85C234.048 142.236 234.626 140.691 235.582 139.384C236.537 138.077 237.834 137.059 239.33 136.44C240.829 135.927 242.444 135.861 243.979 136.25C245.514 136.639 246.903 137.466 247.977 138.63C248.501 137.926 249.219 137.39 250.042 137.086C250.866 136.782 251.76 136.725 252.615 136.92C253.488 137.177 254.276 137.662 254.9 138.324C255.524 138.987 255.96 139.803 256.164 140.69C257.39 139.404 258.998 138.549 260.75 138.254C262.501 137.958 264.301 138.238 265.88 139.05C267.498 139.986 268.817 141.363 269.683 143.02C270.548 144.677 270.925 146.547 270.768 148.41C254.764 148.23 238.79 149.17 224.326 149.26Z" fill="#179668"/>
<path d="M319.88 200H0V143.52C0 143.52 70.8434 138.58 143.026 143.08C203.714 146.86 319.96 149.79 319.96 149.79L319.88 200Z" fill="#23B781"/>
<path d="M172.315 168.01C215.394 168.01 250.316 166.658 250.316 164.99C250.316 163.322 215.394 161.97 172.315 161.97C129.237 161.97 94.3147 163.322 94.3147 164.99C94.3147 166.658 129.237 168.01 172.315 168.01Z" fill="#38A076"/>
<path d="M112.438 127.54C112.362 127.538 112.29 127.508 112.235 127.457C112.18 127.405 112.145 127.335 112.138 127.26C112.235 125.054 112.57 122.864 113.138 120.73C113.629 118.841 113.963 116.914 114.138 114.97C114.13 114.927 114.132 114.882 114.143 114.84C114.154 114.797 114.174 114.757 114.202 114.724C114.23 114.69 114.266 114.663 114.306 114.644C114.345 114.625 114.389 114.615 114.433 114.615C114.477 114.615 114.52 114.625 114.56 114.644C114.6 114.663 114.635 114.69 114.664 114.724C114.692 114.757 114.712 114.797 114.723 114.84C114.734 114.882 114.736 114.927 114.728 114.97C114.564 116.955 114.23 118.922 113.728 120.85C113.168 122.932 112.833 125.067 112.728 127.22C112.731 127.259 112.726 127.299 112.713 127.336C112.7 127.374 112.68 127.408 112.654 127.438C112.628 127.468 112.597 127.492 112.561 127.51C112.526 127.527 112.487 127.537 112.448 127.54H112.438Z" fill="#403D54"/>
<path d="M112.309 113.98H110.079V132.62H112.309V113.98Z" fill="#5B5A75"/>
<path d="M110.239 127.07H112.238C112.556 127.07 112.861 127.196 113.086 127.422C113.311 127.647 113.437 127.952 113.437 128.27V134H109.009V128.24C109.009 127.922 109.136 127.617 109.36 127.392C109.585 127.166 109.891 127.04 110.209 127.04L110.239 127.07Z" fill="#46435D"/>
<path d="M112.028 127.07H110.848C111.229 127.07 111.593 127.22 111.863 127.488C112.133 127.756 112.286 128.12 112.288 128.5V134H113.458V128.5C113.458 128.121 113.308 127.757 113.04 127.489C112.771 127.221 112.408 127.07 112.028 127.07Z" fill="#403D54"/>
<path d="M115.777 137.2C115.647 139.73 114.357 141.74 111.198 141.78C108.039 141.82 106.7 139.17 106.62 137.2C106.62 135.985 107.102 134.82 107.961 133.962C108.82 133.103 109.984 132.62 111.198 132.62C112.413 132.62 113.577 133.103 114.436 133.962C115.294 134.82 115.777 135.985 115.777 137.2V137.2Z" fill="#E4DBE2"/>
<path d="M113.387 137.2C113.406 137.493 113.363 137.787 113.26 138.061C113.157 138.336 112.996 138.586 112.789 138.794C112.582 139.002 112.333 139.164 112.059 139.268C111.785 139.373 111.491 139.418 111.198 139.4C110.763 139.402 110.337 139.275 109.974 139.034C109.611 138.794 109.327 138.451 109.159 138.049C108.991 137.647 108.946 137.204 109.03 136.777C109.114 136.35 109.323 135.957 109.63 135.648C109.937 135.339 110.329 135.129 110.756 135.043C111.182 134.957 111.625 135 112.028 135.167C112.43 135.333 112.774 135.615 113.016 135.977C113.258 136.339 113.387 136.764 113.387 137.2V137.2Z" fill="#84829B"/>
<path d="M112.309 113.98H110.079V117.93H112.309V113.98Z" fill="#403D54"/>
<path d="M152.943 127.54C152.866 127.53 152.796 127.492 152.746 127.432C152.696 127.373 152.67 127.297 152.673 127.22C152.793 125.89 152.103 123.33 151.423 120.87C150.805 118.953 150.393 116.975 150.194 114.97C150.186 114.927 150.187 114.882 150.198 114.84C150.21 114.797 150.23 114.757 150.258 114.724C150.286 114.69 150.321 114.663 150.361 114.644C150.401 114.625 150.445 114.615 150.489 114.615C150.533 114.615 150.576 114.625 150.616 114.644C150.656 114.663 150.691 114.69 150.719 114.724C150.747 114.757 150.768 114.797 150.779 114.84C150.79 114.882 150.791 114.927 150.783 114.97C150.99 116.92 151.399 118.844 152.003 120.71C152.693 123.23 153.403 125.83 153.273 127.27C153.263 127.349 153.223 127.421 153.161 127.471C153.1 127.521 153.022 127.546 152.943 127.54V127.54Z" fill="#403D54"/>
<path d="M155.033 113.98H152.803V132.62H155.033V113.98Z" fill="#5B5A75"/>
<path d="M152.943 127.07H154.942C155.26 127.07 155.565 127.196 155.79 127.421C156.015 127.646 156.141 127.952 156.141 128.27V134H151.713V128.24C151.717 128.082 151.752 127.927 151.816 127.783C151.88 127.639 151.971 127.509 152.086 127.4C152.2 127.291 152.334 127.206 152.481 127.15C152.628 127.093 152.785 127.066 152.943 127.07V127.07Z" fill="#46435D"/>
<path d="M154.752 127.07H153.572C153.761 127.069 153.948 127.105 154.123 127.176C154.297 127.247 154.456 127.352 154.59 127.485C154.724 127.618 154.83 127.776 154.903 127.951C154.975 128.125 155.012 128.311 155.012 128.5V134H156.192V128.5C156.19 128.12 156.037 127.756 155.767 127.488C155.497 127.22 155.133 127.07 154.752 127.07Z" fill="#403D54"/>
<path d="M158.501 137.2C158.371 139.73 157.081 141.74 153.922 141.78C150.763 141.82 149.424 139.17 149.344 137.2C149.344 135.985 149.826 134.82 150.685 133.962C151.544 133.103 152.708 132.62 153.922 132.62C155.137 132.62 156.301 133.103 157.16 133.962C158.018 134.82 158.501 135.985 158.501 137.2Z" fill="#BDAEB7"/>
<path d="M156.121 137.2C156.141 137.494 156.097 137.788 155.993 138.064C155.889 138.34 155.728 138.59 155.52 138.798C155.312 139.006 155.061 139.168 154.786 139.272C154.511 139.375 154.216 139.419 153.922 139.4C153.487 139.4 153.062 139.271 152.701 139.029C152.339 138.787 152.057 138.444 151.891 138.042C151.724 137.64 151.681 137.198 151.765 136.771C151.85 136.344 152.06 135.952 152.367 135.644C152.675 135.337 153.067 135.127 153.493 135.042C153.92 134.957 154.362 135.001 154.764 135.167C155.166 135.334 155.509 135.616 155.751 135.978C155.993 136.34 156.121 136.765 156.121 137.2V137.2Z" fill="#84829B"/>
<path d="M155.033 113.98H152.803V117.93H155.033V113.98Z" fill="#403D54"/>
<path d="M163.439 111.62H102.122V114.97H163.439V111.62Z" fill="#5B5A75"/>
<path d="M114.248 113.3C114.253 113.395 114.239 113.49 114.206 113.578C114.172 113.667 114.12 113.748 114.053 113.815C113.986 113.882 113.905 113.934 113.816 113.968C113.727 114.001 113.632 114.016 113.538 114.01C113.349 114.01 113.169 113.935 113.036 113.802C112.902 113.669 112.828 113.488 112.828 113.3C112.828 113.112 112.902 112.931 113.036 112.798C113.169 112.665 113.349 112.59 113.538 112.59C113.632 112.587 113.725 112.604 113.813 112.638C113.9 112.673 113.979 112.725 114.046 112.792C114.112 112.858 114.165 112.938 114.199 113.025C114.234 113.112 114.25 113.206 114.248 113.3Z" fill="#403D54"/>
<path d="M133.491 113.3C133.496 113.395 133.482 113.49 133.448 113.579C133.415 113.667 133.363 113.748 133.296 113.815C133.228 113.882 133.148 113.934 133.059 113.968C132.97 114.002 132.875 114.016 132.781 114.01C132.687 114.011 132.594 113.994 132.507 113.959C132.42 113.924 132.342 113.871 132.275 113.805C132.209 113.739 132.157 113.66 132.122 113.573C132.087 113.487 132.069 113.394 132.071 113.3C132.071 113.112 132.145 112.931 132.278 112.798C132.412 112.665 132.592 112.59 132.781 112.59C132.969 112.59 133.149 112.665 133.283 112.798C133.416 112.931 133.491 113.112 133.491 113.3Z" fill="#403D54"/>
<path d="M152.723 113.3C152.729 113.395 152.715 113.49 152.681 113.578C152.647 113.667 152.595 113.748 152.528 113.815C152.461 113.882 152.38 113.934 152.292 113.968C152.203 114.001 152.108 114.016 152.013 114.01C151.825 114.01 151.644 113.935 151.511 113.802C151.378 113.669 151.303 113.488 151.303 113.3C151.303 113.112 151.378 112.931 151.511 112.798C151.644 112.665 151.825 112.59 152.013 112.59C152.107 112.587 152.201 112.604 152.288 112.638C152.376 112.673 152.455 112.725 152.521 112.792C152.588 112.858 152.64 112.938 152.675 113.025C152.71 113.112 152.726 113.206 152.723 113.3Z" fill="#403D54"/>
<path d="M163.439 113.85H102.122V114.97H163.439V113.85Z" fill="#828199"/>
<path d="M106.77 113.85H102.122V114.97H106.77V113.85Z" fill="#9F9FB8"/>
<path d="M163.439 113.83H110.489L111.478 114.97H163.439V113.83Z" fill="#5B5A75"/>
<path d="M111.388 86.3399H157.371C157.671 86.3399 157.958 86.4589 158.17 86.6709C158.382 86.8828 158.501 87.1702 158.501 87.4699V113.83H110.249V87.4799C110.247 87.3298 110.276 87.181 110.333 87.0421C110.39 86.9031 110.473 86.7769 110.58 86.6708C110.686 86.5647 110.812 86.4808 110.951 86.4239C111.089 86.3671 111.238 86.3386 111.388 86.3399V86.3399Z" fill="#5D9EA9"/>
<path d="M163.739 79.2599C163.997 78.8863 164.175 78.4635 164.263 78.018C164.351 77.5724 164.346 77.1135 164.249 76.6699L163.889 76.7499C163.996 77.5332 163.845 78.33 163.459 79.0199L163.739 79.2599Z" fill="#A7A765"/>
<path d="M167.937 83.37C167.497 85.87 165.938 87.7 162.679 87.37C162.062 87.3265 161.461 87.1568 160.913 86.8715C160.364 86.5863 159.88 86.1915 159.491 85.7115C159.101 85.2316 158.814 84.6768 158.647 84.0814C158.48 83.486 158.437 82.8627 158.521 82.25C158.72 79.61 161.519 77.8 163.759 79.02C164.348 78.9026 164.957 78.9354 165.53 79.1155C166.103 79.2956 166.622 79.6171 167.038 80.0505C167.455 80.4839 167.755 81.0151 167.912 81.5953C168.069 82.1754 168.078 82.7857 167.937 83.37V83.37Z" fill="#C6C67D"/>
<path d="M165.258 79C165.75 79.3935 166.124 79.9158 166.338 80.5089C166.551 81.1021 166.596 81.7428 166.468 82.36C166.078 84.6 164.668 86.25 161.749 85.93C161.135 85.8976 160.536 85.7203 160.003 85.4128C159.47 85.1052 159.017 84.6759 158.681 84.16C158.924 85.0339 159.436 85.8089 160.145 86.3744C160.854 86.94 161.723 87.2674 162.629 87.31C165.878 87.66 167.447 85.83 167.887 83.31C168.099 82.3904 167.942 81.4243 167.451 80.6187C166.96 79.8131 166.172 79.2321 165.258 79V79Z" fill="#B7B771"/>
<path d="M147.125 78C147.125 78 147.045 75.89 148.515 75L148.895 75.35C148.162 76.045 147.719 76.9918 147.655 78H147.125Z" fill="#A7A765"/>
<path d="M152.623 83.1899C152.083 86.2799 150.144 88.5399 146.115 88.1099C141.907 87.6699 140.787 84.2099 140.977 81.7699C141.227 78.5199 144.666 76.2799 147.465 77.7699C151.163 77.2699 153.143 80.1999 152.623 83.1899Z" fill="#E86B7B"/>
<path d="M149.364 77.8401C149.976 78.3231 150.441 78.9677 150.706 79.701C150.971 80.4344 151.025 81.2273 150.863 81.9901C150.384 84.7601 148.634 86.7901 145.026 86.4101C144.265 86.3682 143.526 86.147 142.868 85.7647C142.209 85.3823 141.65 84.8496 141.237 84.2101C141.535 85.2917 142.168 86.2513 143.044 86.9518C143.92 87.6522 144.995 88.0577 146.115 88.1101C150.114 88.5401 152.113 86.2801 152.623 83.1901C152.894 82.0487 152.704 80.8461 152.094 79.8442C151.484 78.8423 150.503 78.122 149.364 77.8401Z" fill="#C05666"/>
<path d="M118.426 80.6299C118.277 80.0717 118.265 79.4859 118.39 78.922C118.515 78.358 118.774 77.8326 119.146 77.3899L119.586 77.6599C119.025 78.4858 118.793 79.4917 118.936 80.4799L118.426 80.6299Z" fill="#A7A765"/>
<path d="M123.694 85.74C123.154 88.86 121.195 91.14 117.136 90.74C112.898 90.29 111.768 86.8 111.958 84.35C112.208 81.06 115.677 78.8 118.496 80.35C122.224 79.78 124.223 82.73 123.694 85.74Z" fill="#C6C67D"/>
<path d="M120.415 80.3501C121.037 80.8331 121.51 81.4808 121.782 82.2197C122.055 82.9586 122.114 83.7591 121.954 84.5301C121.464 87.3301 119.715 89.3801 116.066 88.9901C115.299 88.9466 114.552 88.7229 113.887 88.3373C113.222 87.9516 112.657 87.4147 112.238 86.7701C112.54 87.8624 113.179 88.8314 114.064 89.5389C114.949 90.2464 116.034 90.6563 117.166 90.7101C121.225 91.1401 123.164 88.8601 123.724 85.7101C123.991 84.5607 123.793 83.3521 123.173 82.3479C122.554 81.3438 121.562 80.6256 120.415 80.3501V80.3501Z" fill="#B7B771"/>
<path d="M169.936 81.45C169.916 80.9243 170.021 80.4013 170.244 79.9247C170.467 79.4481 170.8 79.0316 171.216 78.71L171.566 79.04C170.902 79.6585 170.495 80.5047 170.426 81.41L169.936 81.45Z" fill="#A7A765"/>
<path d="M174.934 86.1901C174.445 89.0301 172.655 91.11 168.937 90.72C168.235 90.6691 167.552 90.4749 166.928 90.1496C166.305 89.8242 165.755 89.3745 165.312 88.8283C164.869 88.282 164.542 87.6508 164.353 86.9734C164.163 86.2961 164.114 85.5871 164.208 84.8901C164.438 81.8901 167.597 79.8301 170.206 81.2201C173.635 80.7501 175.454 83.4401 174.934 86.1901Z" fill="#E86B7B"/>
<path d="M171.985 81.27C172.547 81.714 172.973 82.3058 173.217 82.9788C173.461 83.6518 173.512 84.3795 173.365 85.08C172.915 87.63 171.316 89.5 167.997 89.15C167.299 89.1141 166.62 88.9143 166.014 88.5669C165.408 88.2194 164.892 87.734 164.508 87.15C164.783 88.1451 165.365 89.028 166.171 89.6727C166.977 90.3173 167.966 90.6909 168.997 90.74C172.695 91.13 174.485 89.05 174.994 86.21C175.122 85.688 175.146 85.1457 175.064 84.6145C174.982 84.0832 174.796 83.5734 174.516 83.1144C174.237 82.6553 173.869 82.2561 173.435 81.9395C173.001 81.623 172.508 81.3955 171.985 81.27V81.27Z" fill="#C05666"/>
<path d="M120.325 86C120.304 85.4732 120.41 84.9492 120.635 84.4722C120.859 83.9952 121.195 83.5794 121.615 83.26L121.955 83.58C121.282 84.2133 120.875 85.0781 120.815 86H120.325Z" fill="#A7A765"/>
<path d="M125.383 90.7399C124.893 93.5799 123.104 95.6699 119.385 95.2699C115.517 94.8599 114.487 91.6799 114.657 89.4399C114.887 86.4399 118.046 84.4399 120.655 85.7799C124.044 85.2999 125.863 87.9999 125.383 90.7399Z" fill="#E86B7B"/>
<path d="M122.394 85.8201C122.955 86.2664 123.381 86.8599 123.625 87.5345C123.869 88.209 123.92 88.938 123.774 89.6401C123.324 92.1901 121.774 94.0601 118.406 93.7001C117.708 93.6657 117.028 93.4666 116.421 93.119C115.815 92.7714 115.299 92.2852 114.917 91.7001C115.189 92.6967 115.77 93.5813 116.577 94.2264C117.383 94.8715 118.374 95.244 119.405 95.2901C123.104 95.6901 124.893 93.6001 125.403 90.7601C125.53 90.2381 125.552 89.6962 125.47 89.1654C125.387 88.6346 125.201 88.1253 124.921 87.6666C124.642 87.2078 124.275 86.8087 123.841 86.4918C123.408 86.175 122.916 85.9467 122.394 85.8201Z" fill="#C05666"/>
<path d="M120.105 87.22C120.665 88.22 120.755 89.14 119.355 90.44C118.876 90.8182 118.274 91.0077 117.665 90.9726C117.055 90.9376 116.48 90.6806 116.046 90.25C115.267 89.37 115.737 87.99 116.806 87.03C117.876 86.07 119.595 86.27 120.105 87.22Z" fill="#FF8197"/>
<path d="M128.852 78.64C128.852 78.64 128.702 76.29 130.322 75.27L130.752 75.65C129.963 76.4281 129.496 77.4737 129.442 78.58L128.852 78.64Z" fill="#A7A765"/>
<path d="M135.019 84.2599C134.42 87.7099 132.25 90.2599 127.752 89.7599C123.064 89.2599 121.754 85.3999 122.014 82.6799C122.294 79.0399 126.133 76.5399 129.262 78.2299C133.39 77.6499 135.609 80.9199 135.019 84.2599Z" fill="#E86B7B"/>
<path d="M131.381 78.29C132.063 78.8293 132.582 79.5483 132.879 80.3662C133.175 81.184 133.238 82.0684 133.06 82.92C132.52 86.02 130.571 88.29 126.543 87.86C125.693 87.812 124.866 87.5642 124.13 87.1368C123.393 86.7094 122.768 86.1144 122.304 85.4C122.636 86.6089 123.342 87.6817 124.321 88.4649C125.299 89.2481 126.5 89.7014 127.752 89.76C132.25 90.24 134.42 87.71 135.019 84.26C135.313 82.9866 135.097 81.6488 134.417 80.533C133.737 79.4172 132.647 78.612 131.381 78.29V78.29Z" fill="#C05666"/>
<path d="M125.213 73.5601C125.817 73.6175 126.402 73.7988 126.932 74.0928C127.463 74.3867 127.927 74.7869 128.295 75.2684C128.664 75.7498 128.929 76.3022 129.075 76.8909C129.221 77.4797 129.243 78.0922 129.142 78.6901C129.142 78.6901 124.723 79.0001 125.213 73.5601Z" fill="#B7B771"/>
<path d="M159.57 75.6001C159.657 76.1943 159.621 76.8 159.463 77.3795C159.306 77.9591 159.032 78.5001 158.657 78.969C158.282 79.4379 157.814 79.8247 157.284 80.1053C156.753 80.3859 156.17 80.5543 155.572 80.6001C155.572 80.6001 154.252 76.3801 159.57 75.6001Z" fill="#B7B771"/>
<path d="M155.592 80.56C155.756 80.0202 155.808 79.4524 155.745 78.8917C155.681 78.331 155.503 77.7893 155.222 77.3L154.822 77.53C155.244 78.4134 155.367 79.4105 155.172 80.37L155.592 80.56Z" fill="#A7A765"/>
<path d="M160.53 85.61C159.98 88.71 158.031 90.99 153.992 90.61C149.764 90.16 148.644 86.69 148.834 84.24C149.084 80.97 152.533 78.72 155.342 80.24C159.06 79.67 161.05 82.6 160.53 85.61Z" fill="#C6C67D"/>
<path d="M157.251 80.24C157.867 80.7242 158.336 81.3717 158.602 82.1088C158.869 82.846 158.924 83.6433 158.76 84.41C158.271 87.19 156.521 89.23 152.903 88.84C152.138 88.798 151.395 88.577 150.732 88.1949C150.068 87.8127 149.504 87.2802 149.084 86.64C149.384 87.7277 150.021 88.6926 150.902 89.3967C151.784 90.1007 152.865 90.5079 153.992 90.56C157.991 90.99 159.99 88.71 160.53 85.56C160.786 84.4205 160.587 83.2258 159.974 82.2315C159.362 81.2372 158.384 80.5224 157.251 80.24V80.24Z" fill="#B7B771"/>
<path d="M138.718 80.7399C138.976 80.3663 139.155 79.9435 139.242 79.4979C139.33 79.0524 139.325 78.5935 139.228 78.1499L138.868 78.2299C138.975 79.0132 138.824 79.81 138.438 80.4999L138.718 80.7399Z" fill="#A7A765"/>
<path d="M142.866 84.85C142.427 87.35 140.867 89.18 137.598 88.85C136.982 88.8066 136.381 88.6369 135.833 88.3515C135.285 88.0661 134.802 87.6711 134.413 87.191C134.024 86.7109 133.738 86.156 133.572 85.5606C133.406 84.9652 133.365 84.3421 133.45 83.73C133.65 81.09 136.449 79.28 138.688 80.5C139.277 80.3825 139.886 80.4154 140.46 80.5954C141.033 80.7755 141.552 81.0971 141.968 81.5305C142.384 81.9638 142.685 82.4951 142.842 83.0752C142.999 83.6554 143.007 84.2657 142.866 84.85V84.85Z" fill="#C6C67D"/>
<path d="M140.227 80.53C140.724 80.9185 141.101 81.4383 141.316 82.0305C141.532 82.6227 141.577 83.2634 141.447 83.88C141.047 86.12 139.648 87.77 136.719 87.45C136.106 87.4168 135.509 87.2392 134.977 86.9316C134.446 86.6241 133.994 86.1952 133.66 85.68C133.901 86.5532 134.412 87.3278 135.119 87.8935C135.826 88.4591 136.694 88.7869 137.598 88.83C140.857 89.18 142.427 87.35 142.866 84.83C143.08 83.9101 142.923 82.9429 142.429 82.138C141.935 81.3331 141.144 80.7554 140.227 80.53V80.53Z" fill="#B7B771"/>
<path d="M129.162 86.3401H175.144C175.444 86.3401 175.731 86.4591 175.943 86.6711C176.155 86.883 176.274 87.1704 176.274 87.4701V113.83H128.032V87.4801C128.031 87.3309 128.059 87.1828 128.115 87.0446C128.171 86.9063 128.254 86.7806 128.359 86.6746C128.464 86.5686 128.589 86.4845 128.727 86.4271C128.865 86.3696 129.012 86.3401 129.162 86.3401V86.3401Z" fill="#7CBBC3"/>
<path d="M110.249 87.1301V113.84H128.402V87.1301C128.402 86.9206 128.319 86.7196 128.171 86.5715C128.022 86.4233 127.822 86.3401 127.612 86.3401H111.038C110.829 86.3401 110.628 86.4233 110.48 86.5715C110.332 86.7196 110.249 86.9206 110.249 87.1301V87.1301ZM121.584 91.3101H116.166C115.769 91.3101 115.387 91.1521 115.106 90.8708C114.825 90.5894 114.667 90.2079 114.667 89.8101C114.667 89.4123 114.825 89.0307 115.106 88.7494C115.387 88.4681 115.769 88.3101 116.166 88.3101H121.584C121.982 88.3101 122.363 88.4681 122.645 88.7494C122.926 89.0307 123.084 89.4123 123.084 89.8101C123.084 90.2079 122.926 90.5894 122.645 90.8708C122.363 91.1521 121.982 91.3101 121.584 91.3101V91.3101Z" fill="#ACD9E2"/>
<path d="M176.094 94.5399H128.432C128.352 94.5399 128.276 94.5083 128.22 94.4521C128.164 94.3958 128.132 94.3195 128.132 94.2399C128.132 94.1604 128.164 94.0841 128.22 94.0278C128.276 93.9715 128.352 93.9399 128.432 93.9399H176.094C176.174 93.9399 176.25 93.9715 176.306 94.0278C176.362 94.0841 176.394 94.1604 176.394 94.2399C176.394 94.3195 176.362 94.3958 176.306 94.4521C176.25 94.5083 176.174 94.5399 176.094 94.5399V94.5399Z" fill="#5D9EA9"/>
<path d="M176.094 99.6599H128.432C128.389 99.668 128.344 99.6663 128.301 99.6552C128.259 99.6441 128.219 99.6237 128.185 99.5956C128.152 99.5674 128.124 99.5321 128.106 99.4923C128.087 99.4524 128.077 99.409 128.077 99.3649C128.077 99.3209 128.087 99.2774 128.106 99.2376C128.124 99.1977 128.152 99.1625 128.185 99.1343C128.219 99.1062 128.259 99.0858 128.301 99.0747C128.344 99.0636 128.389 99.0619 128.432 99.0699H176.094C176.137 99.0619 176.182 99.0636 176.224 99.0747C176.267 99.0858 176.306 99.1062 176.34 99.1343C176.374 99.1625 176.401 99.1977 176.42 99.2376C176.439 99.2774 176.448 99.3209 176.448 99.3649C176.448 99.409 176.439 99.4524 176.42 99.4923C176.401 99.5321 176.374 99.5674 176.34 99.5956C176.306 99.6237 176.267 99.6441 176.224 99.6552C176.182 99.6663 176.137 99.668 176.094 99.6599V99.6599Z" fill="#5D9EA9"/>
<path d="M176.094 104.79H128.432C128.352 104.79 128.276 104.758 128.22 104.702C128.164 104.646 128.132 104.57 128.132 104.49C128.134 104.411 128.167 104.336 128.223 104.281C128.278 104.225 128.353 104.192 128.432 104.19H176.094C176.173 104.192 176.248 104.225 176.303 104.281C176.359 104.336 176.391 104.411 176.394 104.49C176.394 104.57 176.362 104.646 176.306 104.702C176.25 104.758 176.174 104.79 176.094 104.79V104.79Z" fill="#5D9EA9"/>
<path d="M176.094 109.91H128.432C128.389 109.918 128.344 109.916 128.301 109.905C128.259 109.894 128.219 109.874 128.185 109.846C128.152 109.817 128.124 109.782 128.106 109.742C128.087 109.702 128.077 109.659 128.077 109.615C128.077 109.571 128.087 109.527 128.106 109.488C128.124 109.448 128.152 109.412 128.185 109.384C128.219 109.356 128.259 109.336 128.301 109.325C128.344 109.314 128.389 109.312 128.432 109.32H176.094C176.137 109.312 176.182 109.314 176.224 109.325C176.267 109.336 176.306 109.356 176.34 109.384C176.374 109.412 176.401 109.448 176.42 109.488C176.439 109.527 176.448 109.571 176.448 109.615C176.448 109.659 176.439 109.702 176.42 109.742C176.401 109.782 176.374 109.817 176.34 109.846C176.306 109.874 176.267 109.894 176.224 109.905C176.182 109.916 176.137 109.918 176.094 109.91V109.91Z" fill="#5D9EA9"/>
<path d="M128.432 94.5399H110.279C110.199 94.5399 110.123 94.5083 110.067 94.4521C110.01 94.3958 109.979 94.3195 109.979 94.2399C109.979 94.1604 110.01 94.0841 110.067 94.0278C110.123 93.9715 110.199 93.9399 110.279 93.9399H128.432C128.511 93.9399 128.588 93.9715 128.644 94.0278C128.7 94.0841 128.732 94.1604 128.732 94.2399C128.732 94.3195 128.7 94.3958 128.644 94.4521C128.588 94.5083 128.511 94.5399 128.432 94.5399V94.5399Z" fill="#7CBBC3"/>
<path d="M128.432 99.6599H110.279C110.21 99.6472 110.148 99.6107 110.103 99.5568C110.058 99.5029 110.033 99.435 110.033 99.3649C110.033 99.2948 110.058 99.2269 110.103 99.1731C110.148 99.1192 110.21 99.0827 110.279 99.0699H128.432C128.475 99.0619 128.52 99.0636 128.562 99.0747C128.605 99.0858 128.644 99.1062 128.678 99.1343C128.712 99.1625 128.739 99.1977 128.758 99.2376C128.777 99.2774 128.786 99.3209 128.786 99.3649C128.786 99.409 128.777 99.4524 128.758 99.4923C128.739 99.5321 128.712 99.5674 128.678 99.5956C128.644 99.6237 128.605 99.6441 128.562 99.6552C128.52 99.6663 128.475 99.668 128.432 99.6599V99.6599Z" fill="#7CBBC3"/>
<path d="M128.432 104.79H110.279C110.24 104.79 110.201 104.782 110.165 104.767C110.129 104.752 110.097 104.729 110.07 104.701C110.043 104.673 110.022 104.64 110.008 104.604C109.994 104.568 109.987 104.529 109.989 104.49C109.989 104.412 110.019 104.337 110.073 104.281C110.127 104.225 110.201 104.193 110.279 104.19H128.432C128.511 104.19 128.588 104.222 128.644 104.278C128.7 104.334 128.732 104.41 128.732 104.49C128.733 104.53 128.726 104.569 128.712 104.606C128.697 104.643 128.675 104.677 128.647 104.705C128.619 104.733 128.585 104.755 128.548 104.77C128.511 104.785 128.472 104.791 128.432 104.79V104.79Z" fill="#7CBBC3"/>
<path d="M128.432 109.91H110.279C110.21 109.897 110.148 109.861 110.103 109.807C110.058 109.753 110.033 109.685 110.033 109.615C110.033 109.545 110.058 109.477 110.103 109.423C110.148 109.369 110.21 109.333 110.279 109.32H128.432C128.475 109.312 128.52 109.314 128.562 109.325C128.605 109.336 128.644 109.356 128.678 109.384C128.712 109.412 128.739 109.448 128.758 109.488C128.777 109.527 128.786 109.571 128.786 109.615C128.786 109.659 128.777 109.702 128.758 109.742C128.739 109.782 128.712 109.817 128.678 109.846C128.644 109.874 128.605 109.894 128.562 109.905C128.52 109.916 128.475 109.918 128.432 109.91V109.91Z" fill="#7CBBC3"/>
<path d="M121.704 154.42C121.704 150.27 119.465 146.81 116.306 145.78L117.716 145.46C117.166 145.46 115.187 145.46 114.377 145.46C110.239 145.46 107.05 149.46 107.05 154.46C107.05 159.46 109.779 163.46 114.377 163.46H114.717C115.527 163.46 117.236 163.46 117.716 163.46L116.416 163.19C119.775 162.08 121.704 158.58 121.704 154.42Z" fill="#403D54"/>
<path d="M125.043 154.42C125.043 159.42 122.314 163.42 117.716 163.42C113.118 163.42 110.389 159.42 110.389 154.42C110.389 149.42 113.577 145.42 117.716 145.42C121.854 145.42 125.043 149.47 125.043 154.42Z" fill="#46435D"/>
<path d="M122.134 154.61C122.134 157.17 120.385 159.24 118.216 159.24C116.046 159.24 114.307 157.17 114.307 154.61C114.307 152.05 116.056 149.99 118.216 149.99C120.375 149.99 122.134 152.06 122.134 154.61Z" fill="#403D54"/>
<path d="M120.955 154.42C120.955 156.65 119.565 158.42 117.846 158.42C116.126 158.42 114.737 156.61 114.737 154.42C114.737 152.23 116.126 150.42 117.846 150.42C119.565 150.42 120.955 152.19 120.955 154.42Z" fill="#BDAEB7"/>
<path d="M114.857 149.47C113.787 150.41 113.018 151.21 112.578 150.84C112.138 150.47 112.458 149.32 113.437 148.29C114.417 147.26 115.557 146.58 116.136 147.12C116.716 147.66 115.887 148.56 114.857 149.47Z" fill="#828199"/>
<path d="M112.708 152.91C112.588 153.56 112.218 154.05 111.888 153.99C111.558 153.93 111.388 153.35 111.518 152.7C111.648 152.05 112.018 151.55 112.348 151.61C112.678 151.67 112.838 152.25 112.708 152.91Z" fill="#828199"/>
<path d="M158.211 154.42C158.211 150.27 155.961 146.81 152.803 145.78L154.212 145.46C153.672 145.46 151.683 145.46 150.873 145.46C146.745 145.46 143.546 149.46 143.546 154.46C143.546 159.46 146.285 163.46 150.873 163.46H151.223C152.023 163.46 153.742 163.46 154.222 163.46L152.923 163.19C156.271 162.08 158.211 158.58 158.211 154.42Z" fill="#403D54"/>
<path d="M161.539 154.42C161.539 159.42 158.81 163.42 154.212 163.42C149.614 163.42 146.885 159.42 146.885 154.42C146.885 149.42 150.074 145.42 154.212 145.42C158.351 145.42 161.539 149.47 161.539 154.42Z" fill="#46435D"/>
<path d="M154.722 159.23C156.881 159.23 158.631 157.162 158.631 154.61C158.631 152.058 156.881 149.99 154.722 149.99C152.563 149.99 150.813 152.058 150.813 154.61C150.813 157.162 152.563 159.23 154.722 159.23Z" fill="#403D54"/>
<path d="M157.461 154.42C157.461 156.65 156.071 158.42 154.352 158.42C152.633 158.42 151.253 156.61 151.253 154.42C151.253 152.23 152.643 150.42 154.352 150.42C156.061 150.42 157.461 152.19 157.461 154.42Z" fill="#BDAEB7"/>
<path d="M151.353 149.47C150.284 150.41 149.514 151.21 149.084 150.84C148.654 150.47 148.954 149.32 149.934 148.29C150.913 147.26 152.063 146.58 152.633 147.12C153.203 147.66 152.383 148.56 151.353 149.47Z" fill="#828199"/>
<path d="M149.215 152.91C149.085 153.56 148.715 154.05 148.385 153.99C148.055 153.93 147.895 153.35 148.025 152.7C148.155 152.05 148.515 151.55 148.845 151.61C149.175 151.67 149.345 152.25 149.215 152.91Z" fill="#828199"/>
<path d="M133.26 127.54C133.184 127.54 133.111 127.511 133.055 127.459C132.999 127.407 132.965 127.336 132.96 127.26C133.061 125.054 133.397 122.865 133.96 120.73C134.451 118.841 134.786 116.914 134.96 114.97C134.96 114.931 134.968 114.892 134.983 114.855C134.998 114.819 135.02 114.786 135.048 114.758C135.076 114.73 135.109 114.708 135.145 114.693C135.182 114.678 135.221 114.67 135.26 114.67C135.339 114.672 135.414 114.705 135.47 114.761C135.525 114.816 135.558 114.891 135.56 114.97C135.392 116.954 135.057 118.921 134.56 120.85C134.006 122.933 133.671 125.068 133.56 127.22C133.564 127.259 133.561 127.298 133.549 127.336C133.538 127.373 133.519 127.408 133.493 127.438C133.468 127.467 133.437 127.492 133.402 127.509C133.367 127.527 133.329 127.537 133.29 127.54H133.26Z" fill="#5B5A75"/>
<path d="M133.131 113.98H130.901V132.62H133.131V113.98Z" fill="#828199"/>
<path d="M131.051 127.07H133.05C133.368 127.07 133.673 127.196 133.898 127.422C134.123 127.647 134.25 127.952 134.25 128.27V134H129.851V128.24C129.851 127.922 129.978 127.617 130.203 127.392C130.428 127.166 130.733 127.04 131.051 127.04V127.07Z" fill="#5B5A75"/>
<path d="M132.841 127.07H131.671C132.05 127.07 132.414 127.221 132.682 127.489C132.95 127.757 133.101 128.121 133.101 128.5V134H134.281V128.5C134.281 128.311 134.243 128.125 134.171 127.951C134.098 127.776 133.992 127.618 133.858 127.485C133.724 127.352 133.566 127.247 133.391 127.176C133.216 127.105 133.029 127.069 132.841 127.07Z" fill="#403D54"/>
<path d="M136.589 137.2C136.469 139.73 135.169 141.74 132.011 141.78C128.852 141.82 127.522 139.17 127.432 137.2C127.432 135.985 127.915 134.82 128.773 133.962C129.632 133.103 130.796 132.62 132.011 132.62C133.225 132.62 134.389 133.103 135.248 133.962C136.106 134.82 136.589 135.985 136.589 137.2Z" fill="#CCBFC8"/>
<path d="M134.21 137.2C134.229 137.494 134.185 137.788 134.081 138.064C133.977 138.34 133.816 138.59 133.608 138.798C133.4 139.006 133.15 139.168 132.874 139.272C132.599 139.375 132.304 139.419 132.01 139.4C131.575 139.4 131.15 139.271 130.789 139.029C130.427 138.787 130.145 138.444 129.979 138.042C129.812 137.64 129.769 137.198 129.854 136.771C129.938 136.344 130.148 135.952 130.455 135.644C130.763 135.337 131.155 135.127 131.581 135.042C132.008 134.957 132.45 135.001 132.852 135.167C133.254 135.334 133.597 135.616 133.839 135.978C134.081 136.34 134.21 136.765 134.21 137.2V137.2Z" fill="#84829B"/>
<path d="M133.131 113.98H130.901V117.93H133.131V113.98Z" fill="#5B5A75"/>
<path d="M175.855 113.98H173.625V132.62H175.855V113.98Z" fill="#828199"/>
<path d="M173.775 127.07H175.774C176.092 127.07 176.397 127.196 176.622 127.422C176.847 127.647 176.974 127.952 176.974 128.27V134H172.545V128.24C172.545 127.922 172.672 127.617 172.897 127.392C173.122 127.166 173.427 127.04 173.745 127.04L173.775 127.07Z" fill="#5B5A75"/>
<path d="M175.575 127.07H174.395C174.774 127.07 175.138 127.221 175.406 127.489C175.674 127.757 175.825 128.121 175.825 128.5V134H177.005V128.5C177.005 128.121 176.854 127.757 176.586 127.489C176.318 127.221 175.954 127.07 175.575 127.07Z" fill="#403D54"/>
<path d="M179.323 137.2C179.193 139.73 177.903 141.74 174.744 141.78C171.436 141.83 170.246 139.17 170.166 137.2C170.166 135.985 170.649 134.82 171.507 133.962C172.366 133.103 173.53 132.62 174.744 132.62C175.959 132.62 177.123 133.103 177.982 133.962C178.84 134.82 179.323 135.985 179.323 137.2Z" fill="#CCBFC8"/>
<path d="M176.934 137.2C176.953 137.493 176.909 137.787 176.806 138.061C176.703 138.336 176.542 138.586 176.335 138.794C176.128 139.002 175.879 139.164 175.605 139.268C175.331 139.373 175.037 139.418 174.744 139.4C174.309 139.402 173.883 139.275 173.52 139.034C173.157 138.794 172.874 138.451 172.706 138.049C172.538 137.647 172.493 137.204 172.576 136.777C172.66 136.35 172.869 135.957 173.176 135.648C173.483 135.339 173.875 135.129 174.302 135.043C174.729 134.957 175.171 135 175.574 135.167C175.976 135.333 176.32 135.615 176.562 135.977C176.804 136.339 176.934 136.764 176.934 137.2V137.2Z" fill="#84829B"/>
<path d="M173.755 127.54C173.677 127.532 173.605 127.495 173.555 127.435C173.504 127.375 173.479 127.298 173.485 127.22C173.605 125.89 172.905 123.33 172.235 120.87C171.592 118.966 171.156 116.998 170.936 115C170.938 114.921 170.971 114.846 171.027 114.791C171.082 114.735 171.157 114.702 171.236 114.7C171.315 114.7 171.392 114.732 171.448 114.788C171.504 114.844 171.536 114.92 171.536 115C171.743 116.949 172.148 118.873 172.745 120.74C173.435 123.26 174.145 125.86 174.015 127.3C174.004 127.363 173.973 127.421 173.926 127.464C173.879 127.508 173.819 127.534 173.755 127.54Z" fill="#5B5A75"/>
<path d="M175.855 113.98H173.625V117.93H175.855V113.98Z" fill="#5B5A75"/>
<path d="M123.504 113.85H118.296V114.97H123.504V113.85Z" fill="#9F9FB8"/>
<path d="M184.261 111.62H122.944V114.97H184.261V111.62Z" fill="#5B5A75"/>
<path d="M135.07 113.3C135.076 113.395 135.061 113.49 135.028 113.579C134.994 113.667 134.942 113.748 134.875 113.815C134.808 113.882 134.727 113.934 134.638 113.968C134.55 114.002 134.455 114.016 134.36 114.01C134.266 114.011 134.173 113.994 134.087 113.959C134 113.924 133.921 113.871 133.855 113.805C133.789 113.739 133.736 113.66 133.701 113.573C133.666 113.487 133.649 113.394 133.65 113.3C133.65 113.112 133.725 112.931 133.858 112.798C133.991 112.665 134.172 112.59 134.36 112.59C134.548 112.59 134.729 112.665 134.862 112.798C134.995 112.931 135.07 113.112 135.07 113.3Z" fill="#403D54"/>
<path d="M154.303 113.3C154.309 113.395 154.294 113.49 154.261 113.579C154.227 113.667 154.175 113.748 154.108 113.815C154.041 113.882 153.96 113.934 153.871 113.968C153.782 114.002 153.687 114.016 153.593 114.01C153.452 114.01 153.315 113.968 153.198 113.89C153.081 113.812 152.99 113.702 152.937 113.572C152.883 113.442 152.869 113.299 152.896 113.162C152.924 113.024 152.991 112.897 153.091 112.798C153.19 112.699 153.316 112.631 153.454 112.604C153.592 112.576 153.735 112.59 153.864 112.644C153.994 112.698 154.105 112.789 154.183 112.906C154.261 113.022 154.303 113.16 154.303 113.3Z" fill="#403D54"/>
<path d="M173.545 113.3C173.551 113.395 173.537 113.49 173.503 113.579C173.47 113.667 173.418 113.748 173.35 113.815C173.283 113.882 173.203 113.934 173.114 113.968C173.025 114.002 172.93 114.016 172.835 114.01C172.742 114.011 172.649 113.994 172.562 113.959C172.475 113.924 172.397 113.871 172.33 113.805C172.264 113.739 172.212 113.66 172.177 113.573C172.142 113.487 172.124 113.394 172.125 113.3C172.125 113.112 172.2 112.931 172.333 112.798C172.467 112.665 172.647 112.59 172.835 112.59C173.024 112.59 173.204 112.665 173.337 112.798C173.471 112.931 173.545 113.112 173.545 113.3Z" fill="#403D54"/>
<path d="M107.68 137.1H157.881C159.355 137.1 160.769 137.686 161.811 138.729C162.853 139.771 163.439 141.185 163.439 142.66V154.95H102.122V142.66C102.122 141.185 102.707 139.771 103.75 138.729C104.792 137.686 106.206 137.1 107.68 137.1V137.1Z" fill="#E4DBE2"/>
<path d="M128.502 137.1H178.703C180.177 137.1 181.591 137.686 182.633 138.729C183.675 139.771 184.261 141.185 184.261 142.66V154.95H122.954V142.66C122.954 141.187 123.538 139.775 124.578 138.732C125.618 137.69 127.029 137.103 128.502 137.1V137.1Z" fill="#CCBFC8"/>
<path d="M107.96 140C106.03 140 104.641 140 104.561 139.17C104.461 138.17 106.06 138 107.99 137.97C109.729 137.97 111.648 138.1 111.568 138.97C111.488 139.84 110.019 140 107.96 140Z" fill="#F2ECF1"/>
<path d="M113.618 139.77C113.088 139.77 112.408 139.59 112.438 139C112.468 138.41 112.978 138.2 113.658 138.16C114.338 138.12 114.898 138.45 114.908 138.97C114.958 139.65 114.348 139.74 113.618 139.77Z" fill="#F2ECF1"/>
<path d="M119.045 153.29H107.7C107.656 153.298 107.612 153.296 107.569 153.285C107.527 153.274 107.487 153.254 107.453 153.226C107.419 153.198 107.392 153.162 107.374 153.122C107.355 153.083 107.345 153.039 107.345 152.995C107.345 152.951 107.355 152.908 107.374 152.868C107.392 152.828 107.419 152.793 107.453 152.764C107.487 152.736 107.527 152.716 107.569 152.705C107.612 152.694 107.656 152.692 107.7 152.7H119.045C119.089 152.692 119.133 152.694 119.176 152.705C119.218 152.716 119.258 152.736 119.292 152.764C119.326 152.793 119.353 152.828 119.371 152.868C119.39 152.908 119.4 152.951 119.4 152.995C119.4 153.039 119.39 153.083 119.371 153.122C119.353 153.162 119.326 153.198 119.292 153.226C119.258 153.254 119.218 153.274 119.176 153.285C119.133 153.296 119.089 153.298 119.045 153.29V153.29Z" fill="#CCBFC8"/>
<path d="M149.524 139H130.191C130.152 139 130.113 138.992 130.076 138.977C130.04 138.962 130.007 138.94 129.979 138.912C129.951 138.884 129.929 138.851 129.914 138.815C129.899 138.778 129.891 138.739 129.891 138.7C129.89 138.66 129.897 138.621 129.911 138.584C129.926 138.547 129.948 138.513 129.976 138.485C130.004 138.457 130.038 138.435 130.075 138.42C130.112 138.405 130.151 138.399 130.191 138.4H149.524C149.563 138.4 149.602 138.408 149.639 138.423C149.675 138.438 149.708 138.46 149.736 138.488C149.764 138.516 149.786 138.549 149.801 138.585C149.816 138.622 149.824 138.661 149.824 138.7C149.821 138.779 149.789 138.854 149.733 138.909C149.677 138.965 149.603 138.998 149.524 139V139Z" fill="#E4DBE2"/>
<path d="M157.881 139H152.403C152.363 139 152.324 138.992 152.288 138.977C152.252 138.962 152.219 138.94 152.191 138.912C152.163 138.884 152.141 138.851 152.126 138.815C152.111 138.778 152.103 138.739 152.103 138.7C152.102 138.66 152.108 138.621 152.123 138.584C152.138 138.547 152.16 138.513 152.188 138.485C152.216 138.457 152.249 138.435 152.286 138.42C152.323 138.405 152.363 138.399 152.403 138.4H157.881C157.921 138.399 157.96 138.405 157.997 138.42C158.034 138.435 158.068 138.457 158.096 138.485C158.124 138.513 158.146 138.547 158.161 138.584C158.175 138.621 158.182 138.66 158.181 138.7C158.181 138.739 158.173 138.778 158.158 138.815C158.143 138.851 158.121 138.884 158.093 138.912C158.065 138.94 158.032 138.962 157.996 138.977C157.959 138.992 157.92 139 157.881 139V139Z" fill="#E4DBE2"/>
<path d="M182.701 141.58C182.624 141.575 182.551 141.54 182.499 141.482C182.446 141.424 182.419 141.348 182.422 141.27C182.438 140.666 182.227 140.079 181.831 139.623C181.435 139.168 180.882 138.877 180.282 138.81C180.213 138.797 180.151 138.761 180.106 138.707C180.062 138.653 180.037 138.585 180.037 138.515C180.037 138.445 180.062 138.377 180.106 138.323C180.151 138.269 180.213 138.233 180.282 138.22C181.037 138.296 181.735 138.654 182.236 139.224C182.736 139.793 183.003 140.532 182.981 141.29C182.979 141.364 182.949 141.435 182.897 141.489C182.846 141.543 182.776 141.575 182.701 141.58V141.58Z" fill="#E4DBE2"/>
<path d="M160.59 153.29H150.364C150.32 153.298 150.276 153.296 150.233 153.285C150.191 153.274 150.151 153.254 150.117 153.226C150.084 153.198 150.056 153.162 150.038 153.122C150.019 153.083 150.009 153.039 150.009 152.995C150.009 152.951 150.019 152.908 150.038 152.868C150.056 152.828 150.084 152.793 150.117 152.764C150.151 152.736 150.191 152.716 150.233 152.705C150.276 152.694 150.32 152.692 150.364 152.7H160.59C160.659 152.713 160.721 152.749 160.766 152.803C160.811 152.857 160.835 152.925 160.835 152.995C160.835 153.065 160.811 153.133 160.766 153.187C160.721 153.241 160.659 153.277 160.59 153.29V153.29Z" fill="#E4DBE2"/>
<path d="M142.527 154.42C142.527 150.27 140.277 146.81 137.119 145.78L138.528 145.46C137.988 145.46 135.999 145.46 135.199 145.46C131.061 145.46 127.862 149.46 127.862 154.46C127.862 159.46 130.601 163.46 135.199 163.46H135.539C136.339 163.46 138.058 163.46 138.538 163.46L137.249 163.19C140.587 162.08 142.527 158.58 142.527 154.42Z" fill="#46435D"/>
<path d="M145.865 154.42C145.865 159.42 143.126 163.42 138.528 163.42C133.93 163.42 131.201 159.42 131.201 154.42C131.201 149.42 134.4 145.42 138.528 145.42C142.657 145.42 145.865 149.47 145.865 154.42Z" fill="#5B5A75"/>
<path d="M139.038 159.23C141.196 159.23 142.946 157.162 142.946 154.61C142.946 152.058 141.196 149.99 139.038 149.99C136.879 149.99 135.129 152.058 135.129 154.61C135.129 157.162 136.879 159.23 139.038 159.23Z" fill="#403D54"/>
<path d="M141.777 154.42C141.777 156.65 140.387 158.42 138.678 158.42C136.969 158.42 135.569 156.61 135.569 154.42C135.569 152.23 136.959 150.42 138.678 150.42C140.397 150.42 141.777 152.19 141.777 154.42Z" fill="#E4DBE2"/>
<path d="M138.819 153.41C138.369 154.22 137.579 154.66 137.059 154.41C136.539 154.16 136.489 153.28 136.939 152.48C137.389 151.68 138.169 151.23 138.689 151.48C139.209 151.73 139.269 152.61 138.819 153.41Z" fill="#F2ECF1"/>
<path d="M135.679 149.47C134.609 150.41 133.83 151.21 133.4 150.84C132.97 150.47 133.27 149.32 134.26 148.29C135.249 147.26 136.379 146.58 136.959 147.12C137.538 147.66 136.709 148.56 135.679 149.47Z" fill="#828199"/>
<path d="M133.53 152.91C133.4 153.56 133.03 154.05 132.7 153.99C132.37 153.93 132.21 153.35 132.34 152.7C132.47 152.05 132.84 151.55 133.17 151.61C133.5 151.67 133.66 152.25 133.53 152.91Z" fill="#828199"/>
<path d="M140.297 151C140.723 151.713 140.945 152.529 140.937 153.36C140.937 155.45 139.638 157.13 138.038 157.13C137.543 157.104 137.064 156.946 136.65 156.672C136.237 156.397 135.905 156.017 135.689 155.57C135.787 156.323 136.137 157.02 136.681 157.548C137.226 158.077 137.933 158.405 138.688 158.48C140.397 158.48 141.787 156.67 141.787 154.48C141.814 153.826 141.694 153.173 141.436 152.571C141.179 151.969 140.789 151.432 140.297 151V151Z" fill="#BDAEB7"/>
<path d="M141.317 150.46C141.284 150.468 141.25 150.468 141.217 150.46C140.811 150.109 140.327 149.859 139.806 149.731C139.285 149.602 138.741 149.598 138.218 149.72C138.199 149.726 138.179 149.728 138.159 149.725C138.139 149.723 138.12 149.716 138.103 149.706C138.086 149.696 138.071 149.682 138.06 149.665C138.049 149.648 138.042 149.63 138.038 149.61C138.029 149.572 138.036 149.531 138.056 149.497C138.077 149.464 138.11 149.44 138.148 149.43C138.715 149.305 139.304 149.313 139.868 149.453C140.431 149.594 140.955 149.863 141.397 150.24C141.412 150.253 141.424 150.269 141.432 150.287C141.44 150.306 141.444 150.325 141.444 150.345C141.444 150.365 141.44 150.385 141.432 150.403C141.424 150.421 141.412 150.437 141.397 150.45C141.372 150.46 141.344 150.464 141.317 150.46V150.46Z" fill="#403D54"/>
<path d="M138.189 159.7C137.536 159.625 136.923 159.345 136.439 158.9C136.41 158.872 136.393 158.834 136.392 158.794C136.391 158.753 136.406 158.714 136.434 158.685C136.462 158.656 136.5 158.639 136.54 158.638C136.581 158.637 136.62 158.652 136.649 158.68C137.08 159.085 137.631 159.341 138.219 159.41C138.257 159.415 138.292 159.434 138.316 159.464C138.34 159.494 138.352 159.532 138.349 159.57C138.348 159.589 138.343 159.608 138.334 159.625C138.325 159.643 138.312 159.658 138.297 159.67C138.282 159.682 138.265 159.691 138.246 159.696C138.228 159.702 138.208 159.703 138.189 159.7Z" fill="#403D54"/>
<path d="M144.166 159.47H144.096C144.062 159.451 144.037 159.419 144.025 159.382C144.014 159.345 144.018 159.304 144.036 159.27C144.293 158.792 144.501 158.29 144.656 157.77C144.662 157.751 144.671 157.733 144.684 157.717C144.697 157.702 144.712 157.689 144.73 157.68C144.748 157.671 144.767 157.665 144.787 157.663C144.807 157.661 144.827 157.664 144.846 157.67C144.882 157.681 144.913 157.707 144.932 157.74C144.95 157.773 144.955 157.813 144.946 157.85C144.782 158.39 144.565 158.913 144.296 159.41C144.28 159.429 144.261 159.445 144.238 159.455C144.216 159.466 144.191 159.471 144.166 159.47Z" fill="#403D54"/>
<path d="M139.188 163C139.151 163 139.116 162.987 139.088 162.963C139.061 162.94 139.043 162.906 139.038 162.87C139.035 162.85 139.036 162.83 139.041 162.811C139.046 162.792 139.055 162.774 139.067 162.758C139.079 162.742 139.094 162.729 139.112 162.719C139.129 162.709 139.148 162.703 139.168 162.7C140.838 162.405 142.344 161.513 143.406 160.19C143.436 160.167 143.473 160.154 143.511 160.154C143.549 160.154 143.586 160.167 143.616 160.19C143.641 160.219 143.655 160.257 143.655 160.295C143.655 160.334 143.641 160.371 143.616 160.4C142.507 161.789 140.928 162.724 139.178 163.03L139.188 163Z" fill="#403D54"/>
<path d="M179.023 154.42C179.023 150.27 176.784 146.81 173.625 145.78L175.034 145.46C174.485 145.46 172.505 145.46 171.696 145.46C167.557 145.46 164.368 149.46 164.368 154.46C164.368 159.46 167.097 163.46 171.696 163.46H172.036C172.845 163.46 174.555 163.46 175.034 163.46L173.735 163.19C177.084 162.08 179.023 158.58 179.023 154.42Z" fill="#46435D"/>
<path d="M182.362 154.42C182.362 159.42 179.633 163.42 175.034 163.42C170.436 163.42 167.697 159.42 167.697 154.42C167.697 149.42 170.896 145.42 175.034 145.42C179.173 145.42 182.362 149.47 182.362 154.42Z" fill="#5B5A75"/>
<path d="M179.453 154.61C179.453 157.17 177.703 159.24 175.534 159.24C173.365 159.24 171.626 157.17 171.626 154.61C171.626 152.05 173.375 149.99 175.534 149.99C177.693 149.99 179.453 152.06 179.453 154.61Z" fill="#403D54"/>
<path d="M178.283 154.42C178.283 156.65 176.894 158.42 175.174 158.42C173.455 158.42 172.065 156.61 172.065 154.42C172.065 152.23 173.455 150.42 175.174 150.42C176.894 150.42 178.283 152.19 178.283 154.42Z" fill="#E4DBE2"/>
<path d="M175.315 153.41C174.865 154.22 174.085 154.66 173.565 154.41C173.045 154.16 172.985 153.28 173.435 152.48C173.885 151.68 174.665 151.23 175.185 151.48C175.705 151.73 175.765 152.61 175.315 153.41Z" fill="#F2ECF1"/>
<path d="M172.176 149.47C171.106 150.41 170.336 151.21 169.896 150.84C169.457 150.47 169.776 149.32 170.756 148.29C171.736 147.26 172.875 146.58 173.455 147.12C174.035 147.66 173.205 148.56 172.176 149.47Z" fill="#828199"/>
<path d="M170.027 152.91C169.907 153.56 169.537 154.05 169.207 153.99C168.877 153.93 168.707 153.35 168.837 152.7C168.967 152.05 169.337 151.55 169.667 151.61C169.997 151.67 170.157 152.25 170.027 152.91Z" fill="#828199"/>
<path d="M176.794 151C177.223 151.712 177.448 152.529 177.443 153.36C177.443 155.45 176.144 157.13 174.545 157.13C174.048 157.107 173.568 156.95 173.154 156.676C172.74 156.401 172.409 156.019 172.195 155.57C172.292 156.323 172.641 157.021 173.186 157.55C173.73 158.079 174.439 158.407 175.194 158.48C176.914 158.48 178.303 156.67 178.303 154.48C178.328 153.824 178.205 153.171 177.944 152.568C177.682 151.966 177.289 151.43 176.794 151V151Z" fill="#BDAEB7"/>
<path d="M177.823 150.46C177.791 150.471 177.756 150.471 177.723 150.46C177.316 150.111 176.832 149.863 176.312 149.734C175.791 149.606 175.247 149.601 174.724 149.72C174.686 149.729 174.646 149.723 174.612 149.702C174.578 149.681 174.554 149.648 174.545 149.61C174.538 149.57 174.547 149.53 174.569 149.497C174.592 149.463 174.626 149.439 174.664 149.43C175.23 149.305 175.817 149.313 176.379 149.453C176.941 149.594 177.463 149.863 177.903 150.24C177.931 150.268 177.946 150.306 177.946 150.345C177.946 150.384 177.931 150.422 177.903 150.45C177.878 150.46 177.85 150.464 177.823 150.46V150.46Z" fill="#403D54"/>
<path d="M174.695 159.7C174.045 159.625 173.435 159.345 172.955 158.9C172.938 158.888 172.923 158.872 172.912 158.854C172.901 158.835 172.894 158.815 172.891 158.794C172.889 158.772 172.891 158.751 172.898 158.73C172.904 158.71 172.915 158.691 172.929 158.676C172.944 158.66 172.961 158.647 172.981 158.639C173.001 158.63 173.022 158.626 173.043 158.626C173.065 158.627 173.086 158.632 173.105 158.641C173.124 158.65 173.141 158.664 173.155 158.68C173.587 159.085 174.137 159.341 174.725 159.41C174.745 159.411 174.763 159.416 174.781 159.425C174.798 159.434 174.813 159.446 174.825 159.461C174.838 159.476 174.847 159.494 174.852 159.513C174.857 159.531 174.858 159.551 174.855 159.57C174.854 159.589 174.849 159.608 174.84 159.625C174.831 159.643 174.819 159.658 174.804 159.67C174.789 159.682 174.771 159.691 174.753 159.696C174.734 159.702 174.714 159.703 174.695 159.7Z" fill="#403D54"/>
<path d="M180.662 159.47H180.592C180.558 159.451 180.533 159.42 180.522 159.382C180.511 159.345 180.514 159.305 180.532 159.27C180.796 158.796 181.004 158.292 181.152 157.77C181.166 157.733 181.193 157.702 181.228 157.683C181.263 157.665 181.304 157.66 181.342 157.67C181.361 157.675 181.379 157.683 181.394 157.695C181.41 157.706 181.422 157.721 181.432 157.738C181.441 157.755 181.447 157.774 181.449 157.793C181.451 157.812 181.448 157.832 181.442 157.85C181.283 158.392 181.065 158.915 180.792 159.41C180.779 159.432 180.759 159.449 180.736 159.46C180.713 159.47 180.687 159.474 180.662 159.47Z" fill="#403D54"/>
<path d="M175.684 163C175.648 163 175.612 162.987 175.585 162.963C175.557 162.939 175.539 162.906 175.534 162.87C175.531 162.85 175.533 162.83 175.538 162.811C175.543 162.792 175.551 162.773 175.564 162.758C175.576 162.742 175.591 162.729 175.608 162.719C175.625 162.709 175.644 162.702 175.664 162.7C177.344 162.414 178.861 161.525 179.933 160.2C179.962 160.176 179.999 160.164 180.038 160.164C180.076 160.164 180.113 160.176 180.142 160.2C180.17 160.228 180.185 160.266 180.185 160.305C180.185 160.344 180.17 160.382 180.142 160.41C179.032 161.797 177.454 162.732 175.704 163.04L175.684 163Z" fill="#403D54"/>
<path d="M211.321 141.44H241.739C242.24 141.44 242.721 141.639 243.075 141.993C243.43 142.348 243.629 142.829 243.629 143.33V163.84C243.629 164.341 243.43 164.822 243.075 165.176C242.721 165.531 242.24 165.73 241.739 165.73H214.919C213.976 165.73 213.07 165.355 212.403 164.687C211.736 164.02 211.361 163.114 211.361 162.17V141.44H211.321Z" fill="#C05666"/>
<path d="M198.076 141.44H214.729V165.73H198.076C197.747 165.73 197.432 165.599 197.199 165.367C196.967 165.134 196.836 164.819 196.836 164.49V142.68C196.836 142.351 196.967 142.036 197.199 141.803C197.432 141.571 197.747 141.44 198.076 141.44V141.44Z" fill="#E86B7B"/>
<path d="M212.92 163.82C212.889 163.819 212.859 163.812 212.831 163.798C212.804 163.784 212.779 163.764 212.76 163.74L198.176 143.66C198.143 143.621 198.125 143.571 198.125 143.52C198.125 143.469 198.143 143.419 198.176 143.38C198.197 143.365 198.222 143.354 198.248 143.348C198.273 143.343 198.3 143.342 198.326 143.347C198.352 143.351 198.377 143.361 198.399 143.375C198.421 143.39 198.441 143.408 198.456 143.43L213.04 163.51C213.074 163.547 213.093 163.595 213.093 163.645C213.093 163.695 213.074 163.743 213.04 163.78C213.006 163.807 212.964 163.821 212.92 163.82V163.82Z" fill="#C05666"/>
<path d="M198.376 163.82C198.337 163.833 198.295 163.833 198.256 163.82C198.222 163.783 198.203 163.735 198.203 163.685C198.203 163.635 198.222 163.587 198.256 163.55L212.92 143.42C212.96 143.387 213.009 143.37 213.06 143.37C213.111 143.37 213.161 143.387 213.2 143.42C213.237 143.457 213.257 143.508 213.257 143.56C213.257 143.612 213.237 143.663 213.2 143.7L198.496 163.78C198.461 163.805 198.419 163.819 198.376 163.82V163.82Z" fill="#C05666"/>
<path d="M241.04 163.82C240.959 163.821 240.881 163.793 240.82 163.74L220.467 143.66C220.377 143.57 220.407 143.45 220.527 143.38C220.59 143.35 220.66 143.338 220.73 143.347C220.799 143.356 220.864 143.385 220.917 143.43L241.27 163.51C241.29 163.53 241.305 163.555 241.313 163.582C241.32 163.609 241.321 163.638 241.313 163.666C241.306 163.693 241.292 163.718 241.272 163.738C241.252 163.758 241.227 163.773 241.2 163.78C241.151 163.809 241.096 163.823 241.04 163.82V163.82Z" fill="#AC4D5A"/>
<path d="M220.697 163.82C220.642 163.835 220.583 163.835 220.527 163.82C220.501 163.811 220.477 163.796 220.458 163.775C220.439 163.755 220.426 163.73 220.42 163.702C220.414 163.675 220.415 163.646 220.423 163.62C220.432 163.593 220.447 163.569 220.467 163.55L240.99 143.46C241.049 143.426 241.116 143.408 241.185 143.408C241.253 143.408 241.32 143.426 241.379 143.46C241.499 143.53 241.529 143.65 241.439 143.74L220.917 163.74C220.856 163.793 220.778 163.821 220.697 163.82V163.82Z" fill="#AC4D5A"/>
<path d="M213.39 142.8H204.493V148.56H213.39V142.8Z" fill="#E4DBE2"/>
<path d="M211.141 144.6H206.223C206.191 144.602 206.159 144.596 206.129 144.585C206.099 144.573 206.072 144.556 206.05 144.533C206.027 144.51 206.01 144.483 205.998 144.454C205.987 144.424 205.981 144.392 205.983 144.36C205.983 144.296 206.008 144.235 206.053 144.19C206.098 144.145 206.159 144.12 206.223 144.12H211.141C211.172 144.12 211.204 144.126 211.233 144.138C211.262 144.15 211.288 144.168 211.31 144.19C211.333 144.213 211.35 144.239 211.362 144.268C211.375 144.297 211.381 144.329 211.381 144.36C211.381 144.392 211.375 144.423 211.362 144.452C211.35 144.481 211.333 144.508 211.31 144.53C211.288 144.552 211.262 144.57 211.233 144.582C211.204 144.594 211.172 144.6 211.141 144.6Z" fill="#CCBFC8"/>
<path d="M207.823 145.69H206.223C206.188 145.697 206.152 145.697 206.117 145.688C206.083 145.68 206.05 145.664 206.023 145.641C205.995 145.619 205.973 145.59 205.957 145.558C205.942 145.526 205.934 145.491 205.934 145.455C205.934 145.419 205.942 145.384 205.957 145.352C205.973 145.32 205.995 145.291 206.023 145.269C206.05 145.246 206.083 145.23 206.117 145.222C206.152 145.213 206.188 145.213 206.223 145.22H207.823C207.854 145.22 207.885 145.226 207.913 145.239C207.942 145.251 207.968 145.269 207.989 145.291C208.011 145.313 208.027 145.34 208.038 145.369C208.049 145.398 208.054 145.429 208.053 145.46C208.053 145.521 208.029 145.58 207.985 145.623C207.942 145.666 207.884 145.69 207.823 145.69Z" fill="#CCBFC8"/>
<path d="M210.922 145.64H208.842C208.807 145.647 208.771 145.647 208.736 145.638C208.702 145.63 208.669 145.614 208.642 145.591C208.614 145.569 208.592 145.54 208.576 145.508C208.561 145.476 208.553 145.441 208.553 145.405C208.553 145.369 208.561 145.334 208.576 145.302C208.592 145.27 208.614 145.241 208.642 145.219C208.669 145.196 208.702 145.18 208.736 145.172C208.771 145.163 208.807 145.163 208.842 145.17H210.922C210.957 145.163 210.993 145.163 211.027 145.172C211.062 145.18 211.094 145.196 211.122 145.219C211.15 145.241 211.172 145.27 211.187 145.302C211.203 145.334 211.211 145.369 211.211 145.405C211.211 145.441 211.203 145.476 211.187 145.508C211.172 145.54 211.15 145.569 211.122 145.591C211.094 145.614 211.062 145.63 211.027 145.638C210.993 145.647 210.957 145.647 210.922 145.64Z" fill="#CCBFC8"/>
<path d="M210.921 147.23H206.213C206.178 147.237 206.142 147.237 206.107 147.228C206.072 147.22 206.04 147.204 206.013 147.181C205.985 147.159 205.963 147.13 205.947 147.098C205.932 147.066 205.924 147.031 205.924 146.995C205.924 146.959 205.932 146.924 205.947 146.892C205.963 146.86 205.985 146.831 206.013 146.809C206.04 146.786 206.072 146.77 206.107 146.762C206.142 146.753 206.178 146.753 206.213 146.76H210.921C210.956 146.753 210.992 146.753 211.027 146.762C211.061 146.77 211.093 146.786 211.121 146.809C211.149 146.831 211.171 146.86 211.186 146.892C211.202 146.924 211.21 146.959 211.21 146.995C211.21 147.031 211.202 147.066 211.186 147.098C211.171 147.13 211.149 147.159 211.121 147.181C211.093 147.204 211.061 147.22 211.027 147.228C210.992 147.237 210.956 147.237 210.921 147.23Z" fill="#CCBFC8"/>
<path d="M212.8 148H205.093C205.073 147.998 205.054 147.989 205.039 147.974C205.024 147.96 205.015 147.94 205.013 147.92V143.42C205.013 143.399 205.022 143.378 205.037 143.363C205.052 143.348 205.072 143.34 205.093 143.34H212.8C212.811 143.338 212.822 143.339 212.833 143.343C212.843 143.346 212.853 143.352 212.861 143.36C212.868 143.367 212.874 143.377 212.878 143.387C212.881 143.398 212.882 143.409 212.88 143.42V147.92C212.88 147.93 212.878 147.941 212.874 147.951C212.87 147.96 212.864 147.969 212.857 147.977C212.849 147.984 212.841 147.99 212.831 147.994C212.821 147.998 212.811 148 212.8 148V148ZM205.173 147.84H212.72V143.5H205.173V147.84Z" fill="#CCBFC8"/>
<path d="M237.051 164.19H223.376C223.226 164.19 223.106 164.1 223.106 164C223.106 163.9 223.226 163.8 223.376 163.8H237.051C237.211 163.8 237.331 163.89 237.331 164C237.331 164.11 237.211 164.19 237.051 164.19Z" fill="#AC4D5A"/>
<path d="M241.66 162.05C241.51 162.05 241.39 161.96 241.39 161.85V153.58C241.39 153.47 241.51 153.38 241.66 153.38C241.81 153.38 241.94 153.47 241.94 153.58V161.85C241.91 162 241.82 162.05 241.66 162.05Z" fill="#AC4D5A"/>
<path d="M208.272 199.42V200L248.677 199.72L248.777 200H319.88V141.27C316.993 139.631 313.583 139.176 310.367 140C307.151 140.824 304.38 142.864 302.637 145.69C301.298 145.126 299.86 144.837 298.408 144.84C296.508 144.843 294.641 145.338 292.989 146.277C291.336 147.216 289.956 148.568 288.982 150.2C286.423 147.732 283.072 146.254 279.526 146.028C275.979 145.802 272.468 146.844 269.617 148.967C266.767 151.091 264.764 154.158 263.964 157.622C263.164 161.086 263.62 164.721 265.251 167.88C262.95 168.424 260.885 169.696 259.364 171.506C257.842 173.316 256.944 175.569 256.804 177.93C254.856 178.134 252.981 178.781 251.321 179.821C249.662 180.861 248.261 182.266 247.227 183.93C244.789 182.92 242.069 182.821 239.564 183.651C237.059 184.481 234.936 186.184 233.582 188.45C231.448 186.426 228.765 185.074 225.869 184.563C222.972 184.052 219.989 184.405 217.291 185.578C214.593 186.75 212.3 188.69 210.696 191.157C209.092 193.624 208.249 196.508 208.272 199.45V199.42Z" fill="#00707A"/>
<path d="M230.074 200H319.74V159.07C319.74 156.118 318.568 153.287 316.481 151.2C314.395 149.113 311.565 147.94 308.614 147.94C305.664 147.94 302.834 149.113 300.747 151.2C298.661 153.287 297.488 156.118 297.488 159.07C297.486 159.758 297.55 160.444 297.678 161.12C296.732 161.88 295.947 162.822 295.369 163.89C293.619 162.241 291.447 161.11 289.092 160.622C286.738 160.135 284.295 160.31 282.034 161.129C279.774 161.948 277.785 163.378 276.288 165.26C274.792 167.142 273.846 169.403 273.557 171.79C271.956 172.064 270.433 172.684 269.096 173.607C267.758 174.53 266.638 175.733 265.814 177.134C264.99 178.535 264.481 180.098 264.323 181.716C264.166 183.334 264.363 184.967 264.901 186.5C263.796 187.291 262.878 188.315 262.212 189.5C260.951 188.395 259.488 187.546 257.903 187C254.897 185.99 251.627 186.109 248.702 187.334C245.777 188.56 243.398 190.808 242.009 193.66C239.6 193.26 237.126 193.664 234.969 194.81C232.812 195.955 231.092 197.779 230.074 200V200Z" fill="#33CB93"/>
<path d="M319.88 200H0V176C0 176 75.1718 194.76 149.944 195C220.447 195.23 319.88 176 319.88 176V200Z" fill="white"/>
<path opacity="0.5" d="M61.7769 155.57L45.1631 148.77L40.3849 148.99L52.6003 155.57H61.7769Z" fill="#179668"/>
<path opacity="0.5" d="M36.1964 149.22L21.412 150.15L22.3616 148.91L62.5166 147.07L64.8957 147.89L36.1964 149.22Z" fill="#179668"/>
<path d="M52.6003 155.57C54.187 156.062 55.8374 156.318 57.4985 156.33C61.0072 156.33 61.7769 155.57 61.7769 155.57L58.2982 62.5701H55.8391L52.6003 155.57Z" fill="white"/>
<path d="M58.1483 59.8601H55.9091C55.0313 59.8601 54.3197 60.572 54.3197 61.4501V62.6601C54.3197 63.5382 55.0313 64.2501 55.9091 64.2501H58.1483C59.0261 64.2501 59.7377 63.5382 59.7377 62.6601V61.4501C59.7377 60.572 59.0261 59.8601 58.1483 59.8601Z" fill="#C6D9F2"/>
<path d="M57.1186 64.24L53.5499 155.84L52.3804 155.57L55.7891 64.24H57.1186Z" fill="#C6D9F2"/>
<path d="M55.0394 60.8L56.4189 62L54.8195 63.87L55.3093 67.1L24.7808 98.81C24.5629 99.0298 24.278 99.1706 23.9711 99.21L23.3913 99.27C23.3114 99.2802 23.2303 99.274 23.1529 99.2516C23.0756 99.2293 23.0036 99.1913 22.9414 99.14L22.6116 98.8601L55.0394 60.8Z" fill="white"/>
<path d="M57.5585 56L55.7991 56.49L55.1494 54.11L52.1505 52.71L43.0439 9.61004C42.9778 9.3085 43.0203 8.9933 43.1639 8.72004L43.4338 8.20004C43.4707 8.12669 43.5228 8.06202 43.5865 8.0103C43.6503 7.95859 43.7243 7.921 43.8036 7.90004L44.2135 7.79004L57.5585 56Z" fill="white"/>
<path d="M60.1975 60.53L60.4674 58.73L62.8965 59.1L65.3856 57L108.439 66.22C108.739 66.29 109.007 66.4591 109.199 66.7L109.559 67.16C109.611 67.2237 109.649 67.2974 109.672 67.3765C109.694 67.4556 109.7 67.5385 109.689 67.62L109.619 68.04L60.1975 60.53Z" fill="white"/>
<path d="M57.0887 62.52C58.9712 62.52 60.4974 60.9932 60.4974 59.11C60.4974 57.2267 58.9712 55.7 57.0887 55.7C55.2061 55.7 53.6799 57.2267 53.6799 59.11C53.6799 60.9932 55.2061 62.52 57.0887 62.52Z" fill="#EEF8F5"/>
</svg>
