<svg width="320" height="200" viewBox="0 0 320 200" fill="none" xmlns="http://www.w3.org/2000/svg">
<path d="M320 0H0V200H320V0Z" fill="#32E6F9"/>
<path d="M0 105.86C25.08 87.1101 41.74 72.9201 79.25 66.5101C138.25 56.4401 201.35 153.87 237.86 148.05C278.1 141.64 319.86 117.53 319.86 117.53V183.84H0V105.86Z" fill="#37D9F4"/>
<path opacity="0.9" d="M78.23 66.5199C90.1359 66.1691 101.849 69.5847 111.7 76.2799C127.54 87.3799 115.83 105.51 98.58 105.16C81.33 104.81 74.08 102.52 63.82 109.4C53.56 116.28 73.82 123.05 84.32 124.93C94.82 126.81 96.78 147.39 46.55 147.88C2.73 148.31 0 152.4 0 152.4V105.86C27.63 82.0899 57 67.7499 78.23 66.5199Z" fill="#34E0F7"/>
<path d="M320 200H0V161.52C42.5344 159.709 85.1409 160.614 127.56 164.23C193.29 170.16 320 170.56 320 170.56V200Z" fill="#23B781"/>
<path d="M297.44 100.9H256.78C251.561 100.9 247.33 105.131 247.33 110.35V151.01C247.33 156.229 251.561 160.46 256.78 160.46H297.44C302.659 160.46 306.89 156.229 306.89 151.01V110.35C306.89 105.131 302.659 100.9 297.44 100.9Z" fill="#FFF1E1"/>
<path d="M189.11 199.16C188.835 197.44 189.029 195.678 189.672 194.059C190.314 192.44 191.381 191.024 192.76 189.96C194.147 189.014 195.782 188.497 197.46 188.474C199.139 188.451 200.788 188.922 202.2 189.83C202.147 187.467 202.746 185.135 203.932 183.091C205.117 181.046 206.843 179.368 208.92 178.24C211.017 177.265 213.353 176.922 215.642 177.252C217.931 177.582 220.074 178.572 221.81 180.1C222.46 178.995 223.419 178.104 224.568 177.535C225.717 176.967 227.007 176.746 228.28 176.9C229.588 177.136 230.809 177.717 231.817 178.584C232.824 179.451 233.581 180.572 234.01 181.83C235.597 179.78 237.804 178.299 240.303 177.609C242.801 176.919 245.456 177.056 247.87 178C250.363 179.111 252.489 180.908 253.999 183.181C255.51 185.455 256.342 188.111 256.4 190.84C233.14 193 210.09 196.8 189.11 199.16Z" fill="#179668"/>
<path fill-rule="evenodd" clip-rule="evenodd" d="M251.48 138.37C251.72 137.95 256.06 110.81 263.15 108.37C270.07 105.95 263.52 142.83 263.52 142.83C263.52 142.83 261.29 144.7 256.52 142.89C251.75 141.08 251.48 138.37 251.48 138.37Z" fill="#E23B5B"/>
<path d="M294.75 112.56C294.75 112.56 285.57 105.69 274.99 105.69C266.47 105.69 262.99 108.91 262.99 108.91L257.26 149.71L290.93 150.24L294.75 112.56Z" fill="#FF4964"/>
<path d="M282.42 106.73C282.236 107.443 281.981 108.137 281.66 108.8C280.96 110.34 276.87 116.2 270.98 115.38C265.09 114.56 267.63 109.23 268.13 108.17C268.54 107.31 269.65 105.91 270.48 105.91C272.15 105.91 278.71 105.54 281.24 106.34C281.77 106.5 282.42 106.73 282.42 106.73Z" fill="#F9AE83"/>
<path d="M281.649 125.666C281.783 124.994 281.373 124.346 280.734 124.219C280.095 124.091 279.469 124.532 279.335 125.204C279.201 125.875 279.61 126.523 280.249 126.651C280.888 126.778 281.515 126.337 281.649 125.666Z" fill="#E7F1F2"/>
<path d="M284.74 107.75C285.02 106.87 289.32 109.15 289.32 109.15C289.32 109.15 282.7 124.87 283.66 130.06C284.42 134.15 292.24 136.48 292.96 130.28C293.24 127.79 290.96 160.46 290.96 160.46H255.93C255.93 160.46 257.78 117.99 263.02 108.26C263.36 107.62 266.43 106.8 266.28 107.14C264.59 111.03 261.41 118.55 263.28 123.73C264.28 126.41 271.75 129.47 277.19 124.14C279.37 122 283.54 111.48 284.74 107.75Z" fill="#0A96AD"/>
<path d="M283.4 126.67C282.886 127.274 282.278 127.79 281.6 128.2C281.29 128.375 280.948 128.487 280.594 128.528C280.24 128.569 279.882 128.539 279.54 128.44C279.212 128.338 278.911 128.164 278.66 127.93C278.411 127.672 278.211 127.37 278.07 127.04C277.792 126.297 277.64 125.513 277.62 124.72C277.343 125.529 277.305 126.4 277.51 127.23C277.626 127.673 277.841 128.083 278.14 128.43C278.468 128.768 278.873 129.022 279.32 129.17C279.76 129.299 280.224 129.324 280.676 129.242C281.127 129.161 281.553 128.975 281.92 128.7C282.598 128.179 283.111 127.474 283.4 126.67Z" fill="#0B7189"/>
<path d="M280.31 126.66C280.619 126.698 280.931 126.615 281.181 126.429C281.43 126.242 281.598 125.967 281.65 125.66C281.719 125.346 281.661 125.017 281.488 124.746C281.316 124.474 281.044 124.282 280.73 124.21C280.601 124.184 280.469 124.184 280.34 124.21H280.4C280.555 124.245 280.702 124.311 280.831 124.403C280.961 124.495 281.071 124.612 281.156 124.746C281.24 124.881 281.297 125.031 281.324 125.188C281.35 125.344 281.346 125.505 281.31 125.66C281.268 125.91 281.149 126.14 280.97 126.32C280.791 126.499 280.56 126.618 280.31 126.66Z" fill="#C2C6C6"/>
<path d="M280.25 126.65H280.31C280.56 126.608 280.79 126.489 280.97 126.31C281.149 126.13 281.268 125.9 281.31 125.65C281.346 125.495 281.35 125.335 281.324 125.178C281.297 125.021 281.24 124.871 281.155 124.736C281.071 124.602 280.961 124.485 280.831 124.393C280.701 124.301 280.555 124.235 280.4 124.2H280.34C280.09 124.242 279.86 124.361 279.68 124.54C279.501 124.719 279.382 124.95 279.34 125.2C279.303 125.355 279.297 125.516 279.323 125.673C279.349 125.83 279.406 125.981 279.491 126.116C279.576 126.251 279.686 126.368 279.817 126.459C279.947 126.551 280.094 126.616 280.25 126.65Z" fill="#E7F1F2"/>
<path d="M262.37 122.82C262.26 123.168 262.072 123.486 261.82 123.75C261.704 123.869 261.566 123.963 261.413 124.026C261.26 124.09 261.096 124.122 260.93 124.12C260.768 124.137 260.604 124.119 260.45 124.065C260.296 124.011 260.156 123.924 260.04 123.81C259.825 123.52 259.706 123.17 259.7 122.81C259.625 123.001 259.595 123.207 259.612 123.411C259.63 123.616 259.694 123.814 259.8 123.99C259.924 124.173 260.103 124.312 260.31 124.39C260.511 124.467 260.725 124.501 260.94 124.49C261.154 124.49 261.366 124.439 261.557 124.342C261.748 124.244 261.914 124.103 262.04 123.93C262.276 123.609 262.392 123.217 262.37 122.82Z" fill="#0B7189"/>
<path d="M260.9 123.05C261.108 123.079 261.319 123.024 261.487 122.899C261.655 122.774 261.768 122.587 261.8 122.38C261.862 122.166 261.84 121.937 261.74 121.739C261.64 121.54 261.468 121.387 261.26 121.31C261.177 121.295 261.093 121.295 261.01 121.31C261.217 121.389 261.386 121.543 261.484 121.741C261.582 121.94 261.602 122.168 261.54 122.38C261.511 122.542 261.434 122.692 261.321 122.811C261.207 122.93 261.061 123.013 260.9 123.05Z" fill="#C2C6C6"/>
<path d="M260.86 123C261.029 122.97 261.185 122.889 261.307 122.767C261.428 122.645 261.51 122.489 261.54 122.32C261.602 122.108 261.582 121.88 261.484 121.681C261.386 121.483 261.217 121.329 261.01 121.25C260.84 121.282 260.684 121.365 260.562 121.489C260.44 121.612 260.36 121.769 260.33 121.94C260.268 122.151 260.288 122.378 260.387 122.574C260.485 122.771 260.654 122.923 260.86 123Z" fill="#E7F1F2"/>
<path d="M279.31 136.52C279.31 136.52 265.23 138.74 259.86 133.64L258.6 151.78C258.6 151.78 260.02 156.48 266.76 157.29C273.5 158.1 277.94 152.9 277.94 152.9L279.31 136.52Z" fill="#0B7189"/>
<path d="M277.76 138.74L277.85 137.74H277.61L276.86 137.84L276.91 138.22L277.43 138.15L277.38 138.67L277.76 138.74Z" fill="#0E9EA5"/>
<path d="M271.73 138.58H272.55V138.2H271.1V138.58H271.73ZM269.63 138.52V138.14C269.143 138.14 268.663 138.1 268.19 138.02V138.4C268.64 138.45 269.13 138.49 269.63 138.52ZM274 138.52L275.46 138.42V138.04C275.03 138.04 274.54 138.11 274.02 138.14L274 138.52ZM266.72 138.21L266.79 137.83C266.3 137.75 265.79 137.65 265.38 137.54L265.29 137.91C265.761 138.031 266.239 138.127 266.72 138.2V138.21ZM263.88 137.49L264.01 137.13C263.561 136.976 263.124 136.792 262.7 136.58L262.52 136.92C262.962 137.134 263.416 137.321 263.88 137.48V137.49Z" fill="#0E9EA5"/>
<path d="M260.93 136.25V135.88C261.029 135.965 261.132 136.045 261.24 136.12L261.47 135.82C261.271 135.671 261.081 135.51 260.9 135.34L260.61 135.06L260.53 136.23L260.93 136.25Z" fill="#0E9EA5"/>
<path d="M267.69 156.22V155.84C267.39 155.84 267.08 155.84 266.78 155.77C266.575 155.75 266.372 155.72 266.17 155.68L266.11 156.06L266.73 156.15C267.05 156.19 267.37 156.21 267.69 156.22ZM269.27 156.15C269.793 156.081 270.311 155.978 270.82 155.84L270.72 155.47C270.229 155.609 269.727 155.71 269.22 155.77L269.27 156.15ZM264.58 155.69L264.7 155.33C264.214 155.178 263.742 154.984 263.29 154.75L263.12 155.09C263.587 155.334 264.076 155.535 264.58 155.69ZM272.31 155.31C272.794 155.098 273.265 154.858 273.72 154.59L273.52 154.26C273.084 154.525 272.629 154.759 272.16 154.96L272.31 155.31ZM261.77 154.24L262.01 153.94C261.611 153.629 261.246 153.277 260.92 152.89L260.63 153.14C260.972 153.544 261.354 153.912 261.77 154.24ZM275.03 153.71C275.447 153.401 275.844 153.067 276.22 152.71L275.95 152.44C275.589 152.802 275.201 153.137 274.79 153.44L275.03 153.71ZM259.75 151.8L260.09 151.63C259.98 151.4 259.92 151.23 259.89 151.17L259.96 150.22H259.58L259.51 151.22C259.568 151.422 259.649 151.616 259.75 151.8ZM276.75 151.14L276.88 149.59H276.49L276.36 151.14H276.75ZM260.09 148.67L260.19 147.12H259.81L259.71 148.67H260.09ZM277 148L277.13 146.45H276.75L276.6 148H277ZM260.3 145.52L260.41 143.97H260.03L259.92 145.52H260.3ZM277.3 144.9L277.43 143.35H277.05L276.92 144.9H277.3ZM260.56 142.42L260.67 140.87H260.28L260.18 142.42H260.56ZM277.56 141.8L277.69 140.25H277.31L277.18 141.8H277.56ZM260.77 139.32L260.88 137.77H260.5L260.39 139.32H260.77Z" fill="#0E9EA5"/>
<path d="M299.092 94.7959C300.397 89.2646 289.105 81.8681 273.871 78.2754C258.637 74.6827 245.23 76.2543 243.926 81.7855C242.621 87.3168 253.913 94.7132 269.147 98.3059C284.381 101.899 297.788 100.327 299.092 94.7959Z" fill="#9E7B57"/>
<path d="M268.43 72.1998C265.43 71.1998 260.67 72.6398 259.75 79.6698C259.06 84.9298 259.89 91.2298 262.86 92.1898C265.83 93.1498 269.2 88.1098 270.86 83.0698C272.52 78.0298 271.4 73.1598 268.43 72.1998Z" fill="#1D394F"/>
<path d="M275.186 110.34L275.546 110.348C278.185 110.41 280.375 108.321 280.437 105.682L280.603 98.664C280.665 96.0248 278.576 93.8349 275.937 93.7727L275.577 93.7642C272.938 93.702 270.748 95.7911 270.685 98.4303L270.52 105.448C270.458 108.087 272.547 110.277 275.186 110.34Z" fill="#F9AE83"/>
<path d="M268.29 104.77C271.375 105.057 274.462 104.239 276.999 102.46C279.537 100.681 281.359 98.0583 282.14 95.0598L284.78 85.5998C285.39 78.8298 282.78 71.6998 273.91 70.9198C270.676 70.6655 267.472 71.7036 265.002 73.8067C262.531 75.9098 260.995 78.9063 260.73 82.1398L260.31 91.6298C260.43 99.0598 263 104.3 268.29 104.77Z" fill="#F9AE83"/>
<path d="M280.52 89.3599C280.36 88.6899 279.36 92.4199 279.15 91.5499C278.8 90.1099 277.86 89.4699 278.15 87.0699C278.253 86.1567 278.219 85.2332 278.05 84.3299C275.13 80.6499 263.6 78.7399 260.7 82.5299C260.7 82.5299 260.39 69.2399 273.26 70.4299C286.94 71.6899 285.06 82.4299 284.77 85.5999C284.39 89.8899 282.77 98.2199 280.5 98.7899C280.51 98.7899 281.85 95.1999 280.52 89.3599Z" fill="#1D394F"/>
<path d="M285.627 91.8019C286.044 89.6437 285.094 87.6452 283.506 87.3381C281.917 87.031 280.291 88.5316 279.873 90.6898C279.456 92.8479 280.406 94.8464 281.995 95.1535C283.584 95.4606 285.21 93.96 285.627 91.8019Z" fill="#F9AE83"/>
<path d="M284.67 89.0999C284.162 88.8686 283.59 88.8191 283.05 88.9599C282.499 89.1111 282.003 89.4164 281.62 89.8399C281.254 90.2585 280.972 90.7441 280.79 91.2699C280.72 91.5399 280.65 91.7999 280.6 92.0599C280.565 92.3252 280.545 92.5923 280.54 92.8599C280.662 92.6257 280.772 92.3854 280.87 92.1399C280.98 91.9099 281.1 91.6799 281.2 91.4499C281.431 91.0115 281.713 90.602 282.04 90.2299C282.369 89.8606 282.775 89.568 283.229 89.3727C283.684 89.1775 284.176 89.0844 284.67 89.0999Z" fill="#C97355"/>
<path d="M283.7 91.0898C283.526 90.8104 283.25 90.6096 282.93 90.5298C282.598 90.4425 282.247 90.4671 281.93 90.5998C281.63 90.7363 281.366 90.9419 281.16 91.1998C281.07 91.3286 280.986 91.4621 280.91 91.5998C280.848 91.7465 280.794 91.8968 280.75 92.0498C280.882 91.968 281.009 91.8778 281.13 91.7798L281.47 91.5198C281.683 91.3644 281.911 91.2304 282.15 91.1198C282.645 90.9184 283.197 90.9077 283.7 91.0898Z" fill="#C97355"/>
<path d="M265.76 79.2899C265.76 79.2899 267.71 84.0599 272.02 84.9299C272.067 84.9408 272.116 84.9368 272.16 84.9184C272.205 84.9 272.242 84.8682 272.268 84.8274C272.293 84.7865 272.305 84.7388 272.302 84.6908C272.299 84.6428 272.281 84.597 272.25 84.5599C271.373 83.4772 270.947 82.0985 271.06 80.7099C271.37 78.2799 265.76 79.2899 265.76 79.2899Z" fill="#1D394F"/>
<path d="M260.27 82.24C260.77 83.44 262.87 85.4101 267.78 86.4801C267.822 86.491 267.867 86.4884 267.907 86.4729C267.948 86.4573 267.983 86.4295 268.007 86.3932C268.031 86.3569 268.044 86.314 268.042 86.2705C268.041 86.2269 268.026 86.1848 268 86.1501C266.857 84.6916 266.339 82.8396 266.56 81C267.02 78.3 261.02 81.4001 260.44 81.9401C260.34 82.0501 260.21 82.11 260.27 82.24Z" fill="#1D394F"/>
<path d="M267 90.6799C266.572 91.175 266.193 91.7109 265.87 92.2799C265.52 92.8526 265.254 93.4721 265.08 94.1199C265.034 94.2994 265.013 94.4847 265.02 94.6699C265.022 94.7792 265.043 94.8873 265.08 94.9899C265.125 95.1189 265.209 95.2307 265.32 95.3099C265.482 95.4062 265.657 95.4771 265.84 95.5199C266.006 95.5692 266.177 95.5994 266.35 95.6099C267.023 95.6723 267.701 95.6078 268.35 95.4199C267.712 95.3819 267.077 95.3017 266.45 95.1799L266.02 95.0499C265.891 95.0105 265.769 94.9496 265.66 94.8699C265.66 94.8699 265.6 94.7799 265.6 94.6499C265.603 94.5119 265.62 94.3746 265.65 94.2399C265.82 93.6352 266.034 93.0437 266.29 92.4699C266.51 91.8799 266.77 91.2899 267 90.6799Z" fill="#C97355"/>
<path d="M264.77 98.68C265.304 99.0935 265.933 99.3653 266.6 99.47C267.262 99.5787 267.938 99.5787 268.6 99.47C269.265 99.3735 269.916 99.1989 270.54 98.95C270.85 98.82 271.14 98.67 271.44 98.52C271.74 98.37 272 98.17 272.27 97.98C271.95 98.06 271.64 98.16 271.33 98.27L270.4 98.53C270.08 98.59 269.78 98.7 269.47 98.75L269 98.85L268.53 98.91C267.907 98.9967 267.278 99.0235 266.65 98.99C266.012 98.9736 265.379 98.8693 264.77 98.68Z" fill="#C97355"/>
<path d="M266.16 100.57C266.277 100.794 266.467 100.971 266.7 101.07C266.927 101.168 267.172 101.219 267.42 101.22C267.662 101.216 267.902 101.172 268.13 101.09C268.354 101.002 268.559 100.869 268.73 100.7C268.5 100.681 268.27 100.681 268.04 100.7H267.42H266.82C266.597 100.675 266.376 100.631 266.16 100.57Z" fill="#C97355"/>
<path d="M276.4 88.25C275.862 88.044 275.311 87.8737 274.75 87.74C274.185 87.5988 273.61 87.4985 273.03 87.44C272.442 87.3302 271.838 87.3302 271.25 87.44C270.638 87.5692 270.098 87.9268 269.74 88.44C270.252 88.2347 270.791 88.1067 271.34 88.06C271.892 88.0072 272.446 87.9871 273 88C273.561 87.9901 274.123 88.0202 274.68 88.09C275.247 88.1432 275.812 88.2266 276.37 88.34L276.4 88.25Z" fill="#1D394F"/>
<path d="M261.1 87.5899C261.433 87.5672 261.767 87.5672 262.1 87.5899C262.439 87.624 262.774 87.691 263.1 87.7899C263.392 87.9085 263.676 88.0454 263.95 88.1999C264.248 88.3532 264.536 88.5269 264.81 88.7199H264.87C264.852 88.5254 264.795 88.3366 264.702 88.1648C264.609 87.9929 264.483 87.8416 264.33 87.7199C264.004 87.4898 263.619 87.3579 263.22 87.3399C262.849 87.2848 262.471 87.2848 262.1 87.3399C261.739 87.3794 261.383 87.4599 261.04 87.5799L261.1 87.5899Z" fill="#1D394F"/>
<path d="M271.7 91.2907C271.716 90.6171 271.433 90.0641 271.069 90.0555C270.704 90.0469 270.396 90.586 270.38 91.2596C270.364 91.9332 270.647 92.4862 271.011 92.4948C271.376 92.5034 271.684 91.9643 271.7 91.2907Z" fill="#1D394F"/>
<path d="M264.009 91.1044C264.024 90.4308 263.742 89.8778 263.377 89.8692C263.013 89.8606 262.705 90.3997 262.689 91.0733C262.673 91.7469 262.956 92.2999 263.32 92.3085C263.684 92.3171 263.993 91.778 264.009 91.1044Z" fill="#1D394F"/>
<path d="M270.54 104.81C270.54 104.81 276.29 103.49 278.32 101.55C278.32 101.55 273.56 110.11 270.67 107.18C270.3 106.81 270.54 104.81 270.54 104.81Z" fill="#F58A69"/>
<path d="M243.93 83.53C245.23 78 258.64 76.43 273.87 80.02C287.56 83.26 298.07 89.56 299.1 94.81C300.41 89.29 289.1 81.89 273.89 78.29C258.68 74.69 245.25 76.29 243.95 81.8C243.817 82.3683 243.81 82.9588 243.93 83.53Z" fill="#D8AA73"/>
<path opacity="0.3" fill-rule="evenodd" clip-rule="evenodd" d="M292.52 146.55C295.08 152.92 290.62 154.74 285.57 154.55C280.52 154.36 257.81 149.21 257.81 149.21L257.1 144.85C266.47 144.68 289.32 138.57 292.52 146.55Z" fill="#2B4060"/>
<path fill-rule="evenodd" clip-rule="evenodd" d="M287.92 143.82C287.92 143.82 287.12 109.5 294.6 112.49C303.01 115.86 301.82 146.61 301.82 146.61C301.82 146.61 299.61 148.84 294.08 147.68C288.55 146.52 287.92 143.82 287.92 143.82Z" fill="#FF4964"/>
<path fill-rule="evenodd" clip-rule="evenodd" d="M286.89 144.56C302.59 127.5 313.75 162.51 291.01 152.97L286.89 144.56Z" fill="#E23B5B"/>
<path fill-rule="evenodd" clip-rule="evenodd" d="M265.59 142.51L265.71 141.86C260.65 137.25 261.02 139.63 257.71 136.93C255.91 135.49 256.24 138.93 257.79 140.14C259.84 140.85 265.59 142.51 265.59 142.51Z" fill="#F58A69"/>
<path fill-rule="evenodd" clip-rule="evenodd" d="M299.16 144.76C304.25 151.23 297.57 153 293.09 152.76C288.61 152.52 265.74 147.95 265.74 147.95L266.27 142.13C274.56 142.1 294.07 138.29 299.16 144.76Z" fill="#F9AE83"/>
<path fill-rule="evenodd" clip-rule="evenodd" d="M299.16 144.76C304.25 151.23 297.57 153 293.09 152.76L291.95 152.65C294.21 152.33 296.44 151.54 297.25 149.73C298.47 147.02 296.49 143.94 294.98 142.13C296.601 142.578 298.054 143.492 299.16 144.76Z" fill="#F58A69"/>
<path fill-rule="evenodd" clip-rule="evenodd" d="M258.65 141.56L257.76 139.9L252.27 143.06L254.32 148.62L259.27 148.06L258.65 141.56Z" fill="#EA8678"/>
<path fill-rule="evenodd" clip-rule="evenodd" d="M267.52 143L266.23 142L257.76 139.91C257.76 139.91 257.66 144.84 259.27 148.07C259.27 148.07 263.27 148.96 265.74 147.95L267.52 143Z" fill="#F9AE83"/>
<path d="M293.25 112.36C292.778 112.52 292.347 112.783 291.99 113.13C291.799 113.291 291.621 113.469 291.46 113.66C291.289 113.845 291.132 114.042 290.99 114.25C290.7 114.656 290.436 115.08 290.2 115.52C289.96 115.96 289.78 116.43 289.56 116.88C288.858 118.742 288.372 120.678 288.11 122.65C287.847 124.609 287.713 126.583 287.71 128.56C287.71 129.56 287.71 130.56 287.78 131.51C287.85 132.46 287.91 133.51 288.01 134.45C288.08 133.45 288.11 132.45 288.14 131.51V130.78V130.04L288.23 128.58C288.23 127.58 288.37 126.58 288.45 125.66L288.51 124.93C288.51 124.69 288.57 124.44 288.6 124.2L288.78 122.75C289.044 120.829 289.466 118.932 290.04 117.08C290.22 116.64 290.38 116.18 290.57 115.74C290.76 115.295 290.98 114.864 291.23 114.45C291.341 114.235 291.472 114.031 291.62 113.84C291.752 113.642 291.899 113.455 292.06 113.28L292.31 113.01L292.58 112.77C292.78 112.598 293.006 112.46 293.25 112.36Z" fill="#E23B5B"/>
<path d="M227.37 126.67C227.283 126.899 227.283 127.151 227.37 127.38L233.65 145.92C233.708 146.081 233.807 146.225 233.936 146.337C234.066 146.449 234.222 146.526 234.39 146.56L263.73 151.9H263.86L263.63 152.22L264.33 151.8H264.4C264.582 151.678 264.719 151.499 264.79 151.291C264.86 151.083 264.86 150.858 264.79 150.65L257.89 131.88C257.829 131.723 257.729 131.583 257.6 131.475C257.47 131.366 257.316 131.292 257.15 131.26L228.44 126.15C228.119 126.163 227.808 126.263 227.54 126.44L226.81 126.87L227.37 126.67Z" fill="#A0A0A0"/>
<path d="M256.22 132L227.51 126.88C227.347 126.861 227.182 126.882 227.03 126.942C226.877 127.001 226.741 127.098 226.635 127.222C226.528 127.347 226.453 127.496 226.418 127.656C226.382 127.816 226.386 127.982 226.43 128.14L232.7 146.68C232.758 146.841 232.857 146.984 232.986 147.097C233.116 147.209 233.272 147.285 233.44 147.32L262.78 152.67C262.945 152.69 263.113 152.669 263.267 152.608C263.422 152.548 263.559 152.449 263.667 152.322C263.774 152.195 263.848 152.043 263.881 151.881C263.915 151.718 263.908 151.549 263.86 151.39L257 132.63C256.937 132.465 256.832 132.321 256.695 132.21C256.558 132.099 256.394 132.027 256.22 132Z" fill="#CDCDD3"/>
<path d="M226.43 127.94L226.53 128.26L259.27 151.83L262.78 152.47C262.945 152.49 263.112 152.469 263.267 152.408C263.422 152.348 263.559 152.249 263.666 152.122C263.774 151.995 263.848 151.844 263.881 151.681C263.915 151.518 263.908 151.349 263.86 151.19L257 132.41C256.939 132.253 256.839 132.113 256.71 132.005C256.58 131.896 256.426 131.822 256.26 131.79L227.55 126.68C227.384 126.653 227.214 126.669 227.056 126.726C226.898 126.782 226.756 126.878 226.645 127.003C226.533 127.129 226.455 127.28 226.417 127.444C226.38 127.608 226.384 127.778 226.43 127.94Z" fill="#CDCDD3"/>
<path d="M226.43 127.94L226.53 128.26L259.27 151.83L262.78 152.47C262.945 152.49 263.112 152.469 263.267 152.408C263.422 152.348 263.559 152.249 263.666 152.122C263.774 151.995 263.848 151.844 263.881 151.681C263.915 151.518 263.908 151.349 263.86 151.19L257 132.41C256.939 132.253 256.839 132.113 256.71 132.005C256.58 131.896 256.426 131.822 256.26 131.79L227.55 126.68C227.384 126.653 227.214 126.669 227.056 126.726C226.898 126.782 226.756 126.878 226.645 127.003C226.533 127.129 226.455 127.28 226.417 127.444C226.38 127.608 226.384 127.778 226.43 127.94Z" fill="#D8D8D8"/>
<path d="M241.16 141.52C241.432 142.044 241.897 142.442 242.457 142.628C243.017 142.815 243.628 142.776 244.16 142.52C244.397 142.372 244.6 142.175 244.756 141.944C244.913 141.712 245.019 141.45 245.068 141.175C245.117 140.9 245.108 140.618 245.041 140.347C244.974 140.075 244.851 139.821 244.68 139.6C243.96 138.46 242.49 137.8 241.55 138.39C241.09 138.758 240.791 139.291 240.719 139.876C240.646 140.46 240.804 141.05 241.16 141.52Z" fill="#E2E2E2"/>
<path d="M234.49 145.55C234.49 145.55 234 146.36 233.31 146.35C232.632 146.29 231.962 146.163 231.31 145.97C231.176 145.82 231.074 145.644 231.011 145.453C230.947 145.262 230.923 145.06 230.94 144.86C231.004 144.516 231.108 144.18 231.25 143.86C231.174 143.934 231.082 143.99 230.981 144.023C230.879 144.055 230.772 144.064 230.667 144.047C230.562 144.031 230.462 143.99 230.376 143.928C230.29 143.866 230.219 143.784 230.17 143.69C229.796 143.069 229.52 142.394 229.35 141.69C228.954 141.481 228.612 141.183 228.35 140.82C228.188 140.462 228.087 140.081 228.05 139.69C227.873 139.513 227.749 139.29 227.693 139.046C227.636 138.802 227.649 138.547 227.73 138.31C227.818 138.059 227.963 137.831 228.154 137.645C228.345 137.46 228.576 137.321 228.83 137.24C228.83 137.24 231.6 135.91 231.83 136.24C232.06 136.57 232.62 137.01 231.6 137.62L229.94 138.62L230.23 139.33C230.23 139.33 232.92 138.15 233.29 138.33C233.66 138.51 234.29 138.61 233.93 139.15C233.026 139.869 232.043 140.483 231 140.98L231.09 141.98C231.09 141.98 233.99 140.72 234.36 141.08C234.73 141.44 235.08 141.64 234.55 142.13C233.707 142.71 232.817 143.219 231.89 143.65L232.52 144.5C232.52 144.5 234.43 144.43 234.49 145.55Z" fill="#F9AE83"/>
<path d="M298.5 91.5299C298.5 91.5299 295.26 83.6899 272.12 78.7699C272.12 78.7699 250.99 73.1299 244.44 80.6999C245.1 79.5099 248.91 77.2699 250.18 76.7699L274.42 67.2899C274.692 67.1848 274.987 67.1553 275.274 67.2046C275.561 67.2539 275.829 67.3802 276.05 67.5699L293 84.9099C294.12 85.9099 298.57 90.0499 298.55 91.5299H298.5Z" fill="#F9D07D"/>
<path d="M320 200H0V177C0 177 75.2 194.76 150 195C220.53 195.23 320 176 320 176V200Z" fill="white"/>
<path d="M208 45.9399H164.02C158.801 45.9399 154.57 50.1709 154.57 55.3899V99.3699C154.57 104.589 158.801 108.82 164.02 108.82H208C213.219 108.82 217.45 104.589 217.45 99.3699V55.3899C217.45 50.1709 213.219 45.9399 208 45.9399Z" fill="#E0F4FC"/>
<path d="M70.89 76.6101H21.45C16.2309 76.6101 12 80.841 12 86.0601V135.5C12 140.719 16.2309 144.95 21.45 144.95H70.89C76.1091 144.95 80.34 140.719 80.34 135.5V86.0601C80.34 80.841 76.1091 76.6101 70.89 76.6101Z" fill="white"/>
<path d="M133 60.7501L133.68 60.3201C133.976 60.1334 134.307 60.0091 134.653 59.9549C134.998 59.9006 135.351 59.9176 135.69 60.0047C136.029 60.0917 136.347 60.2471 136.624 60.4613C136.9 60.6754 137.131 60.9438 137.3 61.2501C138.4 63.2501 139.75 66.0401 139.75 66.0401L136.88 70.5901H135.88C134.88 71.2601 132.39 69.9101 130.74 68.9001C129.09 67.8901 129.9 66.9001 129.9 66.9001C128.9 65.4701 130.29 64.9001 130.29 64.9001C130.17 64.7307 130.086 64.5389 130.043 64.3363C129.999 64.1336 129.997 63.9242 130.036 63.7207C130.075 63.5171 130.155 63.3235 130.271 63.1516C130.387 62.9797 130.536 62.8329 130.71 62.7201" fill="#F9AE83"/>
<path d="M131.518 46.3522L110.717 50.3391L116.298 79.4591L137.099 75.4722L131.518 46.3522Z" fill="white"/>
<path d="M114.19 56.9999C114.19 56.9299 117.61 56.2099 121.86 55.3999C126.11 54.5899 129.56 53.9799 129.57 54.0499C129.58 54.1199 126.15 54.8299 121.9 55.6399C117.65 56.4499 114.2 57.0799 114.19 56.9999Z" fill="#BCBCBC"/>
<path d="M114.58 59.07C114.58 59 118 58.29 122.25 57.48C126.5 56.67 129.95 56.06 129.96 56.12C129.97 56.18 126.54 56.91 122.3 57.72C118.06 58.53 114.6 59.14 114.58 59.07Z" fill="#BCBCBC"/>
<path d="M115 61.1301C115 61.0601 118.42 60.3501 122.66 59.5301C126.9 58.7101 130.36 58.1101 130.38 58.1801C130.4 58.2501 126.96 58.9601 122.71 59.7801C118.46 60.6001 115 61.1901 115 61.1301Z" fill="#BCBCBC"/>
<path d="M115.37 63.1801C115.37 63.1201 118.79 62.4001 123.04 61.5901C127.29 60.7801 130.74 60.1701 130.75 60.2401C130.76 60.3101 127.33 61.0201 123.08 61.8301C118.83 62.6401 115.38 63.2501 115.37 63.1801Z" fill="#BCBCBC"/>
<path d="M115.76 65.24C115.76 65.17 119.18 64.46 123.43 63.65C127.68 62.84 131.13 62.23 131.15 62.29C131.17 62.35 127.73 63.07 123.48 63.89C119.23 64.71 115.78 65.31 115.76 65.24Z" fill="#BCBCBC"/>
<path d="M116.16 67.3C116.16 67.23 119.58 66.52 123.83 65.7C128.08 64.88 131.53 64.28 131.54 64.35C131.55 64.42 128.12 65.13 123.87 65.94C119.62 66.75 116.17 67.36 116.16 67.3Z" fill="#BCBCBC"/>
<path d="M116.55 69.35C116.55 69.29 119.97 68.57 124.22 67.76C128.47 66.95 131.92 66.34 131.93 66.41C131.94 66.48 128.51 67.19 124.27 68C120.03 68.81 116.57 69.42 116.55 69.35Z" fill="#BCBCBC"/>
<path d="M117 71.4099C117 71.3399 120.42 70.6299 124.66 69.8099C128.9 68.9899 132.37 68.3899 132.38 68.4599C132.39 68.5299 128.96 69.2399 124.71 70.0599C120.46 70.8799 117 71.4799 117 71.4099Z" fill="#BCBCBC"/>
<path d="M117.34 73.4701C117.34 73.4001 120.76 72.6801 125.01 71.8701C129.26 71.0601 132.71 70.4501 132.72 70.5201C132.73 70.5901 129.3 71.3001 125.05 72.1101C120.8 72.9201 117.35 73.5301 117.34 73.4701Z" fill="#BCBCBC"/>
<path d="M134.84 59.9299C134.68 59.9299 128.52 60.9299 128.52 60.9299C128.41 61.4999 128.74 62.2999 130.2 62.3199C131.66 62.3399 132.81 62.2299 132.81 62.2299C132.81 62.2299 134.34 65.4099 135.81 65.7599C137.28 66.1099 136.57 62.7099 136.57 62.7099L134.84 59.9299Z" fill="#F9AE83"/>
<path d="M205.45 39.8601C206.063 38.6547 206.446 37.3457 206.58 36.0001C206.641 35.3265 206.517 34.6491 206.221 34.041C205.925 33.433 205.468 32.9174 204.9 32.5501C203.82 31.9801 202.48 32.2401 201.33 31.8301C200.632 31.5026 200.007 31.0382 199.491 30.4644C198.976 29.8907 198.581 29.2193 198.33 28.4901C197.7 27.0801 198.58 26.5701 197.51 25.4901C196.1 24.0401 195.18 23.8301 193.39 24.7201C191.2 23.4672 188.818 22.5853 186.34 22.1101C184.43 22.0501 182.25 22.2101 180.92 23.5801C179.92 24.6401 179.22 25.9901 177.92 26.7601C176.17 27.8201 173.92 26.9201 171.92 26.9901C171.714 26.9721 171.506 27.0088 171.318 27.0966C171.13 27.1844 170.969 27.3201 170.85 27.4901C170.809 27.659 170.801 27.8346 170.829 28.0063C170.856 28.1781 170.918 28.3426 171.01 28.4901C171.54 29.5801 172.06 30.6801 172.59 31.7801C172.16 31.9762 171.69 32.0718 171.217 32.0597C170.744 32.0475 170.28 31.928 169.86 31.7101C169.957 33.8804 170.813 35.9476 172.28 37.5501C172.182 37.5024 172.074 37.4755 171.965 37.4709C171.855 37.4664 171.746 37.4844 171.644 37.5237C171.542 37.5631 171.449 37.623 171.371 37.6998C171.293 37.7766 171.231 37.8686 171.19 37.9701C171.045 38.3913 171.045 38.8489 171.19 39.2701C171.547 40.592 172.185 41.8217 173.058 42.876C173.932 43.9303 175.022 44.7846 176.255 45.381C177.488 45.9774 178.834 46.302 180.203 46.3329C181.572 46.3639 182.932 46.1003 184.19 45.5601L195.44 46.4101C195.595 46.8442 195.852 47.2346 196.189 47.548C196.527 47.8614 196.936 48.0885 197.38 48.2101C198.64 47.2801 198.84 46.7601 198.84 46.7601C199.62 47.3301 199.01 47.0401 199.62 47.3301C199.975 47.491 200.361 47.5749 200.751 47.5761C201.141 47.5773 201.526 47.4958 201.883 47.3371C202.239 47.1784 202.557 46.946 202.817 46.6552C203.077 46.3644 203.272 46.0218 203.39 45.6501C203.494 45.0331 203.776 44.4597 204.2 44.0001C204.693 43.6084 205.247 43.301 205.84 43.0901C206.738 42.6301 207.462 41.8892 207.9 40.9801C207.436 40.9738 206.979 40.8709 206.557 40.6781C206.135 40.4852 205.758 40.2067 205.45 39.8601Z" fill="#1D394F"/>
<path d="M197.49 34.9999L197.78 58.2199C197.83 62.2199 197.09 67.9899 190.85 67.7799C185.44 67.1899 184 62.0699 183.96 58.3899C183.96 56.6399 183.96 55.1799 183.91 54.9999C183.91 54.9999 177.99 54.5199 177.49 48.6699C177.25 45.8399 177.22 39.9799 177.26 34.6699C177.298 31.933 178.36 29.3097 180.237 27.3177C182.114 25.3257 184.67 24.1098 187.4 23.9099H187.97C194.08 23.7799 197.57 28.9199 197.49 34.9999Z" fill="#F9AE83"/>
<path d="M183.91 54.9999C186.611 54.7968 189.197 53.8214 191.36 52.1899C191.36 52.1899 189.82 56.5999 183.94 56.4999L183.91 54.9999Z" fill="#F58A69"/>
<path d="M187.26 37.1201C187.38 37.2401 188.05 36.6901 189.03 36.6701C190.01 36.6501 190.74 37.1201 190.85 37.0001C190.96 36.8801 190.78 36.7201 190.46 36.5001C190.029 36.2118 189.518 36.0682 189 36.0901C188.487 36.1008 187.991 36.28 187.59 36.6001C187.3 36.8401 187.2 37.0701 187.26 37.1201Z" fill="#1D394F"/>
<path d="M187.08 39.3001C187.095 39.5052 187.189 39.6965 187.342 39.8343C187.494 39.9721 187.694 40.0458 187.9 40.0401C188.001 40.0401 188.101 40.0202 188.195 39.9815C188.288 39.9428 188.373 39.8861 188.444 39.8146C188.516 39.7431 188.573 39.6582 188.611 39.5648C188.65 39.4714 188.67 39.3712 188.67 39.2701C188.655 39.0641 188.561 38.8717 188.409 38.7323C188.256 38.5929 188.056 38.517 187.85 38.5201C187.748 38.5201 187.647 38.5403 187.553 38.5797C187.459 38.619 187.373 38.6766 187.302 38.7492C187.23 38.8217 187.174 38.9078 187.136 39.0024C187.098 39.097 187.079 39.1982 187.08 39.3001Z" fill="#1D394F"/>
<path d="M184.81 43.9299C184.324 43.8225 183.828 43.7721 183.33 43.7799C183.1 43.7799 182.87 43.7799 182.82 43.5899C182.79 43.3509 182.828 43.1082 182.93 42.8899C183.1 42.3199 183.29 41.7199 183.48 41.0999C184 39.5703 184.397 38.0021 184.67 36.4099C184.03 37.8966 183.509 39.4313 183.11 40.9999C182.92 41.6299 182.75 42.2299 182.58 42.7999C182.462 43.0892 182.445 43.4095 182.53 43.7099C182.568 43.7894 182.624 43.8588 182.693 43.9127C182.763 43.9665 182.844 44.0033 182.93 44.0199C183.063 44.0387 183.197 44.0387 183.33 44.0199C183.825 44.0512 184.322 44.021 184.81 43.9299Z" fill="#C97355"/>
<path d="M187.68 33.4401C187.77 33.6501 188.56 33.4901 189.5 33.5401C190.44 33.5901 191.21 33.7901 191.32 33.5401C191.43 33.2901 191.22 33.2401 190.9 33.0501C190.477 32.814 190.004 32.6804 189.52 32.6601C189.041 32.6361 188.563 32.7324 188.13 32.9401C187.8 33.1401 187.64 33.3301 187.68 33.4401Z" fill="#1D394F"/>
<path d="M178.37 35.25C178.48 35.43 179.24 35.25 180.17 35.25C181.1 35.25 181.86 35.34 181.96 35.16C182.06 34.98 181.85 34.91 181.53 34.77C181.095 34.5964 180.628 34.518 180.16 34.54C179.688 34.5556 179.224 34.6715 178.8 34.88C178.48 35 178.33 35.17 178.37 35.25Z" fill="#1D394F"/>
<path d="M197.33 39.41C197.43 39.41 201.26 37.92 201.43 41.93C201.6 45.94 197.53 45.28 197.52 45.17C197.51 45.06 197.33 39.41 197.33 39.41Z" fill="#F9AE83"/>
<path d="M198.68 43.6001C198.68 43.6001 198.76 43.6001 198.88 43.6901C198.962 43.7248 199.051 43.7426 199.14 43.7426C199.229 43.7426 199.318 43.7248 199.4 43.6901C199.653 43.5167 199.855 43.2787 199.985 43.0009C200.115 42.7231 200.169 42.4155 200.14 42.1101C200.134 41.7632 200.052 41.4219 199.9 41.1101C199.857 40.9856 199.784 40.8734 199.689 40.7829C199.593 40.6923 199.477 40.6262 199.35 40.5901C199.269 40.5722 199.185 40.5835 199.112 40.6219C199.038 40.6604 198.981 40.7235 198.95 40.8001C198.95 40.9101 198.95 40.9901 198.95 41.0001C198.95 41.0101 198.86 40.9401 198.88 40.7701C198.902 40.6701 198.955 40.5794 199.03 40.5101C199.136 40.4222 199.273 40.3791 199.41 40.3901C199.577 40.4176 199.734 40.487 199.867 40.592C200 40.6969 200.104 40.8339 200.17 40.9901C200.353 41.3285 200.452 41.7056 200.46 42.0901C200.492 42.4471 200.419 42.8057 200.251 43.1219C200.082 43.4381 199.824 43.6982 199.51 43.8701C199.402 43.9047 199.288 43.9154 199.176 43.9016C199.064 43.8878 198.956 43.8498 198.86 43.7901C198.7 43.6901 198.67 43.6101 198.68 43.6001Z" fill="#C97355"/>
<path d="M185.75 46.7099C185.75 46.6099 186.49 46.3699 187.05 45.6399C187.272 45.3293 187.456 44.9936 187.6 44.6399C187.72 44.3499 187.81 44.1599 187.85 44.1799C187.89 44.1999 187.85 44.3899 187.85 44.6999C187.764 45.1263 187.587 45.5289 187.33 45.8799C187.07 46.2225 186.726 46.4914 186.33 46.6599C186 46.7399 185.76 46.7399 185.75 46.7099Z" fill="#C97355"/>
<path d="M202.66 32.91C201.971 31.4186 201.474 29.8461 201.18 28.23C200.72 26.66 199.84 25.02 198.29 24.47C197.609 24.1579 196.857 24.0306 196.111 24.1008C195.365 24.171 194.651 24.4363 194.04 24.87C193.832 23.8363 193.331 22.8842 192.597 22.1271C191.863 21.3701 190.927 20.84 189.9 20.6C187.476 20.1324 184.971 20.3293 182.65 21.17C180.838 22.0648 179.226 23.3166 177.91 24.85C177.179 25.6228 176.51 26.452 175.91 27.33L174.14 32.79C173.949 32.9307 173.781 33.0992 173.64 33.29C173.549 33.3885 173.479 33.5038 173.433 33.6295C173.387 33.7552 173.366 33.8887 173.372 34.0224C173.383 34.2925 173.501 34.547 173.7 34.73C173.899 34.913 174.162 35.0095 174.432 34.9982C174.702 34.987 174.957 34.8689 175.14 34.67C175.309 34.9718 175.463 35.2822 175.6 35.6V35.66C175.69 35.85 175.79 36.05 175.9 36.24L177.27 42.24C177.36 40.59 177.27 34.86 177.32 33.24C178.556 33.2067 179.773 32.9238 180.896 32.4082C182.02 31.8927 183.028 31.1551 183.86 30.24C184.76 29.24 185.47 28 186.67 27.41C188.22 26.64 190.07 27.2 191.67 27.76L191.6 27.7C192.454 28.0932 193.221 28.6505 193.86 29.34C193.494 32.5944 193.836 35.8894 194.86 39C195.01 39.46 195.43 40.42 195.86 40.6C196.76 40.95 197 40.03 197.54 39.55C198.019 39.2198 198.602 39.0741 199.18 39.14C199.629 37.7766 199.997 36.3874 200.28 34.98C200.826 35.1509 201.406 35.1886 201.97 35.09C201.79 34.68 201.62 34.27 201.45 33.85C201.663 34.0118 201.909 34.1245 202.17 34.18C202.3 34.2055 202.435 34.1904 202.557 34.1368C202.679 34.0831 202.781 33.9935 202.85 33.88C203.05 33.56 202.84 33.21 202.66 32.91Z" fill="#1D394F"/>
<path d="M178.33 37.4901C178.45 37.6101 179.12 37.0601 180.1 37.0401C181.08 37.0201 181.81 37.4901 181.92 37.3601C182.03 37.2301 181.84 37.0901 181.53 36.8701C181.1 36.5783 180.589 36.4312 180.07 36.4501C179.557 36.4687 179.062 36.6509 178.66 36.9701C178.37 37.2101 178.27 37.4301 178.33 37.4901Z" fill="#1D394F"/>
<path d="M178.88 39.43C178.895 39.6351 178.989 39.8264 179.142 39.9642C179.294 40.102 179.494 40.1757 179.7 40.17C179.801 40.1713 179.902 40.1523 179.996 40.1141C180.09 40.0759 180.176 40.0192 180.247 39.9474C180.319 39.8757 180.376 39.7903 180.414 39.6962C180.452 39.6022 180.471 39.5015 180.47 39.4C180.455 39.1949 180.361 39.0036 180.208 38.8658C180.055 38.728 179.856 38.6543 179.65 38.66C179.548 38.6586 179.448 38.6776 179.354 38.7159C179.26 38.7541 179.174 38.8107 179.102 38.8825C179.031 38.9543 178.974 39.0397 178.936 39.1337C178.898 39.2278 178.879 39.3285 178.88 39.43Z" fill="#1D394F"/>
<path d="M174.44 61.1501L153.29 75.0001L140.4 64.9401L136.4 71.3001C136.4 71.3001 143.91 79.9901 146.69 82.9401C149.47 85.8901 151.32 87.4601 153.51 87.1801C155.7 86.9001 174 79.7801 174 79.7801L176.78 60.3601L175.62 60.6401C175.201 60.7433 174.802 60.9157 174.44 61.1501Z" fill="#FFBC4F"/>
<path d="M198.05 56.4199C193.32 59.4199 188.55 60.5199 183.72 58.5899L176.46 60.4399L172.93 66.5799C172.373 67.5462 172.118 68.6575 172.2 69.7699L173.59 93.2599L169.31 108.18L211.21 108.55L209.14 97.4599L204 57.6199L198.05 56.4199Z" fill="#FFBC4F"/>
<path d="M204.46 75.5L203.15 57.5C203.15 57.5 213.01 58.41 216.27 65.37C219.02 71.23 227.27 88.28 228.09 90.69C230.47 97.77 226.09 108.1 210.73 107.54L209 97.92L204.46 75.5Z" fill="#FFBC4F"/>
<path d="M212.33 90.47C212.395 90.7126 212.479 90.9499 212.58 91.18C212.75 91.61 213 92.18 213.29 92.84L214.03 94.49C214.123 94.7194 214.23 94.9432 214.35 95.16C214.295 94.9189 214.214 94.6842 214.11 94.46C213.94 94.03 213.69 93.46 213.4 92.79L212.66 91.15C212.567 90.9153 212.457 90.688 212.33 90.47Z" fill="#BF7811"/>
<path d="M206.88 76.32C206.88 76.32 206.94 75.18 206.94 73.77C206.94 72.36 206.94 71.22 206.88 71.22C206.82 71.22 206.82 72.36 206.82 73.77C206.82 75.18 206.85 76.32 206.88 76.32Z" fill="#BF7811"/>
<path d="M208.33 68.66C208.371 68.5671 208.401 68.4698 208.42 68.37C208.47 68.19 208.55 67.92 208.65 67.6C208.934 66.7581 209.302 65.9472 209.75 65.18C210.201 64.4171 210.731 63.7032 211.33 63.05C211.56 62.8 211.76 62.6 211.9 62.47L212.1 62.25C212.1 62.25 212.01 62.31 211.86 62.43C211.71 62.55 211.51 62.74 211.27 62.99C210.648 63.6338 210.104 64.3488 209.65 65.12C209.198 65.8964 208.836 66.7217 208.57 67.58C208.48 67.9 208.41 68.17 208.37 68.36C208.347 68.4585 208.334 68.559 208.33 68.66Z" fill="#BF7811"/>
<path d="M173.54 67.55C173.585 67.7399 173.602 67.9353 173.59 68.13C173.59 68.51 173.59 69.06 173.59 69.74C173.59 71.1 173.44 72.97 173.27 75.02C173.1 77.07 173.03 78.95 173.06 80.3C173.06 80.97 173.06 81.52 173.13 81.89C173.148 82.0863 173.148 82.2838 173.13 82.48C173.065 82.2932 173.028 82.0978 173.02 81.9C172.96 81.53 172.91 80.98 172.87 80.3C172.801 78.5324 172.844 76.7622 173 75C173.17 72.94 173.34 71.08 173.4 69.73C173.4 69.06 173.45 68.51 173.46 68.13C173.463 67.9342 173.49 67.7395 173.54 67.55Z" fill="#BF7811"/>
<path d="M218.62 93.78C218.405 93.9269 218.178 94.0541 217.94 94.16C217.5 94.39 216.88 94.74 216.11 95.16C215.34 95.58 214.45 96.16 213.4 96.72C212.87 96.99 212.31 97.26 211.72 97.52L209.89 98.28L209.33 98.51L209.4 98.37C209.81 100.92 210.15 103.2 210.4 104.85L210.67 106.79C210.716 107.027 210.74 107.268 210.74 107.51C210.667 107.282 210.613 107.048 210.58 106.81C210.49 106.31 210.38 105.66 210.24 104.87C209.95 103.23 209.58 100.96 209.17 98.41V98.32H209.26L209.83 98.09L211.66 97.34C212.25 97.08 212.8 96.82 213.32 96.56C214.37 96.03 215.32 95.48 216.06 95.05C216.8 94.62 217.48 94.28 217.93 94.05L218.46 93.83C218.55 93.8 218.61 93.77 218.62 93.78Z" fill="#BF7811"/>
<path d="M220.85 90.7C220.85 90.7 220.35 90.84 219.59 91.12C218.592 91.5009 217.66 92.0375 216.83 92.71C216.011 93.3914 215.308 94.202 214.75 95.11C214.32 95.81 214.13 96.29 214.09 96.27C214.108 96.1495 214.142 96.0319 214.19 95.92C214.299 95.6113 214.436 95.3134 214.6 95.03C215.672 93.1094 217.435 91.6685 219.53 91C219.856 90.8925 220.19 90.8155 220.53 90.77C220.72 90.69 220.85 90.68 220.85 90.7Z" fill="#BF7811"/>
<path d="M204.89 108.35L215.19 83.5201C215.319 83.3017 215.385 83.0519 215.381 82.7982C215.376 82.5446 215.301 82.2973 215.164 82.0837C215.027 81.8701 214.834 81.6988 214.605 81.5886C214.377 81.4785 214.122 81.434 213.87 81.4601H211.8C211.624 81.4809 211.446 81.4665 211.277 81.4176C211.107 81.3688 210.948 81.2866 210.81 81.1758C210.672 81.065 210.558 80.9278 210.474 80.7723C210.39 80.6168 210.337 80.4461 210.32 80.2701L210.25 79.3601C210.234 79.1845 210.183 79.014 210.1 78.8585C210.017 78.7031 209.903 78.5658 209.766 78.4549C209.629 78.344 209.471 78.2617 209.302 78.2127C209.133 78.1638 208.955 78.1493 208.78 78.1701H198.94C198.082 78.2071 197.269 78.5638 196.66 79.1701L195.86 79.9501C195.249 80.5532 194.437 80.9093 193.58 80.9501H181.05C180.411 80.9856 179.793 81.1953 179.264 81.5567C178.735 81.918 178.316 82.4172 178.05 83.0001L167.85 108.34L204.89 108.35Z" fill="#FF725E"/>
<path d="M204.89 108.35L215.19 83.5201C215.319 83.3017 215.385 83.0519 215.381 82.7982C215.376 82.5446 215.301 82.2973 215.164 82.0837C215.027 81.8701 214.834 81.6988 214.605 81.5886C214.377 81.4785 214.122 81.434 213.87 81.4601H211.8C211.624 81.4809 211.446 81.4665 211.277 81.4176C211.107 81.3688 210.948 81.2866 210.81 81.1758C210.672 81.065 210.558 80.9278 210.474 80.7723C210.39 80.6168 210.337 80.4461 210.32 80.2701L210.25 79.3601C210.234 79.1845 210.183 79.014 210.1 78.8585C210.017 78.7031 209.903 78.5658 209.766 78.4549C209.629 78.344 209.471 78.2617 209.302 78.2127C209.133 78.1638 208.955 78.1493 208.78 78.1701H198.94C198.082 78.2071 197.269 78.5638 196.66 79.1701L195.86 79.9501C195.249 80.5532 194.437 80.9093 193.58 80.9501H181.05C180.411 80.9856 179.793 81.1953 179.264 81.5567C178.735 81.918 178.316 82.4172 178.05 83.0001L167.85 108.34L204.89 108.35Z" fill="#E23B5B"/>
<path d="M206.59 99.9199L210.48 84.9199C210.553 84.7025 210.577 84.4712 210.548 84.2435C210.519 84.0158 210.439 83.7975 210.314 83.6051C210.189 83.4126 210.022 83.251 209.826 83.1324C209.629 83.0137 209.409 82.9411 209.18 82.9199H178.75C178.44 82.9329 178.143 83.0508 177.909 83.2542C177.675 83.4577 177.516 83.7347 177.46 84.0399L171.8 106.63C171.56 107.63 171.95 108.22 172.8 108.2H203.42C203.727 108.187 204.021 108.07 204.254 107.869C204.486 107.667 204.644 107.392 204.7 107.09L206.59 99.9199Z" fill="#E0E0E0"/>
<path d="M204.49 107.67L206.14 84C206.154 83.8021 206.127 83.6036 206.06 83.4167C205.994 83.2297 205.891 83.0583 205.756 82.913C205.621 82.7678 205.457 82.6517 205.276 82.5721C205.094 82.4924 204.898 82.4508 204.7 82.45H173.17V107.64L204.49 107.67Z" fill="#ECECEC"/>
<path d="M204.84 108.21L201.09 83.8401C201.002 83.453 200.784 83.1076 200.473 82.8604C200.163 82.6133 199.777 82.4792 199.38 82.4801H167.48C167.192 82.4769 166.908 82.5455 166.654 82.6798C166.399 82.814 166.182 83.0097 166.022 83.249C165.862 83.4883 165.765 83.7637 165.738 84.0502C165.712 84.3368 165.757 84.6255 165.87 84.8901L172.76 107.19L204.84 108.21Z" fill="#FAFAFA"/>
<path d="M204.89 108.34L197.16 85.5199C197.01 85.0631 196.722 84.6644 196.334 84.3793C195.947 84.0943 195.481 83.9372 195 83.9299H162.12C161.869 83.9383 161.623 84.0055 161.402 84.1261C161.181 84.2467 160.991 84.4174 160.848 84.6246C160.705 84.8317 160.613 85.0694 160.579 85.3187C160.544 85.5679 160.569 85.8218 160.65 86.0599L167.85 108.35L204.89 108.34Z" fill="#FF4964"/>
<g opacity="0.3">
<path opacity="0.3" d="M189 104.52L190.82 104.62C193.562 104.8 196.307 104.313 198.82 103.2C199.223 103.069 199.593 102.854 199.907 102.57C200.22 102.285 200.47 101.938 200.64 101.55C200.711 101.08 200.651 100.599 200.466 100.161C200.28 99.7236 199.977 99.3458 199.59 99.07C198.807 98.5364 198.065 97.9447 197.37 97.3C197.031 96.9681 196.816 96.5297 196.761 96.0581C196.706 95.5866 196.815 95.1106 197.07 94.71L197.24 94.84C197.68 95.96 198.92 96.51 199.95 97.15C201.864 98.3696 203.282 100.231 203.95 102.4C204.179 102.976 204.276 103.595 204.233 104.214C204.19 104.832 204.007 105.432 203.7 105.97C203.133 106.647 202.378 107.141 201.53 107.39C199.01 108.185 196.369 108.524 193.73 108.39H190.32C189.51 108.17 189.25 107.75 188.76 107.06C188.525 106.666 188.422 106.207 188.465 105.751C188.508 105.294 188.695 104.863 189 104.52Z" fill="black"/>
</g>
<path d="M189 104.52L197.58 103.23L200.91 101.32C201.127 101.197 201.311 101.023 201.443 100.811C201.576 100.6 201.654 100.359 201.67 100.11C201.678 99.8002 201.592 99.4954 201.422 99.2363C201.252 98.9771 201.007 98.776 200.72 98.66C199.67 98.21 197.99 97.66 197.28 96.37C196.28 94.57 197.28 94.2 197.28 94.2L204.44 97L209.51 100.45L210.51 106.21L203.44 108.52C203.44 108.52 195.56 108.96 193.38 108.72C191.2 108.48 191.21 107.46 191.21 107.46C190.903 107.336 190.632 107.137 190.421 106.882C190.21 106.628 190.065 106.324 190 106C188.94 105 189 104.54 189 104.54" fill="#F9AE83"/>
<path d="M200 107C199.881 107.006 199.764 107.026 199.65 107.06C199.43 107.12 199.1 107.19 198.65 107.27C197.594 107.478 196.525 107.605 195.45 107.65C194.378 107.691 193.305 107.648 192.24 107.52C191.84 107.52 191.5 107.43 191.24 107.39C191.12 107.374 190.999 107.374 190.88 107.39C190.993 107.432 191.11 107.462 191.23 107.48C191.56 107.559 191.893 107.619 192.23 107.66C193.298 107.823 194.38 107.883 195.46 107.84C196.541 107.797 197.616 107.653 198.67 107.41C199.07 107.32 199.39 107.23 199.61 107.16C199.746 107.124 199.877 107.07 200 107Z" fill="#EB996E"/>
<path d="M199.18 105.67C199.058 105.684 198.938 105.707 198.82 105.74L197.82 105.95C196.751 106.151 195.667 106.268 194.58 106.3C193.491 106.336 192.401 106.286 191.32 106.15L190.32 106.02C190.2 106.004 190.079 106.004 189.96 106.02C190.073 106.063 190.19 106.094 190.31 106.11C190.54 106.17 190.87 106.23 191.31 106.3C192.392 106.457 193.487 106.52 194.58 106.49C195.676 106.455 196.768 106.321 197.84 106.09C198.25 105.99 198.58 105.91 198.84 105.83C198.958 105.787 199.072 105.734 199.18 105.67Z" fill="#EB996E"/>
<path d="M57.87 61.66C57.5637 60.302 56.7475 59.1135 55.59 58.34C55.03 58.01 54.39 57.83 53.82 57.52C53.1529 57.0952 52.5118 56.631 51.9 56.13C51.1019 55.5853 50.197 55.2167 49.2455 55.0486C48.2939 54.8806 47.3175 54.9169 46.3811 55.1553C45.4447 55.3936 44.5698 55.8285 43.8144 56.4311C43.059 57.0336 42.4405 57.79 42 58.65C40.66 57.65 38.34 58.06 36.76 58.65C35.9364 59.0389 35.2121 59.6102 34.6421 60.3205C34.072 61.0309 33.6712 61.8617 33.47 62.75L40.85 65C42.2977 66.6608 44.011 68.07 45.92 69.17C47.8453 70.2748 50.0763 70.7273 52.28 70.46C53.3738 70.3146 54.4177 69.9127 55.3266 69.2871C56.2355 68.6615 56.9836 67.8298 57.51 66.86C58.2621 65.2291 58.3902 63.379 57.87 61.66Z" fill="#1D394F"/>
<path d="M63.1401 86.24C64.0584 85.5419 64.6691 84.5138 64.8427 83.3733C65.0162 82.2329 64.7392 81.0697 64.0701 80.13C63.6601 79.59 63.0701 79.13 62.9901 78.42C62.9705 77.9957 63.0316 77.5715 63.1701 77.17C63.4832 75.7995 63.3961 74.3679 62.9192 73.0454C62.4424 71.723 61.5958 70.5653 60.4801 69.71C60.4801 68.19 59.5801 64.97 57.6501 63.71L48.8801 65C49.2801 74.24 49.2534 83.4866 48.8001 92.74C48.5837 94.1507 48.8109 95.5938 49.4501 96.87C50.5501 98.55 52.8401 98.87 54.8501 98.95C56.775 99.0747 58.7065 98.8476 60.5501 98.28C61.4707 97.9947 62.3225 97.5223 63.0521 96.8925C63.7817 96.2627 64.3734 95.4891 64.7901 94.62C66.0001 91.88 64.7501 88.72 63.1401 86.24Z" fill="#1D394F"/>
<path d="M36.3801 67.5401L36.1101 65.5401L47.6901 62.0001C51.3001 61.2001 55.6901 64.4001 56.3201 68.0001C57.1315 71.9806 57.5701 76.0281 57.6301 80.0901C57.3701 86.3101 52.7801 87.6301 52.7801 87.6301L53.2501 91.3101C53.474 93.1022 52.9789 94.9101 51.8732 96.3381C50.7675 97.7661 49.1412 98.6981 47.3501 98.9301C45.5632 99.157 43.7592 98.6667 42.3329 97.5666C40.9067 96.4664 39.9744 94.846 39.7401 93.0601L36.3801 67.5401Z" fill="#FFBE9D"/>
<path d="M55.52 72.5701C55.5459 72.7738 55.4915 72.9795 55.3683 73.1438C55.2451 73.3081 55.0628 73.4179 54.86 73.4501C54.7606 73.4702 54.6582 73.47 54.5589 73.4494C54.4597 73.4288 54.3656 73.3883 54.2824 73.3304C54.1992 73.2724 54.1286 73.1982 54.0749 73.1122C54.0212 73.0262 53.9855 72.9303 53.97 72.8301C53.9468 72.628 54.0025 72.4247 54.1255 72.2627C54.2484 72.1006 54.4291 71.9922 54.63 71.9601C54.7286 71.9399 54.8303 71.9397 54.929 71.9597C55.0277 71.9796 55.1214 72.0193 55.2044 72.0762C55.2875 72.1331 55.3582 72.2062 55.4124 72.291C55.4667 72.3759 55.5032 72.4708 55.52 72.5701Z" fill="#1D394F"/>
<path d="M55.3199 70.7401C55.2399 70.8501 54.5899 70.4801 53.7499 70.5801C52.9099 70.6801 52.3399 71.1701 52.2399 71.0801C52.1399 70.9901 52.2399 70.8501 52.5099 70.6201C52.844 70.3193 53.2643 70.1313 53.7113 70.0828C54.1582 70.0343 54.6091 70.1279 54.9999 70.3501C55.2599 70.5201 55.3699 70.6901 55.3199 70.7401Z" fill="#1D394F"/>
<path d="M47.6599 73.6399C47.6831 73.8446 47.6263 74.0504 47.5015 74.2143C47.3767 74.3783 47.1934 74.4877 46.9899 74.5199C46.8907 74.5386 46.7887 74.5373 46.69 74.5161C46.5912 74.495 46.4977 74.4544 46.4149 74.3966C46.332 74.3389 46.2615 74.2652 46.2074 74.18C46.1533 74.0947 46.1168 73.9995 46.0999 73.8999C46.077 73.6963 46.1341 73.4918 46.2591 73.3295C46.3841 73.1671 46.5672 73.0597 46.7699 73.0299C46.8686 73.0097 46.9703 73.0096 47.069 73.0295C47.1677 73.0495 47.2613 73.0891 47.3444 73.146C47.4275 73.2029 47.4982 73.276 47.5524 73.3609C47.6066 73.4457 47.6432 73.5406 47.6599 73.6399Z" fill="#1D394F"/>
<path d="M47.06 71.8501C46.97 71.9601 46.33 71.5901 45.49 71.6901C44.65 71.7901 44.08 72.2801 43.97 72.1901C43.86 72.1001 43.97 71.9601 44.25 71.7301C44.5809 71.4345 44.9958 71.2496 45.4368 71.2012C45.8778 71.1528 46.323 71.2433 46.71 71.4601C47 71.6301 47.1 71.8001 47.06 71.8501Z" fill="#1D394F"/>
<path d="M50.8399 77.75C51.2669 77.5559 51.7174 77.4181 52.1799 77.34C52.3899 77.34 52.5899 77.23 52.6099 77.08C52.5979 76.8565 52.5215 76.6411 52.3899 76.46L51.5599 74.89C50.81 73.5706 50.1679 72.1928 49.6399 70.77C50.4951 72.0414 51.2475 73.379 51.8899 74.77L52.6899 76.35C52.8554 76.5933 52.9298 76.8873 52.8999 77.18C52.8789 77.2599 52.8388 77.3335 52.7831 77.3945C52.7273 77.4554 52.6576 77.502 52.5799 77.53C52.4649 77.5793 52.3438 77.6129 52.2199 77.63C51.7667 77.7274 51.3031 77.7677 50.8399 77.75Z" fill="#C97355"/>
<path d="M52.7699 87.6399C49.8349 88.0246 46.8506 87.5992 44.1399 86.4099C44.1399 86.4099 46.6899 90.4099 52.9499 89.1599L52.7699 87.6399Z" fill="#EB996E"/>
<path d="M50.71 79.82C50.5272 79.6372 50.3011 79.5038 50.0528 79.4321C49.8044 79.3604 49.542 79.3528 49.29 79.41C49.105 79.4483 48.9298 79.524 48.7751 79.6323C48.6203 79.7406 48.4893 79.8793 48.39 80.04C48.2871 80.1864 48.2319 80.361 48.2319 80.54C48.2319 80.7189 48.2871 80.8935 48.39 81.04C48.5406 81.1771 48.7296 81.2649 48.9315 81.2917C49.1334 81.3185 49.3388 81.283 49.52 81.19C49.9023 81.0041 50.2426 80.7421 50.52 80.42C50.6037 80.3416 50.6746 80.2504 50.73 80.15C50.7591 80.1017 50.7744 80.0463 50.7744 79.99C50.7744 79.9336 50.7591 79.8783 50.73 79.83" fill="#EB996E"/>
<path d="M48.4201 78.6201C48.5601 78.6201 48.6701 79.5101 49.5201 80.0701C50.3701 80.6301 51.3401 80.4101 51.3701 80.5401C51.4001 80.6701 51.1701 80.7401 50.7601 80.8001C50.226 80.8694 49.6845 80.7491 49.2301 80.4601C48.7929 80.1816 48.481 79.7442 48.3601 79.2401C48.2801 78.8601 48.3601 78.6201 48.4201 78.6201Z" fill="#C97355"/>
<path d="M46.9 68.5199C46.84 68.7599 45.99 68.7499 45.01 68.9799C44.03 69.2099 43.27 69.5799 43.11 69.3899C42.95 69.1999 43.11 69.0699 43.45 68.8099C43.8483 68.483 44.3174 68.2536 44.82 68.1399C45.3193 68.0178 45.8407 68.0178 46.34 68.1399C46.72 68.2499 46.92 68.4099 46.9 68.5199Z" fill="#1D394F"/>
<path d="M54.7301 68.34C54.6101 68.55 54.0001 68.42 53.3001 68.49C52.6001 68.56 52.0301 68.76 51.8701 68.58C51.7101 68.4 51.8701 68.29 52.1101 68.07C52.4294 67.8118 52.8204 67.6582 53.2301 67.63C53.6431 67.5878 54.059 67.6752 54.4201 67.88C54.6801 68.05 54.7901 68.24 54.7301 68.34Z" fill="#1D394F"/>
<path d="M37.6901 61.4099C36.4901 61.8099 35.1401 65.0799 35.4901 66.2999C35.6984 66.8969 36.0557 67.4307 36.5283 67.8507C37.0008 68.2708 37.5728 68.5631 38.1901 68.6999C39.4358 68.9558 40.7273 68.8729 41.9301 68.4599C43.6401 67.9399 45.4401 66.7599 45.5601 64.9799C46.4093 65.8079 47.4549 66.4065 48.5989 66.7196C49.7429 67.0327 50.9476 67.05 52.1001 66.7699C54.3901 66.1799 56.1001 62.6799 56.7301 60.3999L37.6901 61.4099Z" fill="#1D394F"/>
<path d="M102.52 85.05C102.655 84.9954 102.779 84.9142 102.882 84.8111C102.985 84.708 103.067 84.5852 103.122 84.4499C103.177 84.3147 103.204 84.1698 103.202 84.0238C103.2 83.8778 103.169 83.7337 103.11 83.6L99.3501 84.73C100.411 84.3039 101.418 83.7534 102.35 83.09C103.35 82.25 102.86 81.52 102.86 81.52L99.0001 83L96.8101 84.29L91.3201 92.67C91.3201 92.67 95.6101 94.77 96.3701 94.16C97.7101 93.1 98.4401 90.73 98.7301 89.52C99.655 89.2684 100.555 88.9337 101.42 88.52C101.761 88.2884 102.04 87.9757 102.23 87.61L99.2301 88.18C100.42 87.8427 101.568 87.3695 102.65 86.77C103.04 86.17 102.8 85.91 102.8 85.91L99.0401 86.49L99.4301 86.21C99.4301 86.21 101.54 85.42 102.52 85.05Z" fill="#FFBE9D"/>
<path d="M88.69 93.77L76.06 105.34C74.49 104.97 55.26 93.48 55.26 93.48L52.26 108.27C52.26 108.27 71.94 117.27 77.36 116.27C78.5886 116.21 79.7494 115.689 80.61 114.81C84.9 109.19 94.1 95.41 94.1 95.41L88.69 93.77Z" fill="#FFBE9D"/>
<path d="M97.27 93.1899L95 92.0899L96.64 89.0899L97.93 86.3599L99.93 82.6399L96.88 83.7999C96.521 83.9597 96.2056 84.2032 95.96 84.5099L90.96 91.4399L88.74 93.7099L90.89 99.4799L93.41 95.5499L94.89 95.1999C95.9 94.8393 96.7455 94.1254 97.27 93.1899Z" fill="#FFBE9D"/>
<path d="M93.6101 88.5001C94.6566 87.9698 95.7516 87.5411 96.8801 87.2201C97.2389 87.0928 97.6204 87.0417 98.0001 87.0701C98.1929 87.0866 98.3768 87.1587 98.5294 87.2776C98.6821 87.3965 98.7969 87.5572 98.8601 87.7401C98.894 87.9545 98.8625 88.1741 98.7697 88.3703C98.677 88.5665 98.5273 88.7302 98.3401 88.8401C97.9557 89.0482 97.5404 89.1934 97.1101 89.2701C96.6783 89.3507 96.281 89.5598 95.9701 89.8701C95.7521 90.2183 95.5933 90.6001 95.5001 91.0001C95.2634 91.6273 94.8728 92.1849 94.3644 92.6217C93.8559 93.0586 93.2458 93.3606 92.5901 93.5001" fill="#FFBE9D"/>
<path d="M92.5901 93.49C92.5901 93.49 92.7901 93.43 93.1401 93.29C93.6308 93.0957 94.0766 92.803 94.4501 92.43C94.7144 92.1816 94.9402 91.8951 95.1201 91.58C95.3161 91.2117 95.4704 90.8226 95.5801 90.42C95.6513 90.1869 95.7667 89.9696 95.9201 89.78C96.0934 89.5938 96.3049 89.4471 96.5401 89.35C97.0101 89.14 97.5401 89.09 97.9801 88.91C98.2029 88.8208 98.4016 88.6803 98.5601 88.5C98.7078 88.3357 98.7865 88.1209 98.7801 87.9C98.7446 87.6925 98.6367 87.5043 98.4756 87.3688C98.3145 87.2334 98.1106 87.1594 97.9001 87.16C97.4908 87.1581 97.0844 87.2292 96.7001 87.37C96.3201 87.48 95.9601 87.59 95.7001 87.7C95.0601 87.93 94.5501 88.13 94.2101 88.28C94.0323 88.3666 93.8485 88.4402 93.6601 88.5C93.8132 88.3737 93.9853 88.2725 94.1701 88.2C94.5101 88.03 95.0101 87.8 95.6401 87.56C95.9601 87.43 96.3101 87.31 96.6401 87.19C97.052 87.051 97.4855 86.9866 97.9201 87C98.1707 87.0086 98.4122 87.0961 98.6101 87.25C98.7227 87.3261 98.8164 87.4269 98.884 87.5448C98.9516 87.6626 98.9913 87.7944 99.0001 87.93C98.9872 88.2037 98.8913 88.467 98.7252 88.685C98.5591 88.9029 98.3306 89.0651 98.0701 89.15C97.5601 89.36 97.0701 89.4 96.6301 89.59C96.4205 89.6689 96.2322 89.7956 96.0801 89.96C95.944 90.1303 95.839 90.3232 95.7701 90.53C95.6538 90.9413 95.4894 91.3374 95.2801 91.71C95.086 92.0381 94.8432 92.3348 94.5601 92.59C94.1573 92.955 93.6843 93.234 93.1701 93.41C93.0293 93.456 92.8857 93.4928 92.7401 93.52L92.5901 93.49Z" fill="#EB996E"/>
<path d="M53.8301 135.1H27.9401C25.5379 138.183 23.413 141.473 21.5901 144.93L58.5001 145.08C59.2201 143.89 53.8301 135.1 53.8301 135.1Z" fill="#1D394F"/>
<path d="M61.4799 111.56C61.0992 105.128 59.8375 98.7789 57.7299 92.6901L53.2499 91.3101C52.5699 94.3101 47.7399 95.2501 44.9899 93.9601L42.0799 92.4401C32.7499 91.0401 33.2299 91.8101 31.0799 93.1101C29.2099 94.2301 29.3799 102.64 29.3799 102.64C29.3799 102.64 24.7299 124.55 24.9799 128.06C25.2299 131.57 27.9799 135.06 27.9799 135.06H53.8299C56.4299 135.06 57.1799 129.17 56.9999 127.06C56.8199 124.95 61.7699 115.37 61.4799 111.56Z" fill="#23B781"/>
<path d="M36.8999 118.86C37.0239 119.004 37.1689 119.129 37.3299 119.23C37.751 119.532 38.1997 119.793 38.6699 120.01C39.3704 120.337 40.115 120.559 40.8799 120.67C41.8191 120.808 42.7758 120.767 43.6999 120.55C45.3758 120.127 46.9 119.244 48.0999 118C48.4575 117.632 48.7915 117.241 49.0999 116.83C49.2221 116.685 49.3232 116.524 49.3999 116.35C49.3999 116.35 48.8899 116.97 47.9499 117.86C46.7466 119.031 45.2569 119.866 43.6299 120.28C41.9939 120.659 40.2793 120.501 38.7399 119.83C37.5599 119.33 36.9299 118.81 36.8999 118.86Z" fill="#263238"/>
<g opacity="0.3">
<path opacity="0.3" d="M49 116.94C48.8057 118.913 47.8431 120.731 46.32 122C45.5566 122.623 44.6571 123.057 43.6946 123.267C42.7321 123.477 41.7336 123.458 40.78 123.21C39.8364 122.942 38.9848 122.419 38.3181 121.7C37.6515 120.98 37.1955 120.091 37 119.13C38.3051 119.793 39.6946 120.274 41.13 120.56C42.6846 120.778 44.269 120.539 45.6898 119.871C47.1105 119.203 48.3059 118.136 49.13 116.8L48.92 117.02" fill="black"/>
</g>
<path d="M19.4299 111L32.4299 117.12C32.4299 117.12 37.7499 105.35 38.2099 103.74C38.6699 102.13 40.0999 99.5899 38.6299 96.2299C37.1599 92.8699 33.2199 91.6499 31.0299 93.0799C26.1899 96.2999 19.4299 111 19.4299 111Z" fill="#23B781"/>
<path d="M60.45 111.65C61.06 111.65 68.06 115.31 68.06 115.31L72.06 102.12C66.06 98.1199 61.23 93.6299 57.75 92.6899L59.58 103.59L60.45 111.65Z" fill="#23B781"/>
<path d="M19.43 111C19.5206 111.017 19.6082 111.047 19.69 111.09L20.41 111.4L23 112.6L31.66 116.6L32.72 117.08L32.56 117.14C34.06 114.04 35.38 111.26 36.32 109.26C36.77 108.26 37.1299 107.48 37.41 106.89C37.52 106.63 37.62 106.42 37.7 106.25C37.7289 106.171 37.7693 106.097 37.82 106.03C37.7973 106.111 37.7706 106.191 37.74 106.27C37.69 106.42 37.61 106.64 37.49 106.93C37.26 107.5 36.92 108.32 36.49 109.33C35.6 111.33 34.2999 114.14 32.7999 117.25V117.36H32.6899L31.6299 116.87L23 112.87L20.3999 111.63L19.69 111.28C19.51 111.08 19.42 111 19.43 111Z" fill="#263238"/>
<path d="M59.2501 100.82C59.3636 101.082 59.4539 101.353 59.5201 101.63C59.7001 102.19 59.9301 102.95 60.2101 103.86C61.046 106.299 61.5276 108.845 61.6401 111.42C61.5896 112.844 61.3543 114.256 60.9401 115.62C60.5801 116.88 60.1601 117.97 59.8001 118.89C59.4401 119.81 59.1301 120.54 58.9201 121.05C58.7101 121.56 58.5801 121.84 58.5701 121.83C58.5587 121.761 58.5587 121.69 58.5701 121.62L58.7801 121.02C58.9801 120.46 59.2601 119.72 59.5901 118.83C59.9201 117.94 60.3301 116.83 60.6701 115.56C61.0724 114.215 61.2976 112.823 61.3401 111.42C61.2326 108.868 60.7818 106.342 60.0001 103.91C59.7301 102.91 59.5201 102.19 59.3901 101.66C59.3201 101.39 59.2801 101.18 59.2501 101.04C59.241 100.967 59.241 100.893 59.2501 100.82Z" fill="#263238"/>
<path d="M48.2199 98.1901C47.962 96.2607 47.0557 94.4764 45.6499 93.1301C44.8646 92.5588 44.2856 91.7483 43.9999 90.8201C43.8299 89.5901 44.8899 88.4401 44.7199 87.2101C44.4999 85.6801 42.5799 85.0201 41.8999 83.6301C40.9799 81.7601 42.5799 79.3301 41.5899 77.5001C40.9999 76.4001 39.5899 75.8101 39.2899 74.5801C39.1099 73.7901 40.6099 72.6401 40.9599 70.9301C41.7499 67.0701 42.1499 64.0801 38.4099 61.8401L36.2199 58.8401C34.9396 59.4597 33.8445 60.4047 33.0442 61.5805C32.244 62.7563 31.7666 64.1218 31.6599 65.5401C31.6599 66.8701 32.3199 68.2101 31.7499 69.4001C30.9399 71.0701 29.0599 72.1001 28.4899 73.8701C27.6699 76.4001 29.9099 79.2301 28.9399 81.7001C28.3599 83.1501 26.8399 83.9801 25.9399 85.2201C25.2062 86.215 24.8375 87.4321 24.8958 88.6669C24.954 89.9017 25.4358 91.0787 26.2599 92.0001C25.0828 92.832 24.2004 94.0165 23.7403 95.3825C23.2802 96.7486 23.266 98.2255 23.6999 99.6001C23.8423 100.189 24.1522 100.725 24.5923 101.142C25.0324 101.559 25.5838 101.84 26.1799 101.95C27.9099 102.04 28.8899 100.09 30.1799 98.9501C31.1963 98.0634 32.5086 97.5909 33.8569 97.6261C35.2052 97.6613 36.4911 98.2016 37.4599 99.1401C38.7899 100.52 39.3199 102.59 40.8699 103.72C41.6801 104.251 42.6384 104.51 43.6057 104.46C44.573 104.409 45.4991 104.052 46.2499 103.44C46.981 102.792 47.5426 101.974 47.8859 101.059C48.2293 100.144 48.3439 99.1594 48.2199 98.1901Z" fill="#1D394F"/>
<path d="M31.19 116.32C28.72 120.38 27 122.71 27 122.71L49.16 136.21L46.58 142.21L17.84 130.37C17.84 130.37 15 127.46 16 124.21L20.59 111.56L31.19 116.32Z" fill="#FFBE9D"/>
<path d="M21.6101 124.77C22.4565 124.245 23.3425 123.787 24.2601 123.4C25.2111 123.096 26.184 122.866 27.1701 122.71C26.1498 122.597 25.1175 122.745 24.1701 123.14C23.1912 123.455 22.3097 124.016 21.6101 124.77Z" fill="#EB996E"/>
<path d="M66.35 140.32L60.82 137.67L50 136.82L49.12 136.21L46.54 142.21C47.904 142.886 49.3492 143.383 50.84 143.69L60 143.4L64.74 143.9L66.35 140.32Z" fill="#FFBE9D"/>
<path d="M97.44 119L66.35 119.25C65.877 119.203 65.4029 119.327 65.0126 119.598C64.6222 119.869 64.3413 120.271 64.22 120.73L60.83 143.39H44.83C44.5987 143.414 44.3845 143.523 44.2287 143.696C44.073 143.868 43.9868 144.093 43.9868 144.325C43.9868 144.558 44.073 144.782 44.2287 144.955C44.3845 145.127 44.5987 145.236 44.83 145.26H96L99.5 121.34C99.5511 121.045 99.5355 120.743 99.4543 120.455C99.3731 120.167 99.2283 119.901 99.0306 119.677C98.833 119.452 98.5874 119.275 98.3122 119.158C98.0369 119.04 97.7388 118.987 97.44 119Z" fill="#D8D8D8"/>
<path d="M80.5799 133.82C81.6568 133.82 82.5299 132.947 82.5299 131.87C82.5299 130.793 81.6568 129.92 80.5799 129.92C79.5029 129.92 78.6299 130.793 78.6299 131.87C78.6299 132.947 79.5029 133.82 80.5799 133.82Z" fill="white"/>
<path d="M62.0901 145.08C62.0901 145.08 63.0901 139.32 64.3001 132.19C65.5101 125.06 66.3901 119.29 66.3001 119.28C66.2101 119.27 65.3001 125.04 64.0901 132.17C62.8801 139.3 62.0001 145.07 62.0901 145.08Z" fill="#263238"/>
<path opacity="0.5" d="M183.64 171.84L189.32 172.05C189.332 172.057 189.346 172.061 189.36 172.061C189.374 172.061 189.388 172.057 189.4 172.05L191.79 169.39C191.806 169.375 191.817 169.356 191.822 169.335C191.827 169.314 191.825 169.292 191.818 169.272C191.81 169.252 191.797 169.234 191.78 169.221C191.762 169.208 191.742 169.201 191.72 169.2L186 169C185.974 168.99 185.946 168.99 185.92 169L183.53 171.66C183.514 171.678 183.504 171.7 183.502 171.723C183.5 171.747 183.505 171.771 183.518 171.791C183.53 171.811 183.549 171.827 183.571 171.836C183.593 171.845 183.617 171.846 183.64 171.84Z" fill="#179668"/>
<path d="M187.87 171.3C187.87 171.3 187.87 171.3 187.69 171.3L187.82 171.17L187.87 171.3Z" fill="#335860"/>
<path d="M187.86 168.31V171.2C187.86 171.219 187.856 171.238 187.849 171.255C187.841 171.272 187.829 171.288 187.815 171.3C187.801 171.312 187.784 171.321 187.766 171.327C187.748 171.332 187.729 171.333 187.71 171.33L185.71 171.12C185.692 171.118 185.674 171.112 185.658 171.102C185.642 171.093 185.628 171.08 185.616 171.065C185.605 171.05 185.597 171.033 185.593 171.015C185.588 170.997 185.587 170.979 185.59 170.96L186.16 168.11C186.167 168.077 186.187 168.049 186.215 168.03C186.243 168.011 186.277 168.004 186.31 168.01L187.77 168.17C187.798 168.181 187.822 168.2 187.838 168.225C187.854 168.25 187.862 168.28 187.86 168.31Z" fill="#517D84"/>
<path d="M187.87 171.3L188.79 170.53C188.811 170.505 188.823 170.473 188.823 170.44C188.823 170.407 188.811 170.375 188.79 170.35L188.57 170.1L187.81 170.71V171.28L187.87 171.3Z" fill="#335860"/>
<path d="M188.59 170.1L187.84 170.02L187.83 170.71L188.59 170.1Z" fill="#27454C"/>
<path d="M187.83 169.3L185.93 169.12L185.81 169.69L187.84 169.92L187.83 169.3Z" fill="#335860"/>
<path d="M183.12 168.79L183.19 168.84L185.77 166.1C185.796 166.09 185.824 166.09 185.85 166.1L192.12 166.18H192.19V166.51C192.198 166.533 192.198 166.557 192.19 166.58L189.56 169.51C189.546 169.517 189.531 169.521 189.515 169.521C189.499 169.521 189.484 169.517 189.47 169.51L183.21 169.28C183.18 169.278 183.152 169.264 183.132 169.242C183.111 169.219 183.1 169.19 183.1 169.16L183.12 168.79Z" fill="#38606B"/>
<path d="M183.23 168.93L189.49 169.17C189.516 169.18 189.544 169.18 189.57 169.17L192.2 166.24C192.218 166.224 192.231 166.204 192.237 166.181C192.243 166.158 192.242 166.134 192.235 166.112C192.228 166.089 192.214 166.07 192.195 166.055C192.176 166.04 192.154 166.032 192.13 166.03L185.87 165.79C185.844 165.78 185.816 165.78 185.79 165.79L183.16 168.72C183.142 168.736 183.13 168.756 183.123 168.779C183.117 168.802 183.118 168.826 183.125 168.848C183.133 168.871 183.147 168.89 183.165 168.905C183.184 168.92 183.207 168.928 183.23 168.93Z" fill="#F2FAFC"/>
<path d="M187.81 167.33L190.65 167.43C190.675 167.431 190.7 167.426 190.722 167.415C190.745 167.405 190.765 167.389 190.78 167.37L191.65 166.37C191.663 166.359 191.672 166.344 191.676 166.327C191.679 166.311 191.678 166.294 191.671 166.278C191.664 166.263 191.653 166.249 191.638 166.241C191.624 166.232 191.607 166.228 191.59 166.23L188.51 166.11C188.485 166.109 188.461 166.114 188.438 166.125C188.415 166.135 188.396 166.151 188.38 166.17L187.69 167.05C187.669 167.074 187.656 167.103 187.651 167.135C187.647 167.166 187.651 167.198 187.663 167.227C187.676 167.256 187.696 167.281 187.722 167.299C187.748 167.318 187.778 167.328 187.81 167.33Z" fill="#66D7F2"/>
<path d="M186.61 168.48C186.589 168.504 186.576 168.533 186.571 168.565C186.567 168.596 186.571 168.628 186.583 168.657C186.596 168.686 186.616 168.711 186.642 168.729C186.668 168.748 186.698 168.758 186.73 168.76L189.45 168.87C189.473 168.878 189.497 168.878 189.52 168.87L190.29 167.98C190.315 167.958 190.332 167.929 190.34 167.897C190.347 167.866 190.345 167.832 190.333 167.801C190.321 167.771 190.3 167.745 190.273 167.726C190.245 167.708 190.213 167.699 190.18 167.7L187.41 167.59C187.385 167.589 187.36 167.594 187.338 167.605C187.315 167.615 187.295 167.631 187.28 167.65L186.61 168.48Z" fill="#66D7F2"/>
<path d="M185.13 167.24L187.01 167.3C187.062 167.295 187.111 167.274 187.15 167.24L187.91 166.35C187.931 166.326 187.944 166.297 187.949 166.265C187.954 166.234 187.949 166.202 187.937 166.173C187.924 166.144 187.904 166.119 187.878 166.101C187.852 166.082 187.822 166.072 187.79 166.07L185.93 166.01C185.919 166.004 185.907 166.001 185.895 166.001C185.883 166.001 185.871 166.004 185.86 166.01L185 167C184.991 167.024 184.987 167.05 184.989 167.076C184.99 167.102 184.998 167.127 185.01 167.15C185.022 167.173 185.039 167.193 185.06 167.208C185.081 167.224 185.105 167.235 185.13 167.24Z" fill="#66D7F2"/>
<path d="M183.75 168.63L185.89 168.71C185.917 168.712 185.943 168.707 185.967 168.697C185.992 168.686 186.013 168.67 186.03 168.65L186.77 167.8C186.791 167.776 186.804 167.747 186.809 167.715C186.814 167.684 186.81 167.652 186.797 167.623C186.785 167.594 186.764 167.569 186.738 167.55C186.712 167.532 186.682 167.522 186.65 167.52L184.74 167.45C184.714 167.448 184.687 167.453 184.663 167.463C184.639 167.474 184.617 167.49 184.6 167.51L183.69 168.51C183.686 168.522 183.683 168.534 183.684 168.547C183.684 168.56 183.688 168.572 183.693 168.583C183.699 168.595 183.707 168.605 183.717 168.613C183.727 168.621 183.738 168.627 183.75 168.63Z" fill="#66D7F2"/>
<path opacity="0.8" d="M189.89 166.16L190.34 167.42L188.89 167.37L188.51 166.11L189.89 166.16Z" fill="#9AE9F7"/>
<path opacity="0.8" d="M188.92 167.61L189.37 168.87L187.92 168.82L187.54 167.56L188.92 167.61Z" fill="#9AE9F7"/>
<path opacity="0.8" d="M185.61 167.48L185.86 168.71L185.04 168.68L184.83 167.45L185.61 167.48Z" fill="#9AE9F7"/>
<path opacity="0.8" d="M186.73 166.05L186.98 167.28L186.16 167.25L185.94 166.02L186.73 166.05Z" fill="#9AE9F7"/>
<path opacity="0.5" d="M175.81 171.84L181.5 172.05C181.511 172.056 181.523 172.059 181.535 172.059C181.547 172.059 181.559 172.056 181.57 172.05L183.96 169.39C183.975 169.376 183.986 169.358 183.992 169.337C183.997 169.317 183.997 169.296 183.99 169.276C183.984 169.256 183.972 169.238 183.956 169.225C183.94 169.211 183.921 169.203 183.9 169.2L178.21 168.98C178.184 168.97 178.156 168.97 178.13 168.98L175.74 171.64C175.72 171.654 175.706 171.673 175.698 171.696C175.691 171.719 175.691 171.744 175.699 171.767C175.707 171.789 175.722 171.809 175.742 171.822C175.762 171.835 175.786 171.841 175.81 171.84Z" fill="#179668"/>
<path d="M180.05 171.3C179.989 171.325 179.921 171.325 179.86 171.3L179.99 171.17L180.05 171.3Z" fill="#335860"/>
<path d="M180 168.31V171.2C180 171.219 179.996 171.238 179.989 171.255C179.981 171.272 179.97 171.288 179.955 171.3C179.941 171.312 179.924 171.321 179.906 171.327C179.888 171.332 179.869 171.333 179.85 171.33L177.85 171.12C177.815 171.113 177.783 171.092 177.763 171.062C177.742 171.032 177.734 170.996 177.74 170.96L178.3 168.11C178.307 168.077 178.327 168.049 178.355 168.03C178.383 168.011 178.417 168.004 178.45 168.01L179.91 168.17C179.938 168.181 179.962 168.2 179.978 168.225C179.994 168.25 180.002 168.28 180 168.31Z" fill="#517D84"/>
<path d="M180.05 171.3L180.96 170.53C180.983 170.506 180.996 170.474 180.996 170.44C180.996 170.407 180.983 170.374 180.96 170.35L180.74 170.1L179.98 170.71V171.28C179.98 171.28 180 171.32 180.05 171.3Z" fill="#335860"/>
<path d="M180.76 170.1L180.01 170.02L180 170.71L180.76 170.1Z" fill="#27454C"/>
<path d="M180 169.3L178.1 169.12L177.99 169.69L180.01 169.92L180 169.3Z" fill="#335860"/>
<path d="M175.29 168.79L175.36 168.84L177.94 166.1H178.03L184.29 166.18H184.34H184.42V166.51C184.423 166.533 184.423 166.557 184.42 166.58L181.79 169.51C181.778 169.517 181.764 169.521 181.75 169.521C181.736 169.521 181.722 169.517 181.71 169.51L175.45 169.28C175.419 169.278 175.39 169.264 175.368 169.242C175.346 169.22 175.332 169.191 175.33 169.16L175.29 168.79Z" fill="#38606B"/>
<path d="M175.4 168.93L181.66 169.17C181.689 169.179 181.721 169.179 181.75 169.17L184.37 166.24C184.388 166.224 184.401 166.204 184.407 166.181C184.413 166.158 184.412 166.134 184.405 166.112C184.397 166.089 184.384 166.07 184.365 166.055C184.346 166.04 184.324 166.032 184.3 166.03L178.04 165.79C178.014 165.78 177.986 165.78 177.96 165.79L175.33 168.72C175.312 168.736 175.299 168.756 175.293 168.779C175.287 168.802 175.288 168.826 175.295 168.848C175.303 168.871 175.317 168.89 175.335 168.905C175.354 168.92 175.376 168.928 175.4 168.93Z" fill="#F2FAFC"/>
<path d="M180 167.33L182.84 167.43C182.865 167.431 182.89 167.426 182.912 167.415C182.935 167.405 182.954 167.389 182.97 167.37L183.85 166.37C183.859 166.357 183.864 166.343 183.865 166.328C183.867 166.313 183.865 166.297 183.859 166.283C183.853 166.269 183.843 166.257 183.831 166.248C183.819 166.238 183.805 166.232 183.79 166.23L180.7 166.11C180.675 166.109 180.65 166.114 180.628 166.125C180.605 166.135 180.586 166.151 180.57 166.17L179.88 167.05C179.863 167.075 179.852 167.104 179.849 167.134C179.846 167.165 179.851 167.195 179.863 167.223C179.875 167.251 179.894 167.276 179.918 167.294C179.942 167.313 179.97 167.325 180 167.33Z" fill="#66D7F2"/>
<path d="M178.78 168.48C178.763 168.505 178.752 168.534 178.749 168.564C178.746 168.595 178.751 168.625 178.763 168.653C178.775 168.681 178.794 168.705 178.818 168.724C178.842 168.743 178.87 168.755 178.9 168.76L181.62 168.87C181.631 168.875 181.643 168.877 181.655 168.877C181.667 168.877 181.679 168.875 181.69 168.87L182.47 167.98C182.491 167.956 182.504 167.926 182.509 167.895C182.514 167.864 182.509 167.832 182.497 167.803C182.485 167.774 182.464 167.749 182.438 167.73C182.412 167.712 182.382 167.702 182.35 167.7L179.59 167.59C179.564 167.588 179.537 167.593 179.513 167.603C179.489 167.614 179.467 167.63 179.45 167.65L178.78 168.48Z" fill="#66D7F2"/>
<path d="M177.31 167.24L179.18 167.3C179.232 167.297 179.282 167.276 179.32 167.24L180.08 166.35C180.101 166.326 180.114 166.297 180.119 166.265C180.123 166.234 180.119 166.202 180.107 166.173C180.094 166.144 180.074 166.119 180.048 166.101C180.022 166.082 179.992 166.072 179.96 166.07L178.1 166C178.089 165.994 178.077 165.991 178.065 165.991C178.053 165.991 178.041 165.994 178.03 166L177.18 166.92C177.15 166.944 177.128 166.978 177.118 167.015C177.108 167.053 177.111 167.093 177.125 167.129C177.14 167.165 177.166 167.195 177.199 167.215C177.232 167.235 177.271 167.244 177.31 167.24Z" fill="#66D7F2"/>
<path d="M175.93 168.63L178.07 168.71C178.123 168.709 178.173 168.688 178.21 168.65L178.94 167.8C178.961 167.776 178.974 167.746 178.979 167.715C178.983 167.684 178.979 167.652 178.967 167.623C178.954 167.594 178.934 167.569 178.908 167.55C178.882 167.532 178.852 167.522 178.82 167.52L176.91 167.45C176.857 167.451 176.807 167.472 176.77 167.51L175.86 168.51C175.855 168.522 175.854 168.536 175.855 168.549C175.856 168.562 175.86 168.575 175.867 168.586C175.873 168.598 175.883 168.608 175.894 168.615C175.904 168.623 175.917 168.628 175.93 168.63Z" fill="#66D7F2"/>
<path opacity="0.8" d="M182.07 166.16L182.51 167.42L181.06 167.37L180.68 166.11L182.07 166.16Z" fill="#9AE9F7"/>
<path opacity="0.8" d="M181.09 167.61L181.54 168.87L180.09 168.82L179.71 167.56L181.09 167.61Z" fill="#9AE9F7"/>
<path opacity="0.8" d="M177.78 167.48L178.03 168.71L177.21 168.68L177 167.45L177.78 167.48Z" fill="#9AE9F7"/>
<path opacity="0.8" d="M178.9 166.05L179.15 167.28L178.33 167.25L178.12 166.02L178.9 166.05Z" fill="#9AE9F7"/>
<path opacity="0.5" d="M170.34 176.68L176.03 176.9C176.053 176.908 176.077 176.908 176.1 176.9L178.49 174.24C178.505 174.226 178.516 174.208 178.522 174.187C178.527 174.167 178.527 174.146 178.52 174.126C178.514 174.106 178.502 174.088 178.486 174.075C178.47 174.061 178.451 174.053 178.43 174.05L172.74 173.84C172.728 173.833 172.714 173.829 172.7 173.829C172.686 173.829 172.672 173.833 172.66 173.84L170.27 176.5C170.257 176.515 170.249 176.533 170.246 176.553C170.242 176.572 170.244 176.592 170.252 176.611C170.259 176.629 170.271 176.645 170.286 176.658C170.302 176.67 170.32 176.678 170.34 176.68Z" fill="#179668"/>
<path d="M174.58 176.15C174.58 176.15 174.53 176.15 174.39 176.15L174.52 176.03L174.58 176.15Z" fill="#335860"/>
<path d="M174.56 173.16V176.05C174.56 176.069 174.556 176.088 174.549 176.105C174.541 176.122 174.53 176.137 174.515 176.15C174.501 176.162 174.484 176.171 174.466 176.176C174.448 176.182 174.429 176.183 174.41 176.18L172.41 175.96C172.392 175.958 172.374 175.951 172.359 175.942C172.343 175.932 172.33 175.92 172.319 175.905C172.309 175.889 172.302 175.872 172.298 175.854C172.295 175.836 172.296 175.818 172.3 175.8L172.86 172.96C172.863 172.943 172.868 172.926 172.877 172.911C172.886 172.896 172.898 172.884 172.912 172.873C172.926 172.863 172.942 172.856 172.959 172.852C172.976 172.848 172.993 172.847 173.01 172.85L174.47 173.02C174.498 173.031 174.522 173.05 174.538 173.075C174.554 173.1 174.562 173.13 174.56 173.16Z" fill="#517D84"/>
<path d="M174.58 176.15L175.49 175.38C175.513 175.356 175.526 175.323 175.526 175.29C175.526 175.256 175.513 175.224 175.49 175.2L175.27 174.94L174.51 175.56V176.12L174.58 176.15Z" fill="#335860"/>
<path d="M175.29 174.94L174.54 174.87L174.53 175.56L175.29 174.94Z" fill="#27454C"/>
<path d="M174.53 174.15L172.63 173.97L172.52 174.54L174.54 174.76L174.53 174.15Z" fill="#335860"/>
<path d="M169.82 173.64H169.89L172.47 170.9C172.499 170.891 172.531 170.891 172.56 170.9L178.82 170.99H178.87H178.95V171.31C178.955 171.333 178.955 171.357 178.95 171.38L176.32 174.31C176.291 174.322 176.259 174.322 176.23 174.31L169.98 174.07C169.948 174.07 169.918 174.057 169.895 174.035C169.873 174.012 169.86 173.982 169.86 173.95L169.82 173.64Z" fill="#38606B"/>
<path d="M169.93 173.77L176.19 174.01C176.219 174.019 176.251 174.019 176.28 174.01L178.9 171.09C178.922 171.076 178.938 171.055 178.947 171.03C178.956 171.005 178.956 170.979 178.948 170.954C178.94 170.929 178.924 170.907 178.903 170.892C178.882 170.877 178.856 170.869 178.83 170.87L172.57 170.64C172.558 170.633 172.544 170.629 172.53 170.629C172.516 170.629 172.502 170.633 172.49 170.64L169.86 173.57C169.845 173.586 169.835 173.606 169.831 173.627C169.826 173.648 169.828 173.671 169.835 173.691C169.842 173.712 169.855 173.73 169.871 173.744C169.888 173.758 169.908 173.767 169.93 173.77Z" fill="#F2FAFC"/>
<path d="M174.51 172.18L177.35 172.27C177.398 172.27 177.445 172.252 177.48 172.22L178.35 171.22C178.362 171.212 178.373 171.201 178.38 171.188C178.387 171.174 178.39 171.16 178.39 171.145C178.39 171.13 178.387 171.115 178.38 171.102C178.373 171.089 178.362 171.078 178.35 171.07L175.26 170.95C175.234 170.951 175.21 170.958 175.187 170.97C175.165 170.982 175.145 170.999 175.13 171.02L174.44 171.9C174.422 171.922 174.41 171.947 174.404 171.975C174.398 172.002 174.398 172.03 174.405 172.058C174.412 172.085 174.425 172.11 174.443 172.131C174.461 172.152 174.484 172.169 174.51 172.18Z" fill="#66D7F2"/>
<path d="M173.31 173.32C173.293 173.345 173.282 173.374 173.279 173.404C173.276 173.435 173.281 173.465 173.293 173.493C173.305 173.521 173.324 173.546 173.348 173.564C173.372 173.583 173.4 173.595 173.43 173.6L176.15 173.71H176.22L177 172.82C177.02 172.795 177.033 172.765 177.037 172.733C177.041 172.702 177.037 172.669 177.025 172.64C177.013 172.61 176.993 172.585 176.967 172.565C176.942 172.546 176.912 172.534 176.88 172.53L174.12 172.42C174.093 172.42 174.066 172.426 174.042 172.438C174.017 172.45 173.996 172.468 173.98 172.49L173.31 173.32Z" fill="#66D7F2"/>
<path d="M171.84 172.08L173.71 172.14C173.736 172.141 173.763 172.136 173.787 172.125C173.811 172.115 173.833 172.1 173.85 172.08L174.61 171.2C174.631 171.176 174.644 171.146 174.649 171.115C174.654 171.084 174.649 171.052 174.637 171.023C174.625 170.994 174.604 170.969 174.578 170.95C174.552 170.932 174.522 170.922 174.49 170.92L172.63 170.85C172.607 170.842 172.583 170.842 172.56 170.85L171.71 171.77C171.675 171.791 171.649 171.824 171.637 171.863C171.624 171.901 171.626 171.943 171.642 171.981C171.658 172.018 171.686 172.049 171.723 172.067C171.759 172.085 171.801 172.09 171.84 172.08Z" fill="#66D7F2"/>
<path d="M170.46 173.47L172.6 173.56C172.653 173.559 172.703 173.538 172.74 173.5L173.47 172.64C173.49 172.616 173.504 172.587 173.509 172.555C173.513 172.524 173.509 172.492 173.497 172.463C173.484 172.434 173.464 172.409 173.438 172.391C173.412 172.372 173.382 172.362 173.35 172.36L171.44 172.3C171.418 172.289 171.394 172.284 171.37 172.284C171.346 172.284 171.322 172.289 171.3 172.3L170.39 173.3C170.367 173.309 170.349 173.327 170.34 173.35C170.331 173.372 170.331 173.398 170.34 173.42C170.349 173.443 170.367 173.461 170.39 173.47C170.412 173.479 170.437 173.479 170.46 173.47Z" fill="#66D7F2"/>
<path opacity="0.8" d="M176.6 171.01L177.04 172.26L175.59 172.21L175.21 170.96L176.6 171.01Z" fill="#9AE9F7"/>
<path opacity="0.8" d="M175.63 172.46L176.07 173.71L174.62 173.66L174.24 172.4L175.63 172.46Z" fill="#9AE9F7"/>
<path opacity="0.8" d="M172.31 172.32L172.56 173.56L171.74 173.53L171.53 172.29L172.31 172.32Z" fill="#9AE9F7"/>
<path opacity="0.8" d="M173.43 170.89L173.68 172.13L172.86 172.1L172.65 170.87L173.43 170.89Z" fill="#9AE9F7"/>
<path opacity="0.5" d="M178.17 176.68L183.85 176.9C183.876 176.91 183.904 176.91 183.93 176.9L186.32 174.24C186.336 174.225 186.347 174.206 186.352 174.185C186.357 174.164 186.355 174.142 186.348 174.122C186.341 174.102 186.327 174.084 186.31 174.071C186.292 174.058 186.272 174.051 186.25 174.05L180.57 173.84C180.558 173.833 180.544 173.829 180.53 173.829C180.516 173.829 180.502 173.833 180.49 173.84L178.1 176.5C178.087 176.515 178.079 176.533 178.076 176.553C178.072 176.572 178.075 176.592 178.082 176.611C178.089 176.629 178.101 176.645 178.116 176.658C178.132 176.67 178.151 176.678 178.17 176.68Z" fill="#179668"/>
<path d="M182.4 176.15C182.4 176.15 182.4 176.15 182.22 176.15L182.35 176.03L182.4 176.15Z" fill="#335860"/>
<path d="M182.39 173.16V176.05C182.39 176.069 182.386 176.088 182.379 176.105C182.371 176.122 182.359 176.137 182.345 176.15C182.331 176.162 182.314 176.171 182.296 176.176C182.278 176.182 182.259 176.183 182.24 176.18L180.24 175.96C180.222 175.957 180.204 175.951 180.188 175.942C180.172 175.933 180.158 175.92 180.146 175.905C180.135 175.89 180.127 175.873 180.123 175.855C180.118 175.837 180.117 175.818 180.12 175.8L180.69 172.96C180.692 172.943 180.698 172.926 180.707 172.911C180.716 172.896 180.728 172.884 180.742 172.873C180.756 172.863 180.772 172.856 180.789 172.852C180.805 172.848 180.823 172.847 180.84 172.85L182.3 173.02C182.328 173.031 182.352 173.05 182.368 173.075C182.384 173.1 182.392 173.13 182.39 173.16Z" fill="#517D84"/>
<path d="M182.4 176.15L183.32 175.38C183.341 175.355 183.353 175.323 183.353 175.29C183.353 175.257 183.341 175.225 183.32 175.2L183.1 174.94L182.34 175.56V176.12C182.34 176.12 182.38 176.17 182.4 176.15Z" fill="#335860"/>
<path d="M183.12 174.94L182.37 174.87L182.36 175.56L183.12 174.94Z" fill="#27454C"/>
<path d="M182.36 174.15L180.46 173.97L180.34 174.54L182.37 174.76L182.36 174.15Z" fill="#335860"/>
<path d="M177.65 173.64H177.72L180.3 170.9C180.326 170.89 180.354 170.89 180.38 170.9L186.65 170.99H186.72V171.31C186.725 171.321 186.728 171.333 186.728 171.345C186.728 171.357 186.725 171.369 186.72 171.38L184.1 174.31C184.071 174.319 184.039 174.319 184.01 174.31L177.75 174.07C177.735 174.07 177.72 174.067 177.706 174.061C177.692 174.055 177.679 174.046 177.669 174.034C177.658 174.023 177.65 174.01 177.645 173.995C177.641 173.981 177.639 173.965 177.64 173.95L177.65 173.64Z" fill="#38606B"/>
<path d="M177.76 173.77L184 174C184.026 174.01 184.054 174.01 184.08 174L186.71 171.08C186.727 171.063 186.739 171.042 186.744 171.019C186.75 170.996 186.749 170.972 186.742 170.949C186.735 170.926 186.721 170.906 186.704 170.89C186.686 170.875 186.664 170.864 186.64 170.86L180.38 170.63C180.368 170.623 180.354 170.619 180.34 170.619C180.326 170.619 180.312 170.623 180.3 170.63L177.67 173.56C177.651 173.577 177.638 173.599 177.632 173.624C177.626 173.649 177.629 173.675 177.639 173.698C177.649 173.721 177.666 173.741 177.688 173.754C177.709 173.767 177.735 173.772 177.76 173.77Z" fill="#F2FAFC"/>
<path d="M182.34 172.18L185.18 172.27C185.228 172.27 185.275 172.253 185.31 172.22L186.18 171.22C186.191 171.208 186.199 171.192 186.202 171.176C186.205 171.159 186.203 171.142 186.197 171.126C186.191 171.111 186.18 171.097 186.167 171.087C186.153 171.077 186.137 171.071 186.12 171.07L183 171C182.975 171.001 182.95 171.008 182.927 171.02C182.905 171.032 182.885 171.049 182.87 171.07L182.18 171.95C182.17 171.976 182.167 172.004 182.17 172.031C182.174 172.058 182.184 172.084 182.2 172.107C182.215 172.13 182.236 172.148 182.261 172.161C182.285 172.174 182.313 172.18 182.34 172.18Z" fill="#66D7F2"/>
<path d="M181.14 173.32C181.119 173.344 181.106 173.373 181.101 173.405C181.097 173.436 181.101 173.468 181.113 173.497C181.126 173.526 181.146 173.551 181.172 173.569C181.198 173.588 181.228 173.598 181.26 173.6L183.98 173.71H184.04L184.82 172.82C184.843 172.797 184.859 172.767 184.866 172.735C184.873 172.703 184.87 172.67 184.859 172.639C184.847 172.609 184.827 172.582 184.801 172.563C184.774 172.543 184.743 172.532 184.71 172.53L181.94 172.42C181.914 172.421 181.889 172.428 181.867 172.44C181.844 172.452 181.825 172.469 181.81 172.49L181.14 173.32Z" fill="#66D7F2"/>
<path d="M179.66 172.08L181.54 172.14C181.593 172.139 181.643 172.118 181.68 172.08L182.44 171.2C182.461 171.176 182.474 171.146 182.479 171.115C182.484 171.084 182.479 171.052 182.467 171.023C182.454 170.994 182.434 170.969 182.408 170.95C182.382 170.932 182.352 170.922 182.32 170.92L180.46 170.85C180.437 170.842 180.413 170.842 180.39 170.85L179.54 171.77C179.508 171.791 179.483 171.823 179.471 171.86C179.46 171.897 179.461 171.937 179.475 171.973C179.489 172.01 179.515 172.04 179.549 172.059C179.582 172.079 179.622 172.086 179.66 172.08Z" fill="#66D7F2"/>
<path d="M178.28 173.47L180.42 173.56C180.446 173.562 180.473 173.557 180.497 173.547C180.521 173.536 180.543 173.52 180.56 173.5L181.3 172.64C181.321 172.616 181.334 172.587 181.339 172.555C181.343 172.524 181.339 172.492 181.327 172.463C181.314 172.434 181.294 172.409 181.268 172.391C181.242 172.372 181.212 172.362 181.18 172.36L179.26 172.3C179.24 172.289 179.218 172.283 179.195 172.283C179.172 172.283 179.15 172.289 179.13 172.3L178.22 173.3C178.198 173.308 178.179 173.325 178.169 173.346C178.158 173.368 178.157 173.393 178.165 173.415C178.173 173.438 178.19 173.456 178.211 173.466C178.233 173.477 178.258 173.478 178.28 173.47Z" fill="#66D7F2"/>
<path opacity="0.8" d="M184.42 171.01L184.87 172.26L183.42 172.21L183.04 170.96L184.42 171.01Z" fill="#9AE9F7"/>
<path opacity="0.8" d="M183.45 172.46L183.9 173.71L182.45 173.66L182.07 172.4L183.45 172.46Z" fill="#9AE9F7"/>
<path opacity="0.8" d="M180.14 172.32L180.39 173.56L179.57 173.53L179.36 172.29L180.14 172.32Z" fill="#9AE9F7"/>
<path opacity="0.8" d="M181.25 170.89L181.5 172.13L180.69 172.1L180.47 170.87L181.25 170.89Z" fill="#9AE9F7"/>
<path opacity="0.5" d="M191.21 172L196.9 172.22C196.911 172.225 196.923 172.227 196.935 172.227C196.947 172.227 196.959 172.225 196.97 172.22L199.36 169.56C199.375 169.546 199.387 169.528 199.392 169.508C199.397 169.487 199.397 169.466 199.391 169.446C199.384 169.426 199.372 169.408 199.356 169.395C199.34 169.381 199.321 169.373 199.3 169.37L193.61 169.16C193.598 169.153 193.584 169.149 193.57 169.149C193.556 169.149 193.542 169.153 193.53 169.16L191.15 171.82C191.133 171.833 191.121 171.85 191.115 171.87C191.108 171.89 191.109 171.912 191.115 171.932C191.122 171.952 191.135 171.969 191.152 171.981C191.169 171.994 191.189 172 191.21 172Z" fill="#179668"/>
<path d="M195.45 171.42C195.45 171.42 195.45 171.47 195.26 171.42L195.39 171.3L195.45 171.42Z" fill="#335860"/>
<path d="M195.43 168.43V171.32C195.43 171.339 195.426 171.358 195.419 171.375C195.411 171.392 195.399 171.407 195.385 171.42C195.371 171.432 195.354 171.441 195.336 171.446C195.318 171.452 195.299 171.453 195.28 171.45L193.28 171.23C193.261 171.229 193.242 171.224 193.225 171.215C193.209 171.206 193.194 171.193 193.182 171.178C193.171 171.163 193.163 171.145 193.159 171.127C193.155 171.108 193.156 171.089 193.16 171.07L193.72 168.23C193.727 168.196 193.746 168.167 193.774 168.146C193.802 168.126 193.836 168.117 193.87 168.12L195.33 168.29C195.36 168.299 195.386 168.317 195.404 168.343C195.422 168.368 195.431 168.399 195.43 168.43Z" fill="#517D84"/>
<path d="M195.45 171.42L196.36 170.65C196.383 170.626 196.396 170.593 196.396 170.56C196.396 170.526 196.383 170.494 196.36 170.47L196.14 170.21L195.38 170.83V171.39C195.38 171.39 195.43 171.44 195.45 171.42Z" fill="#335860"/>
<path d="M196.16 170.21L195.41 170.14L195.4 170.83L196.16 170.21Z" fill="#27454C"/>
<path d="M195.4 169.42L193.5 169.24L193.39 169.81L195.41 170.03L195.4 169.42Z" fill="#335860"/>
<path d="M190.69 168.91H190.77L193.34 166.17C193.369 166.161 193.401 166.161 193.43 166.17L199.7 166.26H199.78V166.59C199.785 166.613 199.785 166.637 199.78 166.66L197.15 169.59C197.124 169.6 197.096 169.6 197.07 169.59L190.81 169.35C190.78 169.348 190.752 169.336 190.731 169.316C190.709 169.296 190.694 169.269 190.69 169.24V168.91Z" fill="#38606B"/>
<path d="M190.8 169L197.06 169.24C197.089 169.249 197.121 169.249 197.15 169.24L199.78 166.32C199.798 166.304 199.811 166.283 199.817 166.259C199.823 166.235 199.821 166.21 199.813 166.187C199.804 166.165 199.789 166.145 199.768 166.131C199.748 166.117 199.724 166.11 199.7 166.11L193.44 165.87C193.414 165.86 193.386 165.86 193.36 165.87L190.73 168.79C190.712 168.806 190.699 168.826 190.693 168.849C190.687 168.872 190.688 168.896 190.695 168.918C190.703 168.941 190.717 168.961 190.735 168.975C190.754 168.99 190.776 168.998 190.8 169Z" fill="#F2FAFC"/>
<path d="M195.39 167.45L198.23 167.54C198.249 167.548 198.269 167.553 198.29 167.553C198.311 167.553 198.331 167.548 198.35 167.54L199.23 166.54C199.241 166.528 199.249 166.512 199.252 166.496C199.255 166.479 199.253 166.462 199.247 166.446C199.241 166.431 199.23 166.417 199.216 166.407C199.203 166.397 199.187 166.391 199.17 166.39L196.08 166.28C196.055 166.277 196.03 166.282 196.007 166.292C195.984 166.303 195.964 166.319 195.95 166.34L195.26 167.22C195.252 167.244 195.25 167.269 195.252 167.293C195.255 167.318 195.263 167.342 195.275 167.363C195.287 167.385 195.304 167.404 195.323 167.419C195.343 167.434 195.366 167.444 195.39 167.45Z" fill="#66D7F2"/>
<path d="M194.18 168.59C194.163 168.615 194.152 168.644 194.149 168.674C194.146 168.705 194.151 168.735 194.163 168.763C194.175 168.791 194.194 168.816 194.218 168.834C194.242 168.853 194.27 168.865 194.3 168.87L197 169C197.01 169.007 197.022 169.011 197.035 169.011C197.048 169.011 197.06 169.007 197.07 169L197.85 168.11C197.87 168.085 197.883 168.055 197.887 168.023C197.891 167.992 197.887 167.959 197.875 167.93C197.863 167.9 197.843 167.875 197.817 167.855C197.792 167.836 197.762 167.824 197.73 167.82L194.97 167.71C194.916 167.714 194.866 167.739 194.83 167.78L194.18 168.59Z" fill="#66D7F2"/>
<path d="M192.71 167.35L194.58 167.41C194.606 167.412 194.633 167.407 194.657 167.397C194.681 167.386 194.703 167.37 194.72 167.35L195.49 166.47C195.511 166.445 195.525 166.415 195.529 166.383C195.533 166.351 195.528 166.318 195.515 166.289C195.501 166.259 195.479 166.234 195.452 166.217C195.424 166.199 195.392 166.19 195.36 166.19L193.51 166.12C193.499 166.115 193.487 166.112 193.475 166.112C193.463 166.112 193.451 166.115 193.44 166.12L192.58 167.04C192.545 167.061 192.519 167.094 192.507 167.133C192.494 167.172 192.496 167.214 192.512 167.251C192.527 167.289 192.556 167.319 192.593 167.337C192.629 167.356 192.671 167.36 192.71 167.35Z" fill="#66D7F2"/>
<path d="M191.33 168.74L193.47 168.83C193.523 168.829 193.573 168.808 193.61 168.77L194.35 167.92C194.371 167.895 194.384 167.865 194.389 167.833C194.393 167.801 194.388 167.768 194.375 167.738C194.361 167.709 194.339 167.684 194.312 167.667C194.284 167.649 194.252 167.64 194.22 167.64L192.31 167.57C192.284 167.566 192.258 167.569 192.234 167.578C192.209 167.586 192.188 167.601 192.17 167.62L191.26 168.62C191.255 168.632 191.254 168.646 191.255 168.659C191.256 168.672 191.26 168.685 191.267 168.696C191.273 168.708 191.282 168.718 191.293 168.725C191.304 168.733 191.317 168.738 191.33 168.74Z" fill="#66D7F2"/>
<path opacity="0.8" d="M197.47 166.28L197.92 167.54L196.46 167.48L196.08 166.23L197.47 166.28Z" fill="#9AE9F7"/>
<path opacity="0.8" d="M196.5 167.73L196.94 168.99L195.49 168.93L195.11 167.67L196.5 167.73Z" fill="#9AE9F7"/>
<path opacity="0.8" d="M193.19 167.59L193.44 168.83L192.62 168.8L192.4 167.57L193.19 167.59Z" fill="#9AE9F7"/>
<path opacity="0.8" d="M194.3 166.16L194.55 167.4L193.73 167.37L193.52 166.13L194.3 166.16Z" fill="#9AE9F7"/>
<path opacity="0.5" d="M185.79 176.8L191.47 177.02C191.496 177.03 191.524 177.03 191.55 177.02L193.94 174.36C193.956 174.345 193.967 174.326 193.972 174.305C193.977 174.284 193.976 174.262 193.968 174.242C193.961 174.221 193.947 174.204 193.93 174.191C193.913 174.178 193.892 174.171 193.87 174.17L188.19 173.95C188.164 173.94 188.136 173.94 188.11 173.95L185.72 176.61C185.704 176.625 185.693 176.644 185.688 176.665C185.684 176.686 185.685 176.708 185.692 176.728C185.7 176.748 185.713 176.766 185.73 176.779C185.748 176.791 185.769 176.799 185.79 176.8Z" fill="#179668"/>
<path d="M190 176.26C190 176.26 190 176.31 189.82 176.26L189.95 176.14L190 176.26Z" fill="#335860"/>
<path d="M190 173.27V176.16C189.998 176.198 189.981 176.234 189.953 176.26C189.925 176.286 189.888 176.3 189.85 176.3L187.85 176.08C187.832 176.078 187.814 176.072 187.798 176.062C187.782 176.053 187.768 176.04 187.757 176.025C187.745 176.01 187.737 175.993 187.733 175.975C187.728 175.957 187.727 175.939 187.73 175.92L188.3 173.07C188.309 173.038 188.329 173.011 188.357 172.993C188.384 172.974 188.417 172.966 188.45 172.97L189.91 173.14C189.938 173.147 189.963 173.164 189.98 173.188C189.996 173.212 190.003 173.241 190 173.27Z" fill="#517D84"/>
<path d="M190 176.26L190.92 175.49C190.941 175.465 190.953 175.433 190.953 175.4C190.953 175.367 190.941 175.335 190.92 175.31L190.7 175.06L189.94 175.67V176.24L190 176.26Z" fill="#335860"/>
<path d="M190.74 175.06L189.99 174.99L189.98 175.67L190.74 175.06Z" fill="#27454C"/>
<path d="M189.98 174.26L188.08 174.08L187.97 174.65L189.99 174.88L189.98 174.26Z" fill="#335860"/>
<path d="M185.27 173.75L185.34 173.8L187.92 171.06C187.946 171.05 187.974 171.05 188 171.06L194.27 171.14H194.34V171.47C194.345 171.481 194.348 171.493 194.348 171.505C194.348 171.517 194.345 171.529 194.34 171.54L191.72 174.47C191.691 174.479 191.659 174.479 191.63 174.47L185.37 174.23C185.34 174.228 185.312 174.214 185.292 174.192C185.271 174.169 185.26 174.14 185.26 174.11L185.27 173.75Z" fill="#38606B"/>
<path d="M185.38 173.89L191.64 174.13C191.666 174.14 191.694 174.14 191.72 174.13L194.35 171.2C194.368 171.184 194.381 171.164 194.387 171.141C194.393 171.118 194.392 171.094 194.385 171.072C194.377 171.049 194.363 171.03 194.345 171.015C194.326 171 194.304 170.992 194.28 170.99L188.02 170.75C187.994 170.74 187.966 170.74 187.94 170.75L185.31 173.68C185.292 173.696 185.279 173.716 185.273 173.739C185.267 173.762 185.268 173.786 185.275 173.808C185.283 173.831 185.297 173.85 185.315 173.865C185.334 173.879 185.356 173.888 185.38 173.89Z" fill="#F2FAFC"/>
<path d="M190 172.29L192.84 172.39C192.865 172.391 192.889 172.386 192.912 172.375C192.935 172.365 192.954 172.349 192.97 172.33L193.84 171.33C193.853 171.319 193.862 171.304 193.865 171.287C193.869 171.271 193.868 171.254 193.861 171.238C193.854 171.222 193.843 171.209 193.828 171.201C193.814 171.192 193.797 171.188 193.78 171.19L190.7 171.07C190.675 171.069 190.65 171.074 190.628 171.085C190.605 171.095 190.585 171.11 190.57 171.13L189.88 172.01C189.859 172.034 189.846 172.063 189.841 172.095C189.837 172.126 189.841 172.158 189.853 172.187C189.866 172.216 189.886 172.241 189.912 172.259C189.938 172.278 189.968 172.288 190 172.29Z" fill="#66D7F2"/>
<path d="M188.76 173.44C188.74 173.464 188.726 173.494 188.721 173.525C188.717 173.556 188.721 173.588 188.733 173.617C188.746 173.646 188.766 173.672 188.792 173.69C188.818 173.708 188.848 173.718 188.88 173.72L191.6 173.83C191.609 173.835 191.62 173.837 191.63 173.837C191.64 173.837 191.651 173.835 191.66 173.83L192.44 172.94C192.465 172.918 192.482 172.89 192.49 172.858C192.498 172.826 192.495 172.792 192.483 172.762C192.471 172.731 192.45 172.705 192.423 172.687C192.395 172.669 192.363 172.659 192.33 172.66L189.56 172.55C189.535 172.549 189.511 172.554 189.488 172.565C189.465 172.575 189.446 172.591 189.43 172.61L188.76 173.44Z" fill="#66D7F2"/>
<path d="M187.28 172.2L189.16 172.26C189.213 172.259 189.263 172.238 189.3 172.2L190.06 171.31C190.081 171.286 190.094 171.257 190.099 171.225C190.103 171.194 190.099 171.162 190.087 171.133C190.074 171.104 190.054 171.079 190.028 171.061C190.002 171.042 189.972 171.032 189.94 171.03L188.08 170.97C188.057 170.962 188.033 170.962 188.01 170.97L187.16 171.88C187.131 171.904 187.109 171.936 187.099 171.973C187.089 172.009 187.091 172.048 187.104 172.083C187.118 172.119 187.142 172.149 187.173 172.17C187.205 172.191 187.242 172.202 187.28 172.2Z" fill="#66D7F2"/>
<path d="M185.9 173.59L188.04 173.67C188.067 173.675 188.094 173.671 188.119 173.661C188.144 173.65 188.165 173.632 188.18 173.61L188.92 172.76C188.941 172.736 188.954 172.707 188.959 172.675C188.964 172.644 188.959 172.612 188.947 172.583C188.934 172.554 188.914 172.529 188.888 172.51C188.862 172.492 188.832 172.482 188.8 172.48L186.88 172.41C186.855 172.409 186.831 172.414 186.808 172.425C186.785 172.435 186.766 172.451 186.75 172.47L185.84 173.47C185.833 173.481 185.83 173.494 185.829 173.508C185.829 173.521 185.832 173.534 185.838 173.546C185.844 173.558 185.852 173.568 185.863 173.576C185.874 173.584 185.887 173.588 185.9 173.59Z" fill="#66D7F2"/>
<path opacity="0.8" d="M192.04 171.12L192.49 172.38L191.04 172.33L190.66 171.07L192.04 171.12Z" fill="#9AE9F7"/>
<path opacity="0.8" d="M191.07 172.57L191.52 173.83L190.07 173.78L189.69 172.52L191.07 172.57Z" fill="#9AE9F7"/>
<path opacity="0.8" d="M187.76 172.44L188.01 173.67L187.19 173.65L186.98 172.41L187.76 172.44Z" fill="#9AE9F7"/>
<path opacity="0.8" d="M188.88 171.01L189.13 172.24L188.31 172.21L188.09 170.98L188.88 171.01Z" fill="#9AE9F7"/>
<path opacity="0.5" d="M155.41 167.72L158.24 166.56L159.06 166.6L156.97 167.72H155.41Z" fill="#179668"/>
<path opacity="0.5" d="M159.77 166.64L162.29 166.8L162.13 166.59L155.28 166.27L154.88 166.41L159.77 166.64Z" fill="#179668"/>
<path d="M156.97 167.72H155.41L156 151.88H156.42L156.97 167.72Z" fill="white"/>
<path d="M156.13 152.18H156.31C156.514 152.18 156.68 152.014 156.68 151.81V151.8C156.68 151.596 156.514 151.43 156.31 151.43H156.13C155.926 151.43 155.76 151.596 155.76 151.8V151.81C155.76 152.014 155.926 152.18 156.13 152.18Z" fill="#C6D9F2"/>
<path d="M156.2 152.17L156.83 167.72H157.01L156.43 152.17H156.2Z" fill="#C6D9F2"/>
<path d="M155.77 151.26L155.85 150.96L155.44 150.85L155.2 150.35L147.83 148.83C147.781 148.815 147.729 148.815 147.68 148.83L147.59 148.88L147.54 148.94V149L155.77 151.26Z" fill="white"/>
<path d="M156.59 151.69L156.3 151.79L156.43 152.19L156.15 152.67L159.03 159.67C159.038 159.694 159.051 159.717 159.068 159.736C159.085 159.755 159.106 159.77 159.13 159.78L159.22 159.83C159.246 159.84 159.274 159.84 159.3 159.83H159.37L156.59 151.69Z" fill="white"/>
<path d="M156.52 150.8L156.73 151.02L157.04 150.74H157.59L162.76 145.28C162.797 145.241 162.821 145.192 162.83 145.14V145.04C162.836 145.017 162.836 144.993 162.83 144.97L162.78 144.91L156.52 150.8Z" fill="white"/>
<path d="M156.22 151.88C156.54 151.88 156.8 151.62 156.8 151.3C156.8 150.98 156.54 150.72 156.22 150.72C155.9 150.72 155.64 150.98 155.64 151.3C155.64 151.62 155.9 151.88 156.22 151.88Z" fill="#EEF8F5"/>
<path opacity="0.5" d="M127.58 173.56L131.73 171.87L132.93 171.92L129.88 173.56H127.58Z" fill="#179668"/>
<path opacity="0.5" d="M133.98 171.98L137.67 172.21L137.44 171.9L127.4 171.44L126.8 171.65L133.98 171.98Z" fill="#179668"/>
<path d="M129.88 173.56H127.58L128.45 150.35H129.06L129.88 173.56Z" fill="white"/>
<path d="M128.64 150.78H128.89C129.194 150.78 129.44 150.536 129.44 150.235C129.44 149.934 129.194 149.69 128.89 149.69H128.64C128.336 149.69 128.09 149.934 128.09 150.235C128.09 150.536 128.336 150.78 128.64 150.78Z" fill="#C6D9F2"/>
<path d="M128.74 150.78L129.66 173.56H129.93L129.08 150.78H128.74Z" fill="#C6D9F2"/>
<path d="M128.92 148.85L129.34 149.03L129.59 148.46L130.36 148.21L134.11 137.85C134.125 137.813 134.133 137.774 134.133 137.735C134.133 137.695 134.125 137.656 134.11 137.62L134.06 137.49C134.054 137.47 134.044 137.451 134.03 137.436C134.016 137.42 133.999 137.408 133.98 137.4H133.88L128.92 148.85Z" fill="white"/>
<path d="M128.12 149.94L128.04 149.5L127.43 149.61L126.79 149.11L116.11 151.81C116.071 151.817 116.034 151.833 116.002 151.855C115.969 151.878 115.941 151.906 115.92 151.94L115.83 152.05C115.815 152.089 115.815 152.131 115.83 152.17V152.27L128.12 149.94Z" fill="white"/>
<path d="M129.43 150L129.06 150.26L129.41 150.77L129.21 151.56L136.04 160.21C136.09 160.268 136.156 160.31 136.23 160.33H136.38C136.397 160.337 136.416 160.341 136.435 160.341C136.454 160.341 136.473 160.337 136.49 160.33L136.58 160.27L129.43 150Z" fill="white"/>
<path d="M128.77 150.34C129.239 150.34 129.62 149.959 129.62 149.49C129.62 149.02 129.239 148.64 128.77 148.64C128.3 148.64 127.92 149.02 127.92 149.49C127.92 149.959 128.3 150.34 128.77 150.34Z" fill="#EEF8F5"/>
</svg>
